<svg width="329" height="114" viewBox="0 0 329 114" fill="none" xmlns="http://www.w3.org/2000/svg">
<path d="M173.609 59.9404C173.804 59.8756 174.095 59.8433 174.484 59.8433C175.585 59.8433 176.136 60.5559 176.136 61.9811C176.136 62.7585 175.958 63.4226 175.601 63.9732C175.277 64.4915 174.759 64.8154 174.047 64.945C171.099 65.4957 168.2 66.1111 165.349 66.7913L165.204 67.9575C164.297 74.3387 162.483 79.0517 159.762 82.0966C157.073 85.1738 153.704 86.7125 149.655 86.7125C146.967 86.7125 144.878 86.0484 143.387 84.7203C141.93 83.4247 141.201 81.7565 141.201 79.7158C141.201 76.3146 142.723 73.286 145.768 70.6298C148.813 67.9737 153.429 65.6252 159.616 63.5845L160.588 56.7336C160.717 55.9562 160.879 54.9197 161.074 53.624C159.551 57.6406 157.608 60.6369 155.243 62.6128C152.878 64.5887 150.238 65.5766 147.323 65.5766C144.537 65.5766 142.416 64.7345 140.958 63.0501C139.5 61.3333 138.772 59.1306 138.772 56.4421C138.772 55.2436 138.901 53.9317 139.16 52.5065C139.419 51.0488 139.824 49.0891 140.375 46.6273C140.861 44.3922 141.217 42.6107 141.444 41.2826C141.703 39.9545 141.833 38.7722 141.833 37.7357C141.833 36.1809 141.233 35.4035 140.035 35.4035C139.096 35.4035 137.978 35.8731 136.682 36.8125C135.419 37.7195 134.075 39.1285 132.65 41.0397C132.196 41.6551 131.694 41.9628 131.143 41.9628C130.69 41.9628 130.285 41.7523 129.929 41.3312C129.605 40.8777 129.443 40.3756 129.443 39.825C129.443 38.8208 129.896 37.6871 130.803 36.4238C134.107 31.8889 137.978 29.6215 142.416 29.6215C144.392 29.6215 145.93 30.2207 147.032 31.4192C148.165 32.6177 148.732 34.3831 148.732 36.7153C148.732 38.3997 148.57 40.1327 148.246 41.9143C147.955 43.6634 147.501 45.8985 146.886 48.6194C146.497 50.239 146.206 51.5509 146.011 52.555C145.817 53.5268 145.72 54.3366 145.72 54.9844C145.72 56.6364 146.011 57.8187 146.594 58.5314C147.177 59.244 148.198 59.6003 149.655 59.6003C151.405 59.6003 153.186 58.6447 155 56.7336C156.846 54.7901 158.498 51.8586 159.956 47.9392C161.446 44.0197 162.515 39.2257 163.163 33.5571C163.325 32.1319 163.697 31.1277 164.28 30.5446C164.863 29.9292 165.706 29.6215 166.807 29.6215C169.074 29.6215 170.208 30.7552 170.208 33.0226C170.208 33.4113 170.192 33.7191 170.16 33.9458C169.479 38.7722 168.848 43.129 168.265 47.016C167.941 49.3482 167.584 51.7452 167.196 54.207C166.839 56.6688 166.483 59.163 166.127 61.6896C168.491 61.0418 170.986 60.4587 173.609 59.9404ZM158.887 68.6863C151.048 71.4072 147.129 74.7112 147.129 78.5983C147.129 79.5052 147.404 80.2502 147.955 80.8333C148.538 81.4488 149.348 81.7565 150.384 81.7565C154.887 81.7565 157.705 77.5131 158.839 69.0264L158.887 68.6863Z" fill="white"/>
<path d="M178.654 71.0671C176.645 71.0671 175.042 70.3383 173.843 68.8806C172.645 67.423 172.046 65.5119 172.046 63.1472C172.046 60.5559 172.645 58.1103 173.843 55.8104C175.042 53.4782 176.629 51.6157 178.605 50.2228C180.613 48.7976 182.735 48.0849 184.97 48.0849C185.683 48.0849 186.152 48.2307 186.379 48.5222C186.638 48.7814 186.849 49.2673 187.011 49.9799C187.691 49.8503 188.404 49.7855 189.149 49.7855C190.736 49.7855 191.53 50.3524 191.53 51.4861C191.53 52.1663 191.287 53.7859 190.801 56.3449C190.056 60.07 189.683 62.6614 189.683 64.119C189.683 64.6049 189.797 64.9936 190.023 65.2851C190.282 65.5766 190.606 65.7224 190.995 65.7224C191.611 65.7224 192.356 65.3337 193.23 64.5563C194.105 63.7465 195.287 62.4508 196.777 60.6693C197.166 60.2158 197.603 59.989 198.089 59.989C198.51 59.989 198.834 60.1834 199.061 60.5721C199.32 60.9608 199.449 61.4952 199.449 62.1755C199.449 63.4712 199.142 64.4753 198.526 65.1879C197.198 66.8399 195.789 68.2328 194.299 69.3665C192.809 70.5002 191.368 71.0671 189.975 71.0671C188.906 71.0671 187.918 70.7108 187.011 69.9982C186.136 69.2531 185.472 68.249 185.019 66.9857C183.334 69.7066 181.213 71.0671 178.654 71.0671ZM180.403 66.1597C181.116 66.1597 181.796 65.7386 182.444 64.8964C183.091 64.0542 183.561 62.9367 183.853 61.5438L185.65 52.6036C184.29 52.636 183.027 53.1543 181.861 54.1584C180.727 55.1302 179.82 56.4259 179.14 58.0455C178.459 59.6651 178.119 61.3819 178.119 63.1958C178.119 64.2 178.314 64.945 178.702 65.4309C179.123 65.9168 179.69 66.1597 180.403 66.1597Z" fill="white"/>
<path d="M216.15 65.771C217.478 66.0301 218.143 66.759 218.143 67.9575C218.143 68.7673 217.77 69.4961 217.025 70.1439C216.312 70.7594 215.276 71.0671 213.915 71.0671C211.583 71.0671 209.672 70.3545 208.182 68.9292C206.724 67.4716 205.996 65.5766 205.996 63.2444C205.996 61.9811 206.643 61.0742 207.939 60.5235C209.364 59.908 210.385 59.2602 211 58.58C211.616 57.8673 211.923 57.0089 211.923 56.0048C211.923 55.4217 211.794 54.9844 211.535 54.6929C211.308 54.4014 211.016 54.2556 210.66 54.2556C209.785 54.2556 208.814 54.8873 207.745 56.1506C206.708 57.4138 205.736 59.0496 204.829 61.058C203.922 63.0339 203.21 65.0746 202.692 67.1801C202.335 68.7025 201.914 69.739 201.428 70.2897C200.975 70.808 200.246 71.0671 199.242 71.0671C198.238 71.0671 197.493 70.7108 197.007 69.9982C196.553 69.2531 196.245 68.1194 196.084 66.597C195.922 65.0746 195.841 62.8395 195.841 59.8918C195.841 54.9035 196.343 49.7045 197.347 44.2951C198.383 38.8856 199.89 34.3507 201.866 30.6904C203.874 26.9977 206.271 25.1514 209.057 25.1514C210.547 25.1514 211.745 25.7992 212.652 27.0949C213.591 28.3582 214.061 30.0102 214.061 32.0509C214.061 35.3225 213.106 38.7236 211.194 42.2544C209.283 45.7527 206.174 49.8503 201.866 54.5472C201.768 56.2315 201.72 57.9645 201.72 59.7461C203.275 55.6971 205.056 52.7656 207.064 50.9516C209.073 49.1053 210.951 48.1821 212.701 48.1821C214.32 48.1821 215.616 48.7328 216.588 49.8341C217.592 50.9354 218.094 52.2959 218.094 53.9155C218.094 55.6971 217.64 57.3329 216.733 58.8229C215.826 60.3129 214.272 61.641 212.069 62.8071C212.263 63.7789 212.652 64.4591 213.235 64.8478C213.851 65.2041 214.822 65.5119 216.15 65.771ZM208.036 29.9616C207.453 29.9616 206.805 30.8038 206.093 32.4882C205.38 34.1402 204.684 36.3914 204.003 39.2419C203.356 42.06 202.821 45.1373 202.4 48.4736C204.408 46.109 206.06 43.5339 207.356 40.7481C208.684 37.9624 209.348 35.4358 209.348 33.1684C209.348 32.1319 209.235 31.3382 209.008 30.7876C208.781 30.2369 208.457 29.9616 208.036 29.9616Z" fill="white"/>
<path d="M268.972 59.989C269.393 59.989 269.717 60.1834 269.944 60.5721C270.203 60.9608 270.333 61.4952 270.333 62.1755C270.333 63.4388 270.025 64.4429 269.409 65.1879C267.595 67.3582 265.83 68.8806 264.113 69.7552C262.429 70.6298 260.388 71.0671 257.991 71.0671C256.307 71.0671 254.752 70.8565 253.327 70.4355C251.901 70.0144 250.169 69.3827 248.128 68.5405C246.281 67.7307 244.5 67.0667 242.783 66.5484C241.131 69.5609 238.653 71.0671 235.349 71.0671C233.535 71.0671 232.094 70.6622 231.025 69.8524C229.923 69.0102 229.373 67.9413 229.373 66.6456C229.373 65.0584 230.134 63.7465 231.656 62.7099C233.179 61.641 235.203 61.1065 237.73 61.1065H238.362L239.236 46.9674C239.431 43.7282 240.014 41.0559 240.985 38.9504C241.957 36.8449 243.301 35.0471 245.018 33.5571C246.508 32.2614 248.209 31.2897 250.12 30.6418C252.031 29.9616 254.056 29.6215 256.193 29.6215C259.692 29.6215 262.38 30.5284 264.259 32.3424C266.138 34.1564 267.077 36.521 267.077 39.4363C267.077 41.4122 266.721 43.0156 266.008 44.2465C265.296 45.445 264.308 46.0442 263.044 46.0442C262.137 46.0442 261.425 45.8337 260.906 45.4126C260.388 44.9591 260.129 44.3275 260.129 43.5177C260.129 43.2261 260.194 42.6917 260.323 41.9143C260.518 41.0073 260.615 40.1975 260.615 39.4849C260.615 38.1244 260.21 37.0554 259.4 36.278C258.623 35.4682 257.424 35.0633 255.805 35.0633C252.954 35.0633 250.752 36.0027 249.197 37.8814C247.642 39.7278 246.654 42.6431 246.233 46.6273L245.115 57.6568C244.953 59.2116 244.743 60.5559 244.484 61.6896C246.557 62.0459 249.148 62.6128 252.258 63.3902C254.072 63.8437 255.465 64.1676 256.436 64.3619C257.408 64.5563 258.267 64.6535 259.012 64.6535C260.89 64.6535 262.494 64.3457 263.822 63.7303C265.182 63.0825 266.462 62.0621 267.66 60.6693C268.049 60.2158 268.486 59.989 268.972 59.989Z" fill="white"/>
<path d="M272.366 71.0671C270.358 71.0671 268.754 70.3383 267.556 68.8806C266.357 67.423 265.758 65.5119 265.758 63.1472C265.758 60.5559 266.357 58.1103 267.556 55.8104C268.754 53.4782 270.342 51.6157 272.317 50.2228C274.326 48.7976 276.447 48.0849 278.683 48.0849C279.395 48.0849 279.865 48.2307 280.092 48.5222C280.351 48.7814 280.561 49.2673 280.723 49.9799C281.403 49.8503 282.116 49.7855 282.861 49.7855C284.448 49.7855 285.242 50.3524 285.242 51.4861C285.242 52.1663 284.999 53.7859 284.513 56.3449C283.768 60.07 283.396 62.6614 283.396 64.119C283.396 64.6049 283.509 64.9936 283.736 65.2851C283.995 65.5766 284.319 65.7224 284.707 65.7224C285.323 65.7224 286.068 65.3337 286.942 64.5563C287.817 63.7465 288.999 62.4508 290.489 60.6693C290.878 60.2158 291.315 59.989 291.801 59.989C292.222 59.989 292.546 60.1834 292.773 60.5721C293.032 60.9608 293.162 61.4952 293.162 62.1755C293.162 63.4712 292.854 64.4753 292.239 65.1879C290.911 66.8399 289.501 68.2328 288.011 69.3665C286.521 70.5002 285.08 71.0671 283.687 71.0671C282.618 71.0671 281.63 70.7108 280.723 69.9982C279.849 69.2531 279.185 68.249 278.731 66.9857C277.047 69.7066 274.925 71.0671 272.366 71.0671ZM274.115 66.1597C274.828 66.1597 275.508 65.7386 276.156 64.8964C276.804 64.0542 277.273 62.9367 277.565 61.5438L279.363 52.6036C278.002 52.636 276.739 53.1543 275.573 54.1584C274.439 55.1302 273.532 56.4259 272.852 58.0455C272.172 59.6651 271.832 61.3819 271.832 63.1958C271.832 64.2 272.026 64.945 272.415 65.4309C272.836 65.9168 273.403 66.1597 274.115 66.1597Z" fill="white"/>
<path d="M298.833 71.0671C295.594 71.0671 293.229 69.82 291.739 67.3258C290.282 64.8316 289.553 61.2199 289.553 56.4907C289.553 52.3121 290.071 47.7772 291.108 42.886C292.144 37.9624 293.651 33.7838 295.626 30.3503C297.635 26.8843 300.016 25.1514 302.769 25.1514C304.259 25.1514 305.457 25.7992 306.364 27.0949C307.271 28.3582 307.725 30.0102 307.725 32.0509C307.725 34.707 307.223 37.347 306.219 39.9707C305.214 42.5945 303.546 45.3478 301.214 48.2307C302.801 48.3603 304.178 48.8947 305.344 49.8341C306.543 50.7735 307.45 51.9882 308.065 53.4782C308.713 54.9682 309.037 56.5879 309.037 58.337C309.037 60.7664 308.551 62.9529 307.579 64.8964C306.64 66.8399 305.393 68.3624 303.838 69.4637C302.283 70.5326 300.615 71.0671 298.833 71.0671ZM295.967 51.5347C298.104 47.6153 299.805 44.1655 301.068 41.1854C302.364 38.173 303.012 35.5006 303.012 33.1684C303.012 32.1319 302.882 31.3382 302.623 30.7876C302.396 30.2369 302.072 29.9616 301.651 29.9616C301.004 29.9616 300.291 30.9333 299.514 32.8769C298.768 34.788 298.072 37.3956 297.424 40.6996C296.776 44.0035 296.29 47.6153 295.967 51.5347ZM299.028 65.8196C300.129 65.8196 301.052 65.2203 301.797 64.0218C302.575 62.8233 302.963 61.0742 302.963 58.7743C302.963 56.9928 302.639 55.6485 301.991 54.7415C301.344 53.8345 300.566 53.381 299.659 53.381C298.526 53.381 297.57 53.9641 296.793 55.1302C296.015 56.2963 295.626 57.9969 295.626 60.232C295.626 62.1755 295.95 63.6007 296.598 64.5077C297.246 65.3823 298.056 65.8196 299.028 65.8196Z" fill="white"/>
<path d="M321.073 72.136C319.389 72.136 318.093 71.7473 317.186 70.9699C316.312 70.1925 315.874 69.3179 315.874 68.3462C315.874 67.504 316.182 66.7752 316.798 66.1597C317.413 65.5443 318.32 65.2365 319.519 65.2365C319.94 65.2365 320.425 65.2851 320.976 65.3823C321.559 65.4471 321.996 65.4957 322.288 65.5281C322.256 64.6859 322.061 63.8923 321.705 63.1472C321.381 62.4022 320.96 61.6896 320.442 61.0094C319.923 60.2967 319.438 59.6813 318.984 59.163C317.98 61.0742 316.976 62.6614 315.972 63.9247C315 65.1879 313.931 66.3864 312.765 67.5202C312.182 68.1032 311.566 68.3948 310.918 68.3948C310.4 68.3948 309.979 68.2166 309.655 67.8603C309.331 67.4716 309.169 67.0019 309.169 66.4512C309.169 65.8034 309.396 65.2041 309.849 64.6535L310.481 63.8761C312.263 61.6734 313.607 59.8595 314.514 58.4342C315.097 57.4948 315.68 56.3773 316.263 55.0816C316.879 53.7859 317.672 52.0206 318.644 49.7855C319.259 48.3603 320.539 47.6476 322.482 47.6476C323.389 47.6476 324.021 47.7286 324.377 47.8906C324.734 48.0525 324.912 48.3117 324.912 48.668C324.912 48.8623 324.847 49.1701 324.717 49.5912C324.588 50.0123 324.41 50.4334 324.183 50.8545C323.6 52.0206 323.308 53.0085 323.308 53.8183C323.308 54.3042 323.47 54.8387 323.794 55.4217C324.151 56.0048 324.685 56.7336 325.398 57.6082C326.434 58.9687 327.212 60.1348 327.73 61.1065C328.281 62.0459 328.556 63.0825 328.556 64.2162C328.556 65.5766 328.232 66.8723 327.584 68.1032C326.969 69.3017 326.094 70.2735 324.96 71.0185C323.827 71.7635 322.531 72.136 321.073 72.136Z" fill="white"/>
<path d="M29.4686 0.845656L29.5158 1.49714C29.5378 1.80191 29.4687 2.06423 29.4285 2.19898C29.3804 2.36023 29.3176 2.51562 29.2578 2.64981C29.1377 2.91914 28.9825 3.20757 28.8376 3.46423C28.6904 3.72492 28.5349 3.98579 28.4102 4.19596C28.2734 4.4267 28.1925 4.56544 28.1568 4.63549C26.2851 8.30686 24.4919 12.6133 23.8622 16.8525C23.2352 21.0739 23.7769 25.0954 26.3989 28.4006C26.8073 28.9153 27.2285 29.3559 27.7054 29.8156C28.2164 29.559 28.7423 29.3196 29.021 29.1875C30.6123 28.4336 32.0878 27.8752 33.5843 27.4836C33.5597 27.4734 33.5351 27.4635 33.5111 27.4531C33.3455 27.3821 33.1506 27.2893 32.9706 27.1717C32.8544 27.0958 32.4656 26.8399 32.2776 26.3538L32.0398 25.7384L32.3694 25.1672C32.7904 24.4378 33.5671 24.2243 33.7486 24.168C37.4774 23.0109 41.4323 22.9559 45.1779 24.0756C45.1586 24.0268 45.14 23.9749 45.1246 23.92L44.9541 23.31L45.6306 22.2962L46.0228 22.1365C46.3904 21.9869 46.7707 21.9618 47.0273 21.9593C47.3115 21.9566 47.6016 21.9828 47.8603 22.017C48.3778 22.0852 48.8842 22.2015 49.1897 22.2847C51.9174 23.0269 54.377 24.3258 56.2369 26.4545C56.367 26.2265 56.561 25.9051 56.7537 25.6659C56.9247 25.4538 57.2161 25.1388 57.6408 24.9442C58.115 24.727 58.6855 24.6964 59.2263 24.9582L59.334 25.0145L59.6211 25.1755L59.8043 25.4489C60.0618 25.8332 60.1842 26.2737 60.2521 26.6094C60.3201 26.9452 60.3559 27.2991 60.3755 27.6301C62.9319 27.1101 65.8853 27.2228 68.1493 27.9646C68.6193 28.1186 69.5413 28.4258 70.4119 28.807C70.8451 28.9967 71.3024 29.2205 71.6987 29.4711C72.0443 29.6897 72.5503 30.0531 72.8376 30.5883L73.1128 31.1008L72.9378 31.6556L72.9065 31.7539L72.6873 32.4482L72.1942 32.5971C73.9447 33.7129 75.4654 35.1065 76.8502 36.6786C77.7214 36.4722 78.3573 36.3446 79.1458 35.9994C83.299 34.1817 85.2549 31.0283 85.9655 27.294C86.6683 23.6003 86.1394 19.3548 85.1661 15.4001L85.0708 15.0185C84.9991 14.737 84.7361 13.9964 84.4457 13.1004C84.3128 12.6903 84.1797 12.2619 84.0878 11.9049C84.0427 11.7296 83.999 11.5391 83.9728 11.3612C83.9598 11.2731 83.9466 11.1579 83.9456 11.0326C83.9449 10.9393 83.9466 10.6889 84.0595 10.4123L84.3509 9.69866L85.1112 9.57288C85.5201 9.50526 85.8762 9.59098 86.1085 9.67442C86.3215 9.75094 86.5123 9.85475 86.6714 9.96447L86.7376 10.0119L86.7384 10.0124C91.3355 13.4219 95.2509 18.8281 97.2458 24.705C99.2417 30.5847 99.3669 37.1127 96.0851 42.6197C94.5652 45.1702 92.0862 47.3154 89.4138 48.963C87.343 50.2396 85.0966 51.2538 82.9677 51.9435C83.3504 52.4714 83.7636 52.9928 84.1839 53.4975L84.3803 53.7267C84.5756 53.9496 84.7734 54.1622 85.0199 54.442C85.3213 54.784 85.6518 55.1804 85.9423 55.6377L86.307 56.2119L86.0331 56.9614L85.8707 57.405L85.4707 57.656C84.8379 58.053 84.0918 58.0811 83.5624 58.0497C83.2047 58.0285 82.8343 57.9715 82.4714 57.8951C82.6492 58.4078 82.7822 58.9327 82.8209 59.4195C82.853 59.8222 82.8374 60.3814 82.5589 60.9002C82.2248 61.5224 81.6261 61.8785 80.9481 61.9325C80.854 61.94 80.7598 61.941 80.6661 61.9376C80.69 62.2225 80.6844 62.51 80.6327 62.7862C80.561 63.1698 80.3735 63.6689 79.9088 64.0372C79.7562 64.1581 79.5952 64.2479 79.4318 64.3122C79.985 65.143 80.6213 65.8866 81.4843 66.6744L81.6551 66.8281L81.6556 66.8287C82.0705 67.198 82.8501 67.86 83.5244 68.5773C83.8652 68.9399 84.2124 69.3505 84.4931 69.7844C84.764 70.2031 85.0368 70.7398 85.1128 71.343L85.1319 71.5046C85.5037 74.9089 84.1496 78.9017 82.5667 81.6163L82.5583 81.6306L82.5497 81.6444C81.8143 82.8394 80.7816 83.8373 79.4337 84.3669C78.5642 88.5658 74.7473 90.7558 71.3375 91.7809C71.2889 92.0435 71.2562 92.2835 71.2478 92.5154C71.2329 92.9308 71.3035 93.2133 71.4512 93.4413L71.4749 93.4725C71.4985 93.5031 71.524 93.535 71.5656 93.587C71.6359 93.6747 71.7565 93.8248 71.8643 93.9928C72.0189 94.2339 72.544 95.1204 71.9561 96.0553L71.6895 96.4792L71.2134 96.6332C70.6952 96.8009 70.1997 96.7263 69.9236 96.6696C69.6293 96.6091 69.3312 96.5089 69.2029 96.4689L69.201 96.4681C68.6434 96.2933 68.1488 96.0596 67.7071 95.78C67.2392 100.55 64.8956 104.505 60.7393 107.626C60.4751 107.824 59.9804 108.174 59.4471 108.47C59.1816 108.617 58.8724 108.77 58.5554 108.88C58.2743 108.978 57.8167 109.105 57.3222 109.027L56.747 108.937L56.4558 108.526C55.3453 109.859 54.0014 111.042 52.3326 111.966L52.3312 111.967C52.1787 112.051 51.9045 112.201 51.5917 112.303C51.2864 112.403 50.7786 112.513 50.2198 112.331L49.4312 112.075L49.337 111.538C47.5149 112.607 45.4837 113.381 43.3145 113.606C43.0614 113.633 42.7031 113.643 42.3452 113.607C42.1647 113.589 41.9498 113.555 41.7323 113.49C41.532 113.431 41.2242 113.315 40.9467 113.07L40.3959 112.585L40.4907 111.857C40.4913 111.853 40.4919 111.847 40.4929 111.84C40.4937 111.833 40.4952 111.822 40.4966 111.811C40.4993 111.791 40.5041 111.754 40.5114 111.712C40.5262 111.627 40.5574 111.478 40.634 111.31C40.8108 110.92 41.0983 110.701 41.2914 110.583L41.2922 110.583C41.3657 110.537 41.4378 110.491 41.509 110.445C41.4541 110.474 41.3986 110.502 41.342 110.528C41.0686 110.656 40.6709 110.802 40.2171 110.798L40.1958 110.797L40.1748 110.797C39.8397 110.783 39.5066 110.669 39.2319 110.478C38.9586 110.288 38.5439 109.868 38.5274 109.196C38.4852 107.466 38.5927 106.415 38.3402 105.052L38.2847 104.775C37.7615 102.338 36.453 100.333 34.792 98.3582C34.6425 98.8842 34.4625 99.4169 34.246 99.9353C33.7223 101.189 32.9378 102.482 31.7543 103.348L30.3119 104.403L29.6571 102.74C29.5135 102.375 29.4173 101.966 29.3472 101.641C29.2667 101.268 29.2225 101.021 29.1616 100.769L29.0908 100.498C28.9202 99.8669 28.7123 99.2463 28.4684 98.6402L28.4676 98.638C27.9062 97.2366 27.2757 96.0951 26.5778 94.591C26.3106 94.0152 26.0556 93.4491 25.8129 92.8873C25.7125 92.9861 25.6109 93.0588 25.5231 93.11C25.3968 93.1837 25.2774 93.2261 25.2702 93.2288C25.2466 93.2376 25.2509 93.2361 25.263 93.2312L24.7677 93.4491L24.242 93.2511C23.8353 93.0981 23.5142 92.8383 23.3163 92.6611C23.1037 92.4707 22.9153 92.2657 22.8025 92.144L22.8014 92.1426C20.7232 89.8953 19.2689 87.2034 18.3798 84.3381C18.3836 84.6412 18.3966 84.9411 18.421 85.2384L18.4401 85.4487L18.4859 85.8624C18.506 86.0512 18.5276 86.2743 18.5413 86.4818C18.5555 86.6956 18.5656 86.9444 18.5545 87.1786C18.549 87.2954 18.537 87.4371 18.5088 87.5839C18.4846 87.7094 18.4287 87.9497 18.2774 88.1933L17.972 88.6851L17.407 88.8114L17.244 88.8481L16.8797 88.9294L16.5242 88.816C16.2633 88.7329 16.0201 88.6244 15.7814 88.4597C15.5664 88.3113 15.3953 88.143 15.2769 88.0261L15.2761 88.025C12.124 84.904 10.11 80.4324 9.2464 76.2723C9.11479 75.6383 9.01617 75.0236 8.94207 74.4191C8.90499 74.4803 8.86736 74.5416 8.83003 74.6036L8.08295 75.8435C7.98825 75.9989 7.68209 76.5257 7.34178 76.9841C7.17448 77.2094 6.95139 77.4843 6.69381 77.7083C6.56484 77.8204 6.38191 77.96 6.15167 78.0654C5.92261 78.1703 5.55248 78.2833 5.11372 78.1941L4.58855 78.0875L4.27345 77.6542C3.81779 77.0279 3.63959 76.1824 3.54737 75.6011C3.44571 74.9604 3.40422 74.2996 3.3742 73.9039C3.18022 71.3469 3.35883 68.9799 3.79137 66.652C3.62331 66.8157 3.46323 66.9703 3.31387 67.1096C3.08954 67.3188 2.87078 67.5143 2.68152 67.6649C2.58923 67.7383 2.47749 67.8223 2.35941 67.8952C2.30058 67.9315 2.21655 67.9798 2.11541 68.0236C2.03323 68.0592 1.83781 68.138 1.58109 68.1497L0.930954 68.1793L0.117885 67.2784L0.050556 66.8836C-0.0413767 66.344 0.0101606 65.7634 0.0629446 65.39C0.479354 62.4482 1.65582 59.1033 3.27967 56.0614C4.11861 54.4898 5.09354 52.9684 6.17106 51.6069C5.58377 51.6612 4.99042 51.6835 4.45524 51.6424C4.09294 51.6146 3.70065 51.5542 3.33353 51.4243C2.97679 51.298 2.51901 51.0617 2.19486 50.5999L1.83667 50.0895L2.12053 48.9169L2.43778 48.6314C2.76715 48.335 3.30822 47.9806 3.7332 47.7058C4.22116 47.3903 4.64145 47.1266 4.90823 46.9337C6.34872 45.8919 7.84926 44.7092 9.45673 43.648C8.95298 43.5415 8.4558 43.4087 8.03743 43.2397C7.74129 43.1201 7.35937 42.9344 7.04984 42.6356C6.7048 42.3025 6.33136 41.6864 6.5411 40.9061L6.70216 40.3068L7.25776 40.03C7.70734 39.8059 8.21935 39.6283 8.65982 39.4843C9.14174 39.3269 9.52122 39.2143 9.87202 39.0863C10.9556 38.691 12.0306 38.2937 13.099 37.8846C11.4532 35.9194 10.1539 33.6812 9.49471 31.2187C7.91869 25.3315 9.60513 18.7345 12.3691 13.7557L12.3716 13.7511L12.3742 13.7468C15.0927 8.93414 19.0017 4.90023 23.7268 2.03227L23.7297 2.03038C24.913 1.31624 26.1075 0.619855 27.6332 0.182059L28.2677 0L29.4686 0.845656ZM28.0135 1.50737C26.679 1.89028 25.6209 2.49981 24.4424 3.21107L24.0206 3.47177C19.6864 6.19859 16.0959 9.96188 13.5749 14.4249L13.451 14.6503C10.8697 19.4062 9.39635 25.5189 10.8268 30.8622C12.2492 36.1759 17.029 40.5056 21.7266 43.094L22.0683 43.2806C18.7604 42.9374 16.399 41.1214 14.0128 39.0114C12.7949 39.4826 11.5712 39.9343 10.3447 40.3817L10.0495 40.4846C9.33862 40.7235 8.4882 40.9572 7.87261 41.264C7.57763 42.3614 12.9419 42.7629 13.8059 42.7557C13.059 43.0453 12.4752 43.4452 11.7898 43.8319C9.63032 45.0501 7.72324 46.5997 5.71645 48.0511L5.59445 48.1372C4.94815 48.5852 3.79205 49.2675 3.3602 49.6562L3.32357 49.8078C4.09977 50.9135 9.02102 49.807 10.2706 49.3941C5.88305 52.8203 2.2067 60.0824 1.42811 65.5831C1.38173 65.9112 1.35389 66.3239 1.4098 66.652L1.51834 66.7721C1.93298 66.7532 5.81144 62.5872 6.39971 62.0173C5.15605 65.9754 4.43287 69.6316 4.74907 73.7997C4.81301 74.6423 4.89915 76.1702 5.38843 76.8427C5.79526 76.9254 6.47473 75.8395 6.79318 75.3124L6.90549 75.1258C7.90709 73.483 8.78122 71.8768 10.0888 70.4507C10.1224 72.3595 10.2016 74.0902 10.5965 75.9922C11.4205 79.961 13.3344 84.1621 16.2462 87.0452C16.488 87.2842 16.621 87.3997 16.9429 87.5023L17.1062 87.4659C17.2751 87.1938 17.1082 85.984 17.0682 85.5869C16.8163 83.0859 17.3264 80.5632 17.4862 78.0751C17.0702 78.8057 16.2062 80.4796 15.7307 81.0319C15.563 80.7247 15.4064 80.4174 15.2481 80.1055C12.7921 75.2656 14.1434 69.4067 17.3337 65.192C15.9161 68.9104 15.1277 72.6322 15.6696 76.6092C15.7917 77.5058 16.0069 78.3937 16.1792 79.2884C16.3282 78.4052 16.7839 77.2912 17.0671 76.4121C17.7511 74.2899 18.5724 71.7152 19.6674 69.7591C19.3129 71.4086 18.9561 73.0598 18.7913 74.7593C18.2266 80.5856 19.7757 86.8399 23.8138 91.2065L24.0109 91.416C24.2061 91.6169 24.4366 91.8284 24.6654 91.9344L24.7276 91.9608C24.8137 91.923 24.8617 91.9255 24.8692 91.8472C24.9755 90.7318 24.6682 89.2492 24.6346 88.1554C24.6035 87.1352 24.5618 85.9325 24.6759 84.9812C25.3762 88.2539 26.4168 90.9681 27.8288 94.0106C28.4761 95.4055 29.1716 96.6871 29.7476 98.1252C30.0498 98.8761 30.3006 99.6473 30.4985 100.432C30.632 100.981 30.7418 101.731 30.9402 102.235C32.7389 100.919 33.5781 98.0917 33.8994 95.9661C33.9306 95.7622 33.9496 95.5568 33.9568 95.3502C36.4418 98.0335 38.8385 100.786 39.6329 104.485C39.9921 106.158 39.865 107.49 39.9058 109.162C39.9091 109.296 40.0524 109.388 40.178 109.413L40.2303 109.419C40.7887 109.424 41.6109 108.752 42.0856 108.314L42.2658 108.143C44.5527 105.92 45.9185 101.636 46.1623 98.4858C47.1816 103.588 46.7842 108.836 42.0124 111.758C41.8737 111.843 41.8752 111.904 41.858 112.035C42.1195 112.265 42.8293 112.271 43.1712 112.235C46.7037 111.868 49.9248 109.858 52.3999 107.457C52.0982 108.193 51.798 108.966 51.3849 109.644C51.1864 109.941 50.5934 110.719 50.6461 111.02C50.9724 111.126 51.3626 110.926 51.6647 110.76C55.9842 108.368 57.9565 104.019 59.5541 99.6757C59.5 102.164 59.2422 104.26 58.0012 106.455C57.8385 106.744 57.3821 107.448 57.5358 107.665C58.1556 107.762 59.4385 106.878 59.9112 106.523C64.7551 102.885 66.903 98.1124 66.3236 92.0828C67.0522 93.5426 68.0171 94.6522 69.6133 95.1525C69.9362 95.2532 70.3842 95.4113 70.7227 95.3389L70.7889 95.3211C71.0176 94.9572 70.4973 94.5043 70.2947 94.1924C69.5979 93.1181 69.9029 91.8344 70.1622 90.6765C73.8873 89.7366 77.7967 87.5461 78.2019 83.299C79.5264 83.0276 80.5583 82.1961 81.3041 81.0352L81.3755 80.9218C82.9008 78.306 84.1262 74.5403 83.7447 71.5153C83.5886 70.2757 81.6362 68.6573 80.7388 67.8585C78.6896 66.0362 77.7549 64.4285 76.6145 61.9783C80.1613 64.8073 79.6191 61.4923 78.2619 59.3845C83.3267 62.9228 81.2419 57.5564 79.6031 55.4093C80.6261 55.963 83.6051 57.1026 84.6878 56.517L84.7379 56.488L84.7786 56.377C84.3715 55.7361 83.8356 55.1978 83.3361 54.6272L83.125 54.3803C82.2884 53.3759 81.4397 52.2623 80.7922 51.1288C85.6979 49.9421 91.9679 46.6067 94.7697 42.128L94.9006 41.9136C100.93 31.7957 94.6379 17.5881 85.917 11.1201C85.7637 11.0066 85.5312 10.9012 85.3361 10.9335L85.3307 10.9504C85.2352 11.3447 86.2383 14.0153 86.4072 14.6786C88.5124 22.9542 88.9728 33.2036 79.699 37.2625C78.5505 37.7654 77.53 37.9098 76.3579 38.2231L76.127 37.9492C73.7316 35.1395 71.0014 32.9715 67.375 31.9004C68.3851 31.7505 69.3831 31.6048 70.4006 31.5198C70.7409 31.4913 71.1117 31.4605 71.4493 31.3776L71.5917 31.3388L71.6227 31.2403C71.1904 30.4352 68.6518 29.5801 67.72 29.2748C65.1691 28.439 61.5542 28.4948 58.981 29.449C59.0326 28.6695 59.0911 26.9775 58.6982 26.2808L58.6589 26.2167C58.035 25.8662 57.5298 26.9986 57.2651 27.4402C56.9606 27.95 56.6812 28.4862 56.3807 29.002C54.7406 26.222 52.1873 24.5883 49.1256 23.6988L48.8277 23.6151C48.3069 23.4734 47.0494 23.2076 46.5425 23.4139L46.4526 23.5486C46.5308 23.8282 47.5184 24.6775 47.7776 24.9426L48.0618 25.2358C48.7232 25.9277 49.3669 26.6744 49.7929 27.5277C48.3848 26.8356 47.1102 26.1914 45.6177 25.6676L45.3161 25.5644C41.6849 24.3547 37.8107 24.3513 34.1574 25.485L34.0707 25.513C33.8683 25.5817 33.6676 25.6766 33.5639 25.8563C33.7233 26.2689 36.2189 26.833 36.7914 27.0246C37.752 27.3464 38.5958 27.6923 39.5107 28.1229C35.781 28.1675 32.9969 28.8297 29.6116 30.4337L29.1139 30.6672C28.5561 30.9288 27.8675 31.2583 27.4929 31.5074C26.7426 30.8158 26.0813 30.1914 25.4456 29.4151L25.3187 29.2578C19.5387 21.9722 23.0201 11.7786 26.7507 4.36025L26.9284 4.00933C27.1629 3.54941 28.1098 2.12007 28.1404 1.64014V1.59678L28.0135 1.50737Z" fill="white"/>
<path d="M27.8021 1.37714L27.929 1.46653C27.9602 1.89671 26.959 3.40424 26.717 3.87898C22.9215 11.3241 19.2357 21.7262 25.1074 29.1275C25.7823 29.9781 26.4812 30.6395 27.2815 31.3773C27.781 31.0451 28.8385 30.5696 29.4002 30.3035C32.7855 28.6995 35.5695 28.0371 39.2992 27.9926C38.3843 27.562 37.5406 27.2162 36.5799 26.8945C36.0075 26.7028 33.5119 26.1388 33.3524 25.7262C33.471 25.5208 33.7162 25.426 33.9459 25.3547C37.5992 24.2211 41.4735 24.2244 45.1047 25.4341C46.7294 25.9753 48.0795 26.6592 49.5816 27.3976C49.0946 26.4223 48.3234 25.5863 47.5662 24.8122C47.307 24.5472 46.3194 23.698 46.2412 23.4184L46.3313 23.2835C46.8381 23.0772 48.0955 23.3431 48.6163 23.4848C51.8102 24.3539 54.4762 26.002 56.1692 28.8716C56.4697 28.3558 56.7492 27.8197 57.0537 27.3099C57.3184 26.8683 57.8235 25.7358 58.4474 26.0863C58.8835 26.7372 58.8228 28.514 58.7694 29.3187C61.3426 28.3644 64.9577 28.3088 67.5086 29.1446C68.4404 29.4499 70.9792 30.305 71.4113 31.1101L71.3803 31.2085C71.0069 31.3213 70.5781 31.357 70.1892 31.3895C69.1717 31.4745 68.1737 31.6204 67.1636 31.7702C70.907 32.8759 73.6956 35.1501 76.1466 38.0928C77.3187 37.7795 78.339 37.6352 79.4875 37.1323C88.7614 33.0734 88.301 22.8239 86.1957 14.5483C86.0242 13.8744 84.9918 11.129 85.1248 10.8032C85.3199 10.7709 85.5522 10.8763 85.7055 10.9898C94.4264 17.4578 100.719 31.6656 94.6891 41.7835C91.9558 46.37 85.5643 49.793 80.5806 50.9986C81.2282 52.1322 82.0769 53.2457 82.9135 54.2502C83.4685 54.9159 84.1018 55.5144 84.5671 56.2468L84.5265 56.3576C83.4888 57.0087 80.4307 55.8417 79.3916 55.2792C81.0303 57.4263 83.1154 62.7925 78.0506 59.2542C79.4078 61.362 79.95 64.677 76.4031 61.8479C77.5436 64.2982 78.478 65.9059 80.5273 67.7283C81.4246 68.5271 83.3773 70.1455 83.5333 71.3852C83.9148 74.4101 82.6893 78.1758 81.164 80.7915C80.4132 82.0116 79.3578 82.8887 77.9905 83.1689C77.5854 87.416 73.676 89.6063 69.9509 90.5462C69.6916 91.7042 69.3864 92.9878 70.0832 94.062C70.2858 94.374 70.8063 94.827 70.5774 95.191C70.2331 95.3024 69.7463 95.1295 69.4019 95.0222C67.8057 94.5219 66.8409 93.4125 66.1123 91.9527C66.6916 97.9823 64.5438 102.755 59.6999 106.393C59.2272 106.748 57.9443 107.632 57.3245 107.535C57.1705 107.318 57.627 106.613 57.7897 106.325C59.0307 104.13 59.2887 102.034 59.3427 99.5454C57.7451 103.889 55.7729 108.238 51.4534 110.63C51.1512 110.796 50.7609 110.996 50.4346 110.89C50.3819 110.589 50.9749 109.811 51.1734 109.514C51.5865 108.836 51.8866 108.062 52.1884 107.327C49.7133 109.728 46.4923 111.738 42.9597 112.105C42.6178 112.141 41.9081 112.135 41.6467 111.905C41.6638 111.773 41.6623 111.713 41.801 111.628C46.5729 108.706 46.9703 103.458 45.951 98.3557C45.7072 101.506 44.3414 105.79 42.0545 108.012C41.6396 108.416 40.6569 109.295 40.0188 109.289C39.8846 109.283 39.6982 109.185 39.6944 109.031C39.6537 107.36 39.7807 106.027 39.4215 104.355C38.627 100.656 36.2304 97.9033 33.7455 95.22C33.7383 95.4266 33.7191 95.6319 33.6879 95.8358C33.3666 97.9614 32.5275 100.788 30.7287 102.104C30.5303 101.601 30.4207 100.851 30.2872 100.302C30.0893 99.517 29.8384 98.7459 29.5363 97.9951C28.9602 96.5569 28.2645 95.2754 27.6172 93.8804C26.2052 90.8379 25.1648 88.1236 24.4645 84.8509C24.3504 85.8022 24.3921 87.0048 24.4233 88.025C24.4568 89.1188 24.7642 90.6016 24.6579 91.717C24.6504 91.7954 24.6024 91.7927 24.5163 91.8305C24.1843 91.7056 23.8421 91.3349 23.6023 91.0763C19.5642 86.7097 18.0153 80.4553 18.58 74.6289C18.7448 72.9294 19.1015 71.2785 19.456 69.629C18.3611 71.5851 17.5396 74.1596 16.8556 76.2818C16.5725 77.1609 16.1169 78.275 15.9679 79.1582C15.7956 78.2635 15.5804 77.3756 15.4583 76.479C14.9164 72.502 15.7045 68.7803 17.1222 65.0619C13.9319 69.2765 12.5806 75.1353 15.0367 79.9752C15.195 80.2871 15.3516 80.5944 15.5193 80.9016C15.9948 80.3493 16.8588 78.6754 17.2747 77.9449C17.115 80.433 16.6049 82.9556 16.8568 85.4565C16.8968 85.8535 17.0637 87.0635 16.8947 87.3356L16.7316 87.3721C16.4096 87.2695 16.2767 87.154 16.0348 86.915C13.123 84.0318 11.209 79.8307 10.3851 75.8618C9.9902 73.9598 9.91094 72.2292 9.87731 70.3204C8.56971 71.7465 7.69578 73.3528 6.69418 74.9955C6.46286 75.375 5.64194 76.8071 5.17699 76.7126C4.68767 76.0401 4.60165 74.5121 4.53771 73.6694C4.22151 69.5014 4.94465 65.8451 6.18832 61.8871C5.60008 62.457 1.72162 66.623 1.30698 66.6419L1.19847 66.5217C1.14256 66.1936 1.17045 65.781 1.21684 65.4529C1.99542 59.9521 5.67158 52.6902 10.0591 49.264C8.80954 49.6768 3.88823 50.7832 3.11214 49.6775L3.14881 49.526C3.60943 49.1114 4.89401 48.3627 5.50507 47.9207C7.51186 46.4693 9.41878 44.92 11.5783 43.7018C12.2638 43.315 12.8476 42.9152 13.5947 42.6256C12.7311 42.6327 7.36628 42.2313 7.66128 41.1339C8.36485 40.7832 9.37502 40.5279 10.1332 40.2514C11.3598 39.8039 12.5836 39.3525 13.8015 38.8813C16.1877 40.9913 18.5489 42.807 21.8568 43.1503L21.515 42.9638C16.8175 40.3754 12.0378 36.0457 10.6153 30.7319C9.1622 25.3038 10.7058 19.0817 13.3633 14.2946C15.9657 9.68758 19.7077 5.82621 24.2309 3.08082C25.4094 2.36955 26.4676 1.76005 27.8021 1.37714Z" fill="#000100"/>
<path d="M73.3681 56.3066C73.4349 56.4464 73.6874 58.2569 73.7651 58.611C74.2661 60.8975 75.0338 63.2497 76.1735 65.3003C76.844 66.519 77.7853 67.4596 78.6873 68.4812C79.5624 69.4717 81.2342 70.2354 81.7528 71.3684C82.4455 72.8828 80.1728 73.683 79.3578 74.5776C78.7103 75.2886 78.3997 75.7754 77.9777 76.6802C78.0378 75.0523 78.4058 74.4628 79.1445 73.053C78.7596 73.1252 77.7785 73.4358 77.3525 73.577C75.8521 74.0726 74.4896 73.3508 73.0217 72.8005C73.1885 73.1536 73.3741 73.6735 73.4747 74.0368C73.7462 75.0158 73.6118 75.5911 73.1115 76.4196C71.2736 79.4641 71.4248 79.4864 67.959 80.325C66.1683 80.7585 64.0786 81.2102 62.3534 80.2277C61.4095 79.6903 60.895 78.8166 60.6445 77.7983C60.8774 77.0718 61.3305 76.3575 61.7005 75.6802C59.4912 76.8308 58.9922 77.9077 58.0854 80.1298C57.9018 78.8078 58.5702 75.8727 59.1772 74.6458C59.4014 74.1927 60.3143 72.7329 60.2907 72.4575C60.0969 72.4365 60.0996 72.4905 59.8882 72.6276C58.7262 73.3973 57.9214 74.1975 57.0625 75.2758C57.4973 73.5 58.2414 71.8147 59.2616 70.2975C57.9031 70.9443 57.0092 71.7627 55.9092 72.7532C55.9552 70.1773 56.8066 68.2732 58.3846 66.2746C58.8322 65.7081 59.6215 64.677 59.951 64.0613L59.9929 63.9816C60.2508 64.9093 60.3643 66.39 60.4271 67.3617C61.5736 65.6831 61.8781 63.569 61.2522 61.6354C60.6526 59.8164 60.2542 59.8075 60.026 57.6532C61.2494 59.526 61.9962 60.4944 64.2258 61.2409C63.346 59.336 63.1677 58.6408 63.3554 56.5771C65.3581 59.7021 67.8685 61.877 71.522 62.8499C70.8576 61.2793 70.256 59.575 70.1466 57.8714C71.0906 59.353 71.7273 60.0068 73.1479 60.9521C72.8907 59.2333 72.8792 57.9652 73.3681 56.3066Z" fill="white"/>
<path d="M65.7415 70.6702C67.0993 70.5284 68.8495 71.1482 69.9501 71.9227C71.2404 72.8308 72.8521 74.3993 72.1512 76.1414C72.1236 76.2102 71.9824 76.1886 71.9163 76.1906C71.183 75.8747 70.0399 75.348 69.2566 75.5391C66.3229 76.2535 65.2304 73.6667 65.4133 71.2279C65.435 70.9423 65.5025 70.8491 65.7415 70.6702Z" fill="#000100"/>
<path d="M67.1669 67.1645C69.7651 67.0227 72.1749 68.7607 74.4841 69.6918C75.9047 70.2637 76.8568 70.1672 78.2207 69.5534C77.0215 70.8653 76.2099 71.261 74.4213 70.9956C73.3146 70.7249 72.4646 70.3225 71.4558 69.8086C68.3633 68.234 66.5085 67.7249 63.1312 68.7965C64.6078 67.7567 65.331 67.3205 67.1669 67.1645Z" fill="#000100"/>
<path d="M56.9779 31.9154C60.3256 31.1547 61.9076 30.9811 65.3005 31.8596C64.364 32.0065 63.2932 32.1875 62.3863 32.4485C67.1385 33.3476 71.0709 36.0574 74.3375 39.5223C74.879 40.0969 75.3908 40.7161 75.933 41.2775C74.7345 40.8093 74.0087 40.6024 72.8521 39.9492C72.1093 39.5295 71.1377 38.7831 70.453 38.4402C72.2889 40.3375 73.3801 41.9585 74.6798 44.2832C76.1194 46.8586 77.6696 50.1833 79.6824 52.3784C77.7628 51.6387 76.4442 50.8302 74.9864 49.3338C74.9303 52.477 75.0998 54.1395 76.4901 57.0359C74.2376 54.9862 73.6096 53.2443 73.0614 50.3676C72.4847 52.6471 72.297 53.7548 71.1843 55.8781C71.9061 50.2961 70.8804 45.6393 66.6847 41.615C68.684 45.8076 68.9541 46.7677 69.0911 51.3883C68.6935 50.0628 68.2444 48.6262 67.6368 47.3807C66.3748 44.7955 64.1048 42.3021 61.8219 40.5646C60.695 39.7067 59.5788 39.0748 58.4141 38.1535C60.4343 41.5716 61.1622 44.0603 60.9765 48.0958C60.9266 49.1882 60.832 50.4174 60.5565 51.4798C60.5403 51.5435 60.5228 51.6069 60.5052 51.6701C58.9266 44.9024 53.8905 44.4848 51.931 38.7143C50.8824 41.5321 50.9705 43.4296 52.1955 46.2505C49.9355 44.5446 47.7322 42.8471 46.5542 40.168C45.4788 37.7222 45.6727 36.084 47.1074 33.8995C46.5949 37.4636 47.5302 39.1714 49.6965 41.8826C48.8674 38.6261 49.7033 36.2294 51.6013 33.543C53.0717 35.5243 54.0931 36.702 56.4067 37.8216C56.0272 36.9603 55.7383 36.0391 55.4594 35.1397C59.5559 36.5838 61.5774 37.7194 64.7367 40.6099C63.1426 37.7442 61.4161 35.934 58.5512 34.2741C58.119 34.0234 57.4979 33.6624 57.036 33.5077L57.0556 33.467C57.5863 33.4962 58.067 33.6699 58.5782 33.7715C60.9927 34.2517 64.0089 35.3005 66.0676 36.6885L66.312 36.5478C63.9947 33.9369 60.4451 32.2427 56.9779 31.9154Z" fill="white"/>
<path d="M66.3121 36.5478L67.0231 37.3246L66.0677 36.6885L66.3121 36.5478Z" fill="#000100"/>
<path d="M24.5276 4.74619C24.531 4.7628 24.5618 4.87677 24.5559 4.88717C21.5476 10.2519 19.2999 16.501 20.1737 22.7361C20.5102 25.1373 21.6512 28.1692 23.1494 30.1051C26.0906 33.9056 30.8553 36.1097 35.5501 36.7132C36.8478 36.88 38.2271 36.891 39.5287 36.8861C37.6689 37.9739 36.596 38.1162 34.4902 38.0975C36.3391 38.7938 38.5141 38.7427 40.4361 38.4524C38.2139 39.4659 37.0119 39.7833 34.6198 39.6724C37.0635 40.6523 38.6178 40.3237 41.0014 40.2901C36.4594 41.692 33.2096 41.113 28.8374 39.5919C28.6692 39.5295 28.5019 39.4644 28.3358 39.3968C23.4824 37.4221 19.6309 34.2967 17.5497 29.3949C17.8215 31.3814 18.6846 33.2324 19.6173 34.9745C16.3249 31.7698 15.0047 27.4147 15.1825 22.9171C15.3532 18.6013 16.7225 15.26 18.8536 11.5706C17.1867 13.0661 15.8103 15.0421 14.8221 17.035C14.4949 17.6949 14.2385 18.3733 13.8904 19.019L13.9083 18.9337C15.3213 12.4098 19.0426 8.26408 24.5276 4.74619Z" fill="white"/>
<path d="M88.4001 15.429C92.2015 19.6359 94.8909 25.3325 94.7376 31.1235C94.5405 38.5509 89.0672 43.6621 82.2004 45.621L81.9445 45.4798C84.1828 44.6803 85.6379 43.7054 87.5217 42.26C86.7931 42.4732 86.1118 42.9684 85.4164 43.28C83.4549 44.1587 81.3618 44.7091 79.2254 44.9413C78.7838 44.9893 78.2443 45.0437 77.8183 45.1234C77.4125 44.4798 76.9966 43.8429 76.5705 43.2128C77.2862 43.4865 78.9648 44.0642 79.8128 43.9334C79.9546 43.9116 79.981 43.7677 80.0113 43.6642C79.8621 42.9903 78.5738 41.8876 78.0904 41.2458C77.7163 40.7499 77.4928 40.5051 77.1404 39.9239C81.7824 38.9436 84.6919 36.9478 87.4157 33.01C90.2245 28.9503 90.1914 23.4224 89.184 18.7118C88.9403 17.6134 88.6797 16.519 88.4001 15.429Z" fill="white"/>
<path d="M92.2731 28.7533L92.3426 28.8098C92.6141 29.3478 92.6364 32.0496 92.6066 32.6746C92.4466 35.9886 90.2218 37.8439 87.8707 39.8779C87.8019 39.9466 87.8464 39.916 87.7269 39.9526C87.7479 39.8198 88.5993 38.5685 88.7532 38.3146C91.0206 34.5652 91.9004 33.1466 92.2731 28.7533Z" fill="#000100"/>
<path d="M25.9193 43.6033C29.2686 43.6388 32.3571 45.1061 35.3874 46.3999C32.8185 46.4526 30.2082 45.7418 27.699 45.7563C24.5103 45.7748 21.8738 46.822 19.6587 49.1C20.8938 49.0978 23.0656 49.25 24.2183 49.6279C23.6739 50.1297 22.7022 50.7017 22.0494 51.1208C23.3599 51.3819 24.4655 51.5912 25.7393 51.9766C25.3745 52.2219 25.1266 52.4311 24.789 52.7148C25.5953 53.141 26.2555 53.3048 27.1186 53.5763C27.4794 54.0249 27.5857 54.212 28.0583 54.5361C28.2369 54.6225 28.4181 54.7035 28.6016 54.7789C30.2562 55.4473 32.0905 54.7147 33.6394 54.073C28.7873 58.7961 23.068 55.2075 18.7634 51.7841C19.4227 51.4754 20.2003 51.048 20.8579 50.7092C19.7399 50.5703 18.1663 50.5316 17.1704 50.0218C16.332 49.5927 18.253 47.573 18.6538 47.0953C20.6277 44.7429 22.871 43.7843 25.9193 43.6033Z" fill="white"/>
<path d="M39.8989 53.8196L39.9688 53.9368C39.6425 56.3882 39.5916 58.1414 39.9344 60.5905C40.1397 62.0573 39.7897 63.8932 39.3974 65.3341C41.6594 63.2706 42.4175 61.5692 43.2144 58.6982C43.348 59.4002 43.4688 60.3501 43.389 61.0545C43.0645 63.9195 41.965 65.5893 42.8209 68.5669C43.4449 67.9478 43.913 67.1612 44.4765 66.4826C45.0847 65.75 45.725 65.1045 46.3352 64.3672C44.9461 67.7817 44.1547 70.9106 44.6769 74.6276C44.82 75.6465 44.9573 76.4594 45.3239 77.4412C43.592 75.5871 42.9528 74.0388 42.5079 71.5419C42.4281 70.6965 42.2151 69.6412 42.0465 68.8114C40.9674 71.5736 40.8727 72.9538 41.3039 75.928C41.0196 75.533 40.7476 75.159 40.4981 74.7404C38.4228 71.257 40.8179 68.1267 41.6424 64.8236C39.7108 66.5163 38.8822 67.8134 36.1871 68.5014C38.04 66.1895 38.4929 63.2659 38.5298 60.4008C37.4729 62.0404 36.9744 62.6271 35.4861 63.8851C35.925 62.8891 36.5618 61.7561 36.9443 60.7604C37.8883 58.303 38.6957 56.1822 39.8989 53.8196Z" fill="white"/>
<path d="M31.8725 58.9023C31.8621 59.0383 31.2526 60.3804 31.1298 60.658C30.6292 61.7892 30.4042 62.9121 30.0103 64.064C31.0333 63.0296 32.0962 62.0356 33.1968 61.0849C31.2805 64.6899 31.05 69.2246 32.1858 73.0962C32.3423 73.6296 32.5208 74.3548 32.8081 74.8146L32.8992 74.7937C33.0419 72.6816 33.7558 70.8815 34.7005 69.0301C34.4606 72.0118 34.2457 73.7748 34.2671 76.824C34.3313 78.0178 34.4293 79.3338 34.4074 80.5194C30.2564 75.6579 28.9482 71.2455 30.9262 64.9579C30.4069 65.5049 28.1439 68.6122 27.6304 68.3286C27.5134 67.9599 27.8137 66.8755 27.8927 66.4623C28.4803 63.3867 29.6994 61.147 31.8725 58.9023Z" fill="white"/>
<path d="M72.4472 82.0873C72.489 82.0812 72.5309 82.0765 72.5728 82.0731C74.0035 81.9407 75.0325 82.3013 76.1135 83.202C76.0717 83.3675 76.0285 83.5322 75.9832 83.697C75.3843 85.8563 73.7929 87.0075 71.9144 88.077C72.3763 87.339 72.5343 86.8907 72.7078 86.0467C72.0542 86.15 71.2196 86.47 70.5789 86.7043C69.4033 87.1331 68.668 87.3545 67.429 87.5092C67.903 87.1351 68.4115 86.6395 68.8598 86.2229C68.1643 86.4086 67.6498 86.522 66.9409 86.6517C66.4837 86.6618 66.1718 86.6942 65.7154 86.7509C65.9875 86.5436 66.6255 86.1236 66.6499 85.7901C66.3237 85.7104 65.3953 85.8232 64.9146 85.7948C64.1671 85.7503 63.6837 85.6659 62.9497 85.5396C64.2211 85.2641 64.3082 85.3269 65.6026 84.6936C63.9355 84.649 62.5304 84.597 61.8586 82.8394C64.9625 84.3816 69.0401 82.4606 72.4472 82.0873Z" fill="white"/>
<path d="M12.0984 54.4308C12.0989 54.4943 11.2108 56.7607 11.0972 57.0561C10.2515 59.2536 10.3249 61.3244 10.055 63.5967C10.7409 62.8391 11.3601 62.0545 12.0738 61.2964C13.4184 59.8682 14.7446 58.7815 16.2942 57.5996C15.0969 59.4778 14.1373 60.9251 12.7704 62.7041C10.9856 64.8945 9.38713 67.2496 7.58318 69.3562C7.54537 67.9025 7.49783 66.5096 7.63098 65.0585C7.98884 61.1593 9.46768 57.3566 12.0984 54.4308Z" fill="white"/>
<path d="M51.6567 71.1793C51.7872 71.342 51.4514 73.0327 51.4034 73.371C50.9188 76.7855 51.5809 78.4627 52.3783 81.5498C53.182 78.5924 53.2878 77.3088 54.8897 74.4925C54.3363 76.8334 54.2274 79.0596 54.8357 81.4005C55.1673 82.5173 55.4475 83.2209 55.9478 84.2661C54.6392 83.1709 54.2311 82.7375 53.368 81.2351C52.984 82.0832 52.8231 83.0001 52.385 83.8009C49.2701 79.3317 49.2903 75.9435 51.6567 71.1793Z" fill="white"/>
<path d="M44.757 51.9841C45.2715 52.1529 45.7893 52.3109 46.3103 52.4581C46.4112 54.4384 46.896 55.8078 49.1885 56.1044C50.3847 56.2591 51.2103 55.6699 52.1013 54.9363C53.1333 55.7448 53.4208 56.4442 53.8659 57.641C53.929 57.9212 54.0271 58.2374 54.106 58.5173C52.5622 58.0161 51.6691 58.097 50.0945 58.1345C48.7351 58.1669 47.1045 57.8842 46.1221 56.8648C44.7273 55.4176 44.7433 53.8309 44.757 51.9841Z" fill="white"/>
<path d="M36.9194 78.325C36.9873 78.3864 37.0215 78.4445 37.0326 78.5417C37.1513 79.5782 37.3098 80.6146 37.6322 81.6112C38.0516 82.9076 38.9178 83.9765 39.6138 85.1345C39.5155 83.1433 39.5014 82.2061 40.0002 80.2568C40.2346 82.1777 39.8737 82.6524 40.6947 84.8475C41.1541 85.9893 41.7293 86.917 42.4496 87.9075C40.5903 87.1878 39.4521 86.5801 38.1906 84.9292C36.9354 83.2871 36.5793 80.3445 36.9194 78.325Z" fill="white"/>
<path d="M80.2381 76.2642C81.0281 76.2345 81.2482 76.3378 82.0017 76.5978C81.5817 78.3162 80.3056 79.7557 78.8735 80.7334L78.2125 81.0629C77.9113 80.9859 77.5811 80.9177 77.3921 80.6713C77.438 80.2857 77.7358 79.9718 77.8539 79.6153C78.3232 78.194 78.5062 76.6275 80.2381 76.2642Z" fill="white"/>
<path d="M62.9711 44.6945C63.0738 44.7458 63.0778 44.7495 63.1555 44.8325C65.6375 47.4796 64.8759 51.145 64.6882 54.4292L64.6274 54.5378L64.5491 54.5271C63.0164 51.9211 63.3628 51.1716 63.3526 48.3761C63.3546 47.1389 63.2264 45.905 62.9711 44.6945Z" fill="white"/>
<path d="M35.6111 91.0283C35.6542 91.0567 35.6952 91.0823 35.7309 91.1201C37.895 93.4537 39.5572 97.2612 39.7962 100.373C39.6195 100.248 39.1486 99.3489 39.0141 99.0964C37.5976 96.4306 36.3105 93.9763 35.6111 91.0283Z" fill="white"/>
<path d="M54.7708 91.4234L54.8545 91.5206C54.9004 91.8913 54.8079 92.7353 54.764 93.133C54.4473 95.9561 52.5279 98.3949 50.374 100.121C50.7411 99.2396 51.089 98.5225 51.4369 97.6056C51.9352 96.241 51.892 94.4861 51.9156 93.023C52.3699 94.3707 52.5888 95.4321 52.4207 96.8494C53.8675 94.7569 54.1946 93.9048 54.7708 91.4234Z" fill="white"/>
<path d="M53.9592 44.8515C54.6546 45.3653 55.5337 46.1998 56.082 46.8576C58.1151 49.2975 58.3149 51.3386 58.0874 54.3265L57.9827 54.3082C57.4142 51.4822 57.0611 50.3081 55.5088 47.8134C55.1387 47.2195 54.1631 45.4962 53.9592 44.8515Z" fill="white"/>
<path d="M36.3769 48.0131L36.438 48.0733C36.4176 48.2817 35.86 49.0357 35.693 49.3816C35.3062 50.1826 35.1019 50.7545 34.8895 51.6182C35.4805 50.7785 35.8711 50.2726 36.5434 49.5134C35.8354 51.3821 35.6165 52.091 35.2275 54.0893C35.1358 54.4478 35.093 54.8027 35.0407 55.1688C34.6741 54.2636 34.3446 53.5441 34.1338 52.5751C33.7756 52.6366 33.4101 52.6909 33.0507 52.7477C33.9404 50.7606 34.8774 49.5506 36.3769 48.0131Z" fill="white"/>
<path d="M58.0063 96.5637L58.0711 96.6791C57.7119 99.1369 54.8605 102.811 53.1472 104.702C52.992 104.559 53.1013 104.167 53.1599 103.976C54.0398 101.098 56.4803 99.0788 58.0063 96.5637Z" fill="white"/>
<path d="M27.835 75.8146C27.8833 75.8524 27.9589 75.9125 27.9645 75.9827C28.1023 77.6849 28.4231 79.3858 28.9229 81.0171C29.182 81.8624 30.792 85.1628 30.2675 85.8583C27.9145 82.5903 27.328 79.776 27.835 75.8146Z" fill="white"/>
<path d="M23.7626 65.835C23.8557 66.2017 23.758 67.1726 23.7141 67.5561C23.654 68.0713 23.5631 68.5818 23.4418 69.0861C23.1689 70.2428 22.7702 71.4467 22.4672 72.6033C22.3476 73.0604 21.8733 75.2285 21.6454 75.4081C20.9909 71.8457 22.6011 69.0065 23.7626 65.835Z" fill="white"/>
<path d="M64.1965 93.9236C64.2633 94.2167 64.2228 95.0323 64.2161 95.3713C64.1634 97.9128 63.3653 99.511 62.0588 101.601C62.3336 100.376 62.391 99.2024 62.4146 97.9526C62.3802 96.563 62.0514 95.1295 61.6266 93.8129C62.4754 94.956 63.0007 96.1376 63.2195 97.5387C63.4855 96.5353 63.9001 94.8007 64.1965 93.9236Z" fill="white"/>
<path d="M47.25 50.2129C48.4813 50.0081 49.8319 50.3222 50.8447 51.0456C51.6569 51.6258 52.0881 52.3803 52.5704 53.2218L51.7819 52.6348C51.0329 52.1674 50.0697 51.6836 49.2096 51.477C47.7186 51.1189 47.3436 51.3818 46.0463 50.455C46.499 50.3382 46.787 50.2833 47.25 50.2129Z" fill="white"/>
<path d="M41.5419 31.8525C42.1554 31.8123 42.7455 31.8339 43.3589 31.8473C42.5704 32.1293 41.7535 32.3547 40.9749 32.6522C39.839 33.0862 38.7029 33.5854 37.585 34.0675L36.2421 34.5749C37.5923 33.0188 39.4907 32.0437 41.5419 31.8525Z" fill="white"/>
<path d="M66.3532 51.9254C66.5983 53.6581 66.7205 54.6917 67.3309 56.3919C67.4862 56.8231 68.3167 58.9078 68.3599 59.1297L68.2735 59.1283C67.1223 57.8226 66.1905 56.5989 66.0642 54.7861C66.0048 53.9242 66.0527 52.7363 66.3532 51.9254Z" fill="white"/>
<path d="M55.8915 64.0106C55.9543 64.2084 55.8759 64.7972 55.8422 65.0227C55.5573 66.9336 53.8938 68.0645 52.2597 68.683C52.2067 68.4987 52.6576 68.1672 52.8126 68.0281C54.1264 66.8471 55.0853 65.571 55.8915 64.0106Z" fill="white"/>
<path d="M48.7999 89.7894C49.0718 90.0318 49.1657 90.6091 49.185 90.9723C49.2703 92.5712 48.3481 93.7184 47.3426 94.8332L47.2191 94.9C47.2118 94.6698 47.7623 93.6381 47.8849 93.3214C48.3529 92.1134 48.6654 91.0898 48.7999 89.7894Z" fill="white"/>
<path d="M44.8465 42.0134C44.9102 42.1896 44.6695 43.3297 44.613 43.599C44.3632 44.7901 44.5518 45.614 44.5682 46.6846L44.5115 46.6946L44.3926 46.4785C43.5743 44.5878 43.303 43.6231 44.8465 42.0134Z" fill="white"/>
<path d="M47.9957 52.4687C48.3149 52.366 48.659 52.5281 48.783 52.8396C48.907 53.1512 48.7683 53.5054 48.4659 53.6501C48.2512 53.7528 47.9973 53.7272 47.8073 53.584C47.6173 53.4408 47.5229 53.2037 47.5626 52.9691C47.6022 52.7345 47.7692 52.5415 47.9957 52.4687Z" fill="white"/>
<path d="M82.2005 45.621C81.9135 45.6989 81.4652 45.8401 81.191 45.7424C81.343 45.5981 81.7217 45.5356 81.9446 45.4798L82.2005 45.621Z" fill="#BCBCBB"/>
</svg>
