<svg width="1124" height="411" viewBox="0 0 1124 411" fill="none" xmlns="http://www.w3.org/2000/svg">
<path d="M566.3 243.394C566.9 243.194 567.8 243.094 569 243.094C572.4 243.094 574.1 245.294 574.1 249.694C574.1 252.094 573.55 254.144 572.45 255.844C571.45 257.444 569.85 258.444 567.65 258.844C558.55 260.544 549.6 262.444 540.8 264.544L540.35 268.144C537.55 287.844 531.95 302.394 523.55 311.794C515.25 321.294 504.85 326.044 492.35 326.044C484.05 326.044 477.6 323.994 473 319.894C468.5 315.894 466.25 310.744 466.25 304.444C466.25 293.944 470.95 284.594 480.35 276.394C489.75 268.194 504 260.944 523.1 254.644L526.1 233.494C526.5 231.094 527 227.894 527.6 223.894C522.9 236.294 516.9 245.544 509.6 251.644C502.3 257.744 494.15 260.794 485.15 260.794C476.55 260.794 470 258.194 465.5 252.994C461 247.694 458.75 240.894 458.75 232.594C458.75 228.894 459.15 224.844 459.95 220.444C460.75 215.944 462 209.894 463.7 202.294C465.2 195.394 466.3 189.894 467 185.794C467.8 181.694 468.2 178.044 468.2 174.844C468.2 170.044 466.35 167.644 462.65 167.644C459.75 167.644 456.3 169.094 452.3 171.994C448.4 174.794 444.25 179.144 439.85 185.044C438.45 186.944 436.9 187.894 435.2 187.894C433.8 187.894 432.55 187.244 431.45 185.944C430.45 184.544 429.95 182.994 429.95 181.294C429.95 178.194 431.35 174.694 434.15 170.794C444.35 156.794 456.3 149.794 470 149.794C476.1 149.794 480.85 151.644 484.25 155.344C487.75 159.044 489.5 164.494 489.5 171.694C489.5 176.894 489 182.244 488 187.744C487.1 193.144 485.7 200.044 483.8 208.444C482.6 213.444 481.7 217.494 481.1 220.594C480.5 223.594 480.2 226.094 480.2 228.094C480.2 233.194 481.1 236.844 482.9 239.044C484.7 241.244 487.85 242.344 492.35 242.344C497.75 242.344 503.25 239.394 508.85 233.494C514.55 227.494 519.65 218.444 524.15 206.344C528.75 194.244 532.05 179.444 534.05 161.944C534.55 157.544 535.7 154.444 537.5 152.644C539.3 150.744 541.9 149.794 545.3 149.794C552.3 149.794 555.8 153.294 555.8 160.294C555.8 161.494 555.75 162.444 555.65 163.144C553.55 178.044 551.6 191.494 549.8 203.494C548.8 210.694 547.7 218.094 546.5 225.694C545.4 233.294 544.3 240.994 543.2 248.794C550.5 246.794 558.2 244.994 566.3 243.394ZM520.85 270.394C496.65 278.794 484.55 288.994 484.55 300.994C484.55 303.794 485.4 306.094 487.1 307.894C488.9 309.794 491.4 310.744 494.6 310.744C508.5 310.744 517.2 297.644 520.7 271.444L520.85 270.394ZM581.873 277.744C575.673 277.744 570.723 275.494 567.023 270.994C563.323 266.494 561.473 260.594 561.473 253.294C561.473 245.294 563.323 237.744 567.023 230.644C570.723 223.444 575.623 217.694 581.723 213.394C587.923 208.994 594.473 206.794 601.373 206.794C603.573 206.794 605.023 207.244 605.723 208.144C606.523 208.944 607.173 210.444 607.673 212.644C609.773 212.244 611.973 212.044 614.273 212.044C619.173 212.044 621.623 213.794 621.623 217.294C621.623 219.394 620.873 224.394 619.373 232.294C617.073 243.794 615.923 251.794 615.923 256.294C615.923 257.794 616.273 258.994 616.973 259.894C617.773 260.794 618.773 261.244 619.973 261.244C621.873 261.244 624.173 260.044 626.873 257.644C629.573 255.144 633.223 251.144 637.823 245.644C639.023 244.244 640.373 243.544 641.873 243.544C643.173 243.544 644.173 244.144 644.873 245.344C645.673 246.544 646.073 248.194 646.073 250.294C646.073 254.294 645.123 257.394 643.223 259.594C639.123 264.694 634.773 268.994 630.173 272.494C625.573 275.994 621.123 277.744 616.823 277.744C613.523 277.744 610.473 276.644 607.673 274.444C604.973 272.144 602.923 269.044 601.523 265.144C596.323 273.544 589.773 277.744 581.873 277.744ZM587.273 262.594C589.473 262.594 591.573 261.294 593.573 258.694C595.573 256.094 597.023 252.644 597.923 248.344L603.473 220.744C599.273 220.844 595.373 222.444 591.773 225.544C588.273 228.544 585.473 232.544 583.373 237.544C581.273 242.544 580.223 247.844 580.223 253.444C580.223 256.544 580.823 258.844 582.023 260.344C583.323 261.844 585.073 262.594 587.273 262.594ZM697.632 261.394C701.732 262.194 703.782 264.444 703.782 268.144C703.782 270.644 702.632 272.894 700.332 274.894C698.132 276.794 694.932 277.744 690.732 277.744C683.532 277.744 677.632 275.544 673.032 271.144C668.532 266.644 666.282 260.794 666.282 253.594C666.282 249.694 668.282 246.894 672.282 245.194C676.682 243.294 679.832 241.294 681.732 239.194C683.632 236.994 684.582 234.344 684.582 231.244C684.582 229.444 684.182 228.094 683.382 227.194C682.682 226.294 681.782 225.844 680.682 225.844C677.982 225.844 674.982 227.794 671.682 231.694C668.482 235.594 665.482 240.644 662.682 246.844C659.882 252.944 657.682 259.244 656.082 265.744C654.982 270.444 653.682 273.644 652.182 275.344C650.782 276.944 648.532 277.744 645.432 277.744C642.332 277.744 640.032 276.644 638.532 274.444C637.132 272.144 636.182 268.644 635.682 263.944C635.182 259.244 634.932 252.344 634.932 243.244C634.932 227.844 636.482 211.794 639.582 195.094C642.782 178.394 647.432 164.394 653.532 153.094C659.732 141.694 667.132 135.994 675.732 135.994C680.332 135.994 684.032 137.994 686.832 141.994C689.732 145.894 691.182 150.994 691.182 157.294C691.182 167.394 688.232 177.894 682.332 188.794C676.432 199.594 666.832 212.244 653.532 226.744C653.232 231.944 653.082 237.294 653.082 242.794C657.882 230.294 663.382 221.244 669.582 215.644C675.782 209.944 681.582 207.094 686.982 207.094C691.982 207.094 695.982 208.794 698.982 212.194C702.082 215.594 703.632 219.794 703.632 224.794C703.632 230.294 702.232 235.344 699.432 239.944C696.632 244.544 691.832 248.644 685.032 252.244C685.632 255.244 686.832 257.344 688.632 258.544C690.532 259.644 693.532 260.594 697.632 261.394ZM672.582 150.844C670.782 150.844 668.782 153.444 666.582 158.644C664.382 163.744 662.232 170.694 660.132 179.494C658.132 188.194 656.482 197.694 655.182 207.994C661.382 200.694 666.482 192.744 670.482 184.144C674.582 175.544 676.632 167.744 676.632 160.744C676.632 157.544 676.282 155.094 675.582 153.394C674.882 151.694 673.882 150.844 672.582 150.844ZM860.702 243.544C862.002 243.544 863.002 244.144 863.702 245.344C864.502 246.544 864.902 248.194 864.902 250.294C864.902 254.194 863.952 257.294 862.052 259.594C856.452 266.294 851.002 270.994 845.702 273.694C840.502 276.394 834.202 277.744 826.802 277.744C821.602 277.744 816.802 277.094 812.402 275.794C808.002 274.494 802.652 272.544 796.352 269.944C790.652 267.444 785.152 265.394 779.852 263.794C774.752 273.094 767.102 277.744 756.902 277.744C751.302 277.744 746.852 276.494 743.552 273.994C740.152 271.394 738.452 268.094 738.452 264.094C738.452 259.194 740.802 255.144 745.502 251.944C750.202 248.644 756.452 246.994 764.252 246.994H766.202L768.902 203.344C769.502 193.344 771.302 185.094 774.302 178.594C777.302 172.094 781.452 166.544 786.752 161.944C791.352 157.944 796.602 154.944 802.502 152.944C808.402 150.844 814.652 149.794 821.252 149.794C832.052 149.794 840.352 152.594 846.152 158.194C851.952 163.794 854.852 171.094 854.852 180.094C854.852 186.194 853.752 191.144 851.552 194.944C849.352 198.644 846.302 200.494 842.402 200.494C839.602 200.494 837.402 199.844 835.802 198.544C834.202 197.144 833.402 195.194 833.402 192.694C833.402 191.794 833.602 190.144 834.002 187.744C834.602 184.944 834.902 182.444 834.902 180.244C834.902 176.044 833.652 172.744 831.152 170.344C828.752 167.844 825.052 166.594 820.052 166.594C811.252 166.594 804.452 169.494 799.652 175.294C794.852 180.994 791.802 189.994 790.502 202.294L787.052 236.344C786.552 241.144 785.902 245.294 785.102 248.794C791.502 249.894 799.502 251.644 809.102 254.044C814.702 255.444 819.002 256.444 822.002 257.044C825.002 257.644 827.652 257.944 829.952 257.944C835.752 257.944 840.702 256.994 844.802 255.094C849.002 253.094 852.952 249.944 856.652 245.644C857.852 244.244 859.202 243.544 860.702 243.544ZM871.179 277.744C864.979 277.744 860.029 275.494 856.329 270.994C852.629 266.494 850.779 260.594 850.779 253.294C850.779 245.294 852.629 237.744 856.329 230.644C860.029 223.444 864.929 217.694 871.029 213.394C877.229 208.994 883.779 206.794 890.679 206.794C892.879 206.794 894.329 207.244 895.029 208.144C895.829 208.944 896.479 210.444 896.979 212.644C899.079 212.244 901.279 212.044 903.579 212.044C908.479 212.044 910.929 213.794 910.929 217.294C910.929 219.394 910.179 224.394 908.679 232.294C906.379 243.794 905.229 251.794 905.229 256.294C905.229 257.794 905.579 258.994 906.279 259.894C907.079 260.794 908.079 261.244 909.279 261.244C911.179 261.244 913.479 260.044 916.179 257.644C918.879 255.144 922.529 251.144 927.129 245.644C928.329 244.244 929.679 243.544 931.179 243.544C932.479 243.544 933.479 244.144 934.179 245.344C934.979 246.544 935.379 248.194 935.379 250.294C935.379 254.294 934.429 257.394 932.529 259.594C928.429 264.694 924.079 268.994 919.479 272.494C914.879 275.994 910.429 277.744 906.129 277.744C902.829 277.744 899.779 276.644 896.979 274.444C894.279 272.144 892.229 269.044 890.829 265.144C885.629 273.544 879.079 277.744 871.179 277.744ZM876.579 262.594C878.779 262.594 880.879 261.294 882.879 258.694C884.879 256.094 886.329 252.644 887.229 248.344L892.779 220.744C888.579 220.844 884.679 222.444 881.079 225.544C877.579 228.544 874.779 232.544 872.679 237.544C870.579 242.544 869.529 247.844 869.529 253.444C869.529 256.544 870.129 258.844 871.329 260.344C872.629 261.844 874.379 262.594 876.579 262.594ZM952.888 277.744C942.888 277.744 935.588 273.894 930.988 266.194C926.488 258.494 924.238 247.344 924.238 232.744C924.238 219.844 925.838 205.844 929.038 190.744C932.238 175.544 936.888 162.644 942.988 152.044C949.188 141.344 956.538 135.994 965.038 135.994C969.638 135.994 973.338 137.994 976.138 141.994C978.938 145.894 980.338 150.994 980.338 157.294C980.338 165.494 978.788 173.644 975.688 181.744C972.588 189.844 967.438 198.344 960.238 207.244C965.138 207.644 969.388 209.294 972.988 212.194C976.688 215.094 979.488 218.844 981.388 223.444C983.388 228.044 984.388 233.044 984.388 238.444C984.388 245.944 982.888 252.694 979.888 258.694C976.988 264.694 973.138 269.394 968.338 272.794C963.538 276.094 958.388 277.744 952.888 277.744ZM944.038 217.444C950.638 205.344 955.888 194.694 959.788 185.494C963.788 176.194 965.788 167.944 965.788 160.744C965.788 157.544 965.388 155.094 964.588 153.394C963.888 151.694 962.888 150.844 961.588 150.844C959.588 150.844 957.388 153.844 954.988 159.844C952.688 165.744 950.538 173.794 948.538 183.994C946.538 194.194 945.038 205.344 944.038 217.444ZM953.488 261.544C956.888 261.544 959.738 259.694 962.038 255.994C964.438 252.294 965.638 246.894 965.638 239.794C965.638 234.294 964.638 230.144 962.638 227.344C960.638 224.544 958.238 223.144 955.438 223.144C951.938 223.144 948.988 224.944 946.588 228.544C944.188 232.144 942.988 237.394 942.988 244.294C942.988 250.294 943.988 254.694 945.988 257.494C947.988 260.194 950.488 261.544 953.488 261.544ZM1021.55 281.044C1016.35 281.044 1012.35 279.844 1009.55 277.444C1006.85 275.044 1005.5 272.344 1005.5 269.344C1005.5 266.744 1006.45 264.494 1008.35 262.594C1010.25 260.694 1013.05 259.744 1016.75 259.744C1018.05 259.744 1019.55 259.894 1021.25 260.194C1023.05 260.394 1024.4 260.544 1025.3 260.644C1025.2 258.044 1024.6 255.594 1023.5 253.294C1022.5 250.994 1021.2 248.794 1019.6 246.694C1018 244.494 1016.5 242.594 1015.1 240.994C1012 246.894 1008.9 251.794 1005.8 255.694C1002.8 259.594 999.497 263.294 995.897 266.794C994.097 268.594 992.197 269.494 990.197 269.494C988.597 269.494 987.297 268.944 986.297 267.844C985.297 266.644 984.797 265.194 984.797 263.494C984.797 261.494 985.497 259.644 986.897 257.944L988.847 255.544C994.347 248.744 998.497 243.144 1001.3 238.744C1003.1 235.844 1004.9 232.394 1006.7 228.394C1008.6 224.394 1011.05 218.944 1014.05 212.044C1015.95 207.644 1019.9 205.444 1025.9 205.444C1028.7 205.444 1030.65 205.694 1031.75 206.194C1032.85 206.694 1033.4 207.494 1033.4 208.594C1033.4 209.194 1033.2 210.144 1032.8 211.444C1032.4 212.744 1031.85 214.044 1031.15 215.344C1029.35 218.944 1028.45 221.994 1028.45 224.494C1028.45 225.994 1028.95 227.644 1029.95 229.444C1031.05 231.244 1032.7 233.494 1034.9 236.194C1038.1 240.394 1040.5 243.994 1042.1 246.994C1043.8 249.894 1044.65 253.094 1044.65 256.594C1044.65 260.794 1043.65 264.794 1041.65 268.594C1039.75 272.294 1037.05 275.294 1033.55 277.594C1030.05 279.894 1026.05 281.044 1021.55 281.044Z" fill="black"/>
<path d="M98.6167 0L99.0867 0.330999C99.202 1.92375 95.495 7.5055 94.599 9.26325C80.546 36.8292 66.899 75.344 88.6395 102.747C91.1382 105.897 93.726 108.346 96.6892 111.077C98.5385 109.848 102.454 108.087 104.534 107.102C117.068 101.163 127.376 98.7105 141.185 98.5455C137.798 96.9513 134.674 95.671 131.117 94.4798C128.998 93.77 119.758 91.6818 119.167 90.1543C119.606 89.3935 120.514 89.0427 121.365 88.7787C134.891 84.5812 149.236 84.5935 162.681 89.0725C168.696 91.0765 173.695 93.6087 179.257 96.3425C177.454 92.7315 174.598 89.636 171.795 86.77C170.835 85.7888 167.178 82.6445 166.889 81.6093L167.222 81.11C169.099 80.346 173.754 81.3305 175.683 81.8553C187.508 85.073 197.379 91.1752 203.648 101.8C204.76 99.8905 205.795 97.9052 206.923 96.0177C207.903 94.3827 209.773 90.1898 212.083 91.4875C213.698 93.8975 213.473 100.476 213.275 103.456C222.803 99.9223 236.188 99.7165 245.633 102.811C249.083 103.942 258.483 107.108 260.083 110.089L259.968 110.453C258.585 110.871 256.998 111.003 255.558 111.123C251.79 111.438 248.095 111.978 244.355 112.533C258.215 116.627 268.54 125.047 277.615 135.942C281.955 134.782 285.733 134.248 289.985 132.386C324.323 117.358 322.618 79.408 314.823 48.767C314.188 46.272 310.365 36.107 310.858 34.9005C311.58 34.781 312.44 35.1712 313.008 35.5915C345.298 59.5397 368.595 112.145 346.27 149.607C336.15 166.589 312.485 179.263 294.033 183.727C296.43 187.924 299.573 192.047 302.67 195.766C304.725 198.231 307.07 200.447 308.793 203.159L308.643 203.569C304.8 205.98 293.478 201.659 289.63 199.576C295.698 207.526 303.418 227.395 284.665 214.294C289.69 222.098 291.698 234.372 278.565 223.897C282.788 232.97 286.248 238.922 293.835 245.67C297.158 248.627 304.388 254.62 304.965 259.21C306.378 270.41 301.84 284.352 296.193 294.037C293.413 298.555 289.505 301.802 284.443 302.84C282.943 318.565 268.468 326.675 254.675 330.155C253.715 334.442 252.585 339.195 255.165 343.172C255.915 344.327 257.843 346.005 256.995 347.352C255.72 347.765 253.918 347.125 252.643 346.727C246.733 344.875 243.16 340.767 240.463 335.362C242.608 357.687 234.655 375.36 216.72 388.827C214.97 390.142 210.22 393.417 207.925 393.057C207.355 392.252 209.045 389.645 209.648 388.577C214.243 380.45 215.198 372.687 215.398 363.475C209.483 379.557 202.18 395.66 186.187 404.515C185.068 405.132 183.623 405.87 182.415 405.477C182.22 404.365 184.416 401.482 185.15 400.385C186.68 397.872 187.791 395.01 188.909 392.287C179.744 401.177 167.818 408.617 154.739 409.977C153.473 410.11 150.845 410.09 149.877 409.237C149.941 408.75 149.935 408.527 150.449 408.212C168.117 397.392 169.588 377.96 165.814 359.07C164.912 370.732 159.855 386.595 151.387 394.825C149.851 396.317 146.213 399.572 143.85 399.55C143.353 399.53 142.663 399.167 142.649 398.597C142.498 392.407 142.968 387.475 141.638 381.282C138.697 367.587 129.823 357.395 120.622 347.46C120.596 348.225 120.525 348.985 120.409 349.74C119.22 357.61 116.113 368.077 109.453 372.95C108.718 371.085 108.312 368.307 107.818 366.275C107.085 363.37 106.156 360.515 105.038 357.735C102.905 352.41 100.329 347.665 97.9322 342.5C92.7042 331.235 88.852 321.185 86.259 309.067C85.8367 312.59 85.991 317.042 86.1065 320.82C86.2305 324.87 87.3687 330.36 86.9752 334.49C86.9475 334.78 86.7695 334.77 86.4507 334.91C85.2217 334.447 83.9545 333.075 83.0667 332.117C68.1155 315.95 62.3805 292.792 64.4712 271.22C65.0815 264.927 66.4022 258.815 67.7147 252.707C63.6607 259.95 60.6192 269.482 58.0867 277.34C57.0382 280.595 55.3515 284.72 54.7997 287.99C54.1617 284.677 53.365 281.39 52.913 278.07C50.9065 263.345 53.8247 249.565 59.0737 235.797C47.2615 251.402 42.2582 273.095 51.352 291.015C51.938 292.17 52.518 293.307 53.139 294.445C54.8995 292.4 58.0985 286.202 59.6385 283.497C59.047 292.71 57.1585 302.05 58.091 311.31C58.239 312.78 58.857 317.26 58.2312 318.267L57.6275 318.402C56.4352 318.022 55.943 317.595 55.0475 316.71C44.2662 306.035 37.1797 290.48 34.129 275.785C32.667 268.742 32.3735 262.335 32.249 255.267C27.4075 260.547 24.1717 266.495 20.4632 272.577C19.6067 273.982 16.5672 279.285 14.8457 278.935C13.034 276.445 12.7155 270.787 12.4787 267.667C11.308 252.235 13.9855 238.697 18.5902 224.042C16.4122 226.152 2.05197 241.577 0.516723 241.647L0.114974 241.202C-0.092026 239.987 0.0112248 238.46 0.182975 237.245C3.06572 216.878 16.677 189.99 32.9222 177.305C28.2955 178.833 10.074 182.93 7.20047 178.836L7.33622 178.275C9.04172 176.74 13.798 173.967 16.0605 172.331C23.4907 166.957 30.5512 161.221 38.547 156.71C41.085 155.278 43.2467 153.798 46.0127 152.725C42.8152 152.752 22.9517 151.266 24.044 147.202C26.649 145.904 30.3892 144.959 33.1965 143.935C37.738 142.278 42.2692 140.607 46.7785 138.862C55.6135 146.674 64.3562 153.397 76.604 154.668L75.3385 153.978C57.9455 144.394 40.2482 128.363 34.9815 108.688C29.6012 88.59 35.3165 65.5522 45.1562 47.8277C54.7915 30.77 68.6467 16.473 85.3942 6.308C89.7577 3.6745 93.6757 1.41775 98.6167 0Z" fill="#000100"/>
<path d="M267.328 203.38C267.576 203.898 268.511 210.601 268.798 211.912C270.653 220.378 273.496 229.087 277.716 236.68C280.198 241.192 283.683 244.675 287.023 248.457C290.263 252.125 296.453 254.952 298.373 259.147C300.938 264.755 292.523 267.717 289.506 271.03C287.108 273.662 285.958 275.465 284.396 278.815C284.618 272.787 285.981 270.605 288.716 265.385C287.291 265.652 283.658 266.802 282.081 267.325C276.526 269.16 271.481 266.487 266.046 264.45C266.663 265.757 267.351 267.682 267.723 269.027C268.728 272.652 268.231 274.782 266.378 277.85C259.573 289.122 260.133 289.205 247.301 292.31C240.671 293.915 232.933 295.587 226.546 291.95C223.051 289.96 221.146 286.725 220.218 282.955C221.081 280.265 222.758 277.62 224.128 275.112C215.948 279.372 214.101 283.36 210.743 291.587C210.063 286.692 212.538 275.825 214.786 271.282C215.616 269.605 218.996 264.2 218.908 263.18C218.191 263.102 218.201 263.302 217.418 263.81C213.116 266.66 210.136 269.622 206.956 273.615C208.566 267.04 211.321 260.8 215.098 255.182C210.068 257.577 206.758 260.607 202.686 264.275C202.856 254.737 206.008 247.687 211.851 240.287C213.508 238.19 216.431 234.372 217.651 232.092L217.806 231.797C218.761 235.232 219.181 240.715 219.413 244.312C223.658 238.097 224.786 230.27 222.468 223.111C220.248 216.376 218.773 216.342 217.928 208.366C222.458 215.3 225.223 218.886 233.478 221.65C230.221 214.597 229.561 212.023 230.256 204.382C237.671 215.952 246.966 224.005 260.493 227.607C258.033 221.792 255.806 215.482 255.401 209.174C258.896 214.66 261.253 217.081 266.513 220.58C265.561 214.216 265.518 209.521 267.328 203.38Z" fill="white"/>
<path d="M239.09 256.562C244.118 256.037 250.598 258.332 254.673 261.2C259.45 264.562 265.418 270.37 262.823 276.82C262.72 277.075 262.198 276.995 261.953 277.002C259.238 275.832 255.005 273.882 252.105 274.59C241.243 277.235 237.198 267.657 237.875 258.627C237.955 257.57 238.205 257.225 239.09 256.562Z" fill="#000100"/>
<path d="M244.368 243.582C253.988 243.057 262.911 249.492 271.461 252.94C276.721 255.057 280.246 254.7 285.296 252.427C280.856 257.285 277.851 258.75 271.228 257.767C267.131 256.765 263.983 255.275 260.248 253.372C248.798 247.542 241.931 245.657 229.426 249.625C234.893 245.775 237.571 244.16 244.368 243.582Z" fill="#000100"/>
<path d="M206.643 113.07C219.038 110.253 224.895 109.611 237.458 112.863C233.99 113.407 230.025 114.077 226.668 115.044C244.263 118.373 258.823 128.406 270.918 141.235C272.923 143.362 274.818 145.655 276.825 147.734C272.388 146 269.7 145.234 265.418 142.816C262.668 141.262 259.07 138.498 256.535 137.229C263.333 144.253 267.373 150.255 272.185 158.863C277.515 168.398 283.255 180.708 290.708 188.836C283.6 186.097 278.718 183.103 273.32 177.563C273.113 189.201 273.74 195.356 278.888 206.08C270.548 198.491 268.223 192.042 266.193 181.39C264.058 189.83 263.363 193.932 259.243 201.793C261.915 181.126 258.118 163.884 242.583 148.983C249.985 164.507 250.985 168.062 251.493 185.17C250.02 180.262 248.358 174.943 246.108 170.331C241.435 160.759 233.03 151.527 224.578 145.094C220.405 141.918 216.273 139.578 211.96 136.167C219.44 148.823 222.135 158.037 221.448 172.979C221.263 177.024 220.913 181.575 219.893 185.509C219.833 185.744 219.768 185.979 219.703 186.213C213.858 161.155 195.211 159.609 187.956 138.243C184.074 148.676 184.4 155.702 188.936 166.147C180.568 159.83 172.41 153.545 168.048 143.626C164.067 134.57 164.785 128.505 170.097 120.416C168.199 133.613 171.662 139.936 179.683 149.974C176.613 137.917 179.708 129.043 186.735 119.096C192.18 126.432 195.962 130.793 204.528 134.938C203.123 131.749 202.053 128.338 201.02 125.008C216.188 130.355 223.673 134.56 235.37 145.262C229.468 134.652 223.075 127.949 212.468 121.803C210.868 120.875 208.568 119.538 206.858 118.966L206.93 118.815C208.895 118.923 210.675 119.566 212.568 119.942C221.508 121.72 232.675 125.604 240.298 130.743L241.203 130.222C232.623 120.555 219.48 114.282 206.643 113.07Z" fill="white"/>
<path d="M241.203 130.222L243.835 133.098L240.298 130.743L241.203 130.222Z" fill="#000100"/>
<path d="M86.4929 12.474C86.5054 12.5355 86.6194 12.9575 86.5977 12.996C75.4594 32.8592 67.1372 55.997 70.3722 79.0827C71.6182 87.9735 75.8429 99.1995 81.3902 106.367C92.2799 120.439 109.922 128.6 127.305 130.834C132.109 131.452 137.216 131.493 142.035 131.474C135.149 135.502 131.177 136.029 123.38 135.96C130.226 138.538 138.279 138.349 145.395 137.274C137.167 141.026 132.717 142.201 123.86 141.791C132.908 145.419 138.663 144.202 147.488 144.078C130.671 149.269 118.639 147.125 102.45 141.493C101.827 141.262 101.208 141.02 100.593 140.77C82.6229 133.459 68.3624 121.887 60.6567 103.738C61.6632 111.093 64.8589 117.946 68.3122 124.396C56.1219 112.531 51.2337 96.4058 51.8922 79.7533C52.5239 63.7735 57.5939 51.402 65.4847 37.7417C59.3127 43.279 54.2164 50.5952 50.5577 57.9742C49.3462 60.4175 48.3967 62.9295 47.1079 65.3202L47.1742 65.0043C52.4059 40.849 66.1844 25.4992 86.4929 12.474Z" fill="white"/>
<path d="M322.986 52.028C337.061 67.604 347.018 88.6962 346.451 110.138C345.721 137.638 325.456 156.563 300.031 163.816L299.083 163.293C307.371 160.333 312.758 156.723 319.733 151.371C317.036 152.161 314.513 153.994 311.938 155.148C304.676 158.401 296.926 160.439 289.016 161.299C287.381 161.477 285.383 161.678 283.806 161.973C282.303 159.59 280.763 157.232 279.186 154.899C281.836 155.913 288.051 158.051 291.191 157.567C291.716 157.487 291.813 156.954 291.926 156.57C291.373 154.075 286.603 149.992 284.813 147.616C283.428 145.78 282.601 144.874 281.296 142.722C298.483 139.092 309.256 131.702 319.341 117.123C329.741 102.091 329.618 81.6239 325.888 64.1824C324.986 60.1157 324.021 56.0635 322.986 52.028Z" fill="white"/>
<path d="M337.325 101.362L337.583 101.572C338.588 103.563 338.67 113.567 338.56 115.881C337.968 128.152 329.73 135.021 321.025 142.552C320.77 142.806 320.935 142.693 320.493 142.828C320.57 142.337 323.723 137.704 324.293 136.764C332.688 122.881 335.945 117.629 337.325 101.362Z" fill="#000100"/>
<path d="M91.6463 156.345C104.047 156.477 115.483 161.909 126.703 166.7C117.191 166.895 107.526 164.263 98.2358 164.317C86.4295 164.385 76.6676 168.263 68.4663 176.697C73.0393 176.689 81.0803 177.252 85.3486 178.652C83.3326 180.51 79.7351 182.627 77.3181 184.179C82.1701 185.146 86.2638 185.921 90.9801 187.348C89.6293 188.256 88.7113 189.03 87.4616 190.081C90.4468 191.659 92.8913 192.265 96.0871 193.271C97.4228 194.932 97.8163 195.625 99.5663 196.825C100.228 197.144 100.898 197.444 101.578 197.724C107.704 200.198 114.496 197.486 120.231 195.11C102.266 212.597 81.0893 199.31 65.1513 186.635C67.5923 185.492 70.4713 183.91 72.9063 182.655C68.7668 182.141 62.9403 181.998 59.2531 180.11C56.1488 178.521 63.2613 171.043 64.7456 169.274C72.0538 160.565 80.3598 157.015 91.6463 156.345Z" fill="white"/>
<path d="M143.406 194.172L143.665 194.605C142.457 203.682 142.269 210.174 143.538 219.242C144.298 224.672 143.002 231.47 141.55 236.805C149.925 229.165 152.732 222.865 155.682 212.235C156.177 214.834 156.624 218.351 156.329 220.959C155.127 231.567 151.056 237.75 154.225 248.775C156.536 246.482 158.269 243.57 160.355 241.057C162.607 238.345 164.978 235.955 167.237 233.225C162.094 245.867 159.164 257.452 161.097 271.215C161.627 274.987 162.136 277.997 163.493 281.632C157.08 274.767 154.714 269.035 153.066 259.79C152.771 256.66 151.982 252.752 151.358 249.68C147.363 259.907 147.012 265.017 148.609 276.03C147.556 274.567 146.549 273.182 145.625 271.632C137.941 258.735 146.809 247.145 149.862 234.915C142.71 241.182 139.642 245.985 129.663 248.532C136.524 239.972 138.201 229.147 138.337 218.539C134.424 224.61 132.578 226.782 127.068 231.44C128.693 227.752 131.051 223.557 132.467 219.87C135.962 210.772 138.951 202.92 143.406 194.172Z" fill="white"/>
<path d="M113.688 212.991C113.65 213.494 111.393 218.464 110.938 219.491C109.085 223.68 108.252 227.837 106.793 232.102C110.581 228.272 114.516 224.592 118.591 221.072C111.496 234.42 110.643 251.21 114.848 265.545C115.428 267.52 116.089 270.205 117.152 271.907L117.49 271.83C118.018 264.01 120.661 257.345 124.159 250.49C123.271 261.53 122.475 268.057 122.554 279.347C122.792 283.767 123.155 288.64 123.074 293.03C107.704 275.03 102.861 258.692 110.185 235.412C108.262 237.437 99.8828 248.942 97.9815 247.892C97.5483 246.527 98.6603 242.512 98.9525 240.982C101.128 229.595 105.642 221.302 113.688 212.991Z" fill="white"/>
<path d="M263.918 298.835C264.073 298.812 264.228 298.795 264.383 298.782C269.68 298.292 273.49 299.627 277.493 302.962C277.338 303.575 277.178 304.185 277.01 304.795C274.793 312.79 268.9 317.052 261.945 321.012C263.655 318.28 264.24 316.62 264.883 313.495C262.463 313.877 259.373 315.062 257 315.93C252.648 317.517 249.925 318.337 245.338 318.91C247.093 317.525 248.975 315.69 250.635 314.147C248.06 314.835 246.155 315.255 243.53 315.735C241.838 315.772 240.683 315.892 238.993 316.102C240 315.335 242.363 313.78 242.453 312.545C241.245 312.25 237.808 312.667 236.028 312.562C233.26 312.397 231.47 312.085 228.753 311.617C233.46 310.597 233.783 310.83 238.575 308.485C232.403 308.32 227.2 308.127 224.713 301.62C236.205 307.33 251.303 300.217 263.918 298.835Z" fill="white"/>
<path d="M40.4726 196.435C40.4746 196.67 37.1863 205.061 36.7656 206.155C33.6346 214.292 33.9063 221.959 32.9068 230.372C35.4466 227.567 37.7393 224.662 40.3818 221.855C45.3601 216.567 50.2703 212.544 56.0081 208.167C51.5748 215.122 48.0218 220.48 42.9608 227.067C36.3526 235.177 30.4341 243.897 23.7548 251.697C23.6148 246.315 23.4388 241.157 23.9318 235.785C25.2568 221.347 30.7323 207.268 40.4726 196.435Z" fill="white"/>
<path d="M186.94 258.447C187.423 259.05 186.18 265.31 186.002 266.562C184.208 279.205 186.659 285.415 189.611 296.845C192.587 285.895 192.979 281.142 198.91 270.715C196.861 279.382 196.458 287.625 198.71 296.292C199.938 300.427 200.975 303.032 202.828 306.902C197.983 302.847 196.472 301.242 193.276 295.68C191.854 298.82 191.259 302.215 189.636 305.18C178.103 288.632 178.178 276.087 186.94 258.447Z" fill="white"/>
<path d="M161.394 187.375C163.299 188 165.216 188.586 167.145 189.131C167.519 196.463 169.314 201.533 177.802 202.631C182.231 203.204 185.288 201.022 188.587 198.306C192.408 201.3 193.473 203.889 195.121 208.32C195.354 209.358 195.717 210.529 196.01 211.565C190.293 209.709 186.987 210.009 181.157 210.148C176.123 210.268 170.086 209.221 166.449 205.447C161.284 200.088 161.344 194.213 161.394 187.375Z" fill="white"/>
<path d="M132.375 284.905C132.626 285.132 132.753 285.347 132.794 285.707C133.233 289.545 133.82 293.382 135.014 297.072C136.567 301.872 139.774 305.83 142.351 310.117C141.987 302.745 141.935 299.275 143.782 292.057C144.65 299.17 143.313 300.927 146.353 309.055C148.054 313.282 150.184 316.717 152.851 320.385C145.966 317.72 141.752 315.47 137.082 309.357C132.434 303.277 131.116 292.382 132.375 284.905Z" fill="white"/>
<path d="M292.766 277.275C295.691 277.165 296.506 277.547 299.296 278.51C297.741 284.872 293.016 290.202 287.713 293.822L285.266 295.042C284.151 294.757 282.928 294.505 282.228 293.592C282.398 292.165 283.501 291.002 283.938 289.682C285.676 284.42 286.353 278.62 292.766 277.275Z" fill="white"/>
<path d="M228.833 160.385C229.213 160.576 229.228 160.589 229.516 160.896C238.706 170.698 235.886 184.269 235.191 196.429L234.966 196.831L234.676 196.791C229.001 187.143 230.283 184.367 230.246 174.017C230.253 169.436 229.778 164.867 228.833 160.385Z" fill="white"/>
<path d="M127.531 331.94C127.691 332.045 127.842 332.14 127.974 332.28C135.987 340.92 142.142 355.017 143.027 366.537C142.372 366.075 140.629 362.747 140.131 361.812C134.886 351.942 130.121 342.855 127.531 331.94Z" fill="white"/>
<path d="M198.47 333.402L198.78 333.762C198.95 335.135 198.608 338.26 198.445 339.732C197.273 350.185 190.166 359.215 182.191 365.605C183.55 362.342 184.838 359.687 186.127 356.292C187.972 351.24 187.811 344.742 187.899 339.325C189.581 344.315 190.391 348.245 189.769 353.492C195.126 345.745 196.337 342.59 198.47 333.402Z" fill="white"/>
<path d="M195.466 160.967C198.041 162.869 201.296 165.959 203.326 168.395C210.853 177.429 211.593 184.986 210.751 196.049L210.363 195.981C208.258 185.518 206.951 181.171 201.203 171.934C199.833 169.735 196.221 163.354 195.466 160.967Z" fill="white"/>
<path d="M130.366 172.673L130.592 172.896C130.516 173.667 128.452 176.459 127.834 177.74C126.401 180.706 125.645 182.823 124.858 186.021C127.047 182.912 128.493 181.039 130.982 178.228C128.361 185.147 127.55 187.772 126.11 195.17C125.771 196.498 125.612 197.812 125.418 199.167C124.061 195.816 122.841 193.152 122.061 189.564C120.734 189.792 119.381 189.993 118.05 190.203C121.344 182.846 124.814 178.366 130.366 172.673Z" fill="white"/>
<path d="M210.451 352.435L210.691 352.862C209.361 361.962 198.803 375.567 192.459 382.567C191.885 382.04 192.29 380.587 192.506 379.88C195.764 369.225 204.801 361.747 210.451 352.435Z" fill="white"/>
<path d="M98.7387 275.61C98.9174 275.75 99.1974 275.972 99.2182 276.232C99.7282 282.535 100.916 288.832 102.767 294.872C103.726 298.002 109.687 310.222 107.745 312.797C99.0329 300.697 96.8614 290.277 98.7387 275.61Z" fill="white"/>
<path d="M83.6609 238.66C84.0057 240.017 83.6437 243.612 83.4812 245.032C83.2589 246.94 82.9222 248.83 82.4729 250.697C81.4627 254.98 79.9864 259.437 78.8647 263.72C78.4217 265.412 76.6657 273.44 75.8219 274.105C73.3984 260.915 79.3604 250.402 83.6609 238.66Z" fill="white"/>
<path d="M233.37 342.66C233.618 343.745 233.468 346.765 233.443 348.02C233.248 357.43 230.293 363.347 225.455 371.085C226.473 366.55 226.685 362.205 226.773 357.577C226.645 352.432 225.428 347.125 223.855 342.25C226.998 346.482 228.943 350.857 229.753 356.045C230.738 352.33 232.273 345.907 233.37 342.66Z" fill="white"/>
<path d="M170.624 180.818C175.183 180.059 180.184 181.222 183.934 183.901C186.941 186.049 188.537 188.842 190.323 191.958L187.404 189.785C184.63 188.054 181.064 186.263 177.88 185.498C172.359 184.172 170.971 185.145 166.167 181.714C167.843 181.282 168.91 181.078 170.624 180.818Z" fill="white"/>
<path d="M149.489 112.837C151.761 112.688 153.946 112.768 156.217 112.818C153.298 113.862 150.273 114.696 147.39 115.798C143.184 117.405 138.978 119.253 134.839 121.038L129.867 122.917C134.866 117.155 141.895 113.545 149.489 112.837Z" fill="white"/>
<path d="M241.355 187.158C242.263 193.574 242.715 197.401 244.975 203.696C245.55 205.292 248.625 213.011 248.785 213.833L248.465 213.828C244.203 208.993 240.753 204.462 240.285 197.75C240.065 194.559 240.243 190.161 241.355 187.158Z" fill="white"/>
<path d="M202.62 231.905C202.853 232.637 202.563 234.817 202.438 235.652C201.383 242.727 195.224 246.915 189.173 249.205C188.977 248.522 190.647 247.295 191.221 246.78C196.085 242.407 199.635 237.682 202.62 231.905Z" fill="white"/>
<path d="M176.363 327.352C177.37 328.25 177.717 330.387 177.789 331.732C178.105 337.652 174.69 341.9 170.967 346.027L170.51 346.275C170.483 345.422 172.521 341.602 172.975 340.43C174.708 335.957 175.865 332.167 176.363 327.352Z" fill="white"/>
<path d="M161.725 150.459C161.961 151.111 161.07 155.332 160.861 156.329C159.936 160.739 160.634 163.79 160.695 167.754L160.485 167.791L160.045 166.991C157.015 159.99 156.011 156.418 161.725 150.459Z" fill="white"/>
<path d="M173.386 189.17C174.567 188.789 175.842 189.39 176.301 190.543C176.76 191.697 176.246 193.008 175.126 193.544C174.332 193.924 173.391 193.83 172.688 193.299C171.985 192.769 171.635 191.891 171.782 191.022C171.929 190.154 172.547 189.439 173.386 189.17Z" fill="white"/>
<path d="M300.03 163.816C298.968 164.104 297.308 164.627 296.293 164.265C296.855 163.731 298.258 163.5 299.083 163.293L300.03 163.816Z" fill="#BCBCBB"/>
</svg>
