<svg width="513" height="213" viewBox="0 0 513 213" fill="none" xmlns="http://www.w3.org/2000/svg">
<rect width="512.983" height="212.573" fill="black"/>
<path d="M266.19 120.621C266.386 120.556 266.68 120.523 267.072 120.523C268.182 120.523 268.737 121.242 268.737 122.679C268.737 123.462 268.557 124.132 268.198 124.687C267.872 125.209 267.349 125.536 266.631 125.666C263.659 126.221 260.737 126.842 257.863 127.528L257.716 128.703C256.802 135.136 254.973 139.887 252.231 142.956C249.52 146.058 246.124 147.609 242.043 147.609C239.333 147.609 237.226 146.94 235.724 145.601C234.255 144.295 233.52 142.613 233.52 140.556C233.52 137.128 235.055 134.075 238.124 131.397C241.194 128.719 245.847 126.352 252.084 124.295L253.063 117.389C253.194 116.605 253.357 115.56 253.553 114.254C252.018 118.303 250.059 121.323 247.675 123.315C245.292 125.307 242.631 126.303 239.692 126.303C236.884 126.303 234.745 125.454 233.275 123.756C231.806 122.025 231.071 119.805 231.071 117.095C231.071 115.887 231.202 114.564 231.463 113.127C231.724 111.658 232.132 109.682 232.688 107.201C233.177 104.948 233.537 103.152 233.765 101.813C234.026 100.474 234.157 99.2824 234.157 98.2375C234.157 96.6701 233.553 95.8865 232.345 95.8865C231.398 95.8865 230.271 96.3599 228.965 97.3069C227.692 98.2212 226.337 99.6416 224.9 101.568C224.443 102.189 223.937 102.499 223.381 102.499C222.924 102.499 222.516 102.287 222.157 101.862C221.83 101.405 221.667 100.899 221.667 100.344C221.667 99.3314 222.124 98.1885 223.039 96.915C226.369 92.3436 230.271 90.0579 234.745 90.0579C236.737 90.0579 238.288 90.6619 239.398 91.8701C240.541 93.0783 241.112 94.8579 241.112 97.2089C241.112 98.9069 240.949 100.654 240.622 102.45C240.328 104.213 239.871 106.466 239.251 109.209C238.859 110.842 238.565 112.164 238.369 113.176C238.173 114.156 238.075 114.972 238.075 115.625C238.075 117.291 238.369 118.483 238.957 119.201C239.545 119.919 240.573 120.278 242.043 120.278C243.806 120.278 245.602 119.315 247.431 117.389C249.292 115.429 250.957 112.474 252.427 108.523C253.929 104.572 255.006 99.7396 255.659 94.0252C255.822 92.5885 256.198 91.5762 256.786 90.9885C257.374 90.3681 258.222 90.0579 259.333 90.0579C261.618 90.0579 262.761 91.2007 262.761 93.4864C262.761 93.8783 262.745 94.1885 262.712 94.4171C262.027 99.2824 261.39 103.674 260.802 107.593C260.476 109.944 260.116 112.36 259.725 114.842C259.365 117.323 259.006 119.838 258.647 122.385C261.031 121.732 263.545 121.144 266.19 120.621ZM251.349 129.438C243.447 132.181 239.496 135.511 239.496 139.43C239.496 140.344 239.773 141.095 240.328 141.683C240.916 142.303 241.733 142.613 242.777 142.613C247.316 142.613 250.157 138.336 251.3 129.781L251.349 129.438Z" fill="white"/>
<path d="M271.275 131.838C269.251 131.838 267.634 131.103 266.426 129.634C265.218 128.164 264.614 126.238 264.614 123.854C264.614 121.242 265.218 118.776 266.426 116.458C267.634 114.107 269.234 112.229 271.226 110.825C273.251 109.389 275.389 108.67 277.642 108.67C278.361 108.67 278.834 108.817 279.063 109.111C279.324 109.372 279.536 109.862 279.7 110.58C280.385 110.45 281.104 110.385 281.855 110.385C283.455 110.385 284.255 110.956 284.255 112.099C284.255 112.785 284.01 114.417 283.52 116.997C282.769 120.752 282.393 123.364 282.393 124.834C282.393 125.323 282.508 125.715 282.736 126.009C282.998 126.303 283.324 126.45 283.716 126.45C284.336 126.45 285.087 126.058 285.969 125.274C286.851 124.458 288.042 123.152 289.545 121.356C289.936 120.899 290.377 120.67 290.867 120.67C291.291 120.67 291.618 120.866 291.847 121.258C292.108 121.65 292.238 122.189 292.238 122.874C292.238 124.181 291.928 125.193 291.308 125.911C289.969 127.577 288.549 128.981 287.047 130.123C285.545 131.266 284.091 131.838 282.687 131.838C281.61 131.838 280.614 131.479 279.7 130.76C278.818 130.009 278.149 128.997 277.691 127.723C275.993 130.466 273.855 131.838 271.275 131.838ZM273.038 126.891C273.757 126.891 274.442 126.466 275.095 125.617C275.749 124.768 276.222 123.642 276.516 122.238L278.328 113.225C276.957 113.258 275.683 113.78 274.508 114.793C273.365 115.772 272.451 117.078 271.765 118.711C271.079 120.344 270.736 122.074 270.736 123.903C270.736 124.915 270.932 125.666 271.324 126.156C271.748 126.646 272.32 126.891 273.038 126.891Z" fill="white"/>
<path d="M309.074 126.499C310.413 126.76 311.082 127.495 311.082 128.703C311.082 129.519 310.707 130.254 309.956 130.907C309.237 131.528 308.193 131.838 306.821 131.838C304.47 131.838 302.543 131.119 301.041 129.683C299.572 128.213 298.837 126.303 298.837 123.952C298.837 122.679 299.49 121.764 300.797 121.209C302.233 120.589 303.262 119.936 303.882 119.25C304.503 118.532 304.813 117.666 304.813 116.654C304.813 116.066 304.682 115.625 304.421 115.332C304.192 115.038 303.899 114.891 303.539 114.891C302.658 114.891 301.678 115.527 300.601 116.801C299.556 118.074 298.576 119.723 297.662 121.748C296.748 123.74 296.029 125.797 295.507 127.919C295.148 129.454 294.723 130.499 294.233 131.054C293.776 131.577 293.041 131.838 292.029 131.838C291.017 131.838 290.266 131.479 289.776 130.76C289.319 130.009 289.009 128.866 288.845 127.332C288.682 125.797 288.601 123.544 288.601 120.572C288.601 115.544 289.107 110.303 290.119 104.85C291.164 99.3967 292.682 94.8252 294.674 91.1354C296.699 87.4129 299.115 85.5517 301.923 85.5517C303.425 85.5517 304.633 86.2048 305.548 87.5109C306.495 88.7844 306.968 90.4497 306.968 92.5069C306.968 95.8048 306.005 99.2334 304.078 102.793C302.152 106.319 299.017 110.45 294.674 115.185C294.576 116.883 294.527 118.629 294.527 120.425C296.094 116.344 297.89 113.389 299.915 111.56C301.939 109.699 303.833 108.768 305.597 108.768C307.229 108.768 308.535 109.323 309.515 110.434C310.527 111.544 311.033 112.915 311.033 114.548C311.033 116.344 310.576 117.993 309.662 119.495C308.748 120.997 307.18 122.336 304.96 123.511C305.156 124.491 305.548 125.176 306.135 125.568C306.756 125.928 307.735 126.238 309.074 126.499ZM300.894 90.4007C300.307 90.4007 299.654 91.2497 298.935 92.9477C298.217 94.613 297.515 96.8824 296.829 99.7559C296.176 102.597 295.637 105.699 295.213 109.062C297.237 106.678 298.903 104.082 300.209 101.274C301.548 98.4661 302.217 95.9191 302.217 93.6334C302.217 92.5885 302.103 91.7885 301.874 91.2334C301.646 90.6783 301.319 90.4007 300.894 90.4007Z" fill="white"/>
<path d="M362.322 120.67C362.746 120.67 363.073 120.866 363.301 121.258C363.563 121.65 363.693 122.189 363.693 122.874C363.693 124.148 363.383 125.16 362.763 125.911C360.934 128.099 359.154 129.634 357.424 130.515C355.726 131.397 353.669 131.838 351.252 131.838C349.554 131.838 347.987 131.626 346.55 131.201C345.114 130.777 343.367 130.14 341.309 129.291C339.448 128.474 337.652 127.805 335.922 127.283C334.256 130.319 331.758 131.838 328.428 131.838C326.599 131.838 325.146 131.43 324.069 130.613C322.958 129.764 322.403 128.687 322.403 127.381C322.403 125.781 323.171 124.458 324.705 123.413C326.24 122.336 328.281 121.797 330.828 121.797H331.464L332.346 107.544C332.542 104.278 333.13 101.584 334.109 99.462C335.089 97.3395 336.444 95.5273 338.175 94.0252C339.677 92.7191 341.391 91.7395 343.318 91.0864C345.244 90.4007 347.285 90.0579 349.44 90.0579C352.967 90.0579 355.677 90.9721 357.571 92.8007C359.465 94.6293 360.412 97.013 360.412 99.9518C360.412 101.944 360.052 103.56 359.334 104.801C358.616 106.009 357.62 106.613 356.346 106.613C355.432 106.613 354.714 106.401 354.191 105.976C353.669 105.519 353.408 104.882 353.408 104.066C353.408 103.772 353.473 103.233 353.603 102.45C353.799 101.535 353.897 100.719 353.897 100.001C353.897 98.6293 353.489 97.5518 352.673 96.7681C351.889 95.9518 350.681 95.5436 349.048 95.5436C346.175 95.5436 343.954 96.4906 342.387 98.3844C340.82 100.246 339.824 103.184 339.399 107.201L338.273 118.319C338.109 119.887 337.897 121.242 337.636 122.385C339.726 122.744 342.338 123.315 345.473 124.099C347.301 124.556 348.705 124.883 349.685 125.079C350.665 125.274 351.53 125.372 352.281 125.372C354.175 125.372 355.791 125.062 357.13 124.442C358.501 123.789 359.791 122.76 360.999 121.356C361.391 120.899 361.832 120.67 362.322 120.67Z" fill="white"/>
<path d="M365.743 131.838C363.719 131.838 362.102 131.103 360.894 129.634C359.686 128.164 359.082 126.238 359.082 123.854C359.082 121.242 359.686 118.776 360.894 116.458C362.102 114.107 363.702 112.229 365.694 110.825C367.719 109.389 369.858 108.67 372.111 108.67C372.829 108.67 373.302 108.817 373.531 109.111C373.792 109.372 374.004 109.862 374.168 110.58C374.853 110.45 375.572 110.385 376.323 110.385C377.923 110.385 378.723 110.956 378.723 112.099C378.723 112.785 378.478 114.417 377.988 116.997C377.237 120.752 376.862 123.364 376.862 124.834C376.862 125.323 376.976 125.715 377.204 126.009C377.466 126.303 377.792 126.45 378.184 126.45C378.805 126.45 379.556 126.058 380.437 125.274C381.319 124.458 382.511 123.152 384.013 121.356C384.405 120.899 384.845 120.67 385.335 120.67C385.76 120.67 386.086 120.866 386.315 121.258C386.576 121.65 386.707 122.189 386.707 122.874C386.707 124.181 386.396 125.193 385.776 125.911C384.437 127.577 383.017 128.981 381.515 130.123C380.013 131.266 378.56 131.838 377.156 131.838C376.078 131.838 375.082 131.479 374.168 130.76C373.286 130.009 372.617 128.997 372.16 127.723C370.462 130.466 368.323 131.838 365.743 131.838ZM367.506 126.891C368.225 126.891 368.911 126.466 369.564 125.617C370.217 124.768 370.69 123.642 370.984 122.238L372.796 113.225C371.425 113.258 370.151 113.78 368.976 114.793C367.833 115.772 366.919 117.078 366.233 118.711C365.547 120.344 365.204 122.074 365.204 123.903C365.204 124.915 365.4 125.666 365.792 126.156C366.217 126.646 366.788 126.891 367.506 126.891Z" fill="white"/>
<path d="M392.424 131.838C389.159 131.838 386.775 130.581 385.273 128.066C383.803 125.552 383.069 121.911 383.069 117.144C383.069 112.931 383.591 108.36 384.636 103.429C385.681 98.4661 387.199 94.2538 389.191 90.7926C391.216 87.2986 393.616 85.5517 396.391 85.5517C397.893 85.5517 399.101 86.2048 400.016 87.5109C400.93 88.7844 401.387 90.4497 401.387 92.5069C401.387 95.1844 400.881 97.8457 399.869 100.491C398.857 103.136 397.175 105.911 394.824 108.817C396.424 108.948 397.812 109.487 398.987 110.434C400.195 111.38 401.11 112.605 401.73 114.107C402.383 115.609 402.71 117.242 402.71 119.005C402.71 121.454 402.22 123.658 401.24 125.617C400.293 127.577 399.036 129.111 397.469 130.221C395.901 131.299 394.22 131.838 392.424 131.838ZM389.534 112.148C391.689 108.197 393.403 104.719 394.677 101.715C395.983 98.6783 396.636 95.9844 396.636 93.6334C396.636 92.5885 396.506 91.7885 396.244 91.2334C396.016 90.6783 395.689 90.4007 395.265 90.4007C394.612 90.4007 393.893 91.3803 393.11 93.3395C392.359 95.2661 391.657 97.8946 391.003 101.225C390.35 104.556 389.861 108.197 389.534 112.148ZM392.62 126.548C393.73 126.548 394.661 125.944 395.412 124.736C396.195 123.527 396.587 121.764 396.587 119.446C396.587 117.65 396.261 116.295 395.608 115.38C394.955 114.466 394.171 114.009 393.257 114.009C392.114 114.009 391.15 114.597 390.367 115.772C389.583 116.948 389.191 118.662 389.191 120.915C389.191 122.874 389.518 124.311 390.171 125.225C390.824 126.107 391.64 126.548 392.62 126.548Z" fill="white"/>
<path d="M414.843 132.915C413.145 132.915 411.839 132.523 410.925 131.74C410.043 130.956 409.602 130.074 409.602 129.095C409.602 128.246 409.913 127.511 410.533 126.891C411.153 126.27 412.068 125.96 413.276 125.96C413.7 125.96 414.19 126.009 414.745 126.107C415.333 126.172 415.774 126.221 416.068 126.254C416.035 125.405 415.839 124.605 415.48 123.854C415.154 123.103 414.729 122.385 414.207 121.699C413.684 120.981 413.194 120.36 412.737 119.838C411.725 121.764 410.713 123.364 409.7 124.638C408.721 125.911 407.643 127.119 406.468 128.262C405.88 128.85 405.26 129.144 404.606 129.144C404.084 129.144 403.66 128.964 403.333 128.605C403.006 128.213 402.843 127.74 402.843 127.185C402.843 126.532 403.072 125.928 403.529 125.372L404.166 124.589C405.962 122.368 407.317 120.54 408.231 119.103C408.819 118.156 409.407 117.029 409.994 115.723C410.615 114.417 411.415 112.638 412.394 110.385C413.015 108.948 414.305 108.229 416.264 108.229C417.178 108.229 417.815 108.311 418.174 108.474C418.533 108.638 418.713 108.899 418.713 109.258C418.713 109.454 418.647 109.764 418.517 110.189C418.386 110.613 418.207 111.038 417.978 111.462C417.39 112.638 417.096 113.634 417.096 114.45C417.096 114.94 417.26 115.478 417.586 116.066C417.945 116.654 418.484 117.389 419.203 118.27C420.247 119.642 421.031 120.817 421.554 121.797C422.109 122.744 422.386 123.789 422.386 124.932C422.386 126.303 422.06 127.609 421.407 128.85C420.786 130.058 419.905 131.038 418.762 131.789C417.619 132.54 416.313 132.915 414.843 132.915Z" fill="white"/>
<path d="M92.3616 39.5322L92.4174 40.3036C92.4435 40.6645 92.3617 40.9751 92.3141 41.1346C92.2571 41.3255 92.1827 41.5095 92.1119 41.6684C91.9698 41.9873 91.786 42.3288 91.6145 42.6327C91.4402 42.9414 91.256 43.2502 91.1084 43.4991C90.9464 43.7723 90.8506 43.9366 90.8083 44.0195C88.5923 48.3665 86.469 53.4655 85.7235 58.4849C84.9811 63.4831 85.6224 68.2447 88.727 72.1581C89.2106 72.7676 89.7092 73.2893 90.2739 73.8335C90.8789 73.5298 91.5017 73.2462 91.8316 73.0899C93.7157 72.1971 95.4628 71.5361 97.2347 71.0723C97.2055 71.0603 97.1765 71.0485 97.148 71.0363C96.9519 70.9521 96.7212 70.8423 96.508 70.7031C96.3705 70.6132 95.9101 70.3102 95.6875 69.7346L95.4059 69.006L95.7963 68.3296C96.2946 67.466 97.2143 67.2133 97.4292 67.1466C101.844 65.7765 106.527 65.7115 110.962 67.0372C110.939 66.9794 110.917 66.918 110.899 66.8529L110.697 66.1306L111.498 64.9304L111.962 64.7413C112.397 64.5641 112.848 64.5343 113.152 64.5315C113.488 64.5283 113.832 64.5593 114.138 64.5997C114.751 64.6805 115.35 64.8182 115.712 64.9167C118.942 65.7955 121.854 67.3334 124.056 69.8539C124.21 69.5839 124.44 69.2033 124.668 68.9202C124.87 68.669 125.215 68.296 125.718 68.0656C126.28 67.8085 126.955 67.7722 127.596 68.0822L127.723 68.1488L128.063 68.3395L128.28 68.6632C128.585 69.1182 128.73 69.6398 128.81 70.0372C128.891 70.4349 128.933 70.8539 128.956 71.2458C131.983 70.6301 135.48 70.7636 138.161 71.6418C138.717 71.8242 139.809 72.188 140.84 72.6393C141.353 72.8639 141.894 73.1289 142.363 73.4257C142.773 73.6845 143.372 74.1147 143.712 74.7484L144.038 75.3552L143.83 76.0121L143.793 76.1285L143.534 76.9506L142.95 77.1269C145.023 78.4481 146.823 80.0981 148.463 81.9595C149.494 81.7152 150.247 81.5641 151.181 81.1553C156.098 79.0031 158.414 75.2694 159.256 70.8478C160.088 66.4745 159.462 61.4477 158.309 56.7651L158.196 56.3133C158.111 55.98 157.8 55.1032 157.456 54.0422C157.299 53.5566 157.141 53.0494 157.032 52.6267C156.979 52.4191 156.927 52.1936 156.896 51.9829C156.881 51.8786 156.865 51.7422 156.864 51.5939C156.863 51.4835 156.865 51.187 156.999 50.8595L157.344 50.0144L158.244 49.8655C158.728 49.7855 159.15 49.887 159.425 49.9857C159.677 50.0764 159.903 50.1993 160.091 50.3292L160.17 50.3853L160.171 50.3859C165.614 54.4229 170.25 60.824 172.612 67.7824C174.975 74.7441 175.123 82.4735 171.238 88.994C169.438 92.0138 166.503 94.5538 163.339 96.5046C160.887 98.0162 158.227 99.217 155.706 100.034C156.159 100.659 156.649 101.276 157.146 101.874L157.379 102.145C157.61 102.409 157.844 102.661 158.136 102.992C158.493 103.397 158.884 103.866 159.228 104.408L159.66 105.088L159.336 105.975L159.143 106.5L158.67 106.797C157.921 107.267 157.037 107.301 156.41 107.264C155.987 107.238 155.548 107.171 155.118 107.081C155.329 107.688 155.486 108.309 155.532 108.885C155.57 109.362 155.552 110.024 155.222 110.639C154.826 111.375 154.118 111.797 153.315 111.861C153.203 111.87 153.092 111.871 152.981 111.867C153.009 112.204 153.003 112.545 152.941 112.872C152.856 113.326 152.635 113.917 152.084 114.353C151.904 114.496 151.713 114.602 151.52 114.679C152.175 115.662 152.928 116.543 153.95 117.475L154.152 117.657L154.153 117.658C154.644 118.095 155.567 118.879 156.365 119.729C156.769 120.158 157.18 120.644 157.512 121.158C157.833 121.654 158.156 122.289 158.246 123.003L158.269 123.195C158.709 127.225 157.106 131.953 155.231 135.167L155.221 135.184L155.211 135.2C154.341 136.615 153.118 137.797 151.522 138.424C150.492 143.396 145.973 145.989 141.936 147.202C141.878 147.513 141.839 147.797 141.829 148.072C141.812 148.564 141.895 148.898 142.07 149.168L142.098 149.205C142.126 149.241 142.156 149.279 142.206 149.341C142.289 149.445 142.432 149.622 142.559 149.821C142.742 150.107 143.364 151.156 142.668 152.263L142.352 152.765L141.789 152.948C141.175 153.146 140.588 153.058 140.262 152.991C139.913 152.919 139.56 152.8 139.408 152.753L139.406 152.752C138.746 152.545 138.16 152.268 137.637 151.937C137.083 157.585 134.308 162.268 129.387 165.963C129.074 166.198 128.488 166.613 127.857 166.963C127.543 167.137 127.177 167.318 126.801 167.448C126.468 167.564 125.927 167.715 125.341 167.623L124.66 167.516L124.315 167.029C123 168.607 121.409 170.008 119.433 171.102L119.432 171.103C119.251 171.203 118.926 171.381 118.556 171.501C118.195 171.619 117.593 171.749 116.932 171.534L115.998 171.231L115.886 170.596C113.729 171.861 111.324 172.777 108.756 173.044C108.456 173.076 108.032 173.088 107.608 173.045C107.394 173.023 107.14 172.984 106.882 172.907C106.645 172.836 106.281 172.699 105.952 172.409L105.3 171.835L105.412 170.973C105.413 170.968 105.413 170.962 105.415 170.953C105.416 170.945 105.417 170.932 105.419 170.919C105.422 170.894 105.428 170.851 105.437 170.801C105.454 170.701 105.491 170.525 105.582 170.325C105.791 169.863 106.132 169.605 106.36 169.465L106.361 169.464C106.448 169.411 106.533 169.356 106.618 169.301C106.553 169.335 106.487 169.369 106.42 169.4C106.096 169.551 105.625 169.724 105.088 169.719L105.063 169.718L105.038 169.718C104.641 169.702 104.247 169.566 103.922 169.34C103.598 169.115 103.107 168.618 103.087 167.822C103.037 165.774 103.165 164.53 102.866 162.915L102.8 162.587C102.181 159.703 100.631 157.328 98.6646 154.99C98.4876 155.613 98.2746 156.244 98.0182 156.857C97.3981 158.342 96.4692 159.872 95.0679 160.898L93.36 162.147L92.5848 160.178C92.4147 159.746 92.3009 159.262 92.2178 158.877C92.1225 158.436 92.0702 158.143 91.9981 157.845L91.9142 157.524C91.7123 156.776 91.4661 156.042 91.1773 155.324L91.1763 155.321C90.5116 153.662 89.7652 152.31 88.9387 150.53C88.6223 149.848 88.3205 149.178 88.0331 148.512C87.9143 148.629 87.7939 148.715 87.69 148.776C87.5405 148.863 87.3991 148.913 87.3906 148.917C87.3626 148.927 87.3677 148.925 87.382 148.92L86.7956 149.177L86.1731 148.943C85.6915 148.762 85.3114 148.454 85.0771 148.244C84.8253 148.019 84.6023 147.776 84.4687 147.632L84.4674 147.631C82.0067 144.97 80.2849 141.782 79.232 138.39C79.2366 138.749 79.252 139.104 79.2808 139.456L79.3035 139.705L79.3577 140.195C79.3815 140.418 79.4071 140.682 79.4234 140.928C79.4401 141.181 79.4521 141.476 79.439 141.753C79.4324 141.891 79.4182 142.059 79.3848 142.233C79.3562 142.382 79.29 142.666 79.1109 142.955L78.7493 143.537L78.0802 143.686L77.8873 143.73L77.4559 143.826L77.035 143.692C76.7261 143.593 76.4381 143.465 76.1555 143.27C75.9009 143.094 75.6983 142.895 75.5582 142.757L75.5573 142.755C71.8251 139.06 69.4405 133.765 68.4179 128.84C68.262 128.089 68.1453 127.361 68.0575 126.645C68.0136 126.718 67.9691 126.791 67.9249 126.864L67.0403 128.332C66.9282 128.516 66.5657 129.14 66.1627 129.682C65.9647 129.949 65.7005 130.275 65.3955 130.54C65.2428 130.673 65.0262 130.838 64.7536 130.963C64.4824 131.087 64.0442 131.221 63.5247 131.115L62.9028 130.989L62.5297 130.476C61.9902 129.734 61.7792 128.733 61.67 128.045C61.5497 127.286 61.5006 126.504 61.465 126.035C61.2353 123.008 61.4468 120.205 61.959 117.449C61.76 117.643 61.5704 117.826 61.3936 117.991C61.128 118.238 60.8689 118.47 60.6448 118.648C60.5356 118.735 60.4033 118.835 60.2635 118.921C60.1938 118.964 60.0943 119.021 59.9746 119.073C59.8773 119.115 59.6459 119.208 59.3419 119.222L58.5721 119.257L57.6094 118.191L57.5297 117.723C57.4209 117.084 57.4819 116.397 57.5444 115.955C58.0374 112.471 59.4304 108.511 61.3531 104.909C62.3464 103.049 63.5008 101.247 64.7766 99.635C64.0812 99.6994 63.3787 99.7258 62.745 99.6771C62.316 99.6442 61.8515 99.5726 61.4169 99.4188C60.9945 99.2693 60.4524 98.9896 60.0686 98.4427L59.6445 97.8385L59.9806 96.4501L60.3563 96.1121C60.7462 95.7611 61.3869 95.3414 61.8901 95.0161C62.4678 94.6425 62.9655 94.3303 63.2813 94.1018C64.9869 92.8683 66.7636 91.468 68.6669 90.2115C68.0705 90.0854 67.4818 89.9282 66.9864 89.7281C66.6358 89.5864 66.1836 89.3666 65.8171 89.0128C65.4085 88.6184 64.9664 87.8889 65.2147 86.965L65.4054 86.2555L66.0633 85.9277C66.5956 85.6624 67.2018 85.452 67.7233 85.2816C68.2939 85.0952 68.7433 84.9618 69.1586 84.8103C70.4417 84.3423 71.7144 83.8719 72.9794 83.3875C71.0308 81.0606 69.4924 78.4106 68.7119 75.4949C66.8458 68.5242 68.8426 60.7132 72.1153 54.8181L72.1181 54.8126L72.1213 54.8075C75.3401 49.1092 79.9684 44.333 85.5631 40.9372L85.5666 40.935C86.9676 40.0894 88.3819 39.2649 90.1884 38.7465L90.9397 38.5309L92.3616 39.5322ZM90.6387 40.3157C89.0586 40.7691 87.8057 41.4908 86.4103 42.333L85.911 42.6416C80.7791 45.8703 76.5278 50.3261 73.5429 55.6105L73.3962 55.8774C70.3399 61.5085 68.5954 68.7461 70.2891 75.0727C71.9733 81.3644 77.6327 86.4908 83.1948 89.5556L83.5994 89.7765C79.6828 89.3701 76.8867 87.22 74.0614 84.7217C72.6194 85.2796 71.1705 85.8143 69.7183 86.3441L69.3688 86.4659C68.5271 86.7488 67.5201 87.0255 66.7913 87.3888C66.442 88.6882 72.7935 89.1635 73.8165 89.155C72.9321 89.4979 72.2409 89.9714 71.4294 90.4293C68.8724 91.8717 66.6144 93.7064 64.2383 95.4249L64.0939 95.5269C63.3286 96.0573 61.9598 96.8652 61.4484 97.3254L61.4051 97.5049C62.3241 98.814 68.151 97.5039 69.6306 97.0151C64.4356 101.072 60.0826 109.67 59.1608 116.183C59.1059 116.572 59.0729 117.06 59.1391 117.449L59.2676 117.591C59.7586 117.569 64.3508 112.636 65.0473 111.961C63.5748 116.648 62.7185 120.977 63.0929 125.912C63.1686 126.91 63.2706 128.719 63.8499 129.515C64.3316 129.613 65.1361 128.327 65.5132 127.703L65.6462 127.482C66.8321 125.537 67.8671 123.635 69.4153 121.947C69.4551 124.207 69.5489 126.256 70.0164 128.508C70.992 133.207 73.2582 138.181 76.7059 141.595C76.9922 141.878 77.1496 142.015 77.5308 142.136L77.7241 142.093C77.9241 141.771 77.7264 140.339 77.6791 139.868C77.3809 136.907 77.9848 133.92 78.174 130.974C77.6815 131.839 76.6585 133.821 76.0955 134.475C75.897 134.111 75.7115 133.748 75.5241 133.378C72.616 127.648 74.2161 120.711 77.9935 115.72C76.315 120.123 75.3815 124.53 76.0231 129.239C76.1677 130.3 76.4225 131.352 76.6265 132.411C76.8029 131.365 77.3425 130.046 77.6778 129.005C78.4877 126.492 79.4602 123.444 80.7566 121.128C80.3369 123.081 79.9144 125.036 79.7193 127.048C79.0507 133.947 80.8849 141.352 85.6661 146.522L85.8995 146.77C86.1306 147.008 86.4035 147.259 86.6744 147.384L86.748 147.415C86.85 147.371 86.9069 147.374 86.9158 147.281C87.0416 145.96 86.6777 144.205 86.638 142.91C86.6011 141.702 86.5518 140.278 86.6868 139.151C87.516 143.026 88.7481 146.24 90.4199 149.842C91.1864 151.494 92.0099 153.011 92.692 154.714C93.0497 155.603 93.3467 156.516 93.581 157.445C93.7391 158.095 93.8691 158.984 94.104 159.58C96.2337 158.022 97.2273 154.674 97.6078 152.158C97.6447 151.916 97.6673 151.673 97.6757 151.428C100.618 154.606 103.456 157.865 104.396 162.245C104.822 164.225 104.671 165.802 104.719 167.782C104.723 167.941 104.893 168.05 105.042 168.079L105.104 168.086C105.765 168.092 106.738 167.296 107.3 166.777L107.514 166.575C110.222 163.943 111.839 158.871 112.127 155.141C113.334 161.182 112.864 167.396 107.214 170.856C107.05 170.957 107.051 171.028 107.031 171.184C107.341 171.457 108.181 171.463 108.586 171.421C112.768 170.986 116.582 168.607 119.513 165.764C119.156 166.634 118.8 167.55 118.311 168.353C118.076 168.704 117.374 169.626 117.436 169.982C117.823 170.107 118.285 169.871 118.642 169.674C123.757 166.842 126.092 161.693 127.984 156.55C127.92 159.496 127.614 161.978 126.145 164.577C125.952 164.919 125.412 165.752 125.594 166.01C126.328 166.125 127.847 165.078 128.407 164.657C134.142 160.35 136.685 154.699 135.999 147.56C136.862 149.288 138.004 150.602 139.894 151.194C140.276 151.314 140.807 151.501 141.208 151.415L141.286 151.394C141.557 150.963 140.941 150.427 140.701 150.058C139.876 148.786 140.237 147.266 140.544 145.895C144.955 144.782 149.584 142.188 150.063 137.16C151.632 136.838 152.853 135.854 153.736 134.479L153.821 134.345C155.627 131.248 157.078 126.789 156.626 123.207C156.441 121.74 154.13 119.823 153.067 118.878C150.641 116.72 149.534 114.816 148.184 111.915C152.383 115.265 151.741 111.34 150.134 108.844C156.131 113.033 153.663 106.68 151.722 104.137C152.934 104.793 156.461 106.142 157.743 105.449L157.802 105.414L157.85 105.283C157.368 104.524 156.734 103.887 156.142 103.211L155.892 102.919C154.902 101.73 153.897 100.411 153.13 99.069C158.939 97.6639 166.363 93.7147 169.68 88.4117L169.835 88.1579C176.974 76.1781 169.524 59.3558 159.198 51.6975C159.017 51.5631 158.741 51.4383 158.51 51.4765L158.504 51.4966C158.391 51.9634 159.579 55.1255 159.779 55.9109C162.271 65.7094 162.816 77.845 151.836 82.6509C150.476 83.2463 149.268 83.4173 147.88 83.7883L147.607 83.464C144.77 80.1371 141.538 77.5702 137.244 76.302C138.44 76.1246 139.621 75.952 140.826 75.8514C141.229 75.8177 141.668 75.7811 142.068 75.683L142.237 75.6371L142.273 75.5204C141.762 74.5671 138.756 73.5547 137.652 73.1932C134.632 72.2036 130.352 72.2697 127.305 73.3995C127.366 72.4765 127.436 70.4731 126.97 69.6482L126.924 69.5723C126.185 69.1573 125.587 70.4981 125.274 71.021C124.913 71.6246 124.582 72.2595 124.226 72.8702C122.284 69.5786 119.261 67.6443 115.636 66.5911L115.283 66.4919C114.667 66.3241 113.178 66.0094 112.578 66.2537L112.471 66.4132C112.564 66.7442 113.733 67.7499 114.04 68.0637L114.376 68.411C115.16 69.2301 115.922 70.1143 116.426 71.1246C114.759 70.3051 113.25 69.5423 111.483 68.9221L111.125 68.8C106.826 67.3677 102.239 67.3636 97.9133 68.7059L97.8106 68.7391C97.5709 68.8204 97.3333 68.9329 97.2105 69.1457C97.3993 69.6341 100.354 70.302 101.032 70.529C102.169 70.9099 103.168 71.3195 104.252 71.8293C99.8356 71.8821 96.5392 72.6661 92.5309 74.5653L91.9416 74.8418C91.2812 75.1515 90.4658 75.5418 90.0223 75.8367C89.1339 75.0177 88.351 74.2784 87.5982 73.3593L87.448 73.1731C80.6043 64.5467 84.7264 52.4771 89.1435 43.6936L89.3539 43.2781C89.6315 42.7336 90.7527 41.0412 90.7889 40.4729V40.4216L90.6387 40.3157Z" fill="white"/>
<path d="M90.3882 40.1615L90.5385 40.2673C90.5754 40.7767 89.3899 42.5617 89.1034 43.1238C84.6094 51.939 80.2453 64.2555 87.1976 73.0187C87.9967 74.0259 88.8242 74.809 89.7718 75.6825C90.3632 75.2893 91.6153 74.7263 92.2804 74.4112C96.2886 72.512 99.585 71.7278 104.001 71.675C102.918 71.1652 101.919 70.7558 100.781 70.3748C100.104 70.1479 97.1488 69.4801 96.96 68.9916C97.1003 68.7483 97.3906 68.6361 97.6627 68.5517C101.988 67.2094 106.576 67.2133 110.875 68.6457C112.799 69.2865 114.397 70.0963 116.176 70.9705C115.599 69.8158 114.686 68.8259 113.79 67.9093C113.483 67.5956 112.313 66.5901 112.221 66.259L112.327 66.0994C112.927 65.855 114.416 66.1699 115.033 66.3377C118.815 67.3667 121.971 69.3181 123.976 72.7158C124.332 72.1051 124.662 71.4702 125.023 70.8666C125.336 70.3438 125.934 69.0029 126.673 69.4179C127.19 70.1886 127.118 72.2924 127.054 73.2451C130.101 72.1153 134.382 72.0495 137.402 73.039C138.505 73.4006 141.511 74.413 142.023 75.3663L141.986 75.4828C141.544 75.6164 141.036 75.6586 140.576 75.6971C139.371 75.7978 138.189 75.9704 136.993 76.1478C141.426 77.457 144.727 80.1497 147.63 83.634C149.017 83.263 150.225 83.0922 151.585 82.4967C162.566 77.6909 162.021 65.5551 159.528 55.7565C159.325 54.9586 158.103 51.708 158.26 51.3222C158.491 51.284 158.766 51.4088 158.948 51.5432C169.273 59.2015 176.724 76.0239 169.584 88.0038C166.348 93.4344 158.78 97.4874 152.88 98.9149C153.646 100.257 154.651 101.575 155.642 102.765C156.299 103.553 157.049 104.262 157.6 105.129L157.552 105.26C156.323 106.031 152.702 104.649 151.472 103.983C153.412 106.525 155.881 112.879 149.884 108.69C151.491 111.185 152.133 115.111 147.933 111.761C149.284 114.662 150.39 116.566 152.816 118.723C153.879 119.669 156.191 121.585 156.376 123.053C156.827 126.635 155.376 131.093 153.57 134.191C152.681 135.635 151.432 136.674 149.813 137.005C149.333 142.034 144.704 144.628 140.294 145.74C139.987 147.112 139.625 148.631 140.45 149.903C140.69 150.273 141.307 150.809 141.036 151.24C140.628 151.372 140.051 151.167 139.644 151.04C137.754 150.448 136.611 149.134 135.749 147.406C136.435 154.545 133.892 160.196 128.156 164.503C127.597 164.924 126.078 165.971 125.344 165.856C125.161 165.598 125.702 164.765 125.894 164.423C127.364 161.824 127.669 159.342 127.733 156.396C125.842 161.539 123.506 166.688 118.392 169.52C118.034 169.717 117.572 169.953 117.186 169.828C117.123 169.472 117.826 168.55 118.06 168.199C118.55 167.396 118.905 166.48 119.262 165.61C116.332 168.452 112.518 170.832 108.335 171.267C107.93 171.309 107.09 171.303 106.781 171.03C106.801 170.874 106.799 170.803 106.963 170.702C112.613 167.242 113.084 161.028 111.877 154.987C111.588 158.717 109.971 163.789 107.263 166.421C106.772 166.898 105.609 167.939 104.853 167.932C104.694 167.926 104.474 167.81 104.469 167.627C104.421 165.648 104.571 164.071 104.146 162.09C103.205 157.711 100.368 154.451 97.4253 151.274C97.4169 151.519 97.3941 151.762 97.3572 152.003C96.9767 154.52 95.9832 157.868 93.8534 159.426C93.6185 158.829 93.4888 157.941 93.3306 157.291C93.0963 156.362 92.7993 155.449 92.4415 154.56C91.7594 152.857 90.9357 151.34 90.1693 149.688C88.4975 146.086 87.2656 142.872 86.4364 138.997C86.3013 140.123 86.3507 141.547 86.3876 142.755C86.4272 144.05 86.7912 145.806 86.6654 147.127C86.6565 147.219 86.5996 147.216 86.4977 147.261C86.1047 147.113 85.6994 146.674 85.4155 146.368C80.6343 141.198 78.8003 133.792 79.4689 126.894C79.6641 124.882 80.0864 122.927 80.5062 120.974C79.2097 123.29 78.2371 126.338 77.4273 128.851C77.092 129.892 76.5526 131.211 76.3761 132.257C76.1721 131.197 75.9173 130.146 75.7728 129.084C75.1311 124.376 76.0643 119.969 77.7429 115.566C73.9655 120.556 72.3655 127.493 75.2736 133.224C75.461 133.593 75.6465 133.957 75.845 134.321C76.408 133.667 77.431 131.685 77.9235 130.82C77.7343 133.766 77.1304 136.753 77.4286 139.714C77.4759 140.184 77.6736 141.617 77.4735 141.939L77.2804 141.982C76.8991 141.861 76.7417 141.724 76.4554 141.441C73.0077 138.027 70.7415 133.053 69.7659 128.354C69.2984 126.102 69.2045 124.053 69.1647 121.792C67.6165 123.481 66.5817 125.383 65.3958 127.328C65.1219 127.777 64.1499 129.473 63.5994 129.361C63.02 128.565 62.9182 126.756 62.8425 125.758C62.4681 120.823 63.3243 116.494 64.7968 111.807C64.1003 112.482 59.5081 117.415 59.0172 117.437L58.8887 117.295C58.8225 116.906 58.8555 116.418 58.9104 116.029C59.8323 109.516 64.185 100.918 69.38 96.861C67.9004 97.3498 62.0734 98.6598 61.1545 97.3506L61.198 97.1712C61.7433 96.6804 63.2643 95.7938 63.9878 95.2705C66.3639 93.552 68.6218 91.7176 71.1787 90.2752C71.9903 89.8173 72.6816 89.3438 73.5662 89.0009C72.5436 89.0094 66.1916 88.5341 66.5409 87.2347C67.3739 86.8195 68.57 86.5172 69.4677 86.1898C70.92 85.66 72.369 85.1255 73.811 84.5676C76.6363 87.0659 79.4322 89.2157 83.3488 89.6222L82.9441 89.4014C77.3821 86.3366 71.7228 81.2101 70.0385 74.9184C68.318 68.4914 70.1457 61.1242 73.2923 55.4562C76.3735 50.0013 80.8042 45.4293 86.1598 42.1787C87.5552 41.3366 88.8081 40.6149 90.3882 40.1615Z" fill="#000100"/>
<path d="M144.34 105.2C144.419 105.365 144.718 107.509 144.81 107.928C145.403 110.635 146.312 113.42 147.662 115.848C148.455 117.291 149.57 118.405 150.638 119.615C151.674 120.787 153.654 121.692 154.268 123.033C155.088 124.826 152.397 125.774 151.432 126.833C150.665 127.675 150.297 128.251 149.798 129.323C149.869 127.395 150.305 126.697 151.179 125.028C150.723 125.113 149.562 125.481 149.057 125.648C147.281 126.235 145.668 125.38 143.93 124.729C144.127 125.147 144.347 125.763 144.466 126.193C144.787 127.352 144.628 128.033 144.036 129.014C141.86 132.619 142.039 132.645 137.935 133.638C135.815 134.151 133.341 134.686 131.298 133.523C130.18 132.887 129.571 131.852 129.275 130.646C129.55 129.786 130.087 128.94 130.525 128.139C127.909 129.501 127.318 130.776 126.245 133.407C126.027 131.842 126.819 128.366 127.537 126.914C127.803 126.377 128.884 124.649 128.856 124.323C128.626 124.298 128.629 124.362 128.379 124.524C127.003 125.436 126.05 126.383 125.033 127.66C125.548 125.557 126.429 123.562 127.637 121.765C126.029 122.531 124.97 123.5 123.668 124.673C123.722 121.623 124.73 119.368 126.599 117.002C127.129 116.331 128.063 115.11 128.454 114.381L128.503 114.287C128.809 115.385 128.943 117.139 129.017 118.289C130.375 116.302 130.735 113.799 129.994 111.509C129.284 109.355 128.813 109.345 128.542 106.794C129.991 109.011 130.875 110.158 133.515 111.042C132.473 108.787 132.262 107.963 132.484 105.52C134.856 109.22 137.828 111.795 142.154 112.947C141.367 111.087 140.655 109.069 140.525 107.052C141.643 108.807 142.397 109.581 144.079 110.7C143.775 108.665 143.761 107.163 144.34 105.2Z" fill="white"/>
<path d="M135.31 122.206C136.918 122.039 138.99 122.773 140.293 123.69C141.821 124.765 143.729 126.622 142.899 128.685C142.866 128.766 142.699 128.741 142.621 128.743C141.753 128.369 140.399 127.745 139.472 127.971C135.998 128.817 134.705 125.755 134.921 122.867C134.947 122.529 135.027 122.418 135.31 122.206Z" fill="#000100"/>
<path d="M136.997 118.056C140.074 117.888 142.927 119.946 145.661 121.048C147.343 121.725 148.471 121.611 150.085 120.884C148.666 122.438 147.705 122.906 145.587 122.592C144.277 122.271 143.27 121.795 142.076 121.186C138.414 119.322 136.218 118.719 132.219 119.988C133.967 118.757 134.824 118.24 136.997 118.056Z" fill="#000100"/>
<path d="M124.933 76.3198C128.897 75.4191 130.77 75.2135 134.788 76.2537C133.679 76.4276 132.411 76.6419 131.337 76.951C136.964 78.0156 141.62 81.224 145.488 85.3266C146.129 86.0069 146.735 86.74 147.377 87.4047C145.958 86.8504 145.098 86.6055 143.729 85.832C142.849 85.3351 141.699 84.4513 140.888 84.0454C143.062 86.2918 144.354 88.2111 145.893 90.9636C147.597 94.0129 149.433 97.9495 151.816 100.549C149.543 99.6728 147.982 98.7155 146.256 96.9437C146.19 100.665 146.39 102.634 148.036 106.063C145.369 103.636 144.626 101.574 143.977 98.1677C143.294 100.867 143.072 102.178 141.754 104.692C142.609 98.083 141.394 92.5693 136.427 87.8044C138.794 92.7686 139.114 93.9053 139.276 99.3763C138.805 97.8068 138.273 96.1059 137.554 94.6312C136.06 91.5702 133.372 88.6179 130.669 86.5607C129.335 85.5449 128.013 84.7967 126.634 83.7058C129.026 87.753 129.888 90.6997 129.668 95.4779C129.609 96.7713 129.497 98.2267 129.171 99.4846C129.151 99.56 129.131 99.6351 129.11 99.7099C127.241 91.6968 121.278 91.2023 118.958 84.3699C117.716 87.7062 117.82 89.9529 119.271 93.2929C116.595 91.2731 113.986 89.2632 112.591 86.0911C111.318 83.1951 111.548 81.2556 113.246 78.669C112.64 82.889 113.747 84.911 116.312 88.1212C115.33 84.2654 116.32 81.4277 118.567 78.2468C120.308 80.5928 121.518 81.9872 124.257 83.3129C123.808 82.2931 123.466 81.2024 123.135 80.1374C127.986 81.8473 130.379 83.1919 134.12 86.6143C132.233 83.2213 130.188 81.0779 126.796 79.1125C126.285 78.8157 125.549 78.3883 125.002 78.2051L125.025 78.1569C125.654 78.1914 126.223 78.3971 126.828 78.5175C129.687 79.086 133.258 80.3278 135.696 81.9712L135.985 81.8046C133.241 78.7133 129.039 76.7073 124.933 76.3198Z" fill="white"/>
<path d="M135.985 81.8046L136.827 82.7243L135.696 81.9712L135.985 81.8046Z" fill="#000100"/>
<path d="M86.5112 44.1505C86.5152 44.1701 86.5516 44.3051 86.5447 44.3174C82.9828 50.6694 80.3215 58.0685 81.356 65.451C81.7544 68.2942 83.1054 71.8841 84.8794 74.1762C88.3618 78.6761 94.0034 81.2859 99.5622 82.0004C101.099 82.1979 102.732 82.211 104.273 82.2051C102.071 83.4931 100.8 83.6616 98.3072 83.6394C100.496 84.4638 103.072 84.4034 105.347 84.0597C102.716 85.2596 101.293 85.6355 98.4607 85.5042C101.354 86.6644 103.194 86.2754 106.017 86.2355C100.639 87.8955 96.7909 87.2099 91.6141 85.4089C91.4149 85.3349 91.2169 85.2579 91.0201 85.1778C85.2736 82.8398 80.7133 79.1392 78.2491 73.3354C78.571 75.6874 79.5929 77.879 80.6972 79.9417C76.7989 76.1472 75.2357 70.9907 75.4463 65.6655C75.6483 60.5554 77.2697 56.5991 79.793 52.2308C77.8193 54.0015 76.1896 56.3411 75.0196 58.7008C74.6321 59.4821 74.3285 60.2855 73.9164 61.05L73.9376 60.9489C75.6106 53.2244 80.0168 48.3158 86.5112 44.1505Z" fill="white"/>
<path d="M162.138 56.7993C166.639 61.7803 169.823 68.5253 169.642 75.382C169.408 84.1763 162.928 90.2281 154.797 92.5475L154.494 92.3803C157.145 91.4337 158.867 90.2794 161.098 88.568C160.235 88.8205 159.429 89.4068 158.605 89.7757C156.283 90.8161 153.804 91.4677 151.275 91.7428C150.752 91.7996 150.113 91.864 149.609 91.9583C149.128 91.1963 148.636 90.4422 148.131 89.6961C148.979 90.0202 150.966 90.7042 151.971 90.5494C152.138 90.5236 152.17 90.3531 152.206 90.2306C152.029 89.4327 150.503 88.127 149.931 87.3672C149.488 86.78 149.224 86.4901 148.806 85.802C154.303 84.6413 157.747 82.2781 160.972 77.6157C164.298 72.8089 164.259 66.2637 163.066 60.6862C162.778 59.3857 162.469 58.0898 162.138 56.7993Z" fill="white"/>
<path d="M166.724 72.5757L166.806 72.6427C167.128 73.2796 167.154 76.4787 167.119 77.2186C166.929 81.1426 164.295 83.3393 161.511 85.7476C161.43 85.829 161.483 85.7927 161.341 85.836C161.366 85.6787 162.374 84.1973 162.556 83.8966C165.241 79.4572 166.283 77.7775 166.724 72.5757Z" fill="#000100"/>
<path d="M88.1591 90.1586C92.1247 90.2007 95.7817 91.9379 99.3697 93.4698C96.328 93.5323 93.2373 92.6906 90.2663 92.7078C86.4908 92.7297 83.3691 93.9697 80.7464 96.6668C82.2088 96.6642 84.7802 96.8444 86.1451 97.2919C85.5005 97.8861 84.35 98.5633 83.5771 99.0595C85.1287 99.3686 86.4378 99.6164 87.946 100.073C87.5141 100.363 87.2205 100.611 86.8208 100.947C87.7755 101.451 88.5572 101.645 89.5792 101.967C90.0063 102.498 90.1322 102.72 90.6918 103.103C90.9032 103.206 91.1177 103.302 91.335 103.391C93.2942 104.182 95.466 103.315 97.2999 102.555C91.555 108.147 84.7831 103.898 79.6863 99.8448C80.4669 99.4794 81.3876 98.9733 82.1663 98.5722C80.8425 98.4076 78.9793 98.3619 77.8002 97.7583C76.8075 97.2502 79.0819 94.8588 79.5566 94.2932C81.8937 91.5079 84.5498 90.3729 88.1591 90.1586Z" fill="white"/>
<path d="M104.711 102.255L104.794 102.394C104.408 105.296 104.348 107.372 104.753 110.272C104.996 112.009 104.582 114.182 104.118 115.888C106.796 113.445 107.694 111.431 108.637 108.031C108.795 108.863 108.938 109.987 108.844 110.821C108.46 114.214 107.158 116.191 108.171 119.716C108.91 118.983 109.464 118.052 110.131 117.248C110.852 116.381 111.61 115.617 112.332 114.744C110.687 118.786 109.75 122.491 110.369 126.892C110.538 128.099 110.701 129.061 111.135 130.224C109.084 128.028 108.327 126.195 107.801 123.239C107.706 122.238 107.454 120.988 107.254 120.006C105.977 123.276 105.864 124.91 106.375 128.432C106.038 127.964 105.716 127.521 105.421 127.026C102.964 122.901 105.8 119.195 106.776 115.284C104.489 117.288 103.508 118.824 100.316 119.639C102.51 116.901 103.047 113.44 103.09 110.047C101.839 111.989 101.249 112.683 99.4866 114.173C100.006 112.994 100.76 111.652 101.213 110.473C102.331 107.563 103.287 105.052 104.711 102.255Z" fill="white"/>
<path d="M95.2078 108.273C95.1955 108.434 94.4739 110.023 94.3284 110.352C93.7358 111.691 93.4694 113.021 93.003 114.385C94.2142 113.16 95.4727 111.983 96.7758 110.857C94.5068 115.126 94.234 120.495 95.5788 125.079C95.7641 125.711 95.9755 126.569 96.3156 127.114L96.4235 127.089C96.5924 124.588 97.4378 122.457 98.5562 120.265C98.2722 123.795 98.0178 125.882 98.0431 129.493C98.1191 130.906 98.2352 132.464 98.2092 133.868C93.2943 128.112 91.7453 122.888 94.0874 115.443C93.4725 116.091 90.7931 119.77 90.1851 119.434C90.0465 118.997 90.4021 117.714 90.4956 117.224C91.1914 113.583 92.6348 110.931 95.2078 108.273Z" fill="white"/>
<path d="M143.249 135.725C143.299 135.718 143.348 135.712 143.398 135.708C145.092 135.551 146.31 135.978 147.59 137.045C147.541 137.241 147.49 137.436 147.436 137.631C146.727 140.187 144.843 141.55 142.618 142.817C143.165 141.943 143.352 141.412 143.558 140.413C142.784 140.535 141.796 140.914 141.037 141.191C139.645 141.699 138.775 141.961 137.308 142.144C137.869 141.702 138.471 141.115 139.002 140.621C138.178 140.841 137.569 140.976 136.73 141.129C136.188 141.141 135.819 141.179 135.279 141.247C135.601 141.001 136.356 140.504 136.385 140.109C135.999 140.015 134.9 140.148 134.33 140.115C133.445 140.062 132.873 139.962 132.004 139.812C133.509 139.486 133.613 139.561 135.145 138.811C133.171 138.758 131.508 138.696 130.712 136.615C134.387 138.441 139.215 136.167 143.249 135.725Z" fill="white"/>
<path d="M71.7946 102.979C71.7952 103.054 70.7437 105.737 70.6091 106.087C69.6079 108.689 69.6948 111.141 69.3752 113.831C70.1873 112.934 70.9205 112.005 71.7656 111.108C73.3575 109.417 74.9278 108.13 76.7626 106.731C75.3449 108.954 74.2087 110.668 72.5903 112.774C70.4771 115.368 68.5844 118.156 66.4485 120.651C66.4037 118.93 66.3474 117.28 66.5051 115.562C66.9288 110.945 68.6798 106.443 71.7946 102.979Z" fill="white"/>
<path d="M118.633 122.809C118.787 123.002 118.39 125.004 118.333 125.404C117.759 129.447 118.543 131.433 119.487 135.088C120.439 131.587 120.564 130.067 122.461 126.732C121.805 129.504 121.677 132.14 122.397 134.912C122.789 136.234 123.121 137.067 123.714 138.305C122.164 137.008 121.681 136.495 120.659 134.716C120.204 135.72 120.014 136.806 119.495 137.754C115.807 132.462 115.831 128.45 118.633 122.809Z" fill="white"/>
<path d="M110.464 100.082C111.073 100.281 111.686 100.469 112.303 100.643C112.422 102.988 112.996 104.609 115.711 104.96C117.127 105.143 118.104 104.446 119.159 103.577C120.381 104.534 120.722 105.362 121.249 106.78C121.324 107.111 121.44 107.486 121.533 107.817C119.705 107.224 118.648 107.319 116.783 107.364C115.174 107.402 113.243 107.067 112.08 105.861C110.428 104.147 110.447 102.268 110.464 100.082Z" fill="white"/>
<path d="M101.183 131.27C101.264 131.343 101.304 131.412 101.318 131.527C101.458 132.754 101.646 133.981 102.028 135.161C102.524 136.696 103.55 137.962 104.374 139.333C104.257 136.975 104.241 135.865 104.831 133.557C105.109 135.832 104.681 136.394 105.654 138.993C106.197 140.345 106.879 141.443 107.731 142.616C105.53 141.764 104.182 141.044 102.689 139.09C101.203 137.145 100.781 133.661 101.183 131.27Z" fill="white"/>
<path d="M152.474 128.83C153.41 128.795 153.67 128.917 154.563 129.225C154.065 131.26 152.554 132.964 150.859 134.122L150.076 134.512C149.719 134.421 149.328 134.34 149.105 134.048C149.159 133.592 149.512 133.22 149.651 132.798C150.207 131.115 150.424 129.26 152.474 128.83Z" fill="white"/>
<path d="M132.03 91.4505C132.151 91.5113 132.156 91.5156 132.248 91.6139C135.187 94.7482 134.285 99.0882 134.063 102.977L133.991 103.105L133.898 103.093C132.083 100.007 132.493 99.1196 132.481 95.8096C132.484 94.3448 132.332 92.8838 132.03 91.4505Z" fill="white"/>
<path d="M99.6345 146.311C99.6855 146.345 99.7341 146.375 99.7763 146.42C102.339 149.183 104.307 153.691 104.59 157.375C104.381 157.227 103.823 156.163 103.664 155.864C101.987 152.708 100.463 149.802 99.6345 146.311Z" fill="white"/>
<path d="M122.32 146.779L122.419 146.894C122.474 147.333 122.364 148.332 122.312 148.803C121.937 152.146 119.664 155.033 117.114 157.077C117.549 156.034 117.961 155.185 118.373 154.099C118.963 152.483 118.912 150.405 118.94 148.673C119.477 150.269 119.737 151.525 119.538 153.203C121.251 150.726 121.638 149.717 122.32 146.779Z" fill="white"/>
<path d="M121.359 91.6365C122.183 92.2448 123.224 93.2329 123.873 94.0118C126.28 96.9007 126.517 99.3174 126.247 102.855L126.123 102.833C125.45 99.4874 125.032 98.0973 123.194 95.1434C122.756 94.4403 121.601 92.3998 121.359 91.6365Z" fill="white"/>
<path d="M100.541 95.3798L100.613 95.4511C100.589 95.6978 99.929 96.5907 99.7313 97.0003C99.2733 97.9487 99.0314 98.6258 98.7798 99.6484C99.4796 98.6542 99.9421 98.0552 100.738 97.1563C99.8999 99.3688 99.6407 100.208 99.1801 102.574C99.0716 102.999 99.0209 103.419 98.9589 103.852C98.5249 102.781 98.1348 101.929 97.8852 100.781C97.461 100.854 97.0283 100.919 96.6027 100.986C97.6561 98.633 98.7655 97.2004 100.541 95.3798Z" fill="white"/>
<path d="M126.151 152.865L126.228 153.002C125.802 155.912 122.426 160.263 120.398 162.501C120.214 162.333 120.343 161.868 120.413 161.642C121.455 158.234 124.344 155.843 126.151 152.865Z" fill="white"/>
<path d="M90.4271 128.298C90.4842 128.342 90.5738 128.414 90.5804 128.497C90.7435 130.512 91.1233 132.526 91.7152 134.458C92.0219 135.458 93.9282 139.366 93.3071 140.19C90.5212 136.32 89.8267 132.988 90.4271 128.298Z" fill="white"/>
<path d="M85.6056 116.482C85.7158 116.916 85.6001 118.065 85.5481 118.519C85.477 119.129 85.3693 119.734 85.2257 120.331C84.9026 121.7 84.4305 123.126 84.0718 124.495C83.9301 125.037 83.3686 127.604 83.0988 127.816C82.3238 123.598 84.2303 120.237 85.6056 116.482Z" fill="white"/>
<path d="M133.481 149.739C133.56 150.086 133.512 151.052 133.504 151.453C133.441 154.463 132.496 156.355 130.95 158.829C131.275 157.379 131.343 155.99 131.371 154.51C131.33 152.865 130.941 151.167 130.438 149.608C131.443 150.962 132.065 152.361 132.324 154.02C132.639 152.832 133.13 150.778 133.481 149.739Z" fill="white"/>
<path d="M113.415 97.9845C114.873 97.7419 116.472 98.1139 117.671 98.9705C118.633 99.6574 119.144 100.551 119.715 101.547L118.781 100.852C117.894 100.299 116.754 99.7259 115.735 99.4812C113.97 99.0572 113.526 99.3684 111.99 98.2712C112.526 98.1329 112.867 98.0678 113.415 97.9845Z" fill="white"/>
<path d="M106.657 76.2452C107.383 76.1976 108.082 76.2231 108.808 76.239C107.874 76.5729 106.907 76.8398 105.985 77.1921C104.64 77.7059 103.295 78.297 101.971 78.8678L100.381 79.4685C101.98 77.6262 104.228 76.4716 106.657 76.2452Z" fill="white"/>
<path d="M136.034 100.012C136.324 102.064 136.469 103.288 137.192 105.301C137.376 105.811 138.359 108.28 138.41 108.542L138.308 108.541C136.945 106.995 135.841 105.546 135.692 103.399C135.621 102.379 135.678 100.972 136.034 100.012Z" fill="white"/>
<path d="M123.647 114.321C123.722 114.556 123.629 115.253 123.589 115.52C123.252 117.782 121.282 119.121 119.347 119.854C119.284 119.636 119.818 119.243 120.002 119.078C121.557 117.68 122.693 116.169 123.647 114.321Z" fill="white"/>
<path d="M115.25 144.844C115.572 145.131 115.684 145.815 115.706 146.245C115.807 148.138 114.716 149.496 113.525 150.816L113.379 150.895C113.37 150.623 114.022 149.401 114.167 149.026C114.721 147.596 115.091 146.384 115.25 144.844Z" fill="white"/>
<path d="M110.57 88.2761C110.645 88.4847 110.36 89.8346 110.293 90.1535C109.997 91.5637 110.221 92.5393 110.24 93.8069L110.173 93.8188L110.032 93.5629C109.063 91.3242 108.742 90.1819 110.57 88.2761Z" fill="white"/>
<path d="M114.298 100.655C114.676 100.534 115.084 100.726 115.23 101.095C115.377 101.463 115.213 101.883 114.855 102.054C114.601 102.176 114.3 102.146 114.075 101.976C113.85 101.806 113.739 101.526 113.785 101.248C113.832 100.97 114.03 100.742 114.298 100.655Z" fill="white"/>
<path d="M154.798 92.5475C154.458 92.6398 153.927 92.8069 153.602 92.6913C153.782 92.5205 154.231 92.4465 154.495 92.3803L154.798 92.5475Z" fill="#BCBCBB"/>
</svg>
