<svg width="196" height="68" viewBox="0 0 196 68" fill="none" xmlns="http://www.w3.org/2000/svg">
<path d="M103.054 35.5804C103.169 35.5419 103.342 35.5227 103.573 35.5227C104.227 35.5227 104.554 35.9457 104.554 36.7918C104.554 37.2532 104.448 37.6474 104.236 37.9743C104.044 38.2819 103.736 38.4742 103.313 38.5511C101.564 38.878 99.8427 39.2433 98.1507 39.6471L98.0642 40.3393C97.5258 44.1272 96.449 46.9248 94.8339 48.7322C93.238 50.5589 91.2383 51.4722 88.8348 51.4722C87.2389 51.4722 85.9987 51.078 85.1142 50.2897C84.249 49.5206 83.8164 48.5303 83.8164 47.319C83.8164 45.3001 84.7201 43.5023 86.5275 41.9256C88.3349 40.3489 91.0749 38.9549 94.7474 37.7435L95.3242 33.6769C95.4011 33.2154 95.4972 32.6001 95.6126 31.831C94.7089 34.2152 93.5552 35.9938 92.1516 37.1667C90.748 38.3396 89.1809 38.926 87.4504 38.926C85.7968 38.926 84.5374 38.4261 83.6722 37.4263C82.8069 36.4072 82.3743 35.0997 82.3743 33.5038C82.3743 32.7924 82.4512 32.0136 82.605 31.1676C82.7588 30.3024 82.9992 29.1391 83.326 27.6778C83.6145 26.3511 83.826 25.2935 83.9606 24.5052C84.1144 23.7169 84.1913 23.015 84.1913 22.3997C84.1913 21.4768 83.8356 21.0153 83.1242 21.0153C82.5666 21.0153 81.9032 21.2942 81.1341 21.8518C80.3842 22.3901 79.5862 23.2265 78.7402 24.361C78.471 24.7263 78.173 24.909 77.8461 24.909C77.5769 24.909 77.3366 24.784 77.1251 24.534C76.9328 24.2648 76.8367 23.9668 76.8367 23.6399C76.8367 23.0439 77.1059 22.3709 77.6442 21.621C79.6055 18.9291 81.9032 17.5832 84.5374 17.5832C85.7103 17.5832 86.6236 17.9389 87.2774 18.6503C87.9503 19.3618 88.2868 20.4097 88.2868 21.7941C88.2868 22.7939 88.1907 23.8226 87.9984 24.8801C87.8254 25.9184 87.5562 27.2452 87.1908 28.8603C86.9601 29.8217 86.7871 30.6004 86.6717 31.1965C86.5563 31.7733 86.4986 32.254 86.4986 32.6386C86.4986 33.6192 86.6717 34.321 87.0178 34.744C87.3639 35.167 87.9696 35.3785 88.8348 35.3785C89.8731 35.3785 90.9306 34.8113 92.0074 33.6769C93.1034 32.5232 94.084 30.7831 94.9493 28.4565C95.8337 26.1299 96.4682 23.2842 96.8528 19.9194C96.9489 19.0733 97.1701 18.4773 97.5162 18.1312C97.8623 17.7658 98.3622 17.5832 99.0159 17.5832C100.362 17.5832 101.035 18.2562 101.035 19.6021C101.035 19.8328 101.025 20.0155 101.006 20.1501C100.602 23.015 100.227 25.6012 99.8812 27.9085C99.6889 29.2929 99.4774 30.7158 99.2467 32.1771C99.0352 33.6384 98.8237 35.1189 98.6121 36.6187C100.016 36.2342 101.496 35.8881 103.054 35.5804ZM94.3147 40.7719C89.6616 42.387 87.335 44.3483 87.335 46.6556C87.335 47.194 87.4985 47.6362 87.8254 47.9823C88.1715 48.3477 88.6521 48.5303 89.2674 48.5303C91.9401 48.5303 93.6129 46.0115 94.2859 40.9738L94.3147 40.7719Z" fill="white"/>
<path d="M106.048 42.1852C104.856 42.1852 103.904 41.7525 103.193 40.8873C102.481 40.022 102.126 38.8876 102.126 37.484C102.126 35.9457 102.481 34.494 103.193 33.1289C103.904 31.7445 104.846 30.6389 106.019 29.8121C107.211 28.966 108.471 28.543 109.798 28.543C110.221 28.543 110.499 28.6296 110.634 28.8026C110.788 28.9564 110.913 29.2448 111.009 29.6679C111.413 29.5909 111.836 29.5525 112.278 29.5525C113.22 29.5525 113.691 29.889 113.691 30.5619C113.691 30.9657 113.547 31.9271 113.259 33.4461C112.816 35.6573 112.595 37.1955 112.595 38.0608C112.595 38.3492 112.662 38.5799 112.797 38.753C112.951 38.926 113.143 39.0126 113.374 39.0126C113.739 39.0126 114.181 38.7818 114.701 38.3204C115.22 37.8397 115.922 37.0706 116.806 36.013C117.037 35.7438 117.296 35.6092 117.585 35.6092C117.835 35.6092 118.027 35.7246 118.162 35.9553C118.315 36.1861 118.392 36.5033 118.392 36.9071C118.392 37.6762 118.21 38.2723 117.844 38.6953C117.056 39.6759 116.22 40.5027 115.335 41.1757C114.451 41.8487 113.595 42.1852 112.768 42.1852C112.134 42.1852 111.547 41.9736 111.009 41.5506C110.49 41.1084 110.096 40.5123 109.826 39.7625C108.827 41.3776 107.567 42.1852 106.048 42.1852ZM107.086 39.2721C107.509 39.2721 107.913 39.0222 108.298 38.5223C108.682 38.0223 108.961 37.359 109.134 36.5322L110.201 31.2253C109.394 31.2445 108.644 31.5522 107.952 32.1482C107.279 32.7251 106.74 33.4942 106.337 34.4556C105.933 35.417 105.731 36.436 105.731 37.5128C105.731 38.1089 105.846 38.5511 106.077 38.8395C106.327 39.1279 106.663 39.2721 107.086 39.2721Z" fill="white"/>
<path d="M128.306 39.0414C129.094 39.1952 129.489 39.6279 129.489 40.3393C129.489 40.82 129.267 41.2526 128.825 41.6372C128.402 42.0025 127.787 42.1852 126.979 42.1852C125.595 42.1852 124.46 41.7621 123.576 40.9161C122.711 40.0509 122.278 38.926 122.278 37.5416C122.278 36.7918 122.663 36.2534 123.432 35.9265C124.278 35.5612 124.883 35.1766 125.249 34.7728C125.614 34.3498 125.797 33.8403 125.797 33.2442C125.797 32.8981 125.72 32.6386 125.566 32.4655C125.431 32.2925 125.258 32.2059 125.047 32.2059C124.528 32.2059 123.951 32.5809 123.316 33.3308C122.701 34.0806 122.124 35.0516 121.586 36.2438C121.048 37.4167 120.625 38.628 120.317 39.8778C120.105 40.7815 119.855 41.3968 119.567 41.7237C119.298 42.0313 118.865 42.1852 118.269 42.1852C117.673 42.1852 117.231 41.9736 116.942 41.5506C116.673 41.1084 116.491 40.4354 116.394 39.5317C116.298 38.628 116.25 37.3013 116.25 35.5516C116.25 32.5905 116.548 29.5044 117.144 26.2934C117.76 23.0823 118.654 20.3904 119.827 18.2177C121.019 16.0257 122.442 14.9297 124.095 14.9297C124.98 14.9297 125.691 15.3143 126.229 16.0834C126.787 16.8333 127.066 17.8139 127.066 19.0253C127.066 20.9673 126.499 22.9862 125.364 25.082C124.23 27.1586 122.384 29.5909 119.827 32.379C119.769 33.3788 119.74 34.4075 119.74 35.465C120.663 33.0616 121.72 31.3214 122.913 30.2447C124.105 29.1487 125.22 28.6007 126.258 28.6007C127.22 28.6007 127.989 28.9276 128.566 29.5813C129.162 30.2351 129.46 31.0426 129.46 32.004C129.46 33.0616 129.19 34.0326 128.652 34.917C128.114 35.8015 127.191 36.5899 125.883 37.2821C125.999 37.8589 126.229 38.2627 126.576 38.4934C126.941 38.7049 127.518 38.8876 128.306 39.0414ZM123.489 17.7851C123.143 17.7851 122.759 18.285 122.336 19.2848C121.913 20.2655 121.499 21.6018 121.096 23.2938C120.711 24.9667 120.394 26.7933 120.144 28.7738C121.336 27.3701 122.317 25.8415 123.086 24.1879C123.874 22.5343 124.268 21.0346 124.268 19.6886C124.268 19.0733 124.201 18.6023 124.066 18.2754C123.932 17.9485 123.739 17.7851 123.489 17.7851Z" fill="white"/>
<path d="M159.661 35.6092C159.911 35.6092 160.103 35.7246 160.238 35.9553C160.391 36.1861 160.468 36.5033 160.468 36.9071C160.468 37.657 160.286 38.2531 159.92 38.6953C158.844 39.9836 157.796 40.8873 156.777 41.4064C155.777 41.9256 154.565 42.1852 153.143 42.1852C152.143 42.1852 151.22 42.0602 150.374 41.8102C149.528 41.5602 148.499 41.1853 147.288 40.6854C146.192 40.2047 145.134 39.8105 144.115 39.5029C143.134 41.2911 141.664 42.1852 139.702 42.1852C138.626 42.1852 137.77 41.9448 137.135 41.4641C136.482 40.9642 136.155 40.3297 136.155 39.5606C136.155 38.6184 136.607 37.8397 137.51 37.2244C138.414 36.5899 139.616 36.2726 141.116 36.2726H141.49L142.01 27.8797C142.125 25.9569 142.471 24.3706 143.048 23.1208C143.625 21.871 144.423 20.8038 145.442 19.9194C146.326 19.1503 147.336 18.5734 148.47 18.1889C149.605 17.7851 150.806 17.5832 152.075 17.5832C154.152 17.5832 155.748 18.1216 156.863 19.1983C157.978 20.2751 158.536 21.6787 158.536 23.4092C158.536 24.5821 158.324 25.5339 157.901 26.2645C157.478 26.976 156.892 27.3317 156.142 27.3317C155.604 27.3317 155.181 27.2067 154.873 26.9567C154.565 26.6875 154.412 26.3126 154.412 25.8319C154.412 25.6589 154.45 25.3416 154.527 24.8801C154.642 24.3418 154.7 23.8611 154.7 23.4381C154.7 22.6305 154.46 21.996 153.979 21.5345C153.517 21.0538 152.806 20.8135 151.845 20.8135C150.153 20.8135 148.845 21.3711 147.922 22.4863C146.999 23.5823 146.413 25.3128 146.163 27.6778L145.499 34.2248C145.403 35.1478 145.278 35.9457 145.125 36.6187C146.355 36.8302 147.893 37.1667 149.739 37.6282C150.816 37.8974 151.643 38.0896 152.22 38.205C152.796 38.3204 153.306 38.378 153.748 38.378C154.863 38.378 155.815 38.1954 156.604 37.8301C157.411 37.4455 158.171 36.8398 158.882 36.013C159.113 35.7438 159.372 35.6092 159.661 35.6092Z" fill="white"/>
<path d="M161.675 42.1852C160.483 42.1852 159.532 41.7525 158.82 40.8873C158.109 40.022 157.753 38.8876 157.753 37.484C157.753 35.9457 158.109 34.494 158.82 33.1289C159.532 31.7445 160.474 30.6389 161.647 29.8121C162.839 28.966 164.098 28.543 165.425 28.543C165.848 28.543 166.127 28.6296 166.261 28.8026C166.415 28.9564 166.54 29.2448 166.636 29.6679C167.04 29.5909 167.463 29.5525 167.905 29.5525C168.847 29.5525 169.318 29.889 169.318 30.5619C169.318 30.9657 169.174 31.9271 168.886 33.4461C168.444 35.6573 168.222 37.1955 168.222 38.0608C168.222 38.3492 168.29 38.5799 168.424 38.753C168.578 38.926 168.77 39.0126 169.001 39.0126C169.367 39.0126 169.809 38.7818 170.328 38.3204C170.847 37.8397 171.549 37.0706 172.433 36.013C172.664 35.7438 172.924 35.6092 173.212 35.6092C173.462 35.6092 173.654 35.7246 173.789 35.9553C173.943 36.1861 174.02 36.5033 174.02 36.9071C174.02 37.6762 173.837 38.2723 173.472 38.6953C172.683 39.6759 171.847 40.5027 170.962 41.1757C170.078 41.8487 169.222 42.1852 168.396 42.1852C167.761 42.1852 167.175 41.9736 166.636 41.5506C166.117 41.1084 165.723 40.5123 165.454 39.7625C164.454 41.3776 163.194 42.1852 161.675 42.1852ZM162.714 39.2721C163.137 39.2721 163.54 39.0222 163.925 38.5223C164.31 38.0223 164.588 37.359 164.761 36.5322L165.829 31.2253C165.021 31.2445 164.271 31.5522 163.579 32.1482C162.906 32.7251 162.368 33.4942 161.964 34.4556C161.56 35.417 161.358 36.436 161.358 37.5128C161.358 38.1089 161.474 38.5511 161.704 38.8395C161.954 39.1279 162.291 39.2721 162.714 39.2721Z" fill="white"/>
<path d="M177.386 42.1852C175.463 42.1852 174.06 41.4449 173.175 39.9643C172.31 38.4838 171.877 36.3399 171.877 33.5326C171.877 31.0523 172.185 28.3604 172.8 25.457C173.416 22.5343 174.31 20.054 175.483 18.0158C176.675 15.9584 178.088 14.9297 179.722 14.9297C180.607 14.9297 181.318 15.3143 181.857 16.0834C182.395 16.8333 182.664 17.8139 182.664 19.0253C182.664 20.6019 182.366 22.169 181.77 23.7265C181.174 25.2839 180.184 26.9183 178.799 28.6296C179.742 28.7065 180.559 29.0237 181.251 29.5813C181.962 30.1389 182.501 30.86 182.866 31.7445C183.251 32.6289 183.443 33.5903 183.443 34.6286C183.443 36.0707 183.155 37.3686 182.578 38.5223C182.02 39.6759 181.28 40.5796 180.357 41.2334C179.434 41.8679 178.444 42.1852 177.386 42.1852ZM175.685 30.5908C176.954 28.2642 177.963 26.2165 178.713 24.4475C179.482 22.6593 179.867 21.073 179.867 19.6886C179.867 19.0733 179.79 18.6023 179.636 18.2754C179.501 17.9485 179.309 17.7851 179.059 17.7851C178.674 17.7851 178.251 18.3619 177.79 19.5156C177.348 20.65 176.934 22.1979 176.55 24.1591C176.165 26.1203 175.877 28.2642 175.685 30.5908ZM177.502 39.0703C178.155 39.0703 178.703 38.7145 179.146 38.0031C179.607 37.2917 179.838 36.2534 179.838 34.8882C179.838 33.8307 179.645 33.0327 179.261 32.4943C178.876 31.956 178.415 31.6868 177.877 31.6868C177.204 31.6868 176.636 32.0329 176.175 32.7251C175.713 33.4173 175.483 34.4267 175.483 35.7535C175.483 36.9071 175.675 37.7531 176.06 38.2915C176.444 38.8107 176.925 39.0703 177.502 39.0703Z" fill="white"/>
<path d="M190.588 42.8197C189.588 42.8197 188.819 42.5889 188.281 42.1275C187.761 41.666 187.502 41.1469 187.502 40.57C187.502 40.0701 187.684 39.6375 188.05 39.2721C188.415 38.9068 188.953 38.7242 189.665 38.7242C189.915 38.7242 190.203 38.753 190.53 38.8107C190.876 38.8491 191.136 38.878 191.309 38.8972C191.29 38.3973 191.174 37.9262 190.963 37.484C190.771 37.0417 190.521 36.6187 190.213 36.2149C189.905 35.7919 189.617 35.4266 189.348 35.1189C188.752 36.2534 188.156 37.1955 187.559 37.9454C186.983 38.6953 186.348 39.4067 185.656 40.0797C185.31 40.4258 184.944 40.5989 184.56 40.5989C184.252 40.5989 184.002 40.4931 183.81 40.2816C183.618 40.0509 183.522 39.7721 183.522 39.4452C183.522 39.0606 183.656 38.7049 183.925 38.378L184.3 37.9166C185.358 36.6091 186.156 35.5323 186.694 34.6863C187.04 34.1287 187.386 33.4653 187.733 32.6962C188.098 31.9271 188.569 30.8792 189.146 29.5525C189.511 28.7065 190.271 28.2835 191.424 28.2835C191.963 28.2835 192.338 28.3315 192.549 28.4277C192.761 28.5238 192.866 28.6776 192.866 28.8891C192.866 29.0045 192.828 29.1872 192.751 29.4371C192.674 29.6871 192.568 29.937 192.434 30.187C192.088 30.8792 191.915 31.4657 191.915 31.9464C191.915 32.2348 192.011 32.552 192.203 32.8981C192.414 33.2442 192.732 33.6769 193.155 34.196C193.77 35.0036 194.232 35.6958 194.539 36.2726C194.866 36.8302 195.029 37.4455 195.029 38.1185C195.029 38.926 194.837 39.6952 194.453 40.4258C194.087 41.1372 193.568 41.7141 192.895 42.1563C192.222 42.5986 191.453 42.8197 190.588 42.8197Z" fill="white"/>
<path d="M17.4925 0.501978L17.5204 0.888694C17.5335 1.06961 17.4925 1.22532 17.4686 1.3053C17.4401 1.40102 17.4028 1.49326 17.3673 1.57292C17.296 1.73279 17.2039 1.904 17.1179 2.05635C17.0305 2.2111 16.9382 2.36595 16.8642 2.49071C16.783 2.62767 16.7349 2.71003 16.7138 2.75161C15.6028 4.93092 14.5383 7.48721 14.1645 10.0036C13.7923 12.5094 14.1138 14.8965 15.6703 16.8585C15.9127 17.164 16.1627 17.4256 16.4458 17.6984C16.7491 17.5461 17.0613 17.404 17.2268 17.3256C18.1713 16.8781 19.0472 16.5466 19.9355 16.3141C19.9209 16.3081 19.9063 16.3022 19.892 16.2961C19.7937 16.2539 19.6781 16.1988 19.5712 16.129C19.5023 16.084 19.2714 15.9321 19.1599 15.6435L19.0187 15.2782L19.2144 14.9391C19.4642 14.5062 19.9253 14.3795 20.033 14.346C22.2464 13.6592 24.5941 13.6266 26.8174 14.2912C26.806 14.2622 26.7949 14.2314 26.7858 14.1988L26.6846 13.8367L27.0862 13.235L27.3189 13.1402C27.5371 13.0513 27.7629 13.0364 27.9152 13.035C28.0839 13.0334 28.2561 13.0489 28.4097 13.0692C28.7169 13.1097 29.0175 13.1788 29.1988 13.2281C30.8179 13.6687 32.278 14.4397 33.382 15.7033C33.4593 15.568 33.5744 15.3772 33.6888 15.2352C33.7903 15.1093 33.9632 14.9223 34.2154 14.8068C34.4968 14.6779 34.8355 14.6597 35.1565 14.8151L35.2204 14.8485L35.3909 14.9441L35.4996 15.1064C35.6524 15.3345 35.7251 15.5959 35.7654 15.7952C35.8058 15.9946 35.827 16.2046 35.8386 16.4011C37.3561 16.0924 39.1093 16.1594 40.4532 16.5997C40.7322 16.6911 41.2795 16.8735 41.7962 17.0997C42.0533 17.2123 42.3248 17.3452 42.56 17.4939C42.7652 17.6237 43.0656 17.8394 43.2361 18.1571L43.3995 18.4613L43.2956 18.7906L43.277 18.849L43.1469 19.2611L42.8542 19.3495C43.8933 20.0119 44.796 20.8391 45.618 21.7723C46.1351 21.6498 46.5126 21.574 46.9806 21.3691C49.446 20.2901 50.607 18.4183 51.0288 16.2016C51.446 14.0091 51.132 11.489 50.5543 9.14144L50.4977 8.91491C50.4552 8.74782 50.299 8.30823 50.1266 7.77635C50.0478 7.53291 49.9687 7.27861 49.9142 7.06671C49.8874 6.96263 49.8615 6.84955 49.8459 6.74394C49.8382 6.69167 49.8304 6.62329 49.8298 6.5489C49.8293 6.49355 49.8304 6.34491 49.8974 6.18073L50.0704 5.75709L50.5217 5.68243C50.7644 5.64229 50.9758 5.69317 51.1137 5.7427C51.2401 5.78812 51.3534 5.84974 51.4478 5.91487L51.4871 5.94301L51.4876 5.94333C54.2164 7.96721 56.5406 11.1763 57.7247 14.6648C58.9095 18.1549 58.9838 22.03 57.0357 25.2989C56.1335 26.8128 54.662 28.0863 53.0757 29.0642C51.8465 29.822 50.513 30.4241 49.2493 30.8335C49.4765 31.1468 49.7218 31.4563 49.9713 31.7559L50.0878 31.8919C50.2037 32.0243 50.3211 32.1505 50.4675 32.3165C50.6464 32.5196 50.8426 32.7549 51.015 33.0263L51.2315 33.3672L51.0689 33.8121L50.9725 34.0754L50.7351 34.2244C50.3595 34.46 49.9166 34.4767 49.6023 34.4581C49.39 34.4455 49.1701 34.4117 48.9547 34.3663C49.0603 34.6707 49.1392 34.9822 49.1622 35.2712C49.1812 35.5102 49.172 35.8422 49.0066 36.1501C48.8083 36.5194 48.453 36.7309 48.0505 36.7629C47.9946 36.7673 47.9387 36.768 47.8831 36.7659C47.8973 36.9351 47.8939 37.1057 47.8633 37.2697C47.8207 37.4973 47.7094 37.7936 47.4335 38.0122C47.3429 38.084 47.2474 38.1373 47.1504 38.1755C47.4788 38.6686 47.8565 39.11 48.3688 39.5776L48.4701 39.6689L48.4704 39.6692C48.7167 39.8885 49.1795 40.2815 49.5797 40.7073C49.7821 40.9225 49.9881 41.1662 50.1548 41.4238C50.3156 41.6723 50.4775 41.9909 50.5226 42.3489L50.534 42.4448C50.7547 44.4656 49.9509 46.8357 49.0113 48.4472L49.0063 48.4556L49.0012 48.4638C48.5647 49.1731 47.9516 49.7655 47.1515 50.0799C46.6354 52.5723 44.3697 53.8723 42.3457 54.4808C42.3168 54.6367 42.2974 54.7792 42.2924 54.9168C42.2835 55.1634 42.3254 55.331 42.4131 55.4664L42.4272 55.4849C42.4412 55.5031 42.4564 55.5221 42.4811 55.5529C42.5228 55.605 42.5944 55.694 42.6584 55.7938C42.7501 55.9369 43.0618 56.4631 42.7129 57.018L42.5546 57.2697L42.272 57.3611C41.9644 57.4606 41.6703 57.4164 41.5064 57.3827C41.3317 57.3468 41.1547 57.2873 41.0786 57.2636L41.0774 57.2631C40.7464 57.1594 40.4528 57.0206 40.1907 56.8547C39.9129 59.6858 38.5218 62.0336 36.0546 63.8862C35.8978 64.004 35.6041 64.212 35.2876 64.3874C35.13 64.4747 34.9464 64.5653 34.7583 64.6308C34.5914 64.6889 34.3197 64.7643 34.0262 64.7183L33.6848 64.6647L33.512 64.4206C32.8527 65.2118 32.055 65.9143 31.0644 66.4627L31.0636 66.4632C30.9731 66.5132 30.8103 66.6022 30.6246 66.6627C30.4434 66.7218 30.142 66.7872 29.8103 66.6794L29.3422 66.5273L29.2862 66.2087C28.2047 66.8433 26.9989 67.3024 25.7113 67.4363C25.5611 67.4521 25.3484 67.4582 25.136 67.4367C25.0288 67.4258 24.9012 67.4058 24.7721 67.3674C24.6532 67.3321 24.4705 67.2631 24.3058 67.118L23.9789 66.83L24.0351 66.398C24.0355 66.3953 24.0358 66.3922 24.0364 66.3876C24.0369 66.3836 24.0378 66.3772 24.0386 66.3708C24.0402 66.3584 24.0431 66.3367 24.0474 66.3117C24.0562 66.2614 24.0747 66.1732 24.1202 66.073C24.2251 65.8416 24.3958 65.712 24.5104 65.6417L24.5109 65.6414C24.5545 65.6146 24.5973 65.5872 24.6396 65.5597C24.607 65.5768 24.574 65.5936 24.5405 65.6092C24.3782 65.6849 24.1421 65.7717 23.8727 65.7691L23.8601 65.7689L23.8476 65.7685C23.6487 65.7604 23.4509 65.6927 23.2879 65.5793C23.1256 65.4665 22.8795 65.2174 22.8697 64.818C22.8447 63.7915 22.9085 63.1678 22.7586 62.3584L22.7257 62.1939C22.4151 60.7477 21.6383 59.5574 20.6524 58.3851C20.5637 58.6973 20.4568 59.0135 20.3283 59.3212C20.0174 60.0657 19.5517 60.8328 18.8492 61.3467L17.993 61.9731L17.6044 60.9861C17.5191 60.7695 17.462 60.5268 17.4204 60.3338C17.3726 60.1125 17.3464 59.9659 17.3102 59.8162L17.2682 59.6552C17.1669 59.2806 17.0435 58.9122 16.8987 58.5524L16.8982 58.5512C16.565 57.7193 16.1908 57.0417 15.7765 56.1488C15.6178 55.8071 15.4665 55.4711 15.3224 55.1375C15.2629 55.1962 15.2025 55.2393 15.1504 55.2697C15.0755 55.3135 15.0046 55.3387 15.0003 55.3402C14.9863 55.3455 14.9888 55.3446 14.996 55.3417L14.702 55.471L14.3899 55.3535C14.1485 55.2627 13.958 55.1084 13.8405 55.0033C13.7143 54.8902 13.6024 54.7686 13.5355 54.6963L13.5348 54.6955C12.3012 53.3615 11.438 51.7636 10.9101 50.0628C10.9124 50.2427 10.9201 50.4207 10.9346 50.5972L10.946 50.722L10.9731 50.9676C10.9851 51.0797 10.9979 51.2121 11.0061 51.3353C11.0145 51.4622 11.0205 51.6099 11.0139 51.7489C11.0106 51.8182 11.0035 51.9023 10.9867 51.9895C10.9724 52.064 10.9392 52.2066 10.8494 52.3512L10.6681 52.6432L10.3327 52.7181L10.236 52.7399L10.0197 52.7882L9.80867 52.7208C9.65382 52.6715 9.50947 52.6071 9.36777 52.5093C9.24013 52.4213 9.13856 52.3214 9.06834 52.252L9.06786 52.2513C7.19677 50.3987 6.00128 47.7443 5.48862 45.2749C5.4105 44.8986 5.35196 44.5337 5.30798 44.1749C5.28597 44.2112 5.26363 44.2476 5.24147 44.2844L4.798 45.0204C4.74179 45.1126 4.56006 45.4254 4.35805 45.6975C4.25874 45.8312 4.12632 45.9944 3.97342 46.1273C3.89687 46.1939 3.78828 46.2767 3.65161 46.3393C3.51564 46.4016 3.29593 46.4687 3.03548 46.4157L2.72375 46.3524L2.5367 46.0952C2.26623 45.7235 2.16045 45.2216 2.10571 44.8766C2.04536 44.4962 2.02073 44.1039 2.00291 43.8691C1.88777 42.3512 1.99379 40.9462 2.25054 39.5644C2.15078 39.6616 2.05576 39.7533 1.9671 39.836C1.83394 39.9602 1.70409 40.0763 1.59174 40.1656C1.53696 40.2092 1.47063 40.259 1.40054 40.3023C1.36562 40.3239 1.31574 40.3526 1.2557 40.3786C1.20692 40.3997 1.09092 40.4464 0.938527 40.4534L0.552611 40.471L0.0699763 39.9362L0.0300098 39.7019C-0.024561 39.3816 0.0060313 39.0369 0.0373636 38.8152C0.284542 37.069 0.982888 35.0835 1.9468 33.2778C2.44479 32.3449 3.02351 31.4419 3.66312 30.6336C3.3145 30.6659 2.96229 30.6791 2.64461 30.6547C2.42955 30.6382 2.19669 30.6024 1.97877 30.5252C1.76701 30.4503 1.49528 30.31 1.30286 30.0359L1.09024 29.733L1.25874 29.0369L1.44706 28.8674C1.64257 28.6915 1.96375 28.4811 2.21601 28.318C2.50566 28.1307 2.75515 27.9742 2.91351 27.8596C3.76858 27.2412 4.65929 26.5392 5.61348 25.9093C5.31446 25.8461 5.01933 25.7672 4.77099 25.6669C4.5952 25.5959 4.36849 25.4857 4.18476 25.3083C3.97994 25.1106 3.75827 24.7449 3.88277 24.2817L3.97837 23.926L4.30818 23.7616C4.57505 23.6287 4.87897 23.5232 5.14044 23.4378C5.4265 23.3443 5.65176 23.2774 5.85999 23.2015C6.50322 22.9668 7.14132 22.731 7.7755 22.4882C6.7986 21.3216 6.02732 19.9931 5.63602 18.5313C4.7005 15.0367 5.70157 11.1208 7.34227 8.1653L7.34371 8.16259L7.3453 8.16003C8.95897 5.30327 11.2793 2.90876 14.0841 1.20635L14.0859 1.20523C14.7883 0.781314 15.4973 0.367944 16.403 0.108069L16.7796 0L17.4925 0.501978ZM16.6287 0.894769C15.8366 1.12206 15.2084 1.48388 14.5089 1.90608L14.2585 2.06083C11.6858 3.67946 9.55443 5.91333 8.05799 8.56257L7.98445 8.69638C6.45221 11.5195 5.57764 15.1479 6.42672 18.3197C7.27109 21.4739 10.1084 24.044 12.8968 25.5804L13.0997 25.6912C11.1361 25.4875 9.73435 24.4095 8.31793 23.157C7.59502 23.4367 6.86864 23.7048 6.14056 23.9704L5.96534 24.0315C5.54337 24.1733 5.03856 24.312 4.67315 24.4942C4.49805 25.1456 7.68228 25.3839 8.19515 25.3796C7.75176 25.5515 7.40524 25.7889 6.9984 26.0185C5.71652 26.7416 4.58448 27.6614 3.39326 28.5229L3.32085 28.5741C2.9372 28.84 2.25095 29.245 1.9946 29.4757L1.97286 29.5657C2.4336 30.222 5.35484 29.5652 6.09659 29.3202C3.49215 31.354 1.30989 35.6647 0.847723 38.9299C0.820189 39.1247 0.803666 39.3696 0.836852 39.5644L0.901278 39.6357C1.14741 39.6245 3.44965 37.1515 3.79884 36.8132C3.06061 39.1627 2.63133 41.3331 2.81903 43.8072C2.85698 44.3074 2.90812 45.2143 3.19855 45.6135C3.44004 45.6626 3.84338 45.018 4.03241 44.7052L4.09907 44.5944C4.69362 43.6192 5.21249 42.6658 5.98868 41.8193C6.00864 42.9523 6.05565 43.9796 6.29003 45.1087C6.77914 47.4646 7.91526 49.9583 9.64369 51.6697C9.78724 51.8116 9.86616 51.8801 10.0573 51.941L10.1541 51.9194C10.2545 51.7579 10.1553 51.0398 10.1316 50.8041C9.98211 49.3195 10.2849 47.822 10.3797 46.3451C10.1328 46.7787 9.61995 47.7724 9.33771 48.1002C9.23816 47.9179 9.14517 47.7355 9.05123 47.5503C7.59332 44.6774 8.39549 41.1995 10.2892 38.6977C9.44771 40.9049 8.97974 43.1142 9.30142 45.4749C9.37388 46.0072 9.5016 46.5342 9.60389 47.0653C9.69235 46.541 9.96287 45.8797 10.131 45.3579C10.537 44.0982 11.0245 42.5699 11.6745 41.4087C11.464 42.3879 11.2523 43.368 11.1544 44.3768C10.8193 47.8353 11.7388 51.5479 14.1358 54.1398L14.2528 54.2642C14.3687 54.3835 14.5055 54.509 14.6413 54.5719L14.6782 54.5876C14.7293 54.5652 14.7578 54.5666 14.7623 54.5201C14.8253 53.858 14.6429 52.978 14.623 52.3287C14.6045 51.7231 14.5798 51.0092 14.6475 50.4445C15.0632 52.3872 15.6809 53.9984 16.519 55.8043C16.9033 56.6324 17.3161 57.3931 17.6581 58.2468C17.8374 58.6925 17.9863 59.1503 18.1038 59.616C18.1831 59.9419 18.2482 60.3872 18.366 60.6862C19.4337 59.905 19.9318 58.2268 20.1226 56.9651C20.141 56.8441 20.1524 56.7222 20.1566 56.5995C21.6317 58.1923 23.0544 59.8264 23.526 62.022C23.7392 63.0148 23.6637 63.8055 23.6879 64.7979C23.6899 64.8779 23.7749 64.9324 23.8495 64.9469L23.8805 64.9506C24.212 64.9537 24.7001 64.5546 24.9818 64.2945L25.0888 64.1931C26.4463 62.8737 27.257 60.3306 27.4017 58.4608C28.0068 61.4893 27.7709 64.6047 24.9384 66.3393C24.8561 66.3898 24.8569 66.4256 24.8468 66.5037C25.002 66.6403 25.4233 66.6435 25.6263 66.6223C27.7232 66.4042 29.6352 65.2115 31.1044 63.7863C30.9253 64.2227 30.7471 64.6817 30.5019 65.0845C30.384 65.2605 30.032 65.7226 30.0633 65.901C30.257 65.9639 30.4886 65.8455 30.668 65.7466C33.232 64.3269 34.4028 61.7454 35.3511 59.1671C35.319 60.644 35.1659 61.8886 34.4293 63.1916C34.3327 63.3627 34.0618 63.7806 34.153 63.9097C34.521 63.9674 35.2825 63.4424 35.563 63.2315C38.4384 61.0724 39.7133 58.2392 39.3694 54.66C39.8019 55.5266 40.3747 56.1852 41.3222 56.4822C41.5138 56.5419 41.7798 56.6358 41.9807 56.5928L42.02 56.5822C42.1558 56.3663 41.8469 56.0974 41.7267 55.9122C41.313 55.2746 41.4941 54.5126 41.648 53.8252C43.8592 53.2673 46.1798 51.967 46.4203 49.446C47.2066 49.2849 47.8191 48.7913 48.2618 48.1022L48.3042 48.0349C49.2096 46.4822 49.937 44.2468 49.7105 42.4512C49.6179 41.7154 48.4589 40.7547 47.9263 40.2806C46.7098 39.1988 46.155 38.2445 45.4781 36.7901C47.5834 38.4694 47.2616 36.5016 46.456 35.2504C49.4624 37.3507 48.2248 34.1653 47.2521 32.8908C47.8593 33.2194 49.6277 33.8959 50.2704 33.5483L50.3001 33.531L50.3242 33.4652C50.0826 33.0848 49.7645 32.7652 49.468 32.4265L49.3427 32.2799C48.8461 31.6837 48.3423 31.0227 47.9579 30.3499C50.87 29.6454 54.5918 27.6655 56.2549 25.007L56.3326 24.8797C59.9117 18.8738 56.1767 10.4403 51 6.60086C50.909 6.53348 50.771 6.47091 50.6552 6.49007L50.652 6.50014C50.5953 6.73418 51.1907 8.31943 51.2909 8.71316C52.5406 13.6255 52.8139 19.7095 47.309 22.1189C46.6272 22.4174 46.0215 22.5031 45.3257 22.6891L45.1887 22.5265C43.7668 20.8586 42.1462 19.5718 39.9936 18.9359C40.5931 18.847 41.1855 18.7605 41.7895 18.71C41.9915 18.6931 42.2116 18.6748 42.412 18.6256L42.4966 18.6026L42.515 18.5441C42.2584 18.0662 40.7514 17.5586 40.1983 17.3774C38.6841 16.8813 36.5383 16.9144 35.0109 17.4808C35.0415 17.0181 35.0763 16.0137 34.843 15.6002L34.8197 15.5621C34.4493 15.3541 34.1495 16.0263 33.9924 16.2884C33.8116 16.591 33.6457 16.9093 33.4674 17.2155C32.4938 15.5653 30.9782 14.5955 29.1607 14.0675L28.9839 14.0178C28.6748 13.9337 27.9283 13.7759 27.6275 13.8984L27.5741 13.9783C27.6205 14.1443 28.2067 14.6485 28.3606 14.8058L28.5293 14.9799C28.9219 15.3906 29.304 15.8339 29.5569 16.3404C28.721 15.9295 27.9644 15.5471 27.0785 15.2362L26.8994 15.1749C24.744 14.4569 22.4443 14.4549 20.2757 15.1278L20.2242 15.1444C20.1041 15.1852 19.985 15.2416 19.9234 15.3482C20.018 15.5931 21.4994 15.9279 21.8392 16.0417C22.4095 16.2327 22.9103 16.4381 23.4534 16.6937C21.2394 16.7201 19.5868 17.1132 17.5773 18.0653L17.2819 18.2039C16.9508 18.3592 16.5421 18.5548 16.3197 18.7027C15.8743 18.2921 15.4818 17.9215 15.1044 17.4607L15.0291 17.3673C11.5981 13.0426 13.6647 6.99171 15.8791 2.58823L15.9846 2.37992C16.1238 2.10692 16.6858 1.25846 16.704 0.973582V0.947844L16.6287 0.894769Z" fill="white"/>
<path d="M16.5032 0.817444L16.5786 0.87051C16.5971 1.12586 16.0028 2.02073 15.8591 2.30253C13.6061 6.72191 11.4182 12.8966 14.9037 17.2899C15.3043 17.7949 15.7191 18.1874 16.1942 18.6254C16.4907 18.4282 17.1184 18.146 17.4518 17.988C19.4613 17.0359 21.1139 16.6427 23.3279 16.6163C22.7848 16.3607 22.284 16.1554 21.7137 15.9644C21.3739 15.8507 19.8926 15.5159 19.7979 15.271C19.8683 15.149 20.0138 15.0928 20.1502 15.0505C22.3188 14.3775 24.6185 14.3795 26.774 15.0976C27.7384 15.4188 28.5398 15.8248 29.4314 16.2631C29.1424 15.6842 28.6846 15.1879 28.2351 14.7284C28.0813 14.5711 27.4951 14.067 27.4486 13.901L27.5021 13.821C27.8029 13.6985 28.5493 13.8564 28.8585 13.9405C30.7544 14.4564 32.3369 15.4347 33.3418 17.1381C33.5202 16.8319 33.6861 16.5136 33.8669 16.211C34.024 15.9489 34.3238 15.2767 34.6941 15.4847C34.9531 15.8711 34.917 16.9258 34.8853 17.4034C36.4128 16.837 38.5587 16.804 40.0729 17.3001C40.626 17.4814 42.133 17.9889 42.3895 18.4668L42.3711 18.5252C42.1494 18.5922 41.8949 18.6134 41.6641 18.6327C41.0601 18.6832 40.4677 18.7697 39.8681 18.8587C42.0901 19.515 43.7454 20.865 45.2003 22.6117C45.8961 22.4257 46.5017 22.3401 47.1835 22.0416C52.6885 19.6322 52.4151 13.5481 51.1654 8.63577C51.0636 8.23578 50.4508 6.60612 50.5298 6.4127C50.6456 6.39354 50.7835 6.4561 50.8744 6.52348C56.0512 10.3629 59.7862 18.7965 56.2071 24.8025C54.5846 27.525 50.7907 29.5569 47.8324 30.2726C48.2167 30.9454 48.7205 31.6064 49.2171 32.2027C49.5466 32.5979 49.9225 32.9531 50.1987 33.3879L50.1746 33.4536C49.5586 33.8401 47.7434 33.1474 47.1266 32.8135C48.0993 34.088 49.337 37.2734 46.3306 35.1731C47.1362 36.4243 47.458 38.392 45.3526 36.7127C46.0296 38.1672 46.5843 39.1215 47.8007 40.2032C48.3334 40.6774 49.4925 41.6381 49.5851 42.374C49.8115 44.1696 49.0841 46.4048 48.1787 47.9575C47.733 48.6818 47.1065 49.2024 46.2949 49.3687C46.0544 51.8898 43.7338 53.19 41.5226 53.7479C41.3687 54.4353 41.1875 55.1972 41.6011 55.8348C41.7214 56.02 42.0304 56.289 41.8945 56.505C41.6901 56.5711 41.4011 56.4685 41.1967 56.4048C40.2492 56.1078 39.6765 55.4493 39.244 54.5827C39.5879 58.1619 38.313 60.9952 35.4376 63.1543C35.1571 63.3651 34.3955 63.8901 34.0276 63.8324C33.9362 63.7034 34.2072 63.2853 34.3038 63.1142C35.0404 61.8112 35.1935 60.5667 35.2256 59.0897C34.2773 61.6681 33.1066 64.2496 30.5425 65.6693C30.3632 65.7683 30.1315 65.8865 29.9378 65.8236C29.9065 65.6452 30.2585 65.1831 30.3763 65.0072C30.6215 64.6044 30.7997 64.1454 30.9788 63.709C29.5096 65.1342 27.5977 66.327 25.5008 66.545C25.2978 66.5663 24.8765 66.5631 24.7213 66.4264C24.7315 66.3482 24.7306 66.3126 24.8129 66.2621C27.6455 64.5274 27.8814 61.412 27.2763 58.3835C27.1316 60.2533 26.3209 62.7963 24.9634 64.1158C24.7171 64.3551 24.1338 64.8769 23.755 64.8733C23.6754 64.8701 23.5647 64.812 23.5625 64.7206C23.5383 63.7282 23.6137 62.9374 23.4004 61.9446C22.9289 59.7491 21.5063 58.115 20.0312 56.5222C20.0269 56.6449 20.0155 56.7667 19.997 56.8878C19.8063 58.1495 19.3082 59.8276 18.2405 60.6088C18.1227 60.3098 18.0577 59.8645 17.9784 59.5386C17.8609 59.0729 17.712 58.6152 17.5326 58.1695C17.1907 57.3158 16.7777 56.5551 16.3935 55.727C15.5553 53.921 14.9377 52.3098 14.522 50.3671C14.4543 50.9319 14.4791 51.6457 14.4976 52.2513C14.5175 52.9006 14.7 53.7807 14.6369 54.4429C14.6324 54.4894 14.6039 54.4878 14.5528 54.5102C14.3557 54.4361 14.1526 54.216 14.0103 54.0625C11.6133 51.4705 10.6938 47.7579 11.029 44.2994C11.1269 43.2906 11.3386 42.3106 11.549 41.3315C10.8991 42.4926 10.4115 44.0209 10.0055 45.2806C9.83736 45.8024 9.56694 46.4637 9.47849 46.988C9.3762 46.4569 9.24847 45.9299 9.176 45.3976C8.85432 43.0369 9.32218 40.8277 10.1637 38.6205C8.26995 41.1223 7.46783 44.6 8.92574 47.473C9.01969 47.6581 9.11268 47.8405 9.21224 48.0228C9.49448 47.695 10.0073 46.7014 10.2542 46.2677C10.1594 47.7447 9.85664 49.2421 10.0061 50.7267C10.0299 50.9623 10.1289 51.6806 10.0286 51.8421L9.93183 51.8637C9.74069 51.8028 9.66177 51.7343 9.51821 51.5924C7.78976 49.881 6.65365 47.3872 6.16455 45.0313C5.93016 43.9022 5.88311 42.875 5.86315 41.7419C5.08696 42.5884 4.56821 43.5419 3.97366 44.5171C3.83634 44.7423 3.34905 45.5924 3.07306 45.5363C2.7826 45.1371 2.73154 44.2301 2.69358 43.7299C2.50589 41.2557 2.93514 39.0854 3.67338 36.7359C3.3242 37.0742 1.02197 39.5471 0.775834 39.5584L0.711426 39.487C0.67824 39.2922 0.694793 39.0473 0.722328 38.8525C1.18449 35.5873 3.36665 31.2767 5.97109 29.2429C5.22933 29.488 2.30805 30.1447 1.84737 29.4884L1.86914 29.3984C2.14256 29.1523 2.90508 28.7079 3.26781 28.4455C4.45903 27.584 5.59097 26.6643 6.87285 25.9412C7.27974 25.7116 7.62631 25.4743 8.06976 25.3024C7.55713 25.3066 4.37261 25.0683 4.54772 24.4169C4.96536 24.2087 5.56499 24.0572 6.01505 23.893C6.74315 23.6274 7.4696 23.3595 8.19252 23.0798C9.60895 24.3323 11.0106 25.4101 12.9741 25.6138L12.7713 25.5031C9.98281 23.9667 7.14559 21.3966 6.30122 18.2423C5.43866 15.0202 6.35493 11.3268 7.93244 8.48519C9.47717 5.75049 11.6984 3.4584 14.3834 1.82874C15.083 1.40654 15.7111 1.04474 16.5032 0.817444Z" fill="#000100"/>
<path d="M43.551 33.4234C43.5907 33.5064 43.7406 34.5811 43.7867 34.7913C44.0841 36.1485 44.5398 37.5448 45.2163 38.762C45.6143 39.4854 46.173 40.0437 46.7085 40.6502C47.2279 41.2381 48.2203 41.6914 48.5281 42.364C48.9393 43.263 47.5903 43.7379 47.1065 44.269C46.7221 44.691 46.5377 44.98 46.2872 45.5171C46.3229 44.5507 46.5414 44.2008 46.9798 43.364C46.7514 43.4069 46.169 43.5912 45.9161 43.675C45.0255 43.9692 44.2167 43.5407 43.3454 43.2141C43.4444 43.4237 43.5546 43.7323 43.6143 43.9479C43.7754 44.5291 43.6957 44.8706 43.3987 45.3624C42.3077 47.1696 42.3975 47.1828 40.3402 47.6806C39.2773 47.9379 38.0368 48.206 37.0127 47.6229C36.4524 47.3038 36.147 46.7852 35.9983 46.1808C36.1366 45.7495 36.4055 45.3255 36.6252 44.9235C35.3137 45.6065 35.0176 46.2457 34.4793 47.5648C34.3703 46.78 34.7671 45.0377 35.1274 44.3095C35.2604 44.0405 35.8023 43.174 35.7883 43.0105C35.6733 42.998 35.6749 43.0301 35.5494 43.1115C34.8596 43.5684 34.3819 44.0433 33.8721 44.6834C34.1302 43.6293 34.5719 42.6289 35.1775 41.7283C34.3711 42.1123 33.8404 42.5981 33.1875 43.186C33.2148 41.657 33.7202 40.5267 34.6568 39.3403C34.9226 39.0041 35.3911 38.392 35.5867 38.0265L35.6115 37.9792C35.7646 38.5299 35.832 39.4089 35.8693 39.9856C36.5498 38.9892 36.7306 37.7343 36.359 36.5866C36.0031 35.5068 35.7666 35.5015 35.6312 34.2227C36.3574 35.3344 36.8007 35.9093 38.1242 36.3524C37.6019 35.2216 37.4961 34.809 37.6075 33.5839C38.7963 35.439 40.2865 36.7299 42.4552 37.3075C42.0608 36.3752 41.7037 35.3635 41.6388 34.3523C42.1991 35.2317 42.577 35.6198 43.4203 36.1809C43.2676 35.1606 43.2608 34.4079 43.551 33.4234Z" fill="white"/>
<path d="M39.0239 41.9495C39.8299 41.8654 40.8687 42.2333 41.522 42.693C42.288 43.2321 43.2447 44.1632 42.8287 45.1972C42.8122 45.2381 42.7285 45.2253 42.6892 45.2265C42.2539 45.0389 41.5754 44.7263 41.1104 44.8397C39.369 45.2638 38.7205 43.7283 38.8291 42.2806C38.8419 42.1111 38.882 42.0557 39.0239 41.9495Z" fill="#000100"/>
<path d="M39.8699 39.8686C41.4122 39.7844 42.8427 40.8161 44.2134 41.3688C45.0567 41.7083 45.6218 41.6509 46.4314 41.2866C45.7196 42.0654 45.2379 42.3002 44.1761 42.1427C43.5192 41.982 43.0146 41.7431 42.4158 41.4381C40.5802 40.5035 39.4792 40.2013 37.4744 40.8373C38.3509 40.2201 38.7802 39.9612 39.8699 39.8686Z" fill="#000100"/>
<path d="M33.8218 18.9449C35.809 18.4933 36.748 18.3903 38.7621 18.9117C38.2062 18.9989 37.5705 19.1064 37.0322 19.2613C39.8531 19.795 42.1873 21.4035 44.1264 23.4603C44.4478 23.8013 44.7516 24.1689 45.0735 24.5021C44.3621 24.2242 43.9312 24.1015 43.2446 23.7137C42.8037 23.4646 42.227 23.0215 41.8206 22.818C42.9104 23.9442 43.558 24.9064 44.3296 26.2863C45.1841 27.8151 46.1043 29.7886 47.2991 31.0916C46.1596 30.6525 45.3769 30.1726 44.5115 29.2844C44.4783 31.1502 44.5789 32.137 45.4041 33.8563C44.0671 32.6396 43.6943 31.6057 43.3689 29.898C43.0266 31.2511 42.9152 31.9087 42.2546 33.169C42.6831 29.8556 42.0743 27.0913 39.5837 24.7025C40.7705 27.1912 40.9308 27.7611 41.0122 30.5039C40.7761 29.7171 40.5096 28.8643 40.1488 28.125C39.3997 26.5904 38.0523 25.1104 36.6972 24.079C36.0282 23.5698 35.3657 23.1947 34.6743 22.6478C35.8735 24.6768 36.3056 26.154 36.1953 28.5495C36.1657 29.198 36.1096 29.9276 35.946 30.5582C35.9364 30.596 35.926 30.6337 35.9156 30.6712C34.9785 26.6539 31.9891 26.406 30.826 22.9807C30.2035 24.6533 30.2558 25.7797 30.983 27.4541C29.6414 26.4415 28.3336 25.4339 27.6343 23.8436C26.996 22.3917 27.1111 21.4194 27.9627 20.1226C27.6585 22.2383 28.2137 23.252 29.4996 24.8613C29.0074 22.9283 29.5036 21.5056 30.6302 19.911C31.5031 21.0871 32.1094 21.7862 33.4827 22.4508C33.2575 21.9395 33.0859 21.3927 32.9204 20.8588C35.3521 21.716 36.5521 22.3901 38.4274 24.1059C37.4811 22.4048 36.4563 21.3303 34.7557 20.345C34.4992 20.1962 34.1304 19.9819 33.8563 19.8901L33.8679 19.8659C34.1829 19.8832 34.4683 19.9863 34.7717 20.0467C36.205 20.3317 37.9953 20.9543 39.2174 21.7781L39.3625 21.6946C37.9869 20.1448 35.8799 19.1392 33.8218 18.9449Z" fill="white"/>
<path d="M39.3628 21.6946L39.7852 22.1562L39.2175 21.7782L39.3628 21.6946Z" fill="#000100"/>
<path d="M14.5596 2.81732C14.5616 2.82718 14.5798 2.89484 14.5764 2.90101C12.7907 6.08549 11.4565 9.79493 11.9751 13.496C12.1748 14.9214 12.8522 16.7212 13.7415 17.8703C15.4873 20.1262 18.3157 21.4346 21.1025 21.7928C21.8728 21.8918 22.6915 21.8984 23.4641 21.8955C22.3602 22.5412 21.7233 22.6256 20.4733 22.6145C21.5708 23.0278 22.8619 22.9975 24.0028 22.8252C22.6837 23.4268 21.9702 23.6152 20.5503 23.5494C22.0008 24.131 22.9235 23.936 24.3384 23.916C21.6422 24.7482 19.7132 24.4045 17.1179 23.5016C17.018 23.4645 16.9187 23.4259 16.8201 23.3858C13.9391 22.2136 11.6529 20.3584 10.4175 17.4487C10.5789 18.6279 11.0912 19.7266 11.6448 20.7607C9.69049 18.8584 8.9068 16.2733 9.01237 13.6035C9.11366 11.0417 9.92648 9.05826 11.1915 6.86825C10.202 7.75598 9.385 8.92892 8.79843 10.1119C8.6042 10.5036 8.45197 10.9064 8.24536 11.2896L8.25598 11.239C9.09474 7.3664 11.3037 4.90553 14.5596 2.81732Z" fill="white"/>
<path d="M52.4739 9.15863C54.7304 11.6558 56.3268 15.0373 56.2358 18.4748C56.1188 22.8837 52.8699 25.9176 48.7938 27.0804L48.6419 26.9966C49.9705 26.5221 50.8343 25.9434 51.9525 25.0854C51.52 25.212 51.1156 25.5059 50.7028 25.6908C49.5385 26.2124 48.296 26.5391 47.0279 26.677C46.7657 26.7055 46.4455 26.7378 46.1926 26.7851C45.9517 26.4031 45.7048 26.025 45.4519 25.651C45.8768 25.8134 46.8731 26.1563 47.3765 26.0787C47.4607 26.0658 47.4763 25.9803 47.4944 25.9189C47.4058 25.5189 46.6411 24.8643 46.3541 24.4834C46.1321 24.189 45.9994 24.0437 45.7902 23.6987C48.5457 23.1168 50.2727 21.9321 51.8896 19.5946C53.5569 17.1848 53.5372 13.9035 52.9393 11.1072C52.7946 10.4553 52.6399 9.8056 52.4739 9.15863Z" fill="white"/>
<path d="M54.7729 17.0678L54.8142 17.1014C54.9753 17.4207 54.9886 19.0245 54.9709 19.3955C54.8759 21.3627 53.5553 22.464 52.1597 23.6713C52.1188 23.7121 52.1453 23.6939 52.0743 23.7157C52.0868 23.6368 52.5922 22.8941 52.6836 22.7434C54.0294 20.5178 54.5517 19.6757 54.7729 17.0678Z" fill="#000100"/>
<path d="M15.3856 25.8828C17.3737 25.9038 19.207 26.7748 21.0058 27.5428C19.4809 27.5741 17.9314 27.1521 16.442 27.1607C14.5492 27.1717 12.9842 27.7934 11.6693 29.1455C12.4025 29.1442 13.6916 29.2346 14.3759 29.4589C14.0527 29.7568 13.476 30.0963 13.0885 30.3451C13.8663 30.5001 14.5226 30.6243 15.2788 30.8531C15.0622 30.9987 14.915 31.1229 14.7147 31.2913C15.1933 31.5443 15.5852 31.6415 16.0975 31.8027C16.3117 32.069 16.3747 32.18 16.6553 32.3724C16.7613 32.4237 16.8688 32.4718 16.9778 32.5166C17.96 32.9133 19.0488 32.4784 19.9682 32.0975C17.088 34.9011 13.6931 32.7709 11.1379 30.7388C11.5292 30.5556 11.9908 30.3019 12.3812 30.1008C11.7175 30.0183 10.7834 29.9954 10.1923 29.6928C9.69461 29.438 10.8349 28.2391 11.0728 27.9556C12.2445 26.5592 13.5761 25.9902 15.3856 25.8828Z" fill="white"/>
<path d="M23.6838 31.9471L23.7253 32.0166C23.5317 33.4718 23.5014 34.5125 23.7049 35.9663C23.8268 36.8369 23.619 37.9267 23.3862 38.782C24.7288 37.5572 25.1789 36.5472 25.6519 34.843C25.7312 35.2597 25.8029 35.8235 25.7555 36.2417C25.5629 37.9423 24.9103 38.9335 25.4183 40.701C25.7887 40.3335 26.0666 39.8666 26.4011 39.4638C26.7621 39.0289 27.1422 38.6457 27.5044 38.2081C26.6799 40.2349 26.21 42.0922 26.52 44.2986C26.605 44.9034 26.6865 45.386 26.9041 45.9688C25.8761 44.8682 25.4967 43.9491 25.2325 42.467C25.1852 41.9652 25.0587 41.3387 24.9586 40.8461C24.3181 42.4858 24.2619 43.305 24.5179 45.0706C24.3491 44.8361 24.1876 44.6141 24.0396 44.3656C22.8076 42.2978 24.2294 40.4397 24.7188 38.479C23.5722 39.4838 23.0803 40.2537 21.4805 40.6622C22.5804 39.2898 22.8493 37.5544 22.8712 35.8536C22.2438 36.8269 21.9479 37.1752 21.0645 37.9219C21.325 37.3307 21.703 36.6582 21.93 36.0671C22.4904 34.6084 22.9696 33.3495 23.6838 31.9471Z" fill="white"/>
<path d="M18.9194 34.9641C18.9133 35.0449 18.5515 35.8416 18.4786 36.0063C18.1814 36.6778 18.0479 37.3443 17.8141 38.0281C18.4213 37.4141 19.0522 36.8241 19.7055 36.2597C18.568 38.3996 18.4312 41.0914 19.1054 43.3896C19.1983 43.7062 19.3043 44.1367 19.4748 44.4096L19.5289 44.3972C19.6136 43.1435 20.0374 42.075 20.5981 40.976C20.4557 42.7459 20.3282 43.7924 20.3409 45.6024C20.379 46.311 20.4371 47.0922 20.4242 47.796C17.9601 44.9102 17.1836 42.291 18.3578 38.5588C18.0495 38.8834 16.7062 40.7279 16.4014 40.5596C16.3319 40.3407 16.5102 39.697 16.557 39.4517C16.9059 37.6261 17.6295 36.2966 18.9194 34.9641Z" fill="white"/>
<path d="M43.0043 48.7267C43.0292 48.7231 43.054 48.7203 43.0789 48.7183C43.9282 48.6397 44.539 48.8537 45.1807 49.3884C45.1558 49.4866 45.1302 49.5844 45.1033 49.6822C44.7478 50.964 43.8031 51.6473 42.6881 52.2822C42.9623 51.8441 43.056 51.578 43.1591 51.077C42.7711 51.1383 42.2757 51.3283 41.8953 51.4674C41.1975 51.7219 40.7611 51.8533 40.0256 51.9451C40.307 51.7231 40.6088 51.4289 40.8749 51.1816C40.4621 51.2918 40.1567 51.3591 39.7358 51.4361C39.4645 51.4421 39.2793 51.4613 39.0084 51.495C39.1699 51.372 39.5486 51.1227 39.5631 50.9247C39.3695 50.8774 38.8184 50.9443 38.533 50.9275C38.0893 50.901 37.8024 50.8509 37.3667 50.776C38.1214 50.6125 38.1731 50.6497 38.9414 50.2738C37.9519 50.2473 37.1178 50.2165 36.719 49.1732C38.5615 50.0886 40.9819 48.9483 43.0043 48.7267Z" fill="white"/>
<path d="M7.1816 32.31C7.18192 32.3476 6.65475 33.693 6.58729 33.8683C6.08533 35.1728 6.1289 36.4019 5.96866 37.7508C6.37583 37.3011 6.7434 36.8354 7.16705 36.3853C7.96516 35.5375 8.75237 34.8925 9.67225 34.1909C8.96151 35.3058 8.39189 36.1649 7.58051 37.2209C6.52108 38.5211 5.57222 39.9191 4.50141 41.1696C4.47896 40.3067 4.45075 39.4798 4.52978 38.6185C4.74221 36.3039 5.62004 34.0467 7.1816 32.31Z" fill="white"/>
<path d="M30.6633 42.2517C30.7407 42.3483 30.5414 43.3519 30.5129 43.5527C30.2252 45.5796 30.6182 46.5752 31.0915 48.4076C31.5687 46.6521 31.6314 45.8902 32.5824 44.2185C32.2538 45.608 32.1892 46.9295 32.5503 48.3191C32.7471 48.982 32.9134 49.3996 33.2104 50.0201C32.4337 49.37 32.1914 49.1126 31.6791 48.2209C31.4511 48.7243 31.3556 49.2686 31.0956 49.7439C29.2466 47.091 29.2586 45.0798 30.6633 42.2517Z" fill="white"/>
<path d="M26.5677 30.8575C26.8731 30.9577 27.1804 31.0516 27.4897 31.1389C27.5496 32.3145 27.8373 33.1273 29.1982 33.3033C29.9082 33.3952 30.3983 33.0454 30.9272 32.61C31.5398 33.0899 31.7105 33.505 31.9747 34.2154C32.0122 34.3818 32.0703 34.5695 32.1172 34.7356C31.2008 34.4381 30.6706 34.4862 29.736 34.5084C28.929 34.5277 27.9611 34.3598 27.378 33.7547C26.55 32.8957 26.5595 31.9538 26.5677 30.8575Z" fill="white"/>
<path d="M21.9152 46.4934C21.9555 46.5299 21.9758 46.5644 21.9824 46.6221C22.0528 47.2373 22.1469 47.8525 22.3383 48.4441C22.5872 49.2136 23.1015 49.8481 23.5146 50.5355C23.4562 49.3535 23.4478 48.7972 23.7439 47.6401C23.8831 48.7804 23.6688 49.0621 24.1562 50.3651C24.4289 51.0429 24.7703 51.5936 25.1979 52.1816C24.0942 51.7543 23.4186 51.3936 22.6698 50.4136C21.9247 49.4389 21.7133 47.6922 21.9152 46.4934Z" fill="white"/>
<path d="M47.6289 45.2701C48.0979 45.2525 48.2285 45.3138 48.6758 45.4681C48.4265 46.4882 47.669 47.3427 46.8189 47.923L46.4265 48.1186C46.2478 48.0729 46.0518 48.0325 45.9396 47.8862C45.9668 47.6573 46.1436 47.4709 46.2137 47.2593C46.4923 46.4156 46.6009 45.4858 47.6289 45.2701Z" fill="white"/>
<path d="M37.3794 26.5305C37.4403 26.561 37.4427 26.5631 37.4888 26.6124C38.9622 28.1837 38.5101 30.3595 38.3986 32.309L38.3626 32.3734L38.3161 32.3671C37.4062 30.8202 37.6119 30.3753 37.6058 28.7159C37.607 27.9815 37.5309 27.249 37.3794 26.5305Z" fill="white"/>
<path d="M21.1387 54.0341C21.1642 54.0509 21.1886 54.0661 21.2097 54.0886C22.4944 55.4737 23.481 57.7338 23.6229 59.5807C23.518 59.5066 23.2385 58.9731 23.1587 58.8232C22.3178 57.2409 21.5538 55.784 21.1387 54.0341Z" fill="white"/>
<path d="M32.5117 54.2686L32.5614 54.3263C32.5887 54.5463 32.5338 55.0473 32.5077 55.2834C32.3198 56.9592 31.1804 58.4068 29.9019 59.4313C30.1198 58.9082 30.3263 58.4826 30.5328 57.9383C30.8286 57.1283 30.8029 56.0866 30.8169 55.2181C31.0866 56.0181 31.2165 56.6481 31.1168 57.4894C31.9756 56.2473 32.1697 55.7415 32.5117 54.2686Z" fill="white"/>
<path d="M32.03 26.6237C32.4428 26.9286 32.9647 27.424 33.2901 27.8145C34.4969 29.2628 34.6155 30.4743 34.4805 32.248L34.4184 32.2371C34.0809 30.5596 33.8713 29.8627 32.9498 28.3818C32.7302 28.0293 32.151 27.0063 32.03 26.6237Z" fill="white"/>
<path d="M21.5931 28.5003L21.6293 28.5361C21.6172 28.6598 21.2863 29.1074 21.1871 29.3127C20.9575 29.7882 20.8362 30.1277 20.7102 30.6403C21.061 30.1419 21.2928 29.8416 21.692 29.391C21.2717 30.5002 21.1417 30.921 20.9108 32.1072C20.8564 32.32 20.831 32.5307 20.7999 32.748C20.5823 32.2106 20.3867 31.7835 20.2616 31.2083C20.049 31.2449 19.832 31.2771 19.6187 31.3108C20.1468 30.1313 20.703 29.413 21.5931 28.5003Z" fill="white"/>
<path d="M34.4323 57.3198L34.4708 57.3883C34.2576 58.8472 32.565 61.0284 31.548 62.1506C31.4559 62.0661 31.5208 61.8332 31.5555 61.7198C32.0778 60.0116 33.5265 58.8128 34.4323 57.3198Z" fill="white"/>
<path d="M16.5228 45.0032C16.5514 45.0257 16.5963 45.0614 16.5996 45.103C16.6814 46.1135 16.8718 47.1231 17.1685 48.0914C17.3223 48.5932 18.278 50.5523 17.9666 50.9651C16.5699 49.0253 16.2218 47.3547 16.5228 45.0032Z" fill="white"/>
<path d="M14.1054 39.0794C14.1607 39.297 14.1026 39.8734 14.0766 40.101C14.0409 40.4068 13.9869 40.7098 13.9149 41.0092C13.753 41.6958 13.5163 42.4104 13.3365 43.097C13.2654 43.3683 12.9839 44.6553 12.8486 44.7619C12.4601 42.6473 13.4159 40.9619 14.1054 39.0794Z" fill="white"/>
<path d="M38.1067 55.7527C38.1464 55.9266 38.1224 56.4108 38.1184 56.612C38.0871 58.1206 37.6134 59.0693 36.8378 60.3098C37.0009 59.5827 37.035 58.8861 37.049 58.1443C37.0286 57.3194 36.8334 56.4685 36.5813 55.687C37.0851 56.3655 37.3969 57.0669 37.5268 57.8986C37.6847 57.303 37.9308 56.2733 38.1067 55.7527Z" fill="white"/>
<path d="M28.0474 29.8062C28.7783 29.6846 29.58 29.8711 30.1812 30.3005C30.6633 30.6448 30.9192 31.0927 31.2056 31.5923L30.7375 31.2438C30.2929 30.9664 29.7212 30.6792 29.2106 30.5565C28.3255 30.344 28.1029 30.5 27.3329 29.9499C27.6016 29.8806 27.7725 29.8479 28.0474 29.8062Z" fill="white"/>
<path d="M24.6591 18.9075C25.0233 18.8837 25.3736 18.8964 25.7377 18.9044C25.2696 19.0718 24.7847 19.2056 24.3226 19.3822C23.6482 19.6398 22.9739 19.9362 22.3103 20.2223L21.5132 20.5235C22.3146 19.5998 23.4415 19.021 24.6591 18.9075Z" fill="white"/>
<path d="M39.387 30.8227C39.5325 31.8512 39.605 32.4648 39.9674 33.474C40.0595 33.73 40.5525 34.9674 40.5782 35.0992L40.5269 35.0984C39.8435 34.3233 39.2904 33.5969 39.2155 32.5208C39.1802 32.0092 39.2087 31.3041 39.387 30.8227Z" fill="white"/>
<path d="M33.1769 37.9964C33.2142 38.1139 33.1677 38.4634 33.1477 38.5972C32.9785 39.7315 31.9911 40.4028 31.0211 40.77C30.9896 40.6606 31.2573 40.4638 31.3493 40.3812C32.1292 39.6802 32.6984 38.9227 33.1769 37.9964Z" fill="white"/>
<path d="M28.9674 53.2986C29.1289 53.4425 29.1846 53.7852 29.196 54.0008C29.2466 54.9499 28.6993 55.6309 28.1024 56.2926L28.0291 56.3323C28.0248 56.1956 28.3515 55.5832 28.4243 55.3952C28.7021 54.6782 28.8876 54.0706 28.9674 53.2986Z" fill="white"/>
<path d="M26.6207 24.939C26.6585 25.0436 26.5157 25.7204 26.4821 25.8802C26.3339 26.5872 26.4458 27.0763 26.4555 27.7118L26.4219 27.7177L26.3513 27.5894C25.8655 26.4671 25.7045 25.8945 26.6207 24.939Z" fill="white"/>
<path d="M28.4903 31.1452C28.68 31.0842 28.8844 31.1806 28.9581 31.3656C29.0318 31.5507 28.9493 31.7612 28.7697 31.8472C28.6421 31.9082 28.4912 31.893 28.3783 31.8079C28.2655 31.7229 28.2094 31.582 28.233 31.4425C28.2565 31.3032 28.3558 31.1885 28.4903 31.1452Z" fill="white"/>
<path d="M48.7943 27.0805C48.6238 27.1268 48.3575 27.2107 48.1946 27.1526C48.2848 27.0669 48.5099 27.0298 48.6423 26.9966L48.7943 27.0805Z" fill="#BCBCBB"/>
</svg>
