<svg width="342" height="114" viewBox="0 0 342 114" fill="none" xmlns="http://www.w3.org/2000/svg">
<path d="M171.111 69.0129C171.32 68.943 171.635 68.908 172.055 68.908C173.243 68.908 173.838 69.6772 173.838 71.2155C173.838 72.0546 173.645 72.7713 173.261 73.3657C172.911 73.9251 172.352 74.2747 171.583 74.4145C168.401 75.0089 165.272 75.6732 162.195 76.4074L162.038 77.666C161.059 84.5535 159.101 89.6405 156.164 92.9269C153.263 96.2483 149.626 97.909 145.256 97.909C142.354 97.909 140.099 97.1923 138.491 95.7589C136.918 94.3604 136.131 92.5598 136.131 90.3572C136.131 86.6862 137.774 83.4173 141.061 80.5504C144.347 77.6835 149.329 75.1487 156.007 72.9461L157.056 65.5517C157.196 64.7126 157.371 63.5938 157.58 62.1953C155.937 66.5306 153.839 69.7646 151.287 71.8973C148.735 74.03 145.886 75.0963 142.739 75.0963C139.732 75.0963 137.442 74.1873 135.869 72.3693C134.296 70.5163 133.509 68.1389 133.509 65.237C133.509 63.9434 133.649 62.5275 133.929 60.9891C134.208 59.4158 134.645 57.3006 135.24 54.6435C135.764 52.2312 136.149 50.3082 136.393 48.8748C136.673 47.4414 136.813 46.1652 136.813 45.0465C136.813 43.3683 136.166 42.5292 134.872 42.5292C133.859 42.5292 132.652 43.0361 131.254 44.05C129.89 45.029 128.439 46.5498 126.901 48.6126C126.412 49.2769 125.87 49.609 125.275 49.609C124.786 49.609 124.349 49.3817 123.964 48.9272C123.615 48.4378 123.44 47.8959 123.44 47.3015C123.44 46.2177 123.929 44.994 124.908 43.6305C128.474 38.7358 132.652 36.2885 137.442 36.2885C139.575 36.2885 141.236 36.9353 142.424 38.2289C143.648 39.5225 144.26 41.4279 144.26 43.9452C144.26 45.7632 144.085 47.6336 143.735 49.5566C143.421 51.4445 142.931 53.8569 142.267 56.7937C141.847 58.5418 141.533 59.9578 141.323 61.0416C141.113 62.0904 141.008 62.9645 141.008 63.6637C141.008 65.4468 141.323 66.7229 141.952 67.4921C142.582 68.2612 143.683 68.6458 145.256 68.6458C147.144 68.6458 149.067 67.6144 151.025 65.5517C153.018 63.454 154.801 60.2899 156.374 56.0595C157.982 51.8291 159.136 46.6547 159.835 40.5364C160.01 38.998 160.412 37.9142 161.042 37.2849C161.671 36.6206 162.58 36.2885 163.769 36.2885C166.216 36.2885 167.44 37.5121 167.44 39.9595C167.44 40.379 167.422 40.7112 167.387 40.9559C166.653 46.1652 165.971 50.8676 165.342 55.0631C164.992 57.5803 164.608 60.1675 164.188 62.8246C163.804 65.4818 163.419 68.1738 163.034 70.9009C165.587 70.2016 168.279 69.5723 171.111 69.0129ZM155.22 78.4527C146.76 81.3895 142.529 84.9556 142.529 89.151C142.529 90.13 142.826 90.9341 143.421 91.5634C144.05 92.2277 144.924 92.5598 146.043 92.5598C150.903 92.5598 153.944 87.9798 155.168 78.8198L155.22 78.4527Z" fill="white"/>
<path d="M176.555 81.0224C174.388 81.0224 172.657 80.2357 171.363 78.6624C170.07 77.0891 169.423 75.0264 169.423 72.4742C169.423 69.6772 170.07 67.0376 171.363 64.5553C172.657 62.038 174.37 60.0277 176.503 58.5243C178.67 56.986 180.96 56.2168 183.373 56.2168C184.142 56.2168 184.649 56.3741 184.894 56.6888C185.173 56.9685 185.401 57.4929 185.575 58.2621C186.31 58.1223 187.079 58.0523 187.883 58.0523C189.596 58.0523 190.453 58.6642 190.453 59.8878C190.453 60.622 190.19 62.3701 189.666 65.1321C188.862 69.1528 188.46 71.9497 188.46 73.523C188.46 74.0474 188.582 74.467 188.827 74.7816C189.107 75.0963 189.456 75.2536 189.876 75.2536C190.54 75.2536 191.344 74.8341 192.288 73.995C193.232 73.121 194.508 71.7225 196.117 69.7996C196.536 69.3101 197.008 69.0654 197.532 69.0654C197.987 69.0654 198.337 69.2751 198.581 69.6947C198.861 70.1142 199.001 70.6911 199.001 71.4253C199.001 72.8238 198.669 73.9076 198.004 74.6768C196.571 76.4598 195.05 77.9632 193.442 79.1869C191.834 80.4105 190.278 81.0224 188.775 81.0224C187.621 81.0224 186.554 80.6378 185.575 79.8686C184.632 79.0645 183.915 77.9807 183.425 76.6172C181.607 79.554 179.317 81.0224 176.555 81.0224ZM178.443 75.7256C179.212 75.7256 179.947 75.2711 180.646 74.3621C181.345 73.4531 181.852 72.2469 182.167 70.7435L184.107 61.094C182.639 61.129 181.275 61.6884 180.017 62.7722C178.793 63.8211 177.814 65.2195 177.08 66.9676C176.346 68.7157 175.978 70.5687 175.978 72.5266C175.978 73.6104 176.188 74.4145 176.608 74.939C177.062 75.4634 177.674 75.7256 178.443 75.7256Z" fill="white"/>
<path d="M217.027 75.3061C218.46 75.5858 219.177 76.3724 219.177 77.666C219.177 78.5401 218.775 79.3267 217.971 80.0259C217.202 80.6902 216.083 81.0224 214.615 81.0224C212.097 81.0224 210.035 80.2532 208.426 78.7149C206.853 77.1416 206.066 75.0963 206.066 72.579C206.066 71.2155 206.766 70.2366 208.164 69.6422C209.702 68.978 210.804 68.2787 211.468 67.5445C212.132 66.7753 212.464 65.8489 212.464 64.765C212.464 64.1357 212.325 63.6637 212.045 63.3491C211.8 63.0344 211.485 62.8771 211.101 62.8771C210.157 62.8771 209.108 63.5588 207.954 64.9224C206.836 66.2859 205.787 68.0515 204.808 70.2191C203.829 72.3518 203.06 74.5544 202.5 76.8269C202.116 78.4701 201.661 79.5889 201.137 80.1833C200.647 80.7427 199.861 81.0224 198.777 81.0224C197.693 81.0224 196.889 80.6378 196.364 79.8686C195.875 79.0645 195.543 77.8408 195.368 76.1976C195.193 74.5544 195.106 72.142 195.106 68.9605C195.106 63.5763 195.648 57.9649 196.732 52.1263C197.85 46.2876 199.476 41.3929 201.609 37.4422C203.776 33.4565 206.364 31.4637 209.37 31.4637C210.979 31.4637 212.272 32.163 213.251 33.5614C214.265 34.925 214.772 36.708 214.772 38.9106C214.772 42.4418 213.741 46.1128 211.678 49.9237C209.615 53.6996 206.259 58.1223 201.609 63.1917C201.504 65.0098 201.451 66.8802 201.451 68.8031C203.13 64.4329 205.052 61.2688 207.22 59.311C209.388 57.3181 211.416 56.3217 213.303 56.3217C215.052 56.3217 216.45 56.9161 217.499 58.1048C218.583 59.2935 219.125 60.7619 219.125 62.51C219.125 64.4329 218.635 66.1985 217.656 67.8067C216.677 69.415 214.999 70.8484 212.622 72.1071C212.832 73.1559 213.251 73.8901 213.88 74.3097C214.545 74.6942 215.594 75.0264 217.027 75.3061ZM208.269 36.6556C207.64 36.6556 206.94 37.5646 206.171 39.3826C205.402 41.1657 204.65 43.5955 203.916 46.6722C203.217 49.7139 202.64 53.0353 202.186 56.6364C204.353 54.0841 206.136 51.3047 207.535 48.2979C208.968 45.2912 209.685 42.5642 209.685 40.1168C209.685 38.998 209.563 38.1415 209.318 37.5471C209.073 36.9528 208.723 36.6556 208.269 36.6556Z" fill="white"/>
<path d="M274.039 69.0654C274.494 69.0654 274.844 69.2751 275.088 69.6947C275.368 70.1142 275.508 70.6911 275.508 71.4253C275.508 72.7888 275.176 73.8726 274.511 74.6768C272.554 77.0192 270.648 78.6624 268.795 79.6064C266.977 80.5504 264.775 81.0224 262.187 81.0224C260.369 81.0224 258.691 80.7951 257.153 80.3406C255.615 79.8861 253.744 79.2043 251.541 78.2953C249.549 77.4213 247.626 76.7046 245.773 76.1452C243.99 79.3966 241.315 81.0224 237.749 81.0224C235.791 81.0224 234.235 80.5853 233.081 79.7113C231.893 78.8023 231.298 77.6485 231.298 76.2501C231.298 74.5369 232.12 73.121 233.763 72.0022C235.406 70.8484 237.592 70.2716 240.319 70.2716H241L241.944 55.0106C242.154 51.5144 242.783 48.6301 243.832 46.3575C244.881 44.085 246.332 42.1446 248.185 40.5364C249.793 39.1379 251.629 38.089 253.692 37.3898C255.754 36.6556 257.939 36.2885 260.247 36.2885C264.023 36.2885 266.925 37.2674 268.953 39.2253C270.98 41.1832 271.994 43.7354 271.994 46.882C271.994 49.0146 271.61 50.7453 270.84 52.0738C270.071 53.3674 269.005 54.0142 267.641 54.0142C266.663 54.0142 265.893 53.787 265.334 53.3325C264.775 52.843 264.495 52.1612 264.495 51.2872C264.495 50.9725 264.565 50.3956 264.705 49.5566C264.914 48.5776 265.019 47.7036 265.019 46.9344C265.019 45.466 264.582 44.3123 263.708 43.4732C262.869 42.5991 261.576 42.1621 259.827 42.1621C256.751 42.1621 254.373 43.176 252.695 45.2038C251.017 47.1966 249.951 50.3432 249.496 54.6435L248.29 66.5481C248.115 68.2263 247.888 69.6772 247.608 70.9009C249.846 71.2854 252.643 71.8973 255.999 72.7364C257.957 73.2258 259.46 73.5755 260.509 73.7852C261.558 73.995 262.485 74.0999 263.289 74.0999C265.316 74.0999 267.047 73.7677 268.481 73.1035C269.949 72.4042 271.33 71.3029 272.624 69.7996C273.043 69.3101 273.515 69.0654 274.039 69.0654Z" fill="white"/>
<path d="M277.703 81.0224C275.535 81.0224 273.804 80.2357 272.511 78.6624C271.217 77.0891 270.57 75.0264 270.57 72.4742C270.57 69.6772 271.217 67.0376 272.511 64.5553C273.804 62.038 275.518 60.0277 277.65 58.5243C279.818 56.986 282.108 56.2168 284.52 56.2168C285.289 56.2168 285.796 56.3741 286.041 56.6888C286.321 56.9685 286.548 57.4929 286.723 58.2621C287.457 58.1223 288.226 58.0523 289.03 58.0523C290.744 58.0523 291.6 58.6642 291.6 59.8878C291.6 60.622 291.338 62.3701 290.813 65.1321C290.009 69.1528 289.607 71.9497 289.607 73.523C289.607 74.0474 289.73 74.467 289.974 74.7816C290.254 75.0963 290.604 75.2536 291.023 75.2536C291.688 75.2536 292.492 74.8341 293.436 73.995C294.38 73.121 295.656 71.7225 297.264 69.7996C297.684 69.3101 298.156 69.0654 298.68 69.0654C299.134 69.0654 299.484 69.2751 299.729 69.6947C300.008 70.1142 300.148 70.6911 300.148 71.4253C300.148 72.8238 299.816 73.9076 299.152 74.6768C297.718 76.4598 296.198 77.9632 294.589 79.1869C292.981 80.4105 291.425 81.0224 289.922 81.0224C288.768 81.0224 287.702 80.6378 286.723 79.8686C285.779 79.0645 285.062 77.9807 284.573 76.6172C282.755 79.554 280.465 81.0224 277.703 81.0224ZM279.591 75.7256C280.36 75.7256 281.094 75.2711 281.793 74.3621C282.493 73.4531 282.999 72.2469 283.314 70.7435L285.255 61.094C283.786 61.129 282.423 61.6884 281.164 62.7722C279.94 63.8211 278.961 65.2195 278.227 66.9676C277.493 68.7157 277.126 70.5687 277.126 72.5266C277.126 73.6104 277.336 74.4145 277.755 74.939C278.21 75.4634 278.822 75.7256 279.591 75.7256Z" fill="white"/>
<path d="M306.27 81.0224C302.774 81.0224 300.221 79.6763 298.613 76.9843C297.04 74.2922 296.253 70.3939 296.253 65.2895C296.253 60.7794 296.813 55.8847 297.931 50.6054C299.05 45.2912 300.676 40.7811 302.809 37.0751C304.976 33.3342 307.546 31.4637 310.518 31.4637C312.126 31.4637 313.42 32.163 314.398 33.5614C315.377 34.925 315.867 36.708 315.867 38.9106C315.867 41.7775 315.325 44.6269 314.241 47.4588C313.157 50.2908 311.357 53.2625 308.84 56.3741C310.553 56.514 312.039 57.0909 313.297 58.1048C314.591 59.1187 315.57 60.4297 316.234 62.038C316.933 63.6462 317.283 65.3944 317.283 67.2823C317.283 69.9044 316.758 72.2644 315.71 74.3621C314.696 76.4598 313.35 78.103 311.671 79.2917C309.993 80.4455 308.193 81.0224 306.27 81.0224ZM303.176 59.9403C305.483 55.7099 307.319 51.9864 308.682 48.7699C310.081 45.5184 310.78 42.6341 310.78 40.1168C310.78 38.998 310.64 38.1415 310.36 37.5471C310.116 36.9528 309.766 36.6556 309.312 36.6556C308.612 36.6556 307.843 37.7044 307.004 39.8022C306.2 41.8649 305.448 44.6794 304.749 48.2455C304.05 51.8116 303.525 55.7099 303.176 59.9403ZM306.48 75.3585C307.668 75.3585 308.665 74.7117 309.469 73.4181C310.308 72.1245 310.727 70.2366 310.727 67.7543C310.727 65.8314 310.378 64.3805 309.679 63.4015C308.979 62.4226 308.14 61.9331 307.161 61.9331C305.938 61.9331 304.906 62.5624 304.067 63.8211C303.228 65.0797 302.809 66.9152 302.809 69.3276C302.809 71.4253 303.158 72.9636 303.857 73.9426C304.557 74.8865 305.431 75.3585 306.48 75.3585Z" fill="white"/>
<path d="M330.274 82.1761C328.456 82.1761 327.058 81.7566 326.079 80.9175C325.135 80.0784 324.663 79.1344 324.663 78.0856C324.663 77.1765 324.995 76.3899 325.659 75.7256C326.324 75.0613 327.303 74.7292 328.596 74.7292C329.051 74.7292 329.575 74.7816 330.17 74.8865C330.799 74.9565 331.271 75.0089 331.585 75.0439C331.551 74.1349 331.341 73.2783 330.956 72.4742C330.607 71.67 330.152 70.9009 329.593 70.1667C329.033 69.3975 328.509 68.7332 328.019 68.1738C326.936 70.2366 325.852 71.9497 324.768 73.3132C323.719 74.6768 322.565 75.9704 321.307 77.194C320.677 77.8233 320.013 78.138 319.314 78.138C318.754 78.138 318.3 77.9457 317.95 77.5611C317.601 77.1416 317.426 76.6346 317.426 76.0403C317.426 75.341 317.671 74.6942 318.16 74.0999L318.842 73.2608C320.765 70.8834 322.216 68.9255 323.195 67.3872C323.824 66.3733 324.453 65.1671 325.083 63.7686C325.747 62.3701 326.603 60.4647 327.652 58.0523C328.317 56.514 329.698 55.7448 331.795 55.7448C332.774 55.7448 333.456 55.8322 333.841 56.007C334.225 56.1819 334.417 56.4616 334.417 56.8461C334.417 57.0559 334.347 57.388 334.208 57.8426C334.068 58.2971 333.875 58.7516 333.631 59.2061C333.001 60.4647 332.687 61.531 332.687 62.4051C332.687 62.9295 332.862 63.5064 333.211 64.1357C333.596 64.765 334.173 65.5517 334.942 66.4957C336.061 67.9641 336.9 69.2227 337.459 70.2716C338.053 71.2854 338.351 72.4042 338.351 73.6279C338.351 75.0963 338.001 76.4948 337.302 77.8233C336.637 79.1169 335.693 80.1658 334.47 80.9699C333.246 81.774 331.848 82.1761 330.274 82.1761Z" fill="white"/>
<path d="M155.168 78.8208C153.944 87.9798 150.903 92.5595 146.044 92.5599L145.635 92.5439C144.842 92.4817 144.187 92.2335 143.669 91.7978L143.422 91.5633C142.902 91.0126 142.609 90.3282 142.544 89.5097L142.53 89.1509C142.53 84.9556 146.761 81.3898 155.221 78.453L155.168 78.8208ZM150.121 84.6777C149.297 85.1624 148.608 85.6393 148.048 86.1114C146.642 87.2965 146.249 88.2257 146.181 88.9146C147.159 88.8811 148.03 88.4787 148.938 87.1115C149.354 86.4847 149.753 85.6807 150.121 84.6777ZM334.418 56.846C334.418 56.4616 334.225 56.1823 333.84 56.0075C333.456 55.8328 332.774 55.7446 331.796 55.7446C329.698 55.7446 328.317 56.5142 327.653 58.0522L326.223 61.2907C325.795 62.2434 325.415 63.0696 325.082 63.7688C324.453 65.1671 323.825 66.3737 323.196 67.3875C322.217 68.9258 320.765 70.8831 318.842 73.2605L318.161 74.1007C317.672 74.6951 317.426 75.3414 317.426 76.0406C317.426 76.6347 317.601 77.1418 317.95 77.5613C318.256 77.8979 318.643 78.0878 319.11 78.1297L319.314 78.1386C320.013 78.1386 320.678 77.8228 321.307 77.1935C322.566 75.9701 323.719 74.6769 324.768 73.3137C325.852 71.9504 326.935 70.2369 328.019 68.1745C328.508 68.7338 329.033 69.3985 329.593 70.1676C330.152 70.9017 330.608 71.6713 330.957 72.4753C331.341 73.2791 331.551 74.1354 331.586 75.044C331.271 75.0091 330.799 74.9558 330.17 74.8859C329.576 74.781 329.051 74.7296 328.596 74.7296C327.303 74.7297 326.324 75.062 325.66 75.7262C324.996 76.3903 324.663 77.1766 324.663 78.0853C324.663 79.134 325.135 80.078 326.079 80.917C326.936 81.6511 328.114 82.0651 329.612 82.157L330.275 82.1765C331.652 82.1765 332.895 81.8686 334.004 81.2527L334.471 80.9703C335.694 80.1662 336.638 79.1175 337.303 77.8242C337.915 76.6616 338.258 75.445 338.335 74.1753L338.351 73.6282C338.351 72.4046 338.053 71.2863 337.459 70.2725C336.9 69.2236 336.061 67.9641 334.942 66.4957C334.173 65.5521 333.596 64.7657 333.211 64.1366C332.906 63.5862 332.733 63.0754 332.695 62.6053L332.687 62.4045C332.688 61.5308 333.002 60.4649 333.631 59.2069C333.814 58.8661 333.968 58.5245 334.093 58.1837L334.208 57.8426C334.348 57.3882 334.418 57.0557 334.418 56.846ZM182.166 70.7432C181.852 72.2465 181.345 73.4529 180.646 74.3619C179.947 75.2709 179.212 75.7262 178.443 75.7262L178.162 75.7137C177.524 75.6563 177.006 75.398 176.608 74.9392C176.188 74.4148 175.979 73.6105 175.979 72.5268C175.979 70.8138 176.261 69.1815 176.823 67.6291L177.08 66.9682C177.815 65.2201 178.793 63.8211 180.017 62.7722C181.276 61.6885 182.64 61.1285 184.108 61.0935L182.166 70.7432ZM283.314 70.7432C283 72.2464 282.493 73.4529 281.794 74.3619C281.094 75.2709 280.36 75.7262 279.591 75.7262L279.31 75.7137C278.672 75.6564 278.154 75.3981 277.756 74.9392C277.336 74.4148 277.127 73.6106 277.127 72.5268C277.127 70.814 277.407 69.1814 277.969 67.6291L278.228 66.9682C278.871 65.4387 279.7 64.1768 280.717 63.1826L281.165 62.7722C282.423 61.6888 283.786 61.1286 285.254 61.0935L283.314 70.7432ZM307.09 67.7552C307.09 67.0027 307.019 66.4803 306.939 66.1298C306.701 66.652 306.447 67.6297 306.447 69.3274C306.447 70.0939 306.509 70.6739 306.591 71.0985C306.838 70.5289 307.09 69.4978 307.09 67.7552ZM141.009 63.664C141.009 63.1395 141.067 62.5165 141.185 61.7952L141.324 61.042C141.429 60.5003 141.559 59.8755 141.717 59.1678L142.267 56.7945C142.931 53.8578 143.422 51.4451 143.736 49.5572C144.042 47.8745 144.213 46.2316 144.252 44.6293L144.26 43.9454C144.26 41.5857 143.723 39.7636 142.647 38.4792L142.425 38.2287C141.311 37.0159 139.781 36.3717 137.837 36.2959L137.442 36.2888C132.653 36.2889 128.475 38.7365 124.909 43.6309C123.931 44.9942 123.441 46.2174 123.44 47.3011C123.44 47.8954 123.615 48.4388 123.964 48.9283C124.349 49.3825 124.786 49.6086 125.275 49.6087C125.87 49.6087 126.411 49.2764 126.901 48.6121C128.247 46.807 129.527 45.4179 130.74 44.4428L131.255 44.0502C132.653 43.0365 133.86 42.5295 134.874 42.5295C136.167 42.5298 136.814 43.3689 136.814 45.0468L136.787 45.9154C136.734 46.8135 136.604 47.8001 136.394 48.875L136.185 50.0422C135.949 51.3007 135.633 52.8342 135.24 54.6432C134.645 57.3 134.208 59.4155 133.929 60.9887C133.649 62.527 133.509 63.9444 133.509 65.238L133.518 65.7745C133.61 68.4338 134.395 70.6313 135.87 72.3687C137.443 74.1867 139.733 75.0973 142.74 75.0973C145.886 75.0972 148.736 74.0305 151.288 71.8979C153.84 69.7652 155.937 66.5301 157.58 62.1949C157.371 63.5934 157.196 64.7133 157.056 65.5524L156.008 72.946C149.33 75.1486 144.347 77.6842 141.061 80.551L140.464 81.0929C137.576 83.8276 136.131 86.9157 136.131 90.3571C136.131 92.5597 136.919 94.3608 138.492 95.7593C140 97.1029 142.076 97.8178 144.721 97.9017L145.257 97.9088C149.627 97.9087 153.263 96.2486 156.164 92.9276C159.101 89.6412 161.06 84.5536 162.039 77.6661L162.196 76.4083C164.639 75.8253 167.115 75.2866 169.625 74.7918C169.907 76.3067 170.488 77.5969 171.364 78.6627C172.577 80.1377 174.174 80.9208 176.155 81.0129L176.556 81.0218C179.318 81.0216 181.608 79.5543 183.426 76.618C183.915 77.9811 184.632 79.0649 185.575 79.8689C186.554 80.638 187.621 81.0218 188.775 81.0218C190.278 81.0218 191.833 80.4102 193.442 79.1867C194.157 78.6421 194.853 78.039 195.534 77.3836C195.724 78.4434 196.002 79.2718 196.366 79.8689C196.89 80.6376 197.693 81.0216 198.776 81.0218C199.86 81.0218 200.648 80.7427 201.137 80.1833C201.662 79.589 202.115 78.4703 202.5 76.8276C203.059 74.5551 203.828 72.3518 204.807 70.2192C205.786 68.0515 206.836 66.2853 207.955 64.9218C209.109 63.5588 210.158 62.8771 211.101 62.8771C211.486 62.8771 211.8 63.035 212.045 63.3496C212.324 63.6643 212.466 64.1361 212.466 64.7654L212.45 65.1651C212.377 66.0787 212.05 66.8728 211.469 67.5456L211.199 67.8192C210.522 68.4538 209.511 69.0607 208.165 69.6418C206.766 70.2362 206.067 71.2166 206.067 72.5801C206.067 75.097 206.853 77.1428 208.426 78.716C209.934 80.158 211.842 80.9227 214.148 81.0129L214.615 81.0218C215.9 81.0218 216.918 80.7685 217.667 80.2597L217.971 80.027C218.775 79.3277 219.177 78.5401 219.177 77.6661C219.177 76.4533 218.547 75.6871 217.287 75.3656L217.028 75.3069C215.595 75.0273 214.546 74.6947 213.882 74.3103C213.252 73.8908 212.832 73.1563 212.622 72.1075C214.999 70.8489 216.678 69.415 217.657 67.8067C218.513 66.3994 218.996 64.8718 219.103 63.2235L219.126 62.5111C219.126 60.7633 218.584 59.2941 217.5 58.1055C216.517 56.9911 215.225 56.3987 213.628 56.329L213.304 56.3219C211.416 56.3219 209.387 57.3189 207.22 59.3117C205.052 61.2696 203.13 64.4335 201.452 68.8033C201.452 66.8804 201.505 65.0095 201.61 63.1915C205.969 58.4391 209.19 54.2546 211.275 50.639L211.679 49.9231C213.612 46.351 214.64 42.9017 214.761 39.5753L214.772 38.9109C214.772 36.8462 214.327 35.1505 213.436 33.8231L213.251 33.562C212.333 32.2507 211.139 31.5546 209.668 31.4728L209.371 31.464C206.365 31.464 203.777 33.4566 201.61 37.4417C199.477 41.3923 197.85 46.2875 196.732 52.1259C195.648 57.9646 195.106 63.5773 195.106 68.9614C195.106 69.6686 195.112 70.3377 195.12 70.9688C193.971 72.2996 193.029 73.3104 192.289 73.9959C191.345 74.8348 190.54 75.2536 189.876 75.2536L189.722 75.2465C189.37 75.212 189.073 75.0563 188.828 74.7811C188.645 74.545 188.529 74.2506 188.484 73.8964L188.46 73.5234C188.46 71.9502 188.863 69.1534 189.667 65.1332C190.126 62.7161 190.384 61.0747 190.441 60.2106L190.454 59.8873C190.453 58.6641 189.596 58.0522 187.883 58.0522C187.079 58.0522 186.31 58.122 185.575 58.2618C185.401 57.493 185.173 56.9693 184.893 56.6897C184.679 56.4144 184.265 56.2587 183.65 56.2242L183.373 56.2171C180.961 56.2173 178.671 56.9865 176.503 58.5247L176.109 58.8125C174.158 60.2814 172.577 62.1958 171.364 64.5558L171.129 65.023C170.461 66.4013 169.989 67.827 169.713 69.3007C167.39 69.7867 165.163 70.3181 163.034 70.9013C163.419 68.1745 163.804 65.4825 164.189 62.8255C164.608 60.1688 164.992 57.5812 165.342 55.0642C165.971 50.8688 166.654 46.1649 167.388 40.9556C167.423 40.7109 167.44 40.3782 167.44 39.959C167.439 37.6651 166.364 36.4464 164.214 36.303L163.769 36.2888C162.581 36.2888 161.672 36.6212 161.043 37.2854C160.413 37.9147 160.011 38.9982 159.836 40.5363C159.137 46.6545 157.982 51.8287 156.374 56.059C154.801 60.2894 153.018 63.4547 151.025 65.5524C149.068 67.6148 147.145 68.6451 145.257 68.6452V65.007C145.737 65.0069 146.771 64.7507 148.387 63.0476V63.0458C149.906 61.4473 151.477 58.7922 152.965 54.7924L152.969 54.78L152.974 54.7675C154.444 50.9013 155.545 46.0414 156.221 40.1242C156.424 38.3403 156.949 36.2847 158.403 34.7842L158.401 34.7824C159.907 33.1929 161.896 32.6506 163.769 32.6506C165.554 32.6507 167.561 33.0986 169.095 34.6332C170.63 36.1677 171.078 38.1747 171.078 39.959C171.078 40.447 171.058 40.9722 170.989 41.4619L170.991 41.4636C170.255 46.681 169.572 51.3944 168.941 55.6025C168.591 58.116 168.206 60.6964 167.788 63.3443C167.772 63.4543 167.758 63.5663 167.742 63.6765C167.868 63.4075 167.999 63.1391 168.138 62.8735C169.579 60.0744 171.501 57.7279 173.917 55.908L174.407 55.5509C177.122 53.6269 180.133 52.5791 183.373 52.5789C184.265 52.5789 186.219 52.695 187.579 54.2346C187.635 54.2942 187.689 54.3544 187.741 54.4158C187.788 54.4154 187.836 54.414 187.883 54.414C189.063 54.414 190.601 54.6056 191.925 55.5509C192.101 55.6768 192.264 55.8114 192.417 55.9507C192.627 54.4673 192.876 52.9718 193.156 51.4633L193.159 51.442C194.327 45.3498 196.051 40.0787 198.407 35.715L198.412 35.7044H198.414C200.863 31.2013 204.424 27.8258 209.371 27.8258C212.215 27.8259 214.561 29.1439 216.17 31.3929L216.171 31.3911C216.183 31.4062 216.192 31.4222 216.203 31.4373C216.212 31.4501 216.223 31.4618 216.232 31.4746H216.23C217.788 33.6134 218.41 36.1934 218.41 38.9109C218.41 43.1692 217.164 47.4321 214.878 51.6552L214.871 51.6676C214.68 52.0169 214.478 52.3695 214.269 52.7264C216.541 52.9312 218.597 53.8764 220.186 55.654H220.188C221.938 57.5734 222.764 59.9417 222.764 62.5111C222.764 65.0858 222.099 67.5081 220.765 69.6987C220.245 70.5536 219.61 71.3359 218.886 72.0578C219.745 72.3692 220.61 72.8662 221.33 73.6566C222.424 74.8575 222.815 76.3186 222.815 77.6661C222.815 79.821 221.768 81.5464 220.359 82.7716L220.35 82.7805C218.679 84.223 216.575 84.66 214.615 84.66C211.294 84.66 208.288 83.617 205.912 81.3451L205.882 81.3167L205.854 81.2883C205.599 81.0339 205.363 80.7692 205.138 80.4995C204.805 81.2667 204.396 81.9896 203.866 82.5904L203.864 82.5886C202.416 84.235 200.415 84.66 198.776 84.66C197.155 84.6598 195.55 84.1589 194.294 83.0008C192.611 84.0197 190.762 84.66 188.775 84.66C186.74 84.66 184.894 83.9593 183.328 82.729L183.271 82.6846L183.216 82.6384C183.153 82.5844 183.095 82.5248 183.033 82.4696C181.212 83.8543 179.054 84.6598 176.556 84.66C173.381 84.66 170.587 83.4474 168.553 80.9738C168.042 80.3518 167.611 79.6891 167.25 78.9949C166.649 79.1235 166.051 79.2536 165.455 79.3875C164.372 86.0412 162.301 91.499 158.902 95.3187L158.904 95.3205L158.902 95.3223C158.894 95.3317 158.885 95.3413 158.877 95.3507L158.875 95.3489C155.294 99.4327 150.675 101.547 145.257 101.547C141.778 101.547 138.55 100.684 136.075 98.479L135.641 98.0722C133.541 96.0014 132.493 93.3452 132.493 90.3571C132.493 85.5786 134.628 81.4711 138.336 78.1102C136.339 77.4971 134.557 76.4126 133.118 74.7509L133.108 74.7367L133.095 74.7243C130.86 72.0918 129.871 68.8271 129.871 65.238C129.871 63.6866 130.038 62.0488 130.349 60.3385C130.642 58.6935 131.091 56.5291 131.687 53.8651C132.206 51.4777 132.576 49.6165 132.808 48.2621L132.815 48.2213L132.824 48.1787C132.882 47.8781 132.93 47.59 132.973 47.3153C132.1 48.0265 131.043 49.1451 129.818 50.7883L129.816 50.7865C128.925 51.989 127.425 53.2469 125.275 53.2469C123.486 53.2467 122.1 52.3545 121.188 51.2768L121.092 51.1631L121.005 51.0423C120.22 49.9438 119.802 48.6635 119.802 47.3011C119.802 45.1419 120.758 43.1729 121.953 41.5081L121.968 41.4885C126.017 35.93 131.186 32.6507 137.442 32.6506C140.358 32.6506 143.082 33.5659 145.104 35.7665L145.101 35.7683C147.16 37.9694 147.899 40.9012 147.899 43.9454C147.899 45.9971 147.702 48.0857 147.316 50.2074C146.985 52.1823 146.483 54.6525 145.817 57.5974L145.806 57.6436C145.392 59.3672 145.09 60.7243 144.895 61.733L144.891 61.7561C144.706 62.6791 144.648 63.2949 144.648 63.664C144.648 64.2748 144.697 64.7011 144.754 64.9804C144.879 64.995 145.045 65.007 145.257 65.007V68.6452L144.689 68.6275C143.506 68.5493 142.635 68.2186 142.075 67.6326L141.953 67.4923C141.402 66.8193 141.093 65.7582 141.024 64.3089L141.009 63.664ZM309.313 36.6565C309.767 36.6569 310.116 36.953 310.361 37.5466C310.641 38.1409 310.78 38.9983 310.78 40.1171C310.78 42.6343 310.081 45.5188 308.682 48.7702C307.319 51.9866 305.484 55.7104 303.177 59.9406C303.483 56.2388 303.921 52.7912 304.495 49.598L304.749 48.2462C305.448 44.68 306.201 41.8654 307.005 39.8027C307.844 37.705 308.614 36.6565 309.313 36.6565ZM271.995 46.8818C271.995 43.9322 271.103 41.5052 269.321 39.6001L268.953 39.2253C267.052 37.3898 264.383 36.4142 260.945 36.2995L260.247 36.2888C257.94 36.2889 255.755 36.6561 253.692 37.3902L252.93 37.6691C251.174 38.3575 249.592 39.3126 248.185 40.5363C246.332 42.1445 244.881 44.0853 243.833 46.3578L243.641 46.7912C242.707 48.9934 242.141 51.7333 241.944 55.0109L241.001 70.2725H240.319L239.814 70.2778C237.321 70.3454 235.304 70.9211 233.764 72.0027L233.465 72.2159C232.021 73.2996 231.3 74.6442 231.3 76.2502L231.305 76.5096C231.375 77.7918 231.967 78.8586 233.081 79.7108C234.091 80.4756 235.409 80.9067 237.034 81.0023L237.75 81.0218C241.316 81.0216 243.99 79.3965 245.772 76.1454C247.625 76.7048 249.55 77.4209 251.542 78.2949C253.745 79.2038 255.614 79.8869 257.152 80.3414C258.691 80.7959 260.369 81.0217 262.187 81.0218C264.774 81.0218 266.977 80.5499 268.795 79.606C269.766 79.1114 270.748 78.4219 271.748 77.5435C271.971 77.9403 272.225 78.3139 272.512 78.6627C273.805 80.2357 275.535 81.0217 277.703 81.0218C280.464 81.0218 282.756 79.5547 284.574 76.618C285.063 77.9811 285.78 79.0649 286.723 79.8689C287.58 80.5421 288.504 80.92 289.495 81.004L289.923 81.0218C291.426 81.0217 292.981 80.4103 294.59 79.1867C295.8 78.2653 296.961 77.185 298.073 75.9465C298.241 76.3102 298.422 76.656 298.613 76.9839C300.221 79.6759 302.774 81.0217 306.27 81.0218C307.952 81.0218 309.541 80.5813 311.036 79.6983L311.672 79.2915C313.35 78.1028 314.696 76.4595 315.71 74.3619C316.627 72.5267 317.144 70.491 317.259 68.2544L317.284 67.2827C317.284 65.6308 317.016 64.0857 316.481 62.6479L316.234 62.0386C315.653 60.6316 314.831 59.452 313.768 58.4999L313.297 58.1055C312.039 57.0917 310.553 56.5151 308.84 56.3752C311.357 53.2637 313.157 50.291 314.241 47.4592V47.4574C315.189 44.98 315.723 42.4898 315.841 39.9856L315.868 38.9109C315.868 36.8462 315.437 35.1505 314.576 33.8231L314.399 33.562C313.481 32.2508 312.287 31.5547 310.816 31.4728L310.519 31.464C307.547 31.464 304.977 33.3349 302.809 37.0758C300.677 40.7817 299.05 45.2913 297.931 50.6053C296.812 55.8845 296.254 60.7795 296.254 65.2895L296.263 66.2328C296.294 67.8051 296.405 69.2558 296.595 70.5851C295.297 72.1068 294.246 73.2461 293.437 73.9959L293.088 74.2908C292.293 74.9328 291.605 75.2535 291.024 75.2536L290.87 75.2465C290.518 75.2121 290.219 75.0564 289.974 74.7811C289.791 74.5451 289.677 74.2502 289.631 73.8964L289.608 73.5234C289.608 71.9502 290.011 69.1535 290.815 65.1332C291.339 62.3712 291.6 60.6215 291.6 59.8873C291.599 58.6642 290.744 58.0522 289.031 58.0522C288.227 58.0522 287.458 58.122 286.723 58.2618C286.549 57.493 286.321 56.9693 286.041 56.6897C285.827 56.4145 285.413 56.2587 284.798 56.2242L284.521 56.2171C282.108 56.2172 279.819 56.9865 277.651 58.5247L277.255 58.8125C275.305 60.2813 273.724 62.1961 272.512 64.5558L272.275 65.023C271.24 67.1595 270.678 69.4111 270.586 71.7771C269.905 72.3165 269.204 72.7598 268.481 73.1041C267.048 73.7684 265.316 74.1007 263.288 74.1007V70.4625C264.926 70.4625 266.105 70.1934 266.943 69.807C267 69.7794 267.055 69.7465 267.113 69.7164C267.427 67.3351 268.153 65.0474 269.286 62.8735C270.727 60.0744 272.649 57.7279 275.064 55.908L275.555 55.5509C278.27 53.6269 281.281 52.579 284.521 52.5789C285.411 52.5789 287.36 52.6956 288.72 54.2293C288.778 54.2907 288.834 54.3525 288.887 54.4158C288.935 54.4154 288.983 54.414 289.031 54.414C290.211 54.414 291.749 54.6055 293.072 55.5509C293.16 55.6134 293.245 55.677 293.326 55.7428C293.598 53.8252 293.946 51.8624 294.371 49.8556C295.548 44.2634 297.289 39.3732 299.656 35.2603L299.661 35.2514C302.154 30.9495 305.71 27.8258 310.519 27.8258C313.383 27.826 315.743 29.1622 317.353 31.4409C318.896 33.5904 319.506 36.1831 319.506 38.9109C319.506 42.2475 318.873 45.5367 317.639 48.7596C316.898 50.6957 315.886 52.6372 314.632 54.5863C314.942 54.7885 315.246 55.0062 315.541 55.2418H315.543C317.341 56.6515 318.679 58.4621 319.568 60.5872H319.57V60.589C319.579 60.6093 319.588 60.629 319.597 60.6494H319.595C320.119 61.8682 320.481 63.1358 320.693 64.4439C321.038 63.8101 321.399 63.0911 321.766 62.2766L321.78 62.2411L321.796 62.2073C322.435 60.8619 323.275 58.9994 324.317 56.6026C324.947 55.1484 325.985 53.9413 327.417 53.1438C328.797 52.3751 330.323 52.1064 331.796 52.1064C332.661 52.1064 333.836 52.1502 334.899 52.5168L335.347 52.6944L335.592 52.8152C336.172 53.118 336.789 53.5847 337.272 54.2879C337.839 55.1124 338.056 56.0196 338.056 56.846C338.056 57.6484 337.831 58.4366 337.685 58.912C337.48 59.5765 337.208 60.2164 336.883 60.8324L336.885 60.8341C336.505 61.595 336.378 62.0536 336.34 62.2677C336.345 62.2793 336.352 62.2915 336.359 62.305C336.557 62.6201 336.852 63.041 337.269 63.577L337.763 64.197L337.8 64.2432L337.836 64.2911C339.016 65.84 339.982 67.2717 340.669 68.5599H340.667C341.553 70.1217 341.989 71.8339 341.989 73.6282C341.989 75.688 341.494 77.6541 340.538 79.4834L340.539 79.4852C340.536 79.4911 340.532 79.497 340.529 79.5029C340.526 79.5078 340.524 79.514 340.522 79.5189L340.52 79.5171C339.567 81.3587 338.202 82.87 336.468 84.0098C334.606 85.2332 332.503 85.8147 330.275 85.8147C327.941 85.8147 325.575 85.2771 323.711 83.6794L323.686 83.6581L323.663 83.6367C322.898 82.9569 322.245 82.1551 321.78 81.2403C321.045 81.5721 320.222 81.7768 319.314 81.7768C318.053 81.7768 316.818 81.3749 315.804 80.5279C315.181 81.1612 314.507 81.7414 313.775 82.26L313.754 82.276L313.733 82.2902C311.486 83.8347 308.973 84.66 306.27 84.66C302.845 84.6599 299.849 83.6195 297.57 81.4641C297.314 81.6754 297.055 81.8826 296.792 82.0823C294.767 83.6232 292.456 84.6599 289.923 84.66C287.888 84.66 286.042 83.9593 284.476 82.729L284.419 82.6846L284.364 82.6384C284.301 82.5845 284.243 82.5248 284.181 82.4696C282.36 83.8546 280.201 84.66 277.703 84.66C275.239 84.6599 273.008 83.9274 271.181 82.4447C270.946 82.5816 270.709 82.7117 270.471 82.8338C268.016 84.108 265.208 84.66 262.187 84.66C260.066 84.6599 258.036 84.3959 256.122 83.8304C254.42 83.3274 252.422 82.5942 250.153 81.6578L250.118 81.6436L250.08 81.6276C249.093 81.1947 248.131 80.8065 247.194 80.4604C246.365 81.4193 245.412 82.248 244.319 82.912C242.337 84.117 240.104 84.6599 237.75 84.66C235.276 84.66 232.861 84.1082 230.886 82.6117L230.872 82.6011C228.856 81.0596 227.662 78.8707 227.662 76.2502C227.662 73.3211 229.068 70.975 231.266 69.3167L231.715 68.9952C233.433 67.8006 235.423 67.1167 237.569 66.8172L238.313 54.7871C238.54 51.0084 239.233 47.6448 240.53 44.8336C241.791 42.1026 243.551 39.7413 245.801 37.7881C247.76 36.0856 249.993 34.8091 252.472 33.9617C254.947 33.0807 257.547 32.6507 260.247 32.6506C264.637 32.6506 268.569 33.7986 271.48 36.6086C274.303 39.335 275.633 42.8747 275.633 46.8818C275.633 49.4172 275.181 51.84 273.99 53.8971L273.968 53.9326C272.626 56.1911 270.441 57.6523 267.642 57.6525C266.126 57.6525 264.446 57.2997 263.04 56.1567L262.988 56.1141L262.938 56.0715C261.448 54.7677 260.856 53.0074 260.856 51.2875C260.856 50.6298 260.98 49.7707 261.116 48.9585L261.13 48.8768L261.148 48.7951C261.319 47.9964 261.382 47.3847 261.382 46.9351C261.382 46.2319 261.2 46.1096 261.189 46.0984L261.135 46.0469L261.094 46.0043C261.024 45.9593 260.702 45.8 259.828 45.8C257.632 45.8 256.365 46.476 255.499 47.5231L255.488 47.5356L255.479 47.548C254.486 48.7275 253.538 51.0193 253.115 55.0269L251.91 66.9149L251.908 66.9256C251.87 67.2964 251.826 67.6592 251.782 68.0146C253.328 68.3475 255.03 68.7435 256.882 69.2066C258.823 69.6918 260.26 70.0248 261.222 70.2174C262.108 70.3944 262.787 70.4625 263.288 70.4625V74.1007L262.663 74.0812C262.231 74.055 261.768 74.0017 261.274 73.9231L260.51 73.7863C259.985 73.6814 259.347 73.5401 258.595 73.3653L256 72.7364C252.644 71.8974 249.847 71.2859 247.609 70.9013C247.819 69.9835 247.999 68.9376 248.149 67.7641L248.29 66.549L249.496 54.6432C249.922 50.6115 250.886 47.5937 252.388 45.5904L252.695 45.2049C254.374 43.1771 256.751 42.1618 259.828 42.1618C261.576 42.1618 262.87 42.5988 263.709 43.4728C264.583 44.3119 265.02 45.4668 265.02 46.9351L265.001 47.532C264.961 48.148 264.861 48.8233 264.704 49.5572L264.548 50.6195C264.513 50.9076 264.495 51.1302 264.495 51.2875C264.495 52.1615 264.775 52.8427 265.335 53.3322C265.824 53.73 266.474 53.954 267.285 54.0037L267.642 54.0143C268.92 54.0141 269.937 53.4456 270.693 52.3089L270.84 52.0744C271.513 50.912 271.893 49.4415 271.977 47.6635L271.995 46.8818ZM208.27 36.6565C208.724 36.6567 209.073 36.9529 209.318 37.5466C209.563 38.1409 209.686 38.9983 209.686 40.1171C209.686 42.5642 208.969 45.2912 207.536 48.2977L206.992 49.4151C205.685 51.9962 204.082 54.4032 202.185 56.6364C202.64 53.0353 203.218 49.7139 203.917 46.6722C204.652 43.596 205.403 41.1664 206.172 39.3834C206.941 37.5654 207.64 36.6565 208.27 36.6565ZM310.709 68.6577C310.617 70.6996 310.203 72.2867 309.469 73.4186C308.665 74.712 307.668 75.3585 306.479 75.3585C305.431 75.3583 304.556 74.8864 303.857 73.9426C303.158 72.9637 302.809 71.4248 302.809 69.3274C302.809 67.0657 303.178 65.3113 303.916 64.0637L304.067 63.8221C304.906 62.5636 305.938 61.9339 307.162 61.9338C308.14 61.9338 308.98 62.4226 309.679 63.4011C310.378 64.3801 310.729 65.8323 310.729 67.7552L310.709 68.6577Z" fill="black"/>
<path d="M29.4705 0.845709L29.5176 1.49723C29.5397 1.80202 29.4706 2.06436 29.4303 2.19911C29.3822 2.36038 29.3194 2.51578 29.2596 2.64998C29.1395 2.91933 28.9843 3.20777 28.8394 3.46445C28.6922 3.72516 28.5366 3.98604 28.412 4.19623C28.2751 4.42698 28.1943 4.56573 28.1585 4.63578C26.2868 8.30738 24.4935 12.6141 23.8637 16.8536C23.2367 21.0752 23.7783 25.097 26.4006 28.4024C26.809 28.9172 27.2302 29.3578 27.7071 29.8174C28.2181 29.5609 28.7441 29.3214 29.0228 29.1894C30.6142 28.4353 32.0899 27.877 33.5864 27.4853C33.5618 27.4751 33.5372 27.4652 33.5132 27.4548C33.3476 27.3838 33.1527 27.291 32.9726 27.1734C32.8565 27.0975 32.4676 26.8416 32.2796 26.3554L32.0418 25.74L32.3715 25.1687C32.7924 24.4393 33.5692 24.2258 33.7507 24.1695C37.4798 23.0123 41.4349 22.9574 45.1807 24.0771C45.1614 24.0283 45.1428 23.9764 45.1274 23.9215L44.9569 23.3114L45.6335 22.2976L46.0256 22.1379C46.3933 21.9883 46.7736 21.9631 47.0303 21.9607C47.3145 21.958 47.6046 21.9842 47.8633 22.0183C48.3808 22.0866 48.8873 22.2029 49.1927 22.2861C51.9206 23.0283 54.3804 24.3273 56.2404 26.4562C56.3706 26.2282 56.5645 25.9067 56.7573 25.6675C56.9282 25.4554 57.2197 25.1403 57.6444 24.9457C58.1186 24.7285 58.6892 24.6979 59.23 24.9597L59.3377 25.016L59.6249 25.1771L59.808 25.4505C60.0656 25.8348 60.1879 26.2753 60.2559 26.611C60.3239 26.9469 60.3597 27.3008 60.3793 27.6318C62.9359 27.1118 65.8895 27.2245 68.1536 27.9663C68.6236 28.1203 69.5457 28.4276 70.4163 28.8088C70.8495 28.9985 71.3069 29.2224 71.7031 29.473C72.0488 29.6916 72.5549 30.055 72.8422 30.5902L73.1174 31.1027L72.9424 31.6575L72.9111 31.7558L72.6919 32.4502L72.1987 32.5991C73.9493 33.7151 75.4701 35.1087 76.855 36.6809C77.7263 36.4745 78.3622 36.3469 79.1508 36.0016C83.3042 34.1838 85.2602 31.0303 85.9709 27.2957C86.6737 23.6018 86.1448 19.356 85.1715 15.4011L85.0761 15.0194C85.0045 14.7379 84.7414 13.9973 84.451 13.1012C84.3181 12.6911 84.185 12.2626 84.0931 11.9056C84.0479 11.7303 84.0043 11.5398 83.9781 11.3619C83.9651 11.2738 83.9518 11.1586 83.9508 11.0333C83.9501 10.94 83.9519 10.6896 84.0648 10.413L84.3562 9.69926L85.1165 9.57348C85.5255 9.50586 85.8816 9.59158 86.1139 9.67502C86.3269 9.75155 86.5177 9.85537 86.6768 9.9651L86.743 10.0125L86.7438 10.013C91.3413 13.4228 95.2569 18.8293 97.2519 24.7066C99.2479 30.5866 99.3731 37.115 96.0911 42.6224C94.5711 45.173 92.092 47.3184 89.4194 48.966C87.3485 50.2427 85.102 51.257 82.9729 51.9468C83.3556 52.4747 83.7689 52.9961 84.1892 53.5008L84.3856 53.73C84.5809 53.953 84.7787 54.1656 85.0252 54.4454C85.3267 54.7875 85.6572 55.1838 85.9477 55.6412L86.3124 56.2154L86.0385 56.965L85.8761 57.4086L85.4761 57.6596C84.8432 58.0566 84.0971 58.0848 83.5676 58.0534C83.2099 58.0321 82.8395 57.9751 82.4765 57.8988C82.6544 58.4115 82.7873 58.9364 82.8261 59.4232C82.8582 59.8259 82.8426 60.3852 82.564 60.904C82.2299 61.5262 81.6312 61.8824 80.9532 61.9364C80.859 61.9438 80.7649 61.9449 80.6712 61.9415C80.695 62.2264 80.6894 62.514 80.6378 62.7901C80.566 63.1737 80.3785 63.6729 79.9138 64.0412C79.7612 64.1622 79.6002 64.2519 79.4368 64.3162C79.99 65.1471 80.6264 65.8907 81.4894 66.6785L81.6602 66.8323L81.6607 66.8329C82.0757 67.2022 82.8553 67.8643 83.5296 68.5816C83.8705 68.9443 84.2176 69.3548 84.4984 69.7888C84.7693 70.2075 85.0422 70.7442 85.1181 71.3474L85.1373 71.509C85.5091 74.9136 84.1549 78.9066 82.5719 81.6215L82.5635 81.6357L82.5549 81.6495C81.8195 82.8445 80.7866 83.8426 79.4387 84.3722C78.5691 88.5713 74.752 90.7615 71.342 91.7867C71.2934 92.0493 71.2606 92.2893 71.2523 92.5211C71.2373 92.9367 71.3079 93.2191 71.4556 93.4471L71.4793 93.4784C71.5029 93.5089 71.5285 93.5409 71.5701 93.5928C71.6404 93.6806 71.761 93.8307 71.8688 93.9987C72.0234 94.2398 72.5486 95.1264 71.9606 96.0613L71.694 96.4852L71.2178 96.6393C70.6996 96.8069 70.2041 96.7324 69.928 96.6756C69.6337 96.6151 69.3355 96.515 69.2072 96.475L69.2053 96.4742C68.6476 96.2993 68.153 96.0656 67.7113 95.786C67.2434 100.556 64.8997 104.511 60.7431 107.632C60.4789 107.831 59.9842 108.181 59.4509 108.477C59.1853 108.624 58.876 108.777 58.5591 108.887C58.278 108.985 57.8203 109.112 57.3258 109.034L56.7505 108.944L56.4594 108.533C55.3488 109.866 54.0048 111.049 52.3359 111.973L52.3345 111.974C52.1819 112.058 51.9077 112.208 51.5949 112.31C51.2896 112.41 50.7818 112.52 50.2229 112.338L49.4343 112.082L49.3401 111.545C47.5179 112.614 45.4865 113.388 43.3172 113.614C43.0641 113.64 42.7058 113.65 42.3479 113.614C42.1673 113.596 41.9524 113.562 41.7349 113.497C41.5346 113.438 41.2267 113.322 40.9492 113.077L40.3984 112.592L40.4932 111.864C40.4938 111.86 40.4944 111.854 40.4954 111.847C40.4962 111.84 40.4978 111.829 40.4992 111.818C40.5019 111.798 40.5066 111.761 40.514 111.719C40.5287 111.634 40.56 111.485 40.6365 111.317C40.8134 110.927 41.1009 110.708 41.294 110.59L41.2948 110.589C41.3683 110.544 41.4404 110.498 41.5116 110.452C41.4567 110.481 41.4011 110.509 41.3446 110.535C41.0712 110.663 40.6734 110.809 40.2196 110.805L40.1983 110.804L40.1773 110.804C39.8422 110.79 39.509 110.676 39.2344 110.485C38.961 110.295 38.5463 109.875 38.5298 109.202C38.4876 107.473 38.5952 106.422 38.3426 105.058L38.2871 104.781C37.7638 102.345 36.4552 100.339 34.7941 98.3643C34.6447 98.8904 34.4647 99.4231 34.2482 99.9416C33.7244 101.196 32.9398 102.488 31.7563 103.354L30.3138 104.409L29.659 102.746C29.5153 102.382 29.4192 101.973 29.349 101.648C29.2685 101.275 29.2243 101.028 29.1634 100.775L29.0926 100.504C28.922 99.8732 28.7141 99.2525 28.4702 98.6463L28.4694 98.6442C27.9079 97.2426 27.2774 96.1011 26.5794 94.5969C26.3122 94.0211 26.0573 93.455 25.8145 92.8931C25.7141 92.9919 25.6125 93.0646 25.5247 93.1158C25.3984 93.1895 25.279 93.2319 25.2718 93.2346C25.2482 93.2435 25.2525 93.2419 25.2645 93.237L24.7692 93.4549L24.2435 93.257C23.8368 93.1039 23.5157 92.8441 23.3178 92.6668C23.1052 92.4764 22.9168 92.2714 22.8039 92.1497L22.8028 92.1484C20.7245 89.9009 19.2701 87.2089 18.3809 84.3433C18.3848 84.6465 18.3977 84.9464 18.4221 85.2437L18.4412 85.4541L18.487 85.8678C18.5071 86.0566 18.5287 86.2797 18.5425 86.4872C18.5567 86.7011 18.5668 86.9499 18.5557 87.184C18.5502 87.3009 18.5382 87.4426 18.5099 87.5894C18.4857 87.7149 18.4299 87.9552 18.2786 88.1989L17.9731 88.6907L17.4081 88.817L17.2451 88.8536L16.8807 88.935L16.5252 88.8216C16.2643 88.7384 16.0211 88.63 15.7824 88.4652C15.5673 88.3168 15.3962 88.1485 15.2779 88.0316L15.2771 88.0305C12.1248 84.9093 10.1107 80.4374 9.24697 76.2771C9.11536 75.6431 9.01674 75.0283 8.94263 74.4238C8.90555 74.485 8.86792 74.5463 8.83058 74.6083L8.08345 75.8483C7.98875 76.0036 7.68257 76.5305 7.34224 76.9889C7.17493 77.2143 6.95182 77.4892 6.69423 77.7131C6.56526 77.8253 6.38231 77.9648 6.15206 78.0703C5.92298 78.1752 5.55283 78.2882 5.11404 78.199L4.58884 78.0924L4.27372 77.659C3.81803 77.0327 3.63982 76.1871 3.54759 75.6059C3.44593 74.9651 3.40444 74.3042 3.37441 73.9085C3.18042 71.3513 3.35904 68.9842 3.79161 66.6562C3.62353 66.8199 3.46345 66.9744 3.31408 67.1138C3.08973 67.323 2.87096 67.5186 2.68168 67.6691C2.5894 67.7425 2.47764 67.8265 2.35956 67.8994C2.30073 67.9357 2.21669 67.9841 2.11554 68.0279C2.03335 68.0635 1.83792 68.1422 1.58119 68.1539L0.931013 68.1836L0.117893 67.2826L0.0505591 66.8878C-0.0413793 66.3482 0.0101613 65.7675 0.0629485 65.3941C0.479384 62.4521 1.65592 59.107 3.27988 56.0649C4.11887 54.4932 5.09386 52.9717 6.17145 51.6101C5.58412 51.6644 4.99073 51.6867 4.45552 51.6456C4.09319 51.6178 3.70089 51.5574 3.33374 51.4275C2.97697 51.3012 2.51917 51.0649 2.195 50.603L1.83678 50.0927L2.12066 48.92L2.43794 48.6345C2.76732 48.338 3.30843 47.9836 3.73343 47.7088C4.22142 47.3933 4.64174 47.1296 4.90854 46.9366C6.34912 45.8947 7.84975 44.712 9.45732 43.6507C8.95354 43.5442 8.45633 43.4114 8.03793 43.2424C7.74177 43.1228 7.35983 42.9371 7.05029 42.6383C6.70522 42.3052 6.33176 41.689 6.54151 40.9086L6.70257 40.3094L7.25821 40.0325C7.70783 39.8084 8.21987 39.6307 8.66036 39.4868C9.14231 39.3293 9.52182 39.2167 9.87264 39.0887C10.9563 38.6934 12.0314 38.2961 13.0998 37.887C11.454 35.9216 10.1545 33.6833 9.4953 31.2207C7.91919 25.3331 9.60573 18.7357 12.3699 13.7565L12.3723 13.7519L12.375 13.7476C15.0937 8.9347 19.0028 4.90053 23.7283 2.0324L23.7312 2.03051C24.9146 1.31632 26.1091 0.619894 27.635 0.18207L28.2695 0L29.4705 0.845709ZM28.0153 1.50746C26.6807 1.8904 25.6225 2.49997 24.4439 3.21127L24.0221 3.47199C19.6876 6.19897 16.0969 9.9625 13.5757 14.4258L13.4518 14.6512C10.8704 19.4074 9.39694 25.5205 10.8274 30.8641C12.25 36.1782 17.0301 40.5081 21.7279 43.0967L22.0697 43.2833C18.7616 42.9401 16.4 41.124 14.0137 39.0139C12.7957 39.4851 11.572 39.9368 10.3453 40.3842L10.0501 40.4871C9.3392 40.7261 8.48873 40.9598 7.8731 41.2666C7.5781 42.3641 12.9427 42.7655 13.8068 42.7584C13.0598 43.048 12.476 43.4479 11.7906 43.8347C9.63092 45.053 7.72372 46.6026 5.71681 48.0541L5.5948 48.1403C4.94846 48.5882 3.79229 49.2706 3.36041 49.6593L3.32378 49.8109C4.10002 50.9166 9.02159 49.8101 10.2713 49.3972C5.88342 52.8237 2.20683 60.0861 1.4282 65.5872C1.38181 65.9154 1.35398 66.328 1.40989 66.6562L1.51843 66.7763C1.9331 66.7574 5.8118 62.5911 6.40011 62.0212C5.15637 65.9795 4.43314 69.636 4.74936 73.8043C4.81331 74.647 4.89946 76.1749 5.38876 76.8475C5.79562 76.9302 6.47514 75.8442 6.79361 75.3171L6.90592 75.1305C7.90759 73.4876 8.78176 71.8813 10.0895 70.4551C10.1231 72.364 10.2023 74.0948 10.5971 75.9969C11.4212 79.966 13.3353 84.1674 16.2472 87.0507C16.4891 87.2897 16.622 87.4051 16.944 87.5078L17.1072 87.4714C17.2762 87.1993 17.1092 85.9894 17.0692 85.5922C16.8174 83.0911 17.3275 80.5683 17.4873 78.08C17.0713 78.8106 16.2072 80.4846 15.7317 81.037C15.564 80.7298 15.4074 80.4224 15.2491 80.1105C12.7929 75.2703 14.1443 69.411 17.3348 65.1961C15.9171 68.9147 15.1286 72.6368 15.6706 76.614C15.7927 77.5107 16.0079 78.3987 16.1802 79.2933C16.3292 78.4101 16.785 77.296 17.0682 76.4168C17.7522 74.2945 18.5736 71.7197 19.6686 69.7635C19.3141 71.4131 18.9573 73.0643 18.7924 74.7639C18.2278 80.5906 19.777 86.8454 23.8153 91.2122L24.0124 91.4217C24.2076 91.6227 24.4381 91.8341 24.6669 91.9402L24.7291 91.9666C24.8152 91.9288 24.8633 91.9313 24.8708 91.8529C24.977 90.7375 24.6697 89.2547 24.6362 88.1609C24.605 87.1406 24.5634 85.9379 24.6774 84.9865C25.3778 88.2594 26.4184 90.9738 27.8305 94.0165C28.4778 95.4115 29.1734 96.6931 29.7495 98.1314C30.0517 98.8822 30.3025 99.6536 30.5004 100.438C30.634 100.987 30.7437 101.737 30.9421 102.241C32.741 100.925 33.5802 98.0978 33.9016 95.9721C33.9327 95.7682 33.9518 95.5628 33.9589 95.3562C36.444 98.0396 38.8409 100.793 39.6354 104.492C39.9946 106.164 39.8675 107.497 39.9082 109.168C39.9116 109.303 40.0549 109.395 40.1805 109.419L40.2328 109.426C40.7912 109.431 41.6135 108.759 42.0882 108.32L42.2684 108.15C44.5555 105.927 45.9214 101.642 46.1651 98.492C47.1846 103.594 46.7872 108.843 42.015 111.765C41.8763 111.85 41.8778 111.911 41.8607 112.042C42.1221 112.272 42.832 112.278 43.1739 112.242C46.7067 111.875 49.928 109.865 52.4032 107.464C52.1014 108.199 51.8012 108.973 51.3881 109.651C51.1896 109.948 50.5966 110.726 50.6493 111.027C50.9755 111.133 51.3658 110.933 51.6679 110.767C55.9877 108.375 57.9602 104.026 59.5578 99.6819C59.5038 102.17 59.2459 104.267 58.0048 106.462C57.8421 106.75 57.3857 107.454 57.5394 107.672C58.1593 107.769 59.4422 106.885 59.9149 106.529C64.7592 102.892 66.9071 98.1186 66.3278 92.0886C67.0564 93.5485 68.0214 94.6581 69.6177 95.1585C69.9405 95.2591 70.3886 95.4172 70.7271 95.3448L70.7933 95.3271C71.022 94.9632 70.5017 94.5102 70.2991 94.1983C69.6023 93.124 69.9073 91.8402 70.1666 90.6821C73.8919 89.7422 77.8016 87.5516 78.2068 83.3043C79.5314 83.0328 80.5634 82.2012 81.3092 81.0402L81.3806 80.9268C82.906 78.3109 84.1314 74.5449 83.7499 71.5198C83.5938 70.2801 81.6413 68.6616 80.7439 67.8628C78.6945 66.0403 77.7598 64.4326 76.6193 61.9821C80.1663 64.8114 79.6241 61.4961 78.2668 59.3882C83.3319 62.9267 81.2469 57.56 79.6081 55.4128C80.6311 55.9665 83.6103 57.1062 84.6931 56.5206L84.7432 56.4915L84.7839 56.3805C84.3768 55.7396 83.8408 55.2013 83.3413 54.6307L83.1302 54.3837C82.2936 53.3792 81.4448 52.2656 80.7972 51.132C85.7033 49.9452 91.9736 46.6096 94.7757 42.1306L94.9066 41.9162C100.936 31.7977 94.6438 17.5892 85.9224 11.1208C85.7691 11.0073 85.5366 10.9019 85.3414 10.9342L85.336 10.9511C85.2405 11.3454 86.2437 14.0162 86.4126 14.6795C88.518 22.9556 88.9784 33.2057 79.704 37.2648C78.5554 37.7677 77.5349 37.9122 76.3626 38.2255L76.1318 37.9516C73.7362 35.1417 71.0059 32.9736 67.3793 31.9024C68.3894 31.7525 69.3874 31.6068 70.405 31.5218C70.7453 31.4933 71.1162 31.4624 71.4537 31.3796L71.5962 31.3408L71.6272 31.2422C71.1949 30.4371 68.6561 29.582 67.7243 29.2766C65.1732 28.4408 61.558 28.4966 58.9846 29.4509C59.0363 28.6713 59.0948 26.9792 58.7018 26.2824L58.6625 26.2183C58.0386 25.8678 57.5334 27.0003 57.2687 27.4419C56.9642 27.9517 56.6847 28.488 56.3842 29.0038C54.744 26.2237 52.1906 24.5899 49.1286 23.7003L48.8307 23.6166C48.3099 23.4748 47.0524 23.209 46.5454 23.4154L46.4555 23.55C46.5337 23.8297 47.5214 24.6791 47.7806 24.9441L48.0648 25.2374C48.7263 25.9293 49.3699 26.6761 49.796 27.5295C48.3878 26.8373 47.1131 26.193 45.6206 25.6692L45.3189 25.566C41.6875 24.3562 37.8131 24.3528 34.1596 25.4866L34.0729 25.5146C33.8704 25.5833 33.6697 25.6782 33.566 25.858C33.7255 26.2705 36.2212 26.8346 36.7937 27.0263C37.7544 27.3481 38.5982 27.6941 39.5131 28.1247C35.7832 28.1692 32.999 28.8315 29.6135 30.4356L29.1158 30.6691C28.5579 30.9307 27.8693 31.2603 27.4946 31.5094C26.7443 30.8177 26.083 30.1932 25.4472 29.4169L25.3203 29.2597C19.5399 21.9736 23.0216 11.7793 26.7523 4.36052L26.9301 4.00958C27.1646 3.54963 28.1115 2.1202 28.1421 1.64025V1.59688L28.0153 1.50746Z" fill="white"/>
<path d="M27.8039 1.37714L27.9309 1.46654C27.962 1.89674 26.9608 3.40437 26.7188 3.87914C22.923 11.3247 19.237 21.7275 25.1091 29.1292C25.784 29.9799 26.483 30.6413 27.2833 31.3791C27.7828 31.047 28.8404 30.5715 29.4021 30.3053C32.7876 28.7012 35.5718 28.0388 39.3018 27.9942C38.3868 27.5636 37.5431 27.2178 36.5823 26.8961C36.0098 26.7044 33.5141 26.1403 33.3546 25.7278C33.4732 25.5223 33.7184 25.4275 33.9482 25.3562C37.6017 24.2225 41.4762 24.2258 45.1076 25.4356C46.7324 25.9769 48.0826 26.6608 49.5848 27.3992C49.0978 26.4239 48.3265 25.5878 47.5693 24.8137C47.3101 24.5486 46.3225 23.6994 46.2443 23.4198L46.3343 23.2849C46.8412 23.0786 48.0986 23.3445 48.6194 23.4862C51.8136 24.3553 54.4797 26.0035 56.1729 28.8733C56.4733 28.3575 56.7529 27.8213 57.0574 27.3115C57.3221 26.8699 57.8272 25.7374 58.4511 26.0879C58.8874 26.7388 58.8266 28.5157 58.7732 29.3204C61.3466 28.3661 64.9619 28.3105 67.513 29.1463C68.4448 29.4517 70.9838 30.3068 71.4159 31.112L71.3849 31.2104C71.0114 31.3232 70.5827 31.3589 70.1937 31.3914C69.1761 31.4764 68.1781 31.6223 67.1679 31.7721C70.9115 32.8779 73.7003 35.1522 76.1514 38.0951C77.3237 37.7818 78.344 37.6375 79.4926 37.1345C88.7671 33.0754 88.3066 22.8252 86.2012 14.5491C86.0297 13.8752 84.9972 11.1296 85.1302 10.8037C85.3254 10.7715 85.5577 10.8769 85.711 10.9904C94.4325 17.4588 100.725 31.6675 94.6951 41.786C91.9617 46.3728 85.5698 49.7961 80.5858 51.0017C81.2334 52.1353 82.0822 53.249 82.9188 54.2535C83.4739 54.9193 84.1072 55.5178 84.5725 56.2502L84.532 56.361C83.4941 57.0122 80.4359 55.8451 79.3967 55.2826C81.0355 57.4298 83.1207 62.7964 78.0557 59.2579C79.4129 61.3658 79.9551 64.681 76.408 61.8517C77.5485 64.3022 78.4831 65.9099 80.5325 67.7324C81.4299 68.5313 83.3827 70.1498 83.5387 71.3896C83.9202 74.4147 82.6946 78.1806 81.1692 80.7965C80.4183 82.0167 79.3629 82.8938 77.9956 83.174C77.5904 87.4214 73.6807 89.6119 69.9554 90.5518C69.6961 91.7099 69.3909 92.9935 70.0877 94.0678C70.2903 94.3798 70.8109 94.8329 70.582 95.1968C70.2376 95.3083 69.7508 95.1354 69.4064 95.028C67.8101 94.5277 66.8452 93.4182 66.1166 91.9583C66.6959 97.9883 64.548 102.762 59.7037 106.399C59.2311 106.754 57.9481 107.639 57.3282 107.542C57.1742 107.324 57.6307 106.62 57.7934 106.332C59.0346 104.136 59.2925 102.04 59.3465 99.5515C57.7489 103.895 55.7765 108.245 51.4567 110.636C51.1545 110.803 50.7642 111.002 50.4379 110.896C50.3852 110.596 50.9782 109.817 51.1767 109.521C51.5898 108.842 51.89 108.069 52.1918 107.334C49.7165 109.735 46.4953 111.744 42.9625 112.112C42.6206 112.148 41.9108 112.142 41.6494 111.912C41.6665 111.78 41.6651 111.72 41.8038 111.635C46.5759 108.713 46.9734 103.464 45.954 98.3617C45.7102 101.512 44.3443 105.796 42.0572 108.019C41.6424 108.422 40.6596 109.301 40.0214 109.295C39.8873 109.29 39.7008 109.192 39.697 109.038C39.6563 107.366 39.7833 106.034 39.424 104.361C38.6295 100.662 36.2328 97.9093 33.7477 95.2259C33.7405 95.4325 33.7213 95.6378 33.6902 95.8417C33.3688 97.9674 32.5296 100.795 30.7307 102.111C30.5324 101.607 30.4228 100.857 30.2892 100.308C30.0913 99.5232 29.8404 98.752 29.5383 98.0012C28.9621 96.5629 28.2664 95.2812 27.6191 93.8862C26.207 90.8435 25.1665 88.129 24.4661 84.8561C24.3521 85.8075 24.3937 87.0101 24.4249 88.0304C24.4584 89.1243 24.7659 90.6072 24.6596 91.7227C24.6521 91.801 24.604 91.7983 24.5179 91.8361C24.186 91.7112 23.8437 91.3405 23.6039 91.0819C19.5656 86.715 18.0165 80.4602 18.5813 74.6335C18.7461 72.9339 19.1028 71.2829 19.4573 69.6333C18.3623 71.5895 17.5408 74.1642 16.8568 76.2865C16.5736 77.1657 16.118 78.2798 15.969 79.1631C15.7967 78.2683 15.5815 77.3804 15.4594 76.4837C14.9174 72.5064 15.7056 68.7845 17.1234 65.0659C13.9329 69.2808 12.5815 75.1399 15.0378 79.9801C15.196 80.2921 15.3527 80.5993 15.5204 80.9065C15.9959 80.3542 16.86 78.6803 17.2759 77.9496C17.1162 80.4379 16.6061 82.9607 16.858 85.4618C16.8979 85.8588 17.0649 87.0689 16.8958 87.341L16.7328 87.3775C16.4107 87.2748 16.2778 87.1594 16.0359 86.9203C13.1239 84.037 11.2098 79.8356 10.3858 75.8665C9.99094 73.9643 9.91167 72.2337 9.87804 70.3247C8.57035 71.7508 7.69638 73.3573 6.69471 75.0001C6.46337 75.3796 5.6424 76.8118 5.17743 76.7173C4.68807 76.0448 4.60205 74.5167 4.5381 73.674C4.22188 69.5056 4.94507 65.8492 6.18882 61.8909C5.60054 62.4608 1.72184 66.6271 1.30717 66.646L1.19866 66.5258C1.14275 66.1976 1.17063 65.785 1.21702 65.4569C1.99565 59.9558 5.67205 52.6934 10.0599 49.267C8.8102 49.6799 3.88858 50.7863 3.11245 49.6805L3.14911 49.529C3.60977 49.1144 4.89443 48.3656 5.50553 47.9236C7.51244 46.4722 9.41948 44.9227 11.5791 43.7044C12.2646 43.3177 12.8485 42.9178 13.5956 42.6282C12.732 42.6353 7.36686 42.2339 7.66187 41.1363C8.36548 40.7857 9.37572 40.5304 10.134 40.2538C11.3606 39.8063 12.5845 39.3549 13.8025 38.8836C16.1888 40.9938 18.5502 42.8096 21.8583 43.1529L21.5165 42.9664C16.8187 40.3778 12.0386 36.0479 10.6161 30.7337C9.16288 25.3053 10.7066 19.0828 13.3643 14.2954C15.9668 9.6881 19.7091 5.82649 24.2326 3.08092C25.4111 2.36962 26.4694 1.76007 27.8039 1.37714Z" fill="#000100"/>
<path d="M73.3727 56.3103C73.4396 56.4501 73.6921 58.2608 73.7697 58.6149C74.2708 60.9015 75.0385 63.2538 76.1784 65.3046C76.8489 66.5234 77.7902 67.464 78.6923 68.4857C79.5674 69.4762 81.2393 70.2399 81.7579 71.373C82.4507 72.8876 80.1779 73.6878 79.3628 74.5825C78.7153 75.2935 78.4047 75.7804 77.9826 76.6852C78.0427 75.0572 78.4107 74.4677 79.1495 73.0578C78.7646 73.13 77.7834 73.4406 77.3573 73.5818C75.8569 74.0774 74.4943 73.3555 73.0263 72.8052C73.1931 73.1584 73.3788 73.6783 73.4794 74.0416C73.7508 75.0207 73.6165 75.596 73.1161 76.4245C71.2781 79.4692 71.4293 79.4915 67.9633 80.3302C66.1725 80.7637 64.0826 81.2154 62.3574 80.233C61.4134 79.6955 60.8988 78.8217 60.6483 77.8034C60.8813 77.0768 61.3344 76.3624 61.7044 75.6852C59.495 76.8358 58.996 77.9128 58.0891 80.135C57.9054 78.8129 58.5739 75.8776 59.181 74.6507C59.4052 74.1976 60.3181 72.7377 60.2945 72.4622C60.1007 72.4413 60.1034 72.4953 59.892 72.6324C58.7299 73.4021 57.925 74.2023 57.0661 75.2807C57.501 73.5048 58.2451 71.8194 59.2654 70.3021C57.9068 70.949 57.0128 71.7674 55.9128 72.758C55.9587 70.1819 56.8102 68.2777 58.3882 66.2789C58.8359 65.7124 59.6253 64.6813 59.9548 64.0655L59.9967 63.9858C60.2546 64.9136 60.3681 66.3944 60.4309 67.3661C61.5774 65.6874 61.882 63.5732 61.256 61.6395C60.6564 59.8204 60.258 59.8114 60.0298 57.657C61.2533 59.5299 62.0002 60.4984 64.2298 61.245C63.35 59.3399 63.1717 58.6447 63.3594 56.5808C65.3622 59.7061 67.8728 61.881 71.5266 62.8541C70.8621 61.2834 70.2605 59.5789 70.1511 57.8753C71.0951 59.3569 71.7318 60.0108 73.1526 60.9561C72.8953 59.2372 72.8838 57.9691 73.3727 56.3103Z" fill="white"/>
<path d="M65.7457 70.6745C67.1037 70.5327 68.8539 71.1526 69.9546 71.9271C71.245 72.8353 72.8568 74.4039 72.1559 76.1461C72.1282 76.2149 71.9871 76.1933 71.9209 76.1954C71.1876 75.8793 70.0444 75.3527 69.2611 75.5438C66.3271 76.2582 65.2346 73.6713 65.4176 71.2323C65.4392 70.9466 65.5067 70.8535 65.7457 70.6745Z" fill="#000100"/>
<path d="M67.1712 67.1687C69.7695 67.0269 72.1795 68.765 74.4888 69.6961C75.9096 70.2681 76.8617 70.1715 78.2257 69.5577C77.0264 70.8697 76.2148 71.2654 74.426 71.0001C73.3193 70.7293 72.4692 70.3268 71.4603 69.813C68.3677 68.2383 66.5128 67.7291 63.1352 68.8008C64.612 67.7609 65.3352 67.3247 67.1712 67.1687Z" fill="#000100"/>
<path d="M56.9816 31.9177C60.3294 31.1569 61.9116 30.9833 65.3047 31.8618C64.3681 32.0087 63.2972 32.1897 62.3903 32.4508C67.1427 33.3499 71.0754 36.0599 74.3422 39.525C74.8838 40.0996 75.3956 40.7189 75.9378 41.2803C74.7393 40.8121 74.0134 40.6052 72.8567 39.9519C72.1139 39.5322 71.1422 38.7858 70.4575 38.4429C72.2935 40.3403 73.3847 41.9614 74.6846 44.2862C76.1242 46.8617 77.6746 50.1867 79.6875 52.3819C77.7678 51.6422 76.449 50.8336 74.9911 49.3371C74.9351 52.4806 75.1046 54.1431 76.4949 57.0397C74.2423 54.9899 73.6143 53.2479 73.066 50.3709C72.4893 52.6506 72.3016 53.7584 71.1888 55.8818C71.9106 50.2994 70.8849 45.6424 66.6889 41.6178C68.6884 45.8107 68.9585 46.7709 69.0955 51.3918C68.6978 50.0661 68.2488 48.6295 67.6411 47.3839C66.379 44.7985 64.1088 42.305 61.8258 40.5674C60.6988 39.7094 59.5826 39.0775 58.4178 38.1561C60.4382 41.5745 61.1661 44.0633 60.9804 48.0991C60.9304 49.1916 60.8359 50.4208 60.5604 51.4833C60.5442 51.547 60.5266 51.6104 60.5091 51.6736C58.9303 44.9055 53.8939 44.4878 51.9343 38.717C50.8856 41.5349 50.9737 43.4326 52.1988 46.2536C49.9387 44.5476 47.7352 42.85 46.5572 40.1708C45.4817 37.7248 45.6757 36.0865 47.1104 33.9018C46.5979 37.4662 47.5333 39.174 49.6997 41.8854C48.8705 38.6287 49.7065 36.2319 51.6046 33.5453C53.0751 35.5267 54.0966 36.7045 56.4103 37.8242C56.0308 36.9629 55.7418 36.0416 55.4629 35.1421C59.5597 36.5863 61.5814 37.722 64.7409 40.6127C63.1466 37.7468 61.42 35.9365 58.5549 34.2765C58.1227 34.0258 57.5015 33.6648 57.0396 33.5101L57.0592 33.4693C57.59 33.4985 58.0707 33.6722 58.5819 33.7739C60.9966 34.2541 64.0129 35.303 66.0718 36.691L66.3162 36.5503C63.9988 33.9392 60.449 32.245 56.9816 31.9177Z" fill="white"/>
<path d="M66.3163 36.5498L67.0274 37.3266L66.0719 36.6906L66.3163 36.5498Z" fill="#000100"/>
<path d="M24.5293 4.7467C24.5327 4.76332 24.5635 4.8773 24.5576 4.8877C21.5491 10.2528 19.3013 16.5022 20.1751 22.7377C20.5116 25.1391 21.6527 28.1712 23.151 30.1072C26.0924 33.9079 30.8574 36.1122 35.5525 36.7157C36.8503 36.8825 38.2296 36.8936 39.5313 36.8886C37.6714 37.9765 36.5984 38.1188 34.4925 38.1001C36.3416 38.7964 38.5167 38.7454 40.4388 38.4551C38.2165 39.4685 37.0144 39.786 34.6222 39.6751C37.066 40.655 38.6204 40.3265 41.0042 40.2928C36.4618 41.6948 33.2118 41.1158 28.8394 39.5946C28.6711 39.5322 28.5039 39.4671 28.3377 39.3995C23.484 37.4247 19.6323 34.299 17.5509 29.397C17.8228 31.3836 18.686 33.2347 19.6187 34.9769C16.3261 31.772 15.0058 27.4166 15.1836 22.9188C15.3543 18.6027 16.7237 15.2611 18.855 11.5715C17.1879 13.0671 15.8114 15.0432 14.8232 17.0363C14.496 17.6962 14.2395 18.3747 13.8914 19.0205L13.9093 18.9351C15.3224 12.4108 19.044 8.26482 24.5293 4.7467Z" fill="white"/>
<path d="M88.4061 15.4299C92.2078 19.637 94.8973 25.334 94.744 31.1253C94.5468 38.5532 89.0733 43.6647 82.206 45.6237L81.95 45.4825C84.1885 44.683 85.6437 43.708 87.5276 42.2625C86.799 42.4758 86.1177 42.971 85.4222 43.2826C83.4606 44.1613 81.3673 44.7117 79.2308 44.944C78.7892 44.992 78.2497 45.0464 77.8236 45.1261C77.4178 44.4825 77.0018 43.8455 76.5757 43.2154C77.2915 43.4891 78.9702 44.0668 79.8183 43.9361C79.9601 43.9143 79.9864 43.7703 80.0168 43.6668C79.8676 42.9929 78.5792 41.8901 78.0957 41.2483C77.7216 40.7523 77.4981 40.5075 77.1457 39.9263C81.788 38.9459 84.6976 36.95 87.4216 33.012C90.2306 28.952 90.1975 23.4238 89.1901 18.7128C88.9463 17.6144 88.6857 16.5199 88.4061 15.4299Z" fill="white"/>
<path d="M92.279 28.7555L92.3485 28.812C92.62 29.35 92.6423 32.052 92.6126 32.677C92.4525 35.9912 90.2276 37.8466 87.8764 39.8807C87.8075 39.9495 87.8521 39.9188 87.7325 39.9554C87.7535 39.8226 88.605 38.5713 88.7589 38.3173C91.0264 34.5677 91.9063 33.149 92.279 28.7555Z" fill="#000100"/>
<path d="M25.9209 43.6063C29.2704 43.6418 32.3591 45.1091 35.3896 46.403C32.8206 46.4557 30.21 45.7448 27.7007 45.7594C24.5118 45.7779 21.8751 46.8252 19.6599 49.1033C20.8951 49.101 23.067 49.2533 24.2198 49.6312C23.6753 50.1331 22.7036 50.7051 22.0508 51.1242C23.3613 51.3853 24.467 51.5946 25.7409 51.9801C25.3761 52.2254 25.1281 52.4345 24.7906 52.7183C25.5969 53.1445 26.2571 53.3083 27.1203 53.5799C27.4811 54.0285 27.5874 54.2156 28.06 54.5398C28.2386 54.6261 28.4198 54.7071 28.6034 54.7826C30.2581 55.451 32.0925 54.7184 33.6415 54.0766C28.7891 58.8 23.0694 55.2112 18.7646 51.7875C19.4239 51.4789 20.2015 51.0514 20.8592 50.7126C19.7411 50.5736 18.1674 50.535 17.1715 50.0252C16.333 49.596 18.2541 47.5762 18.655 47.0984C20.6289 44.7459 22.8724 43.7872 25.9209 43.6063Z" fill="white"/>
<path d="M39.9015 53.8225L39.9714 53.9396C39.6451 56.3913 39.5942 58.1445 39.937 60.5938C40.1423 62.0606 39.7923 63.8967 39.4 65.3376C41.6621 63.2741 42.4203 61.5725 43.2172 58.7014C43.3508 59.4034 43.4716 60.3534 43.3918 61.0578C43.0673 63.923 41.9677 65.5929 42.8237 68.5707C43.4477 67.9515 43.9158 67.1649 44.4793 66.4862C45.0877 65.7536 45.7279 65.108 46.3382 64.3707C44.949 67.7854 44.1575 70.9145 44.6798 74.6318C44.8229 75.6507 44.9603 76.4637 45.3268 77.4455C43.5948 75.5913 42.9556 74.0429 42.5106 71.5459C42.4308 70.7005 42.2179 69.645 42.0492 68.8152C40.9701 71.5776 40.8753 72.9578 41.3066 75.9323C41.0223 75.5373 40.7502 75.1632 40.5008 74.7445C38.4253 71.2609 40.8206 68.1305 41.6451 64.8271C39.7134 66.52 38.8847 67.8171 36.1894 68.5052C38.0425 66.1932 38.4954 63.2693 38.5324 60.4041C37.4753 62.0438 36.9768 62.6306 35.4885 63.8885C35.9274 62.8926 36.5642 61.7595 36.9467 60.7637C37.8908 58.3061 38.6982 56.1852 39.9015 53.8225Z" fill="white"/>
<path d="M31.8743 58.9061C31.8639 59.0421 31.2544 60.3843 31.1315 60.6619C30.6309 61.7932 30.4059 62.9161 30.012 64.0681C31.035 63.0336 32.098 62.0396 33.1986 61.0888C31.2822 64.694 31.0518 69.229 32.1876 73.1009C32.3441 73.6343 32.5227 74.3595 32.81 74.8194L32.9011 74.7985C33.0437 72.6863 33.7577 70.8861 34.7024 69.0345C34.4625 72.0164 34.2476 73.7795 34.269 76.8289C34.3333 78.0228 34.4312 79.3388 34.4094 80.5246C30.2581 75.6628 28.9498 71.25 30.928 64.9621C30.4086 65.5091 28.1455 68.6166 27.632 68.3329C27.5149 67.9643 27.8153 66.8798 27.8942 66.4666C28.4819 63.3908 29.7011 61.1509 31.8743 58.9061Z" fill="white"/>
<path d="M72.4517 82.0925C72.4936 82.0864 72.5355 82.0817 72.5773 82.0783C74.0082 81.9459 75.0373 82.3065 76.1183 83.2073C76.0765 83.3728 76.0333 83.5375 75.988 83.7023C75.3891 85.8617 73.7975 87.013 71.919 88.0826C72.3808 87.3446 72.5389 86.8962 72.7124 86.0521C72.0588 86.1555 71.2241 86.4755 70.5833 86.7098C69.4077 87.1386 68.6724 87.3601 67.4333 87.5147C67.9073 87.1406 68.4158 86.645 68.8641 86.2284C68.1686 86.4141 67.6541 86.5275 66.9451 86.6572C66.4879 86.6673 66.176 86.6997 65.7195 86.7564C65.9916 86.5491 66.6298 86.1291 66.6541 85.7955C66.3279 85.7159 65.3994 85.8286 64.9187 85.8003C64.1712 85.7557 63.6877 85.6713 62.9537 85.545C64.2252 85.2695 64.3123 85.3323 65.6067 84.6989C63.9396 84.6544 62.5344 84.6024 61.8625 82.8447C64.9666 84.387 69.0444 82.4659 72.4517 82.0925Z" fill="white"/>
<path d="M12.0993 54.4343C12.0998 54.4978 11.2117 56.7643 11.098 57.0597C10.2524 59.2574 10.3258 61.3283 10.0558 63.6008C10.7418 62.8431 11.3611 62.0585 12.0748 61.3003C13.4194 59.872 14.7457 58.7853 16.2954 57.6033C15.098 59.4816 14.1384 60.929 12.7714 62.7081C10.9865 64.8986 9.38791 67.2539 7.58385 69.3606C7.54604 67.9068 7.4985 66.5138 7.63166 65.0627C7.98954 61.1632 9.46847 57.3602 12.0993 54.4343Z" fill="white"/>
<path d="M51.6595 71.1839C51.79 71.3466 51.4542 73.0374 51.4062 73.3757C50.9215 76.7905 51.5837 78.4678 52.3811 81.555C53.1849 78.5974 53.2906 77.3138 54.8927 74.4973C54.3392 76.8384 54.2304 79.0647 54.8387 81.4058C55.1703 82.5226 55.4505 83.2263 55.9509 84.2715C54.6422 83.1763 54.234 82.7428 53.3709 81.2404C52.9869 82.0885 52.826 83.0055 52.3878 83.8063C49.2728 79.3368 49.293 75.9484 51.6595 71.1839Z" fill="white"/>
<path d="M44.7602 51.9873C45.2747 52.1561 45.7925 52.3142 46.3136 52.4614C46.4145 54.4419 46.8993 55.8113 49.1919 56.1079C50.3882 56.2626 51.2139 55.6734 52.1049 54.9398C53.137 55.7483 53.4245 56.4477 53.8697 57.6446C53.9328 57.9248 54.0308 58.241 54.1098 58.521C52.5658 58.0197 51.6727 58.1006 50.0981 58.1382C48.7385 58.1706 47.1078 57.8878 46.1254 56.8684C44.7305 55.421 44.7465 53.8343 44.7602 51.9873Z" fill="white"/>
<path d="M36.9213 78.3301C36.9892 78.3915 37.0234 78.4496 37.0345 78.5468C37.1532 79.5833 37.3117 80.6199 37.6342 81.6165C38.0535 82.913 38.9199 83.9819 39.6159 85.14C39.5176 83.1487 39.5034 82.2114 40.0023 80.262C40.2367 82.1831 39.8758 82.6578 40.6968 84.853C41.1562 85.9948 41.7315 86.9226 42.4519 87.9132C40.5924 87.1934 39.4542 86.5857 38.1926 84.9347C36.9373 83.2925 36.5812 80.3497 36.9213 78.3301Z" fill="white"/>
<path d="M80.2435 76.2694C81.0336 76.2397 81.2537 76.343 82.0073 76.603C81.5873 78.3215 80.311 79.7611 78.8788 80.7389L78.2178 81.0684C77.9166 80.9914 77.5864 80.9232 77.3973 80.6768C77.4433 80.2912 77.741 79.9772 77.8592 79.6207C78.3285 78.1993 78.5115 76.6327 80.2435 76.2694Z" fill="white"/>
<path d="M62.9747 44.6974C63.0773 44.7488 63.0814 44.7524 63.159 44.8354C65.6412 47.4827 64.8796 51.1484 64.6918 54.4327L64.6311 54.5413L64.5527 54.5306C63.0199 51.9245 63.3663 51.1749 63.3562 48.3793C63.3582 47.142 63.2299 45.908 62.9747 44.6974Z" fill="white"/>
<path d="M35.6136 91.0336C35.6567 91.062 35.6977 91.0876 35.7334 91.1254C37.8977 93.4591 39.5599 97.2668 39.799 100.378C39.6223 100.253 39.1513 99.3547 39.0168 99.1021C37.6002 96.4363 36.3131 93.9817 35.6136 91.0336Z" fill="white"/>
<path d="M54.7742 91.429L54.8579 91.5263C54.9038 91.897 54.8113 92.7411 54.7674 93.1388C54.4507 95.962 52.5311 98.401 50.3771 100.127C50.7443 99.2457 51.0922 98.5286 51.4401 97.6116C51.9384 96.2469 51.8952 94.492 51.9188 93.0287C52.3732 94.3765 52.592 95.438 52.424 96.8553C53.8709 94.7627 54.198 93.9106 54.7742 91.429Z" fill="white"/>
<path d="M53.9626 44.8542C54.658 45.368 55.5372 46.2026 56.0855 46.8605C58.1187 49.3005 58.3185 51.3417 58.091 54.3298L57.9863 54.3115C57.4178 51.4853 57.0646 50.3112 55.5122 47.8163C55.1422 47.2224 54.1664 45.499 53.9626 44.8542Z" fill="white"/>
<path d="M36.3789 48.016L36.44 48.0762C36.4196 48.2846 35.862 49.0387 35.695 49.3847C35.3082 50.1857 35.1038 50.7576 34.8914 51.6213C35.4824 50.7816 35.8731 50.2757 36.5455 49.5165C35.8374 51.3852 35.6185 52.0942 35.2295 54.0926C35.1378 54.4512 35.095 54.8061 35.0427 55.1722C34.6761 54.2669 34.3465 53.5474 34.1357 52.5783C33.7775 52.6398 33.412 52.6941 33.0525 52.7509C33.9423 50.7637 34.8793 49.5537 36.3789 48.016Z" fill="white"/>
<path d="M58.0104 96.5697L58.0752 96.6852C57.716 99.1431 54.8644 102.818 53.151 104.708C52.9958 104.566 53.1051 104.174 53.1637 103.983C54.0436 101.105 56.4843 99.085 58.0104 96.5697Z" fill="white"/>
<path d="M27.8366 75.8191C27.8849 75.8569 27.9605 75.917 27.9661 75.9872C28.1038 77.6895 28.4246 79.3905 28.9245 81.0219C29.1836 81.8673 30.7938 85.1679 30.2692 85.8634C27.916 82.5952 27.3295 79.7807 27.8366 75.8191Z" fill="white"/>
<path d="M23.7642 65.839C23.8573 66.2056 23.7596 67.1766 23.7157 67.5602C23.6556 68.0754 23.5647 68.5859 23.4433 69.0903C23.1705 70.247 22.7717 71.451 22.4688 72.6077C22.3491 73.0648 21.8748 75.233 21.6469 75.4126C20.9923 71.85 22.6027 69.0106 23.7642 65.839Z" fill="white"/>
<path d="M64.2004 93.9293C64.2672 94.2223 64.2267 95.038 64.22 95.377C64.1673 97.9186 63.3691 99.5169 62.0625 101.607C62.3374 100.382 62.3947 99.2084 62.4184 97.9585C62.3839 96.5688 62.0551 95.1352 61.6304 93.8185C62.4792 94.9617 63.0045 96.1434 63.2233 97.5445C63.4893 96.5411 63.9039 94.8064 64.2004 93.9293Z" fill="white"/>
<path d="M47.2528 50.2163C48.4842 50.0114 49.8349 50.3256 50.8478 51.0491C51.66 51.6292 52.0912 52.3838 52.5736 53.2254L51.785 52.6383C51.0359 52.1709 50.0727 51.6871 49.2125 51.4805C47.7215 51.1223 47.3464 51.3852 46.0491 50.4584C46.5018 50.3416 46.7898 50.2866 47.2528 50.2163Z" fill="white"/>
<path d="M41.5442 31.8541C42.1577 31.8139 42.7479 31.8355 43.3613 31.8489C42.5728 32.1309 41.7558 32.3564 40.9772 32.6539C39.8411 33.0879 38.705 33.5871 37.587 34.0693L36.2441 34.5766C37.5943 33.0205 39.4928 32.0453 41.5442 31.8541Z" fill="white"/>
<path d="M66.3574 51.9283C66.6025 53.6612 66.7247 54.6948 67.3351 56.3952C67.4904 56.8264 68.321 58.9112 68.3642 59.1332L68.2778 59.1318C67.1265 57.826 66.1946 56.6022 66.0684 54.7892C66.0089 53.9273 66.0569 52.7393 66.3574 51.9283Z" fill="white"/>
<path d="M55.895 64.0144C55.9578 64.2123 55.8795 64.8011 55.8457 65.0266C55.5608 66.9376 53.8972 68.0686 52.263 68.6872C52.21 68.5028 52.6609 68.1713 52.8159 68.0322C54.1298 66.8512 55.0888 65.5749 55.895 64.0144Z" fill="white"/>
<path d="M48.8029 89.7947C49.0749 90.0372 49.1687 90.6145 49.188 90.9778C49.2733 92.5768 48.3511 93.724 47.3456 94.8389L47.2221 94.9057C47.2148 94.6754 47.7653 93.6437 47.8879 93.327C48.3559 92.1189 48.6684 91.0953 48.8029 89.7947Z" fill="white"/>
<path d="M44.8492 42.0158C44.9129 42.192 44.6723 43.3322 44.6157 43.6015C44.366 44.7927 44.5546 45.6167 44.5709 46.6873L44.5143 46.6973L44.3953 46.4812C43.5769 44.5904 43.3057 43.6256 44.8492 42.0158Z" fill="white"/>
<path d="M47.9984 52.4716C48.3176 52.3689 48.6618 52.5311 48.7858 52.8426C48.9097 53.1542 48.771 53.5085 48.4686 53.6531C48.2539 53.7558 48 53.7303 47.81 53.5871C47.62 53.4438 47.5256 53.2067 47.5653 52.9721C47.6049 52.7375 47.7719 52.5445 47.9984 52.4716Z" fill="white"/>
<path d="M82.2058 45.6239C81.9188 45.7018 81.4704 45.843 81.1963 45.7454C81.3482 45.6011 81.727 45.5386 81.9499 45.4827L82.2058 45.6239Z" fill="#BCBCBB"/>
</svg>
