<svg width="324" height="114" viewBox="0 0 324 114" fill="none" xmlns="http://www.w3.org/2000/svg">
<path d="M167.24 60.871C167.437 60.8055 167.731 60.7728 168.124 60.7728C169.237 60.7728 169.794 61.493 169.794 62.9334C169.794 63.7191 169.614 64.3902 169.254 64.9468C168.926 65.4706 168.402 65.7979 167.682 65.9289C164.703 66.4854 161.773 67.1074 158.892 67.7949L158.745 68.9735C157.828 75.4227 155.995 80.186 153.245 83.2633C150.528 86.3733 147.123 87.9283 143.031 87.9283C140.314 87.9283 138.202 87.2572 136.696 85.915C135.223 84.6055 134.487 82.9195 134.487 80.8571C134.487 77.4197 136.025 74.3587 139.103 71.6743C142.18 68.9898 146.845 66.6164 153.098 64.5539L154.08 57.63C154.211 56.8443 154.374 55.7967 154.571 54.4872C153.032 58.5466 151.068 61.5748 148.678 63.5718C146.288 65.5688 143.62 66.5673 140.674 66.5673C137.859 66.5673 135.714 65.7161 134.241 64.0138C132.768 62.2787 132.031 60.0526 132.031 57.3354C132.031 56.1241 132.162 54.7982 132.424 53.3578C132.686 51.8846 133.095 49.904 133.652 47.416C134.143 45.1571 134.503 43.3566 134.732 42.0143C134.994 40.6721 135.125 39.4772 135.125 38.4296C135.125 36.8582 134.519 36.0725 133.308 36.0725C132.359 36.0725 131.229 36.5472 129.92 37.4966C128.643 38.4132 127.284 39.8373 125.844 41.7688C125.386 42.3908 124.878 42.7018 124.322 42.7018C123.863 42.7018 123.454 42.489 123.094 42.0634C122.767 41.6051 122.603 41.0977 122.603 40.5411C122.603 39.5263 123.061 38.3805 123.978 37.1037C127.317 32.5205 131.229 30.2289 135.714 30.2289C137.711 30.2289 139.266 30.8345 140.379 32.0458C141.525 33.2571 142.098 35.0413 142.098 37.3984C142.098 39.1007 141.934 40.8522 141.607 42.6527C141.312 44.4205 140.854 46.6794 140.232 49.4293C139.839 51.0662 139.545 52.392 139.348 53.4069C139.152 54.389 139.053 55.2074 139.053 55.8622C139.053 57.5318 139.348 58.7267 139.937 59.4469C140.527 60.1671 141.558 60.5272 143.031 60.5272C144.799 60.5272 146.599 59.5615 148.433 57.63C150.299 55.6658 151.968 52.703 153.441 48.7418C154.947 44.7806 156.028 39.9355 156.682 34.2065C156.846 32.766 157.223 31.7512 157.812 31.1619C158.401 30.5399 159.252 30.2289 160.365 30.2289C162.657 30.2289 163.803 31.3747 163.803 33.6663C163.803 34.0592 163.786 34.3702 163.754 34.5993C163.066 39.4772 162.428 43.8804 161.839 47.8088C161.511 50.1659 161.151 52.5885 160.758 55.0765C160.398 57.5645 160.038 60.0853 159.678 62.6388C162.068 61.9841 164.589 61.3948 167.24 60.871ZM152.361 69.7101C144.439 72.46 140.478 75.7992 140.478 79.7277C140.478 80.6443 140.756 81.3973 141.312 81.9865C141.902 82.6085 142.72 82.9195 143.768 82.9195C148.318 82.9195 151.166 78.631 152.312 70.0538L152.361 69.7101Z" fill="black"/>
<path d="M172.338 72.1162C170.309 72.1162 168.688 71.3797 167.477 69.9065C166.266 68.4333 165.66 66.5018 165.66 64.112C165.66 61.493 166.266 59.0213 167.477 56.697C168.688 54.3399 170.292 52.4575 172.289 51.0498C174.319 49.6094 176.463 48.8892 178.722 48.8892C179.442 48.8892 179.917 49.0365 180.146 49.3311C180.408 49.593 180.621 50.0841 180.785 50.8043C181.472 50.6733 182.192 50.6079 182.945 50.6079C184.549 50.6079 185.351 51.1808 185.351 52.3266C185.351 53.014 185.106 54.6509 184.615 57.2372C183.862 61.0019 183.485 63.6209 183.485 65.0941C183.485 65.5852 183.6 65.978 183.829 66.2726C184.091 66.5673 184.418 66.7146 184.811 66.7146C185.433 66.7146 186.186 66.3217 187.07 65.5361C187.954 64.7176 189.149 63.4081 190.655 61.6076C191.048 61.1493 191.49 60.9201 191.981 60.9201C192.406 60.9201 192.734 61.1165 192.963 61.5094C193.225 61.9022 193.356 62.4424 193.356 63.1299C193.356 64.4394 193.045 65.4542 192.423 66.1744C191.081 67.844 189.656 69.2517 188.151 70.3975C186.645 71.5433 185.188 72.1162 183.78 72.1162C182.7 72.1162 181.701 71.7561 180.785 71.0359C179.901 70.283 179.23 69.2681 178.771 67.9913C177.069 70.7413 174.925 72.1162 172.338 72.1162ZM174.106 67.1565C174.826 67.1565 175.514 66.731 176.169 65.8798C176.823 65.0286 177.298 63.8992 177.593 62.4915L179.41 53.456C178.035 53.4887 176.758 54.0125 175.579 55.0274C174.434 56.0095 173.517 57.319 172.829 58.9559C172.142 60.5927 171.798 62.3278 171.798 64.1611C171.798 65.1759 171.995 65.9289 172.388 66.42C172.813 66.911 173.386 67.1565 174.106 67.1565Z" fill="black"/>
<path d="M210.235 66.7637C211.577 67.0256 212.248 67.7622 212.248 68.9735C212.248 69.7919 211.872 70.5285 211.119 71.1832C210.398 71.8052 209.351 72.1162 207.976 72.1162C205.619 72.1162 203.687 71.396 202.181 69.9556C200.708 68.4824 199.972 66.5673 199.972 64.2102C199.972 62.9334 200.626 62.0168 201.936 61.4603C203.376 60.8383 204.408 60.1835 205.03 59.496C205.652 58.7758 205.963 57.9083 205.963 56.8934C205.963 56.3041 205.832 55.8622 205.57 55.5676C205.341 55.2729 205.046 55.1256 204.686 55.1256C203.802 55.1256 202.82 55.764 201.739 57.0407C200.692 58.3175 199.71 59.9707 198.793 62.0004C197.876 63.9974 197.156 66.0598 196.632 68.1878C196.272 69.7264 195.847 70.774 195.356 71.3305C194.897 71.8543 194.161 72.1162 193.146 72.1162C192.131 72.1162 191.378 71.7561 190.887 71.0359C190.429 70.283 190.118 69.1371 189.954 67.5985C189.79 66.0598 189.708 63.801 189.708 60.8219C189.708 55.7803 190.216 50.526 191.231 45.0589C192.278 39.5918 193.801 35.0085 195.798 31.3092C197.827 27.5772 200.25 25.7112 203.065 25.7112C204.571 25.7112 205.782 26.3659 206.699 27.6754C207.649 28.9522 208.123 30.6218 208.123 32.6842C208.123 35.9907 207.157 39.4281 205.226 42.9964C203.294 46.5321 200.152 50.6733 195.798 55.4202C195.699 57.1226 195.65 58.874 195.65 60.6746C197.222 56.5824 199.022 53.6197 201.052 51.7864C203.082 49.9204 204.98 48.9874 206.748 48.9874C208.385 48.9874 209.695 49.5439 210.677 50.657C211.692 51.77 212.199 53.145 212.199 54.7819C212.199 56.5824 211.741 58.2356 210.824 59.7416C209.907 61.2475 208.336 62.5897 206.11 63.7682C206.306 64.7504 206.699 65.4378 207.288 65.8307C207.91 66.1908 208.893 66.5018 210.235 66.7637ZM202.034 30.5727C201.445 30.5727 200.79 31.4238 200.07 33.1262C199.35 34.7958 198.646 37.071 197.958 39.9519C197.304 42.8 196.763 45.9101 196.338 49.282C198.367 46.8922 200.037 44.2896 201.347 41.4742C202.689 38.6588 203.36 36.1052 203.36 33.8136C203.36 32.766 203.245 31.964 203.016 31.4075C202.787 30.8509 202.46 30.5727 202.034 30.5727Z" fill="black"/>
<path d="M263.619 60.9201C264.045 60.9201 264.372 61.1165 264.601 61.5094C264.863 61.9022 264.994 62.4424 264.994 63.1299C264.994 64.4066 264.683 65.4215 264.061 66.1744C262.228 68.3678 260.444 69.9065 258.709 70.7904C257.006 71.6743 254.944 72.1162 252.521 72.1162C250.819 72.1162 249.248 71.9034 247.807 71.4779C246.367 71.0523 244.615 70.4139 242.553 69.5627C240.687 68.7443 238.886 68.0732 237.151 67.5494C235.482 70.594 232.977 72.1162 229.638 72.1162C227.805 72.1162 226.348 71.707 225.268 70.8886C224.155 70.0374 223.598 68.9571 223.598 67.6476C223.598 66.0435 224.367 64.7176 225.906 63.67C227.445 62.5897 229.491 62.0495 232.044 62.0495H232.683L233.567 47.7597C233.763 44.486 234.352 41.7852 235.334 39.6572C236.316 37.5293 237.675 35.7124 239.41 34.2065C240.916 32.897 242.635 31.9149 244.566 31.2601C246.498 30.5727 248.544 30.2289 250.705 30.2289C254.24 30.2289 256.957 31.1456 258.856 32.9788C260.755 34.8121 261.704 37.2019 261.704 40.1483C261.704 42.1453 261.344 43.7658 260.624 45.0098C259.904 46.2211 258.905 46.8267 257.628 46.8267C256.712 46.8267 255.992 46.6139 255.468 46.1883C254.944 45.73 254.682 45.0916 254.682 44.2732C254.682 43.9786 254.748 43.4384 254.879 42.6527C255.075 41.7361 255.173 40.9176 255.173 40.1974C255.173 38.8224 254.764 37.7421 253.946 36.9564C253.16 36.138 251.949 35.7288 250.312 35.7288C247.431 35.7288 245.205 36.6781 243.633 38.5769C242.062 40.4429 241.063 43.3893 240.638 47.416L239.508 58.563C239.345 60.1344 239.132 61.493 238.87 62.6388C240.965 62.9989 243.584 63.5718 246.727 64.3575C248.56 64.8158 249.968 65.1432 250.95 65.3396C251.932 65.5361 252.8 65.6343 253.553 65.6343C255.451 65.6343 257.072 65.3233 258.414 64.7012C259.789 64.0465 261.082 63.0153 262.294 61.6076C262.686 61.1493 263.128 60.9201 263.619 60.9201Z" fill="black"/>
<path d="M267.049 72.1162C265.02 72.1162 263.399 71.3797 262.188 69.9065C260.977 68.4333 260.371 66.5018 260.371 64.112C260.371 61.493 260.977 59.0213 262.188 56.697C263.399 54.3399 265.003 52.4575 267 51.0498C269.03 49.6094 271.174 48.8892 273.433 48.8892C274.153 48.8892 274.628 49.0365 274.857 49.3311C275.119 49.593 275.332 50.0841 275.496 50.8043C276.183 50.6733 276.903 50.6079 277.656 50.6079C279.26 50.6079 280.063 51.1808 280.063 52.3266C280.063 53.014 279.817 54.6509 279.326 57.2372C278.573 61.0019 278.197 63.6209 278.197 65.0941C278.197 65.5852 278.311 65.978 278.54 66.2726C278.802 66.5673 279.13 66.7146 279.522 66.7146C280.144 66.7146 280.897 66.3217 281.781 65.5361C282.665 64.7176 283.86 63.4081 285.366 61.6076C285.759 61.1493 286.201 60.9201 286.692 60.9201C287.117 60.9201 287.445 61.1165 287.674 61.5094C287.936 61.9022 288.067 62.4424 288.067 63.1299C288.067 64.4394 287.756 65.4542 287.134 66.1744C285.792 67.844 284.368 69.2517 282.862 70.3975C281.356 71.5433 279.899 72.1162 278.491 72.1162C277.411 72.1162 276.412 71.7561 275.496 71.0359C274.612 70.283 273.941 69.2681 273.482 67.9913C271.78 70.7413 269.636 72.1162 267.049 72.1162ZM268.817 67.1565C269.538 67.1565 270.225 66.731 270.88 65.8798C271.534 65.0286 272.009 63.8992 272.304 62.4915L274.121 53.456C272.746 53.4887 271.469 54.0125 270.29 55.0274C269.145 56.0095 268.228 57.319 267.541 58.9559C266.853 60.5927 266.509 62.3278 266.509 64.1611C266.509 65.1759 266.706 65.9289 267.099 66.42C267.524 66.911 268.097 67.1565 268.817 67.1565Z" fill="black"/>
<path d="M293.799 72.1162C290.525 72.1162 288.135 70.8559 286.629 68.3351C285.156 65.8143 284.42 62.1641 284.42 57.3845C284.42 53.1614 284.943 48.5781 285.991 43.6348C287.039 38.6588 288.561 34.4356 290.558 30.9655C292.588 27.4626 294.994 25.7112 297.776 25.7112C299.282 25.7112 300.494 26.3659 301.41 27.6754C302.327 28.9522 302.785 30.6218 302.785 32.6842C302.785 35.3687 302.278 38.0367 301.263 40.6885C300.248 43.3402 298.562 46.1229 296.205 49.0365C297.809 49.1674 299.2 49.7076 300.379 50.657C301.59 51.6063 302.507 52.834 303.129 54.3399C303.784 55.8458 304.111 57.4827 304.111 59.2505C304.111 61.7058 303.62 63.9156 302.638 65.8798C301.688 67.844 300.428 69.3827 298.857 70.4957C297.285 71.5761 295.599 72.1162 293.799 72.1162ZM290.902 52.3757C293.062 48.4145 294.781 44.9279 296.058 41.9161C297.367 38.8715 298.022 36.1707 298.022 33.8136C298.022 32.766 297.891 31.964 297.629 31.4075C297.4 30.8509 297.073 30.5727 296.647 30.5727C295.992 30.5727 295.272 31.5548 294.486 33.519C293.733 35.4505 293.029 38.0859 292.375 41.4251C291.72 44.7643 291.229 48.4145 290.902 52.3757ZM293.995 66.8128C295.108 66.8128 296.041 66.2072 296.794 64.9959C297.58 63.7846 297.973 62.0168 297.973 59.6924C297.973 57.8919 297.645 56.5333 296.991 55.6167C296.336 54.7 295.55 54.2417 294.634 54.2417C293.488 54.2417 292.522 54.831 291.736 56.0095C290.951 57.188 290.558 58.9068 290.558 61.1656C290.558 63.1299 290.885 64.5703 291.54 65.4869C292.195 66.3709 293.013 66.8128 293.995 66.8128Z" fill="black"/>
<path d="M316.276 73.1966C314.574 73.1966 313.264 72.8037 312.347 72.018C311.463 71.2323 311.022 70.3484 311.022 69.3663C311.022 68.5151 311.333 67.7786 311.955 67.1565C312.577 66.5345 313.493 66.2235 314.704 66.2235C315.13 66.2235 315.621 66.2726 316.178 66.3708C316.767 66.4363 317.209 66.4854 317.504 66.5182C317.471 65.667 317.274 64.8649 316.914 64.112C316.587 63.359 316.161 62.6388 315.637 61.9513C315.114 61.2311 314.623 60.6091 314.164 60.0853C313.149 62.0168 312.135 63.6209 311.12 64.8977C310.138 66.1744 309.057 67.3857 307.879 68.5315C307.289 69.1208 306.667 69.4154 306.013 69.4154C305.489 69.4154 305.063 69.2354 304.736 68.8753C304.409 68.4824 304.245 68.0077 304.245 67.4512C304.245 66.7964 304.474 66.1908 304.932 65.6343L305.571 64.8486C307.371 62.6224 308.73 60.7891 309.647 59.3487C310.236 58.3993 310.825 57.2699 311.414 55.9604C312.036 54.6509 312.838 52.8667 313.821 50.6079C314.443 49.1674 315.736 48.4472 317.7 48.4472C318.617 48.4472 319.255 48.529 319.615 48.6927C319.975 48.8564 320.155 49.1183 320.155 49.4784C320.155 49.6748 320.09 49.9858 319.959 50.4114C319.828 50.837 319.648 51.2626 319.419 51.6882C318.829 52.8667 318.535 53.8652 318.535 54.6836C318.535 55.1747 318.698 55.7149 319.026 56.3041C319.386 56.8934 319.926 57.63 320.646 58.5139C321.694 59.8889 322.48 61.0674 323.003 62.0495C323.56 62.9989 323.838 64.0465 323.838 65.1923C323.838 66.5673 323.511 67.8768 322.856 69.1208C322.234 70.3321 321.35 71.3142 320.204 72.0671C319.059 72.8201 317.749 73.1966 316.276 73.1966Z" fill="black"/>
<path d="M27.4005 0L27.5311 0.0919676C27.5631 0.53451 26.5331 2.08539 26.2841 2.57378C22.3795 10.2329 18.5878 20.9342 24.6283 28.5482C25.3226 29.4233 26.0416 30.1037 26.8649 30.8627C27.3787 30.521 28.4666 30.0318 29.0445 29.758C32.5271 28.1079 35.3912 27.4265 39.2281 27.3807C38.2869 26.9377 37.419 26.582 36.4307 26.251C35.8418 26.0538 33.2745 25.4736 33.1104 25.0492C33.2324 24.8378 33.4846 24.7404 33.721 24.667C37.4793 23.5007 41.4649 23.5041 45.2005 24.7486C46.8719 25.3054 48.2609 26.009 49.8062 26.7686C49.3052 25.7653 48.5118 24.9052 47.7328 24.1089C47.4662 23.8362 46.4502 22.9626 46.3698 22.675L46.4624 22.5363C46.9838 22.324 48.2774 22.5975 48.8131 22.7433C52.0989 23.6374 54.8415 25.3329 56.5832 28.285C56.8923 27.7544 57.1799 27.2028 57.4932 26.6784C57.7655 26.2241 58.285 25.0591 58.9269 25.4196C59.3756 26.0892 59.3131 27.9171 59.2582 28.7449C61.9054 27.7632 65.6244 27.706 68.2487 28.5658C69.2072 28.88 71.819 29.7596 72.2636 30.5879L72.2316 30.6891C71.8475 30.8052 71.4064 30.8418 71.0063 30.8753C69.9595 30.9628 68.9329 31.1128 67.8937 31.2669C71.7447 32.4045 74.6135 34.744 77.1349 37.7713C78.3408 37.449 79.3904 37.3006 80.5719 36.7832C90.1125 32.6076 89.6388 22.0634 87.473 13.5498C87.2965 12.8566 86.2345 10.0323 86.3713 9.69704C86.5721 9.66384 86.811 9.77227 86.9687 9.88903C95.9404 16.543 102.414 31.1593 96.2106 41.5681C93.3988 46.2864 86.8235 49.808 81.6965 51.0482C82.3627 52.2143 83.2358 53.3599 84.0964 54.3932C84.6674 55.0781 85.319 55.6938 85.7976 56.4473L85.7559 56.5613C84.6882 57.2311 81.5423 56.0305 80.4733 55.4519C82.1591 57.6607 84.3041 63.1812 79.0938 59.5412C80.49 61.7096 81.0477 65.1199 77.3989 62.2094C78.5721 64.7302 79.5335 66.3841 81.6416 68.2589C82.5648 69.0806 84.5736 70.7456 84.7341 72.0209C85.1265 75.1328 83.8658 79.0067 82.2967 81.6977C81.5243 82.9529 80.4386 83.8552 79.032 84.1435C78.6152 88.5126 74.5933 90.766 70.7611 91.7329C70.4944 92.9242 70.1804 94.2446 70.8973 95.3498C71.1056 95.6707 71.6412 96.1368 71.4057 96.5112C71.0515 96.6258 70.5506 96.448 70.1964 96.3375C68.5543 95.8228 67.5617 94.6815 66.8122 93.1798C67.4082 99.3827 65.1986 104.293 60.2154 108.035C59.7291 108.4 58.4094 109.31 57.7717 109.21C57.6133 108.987 58.0829 108.262 58.2503 107.965C59.527 105.707 59.7924 103.55 59.8479 100.991C58.2045 105.459 56.1755 109.933 51.7318 112.394C51.4209 112.565 51.0194 112.77 50.6837 112.661C50.6295 112.352 51.2396 111.551 51.4437 111.246C51.8687 110.548 52.1775 109.753 52.4879 108.996C49.9417 111.466 46.6281 113.534 42.9939 113.911C42.6422 113.948 41.9121 113.943 41.6431 113.706C41.6608 113.57 41.6592 113.509 41.8019 113.421C46.711 110.415 47.1198 105.015 46.0712 99.7669C45.8204 103.007 44.4153 107.415 42.0627 109.701C41.6359 110.116 40.6249 111.02 39.9685 111.014C39.8304 111.009 39.6386 110.908 39.6348 110.75C39.5928 109.03 39.7235 107.659 39.3539 105.939C38.5366 102.133 36.0711 99.3015 33.5147 96.541C33.5074 96.7536 33.4876 96.9648 33.4555 97.1745C33.125 99.3612 32.2617 102.27 30.4112 103.623C30.2072 103.105 30.0944 102.333 29.957 101.769C29.7534 100.962 29.4954 100.168 29.1845 99.3959C28.5919 97.9164 27.8762 96.598 27.2103 95.1629C25.7577 92.033 24.6874 89.2406 23.9669 85.8738C23.8496 86.8525 23.8924 88.0896 23.9245 89.1392C23.959 90.2645 24.2752 91.7898 24.1659 92.9374C24.1582 93.0179 24.1087 93.0152 24.0202 93.0541C23.6787 92.9255 23.3266 92.5442 23.0799 92.2782C18.9258 87.7861 17.3323 81.3518 17.9132 75.3579C18.0828 73.6095 18.4497 71.9112 18.8144 70.2142C17.688 72.2266 16.8429 74.8751 16.1393 77.0583C15.848 77.9627 15.3793 79.1089 15.226 80.0174C15.0487 79.097 14.8274 78.1836 14.7018 77.2612C14.1443 73.1698 14.9551 69.3411 16.4135 65.5158C13.1315 69.8517 11.7414 75.8789 14.2681 80.8579C14.4309 81.1788 14.592 81.4949 14.7646 81.8109C15.2537 81.2427 16.1426 79.5208 16.5704 78.7692C16.4061 81.3289 15.8814 83.924 16.1405 86.4968C16.1816 86.9053 16.3533 88.15 16.1794 88.43L16.0117 88.4675C15.6804 88.3619 15.5437 88.2431 15.2948 87.9972C12.2993 85.0312 10.3303 80.7093 9.48267 76.6263C9.07646 74.6695 8.99491 72.8892 8.96032 70.9255C7.61512 72.3926 6.71607 74.0451 5.68567 75.7351C5.44769 76.1255 4.60317 77.5988 4.12486 77.5015C3.62147 76.8097 3.53297 75.2377 3.46719 74.3708C3.1419 70.083 3.88584 66.3216 5.16526 62.2497C4.56011 62.836 0.570137 67.1218 0.14357 67.1412L0.0319453 67.0176C-0.0255693 66.68 0.00311878 66.2556 0.0508392 65.918C0.851806 60.2592 4.63367 52.7884 9.14738 49.2637C7.86185 49.6884 2.79903 50.8266 2.00064 49.6891L2.03836 49.5332C2.51223 49.1067 3.83374 48.3365 4.46237 47.8818C6.52685 46.3887 8.4886 44.7948 10.7102 43.5416C11.4154 43.1437 12.016 42.7324 12.7846 42.4344C11.8961 42.4418 6.37709 42.0288 6.68057 40.8998C7.40437 40.5391 8.44359 40.2765 9.22358 39.9919C10.4854 39.5316 11.7444 39.0673 12.9973 38.5825C15.4521 40.7532 17.8813 42.6211 21.2843 42.9742L20.9327 42.7824C16.1 40.1195 11.1829 35.6654 9.71954 30.1988C8.22465 24.6146 9.81262 18.2136 12.5466 13.2889C15.2237 8.54939 19.0734 4.57699 23.7266 1.75267C24.939 1.02095 26.0276 0.393919 27.4005 0Z" fill="#000100"/>
<path d="M74.2767 56.5087C74.3454 56.6526 74.6052 58.5152 74.6851 58.8794C75.2005 61.2317 75.9903 63.6515 77.1628 65.761C77.8526 67.0148 78.8209 67.9824 79.7489 69.0334C80.6491 70.0524 82.369 70.838 82.9025 72.0036C83.6151 73.5616 81.277 74.3847 80.4386 75.3051C79.7725 76.0365 79.453 76.5374 79.0188 77.4681C79.0806 75.7934 79.4592 75.187 80.2191 73.7366C79.8232 73.811 78.8139 74.1305 78.3756 74.2757C76.8322 74.7855 75.4304 74.043 73.9203 73.4769C74.0919 73.8401 74.2829 74.375 74.3864 74.7487C74.6656 75.7559 74.5274 76.3477 74.0127 77.2C72.1219 80.3321 72.2775 80.355 68.712 81.2177C66.8699 81.6637 64.7201 82.1284 62.9453 81.1177C61.9742 80.5648 61.4449 79.6659 61.1872 78.6184C61.4269 77.871 61.893 77.1361 62.2736 76.4394C60.0008 77.6231 59.4875 78.731 58.5546 81.017C58.3657 79.6569 59.0534 76.6374 59.6778 75.3753C59.9084 74.9092 60.8476 73.4074 60.8232 73.124C60.6239 73.1025 60.6267 73.158 60.4093 73.299C59.2138 74.0909 58.3858 74.914 57.5023 76.0233C57.9496 74.1965 58.7151 72.4627 59.7646 70.9019C58.3671 71.5674 57.4474 72.4092 56.3159 73.4282C56.3631 70.7783 57.239 68.8194 58.8623 66.7634C59.3229 66.1806 60.1349 65.1199 60.4739 64.4864L60.5169 64.4044C60.7823 65.3588 60.899 66.8821 60.9636 67.8817C62.143 66.1549 62.4563 63.98 61.8124 61.9908C61.1956 60.1195 60.7857 60.1103 60.551 57.8941C61.8096 59.8207 62.5779 60.817 64.8715 61.585C63.9664 59.6253 63.783 58.9101 63.9761 56.787C66.0364 60.0019 68.619 62.2393 72.3776 63.2402C71.6941 61.6245 71.0751 59.8711 70.9626 58.1186C71.9337 59.6427 72.5887 60.3154 74.0502 61.2878C73.7856 59.5196 73.7738 58.2151 74.2767 56.5087Z" fill="white"/>
<path d="M66.4307 71.2854C67.8276 71.1395 69.6281 71.7772 70.7603 72.5739C72.0877 73.5082 73.7458 75.1218 73.0248 76.9139C72.9963 76.9847 72.8511 76.9625 72.7831 76.9646C72.0287 76.6395 70.8527 76.0977 70.0469 76.2943C67.0288 77.0292 65.9049 74.3681 66.0932 71.8591C66.1154 71.5653 66.1849 71.4695 66.4307 71.2854Z" fill="#000100"/>
<path d="M67.8972 67.6789C70.5701 67.533 73.0492 69.321 75.4248 70.2789C76.8863 70.8672 77.8657 70.7679 79.2689 70.1365C78.0352 71.4861 77.2003 71.8932 75.3602 71.6202C74.2218 71.3416 73.3472 70.9277 72.3095 70.399C69.1281 68.7792 67.22 68.2554 63.7455 69.3578C65.2646 68.2881 66.0086 67.8394 67.8972 67.6789Z" fill="#000100"/>
<path d="M57.4153 31.4164C60.8593 30.6338 62.4868 30.4552 65.9772 31.3589C65.0138 31.51 63.9121 31.6962 62.9792 31.9648C67.868 32.8897 71.9135 35.6774 75.274 39.242C75.8311 39.833 76.3576 40.4701 76.9154 41.0476C75.6825 40.5659 74.9357 40.3532 73.7459 39.6811C72.9818 39.2493 71.9822 38.4815 71.2779 38.1288C73.1665 40.0806 74.289 41.7482 75.6262 44.1397C77.1071 46.7892 78.702 50.2095 80.7726 52.4677C78.7978 51.7067 77.4412 50.875 75.9416 49.3356C75.8839 52.5692 76.0583 54.2794 77.4885 57.2591C75.1712 55.1505 74.5252 53.3585 73.9612 50.399C73.368 52.7441 73.1749 53.8837 72.0301 56.068C72.7727 50.3255 71.7176 45.5348 67.4012 41.3948C69.458 45.708 69.7358 46.6957 69.8768 51.4492C69.4677 50.0855 69.0058 48.6076 68.3806 47.3263C67.0824 44.6668 64.7471 42.1017 62.3985 40.3143C61.2392 39.4317 60.091 38.7816 58.8928 37.8338C60.9711 41.3502 61.7199 43.9104 61.5289 48.062C61.4775 49.1858 61.3802 50.4503 61.0968 51.5433C61.0801 51.6088 61.0621 51.674 61.044 51.739C59.42 44.7768 54.2391 44.3471 52.2233 38.4107C51.1445 41.3095 51.2352 43.2616 52.4954 46.1636C50.1704 44.4086 47.9038 42.6624 46.6919 39.9062C45.5856 37.39 45.7851 35.7048 47.261 33.4575C46.7337 37.1241 47.696 38.8809 49.9245 41.6701C49.0716 38.3199 49.9316 35.8544 51.8841 33.0907C53.3968 35.129 54.4476 36.3405 56.8277 37.4924C56.4373 36.6063 56.14 35.6586 55.8531 34.7333C60.0674 36.219 62.1471 37.3872 65.3972 40.3608C63.7572 37.4128 61.9811 35.5505 59.0338 33.8428C58.5892 33.585 57.9502 33.2136 57.4751 33.0544L57.4952 33.0125C58.0412 33.0426 58.5358 33.2213 59.0616 33.3258C61.5455 33.8198 64.6484 34.8988 66.7663 36.3267L67.0178 36.1819C64.6338 33.4959 60.9822 31.7531 57.4153 31.4164Z" fill="white"/>
<path d="M67.0177 36.1819L67.7492 36.9809L66.7663 36.3266L67.0177 36.1819Z" fill="#000100"/>
<path d="M24.0319 3.46591C24.0353 3.483 24.067 3.60025 24.061 3.61095C20.9662 9.12992 18.6539 15.5587 19.5527 21.973C19.8989 24.4433 21.0728 27.5624 22.6141 29.554C25.6398 33.4637 30.5415 35.7312 35.3713 36.352C36.7063 36.5237 38.1252 36.535 39.4642 36.5299C37.551 37.649 36.4472 37.7954 34.2809 37.7761C36.183 38.4924 38.4205 38.4399 40.3978 38.1413C38.1117 39.1839 36.8751 39.5104 34.4143 39.3963C36.9282 40.4044 38.5272 40.0664 40.9793 40.0318C36.3067 41.474 32.9635 40.8784 28.4656 39.3135C28.2925 39.2493 28.1205 39.1823 27.9495 39.1128C22.9566 37.0814 18.9943 33.866 16.8533 28.8234C17.133 30.867 18.0209 32.7712 18.9804 34.5634C15.5933 31.2665 14.2351 26.7862 14.4181 22.1593C14.5936 17.7194 16.0023 14.282 18.1948 10.4865C16.4799 12.025 15.0639 14.0578 14.0473 16.1081C13.7107 16.7869 13.4469 17.4849 13.0888 18.1491L13.1072 18.0613C14.5608 11.3499 18.3892 7.08495 24.0319 3.46591Z" fill="white"/>
<path d="M89.7409 14.4559C93.6516 18.7837 96.4183 24.6441 96.2606 30.6016C96.0578 38.2425 90.4272 43.5007 83.3629 45.5159L83.0996 45.3707C85.4023 44.5482 86.8992 43.5453 88.8372 42.0583C88.0877 42.2777 87.3868 42.7871 86.6714 43.1076C84.6535 44.0116 82.5002 44.5778 80.3024 44.8167C79.8481 44.8661 79.2931 44.922 78.8548 45.004C78.4374 44.3419 78.0095 43.6867 77.5712 43.0385C78.3075 43.3201 80.0343 43.9143 80.9067 43.7798C81.0526 43.7574 81.0797 43.6093 81.1109 43.5028C80.9574 42.8096 79.6321 41.6751 79.1348 41.015C78.7499 40.5048 78.52 40.2529 78.1574 39.655C82.9329 38.6465 85.9261 36.5933 88.7282 32.5423C91.6178 28.3659 91.5837 22.6791 90.5474 17.833C90.2966 16.7031 90.0285 15.5771 89.7409 14.4559Z" fill="white"/>
<path d="M93.7251 28.1633L93.7966 28.2214C94.0759 28.7748 94.0988 31.5544 94.0682 32.1973C93.9036 35.6066 91.6148 37.5153 89.1962 39.6077C89.1253 39.6784 89.1712 39.6469 89.0482 39.6845C89.0698 39.5479 89.9457 38.2607 90.104 37.9995C92.4366 34.1423 93.3417 32.6829 93.7251 28.1633Z" fill="#000100"/>
<path d="M25.4638 43.4402C28.9094 43.4767 32.0867 44.9861 35.2042 46.3172C32.5615 46.3714 29.876 45.6401 27.2947 45.6551C24.0144 45.6741 21.302 46.7514 19.0233 49.0949C20.2939 49.0926 22.5281 49.2492 23.714 49.638C23.1539 50.1542 22.1543 50.7427 21.4827 51.1738C22.8309 51.4424 23.9683 51.6577 25.2787 52.0542C24.9034 52.3066 24.6483 52.5217 24.3011 52.8137C25.1305 53.252 25.8097 53.4206 26.6977 53.6999C27.0688 54.1614 27.1781 54.3539 27.6644 54.6873C27.8481 54.7762 28.0345 54.8595 28.2233 54.9371C29.9255 55.6247 31.8125 54.8711 33.4059 54.2109C28.4144 59.0698 22.5306 55.378 18.1022 51.8561C18.7805 51.5386 19.5804 51.0989 20.2569 50.7504C19.1068 50.6074 17.4879 50.5677 16.4634 50.0432C15.6009 49.6017 17.5771 47.524 17.9895 47.0326C20.0201 44.6126 22.3279 43.6263 25.4638 43.4402Z" fill="white"/>
<path d="M39.8452 53.9502L39.9171 54.0708C39.5815 56.5927 39.5291 58.3963 39.8818 60.9158C40.0929 62.4247 39.7329 64.3134 39.3293 65.7957C41.6563 63.673 42.4363 61.9226 43.256 58.9691C43.3935 59.6913 43.5178 60.6685 43.4356 61.3931C43.1018 64.3405 41.9707 66.0583 42.8513 69.1216C43.4932 68.4846 43.9747 67.6754 44.5544 66.9773C45.1802 66.2236 45.8388 65.5596 46.4666 64.801C45.0376 68.3137 44.2233 71.5326 44.7606 75.3565C44.9078 76.4047 45.0491 77.241 45.4262 78.251C43.6445 76.3436 42.987 74.7508 42.5292 72.1821C42.4471 71.3124 42.228 70.2267 42.0545 69.373C40.9445 72.2147 40.847 73.6345 41.2907 76.6943C40.9982 76.288 40.7183 75.9032 40.4617 75.4725C38.3266 71.889 40.7907 68.6687 41.6389 65.2706C39.6517 67.012 38.7993 68.3464 36.0267 69.0542C37.9329 66.6758 38.3988 63.6681 38.4368 60.7206C37.3495 62.4074 36.8367 63.011 35.3056 64.3051C35.7571 63.2805 36.4122 62.1149 36.8057 61.0906C37.7769 58.5625 38.6074 56.3808 39.8452 53.9502Z" fill="white"/>
<path d="M31.588 59.1791C31.5773 59.319 30.9503 60.6997 30.8239 60.9853C30.309 62.149 30.0775 63.3041 29.6723 64.4892C30.7247 63.425 31.8181 62.4025 32.9504 61.4244C30.9789 65.1331 30.7419 69.7981 31.9103 73.7811C32.0713 74.3298 32.255 75.0759 32.5505 75.5489L32.6442 75.5274C32.791 73.3546 33.5255 71.5027 34.4973 69.5981C34.2505 72.6655 34.0294 74.4792 34.0515 77.6161C34.1175 78.8442 34.2183 80.198 34.1958 81.4177C29.9254 76.4165 28.5796 71.8771 30.6146 65.4088C30.0803 65.9715 27.7522 69.1681 27.224 68.8764C27.1036 68.4971 27.4126 67.3816 27.4938 66.9564C28.0983 63.7925 29.3524 61.4883 31.588 59.1791Z" fill="white"/>
<path d="M73.329 83.0307C73.372 83.0244 73.4151 83.0196 73.4582 83.0161C74.9301 82.8799 75.9887 83.2509 77.1007 84.1775C77.0577 84.3477 77.0132 84.5172 76.9667 84.6866C76.3506 86.908 74.7133 88.0924 72.7809 89.1927C73.256 88.4334 73.4186 87.9722 73.5971 87.1039C72.9247 87.2102 72.0661 87.5395 71.4069 87.7805C70.1976 88.2216 69.4412 88.4494 68.1665 88.6085C68.6542 88.2237 69.1772 87.7138 69.6384 87.2852C68.923 87.4762 68.3937 87.5929 67.6643 87.7263C67.1941 87.7367 66.8731 87.7701 66.4036 87.8284C66.6835 87.6152 67.3399 87.1831 67.3649 86.84C67.0294 86.758 66.0743 86.874 65.5798 86.8448C64.8108 86.799 64.3135 86.7122 63.5584 86.5823C64.8664 86.2989 64.956 86.3635 66.2876 85.7119C64.5726 85.6661 63.1271 85.6126 62.4359 83.8045C65.6291 85.391 69.8239 83.4148 73.329 83.0307Z" fill="white"/>
<path d="M11.2451 54.5791C11.2457 54.6444 10.3321 56.976 10.2152 57.2798C9.34521 59.5406 9.42072 61.6708 9.14301 64.0085C9.84867 63.2291 10.4857 62.422 11.2199 61.642C12.6031 60.1727 13.9674 59.0549 15.5616 57.839C14.3299 59.7712 13.3427 61.2601 11.9365 63.0902C10.1004 65.3436 8.45596 67.7664 6.60014 69.9336C6.56124 68.4381 6.51234 67.0051 6.64932 65.5124C7.01747 61.501 8.53883 57.589 11.2451 54.5791Z" fill="white"/>
<path d="M51.9408 71.8091C52.0751 71.9765 51.7296 73.7158 51.6802 74.0638C51.1817 77.5765 51.8628 79.3019 52.6831 82.4777C53.51 79.4353 53.6188 78.1148 55.2668 75.2176C54.6974 77.6258 54.5855 79.916 55.2112 82.3242C55.5523 83.4731 55.8406 84.1969 56.3553 85.2722C55.0091 84.1455 54.5892 83.6996 53.7013 82.1541C53.3062 83.0265 53.1408 83.9698 52.69 84.7936C49.4856 80.1959 49.5064 76.7103 51.9408 71.8091Z" fill="white"/>
<path d="M44.8431 52.0619C45.3723 52.2356 45.9051 52.3982 46.441 52.5496C46.5449 54.5869 47.0435 55.9956 49.402 56.3007C50.6326 56.4599 51.482 55.8537 52.3985 55.0991C53.4602 55.9308 53.756 56.6503 54.2139 57.8815C54.2788 58.1697 54.3797 58.495 54.4609 58.783C52.8727 58.2674 51.9539 58.3506 50.3341 58.3892C48.9355 58.4226 47.258 58.1317 46.2474 57.083C44.8126 55.5941 44.829 53.9619 44.8431 52.0619Z" fill="white"/>
<path d="M36.7801 79.1603C36.85 79.2235 36.8851 79.2832 36.8966 79.3833C37.0187 80.4495 37.1817 81.5158 37.5135 82.541C37.9448 83.8747 38.836 84.9743 39.5521 86.1655C39.4509 84.1171 39.4363 83.153 39.9495 81.1476C40.1907 83.1238 39.8194 83.6121 40.6639 85.8703C41.1366 87.0449 41.7283 87.9993 42.4694 89.0183C40.5565 88.2779 39.3857 87.6527 38.0879 85.9544C36.7966 84.2651 36.4303 81.2379 36.7801 79.1603Z" fill="white"/>
<path d="M81.3445 77.0403C82.1572 77.0097 82.3836 77.116 83.1588 77.3834C82.7267 79.1512 81.4139 80.6321 79.9406 81.6379L79.2606 81.9769C78.9508 81.8977 78.6111 81.8276 78.4166 81.574C78.4639 81.1774 78.7702 80.8544 78.8917 80.4877C79.3745 79.0255 79.5628 77.414 81.3445 77.0403Z" fill="white"/>
<path d="M63.5808 44.5628C63.6864 44.6156 63.6906 44.6194 63.7704 44.7048C66.3239 47.428 65.5403 51.1988 65.3472 54.5774L65.2847 54.6891L65.2041 54.6781C63.6273 51.9972 63.9837 51.2261 63.9733 48.3503C63.9754 47.0775 63.8434 45.8081 63.5808 44.5628Z" fill="white"/>
<path d="M35.4344 92.2289C35.4787 92.258 35.5209 92.2844 35.5575 92.3233C37.7839 94.7239 39.4939 98.6409 39.7398 101.842C39.558 101.713 39.0735 100.789 38.9352 100.529C37.478 97.7865 36.1539 95.2616 35.4344 92.2289Z" fill="white"/>
<path d="M55.1446 92.6352L55.2307 92.7352C55.2779 93.1166 55.1828 93.9848 55.1376 94.394C54.8118 97.2982 52.8372 99.8071 50.6214 101.583C50.9991 100.676 51.3569 99.9384 51.7149 98.9951C52.2275 97.5913 52.183 95.786 52.2073 94.2807C52.6747 95.6672 52.8998 96.7592 52.7269 98.2172C54.2154 96.0645 54.5518 95.1879 55.1446 92.6352Z" fill="white"/>
<path d="M54.3097 44.7244C55.0251 45.253 55.9295 46.1114 56.4935 46.7882C58.585 49.2982 58.7906 51.398 58.5565 54.4718L58.4489 54.453C57.864 51.5457 57.5007 50.3379 55.9038 47.7714C55.5231 47.1605 54.5194 45.3876 54.3097 44.7244Z" fill="white"/>
<path d="M36.2218 47.9768L36.2846 48.0387C36.2637 48.2531 35.69 49.0288 35.5183 49.3847C35.1203 50.2087 34.9101 50.7971 34.6916 51.6856C35.2996 50.8217 35.7014 50.3013 36.3931 49.5203C35.6648 51.4427 35.4396 52.172 35.0394 54.2277C34.9451 54.5966 34.901 54.9617 34.8472 55.3383C34.4701 54.407 34.1311 53.6668 33.9142 52.67C33.5457 52.7333 33.1697 52.7891 32.7999 52.8475C33.7152 50.8033 34.6792 49.5586 36.2218 47.9768Z" fill="white"/>
<path d="M58.4733 97.9234L58.54 98.0422C58.1705 100.571 55.2371 104.351 53.4745 106.296C53.3149 106.149 53.4273 105.746 53.4875 105.549C54.3928 102.588 56.9035 100.511 58.4733 97.9234Z" fill="white"/>
<path d="M27.4343 76.5776C27.484 76.6165 27.5618 76.6784 27.5675 76.7506C27.7092 78.5017 28.0393 80.2515 28.5535 81.9297C28.82 82.7994 30.4763 86.1947 29.9367 86.9101C27.5161 83.5482 26.9127 80.653 27.4343 76.5776Z" fill="white"/>
<path d="M23.2449 66.3111C23.3407 66.6883 23.2401 67.6872 23.195 68.0817C23.1332 68.6117 23.0396 69.1368 22.9148 69.6557C22.6341 70.8456 22.2239 72.0841 21.9123 73.274C21.7892 73.7443 21.3013 75.9747 21.0668 76.1595C20.3935 72.4946 22.05 69.5738 23.2449 66.3111Z" fill="white"/>
<path d="M64.8417 95.2074C64.9105 95.5089 64.8688 96.348 64.8619 96.6967C64.8077 99.3112 63.9866 100.955 62.6425 103.105C62.9253 101.845 62.9843 100.638 63.0086 99.3522C62.9732 97.9227 62.6349 96.448 62.198 95.0935C63.0711 96.2695 63.6115 97.4851 63.8366 98.9264C64.1103 97.8942 64.5368 96.1097 64.8417 95.2074Z" fill="white"/>
<path d="M47.4076 50.2399C48.6743 50.0291 50.0637 50.3523 51.1057 51.0966C51.9412 51.6934 52.3848 52.4696 52.881 53.3353L52.0698 52.7314C51.2992 52.2506 50.3084 51.7529 49.4235 51.5404C47.8897 51.1719 47.5039 51.4423 46.1693 50.489C46.635 50.3688 46.9312 50.3123 47.4076 50.2399Z" fill="white"/>
<path d="M41.5355 31.3515C42.1666 31.3102 42.7737 31.3323 43.4047 31.3462C42.5936 31.6362 41.7532 31.8682 40.9522 32.1742C39.7836 32.6206 38.6148 33.1343 37.4648 33.6302L36.0834 34.1521C37.4723 32.5514 39.4253 31.5482 41.5355 31.3515Z" fill="white"/>
<path d="M67.0602 52.0016C67.3123 53.7841 67.438 54.8474 68.066 56.5965C68.2257 57.0401 69.0801 59.1848 69.1246 59.4131L69.0356 59.4116C67.8513 58.0684 66.8927 56.8095 66.7629 54.9445C66.7017 54.0578 66.751 52.8358 67.0602 52.0016Z" fill="white"/>
<path d="M56.2976 64.4343C56.3622 64.6378 56.2816 65.2435 56.2469 65.4755C55.9538 67.4413 54.2425 68.6048 52.5614 69.2411C52.5068 69.0514 52.9707 68.7104 53.1302 68.5673C54.4817 67.3524 55.4682 66.0396 56.2976 64.4343Z" fill="white"/>
<path d="M49.0021 90.9542C49.2818 91.2036 49.3784 91.7975 49.3983 92.1712C49.486 93.816 48.5373 94.9962 47.5029 96.143L47.3759 96.2118C47.3684 95.9749 47.9347 94.9135 48.0608 94.5878C48.5423 93.3451 48.8637 92.292 49.0021 90.9542Z" fill="white"/>
<path d="M44.9349 41.8047C45.0004 41.9859 44.7529 43.1589 44.6947 43.4359C44.4378 44.6612 44.6318 45.5088 44.6486 46.6102L44.5903 46.6205L44.468 46.3982C43.6261 44.4531 43.3471 43.4606 44.9349 41.8047Z" fill="white"/>
<path d="M48.175 52.5604C48.5033 52.4548 48.8574 52.6216 48.9849 52.942C49.1124 53.2625 48.9698 53.627 48.6587 53.7758C48.4378 53.8814 48.1766 53.8552 47.9811 53.7079C47.7857 53.5605 47.6886 53.3166 47.7294 53.0752C47.7702 52.8339 47.942 52.6354 48.175 52.5604Z" fill="white"/>
<path d="M83.3629 45.5159C83.0677 45.596 82.6065 45.7413 82.3245 45.6408C82.4808 45.4924 82.8704 45.4281 83.0997 45.3706L83.3629 45.5159Z" fill="#BCBCBB"/>
</svg>
