<svg width="1571" height="651" viewBox="0 0 1571 651" fill="none" xmlns="http://www.w3.org/2000/svg">
<rect width="1571" height="651" fill="white"/>
<path d="M815.2 369.4C815.8 369.2 816.7 369.1 817.9 369.1C821.3 369.1 823 371.3 823 375.7C823 378.1 822.45 380.15 821.35 381.85C820.35 383.45 818.75 384.45 816.55 384.85C807.45 386.55 798.5 388.45 789.7 390.55L789.25 394.15C786.45 413.85 780.85 428.4 772.45 437.8C764.15 447.3 753.75 452.05 741.25 452.05C732.95 452.05 726.5 450 721.9 445.9C717.4 441.9 715.15 436.75 715.15 430.45C715.15 419.95 719.85 410.6 729.25 402.4C738.65 394.2 752.9 386.95 772 380.65L775 359.5C775.4 357.1 775.9 353.9 776.5 349.9C771.8 362.3 765.8 371.55 758.5 377.65C751.2 383.75 743.05 386.8 734.05 386.8C725.45 386.8 718.9 384.2 714.4 379C709.9 373.7 707.65 366.9 707.65 358.6C707.65 354.9 708.05 350.85 708.85 346.45C709.65 341.95 710.9 335.9 712.6 328.3C714.1 321.4 715.2 315.9 715.9 311.8C716.7 307.7 717.1 304.05 717.1 300.85C717.1 296.05 715.25 293.65 711.55 293.65C708.65 293.65 705.2 295.1 701.2 298C697.3 300.8 693.15 305.15 688.75 311.05C687.35 312.95 685.8 313.9 684.1 313.9C682.7 313.9 681.45 313.25 680.35 311.95C679.35 310.55 678.85 309 678.85 307.3C678.85 304.2 680.25 300.7 683.05 296.8C693.25 282.8 705.2 275.8 718.9 275.8C725 275.8 729.75 277.65 733.15 281.35C736.65 285.05 738.4 290.5 738.4 297.7C738.4 302.9 737.9 308.25 736.9 313.75C736 319.15 734.6 326.05 732.7 334.45C731.5 339.45 730.6 343.5 730 346.6C729.4 349.6 729.1 352.1 729.1 354.1C729.1 359.2 730 362.85 731.8 365.05C733.6 367.25 736.75 368.35 741.25 368.35C746.65 368.35 752.15 365.4 757.75 359.5C763.45 353.5 768.55 344.45 773.05 332.35C777.65 320.25 780.95 305.45 782.95 287.95C783.45 283.55 784.6 280.45 786.4 278.65C788.2 276.75 790.8 275.8 794.2 275.8C801.2 275.8 804.7 279.3 804.7 286.3C804.7 287.5 804.65 288.45 804.55 289.15C802.45 304.05 800.5 317.5 798.7 329.5C797.7 336.7 796.6 344.1 795.4 351.7C794.3 359.3 793.2 367 792.1 374.8C799.4 372.8 807.1 371 815.2 369.4ZM769.75 396.4C745.55 404.8 733.45 415 733.45 427C733.45 429.8 734.3 432.1 736 433.9C737.8 435.8 740.3 436.75 743.5 436.75C757.4 436.75 766.1 423.65 769.6 397.45L769.75 396.4ZM830.773 403.75C824.573 403.75 819.623 401.5 815.923 397C812.223 392.5 810.373 386.6 810.373 379.3C810.373 371.3 812.223 363.75 815.923 356.65C819.623 349.45 824.523 343.7 830.623 339.4C836.823 335 843.373 332.8 850.273 332.8C852.473 332.8 853.923 333.25 854.623 334.15C855.423 334.95 856.073 336.45 856.573 338.65C858.673 338.25 860.873 338.05 863.173 338.05C868.073 338.05 870.523 339.8 870.523 343.3C870.523 345.4 869.773 350.4 868.273 358.3C865.973 369.8 864.823 377.8 864.823 382.3C864.823 383.8 865.173 385 865.873 385.9C866.673 386.8 867.673 387.25 868.873 387.25C870.773 387.25 873.073 386.05 875.773 383.65C878.473 381.15 882.123 377.15 886.723 371.65C887.923 370.25 889.273 369.55 890.773 369.55C892.073 369.55 893.073 370.15 893.773 371.35C894.573 372.55 894.973 374.2 894.973 376.3C894.973 380.3 894.023 383.4 892.123 385.6C888.023 390.7 883.673 395 879.073 398.5C874.473 402 870.023 403.75 865.723 403.75C862.423 403.75 859.373 402.65 856.573 400.45C853.873 398.15 851.823 395.05 850.423 391.15C845.223 399.55 838.673 403.75 830.773 403.75ZM836.173 388.6C838.373 388.6 840.473 387.3 842.473 384.7C844.473 382.1 845.923 378.65 846.823 374.35L852.373 346.75C848.173 346.85 844.273 348.45 840.673 351.55C837.173 354.55 834.373 358.55 832.273 363.55C830.173 368.55 829.123 373.85 829.123 379.45C829.123 382.55 829.723 384.85 830.923 386.35C832.223 387.85 833.973 388.6 836.173 388.6ZM946.532 387.4C950.632 388.2 952.682 390.45 952.682 394.15C952.682 396.65 951.532 398.9 949.232 400.9C947.032 402.8 943.832 403.75 939.632 403.75C932.432 403.75 926.532 401.55 921.932 397.15C917.432 392.65 915.182 386.8 915.182 379.6C915.182 375.7 917.182 372.9 921.182 371.2C925.582 369.3 928.732 367.3 930.632 365.2C932.532 363 933.482 360.35 933.482 357.25C933.482 355.45 933.082 354.1 932.282 353.2C931.582 352.3 930.682 351.85 929.582 351.85C926.882 351.85 923.882 353.8 920.582 357.7C917.382 361.6 914.382 366.65 911.582 372.85C908.782 378.95 906.582 385.25 904.982 391.75C903.882 396.45 902.582 399.65 901.082 401.35C899.682 402.95 897.432 403.75 894.332 403.75C891.232 403.75 888.932 402.65 887.432 400.45C886.032 398.15 885.082 394.65 884.582 389.95C884.082 385.25 883.832 378.35 883.832 369.25C883.832 353.85 885.382 337.8 888.482 321.1C891.682 304.4 896.332 290.4 902.432 279.1C908.632 267.7 916.032 262 924.632 262C929.232 262 932.932 264 935.732 268C938.632 271.9 940.082 277 940.082 283.3C940.082 293.4 937.132 303.9 931.232 314.8C925.332 325.6 915.732 338.25 902.432 352.75C902.132 357.95 901.982 363.3 901.982 368.8C906.782 356.3 912.282 347.25 918.482 341.65C924.682 335.95 930.482 333.1 935.882 333.1C940.882 333.1 944.882 334.8 947.882 338.2C950.982 341.6 952.532 345.8 952.532 350.8C952.532 356.3 951.132 361.35 948.332 365.95C945.532 370.55 940.732 374.65 933.932 378.25C934.532 381.25 935.732 383.35 937.532 384.55C939.432 385.65 942.432 386.6 946.532 387.4ZM921.482 276.85C919.682 276.85 917.682 279.45 915.482 284.65C913.282 289.75 911.132 296.7 909.032 305.5C907.032 314.2 905.382 323.7 904.082 334C910.282 326.7 915.382 318.75 919.382 310.15C923.482 301.55 925.532 293.75 925.532 286.75C925.532 283.55 925.182 281.1 924.482 279.4C923.782 277.7 922.782 276.85 921.482 276.85ZM1109.6 369.55C1110.9 369.55 1111.9 370.15 1112.6 371.35C1113.4 372.55 1113.8 374.2 1113.8 376.3C1113.8 380.2 1112.85 383.3 1110.95 385.6C1105.35 392.3 1099.9 397 1094.6 399.7C1089.4 402.4 1083.1 403.75 1075.7 403.75C1070.5 403.75 1065.7 403.1 1061.3 401.8C1056.9 400.5 1051.55 398.55 1045.25 395.95C1039.55 393.45 1034.05 391.4 1028.75 389.8C1023.65 399.1 1016 403.75 1005.8 403.75C1000.2 403.75 995.752 402.5 992.452 400C989.052 397.4 987.352 394.1 987.352 390.1C987.352 385.2 989.702 381.15 994.402 377.95C999.102 374.65 1005.35 373 1013.15 373H1015.1L1017.8 329.35C1018.4 319.35 1020.2 311.1 1023.2 304.6C1026.2 298.1 1030.35 292.55 1035.65 287.95C1040.25 283.95 1045.5 280.95 1051.4 278.95C1057.3 276.85 1063.55 275.8 1070.15 275.8C1080.95 275.8 1089.25 278.6 1095.05 284.2C1100.85 289.8 1103.75 297.1 1103.75 306.1C1103.75 312.2 1102.65 317.15 1100.45 320.95C1098.25 324.65 1095.2 326.5 1091.3 326.5C1088.5 326.5 1086.3 325.85 1084.7 324.55C1083.1 323.15 1082.3 321.2 1082.3 318.7C1082.3 317.8 1082.5 316.15 1082.9 313.75C1083.5 310.95 1083.8 308.45 1083.8 306.25C1083.8 302.05 1082.55 298.75 1080.05 296.35C1077.65 293.85 1073.95 292.6 1068.95 292.6C1060.15 292.6 1053.35 295.5 1048.55 301.3C1043.75 307 1040.7 316 1039.4 328.3L1035.95 362.35C1035.45 367.15 1034.8 371.3 1034 374.8C1040.4 375.9 1048.4 377.65 1058 380.05C1063.6 381.45 1067.9 382.45 1070.9 383.05C1073.9 383.65 1076.55 383.95 1078.85 383.95C1084.65 383.95 1089.6 383 1093.7 381.1C1097.9 379.1 1101.85 375.95 1105.55 371.65C1106.75 370.25 1108.1 369.55 1109.6 369.55ZM1120.08 403.75C1113.88 403.75 1108.93 401.5 1105.23 397C1101.53 392.5 1099.68 386.6 1099.68 379.3C1099.68 371.3 1101.53 363.75 1105.23 356.65C1108.93 349.45 1113.83 343.7 1119.93 339.4C1126.13 335 1132.68 332.8 1139.58 332.8C1141.78 332.8 1143.23 333.25 1143.93 334.15C1144.73 334.95 1145.38 336.45 1145.88 338.65C1147.98 338.25 1150.18 338.05 1152.48 338.05C1157.38 338.05 1159.83 339.8 1159.83 343.3C1159.83 345.4 1159.08 350.4 1157.58 358.3C1155.28 369.8 1154.13 377.8 1154.13 382.3C1154.13 383.8 1154.48 385 1155.18 385.9C1155.98 386.8 1156.98 387.25 1158.18 387.25C1160.08 387.25 1162.38 386.05 1165.08 383.65C1167.78 381.15 1171.43 377.15 1176.03 371.65C1177.23 370.25 1178.58 369.55 1180.08 369.55C1181.38 369.55 1182.38 370.15 1183.08 371.35C1183.88 372.55 1184.28 374.2 1184.28 376.3C1184.28 380.3 1183.33 383.4 1181.43 385.6C1177.33 390.7 1172.98 395 1168.38 398.5C1163.78 402 1159.33 403.75 1155.03 403.75C1151.73 403.75 1148.68 402.65 1145.88 400.45C1143.18 398.15 1141.13 395.05 1139.73 391.15C1134.53 399.55 1127.98 403.75 1120.08 403.75ZM1125.48 388.6C1127.68 388.6 1129.78 387.3 1131.78 384.7C1133.78 382.1 1135.23 378.65 1136.13 374.35L1141.68 346.75C1137.48 346.85 1133.58 348.45 1129.98 351.55C1126.48 354.55 1123.68 358.55 1121.58 363.55C1119.48 368.55 1118.43 373.85 1118.43 379.45C1118.43 382.55 1119.03 384.85 1120.23 386.35C1121.53 387.85 1123.28 388.6 1125.48 388.6ZM1201.79 403.75C1191.79 403.75 1184.49 399.9 1179.89 392.2C1175.39 384.5 1173.14 373.35 1173.14 358.75C1173.14 345.85 1174.74 331.85 1177.94 316.75C1181.14 301.55 1185.79 288.65 1191.89 278.05C1198.09 267.35 1205.44 262 1213.94 262C1218.54 262 1222.24 264 1225.04 268C1227.84 271.9 1229.24 277 1229.24 283.3C1229.24 291.5 1227.69 299.65 1224.59 307.75C1221.49 315.85 1216.34 324.35 1209.14 333.25C1214.04 333.65 1218.29 335.3 1221.89 338.2C1225.59 341.1 1228.39 344.85 1230.29 349.45C1232.29 354.05 1233.29 359.05 1233.29 364.45C1233.29 371.95 1231.79 378.7 1228.79 384.7C1225.89 390.7 1222.04 395.4 1217.24 398.8C1212.44 402.1 1207.29 403.75 1201.79 403.75ZM1192.94 343.45C1199.54 331.35 1204.79 320.7 1208.69 311.5C1212.69 302.2 1214.69 293.95 1214.69 286.75C1214.69 283.55 1214.29 281.1 1213.49 279.4C1212.79 277.7 1211.79 276.85 1210.49 276.85C1208.49 276.85 1206.29 279.85 1203.89 285.85C1201.59 291.75 1199.44 299.8 1197.44 310C1195.44 320.2 1193.94 331.35 1192.94 343.45ZM1202.39 387.55C1205.79 387.55 1208.64 385.7 1210.94 382C1213.34 378.3 1214.54 372.9 1214.54 365.8C1214.54 360.3 1213.54 356.15 1211.54 353.35C1209.54 350.55 1207.14 349.15 1204.34 349.15C1200.84 349.15 1197.89 350.95 1195.49 354.55C1193.09 358.15 1191.89 363.4 1191.89 370.3C1191.89 376.3 1192.89 380.7 1194.89 383.5C1196.89 386.2 1199.39 387.55 1202.39 387.55ZM1270.45 407.05C1265.25 407.05 1261.25 405.85 1258.45 403.45C1255.75 401.05 1254.4 398.35 1254.4 395.35C1254.4 392.75 1255.35 390.5 1257.25 388.6C1259.15 386.7 1261.95 385.75 1265.65 385.75C1266.95 385.75 1268.45 385.9 1270.15 386.2C1271.95 386.4 1273.3 386.55 1274.2 386.65C1274.1 384.05 1273.5 381.6 1272.4 379.3C1271.4 377 1270.1 374.8 1268.5 372.7C1266.9 370.5 1265.4 368.6 1264 367C1260.9 372.9 1257.8 377.8 1254.7 381.7C1251.7 385.6 1248.4 389.3 1244.8 392.8C1243 394.6 1241.1 395.5 1239.1 395.5C1237.5 395.5 1236.2 394.95 1235.2 393.85C1234.2 392.65 1233.7 391.2 1233.7 389.5C1233.7 387.5 1234.4 385.65 1235.8 383.95L1237.75 381.55C1243.25 374.75 1247.4 369.15 1250.2 364.75C1252 361.85 1253.8 358.4 1255.6 354.4C1257.5 350.4 1259.95 344.95 1262.95 338.05C1264.85 333.65 1268.8 331.45 1274.8 331.45C1277.6 331.45 1279.55 331.7 1280.65 332.2C1281.75 332.7 1282.3 333.5 1282.3 334.6C1282.3 335.2 1282.1 336.15 1281.7 337.45C1281.3 338.75 1280.75 340.05 1280.05 341.35C1278.25 344.95 1277.35 348 1277.35 350.5C1277.35 352 1277.85 353.65 1278.85 355.45C1279.95 357.25 1281.6 359.5 1283.8 362.2C1287 366.4 1289.4 370 1291 373C1292.7 375.9 1293.55 379.1 1293.55 382.6C1293.55 386.8 1292.55 390.8 1290.55 394.6C1288.65 398.3 1285.95 401.3 1282.45 403.6C1278.95 405.9 1274.95 407.05 1270.45 407.05Z" fill="black"/>
<path d="M281.617 121L282.087 121.331C282.202 122.924 278.495 128.505 277.599 130.263C263.546 157.829 249.899 196.344 271.639 223.747C274.138 226.897 276.726 229.346 279.689 232.077C281.538 230.848 285.454 229.087 287.534 228.102C300.068 222.163 310.376 219.711 324.185 219.546C320.798 217.951 317.674 216.671 314.117 215.48C311.998 214.77 302.758 212.682 302.167 211.154C302.606 210.394 303.514 210.043 304.365 209.779C317.891 205.581 332.236 205.593 345.681 210.072C351.696 212.076 356.695 214.609 362.257 217.342C360.454 213.731 357.598 210.636 354.795 207.77C353.835 206.789 350.178 203.645 349.889 202.609L350.222 202.11C352.099 201.346 356.754 202.331 358.683 202.855C370.508 206.073 380.379 212.175 386.648 222.8C387.76 220.89 388.795 218.905 389.923 217.018C390.903 215.383 392.773 211.19 395.083 212.488C396.698 214.898 396.473 221.476 396.275 224.456C405.803 220.922 419.188 220.717 428.633 223.811C432.083 224.942 441.483 228.107 443.083 231.089L442.968 231.453C441.585 231.871 439.998 232.003 438.558 232.123C434.79 232.438 431.095 232.978 427.355 233.533C441.215 237.627 451.54 246.047 460.615 256.942C464.955 255.782 468.733 255.248 472.985 253.386C507.323 238.358 505.618 200.408 497.823 169.767C497.188 167.272 493.365 157.107 493.858 155.901C494.58 155.781 495.44 156.171 496.008 156.591C528.298 180.54 551.595 233.145 529.27 270.607C519.15 287.589 495.485 300.263 477.033 304.727C479.43 308.924 482.573 313.047 485.67 316.766C487.725 319.231 490.07 321.447 491.793 324.159L491.643 324.569C487.8 326.98 476.478 322.659 472.63 320.576C478.698 328.526 486.418 348.395 467.665 335.294C472.69 343.098 474.698 355.372 461.565 344.897C465.788 353.97 469.248 359.922 476.835 366.67C480.158 369.627 487.388 375.62 487.965 380.21C489.378 391.41 484.84 405.352 479.193 415.037C476.413 419.555 472.505 422.802 467.443 423.84C465.943 439.565 451.468 447.675 437.675 451.155C436.715 455.442 435.585 460.195 438.165 464.172C438.915 465.327 440.843 467.005 439.995 468.352C438.72 468.765 436.918 468.125 435.643 467.727C429.733 465.875 426.16 461.767 423.463 456.362C425.608 478.687 417.655 496.36 399.72 509.827C397.97 511.142 393.22 514.417 390.925 514.057C390.355 513.252 392.045 510.645 392.648 509.577C397.243 501.45 398.198 493.687 398.398 484.475C392.483 500.557 385.18 516.66 369.187 525.515C368.068 526.132 366.623 526.87 365.415 526.477C365.22 525.365 367.416 522.482 368.15 521.385C369.68 518.872 370.791 516.01 371.909 513.287C362.744 522.177 350.818 529.617 337.739 530.977C336.473 531.11 333.845 531.09 332.877 530.237C332.941 529.75 332.935 529.527 333.449 529.212C351.117 518.392 352.588 498.96 348.814 480.07C347.912 491.732 342.855 507.595 334.387 515.825C332.851 517.317 329.213 520.572 326.85 520.55C326.353 520.53 325.663 520.167 325.649 519.597C325.498 513.407 325.968 508.475 324.638 502.282C321.697 488.587 312.823 478.395 303.622 468.46C303.596 469.225 303.525 469.985 303.409 470.74C302.22 478.61 299.113 489.077 292.453 493.95C291.718 492.085 291.312 489.307 290.818 487.275C290.085 484.37 289.156 481.515 288.038 478.735C285.905 473.41 283.329 468.665 280.932 463.5C275.704 452.235 271.852 442.185 269.259 430.067C268.837 433.59 268.991 438.042 269.106 441.82C269.23 445.87 270.369 451.36 269.975 455.49C269.947 455.78 269.769 455.77 269.451 455.91C268.222 455.447 266.954 454.075 266.067 453.117C251.115 436.95 245.38 413.792 247.471 392.22C248.081 385.927 249.402 379.815 250.715 373.707C246.661 380.95 243.619 390.482 241.087 398.34C240.038 401.595 238.351 405.72 237.8 408.99C237.162 405.677 236.365 402.39 235.913 399.07C233.906 384.345 236.825 370.565 242.074 356.797C230.261 372.402 225.258 394.095 234.352 412.015C234.938 413.17 235.518 414.307 236.139 415.445C237.899 413.4 241.098 407.202 242.638 404.497C242.047 413.71 240.158 423.05 241.091 432.31C241.239 433.78 241.857 438.26 241.231 439.267L240.627 439.402C239.435 439.022 238.943 438.595 238.047 437.71C227.266 427.035 220.18 411.48 217.129 396.785C215.667 389.742 215.373 383.335 215.249 376.267C210.407 381.547 207.172 387.495 203.463 393.577C202.607 394.982 199.567 400.285 197.846 399.935C196.034 397.445 195.715 391.787 195.479 388.667C194.308 373.235 196.985 359.697 201.59 345.042C199.412 347.152 185.052 362.577 183.517 362.647L183.115 362.202C182.908 360.987 183.011 359.46 183.183 358.245C186.066 337.878 199.677 310.99 215.922 298.305C211.295 299.833 193.074 303.93 190.2 299.836L190.336 299.275C192.042 297.74 196.798 294.967 199.06 293.331C206.491 287.957 213.551 282.221 221.547 277.71C224.085 276.278 226.247 274.798 229.013 273.725C225.815 273.752 205.952 272.266 207.044 268.202C209.649 266.904 213.389 265.959 216.196 264.935C220.738 263.278 225.269 261.607 229.778 259.862C238.613 267.674 247.356 274.397 259.604 275.668L258.338 274.978C240.945 265.394 223.248 249.363 217.981 229.688C212.601 209.59 218.316 186.552 228.156 168.828C237.791 151.77 251.647 137.473 268.394 127.308C272.758 124.674 276.676 122.418 281.617 121Z" fill="#000100"/>
<path d="M450.328 324.38C450.575 324.898 451.51 331.601 451.798 332.912C453.653 341.378 456.495 350.087 460.715 357.68C463.198 362.192 466.683 365.675 470.023 369.457C473.263 373.125 479.453 375.952 481.373 380.147C483.938 385.755 475.523 388.717 472.505 392.03C470.108 394.662 468.958 396.465 467.395 399.815C467.618 393.787 468.98 391.605 471.715 386.385C470.29 386.652 466.658 387.802 465.08 388.325C459.525 390.16 454.48 387.487 449.045 385.45C449.663 386.757 450.35 388.682 450.723 390.027C451.728 393.652 451.23 395.782 449.378 398.85C442.573 410.122 443.133 410.205 430.3 413.31C423.67 414.915 415.933 416.587 409.545 412.95C406.05 410.96 404.145 407.725 403.218 403.955C404.08 401.265 405.758 398.62 407.128 396.112C398.948 400.372 397.1 404.36 393.743 412.587C393.063 407.692 395.538 396.825 397.785 392.282C398.615 390.605 401.995 385.2 401.908 384.18C401.19 384.102 401.2 384.302 400.418 384.81C396.115 387.66 393.135 390.622 389.955 394.615C391.565 388.04 394.32 381.8 398.098 376.182C393.068 378.577 389.758 381.607 385.685 385.275C385.855 375.737 389.008 368.687 394.85 361.287C396.508 359.19 399.43 355.372 400.65 353.092L400.805 352.797C401.76 356.232 402.18 361.715 402.413 365.312C406.658 359.097 407.785 351.27 405.468 344.111C403.248 337.376 401.773 337.342 400.928 329.366C405.458 336.3 408.223 339.886 416.478 342.65C413.22 335.597 412.56 333.023 413.255 325.382C420.67 336.952 429.965 345.005 443.493 348.607C441.033 342.792 438.805 336.482 438.4 330.174C441.895 335.66 444.253 338.081 449.513 341.58C448.56 335.216 448.518 330.521 450.328 324.38Z" fill="white"/>
<path d="M422.09 377.562C427.118 377.037 433.598 379.332 437.673 382.2C442.45 385.562 448.418 391.37 445.823 397.82C445.72 398.075 445.198 397.995 444.953 398.002C442.238 396.832 438.005 394.882 435.105 395.59C424.243 398.235 420.198 388.657 420.875 379.627C420.955 378.57 421.205 378.225 422.09 377.562Z" fill="#000100"/>
<path d="M427.368 364.582C436.988 364.057 445.91 370.492 454.46 373.94C459.72 376.057 463.245 375.7 468.295 373.427C463.855 378.285 460.85 379.75 454.228 378.767C450.13 377.765 446.983 376.275 443.248 374.372C431.798 368.542 424.93 366.657 412.425 370.625C417.893 366.775 420.57 365.16 427.368 364.582Z" fill="#000100"/>
<path d="M389.643 234.07C402.038 231.253 407.895 230.611 420.458 233.863C416.99 234.407 413.025 235.077 409.668 236.044C427.263 239.373 441.823 249.406 453.918 262.235C455.923 264.362 457.818 266.655 459.825 268.734C455.388 267 452.7 266.234 448.418 263.816C445.668 262.262 442.07 259.498 439.535 258.229C446.333 265.253 450.373 271.255 455.185 279.863C460.515 289.398 466.255 301.708 473.708 309.836C466.6 307.097 461.718 304.103 456.32 298.563C456.113 310.201 456.74 316.356 461.888 327.08C453.548 319.491 451.223 313.042 449.193 302.39C447.058 310.83 446.363 314.932 442.243 322.793C444.915 302.126 441.118 284.884 425.583 269.983C432.985 285.507 433.985 289.062 434.493 306.17C433.02 301.262 431.358 295.943 429.108 291.331C424.435 281.759 416.03 272.527 407.578 266.094C403.405 262.918 399.273 260.578 394.96 257.167C402.44 269.823 405.135 279.037 404.448 293.979C404.263 298.024 403.913 302.575 402.893 306.509C402.833 306.744 402.768 306.979 402.703 307.213C396.858 282.155 378.211 280.609 370.956 259.243C367.074 269.676 367.4 276.702 371.936 287.147C363.568 280.83 355.41 274.545 351.048 264.626C347.067 255.57 347.785 249.505 353.097 241.416C351.199 254.613 354.662 260.936 362.683 270.974C359.613 258.917 362.708 250.043 369.735 240.096C375.18 247.432 378.962 251.793 387.528 255.938C386.123 252.749 385.053 249.338 384.02 246.008C399.188 251.355 406.673 255.56 418.37 266.262C412.468 255.652 406.075 248.949 395.468 242.803C393.868 241.875 391.568 240.538 389.858 239.966L389.93 239.815C391.895 239.923 393.675 240.566 395.568 240.942C404.508 242.72 415.675 246.604 423.298 251.743L424.203 251.222C415.623 241.555 402.48 235.282 389.643 234.07Z" fill="white"/>
<path d="M424.203 251.222L426.835 254.098L423.298 251.743L424.203 251.222Z" fill="#000100"/>
<path d="M269.493 133.474C269.505 133.535 269.619 133.957 269.598 133.996C258.459 153.859 250.137 176.997 253.372 200.083C254.618 208.973 258.843 220.2 264.39 227.367C275.28 241.439 292.922 249.6 310.305 251.834C315.109 252.452 320.216 252.493 325.035 252.474C318.149 256.502 314.177 257.029 306.38 256.96C313.226 259.538 321.279 259.349 328.395 258.274C320.167 262.026 315.717 263.201 306.86 262.791C315.908 266.419 321.663 265.202 330.488 265.078C313.671 270.269 301.639 268.125 285.45 262.493C284.827 262.262 284.208 262.02 283.593 261.77C265.623 254.459 251.362 242.887 243.657 224.738C244.663 232.093 247.859 238.946 251.312 245.396C239.122 233.531 234.234 217.406 234.892 200.753C235.524 184.773 240.594 172.402 248.485 158.742C242.313 164.279 237.216 171.595 233.558 178.974C232.346 181.417 231.397 183.929 230.108 186.32L230.174 186.004C235.406 161.849 249.184 146.499 269.493 133.474Z" fill="white"/>
<path d="M505.985 173.028C520.06 188.604 530.018 209.696 529.45 231.138C528.72 258.638 508.455 277.563 483.03 284.816L482.083 284.293C490.37 281.333 495.758 277.723 502.733 272.371C500.035 273.161 497.513 274.994 494.938 276.148C487.675 279.401 479.925 281.439 472.015 282.299C470.38 282.477 468.383 282.678 466.805 282.973C465.303 280.59 463.763 278.232 462.185 275.899C464.835 276.913 471.05 279.051 474.19 278.567C474.715 278.487 474.813 277.954 474.925 277.57C474.373 275.075 469.603 270.992 467.813 268.616C466.428 266.78 465.6 265.874 464.295 263.722C481.483 260.092 492.255 252.702 502.34 238.123C512.74 223.091 512.618 202.624 508.888 185.182C507.985 181.116 507.02 177.063 505.985 173.028Z" fill="white"/>
<path d="M520.325 222.362L520.583 222.572C521.588 224.563 521.67 234.567 521.56 236.881C520.968 249.152 512.73 256.021 504.025 263.552C503.77 263.806 503.935 263.693 503.493 263.828C503.57 263.337 506.723 258.704 507.293 257.764C515.688 243.881 518.945 238.629 520.325 222.362Z" fill="#000100"/>
<path d="M274.646 277.345C287.047 277.477 298.483 282.909 309.703 287.7C300.191 287.895 290.526 285.263 281.236 285.317C269.429 285.385 259.667 289.263 251.466 297.697C256.039 297.689 264.08 298.252 268.348 299.652C266.332 301.51 262.735 303.627 260.318 305.179C265.17 306.146 269.264 306.921 273.98 308.348C272.629 309.256 271.711 310.03 270.461 311.081C273.447 312.659 275.891 313.265 279.087 314.271C280.423 315.932 280.816 316.625 282.566 317.825C283.227 318.144 283.898 318.444 284.578 318.724C290.704 321.198 297.496 318.486 303.23 316.11C285.265 333.597 264.089 320.31 248.151 307.635C250.592 306.492 253.471 304.91 255.906 303.655C251.767 303.141 245.94 302.998 242.253 301.11C239.149 299.521 246.261 292.043 247.745 290.274C255.054 281.565 263.36 278.015 274.646 277.345Z" fill="white"/>
<path d="M326.406 315.172L326.665 315.605C325.457 324.682 325.269 331.174 326.538 340.242C327.298 345.672 326.002 352.47 324.55 357.805C332.925 350.165 335.732 343.865 338.682 333.235C339.177 335.834 339.624 339.351 339.329 341.959C338.127 352.567 334.056 358.75 337.225 369.775C339.536 367.482 341.269 364.57 343.355 362.057C345.607 359.345 347.978 356.955 350.237 354.225C345.094 366.867 342.164 378.452 344.097 392.215C344.627 395.987 345.136 398.997 346.493 402.632C340.08 395.767 337.714 390.035 336.066 380.79C335.771 377.66 334.982 373.752 334.358 370.68C330.363 380.907 330.012 386.017 331.609 397.03C330.556 395.567 329.549 394.182 328.625 392.632C320.941 379.735 329.809 368.145 332.862 355.915C325.71 362.182 322.642 366.985 312.663 369.532C319.524 360.972 321.201 350.147 321.337 339.539C317.424 345.61 315.578 347.782 310.068 352.44C311.693 348.752 314.051 344.557 315.467 340.87C318.962 331.772 321.951 323.92 326.406 315.172Z" fill="white"/>
<path d="M296.688 333.991C296.649 334.494 294.393 339.464 293.938 340.491C292.085 344.68 291.252 348.837 289.793 353.102C293.581 349.272 297.516 345.592 301.591 342.072C294.496 355.42 293.643 372.21 297.848 386.545C298.427 388.52 299.088 391.205 300.152 392.907L300.489 392.83C301.018 385.01 303.661 378.345 307.159 371.49C306.27 382.53 305.475 389.057 305.554 400.347C305.792 404.767 306.155 409.64 306.074 414.03C290.704 396.03 285.86 379.692 293.184 356.412C291.261 358.437 282.883 369.942 280.981 368.892C280.548 367.527 281.66 363.512 281.952 361.982C284.128 350.595 288.642 342.302 296.688 333.991Z" fill="white"/>
<path d="M446.918 419.835C447.073 419.812 447.228 419.795 447.383 419.782C452.68 419.292 456.49 420.627 460.493 423.962C460.338 424.575 460.178 425.185 460.01 425.795C457.793 433.79 451.9 438.052 444.945 442.012C446.655 439.28 447.24 437.62 447.883 434.495C445.463 434.877 442.373 436.062 440 436.93C435.648 438.517 432.925 439.337 428.338 439.91C430.093 438.525 431.975 436.69 433.635 435.147C431.06 435.835 429.155 436.255 426.53 436.735C424.838 436.772 423.683 436.892 421.993 437.102C423 436.335 425.363 434.78 425.453 433.545C424.245 433.25 420.808 433.667 419.028 433.562C416.26 433.397 414.47 433.085 411.753 432.617C416.46 431.597 416.783 431.83 421.575 429.485C415.403 429.32 410.2 429.127 407.713 422.62C419.205 428.33 434.303 421.217 446.918 419.835Z" fill="white"/>
<path d="M223.473 317.435C223.475 317.67 220.186 326.061 219.766 327.155C216.635 335.292 216.906 342.959 215.907 351.372C218.447 348.567 220.739 345.662 223.382 342.855C228.36 337.567 233.27 333.544 239.008 329.167C234.575 336.122 231.022 341.48 225.961 348.067C219.353 356.177 213.434 364.897 206.755 372.697C206.615 367.315 206.439 362.157 206.932 356.785C208.257 342.347 213.732 328.268 223.473 317.435Z" fill="white"/>
<path d="M369.94 379.447C370.423 380.05 369.18 386.31 369.002 387.562C367.208 400.205 369.659 406.415 372.611 417.845C375.587 406.895 375.979 402.142 381.91 391.715C379.861 400.382 379.458 408.625 381.71 417.292C382.938 421.427 383.975 424.032 385.828 427.902C380.983 423.847 379.472 422.242 376.276 416.68C374.854 419.82 374.259 423.215 372.636 426.18C361.103 409.632 361.178 397.087 369.94 379.447Z" fill="white"/>
<path d="M344.394 308.375C346.299 309 348.216 309.586 350.145 310.131C350.519 317.463 352.314 322.533 360.802 323.631C365.231 324.204 368.288 322.022 371.587 319.306C375.408 322.3 376.472 324.889 378.12 329.32C378.354 330.358 378.717 331.529 379.009 332.565C373.293 330.709 369.986 331.009 364.157 331.148C359.123 331.268 353.086 330.221 349.448 326.447C344.284 321.088 344.343 315.213 344.394 308.375Z" fill="white"/>
<path d="M315.375 405.905C315.626 406.132 315.753 406.347 315.794 406.707C316.233 410.545 316.82 414.382 318.014 418.072C319.567 422.872 322.774 426.83 325.351 431.117C324.987 423.745 324.935 420.275 326.782 413.057C327.65 420.17 326.313 421.927 329.353 430.055C331.054 434.282 333.184 437.717 335.851 441.385C328.966 438.72 324.752 436.47 320.082 430.357C315.434 424.277 314.116 413.382 315.375 405.905Z" fill="white"/>
<path d="M475.765 398.275C478.69 398.165 479.505 398.547 482.295 399.51C480.74 405.872 476.015 411.202 470.713 414.822L468.265 416.042C467.15 415.757 465.928 415.505 465.228 414.592C465.398 413.165 466.5 412.002 466.938 410.682C468.675 405.42 469.353 399.62 475.765 398.275Z" fill="white"/>
<path d="M411.833 281.385C412.213 281.576 412.228 281.589 412.515 281.896C421.705 291.698 418.885 305.269 418.19 317.429L417.965 317.831L417.675 317.791C412 308.143 413.283 305.367 413.245 295.017C413.253 290.436 412.778 285.867 411.833 281.385Z" fill="white"/>
<path d="M310.531 452.94C310.69 453.045 310.842 453.14 310.974 453.28C318.987 461.92 325.141 476.017 326.026 487.537C325.372 487.075 323.628 483.747 323.131 482.812C317.886 472.942 313.12 463.855 310.531 452.94Z" fill="white"/>
<path d="M381.47 454.402L381.78 454.762C381.95 456.135 381.608 459.26 381.445 460.732C380.273 471.185 373.166 480.215 365.191 486.605C366.55 483.342 367.838 480.687 369.127 477.292C370.972 472.24 370.811 465.742 370.899 460.325C372.581 465.315 373.391 469.245 372.769 474.492C378.126 466.745 379.337 463.59 381.47 454.402Z" fill="white"/>
<path d="M378.466 281.967C381.04 283.869 384.295 286.959 386.325 289.395C393.853 298.429 394.593 305.986 393.75 317.049L393.363 316.981C391.258 306.518 389.95 302.171 384.203 292.934C382.833 290.735 379.22 284.354 378.466 281.967Z" fill="white"/>
<path d="M313.365 293.673L313.592 293.896C313.516 294.667 311.452 297.459 310.833 298.74C309.401 301.706 308.645 303.823 307.858 307.021C310.046 303.912 311.493 302.039 313.982 299.228C311.361 306.147 310.55 308.772 309.11 316.17C308.77 317.498 308.612 318.812 308.418 320.167C307.061 316.816 305.841 314.152 305.06 310.564C303.734 310.792 302.381 310.993 301.05 311.203C304.344 303.846 307.813 299.366 313.365 293.673Z" fill="white"/>
<path d="M393.45 473.435L393.69 473.862C392.36 482.962 381.803 496.567 375.459 503.567C374.885 503.04 375.289 501.587 375.506 500.88C378.764 490.225 387.8 482.747 393.45 473.435Z" fill="white"/>
<path d="M281.739 396.61C281.917 396.75 282.197 396.972 282.218 397.232C282.728 403.535 283.916 409.832 285.767 415.872C286.726 419.002 292.687 431.222 290.745 433.797C282.033 421.697 279.861 411.277 281.739 396.61Z" fill="white"/>
<path d="M266.661 359.66C267.006 361.017 266.644 364.612 266.481 366.032C266.259 367.94 265.922 369.83 265.473 371.697C264.463 375.98 262.986 380.437 261.865 384.72C261.422 386.412 259.666 394.44 258.822 395.105C256.398 381.915 262.36 371.402 266.661 359.66Z" fill="white"/>
<path d="M416.37 463.66C416.618 464.745 416.468 467.765 416.443 469.02C416.248 478.43 413.293 484.347 408.455 492.085C409.473 487.55 409.685 483.205 409.773 478.577C409.645 473.432 408.428 468.125 406.855 463.25C409.998 467.482 411.943 471.857 412.753 477.045C413.738 473.33 415.273 466.907 416.37 463.66Z" fill="white"/>
<path d="M353.624 301.818C358.183 301.059 363.184 302.222 366.934 304.901C369.941 307.049 371.537 309.842 373.323 312.958L370.404 310.785C367.63 309.054 364.064 307.263 360.88 306.498C355.359 305.172 353.971 306.145 349.167 302.714C350.843 302.282 351.91 302.078 353.624 301.818Z" fill="white"/>
<path d="M332.489 233.837C334.761 233.688 336.946 233.768 339.217 233.818C336.298 234.862 333.273 235.696 330.39 236.798C326.184 238.405 321.978 240.253 317.839 242.038L312.867 243.917C317.866 238.155 324.895 234.545 332.489 233.837Z" fill="white"/>
<path d="M424.355 308.158C425.263 314.574 425.715 318.401 427.975 324.696C428.55 326.292 431.625 334.011 431.785 334.833L431.465 334.828C427.203 329.993 423.753 325.462 423.285 318.75C423.065 315.559 423.243 311.161 424.355 308.158Z" fill="white"/>
<path d="M385.62 352.905C385.853 353.637 385.563 355.817 385.438 356.652C384.383 363.727 378.224 367.915 372.173 370.205C371.977 369.522 373.647 368.295 374.221 367.78C379.085 363.407 382.635 358.682 385.62 352.905Z" fill="white"/>
<path d="M359.363 448.352C360.37 449.25 360.717 451.387 360.789 452.732C361.104 458.652 357.69 462.9 353.967 467.027L353.51 467.275C353.483 466.422 355.521 462.602 355.975 461.43C357.708 456.957 358.865 453.167 359.363 448.352Z" fill="white"/>
<path d="M344.725 271.459C344.961 272.111 344.07 276.332 343.861 277.329C342.936 281.739 343.634 284.79 343.695 288.754L343.485 288.791L343.045 287.991C340.015 280.99 339.01 277.418 344.725 271.459Z" fill="white"/>
<path d="M356.385 310.17C357.567 309.789 358.841 310.39 359.3 311.543C359.759 312.697 359.246 314.008 358.126 314.544C357.331 314.924 356.391 314.83 355.688 314.299C354.984 313.769 354.635 312.891 354.782 312.022C354.928 311.154 355.547 310.439 356.385 310.17Z" fill="white"/>
<path d="M483.03 284.816C481.968 285.104 480.308 285.627 479.293 285.265C479.855 284.731 481.258 284.5 482.083 284.293L483.03 284.816Z" fill="#BCBCBB"/>
</svg>
