<svg width="305" height="127" viewBox="0 0 305 127" fill="none" xmlns="http://www.w3.org/2000/svg">
<rect width="304.505" height="126.182" fill="white"/>
<path d="M158.009 71.6003C158.126 71.5616 158.3 71.5422 158.533 71.5422C159.192 71.5422 159.521 71.9686 159.521 72.8215C159.521 73.2867 159.415 73.684 159.201 74.0135C159.008 74.3236 158.697 74.5175 158.271 74.595C156.507 74.9245 154.772 75.2928 153.067 75.6998L152.98 76.3976C152.437 80.216 151.351 83.0362 149.723 84.8582C148.114 86.6996 146.099 87.6203 143.676 87.6203C142.067 87.6203 140.817 87.2229 139.925 86.4282C139.053 85.6529 138.617 84.6547 138.617 83.4336C138.617 81.3984 139.528 79.5861 141.35 77.9967C143.172 76.4073 145.934 75.002 149.636 73.7809L150.217 69.6814C150.295 69.2163 150.392 68.596 150.508 67.8207C149.597 70.2242 148.434 72.0171 147.019 73.1994C145.604 74.3818 144.025 74.973 142.28 74.973C140.613 74.973 139.344 74.469 138.471 73.4611C137.599 72.4338 137.163 71.1158 137.163 69.507C137.163 68.7898 137.241 68.0048 137.396 67.152C137.551 66.2797 137.793 65.1071 138.123 63.634C138.413 62.2966 138.626 61.2305 138.762 60.4358C138.917 59.6411 138.995 58.9336 138.995 58.3134C138.995 57.383 138.636 56.9178 137.919 56.9178C137.357 56.9178 136.688 57.1989 135.913 57.761C135.157 58.3037 134.353 59.1469 133.5 60.2904C133.228 60.6587 132.928 60.8429 132.598 60.8429C132.327 60.8429 132.085 60.7169 131.872 60.4649C131.678 60.1935 131.581 59.8931 131.581 59.5636C131.581 58.9627 131.852 58.2843 132.395 57.5284C134.372 54.8148 136.688 53.458 139.344 53.458C140.526 53.458 141.447 53.8166 142.106 54.5337C142.784 55.2509 143.123 56.3073 143.123 57.7028C143.123 58.7107 143.026 59.7477 142.833 60.8138C142.658 61.8605 142.387 63.1979 142.018 64.826C141.786 65.7952 141.611 66.5802 141.495 67.1811C141.379 67.7625 141.321 68.2471 141.321 68.6348C141.321 69.6233 141.495 70.3308 141.844 70.7572C142.193 71.1836 142.803 71.3968 143.676 71.3968C144.722 71.3968 145.788 70.825 146.874 69.6814C147.979 68.5185 148.967 66.7643 149.839 64.419C150.731 62.0737 151.371 59.205 151.758 55.813C151.855 54.9602 152.078 54.3593 152.427 54.0104C152.776 53.6421 153.28 53.458 153.939 53.458C155.296 53.458 155.974 54.1364 155.974 55.4932C155.974 55.7258 155.964 55.9099 155.945 56.0456C155.538 58.9336 155.16 61.5406 154.811 63.8666C154.617 65.2621 154.404 66.6965 154.172 68.1696C153.958 69.6427 153.745 71.1352 153.532 72.647C154.947 72.2594 156.439 71.9105 158.009 71.6003ZM149.2 76.8337C144.509 78.4619 142.164 80.4389 142.164 82.7649C142.164 83.3076 142.329 83.7534 142.658 84.1023C143.007 84.4706 143.492 84.6547 144.112 84.6547C146.806 84.6547 148.492 82.1156 149.171 77.0372L149.2 76.8337Z" fill="black"/>
<path d="M161.028 78.2584C159.826 78.2584 158.867 77.8223 158.15 76.95C157.432 76.0778 157.074 74.9342 157.074 73.5193C157.074 71.9686 157.432 70.5052 158.15 69.129C158.867 67.7335 159.816 66.6189 160.999 65.7855C162.201 64.9326 163.47 64.5062 164.808 64.5062C165.234 64.5062 165.515 64.5934 165.651 64.7679C165.806 64.9229 165.932 65.2137 166.029 65.6401C166.436 65.5626 166.862 65.5238 167.308 65.5238C168.258 65.5238 168.733 65.863 168.733 66.5414C168.733 66.9485 168.587 67.9176 168.296 69.4489C167.851 71.6779 167.628 73.2285 167.628 74.1007C167.628 74.3915 167.696 74.6241 167.831 74.7985C167.986 74.973 168.18 75.0602 168.413 75.0602C168.781 75.0602 169.227 74.8276 169.75 74.3624C170.273 73.8778 170.981 73.1025 171.873 72.0365C172.105 71.7651 172.367 71.6294 172.658 71.6294C172.91 71.6294 173.103 71.7457 173.239 71.9783C173.394 72.2109 173.472 72.5307 173.472 72.9378C173.472 73.7131 173.288 74.314 172.919 74.7404C172.125 75.7289 171.281 76.5624 170.39 77.2408C169.498 77.9192 168.636 78.2584 167.802 78.2584C167.163 78.2584 166.571 78.0452 166.029 77.6187C165.505 77.1729 165.108 76.5721 164.837 75.8161C163.829 77.4443 162.559 78.2584 161.028 78.2584ZM162.075 75.3219C162.501 75.3219 162.908 75.0699 163.296 74.5659C163.683 74.062 163.964 73.3933 164.139 72.5598L165.215 67.2101C164.4 67.2295 163.645 67.5396 162.947 68.1405C162.268 68.722 161.726 69.4973 161.319 70.4665C160.912 71.4356 160.708 72.4629 160.708 73.5483C160.708 74.1492 160.824 74.595 161.057 74.8857C161.309 75.1765 161.648 75.3219 162.075 75.3219Z" fill="black"/>
<path d="M183.465 75.0893C184.26 75.2443 184.657 75.6804 184.657 76.3976C184.657 76.8822 184.434 77.3183 183.989 77.706C183.562 78.0742 182.942 78.2584 182.128 78.2584C180.732 78.2584 179.589 77.8319 178.697 76.9791C177.825 76.1069 177.389 74.973 177.389 73.5774C177.389 72.8215 177.776 72.2787 178.552 71.9492C179.405 71.581 180.015 71.1933 180.383 70.7863C180.752 70.3598 180.936 69.8462 180.936 69.2453C180.936 68.8964 180.858 68.6348 180.703 68.4603C180.568 68.2859 180.393 68.1987 180.18 68.1987C179.657 68.1987 179.075 68.5766 178.435 69.3326C177.815 70.0885 177.234 71.0673 176.691 72.2691C176.148 73.4514 175.722 74.6725 175.412 75.9324C175.198 76.8434 174.947 77.4637 174.656 77.7932C174.384 78.1033 173.948 78.2584 173.347 78.2584C172.747 78.2584 172.301 78.0452 172.01 77.6187C171.739 77.1729 171.554 76.4945 171.458 75.5835C171.361 74.6725 171.312 73.3351 171.312 71.5713C171.312 68.5863 171.613 65.4754 172.214 62.2384C172.834 59.0015 173.735 56.2879 174.917 54.0976C176.119 51.888 177.553 50.7831 179.22 50.7831C180.112 50.7831 180.829 51.1708 181.372 51.9461C181.934 52.702 182.215 53.6906 182.215 54.9117C182.215 56.8694 181.643 58.9046 180.5 61.0173C179.356 63.1107 177.495 65.5626 174.917 68.3731C174.859 69.381 174.83 70.418 174.83 71.4841C175.761 69.0612 176.827 67.307 178.028 66.2216C179.23 65.1168 180.354 64.5644 181.401 64.5644C182.37 64.5644 183.145 64.8939 183.727 65.5529C184.328 66.2119 184.628 67.026 184.628 67.9951C184.628 69.0612 184.357 70.04 183.814 70.9316C183.271 71.8233 182.341 72.618 181.023 73.3157C181.139 73.8972 181.372 74.3043 181.721 74.5369C182.089 74.7501 182.671 74.9342 183.465 75.0893ZM178.61 53.6615C178.261 53.6615 177.873 54.1655 177.447 55.1734C177.02 56.1619 176.604 57.509 176.197 59.2147C175.809 60.901 175.489 62.7424 175.237 64.7388C176.439 63.3239 177.428 61.7829 178.203 60.116C178.998 58.4491 179.395 56.9372 179.395 55.5804C179.395 54.9602 179.327 54.4853 179.191 54.1558C179.056 53.8263 178.862 53.6615 178.61 53.6615Z" fill="black"/>
<path d="M215.073 71.6294C215.325 71.6294 215.519 71.7457 215.654 71.9783C215.809 72.2109 215.887 72.5307 215.887 72.9378C215.887 73.6937 215.703 74.2946 215.335 74.7404C214.249 76.039 213.193 76.95 212.165 77.4734C211.158 77.9967 209.936 78.2584 208.502 78.2584C207.494 78.2584 206.564 78.1324 205.711 77.8804C204.858 77.6284 203.821 77.2505 202.6 76.7465C201.495 76.2619 200.429 75.8646 199.402 75.5545C198.413 77.3571 196.931 78.2584 194.953 78.2584C193.868 78.2584 193.006 78.0161 192.366 77.5315C191.707 77.0276 191.377 76.3879 191.377 75.6126C191.377 74.6628 191.833 73.8778 192.744 73.2576C193.655 72.6179 194.866 72.2981 196.378 72.2981H196.756L197.279 63.8375C197.396 61.8992 197.745 60.3001 198.326 59.0402C198.908 57.7804 199.712 56.7046 200.739 55.813C201.631 55.0377 202.648 54.4562 203.792 54.0685C204.936 53.6615 206.147 53.458 207.426 53.458C209.52 53.458 211.128 54.0007 212.253 55.0861C213.377 56.1716 213.939 57.5865 213.939 59.331C213.939 60.5133 213.726 61.4728 213.299 62.2093C212.873 62.9265 212.282 63.2851 211.526 63.2851C210.983 63.2851 210.557 63.1591 210.247 62.9071C209.936 62.6358 209.781 62.2578 209.781 61.7732C209.781 61.5988 209.82 61.279 209.898 60.8138C210.014 60.2711 210.072 59.7865 210.072 59.3601C210.072 58.546 209.83 57.9063 209.345 57.4412C208.88 56.9566 208.163 56.7143 207.194 56.7143C205.488 56.7143 204.17 57.2764 203.24 58.4006C202.309 59.5054 201.718 61.2499 201.466 63.634L200.797 70.2339C200.701 71.1642 200.575 71.9686 200.419 72.647C201.66 72.8602 203.211 73.1994 205.071 73.6646C206.157 73.936 206.99 74.1298 207.572 74.2461C208.153 74.3624 208.667 74.4206 209.113 74.4206C210.237 74.4206 211.196 74.2364 211.991 73.8681C212.805 73.4805 213.571 72.8699 214.288 72.0365C214.52 71.7651 214.782 71.6294 215.073 71.6294Z" fill="black"/>
<path d="M217.104 78.2584C215.902 78.2584 214.943 77.8223 214.225 76.95C213.508 76.0778 213.15 74.9342 213.15 73.5193C213.15 71.9686 213.508 70.5052 214.225 69.129C214.943 67.7335 215.892 66.6189 217.075 65.7855C218.276 64.9326 219.546 64.5062 220.883 64.5062C221.31 64.5062 221.591 64.5934 221.727 64.7679C221.882 64.9229 222.008 65.2137 222.105 65.6401C222.512 65.5626 222.938 65.5238 223.384 65.5238C224.334 65.5238 224.808 65.863 224.808 66.5414C224.808 66.9485 224.663 67.9176 224.372 69.4489C223.927 71.6779 223.704 73.2285 223.704 74.1007C223.704 74.3915 223.772 74.6241 223.907 74.7985C224.062 74.973 224.256 75.0602 224.489 75.0602C224.857 75.0602 225.303 74.8276 225.826 74.3624C226.349 73.8778 227.057 73.1025 227.949 72.0365C228.181 71.7651 228.443 71.6294 228.734 71.6294C228.985 71.6294 229.179 71.7457 229.315 71.9783C229.47 72.2109 229.548 72.5307 229.548 72.9378C229.548 73.7131 229.363 74.314 228.995 74.7404C228.2 75.7289 227.357 76.5624 226.466 77.2408C225.574 77.9192 224.712 78.2584 223.878 78.2584C223.238 78.2584 222.647 78.0452 222.105 77.6187C221.581 77.1729 221.184 76.5721 220.913 75.8161C219.905 77.4443 218.635 78.2584 217.104 78.2584ZM218.15 75.3219C218.577 75.3219 218.984 75.0699 219.372 74.5659C219.759 74.062 220.04 73.3933 220.215 72.5598L221.29 67.2101C220.476 67.2295 219.72 67.5396 219.023 68.1405C218.344 68.722 217.802 69.4973 217.395 70.4665C216.987 71.4356 216.784 72.4629 216.784 73.5483C216.784 74.1492 216.9 74.595 217.133 74.8857C217.385 75.1765 217.724 75.3219 218.15 75.3219Z" fill="black"/>
<path d="M232.941 78.2584C231.003 78.2584 229.588 77.5121 228.696 76.0196C227.824 74.5272 227.388 72.366 227.388 69.5361C227.388 67.0357 227.698 64.3221 228.319 61.3953C228.939 58.4491 229.84 55.9487 231.022 53.8941C232.224 51.8201 233.649 50.7831 235.296 50.7831C236.188 50.7831 236.905 51.1708 237.448 51.9461C237.991 52.702 238.262 53.6906 238.262 54.9117C238.262 56.5011 237.962 58.0808 237.361 59.6508C236.76 61.2208 235.762 62.8684 234.366 64.5934C235.316 64.671 236.14 64.9908 236.837 65.5529C237.554 66.115 238.097 66.8419 238.465 67.7335C238.853 68.6251 239.047 69.5942 239.047 70.6409C239.047 72.0946 238.756 73.403 238.175 74.5659C237.613 75.7289 236.866 76.6399 235.936 77.2989C235.006 77.9385 234.007 78.2584 232.941 78.2584ZM231.226 66.5705C232.505 64.2252 233.523 62.1609 234.279 60.3777C235.054 58.5751 235.442 56.976 235.442 55.5804C235.442 54.9602 235.364 54.4853 235.209 54.1558C235.073 53.8263 234.88 53.6615 234.628 53.6615C234.24 53.6615 233.814 54.243 233.348 55.406C232.903 56.5495 232.486 58.1099 232.098 60.0869C231.711 62.064 231.42 64.2252 231.226 66.5705ZM233.058 75.1183C233.717 75.1183 234.269 74.7598 234.715 74.0426C235.18 73.3254 235.413 72.2788 235.413 70.9026C235.413 69.8365 235.219 69.0321 234.831 68.4894C234.444 67.9467 233.978 67.6753 233.436 67.6753C232.757 67.6753 232.185 68.0242 231.72 68.722C231.255 69.4198 231.022 70.4374 231.022 71.7748C231.022 72.9378 231.216 73.7906 231.604 74.3333C231.992 74.8567 232.476 75.1183 233.058 75.1183Z" fill="black"/>
<path d="M246.249 78.898C245.242 78.898 244.466 78.6654 243.923 78.2002C243.4 77.735 243.138 77.2117 243.138 76.6302C243.138 76.1262 243.323 75.6901 243.691 75.3219C244.059 74.9536 244.602 74.7694 245.319 74.7694C245.571 74.7694 245.862 74.7985 246.191 74.8567C246.54 74.8954 246.802 74.9245 246.976 74.9439C246.957 74.4399 246.841 73.9651 246.627 73.5193C246.434 73.0734 246.182 72.647 245.871 72.24C245.561 71.8136 245.271 71.4453 244.999 71.1352C244.398 72.2787 243.797 73.2285 243.197 73.9844C242.615 74.7404 241.975 75.4575 241.278 76.1359C240.929 76.4848 240.561 76.6593 240.173 76.6593C239.863 76.6593 239.611 76.5527 239.417 76.3395C239.223 76.1069 239.126 75.8258 239.126 75.4963C239.126 75.1086 239.262 74.7501 239.533 74.4206L239.911 73.9554C240.977 72.6373 241.782 71.5519 242.324 70.699C242.673 70.1369 243.022 69.4682 243.371 68.6929C243.739 67.9176 244.214 66.8612 244.796 65.5238C245.164 64.671 245.93 64.2445 247.093 64.2445C247.635 64.2445 248.013 64.293 248.226 64.3899C248.44 64.4868 248.546 64.6419 248.546 64.8551C248.546 64.9714 248.508 65.1555 248.43 65.4075C248.352 65.6595 248.246 65.9115 248.11 66.1635C247.761 66.8612 247.587 67.4524 247.587 67.937C247.587 68.2277 247.684 68.5475 247.878 68.8964C248.091 69.2453 248.411 69.6814 248.837 70.2048C249.457 71.0189 249.922 71.7166 250.233 72.2981C250.562 72.8602 250.727 73.4805 250.727 74.1589C250.727 74.973 250.533 75.7483 250.145 76.4848C249.777 77.202 249.254 77.7835 248.575 78.2293C247.897 78.6751 247.122 78.898 246.249 78.898Z" fill="black"/>
<path d="M54.5855 23.4532L54.6766 23.5174C54.6989 23.8261 53.9804 24.908 53.8067 25.2487C51.0828 30.5918 48.4376 38.0571 52.6516 43.3687C53.1359 43.9791 53.6375 44.4538 54.2119 44.9833C54.5703 44.7449 55.3292 44.4037 55.7323 44.2126C58.1618 43.0615 60.1598 42.5862 62.8365 42.5542C62.1799 42.2452 61.5744 41.997 60.885 41.7661C60.4742 41.6286 58.6832 41.2238 58.5687 40.9277C58.6538 40.7803 58.8298 40.7123 58.9947 40.6611C61.6165 39.8475 64.3969 39.8499 67.0029 40.7181C68.1689 41.1065 69.1378 41.5973 70.2158 42.1272C69.8663 41.4273 69.3129 40.8273 68.7695 40.2718C68.5834 40.0816 67.8747 39.4721 67.8186 39.2715L67.8832 39.1747C68.2469 39.0266 69.1493 39.2174 69.5231 39.3191C71.8152 39.9428 73.7285 41.1256 74.9435 43.1851C75.1592 42.8149 75.3598 42.4301 75.5783 42.0642C75.7683 41.7473 76.1307 40.9346 76.5785 41.1862C76.8915 41.6533 76.8479 42.9284 76.8096 43.5059C78.6563 42.8211 81.2507 42.7812 83.0814 43.381C83.7501 43.6001 85.5721 44.2138 85.8822 44.7916L85.86 44.8622C85.592 44.9431 85.2843 44.9687 85.0052 44.9921C84.2749 45.0531 83.5587 45.1578 82.8338 45.2653C85.5203 46.0588 87.5216 47.6909 89.2805 49.8028C90.1218 49.5779 90.854 49.4744 91.6782 49.1135C98.3338 46.2006 98.0033 38.8448 96.4924 32.9057C96.3694 32.4221 95.6284 30.4518 95.7239 30.218C95.8639 30.1948 96.0306 30.2704 96.1406 30.3519C102.399 34.9938 106.915 45.1902 102.588 52.4514C100.626 55.743 96.0394 58.1996 92.4627 59.0648C92.9274 59.8783 93.5365 60.6775 94.1369 61.3983C94.5353 61.8761 94.9898 62.3056 95.3236 62.8313L95.2946 62.9108C94.5498 63.378 92.3552 62.5405 91.6094 62.1369C92.7855 63.6777 94.2818 67.5289 90.647 64.9896C91.621 66.5023 92.0101 68.8813 89.4647 66.851C90.2831 68.6095 90.9538 69.7632 92.4245 71.0711C93.0684 71.6444 94.4698 72.8059 94.5818 73.6955C94.8555 75.8664 93.9761 78.5689 92.8814 80.4461C92.3426 81.3217 91.5852 81.9512 90.6039 82.1523C90.3132 85.2002 87.5075 86.7722 84.8341 87.4467C84.648 88.2778 84.429 89.1989 84.9291 89.9699C85.0745 90.1938 85.4481 90.5189 85.2838 90.7801C85.0367 90.86 84.6873 90.736 84.4402 90.6589C83.2946 90.2999 82.6022 89.5037 82.0793 88.4561C82.4951 92.7833 80.9537 96.2087 77.4774 98.8191C77.1382 99.074 76.2175 99.7088 75.7726 99.639C75.6621 99.483 75.9897 98.9776 76.1065 98.7707C76.9971 97.1953 77.1822 95.6907 77.221 93.9051C76.0745 97.0223 74.6591 100.143 71.5591 101.86C71.3423 101.98 71.0622 102.122 70.828 102.046C70.7902 101.831 71.2158 101.272 71.3582 101.059C71.6546 100.572 71.8701 100.017 72.0866 99.4898C70.3103 101.213 67.9987 102.655 65.4636 102.919C65.2182 102.944 64.7088 102.94 64.5212 102.775C64.5335 102.681 64.5325 102.638 64.632 102.577C68.0566 100.479 68.3418 96.7127 67.6103 93.0513C67.4353 95.3118 66.4551 98.3864 64.8139 99.9816C64.5162 100.271 63.8109 100.902 63.353 100.897C63.2567 100.894 63.1229 100.823 63.1202 100.713C63.0909 99.513 63.1821 98.557 62.9243 97.3567C62.3541 94.7022 60.6342 92.7266 58.8508 90.8009C58.8457 90.9492 58.8319 91.0965 58.8095 91.2429C58.5789 92.7683 57.9767 94.7972 56.6858 95.7416C56.5434 95.3801 56.4648 94.8418 56.3689 94.4478C56.2269 93.8847 56.0469 93.3314 55.83 92.7925C55.4166 91.7604 54.9173 90.8407 54.4528 89.8395C53.4394 87.6561 52.6928 85.7081 52.1902 83.3594C52.1083 84.0421 52.1382 84.9051 52.1606 85.6373C52.1846 86.4223 52.4053 87.4865 52.329 88.287C52.3236 88.3432 52.2891 88.3412 52.2273 88.3684C51.9891 88.2787 51.7435 88.0127 51.5714 87.8271C48.6734 84.6934 47.5618 80.2048 47.9671 76.0234C48.0854 74.8038 48.3414 73.619 48.5958 72.4352C47.81 73.839 47.2204 75.6867 46.7296 77.2097C46.5263 77.8406 46.1994 78.6401 46.0925 79.2739C45.9688 78.6319 45.8144 77.9947 45.7268 77.3512C45.3378 74.497 45.9035 71.8261 46.9209 69.1575C44.6313 72.1822 43.6616 76.3869 45.4242 79.8603C45.5378 80.0841 45.6502 80.3046 45.7706 80.5251C46.1118 80.1287 46.7319 78.9275 47.0304 78.4032C46.9157 80.1888 46.5497 81.9992 46.7304 83.794C46.7591 84.079 46.8789 84.9473 46.7576 85.1426L46.6406 85.1688C46.4095 85.0951 46.3141 85.0122 46.1405 84.8407C44.0508 82.7716 42.6772 79.7566 42.0859 76.9083C41.8025 75.5432 41.7456 74.3013 41.7215 72.9314C40.7831 73.9548 40.1559 75.1076 39.4371 76.2865C39.271 76.5589 38.6819 77.5867 38.3482 77.5188C37.9971 77.0362 37.9353 75.9396 37.8894 75.3348C37.6625 72.3436 38.1815 69.7196 39.074 66.8791C38.6519 67.2881 35.8684 70.2779 35.5709 70.2914L35.493 70.2052C35.4529 69.9697 35.4729 69.6736 35.5062 69.4381C36.0649 65.4904 38.7032 60.2788 41.852 57.82C40.9552 58.1162 37.4233 58.9102 36.8664 58.1167L36.8927 58.008C37.2232 57.7104 38.1451 57.1731 38.5837 56.8559C40.0239 55.8143 41.3924 54.7024 42.9422 53.8281C43.4342 53.5506 43.8532 53.2636 44.3893 53.0558C43.7695 53.0609 39.9194 52.7728 40.1311 51.9852C40.636 51.7336 41.361 51.5504 41.9051 51.3519C42.7854 51.0308 43.6637 50.7068 44.5377 50.3686C46.2502 51.8829 47.9448 53.186 50.3188 53.4323L50.0735 53.2985C46.7022 51.4409 43.272 48.3336 42.2511 44.5201C41.2083 40.6245 42.3161 36.1592 44.2233 32.7236C46.0909 29.4174 48.7764 26.6462 52.0226 24.6759C52.8683 24.1655 53.6277 23.728 54.5855 23.4532Z" fill="#000100"/>
<path d="M87.2865 62.8741C87.3345 62.9745 87.5157 64.2738 87.5715 64.5279C87.931 66.1689 88.482 67.8569 89.2999 69.3286C89.7811 70.2032 90.4566 70.8782 91.104 71.6114C91.732 72.3222 92.9318 72.8703 93.3039 73.6834C93.8011 74.7703 92.17 75.3445 91.5852 75.9866C91.1205 76.4968 90.8976 76.8462 90.5947 77.4955C90.6378 76.3272 90.9019 75.9042 91.432 74.8924C91.1558 74.9443 90.4518 75.1672 90.146 75.2684C89.0693 75.6241 88.0914 75.1061 87.0379 74.7112C87.1576 74.9646 87.2909 75.3377 87.3631 75.5984C87.5579 76.3011 87.4615 76.7139 87.1024 77.3085C85.7834 79.4934 85.8919 79.5094 83.4046 80.1113C82.1195 80.4224 80.6198 80.7465 79.3817 80.0415C78.7043 79.6558 78.335 79.0287 78.1553 78.298C78.3224 77.7766 78.6476 77.2639 78.9131 76.7779C77.3276 77.6036 76.9695 78.3765 76.3187 79.9712C76.1869 79.0224 76.6667 76.916 77.1023 76.0355C77.2632 75.7104 77.9183 74.6627 77.9013 74.465C77.7623 74.45 77.7642 74.4888 77.6125 74.5871C76.7786 75.1395 76.201 75.7138 75.5846 76.4876C75.8967 75.2132 76.4307 74.0037 77.1629 72.9149C76.1879 73.3791 75.5463 73.9664 74.757 74.6773C74.7899 72.8286 75.401 71.4621 76.5334 70.0278C76.8547 69.6212 77.4211 68.8813 77.6576 68.4394L77.6876 68.3822C77.8728 69.048 77.9542 70.1107 77.9992 70.808C78.822 69.6033 79.0406 68.0861 78.5914 66.6985C78.1611 65.393 77.8752 65.3866 77.7114 63.8405C78.5894 65.1846 79.1254 65.8796 80.7254 66.4153C80.094 65.0482 79.9661 64.5493 80.1008 63.0682C81.5381 65.311 83.3397 66.8718 85.9617 67.5701C85.4849 66.4429 85.0531 65.2197 84.9746 63.9972C85.6521 65.0604 86.109 65.5297 87.1286 66.208C86.9439 64.9745 86.9357 64.0645 87.2865 62.8741Z" fill="white"/>
<path d="M81.8132 73.1824C82.7877 73.0806 84.0437 73.5254 84.8335 74.0812C85.7596 74.733 86.9162 75.8587 86.4132 77.1089C86.3934 77.1583 86.2921 77.1428 86.2446 77.1442C85.7184 76.9174 84.898 76.5395 84.3359 76.6766C82.2304 77.1893 81.4464 75.3329 81.5777 73.5826C81.5932 73.3776 81.6417 73.3108 81.8132 73.1824Z" fill="#000100"/>
<path d="M82.8361 70.6665C84.7007 70.5647 86.4302 71.812 88.0874 72.4802C89.1069 72.8907 89.7902 72.8214 90.769 72.3809C89.9084 73.3224 89.326 73.6064 88.0423 73.4159C87.2481 73.2216 86.6381 72.9328 85.9141 72.5641C83.6948 71.434 82.3636 71.0687 79.9398 71.8377C80.9996 71.0914 81.5186 70.7784 82.8361 70.6665Z" fill="#000100"/>
<path d="M75.5238 45.3695C77.9263 44.8235 79.0617 44.6989 81.4967 45.3294C80.8246 45.4348 80.056 45.5647 79.4053 45.752C82.8157 46.3973 85.6378 48.342 87.9822 50.8287C88.3708 51.241 88.7381 51.6854 89.1272 52.0883C88.2671 51.7523 87.7462 51.6038 86.9161 51.135C86.3831 50.8338 85.6858 50.2982 85.1944 50.0521C86.512 51.4137 87.2951 52.577 88.2279 54.2454C89.261 56.0936 90.3735 58.4797 91.818 60.055C90.4404 59.5242 89.494 58.9439 88.4479 57.87C88.4076 60.1258 88.5293 61.3189 89.527 63.3975C87.9105 61.9266 87.4598 60.6765 87.0663 58.6119C86.6525 60.2478 86.5178 61.0428 85.7192 62.5666C86.2372 58.5606 85.5012 55.2186 82.49 52.3305C83.9249 55.3394 84.1187 56.0284 84.2171 59.3445C83.9316 58.3932 83.6094 57.3622 83.1733 56.4684C82.2676 54.613 80.6385 52.8236 79.0002 51.5767C78.1914 50.961 77.3904 50.5075 76.5545 49.8463C78.0044 52.2994 78.5267 54.0854 78.3935 56.9816C78.3576 57.7656 78.2898 58.6477 78.0921 59.4101C78.0804 59.4558 78.0678 59.5013 78.0552 59.5467C76.9223 54.6898 73.3081 54.39 71.9019 50.2488C71.1493 52.271 71.2125 53.6328 72.0917 55.6572C70.4697 54.433 68.8885 53.2147 68.0431 51.2921C67.2713 49.5367 67.4105 48.3611 68.4401 46.7933C68.0723 49.3512 68.7436 50.5768 70.2982 52.5225C69.7032 50.1854 70.3031 48.4655 71.6652 46.5375C72.7205 47.9594 73.4535 48.8046 75.1139 49.6081C74.8416 48.99 74.6342 48.3289 74.434 47.6834C77.3739 48.7198 78.8247 49.5348 81.0921 51.6092C79.948 49.5526 78.7089 48.2535 76.6529 47.0622C76.3428 46.8823 75.897 46.6232 75.5655 46.5122L75.5796 46.483C75.9604 46.5039 76.3055 46.6286 76.6723 46.7015C78.4051 47.0461 80.5697 47.7988 82.0471 48.7949L82.2226 48.6939C80.5595 46.8202 78.0121 45.6043 75.5238 45.3695Z" fill="white"/>
<path d="M82.2228 48.694L82.7336 49.2519L82.0472 48.795L82.2228 48.694Z" fill="#000100"/>
<path d="M52.2353 25.871C52.2377 25.883 52.2598 25.9647 52.2556 25.9722C50.0967 29.8223 48.4836 34.307 49.1106 38.7817C49.3521 40.505 50.171 42.6809 51.2462 44.0702C53.357 46.7977 56.7764 48.3795 60.1458 48.8126C61.077 48.9323 62.0669 48.9402 63.001 48.9367C61.6663 49.7174 60.8963 49.8195 59.3851 49.8061C60.712 50.3058 62.2729 50.2691 63.6523 50.0608C62.0574 50.7881 61.1948 51.0159 59.4781 50.9363C61.2318 51.6395 62.3473 51.4038 64.0579 51.3796C60.7983 52.3857 58.466 51.9702 55.3283 50.8786C55.2075 50.8338 55.0875 50.787 54.9682 50.7385C51.4851 49.3214 48.7211 47.0784 47.2275 43.5606C47.4225 44.9862 48.042 46.3146 48.7113 47.5648C46.3485 45.2649 45.401 42.1394 45.5286 38.9117C45.6511 35.8144 46.6338 33.4164 48.1633 30.7686C46.967 31.8419 45.9792 33.26 45.27 34.6903C45.0352 35.1639 44.8511 35.6508 44.6013 36.1142L44.6142 36.0529C45.6282 31.3709 48.2989 28.3957 52.2353 25.871Z" fill="white"/>
<path d="M98.0745 33.5378C100.803 36.5568 102.733 40.6451 102.623 44.8011C102.481 50.1315 98.5533 53.7996 93.6252 55.2054L93.4415 55.1041C95.0479 54.5303 96.0922 53.8307 97.4441 52.7934C96.9213 52.9464 96.4323 53.3018 95.9332 53.5254C94.5255 54.156 93.0234 54.551 91.4902 54.7177C91.1733 54.7521 90.7861 54.7911 90.4803 54.8483C90.1891 54.3865 89.8906 53.9294 89.5848 53.4772C90.0985 53.6736 91.3031 54.0881 91.9118 53.9943C92.0135 53.9787 92.0324 53.8754 92.0542 53.8011C91.9471 53.3175 91.0226 52.5261 90.6756 52.0655C90.4072 51.7096 90.2468 51.5339 89.9938 51.1169C93.3253 50.4133 95.4133 48.981 97.368 46.155C99.3838 43.2415 99.3601 39.2743 98.6371 35.8936C98.4622 35.1054 98.2752 34.3199 98.0745 33.5378Z" fill="white"/>
<path d="M100.854 43.1001L100.904 43.1407C101.099 43.5267 101.115 45.4658 101.093 45.9143C100.978 48.2927 99.3818 49.6241 97.6945 51.0838C97.6451 51.1332 97.6771 51.1112 97.5913 51.1374C97.6063 51.0421 98.2174 50.1442 98.3279 49.9619C99.9551 47.2711 100.586 46.253 100.854 43.1001Z" fill="#000100"/>
<path d="M53.2342 53.7574C55.6379 53.7829 57.8544 54.8359 60.0292 55.7644C58.1856 55.8023 56.3122 55.2921 54.5114 55.3026C52.2231 55.3158 50.3309 56.0674 48.7413 57.7022C49.6276 57.7006 51.1862 57.8099 52.0135 58.0811C51.6228 58.4412 50.9255 58.8517 50.457 59.1525C51.3974 59.3398 52.1909 59.49 53.1051 59.7667C52.8433 59.9427 52.6653 60.0928 52.4231 60.2965C53.0017 60.6023 53.4755 60.7198 54.095 60.9147C54.3539 61.2367 54.4301 61.3709 54.7693 61.6035C54.8975 61.6655 55.0275 61.7237 55.1592 61.7778C56.3467 62.2575 57.6631 61.7317 58.7747 61.2712C55.2925 64.6607 51.188 62.0853 48.0987 59.6285C48.5719 59.407 49.1299 59.1002 49.6019 58.8571C48.7995 58.7574 47.6702 58.7296 46.9555 58.3638C46.3538 58.0558 47.7324 56.6063 48.0201 56.2635C49.4366 54.5753 51.0466 53.8873 53.2342 53.7574Z" fill="white"/>
<path d="M63.2668 61.0893L63.317 61.1734C63.0829 62.9327 63.0463 64.1909 63.2923 65.9485C63.4396 67.0012 63.1885 68.3187 62.907 69.3528C64.5303 67.8719 65.0744 66.6509 65.6462 64.5905C65.7421 65.0943 65.8288 65.776 65.7715 66.2815C65.5387 68.3376 64.7496 69.536 65.3639 71.6729C65.8117 71.2286 66.1476 70.664 66.552 70.1771C66.9886 69.6513 67.448 69.188 67.8859 68.6589C66.8891 71.1094 66.3211 73.3549 66.6958 76.0224C66.7986 76.7537 66.8971 77.3371 67.1602 78.0417C65.9173 76.711 65.4586 75.5999 65.1392 73.8079C65.082 73.2013 64.9291 72.4439 64.8081 71.8483C64.0337 73.8307 63.9657 74.8212 64.2752 76.9557C64.0711 76.6722 63.8759 76.4038 63.6969 76.1034C62.2075 73.6035 63.9264 71.357 64.5181 68.9865C63.1318 70.2013 62.5372 71.1321 60.603 71.6259C61.9328 69.9667 62.2578 67.8686 62.2843 65.8124C61.5258 66.9891 61.1681 67.4101 60.1 68.3129C60.4149 67.5982 60.8719 66.785 61.1465 66.0704C61.8239 64.3069 62.4033 62.7849 63.2668 61.0893Z" fill="white"/>
<path d="M57.5067 64.7369C57.4992 64.8346 57.0618 65.7978 56.9736 65.997C56.6144 66.8088 56.453 67.6146 56.1703 68.4413C56.9044 67.6989 57.6672 66.9856 58.4571 66.3033C57.0818 68.8905 56.9164 72.1449 57.7315 74.9234C57.8438 75.3062 57.972 75.8267 58.1781 76.1566L58.2435 76.1416C58.3459 74.6259 58.8583 73.334 59.5362 72.0053C59.364 74.1452 59.2098 75.4104 59.2252 77.5987C59.2713 78.4555 59.3416 79.3999 59.3259 80.2508C56.3468 76.7619 55.408 73.5952 56.8276 69.0829C56.4549 69.4754 54.8308 71.7054 54.4623 71.5019C54.3783 71.2373 54.5939 70.4591 54.6505 70.1625C55.0722 67.9553 55.9471 66.3479 57.5067 64.7369Z" fill="white"/>
<path d="M86.6254 81.376C86.6555 81.3716 86.6855 81.3682 86.7156 81.3658C87.7424 81.2708 88.4808 81.5296 89.2566 82.176C89.2266 82.2947 89.1956 82.413 89.1631 82.5312C88.7333 84.0809 87.5912 84.9071 86.2431 85.6746C86.5745 85.145 86.6879 84.8232 86.8125 84.2175C86.3434 84.2917 85.7445 84.5214 85.2846 84.6895C84.441 84.9972 83.9133 85.1561 83.0241 85.2671C83.3643 84.9987 83.7291 84.643 84.0509 84.344C83.5518 84.4773 83.1825 84.5587 82.6737 84.6517C82.3457 84.659 82.1218 84.6822 81.7942 84.7229C81.9895 84.5742 82.4474 84.2728 82.4649 84.0334C82.2308 83.9762 81.5646 84.0571 81.2195 84.0368C80.6831 84.0048 80.3362 83.9442 79.8094 83.8536C80.7219 83.6559 80.7844 83.701 81.7133 83.2464C80.5169 83.2145 79.5085 83.1771 79.0264 81.9158C81.2539 83.0226 84.1803 81.644 86.6254 81.376Z" fill="white"/>
<path d="M43.3154 61.528C43.3158 61.5735 42.6784 63.2 42.5969 63.412C41.99 64.9891 42.0427 66.4752 41.8489 68.106C42.3412 67.5623 42.7856 66.9992 43.2978 66.4551C44.2627 65.4301 45.2145 64.6503 46.3266 63.8021C45.4673 65.15 44.7786 66.1887 43.7977 67.4654C42.5168 69.0373 41.3696 70.7275 40.075 72.2394C40.0479 71.1961 40.0137 70.1964 40.1093 69.1551C40.3661 66.3567 41.4274 63.6277 43.3154 61.528Z" fill="white"/>
<path d="M71.7048 73.5477C71.7985 73.6645 71.5575 74.8779 71.523 75.1206C71.1753 77.5711 71.6504 78.7748 72.2227 80.9903C72.7995 78.8678 72.8754 77.9467 74.0251 75.9255C73.6279 77.6055 73.5498 79.2032 73.9863 80.8832C74.2242 81.6847 74.4253 82.1896 74.7844 82.9397C73.8453 82.1537 73.5524 81.8426 72.933 80.7645C72.6574 81.3731 72.5419 82.0311 72.2275 82.6058C69.9921 79.3985 70.0066 76.9669 71.7048 73.5477Z" fill="white"/>
<path d="M66.7535 59.772C67.1226 59.8932 67.4943 60.0066 67.8682 60.1123C67.9406 61.5335 68.2885 62.5162 69.9337 62.729C70.7922 62.8401 71.3847 62.4172 72.0241 61.8908C72.7648 62.471 72.9711 62.9729 73.2906 63.8318C73.3359 64.0329 73.4062 64.2598 73.4629 64.4607C72.3549 64.101 71.714 64.1591 70.584 64.186C69.6084 64.2093 68.4381 64.0063 67.7331 63.2748C66.7321 62.2361 66.7436 61.0974 66.7535 59.772Z" fill="white"/>
<path d="M61.1288 78.676C61.1775 78.7201 61.202 78.7617 61.21 78.8315C61.2952 79.5753 61.4089 80.3191 61.6404 81.0344C61.9413 81.9648 62.563 82.7318 63.0625 83.5629C62.9919 82.1339 62.9818 81.4613 63.3398 80.0623C63.508 81.4409 63.249 81.7816 63.8382 83.3569C64.1679 84.1763 64.5807 84.8421 65.0976 85.553C63.7632 85.0365 62.9464 84.6003 62.0411 83.4156C61.1403 82.2371 60.8847 80.1253 61.1288 78.676Z" fill="white"/>
<path d="M92.2169 77.1971C92.7839 77.1757 92.9418 77.2499 93.4826 77.4364C93.1812 78.6697 92.2654 79.7028 91.2376 80.4044L90.7632 80.6409C90.5471 80.5857 90.3101 80.5367 90.1744 80.3599C90.2074 80.0832 90.4211 79.8578 90.5059 79.602C90.8427 78.582 90.974 77.4578 92.2169 77.1971Z" fill="white"/>
<path d="M79.825 54.5405C79.8986 54.5774 79.9015 54.58 79.9572 54.6395C81.7385 56.5393 81.1919 59.1699 81.0572 61.5268L81.0136 61.6047L80.9574 61.597C79.8574 59.7268 80.106 59.1889 80.0987 57.1827C80.1002 56.2948 80.0081 55.4092 79.825 54.5405Z" fill="white"/>
<path d="M60.1896 87.7927C60.2205 87.813 60.2499 87.8315 60.2755 87.8586C61.8286 89.5333 63.0215 92.2658 63.193 94.4987C63.0662 94.409 62.7282 93.7641 62.6318 93.5828C61.6152 91.6698 60.6915 89.9083 60.1896 87.7927Z" fill="white"/>
<path d="M73.9399 88.0762L74 88.1459C74.033 88.412 73.9666 89.0177 73.9351 89.3031C73.7078 91.3291 72.3303 93.0794 70.7845 94.3179C71.048 93.6856 71.2977 93.171 71.5474 92.5129C71.905 91.5336 71.8739 90.2742 71.8909 89.2241C72.2169 90.1913 72.374 90.9531 72.2534 91.9702C73.2917 90.4685 73.5264 89.857 73.9399 88.0762Z" fill="white"/>
<path d="M73.3574 54.6533C73.8565 55.022 74.4874 55.6209 74.8809 56.093C76.3399 57.844 76.4833 59.3088 76.32 61.4531L76.2449 61.44C75.8369 59.4118 75.5835 58.5693 74.4695 56.7789C74.2039 56.3527 73.5037 55.1159 73.3574 54.6533Z" fill="white"/>
<path d="M60.7393 56.9222L60.7831 56.9654C60.7685 57.1149 60.3683 57.6561 60.2485 57.9044C59.9709 58.4792 59.8243 58.8896 59.6718 59.5095C60.096 58.9068 60.3763 58.5438 60.8588 57.9989C60.3507 59.34 60.1936 59.8488 59.9144 61.2829C59.8486 61.5402 59.8179 61.7949 59.7804 62.0576C59.5173 61.408 59.2808 60.8916 59.1295 60.1962C58.8725 60.2403 58.6102 60.2793 58.3522 60.32C58.9907 58.894 59.6631 58.0256 60.7393 56.9222Z" fill="white"/>
<path d="M76.2619 91.7652L76.3084 91.8481C76.0506 93.6119 74.0043 96.249 72.7747 97.6058C72.6633 97.5035 72.7418 97.222 72.7838 97.0849C73.4153 95.0196 75.1668 93.5703 76.2619 91.7652Z" fill="white"/>
<path d="M54.609 76.8743C54.6436 76.9015 54.6979 76.9446 54.7019 76.995C54.8008 78.2166 55.031 79.4372 55.3897 80.608C55.5757 81.2146 56.7311 83.5832 56.3547 84.0823C54.666 81.737 54.2451 79.7173 54.609 76.8743Z" fill="white"/>
<path d="M51.6864 69.7123C51.7532 69.9755 51.6831 70.6723 51.6516 70.9475C51.6085 71.3172 51.5432 71.6836 51.4561 72.0456C51.2603 72.8756 50.9742 73.7396 50.7567 74.5697C50.6709 74.8977 50.3305 76.4537 50.167 76.5826C49.6972 74.026 50.8528 71.9884 51.6864 69.7123Z" fill="white"/>
<path d="M80.7045 89.8705C80.7525 90.0808 80.7234 90.6662 80.7186 90.9094C80.6808 92.7334 80.108 93.8804 79.1704 95.3801C79.3676 94.5011 79.4088 93.6589 79.4257 92.762C79.401 91.7647 79.165 90.736 78.8602 89.791C79.4693 90.6114 79.8463 91.4594 80.0033 92.4649C80.1943 91.7448 80.4918 90.5 80.7045 89.8705Z" fill="white"/>
<path d="M68.5427 58.5009C69.4263 58.3539 70.3956 58.5793 71.1225 59.0985C71.7053 59.5148 72.0148 60.0563 72.361 60.6603L71.7951 60.239C71.2575 59.9036 70.5663 59.5564 69.949 59.4081C68.879 59.1511 68.6098 59.3397 67.6788 58.6746C68.0037 58.5908 68.2104 58.5514 68.5427 58.5009Z" fill="white"/>
<path d="M64.446 45.3243C64.8863 45.2955 65.3098 45.3109 65.75 45.3206C65.1842 45.5229 64.5979 45.6847 64.0391 45.8982C63.2239 46.2096 62.4086 46.5679 61.6063 46.9139L60.6426 47.278C61.6115 46.1613 62.9739 45.4615 64.446 45.3243Z" fill="white"/>
<path d="M82.2523 59.7299C82.4282 60.9734 82.5159 61.7152 82.9539 62.9354C83.0654 63.2448 83.6614 64.7409 83.6924 64.9002L83.6304 64.8992C82.8042 63.9621 82.1355 63.084 82.0449 61.7829C82.0022 61.1644 82.0366 60.3119 82.2523 59.7299Z" fill="white"/>
<path d="M74.7443 68.403C74.7893 68.545 74.7331 68.9676 74.7089 69.1294C74.5044 70.5008 73.3106 71.3124 72.1379 71.7563C72.0998 71.624 72.4234 71.3861 72.5347 71.2862C73.4775 70.4387 74.1657 69.5229 74.7443 68.403Z" fill="white"/>
<path d="M69.6548 86.9035C69.8499 87.0775 69.9173 87.4918 69.9311 87.7525C69.9923 88.8999 69.3306 89.7232 68.6089 90.5233L68.5203 90.5712C68.5151 90.406 68.9102 89.6656 68.9981 89.4383C69.334 88.5714 69.5583 87.8368 69.6548 86.9035Z" fill="white"/>
<path d="M66.8176 52.6165C66.8633 52.7429 66.6906 53.5612 66.6501 53.7544C66.4708 54.6092 66.6062 55.2005 66.6179 55.9688L66.5772 55.976L66.4919 55.8209C65.9046 54.464 65.7099 53.7717 66.8176 52.6165Z" fill="white"/>
<path d="M69.0781 60.1198C69.3073 60.046 69.5545 60.1625 69.6436 60.3863C69.7327 60.6101 69.633 60.8646 69.4158 60.9684C69.2616 61.0422 69.0792 61.0239 68.9427 60.921C68.8062 60.8181 68.7384 60.6478 68.7669 60.4792C68.7954 60.3107 68.9154 60.1721 69.0781 60.1198Z" fill="white"/>
<path d="M93.6259 55.2055C93.4197 55.2615 93.0977 55.3629 92.9008 55.2928C93.0099 55.1891 93.282 55.1442 93.442 55.1041L93.6259 55.2055Z" fill="#BCBCBB"/>
</svg>
