<svg width="193" height="68" viewBox="0 0 193 68" fill="none" xmlns="http://www.w3.org/2000/svg">
<path d="M99.2731 36.1328C99.3897 36.0939 99.5646 36.0745 99.7978 36.0745C100.459 36.0745 100.789 36.502 100.789 37.3571C100.789 37.8234 100.682 38.2218 100.468 38.5522C100.274 38.8631 99.963 39.0574 99.5355 39.1351C97.7671 39.4655 96.0279 39.8347 94.3178 40.2428L94.2303 40.9424C93.6862 44.7706 92.598 47.5981 90.9656 49.4248C89.3527 51.2709 87.3317 52.1939 84.9026 52.1939C83.2897 52.1939 82.0363 51.7956 81.1424 50.9988C80.2679 50.2215 79.8307 49.2207 79.8307 47.9965C79.8307 45.956 80.744 44.1391 82.5707 42.5456C84.3974 40.9521 87.1665 39.5432 90.8782 38.319L91.4612 34.209C91.5389 33.7426 91.6361 33.1207 91.7527 32.3434C90.8393 34.7531 89.6734 36.5506 88.2548 37.736C86.8362 38.9214 85.2524 39.5141 83.5035 39.5141C81.8323 39.5141 80.5594 39.0088 79.6849 37.9983C78.8105 36.9684 78.3732 35.647 78.3732 34.0341C78.3732 33.315 78.451 32.528 78.6064 31.673C78.7619 30.7985 79.0048 29.6228 79.3352 28.1459C79.6266 26.8051 79.8404 25.7363 79.9764 24.9395C80.1319 24.1428 80.2096 23.4335 80.2096 22.8117C80.2096 21.8789 79.8501 21.4125 79.1311 21.4125C78.5676 21.4125 77.8971 21.6943 77.1198 22.2578C76.3619 22.8019 75.5555 23.6473 74.7005 24.7938C74.4284 25.163 74.1272 25.3476 73.7968 25.3476C73.5248 25.3476 73.2819 25.2213 73.0681 24.9687C72.8738 24.6966 72.7766 24.3954 72.7766 24.0651C72.7766 23.4627 73.0487 22.7825 73.5928 22.0246C75.5749 19.3041 77.8971 17.9438 80.5594 17.9438C81.7448 17.9438 82.6679 18.3033 83.3286 19.0223C84.0087 19.7413 84.3488 20.8004 84.3488 22.1995C84.3488 23.21 84.2516 24.2497 84.0573 25.3185C83.8824 26.3679 83.6103 27.7087 83.2411 29.3411C83.0079 30.3127 82.833 31.0997 82.7164 31.7021C82.5998 32.2851 82.5416 32.7709 82.5416 33.1596C82.5416 34.1507 82.7164 34.8599 83.0662 35.2875C83.416 35.715 84.0282 35.9287 84.9026 35.9287C85.952 35.9287 87.0208 35.3555 88.109 34.209C89.2167 33.043 90.2078 31.2843 91.0822 28.933C91.9761 26.5816 92.6174 23.7056 93.0061 20.3048C93.1032 19.4498 93.3267 18.8474 93.6765 18.4976C94.0263 18.1284 94.5315 17.9438 95.1922 17.9438C96.5525 17.9438 97.2327 18.6239 97.2327 19.9842C97.2327 20.2174 97.223 20.402 97.2035 20.538C96.7954 23.4335 96.4165 26.0472 96.0667 28.3791C95.8724 29.7783 95.6586 31.2163 95.4254 32.6932C95.2117 34.1701 94.9979 35.6664 94.7842 37.1822C96.2027 36.7935 97.6991 36.4437 99.2731 36.1328ZM90.4409 41.3796C85.7382 43.012 83.3869 44.9941 83.3869 47.326C83.3869 47.8702 83.5521 48.3171 83.8824 48.6669C84.2322 49.0361 84.718 49.2207 85.3399 49.2207C88.041 49.2207 89.7317 46.675 90.4118 41.5837L90.4409 41.3796Z" fill="black"/>
<path d="M102.299 42.8079C101.095 42.8079 100.133 42.3707 99.4136 41.4962C98.6946 40.6217 98.3351 39.4752 98.3351 38.0566C98.3351 36.502 98.6946 35.0348 99.4136 33.6551C100.133 32.256 101.085 31.1386 102.27 30.303C103.475 29.4479 104.748 29.0204 106.089 29.0204C106.516 29.0204 106.798 29.1079 106.934 29.2828C107.09 29.4382 107.216 29.7297 107.313 30.1572C107.721 30.0795 108.149 30.0406 108.596 30.0406C109.548 30.0406 110.024 30.3807 110.024 31.0609C110.024 31.4689 109.878 32.4406 109.587 33.9758C109.14 36.2105 108.916 37.7651 108.916 38.6396C108.916 38.9311 108.984 39.1643 109.12 39.3392C109.276 39.5141 109.47 39.6015 109.703 39.6015C110.072 39.6015 110.519 39.3683 111.044 38.902C111.569 38.4161 112.278 37.6388 113.172 36.57C113.405 36.298 113.668 36.1619 113.959 36.1619C114.212 36.1619 114.406 36.2785 114.542 36.5117C114.697 36.7449 114.775 37.0656 114.775 37.4736C114.775 38.251 114.591 38.8534 114.221 39.2809C113.425 40.272 112.579 41.1076 111.685 41.7877C110.791 42.4679 109.927 42.8079 109.091 42.8079C108.45 42.8079 107.857 42.5942 107.313 42.1667C106.788 41.7197 106.39 41.1173 106.118 40.3594C105.107 41.9918 103.835 42.8079 102.299 42.8079ZM103.349 39.8639C103.776 39.8639 104.184 39.6112 104.573 39.106C104.962 38.6007 105.243 37.9303 105.418 37.0947L106.497 31.7313C105.681 31.7507 104.923 32.0616 104.223 32.6641C103.543 33.247 102.999 34.0243 102.591 34.996C102.183 35.9676 101.979 36.9975 101.979 38.0858C101.979 38.6882 102.095 39.1351 102.329 39.4266C102.581 39.7181 102.921 39.8639 103.349 39.8639Z" fill="black"/>
<path d="M124.794 39.6307C125.591 39.7861 125.99 40.2234 125.99 40.9424C125.99 41.4282 125.766 41.8654 125.319 42.2541C124.892 42.6233 124.27 42.8079 123.454 42.8079C122.054 42.8079 120.908 42.3804 120.014 41.5254C119.14 40.6509 118.702 39.5141 118.702 38.1149C118.702 37.3571 119.091 36.8129 119.868 36.4826C120.723 36.1134 121.335 35.7247 121.705 35.3166C122.074 34.8891 122.259 34.3741 122.259 33.7717C122.259 33.4219 122.181 33.1596 122.025 32.9847C121.889 32.8098 121.714 32.7223 121.501 32.7223C120.976 32.7223 120.393 33.1013 119.752 33.8592C119.13 34.617 118.547 35.5984 118.003 36.8032C117.459 37.9886 117.031 39.2129 116.72 40.476C116.506 41.3893 116.254 42.0112 115.962 42.3415C115.69 42.6525 115.253 42.8079 114.651 42.8079C114.048 42.8079 113.601 42.5942 113.31 42.1667C113.038 41.7197 112.853 41.0396 112.756 40.1262C112.659 39.2129 112.61 37.872 112.61 36.1036C112.61 33.111 112.911 29.9921 113.514 26.7468C114.136 23.5015 115.039 20.7809 116.225 18.585C117.429 16.3697 118.868 15.2621 120.539 15.2621C121.433 15.2621 122.152 15.6507 122.696 16.428C123.259 17.1859 123.541 18.177 123.541 19.4012C123.541 21.3639 122.968 23.4044 121.821 25.5225C120.675 27.6213 118.809 30.0795 116.225 32.8972C116.166 33.9077 116.137 34.9474 116.137 36.0162C117.07 33.5871 118.139 31.8284 119.344 30.7402C120.548 29.6325 121.676 29.0787 122.725 29.0787C123.697 29.0787 124.474 29.4091 125.057 30.0698C125.659 30.7305 125.96 31.5467 125.96 32.5183C125.96 33.5871 125.688 34.5685 125.144 35.4624C124.6 36.3563 123.667 37.153 122.346 37.8526C122.463 38.4356 122.696 38.8437 123.046 39.0768C123.415 39.2906 123.998 39.4752 124.794 39.6307ZM119.927 18.1478C119.577 18.1478 119.188 18.6531 118.761 19.6636C118.333 20.6546 117.915 22.0052 117.507 23.7153C117.119 25.4059 116.798 27.252 116.545 29.2536C117.75 27.835 118.741 26.2901 119.519 24.6189C120.315 22.9477 120.714 21.4319 120.714 20.0717C120.714 19.4498 120.646 18.9737 120.51 18.6433C120.374 18.313 120.179 18.1478 119.927 18.1478Z" fill="black"/>
<path d="M156.483 36.1619C156.736 36.1619 156.93 36.2785 157.066 36.5117C157.222 36.7449 157.3 37.0656 157.3 37.4736C157.3 38.2315 157.115 38.8339 156.746 39.2809C155.658 40.5829 154.598 41.4962 153.568 42.0209C152.558 42.5456 151.334 42.8079 149.896 42.8079C148.885 42.8079 147.952 42.6816 147.097 42.429C146.242 42.1764 145.203 41.7974 143.978 41.2922C142.871 40.8064 141.802 40.408 140.772 40.0971C139.781 41.9043 138.294 42.8079 136.312 42.8079C135.224 42.8079 134.359 42.565 133.718 42.0792C133.057 41.574 132.727 40.9327 132.727 40.1554C132.727 39.2032 133.184 38.4161 134.097 37.7943C135.01 37.153 136.225 36.8324 137.741 36.8324H138.119L138.644 28.35C138.761 26.4067 139.111 24.8035 139.694 23.5404C140.277 22.2773 141.083 21.1988 142.113 20.3048C143.007 19.5275 144.027 18.9446 145.174 18.5559C146.32 18.1478 147.535 17.9438 148.817 17.9438C150.916 17.9438 152.529 18.4879 153.656 19.5761C154.783 20.6643 155.347 22.0829 155.347 23.8319C155.347 25.0173 155.133 25.9792 154.705 26.7176C154.278 27.4367 153.685 27.7962 152.927 27.7962C152.383 27.7962 151.956 27.6698 151.645 27.4172C151.334 27.1452 151.178 26.7662 151.178 26.2804C151.178 26.1055 151.217 25.7849 151.295 25.3185C151.411 24.7744 151.47 24.2886 151.47 23.861C151.47 23.0449 151.227 22.4036 150.741 21.9372C150.275 21.4514 149.556 21.2085 148.584 21.2085C146.874 21.2085 145.553 21.772 144.62 22.8991C143.687 24.0068 143.094 25.7557 142.842 28.1459L142.171 34.7628C142.074 35.6956 141.948 36.502 141.792 37.1822C143.036 37.3959 144.591 37.736 146.456 38.2024C147.544 38.4744 148.38 38.6688 148.963 38.7854C149.546 38.902 150.061 38.9603 150.508 38.9603C151.635 38.9603 152.597 38.7756 153.394 38.4064C154.21 38.0178 154.977 37.4056 155.696 36.57C155.93 36.298 156.192 36.1619 156.483 36.1619Z" fill="black"/>
<path d="M158.52 42.8079C157.315 42.8079 156.353 42.3707 155.634 41.4962C154.915 40.6217 154.555 39.4752 154.555 38.0566C154.555 36.502 154.915 35.0348 155.634 33.6551C156.353 32.256 157.305 31.1386 158.49 30.303C159.695 29.4479 160.968 29.0204 162.309 29.0204C162.736 29.0204 163.018 29.1079 163.154 29.2828C163.31 29.4382 163.436 29.7297 163.533 30.1572C163.941 30.0795 164.369 30.0406 164.816 30.0406C165.768 30.0406 166.244 30.3807 166.244 31.0609C166.244 31.4689 166.098 32.4406 165.807 33.9758C165.36 36.2105 165.136 37.7651 165.136 38.6396C165.136 38.9311 165.204 39.1643 165.34 39.3392C165.496 39.5141 165.69 39.6015 165.923 39.6015C166.293 39.6015 166.74 39.3683 167.264 38.902C167.789 38.4161 168.498 37.6388 169.392 36.57C169.625 36.298 169.888 36.1619 170.179 36.1619C170.432 36.1619 170.626 36.2785 170.762 36.5117C170.918 36.7449 170.995 37.0656 170.995 37.4736C170.995 38.251 170.811 38.8534 170.441 39.2809C169.645 40.272 168.799 41.1076 167.906 41.7877C167.012 42.4679 166.147 42.8079 165.311 42.8079C164.67 42.8079 164.077 42.5942 163.533 42.1667C163.008 41.7197 162.61 41.1173 162.338 40.3594C161.328 41.9918 160.055 42.8079 158.52 42.8079ZM159.569 39.8639C159.996 39.8639 160.404 39.6112 160.793 39.106C161.182 38.6007 161.464 37.9303 161.638 37.0947L162.717 31.7313C161.901 31.7507 161.143 32.0616 160.443 32.6641C159.763 33.247 159.219 34.0243 158.811 34.996C158.403 35.9676 158.199 36.9975 158.199 38.0858C158.199 38.6882 158.315 39.1351 158.549 39.4266C158.801 39.7181 159.141 39.8639 159.569 39.8639Z" fill="black"/>
<path d="M174.398 42.8079C172.455 42.8079 171.036 42.0598 170.142 40.5635C169.268 39.0671 168.83 36.9004 168.83 34.0632C168.83 31.5564 169.141 28.8358 169.763 25.9015C170.385 22.9477 171.289 20.4409 172.474 18.381C173.679 16.3017 175.107 15.2621 176.759 15.2621C177.653 15.2621 178.372 15.6507 178.916 16.428C179.46 17.1859 179.732 18.177 179.732 19.4012C179.732 20.9947 179.431 22.5785 178.828 24.1525C178.226 25.7266 177.225 27.3784 175.826 29.1079C176.778 29.1856 177.604 29.5062 178.304 30.0698C179.023 30.6333 179.567 31.3621 179.936 32.256C180.325 33.1499 180.519 34.1215 180.519 35.1709C180.519 36.6283 180.228 37.94 179.645 39.106C179.081 40.272 178.333 41.1853 177.4 41.846C176.467 42.4873 175.467 42.8079 174.398 42.8079ZM172.678 31.09C173.961 28.7386 174.981 26.6691 175.739 24.8812C176.516 23.074 176.905 21.4708 176.905 20.0717C176.905 19.4498 176.827 18.9737 176.671 18.6433C176.535 18.313 176.341 18.1478 176.088 18.1478C175.7 18.1478 175.272 18.7308 174.806 19.8968C174.359 21.0433 173.941 22.6076 173.552 24.5898C173.164 26.5719 172.872 28.7386 172.678 31.09ZM174.514 39.6598C175.175 39.6598 175.729 39.3003 176.176 38.5813C176.642 37.8623 176.875 36.8129 176.875 35.4332C176.875 34.3644 176.681 33.558 176.292 33.0138C175.904 32.4697 175.437 32.1977 174.893 32.1977C174.213 32.1977 173.64 32.5475 173.174 33.247C172.707 33.9466 172.474 34.9668 172.474 36.3077C172.474 37.4736 172.668 38.3287 173.057 38.8728C173.446 39.3975 173.931 39.6598 174.514 39.6598Z" fill="black"/>
<path d="M187.74 43.4492C186.73 43.4492 185.952 43.216 185.408 42.7496C184.883 42.2832 184.621 41.7586 184.621 41.1756C184.621 40.6703 184.806 40.2331 185.175 39.8639C185.544 39.4947 186.088 39.31 186.807 39.31C187.06 39.31 187.351 39.3392 187.682 39.3975C188.032 39.4364 188.294 39.4655 188.469 39.4849C188.449 38.9797 188.333 38.5036 188.119 38.0566C187.925 37.6097 187.672 37.1822 187.361 36.7741C187.05 36.3466 186.759 35.9773 186.487 35.6664C185.884 36.8129 185.282 37.7651 184.679 38.523C184.096 39.2809 183.455 39.9999 182.756 40.68C182.406 41.0298 182.037 41.2047 181.648 41.2047C181.337 41.2047 181.084 41.0978 180.89 40.8841C180.696 40.6509 180.599 40.3691 180.599 40.0388C180.599 39.6501 180.735 39.2906 181.007 38.9603L181.386 38.4939C182.454 37.1724 183.261 36.0842 183.805 35.2292C184.155 34.6656 184.505 33.9952 184.854 33.2179C185.224 32.4406 185.7 31.3815 186.283 30.0406C186.652 29.1856 187.419 28.7581 188.585 28.7581C189.13 28.7581 189.508 28.8067 189.722 28.9038C189.936 29.001 190.043 29.1564 190.043 29.3702C190.043 29.4868 190.004 29.6714 189.926 29.924C189.849 30.1767 189.742 30.4293 189.606 30.6819C189.256 31.3815 189.081 31.9742 189.081 32.46C189.081 32.7515 189.178 33.0721 189.372 33.4219C189.586 33.7717 189.907 34.209 190.334 34.7336C190.956 35.5498 191.423 36.2494 191.734 36.8324C192.064 37.3959 192.229 38.0178 192.229 38.6979C192.229 39.5141 192.035 40.2914 191.646 41.0298C191.277 41.7488 190.752 42.3318 190.072 42.7788C189.392 43.2257 188.615 43.4492 187.74 43.4492Z" fill="black"/>
<path d="M16.2648 0L16.3423 0.0545916C16.3613 0.317283 15.7499 1.23788 15.6022 1.52778C13.2844 6.07423 11.0336 12.4265 14.6193 16.9461C15.0314 17.4656 15.4582 17.8694 15.9469 18.32C16.2519 18.1171 16.8977 17.8268 17.2407 17.6643C19.308 16.6847 21.0081 16.2803 23.2857 16.2531C22.727 15.9901 22.2118 15.779 21.6251 15.5825C21.2755 15.4655 19.7516 15.121 19.6542 14.8691C19.7266 14.7436 19.8763 14.6858 20.0166 14.6422C22.2476 13.95 24.6134 13.952 26.8309 14.6907C27.823 15.0212 28.6475 15.4389 29.5647 15.8897C29.2674 15.2942 28.7964 14.7836 28.334 14.3109C28.1757 14.1491 27.5727 13.6305 27.5249 13.4598L27.5799 13.3774C27.8894 13.2514 28.6573 13.4138 28.9753 13.5004C30.9257 14.0311 32.5537 15.0375 33.5876 16.7899C33.7711 16.4749 33.9418 16.1475 34.1277 15.8362C34.2894 15.5665 34.5978 14.875 34.9788 15.089C35.2451 15.4865 35.208 16.5715 35.1754 17.0629C36.7468 16.4801 38.9544 16.4462 40.5121 16.9566C41.0812 17.143 42.6315 17.6652 42.8954 18.1569L42.8764 18.2169C42.6484 18.2858 42.3866 18.3076 42.1491 18.3275C41.5277 18.3794 40.9183 18.4684 40.3015 18.5599C42.5874 19.2352 44.2903 20.6239 45.787 22.4209C46.5028 22.2296 47.1258 22.1415 47.8272 21.8344C53.4905 19.3558 53.2093 13.0967 51.9236 8.04312C51.8189 7.63162 51.1885 5.95511 51.2697 5.75613C51.3888 5.73642 51.5307 5.80078 51.6243 5.87009C56.9499 9.81987 60.7923 18.496 57.1102 24.6747C55.4412 27.4755 51.5381 29.5658 48.4947 30.302C48.8902 30.9942 49.4084 31.6742 49.9193 32.2876C50.2582 32.6942 50.645 33.0596 50.9291 33.5069L50.9044 33.5746C50.2706 33.9722 48.4032 33.2595 47.7686 32.916C48.7693 34.2272 50.0426 37.5041 46.9498 35.3434C47.7785 36.6306 48.1096 38.6549 45.9437 36.9273C46.6401 38.4236 47.2108 39.4054 48.4622 40.5182C49.0101 41.006 50.2026 41.9943 50.2978 42.7514C50.5308 44.5986 49.7824 46.8981 48.851 48.4954C48.3925 49.2405 47.748 49.7761 46.9131 49.9472C46.6657 52.5408 44.2783 53.8783 42.0035 54.4523C41.8452 55.1594 41.6588 55.9433 42.0843 56.5993C42.208 56.7898 42.5259 57.0664 42.3862 57.2887C42.1759 57.3567 41.8786 57.2511 41.6683 57.1856C40.6936 56.8801 40.1044 56.2026 39.6595 55.3112C40.0132 58.9932 38.7016 61.9079 35.7436 64.1291C35.455 64.346 34.6716 64.8862 34.2931 64.8268C34.1991 64.694 34.4778 64.264 34.5772 64.0879C35.335 62.7474 35.4925 61.4672 35.5255 59.9477C34.5499 62.6002 33.3455 65.256 30.7078 66.7165C30.5233 66.8183 30.2849 66.9399 30.0857 66.8752C30.0535 66.6917 30.4156 66.2163 30.5368 66.0353C30.7891 65.6209 30.9724 65.1488 31.1566 64.6998C29.6452 66.166 27.6782 67.3931 25.521 67.6174C25.3122 67.6392 24.8788 67.6359 24.7192 67.4953C24.7297 67.4149 24.7288 67.3782 24.8134 67.3263C27.7275 65.5418 27.9702 62.3368 27.3477 59.2212C27.1988 61.1447 26.3648 63.7609 24.9682 65.1183C24.7149 65.3644 24.1148 65.9013 23.7251 65.8976C23.6432 65.8943 23.5293 65.8345 23.527 65.7405C23.5021 64.7196 23.5797 63.9061 23.3603 62.8847C22.8752 60.626 21.4117 58.945 19.8942 57.3064C19.8898 57.4326 19.8781 57.5579 19.8591 57.6824C19.6629 58.9804 19.1504 60.7068 18.052 61.5105C17.9309 61.2029 17.8639 60.7448 17.7824 60.4096C17.6615 59.9304 17.5083 59.4596 17.3238 59.0011C16.972 58.1228 16.5472 57.3402 16.1519 56.4883C15.2897 54.6304 14.6543 52.9729 14.2267 50.9743C14.157 51.5553 14.1825 52.2897 14.2015 52.9127C14.222 53.5806 14.4097 54.4861 14.3448 55.1673C14.3402 55.2151 14.3109 55.2134 14.2583 55.2365C14.0556 55.1603 13.8466 54.9339 13.7002 54.776C11.2343 52.1095 10.2884 48.2901 10.6332 44.7322C10.7339 43.6943 10.9517 42.6862 11.1682 41.6789C10.4995 42.8734 9.9979 44.4456 9.58022 45.7415C9.40729 46.2784 9.1291 46.9587 9.0381 47.498C8.93287 46.9517 8.80146 46.4095 8.72692 45.8619C8.39598 43.4333 8.87729 41.1606 9.74301 38.89C7.79482 41.4637 6.96963 45.0414 8.46946 47.9969C8.56611 48.1874 8.66177 48.375 8.76419 48.5627C9.05455 48.2254 9.58216 47.2032 9.83615 46.7571C9.73859 48.2765 9.42712 49.8169 9.58092 51.3442C9.60533 51.5866 9.70726 52.3255 9.60405 52.4917L9.50448 52.514C9.30784 52.4513 9.22665 52.3808 9.07896 52.2348C7.30081 50.4742 6.13204 47.9087 5.62888 45.4851C5.38775 44.3236 5.33934 43.2668 5.31881 42.1011C4.5203 42.972 3.98663 43.9529 3.37499 44.9561C3.23373 45.1878 2.73243 46.0623 2.4485 46.0046C2.14969 45.5939 2.09716 44.6608 2.05811 44.1463C1.86502 41.601 2.30662 39.3682 3.06608 36.9512C2.70686 37.2992 0.338431 39.8432 0.0852229 39.8548L0.0189626 39.7814C-0.0151778 39.581 0.0018513 39.3291 0.030178 39.1287C0.505629 35.7696 2.75053 31.335 5.42985 29.2428C4.66676 29.4949 1.6615 30.1705 1.18757 29.4953L1.20996 29.4027C1.49125 29.1496 2.27569 28.6924 2.64885 28.4224C3.87431 27.5362 5.0388 26.59 6.35754 25.8461C6.77613 25.6099 7.13267 25.3658 7.58886 25.1889C7.0615 25.1933 3.78542 24.9482 3.96556 24.278C4.3952 24.0639 5.01208 23.908 5.47508 23.7391C6.22411 23.4658 6.97145 23.1902 7.71515 22.9024C9.17231 24.1909 10.6142 25.2997 12.6343 25.5093L12.4255 25.3955C9.55692 23.8148 6.63812 21.1708 5.76948 17.9259C4.88212 14.6111 5.82473 10.8115 7.4476 7.88821C9.03674 5.07488 11.3219 2.71689 14.084 1.04038C14.8037 0.606034 15.4499 0.233829 16.2648 0Z" fill="#000100"/>
<path d="M44.0903 33.5434C44.1311 33.6288 44.2853 34.7344 44.3327 34.9506C44.6387 36.3469 45.1075 37.7833 45.8035 39.0355C46.2129 39.7798 46.7877 40.3541 47.3386 40.978C47.873 41.5828 48.8939 42.0492 49.2105 42.7411C49.6336 43.6659 48.2457 44.1545 47.748 44.7008C47.3526 45.135 47.1629 45.4323 46.9052 45.9848C46.9419 44.9907 47.1666 44.6307 47.6177 43.7698C47.3827 43.8139 46.7836 44.0036 46.5234 44.0898C45.6072 44.3924 44.7752 43.9516 43.8788 43.6156C43.9806 43.8313 44.094 44.1487 44.1554 44.3706C44.3212 44.9684 44.2391 45.3197 43.9336 45.8257C42.8113 47.6848 42.9036 47.6984 40.7872 48.2105C39.6937 48.4753 38.4175 48.7511 37.3641 48.1512C36.7876 47.823 36.4734 47.2894 36.3205 46.6676C36.4627 46.224 36.7394 45.7877 36.9653 45.3742C35.6162 46.0768 35.3115 46.7344 34.7578 48.0914C34.6456 47.2841 35.0538 45.4917 35.4245 44.7425C35.5614 44.4658 36.1188 43.5744 36.1044 43.4061C35.9861 43.3934 35.9877 43.4264 35.8587 43.5101C35.1491 43.9801 34.6576 44.4687 34.1331 45.1272C34.3986 44.0428 34.853 43.0136 35.476 42.0871C34.6464 42.4821 34.1005 42.9819 33.4288 43.5867C33.4569 42.0137 33.9768 40.851 34.9404 39.6305C35.2138 39.2846 35.6958 38.6549 35.897 38.2789L35.9226 38.2302C36.0801 38.7968 36.1493 39.701 36.1877 40.2943C36.8878 39.2693 37.0738 37.9783 36.6916 36.7975C36.3254 35.6867 36.0821 35.6813 35.9428 34.3657C36.6899 35.5094 37.1459 36.1008 38.5074 36.5566C37.9702 35.3934 37.8613 34.9688 37.9759 33.7086C39.1989 35.6169 40.7319 36.945 42.963 37.5392C42.5573 36.5801 42.1899 35.5393 42.1231 34.499C42.6995 35.4037 43.0883 35.803 43.9559 36.3802C43.7988 35.3306 43.7918 34.5563 44.0903 33.5434Z" fill="white"/>
<path d="M39.433 42.3148C40.2622 42.2282 41.3309 42.6067 42.003 43.0796C42.791 43.6342 43.7752 44.592 43.3472 45.6558C43.3303 45.6979 43.2441 45.6847 43.2037 45.6859C42.7559 45.493 42.0578 45.1714 41.5796 45.288C39.788 45.7243 39.1209 44.1447 39.2326 42.6554C39.2458 42.4809 39.287 42.424 39.433 42.3148Z" fill="#000100"/>
<path d="M40.3036 40.174C41.8902 40.0874 43.3618 41.1487 44.7719 41.7173C45.6395 42.0665 46.2208 42.0076 47.0537 41.6328C46.3214 42.4339 45.8258 42.6755 44.7336 42.5135C44.0578 42.3482 43.5387 42.1024 42.9227 41.7886C41.0342 40.8271 39.9016 40.5162 37.8391 41.1706C38.7409 40.5356 39.1825 40.2692 40.3036 40.174Z" fill="#000100"/>
<path d="M34.0815 18.6487C36.1258 18.1841 37.0919 18.0781 39.1638 18.6146C38.5919 18.7042 37.9379 18.8148 37.3842 18.9742C40.2861 19.5232 42.6875 21.178 44.6823 23.2939C45.013 23.6448 45.3256 24.0229 45.6567 24.3657C44.9248 24.0798 44.4815 23.9535 43.7752 23.5546C43.3217 23.2983 42.7283 22.8425 42.3102 22.6331C43.4313 23.7917 44.0977 24.7816 44.8914 26.2012C45.7705 27.7739 46.7171 29.8042 47.9463 31.1446C46.774 30.6929 45.9688 30.1992 45.0786 29.2854C45.0444 31.2049 45.1478 32.2201 45.9968 33.9888C44.6213 32.7372 44.2378 31.6734 43.903 29.9167C43.5509 31.3087 43.4363 31.9852 42.7568 33.2818C43.1975 29.873 42.5712 27.0293 40.009 24.5718C41.2299 27.1321 41.3949 27.7184 41.4786 30.54C41.2357 29.7306 40.9615 28.8533 40.5904 28.0927C39.8198 26.514 38.4336 24.9914 37.0395 23.9304C36.3513 23.4065 35.6698 23.0206 34.9585 22.458C36.1922 24.5453 36.6367 26.0651 36.5233 28.5294C36.4928 29.1965 36.435 29.9471 36.2668 30.5959C36.2569 30.6348 36.2462 30.6735 36.2355 30.7121C35.2714 26.5793 32.1961 26.3243 30.9995 22.8005C30.3591 24.5212 30.413 25.6799 31.161 27.4025C29.7809 26.3608 28.4354 25.3242 27.7161 23.6882C27.0594 22.1946 27.1778 21.1943 28.0539 19.8602C27.7409 22.0367 28.3121 23.0796 29.635 24.7352C29.1287 22.7466 29.6391 21.283 30.7981 19.6425C31.6961 20.8524 32.3198 21.5716 33.7327 22.2553C33.5009 21.7294 33.3245 21.1668 33.1542 20.6176C35.6557 21.4995 36.8902 22.1929 38.8195 23.958C37.846 22.2081 36.7917 21.1026 35.0422 20.089C34.7783 19.9359 34.399 19.7155 34.1169 19.621L34.1289 19.5961C34.453 19.614 34.7466 19.72 35.0587 19.7821C36.5332 20.0753 38.375 20.7158 39.6322 21.5634L39.7814 21.4775C38.3664 19.8831 36.1988 18.8485 34.0815 18.6487Z" fill="white"/>
<path d="M39.7816 21.4774L40.2162 21.9522L39.6322 21.5634L39.7816 21.4774Z" fill="#000100"/>
<path d="M14.2652 2.05737C14.2672 2.06752 14.286 2.13712 14.2824 2.14347C12.4454 5.4195 11.0728 9.23561 11.6064 13.0431C11.8119 14.5095 12.5087 16.361 13.4236 17.5432C15.2196 19.864 18.1293 21.2099 20.9962 21.5784C21.7887 21.6803 22.6309 21.6871 23.4258 21.684C22.2901 22.3483 21.6349 22.4352 20.349 22.4238C21.478 22.849 22.8062 22.8178 23.9799 22.6406C22.6229 23.2594 21.8889 23.4532 20.4281 23.3855C21.9204 23.9839 22.8695 23.7833 24.3251 23.7627C21.5515 24.6188 19.5669 24.2653 16.897 23.3364C16.7943 23.2982 16.6921 23.2585 16.5907 23.2172C13.6269 22.0114 11.2749 20.1028 10.004 17.1095C10.17 18.3225 10.6971 19.4529 11.2666 20.5167C9.25609 18.5597 8.44987 15.9002 8.55847 13.1537C8.66267 10.5182 9.49886 8.47775 10.8003 6.22477C9.78233 7.13803 8.94181 8.3447 8.33838 9.56171C8.13856 9.96468 7.98196 10.379 7.76941 10.7733L7.78034 10.7212C8.64321 6.73725 10.9157 4.20562 14.2652 2.05737Z" fill="white"/>
<path d="M53.2698 8.58099C55.5912 11.1499 57.2335 14.6287 57.1399 18.165C57.0195 22.7007 53.6772 25.8219 49.4839 27.0181L49.3276 26.9319C50.6944 26.4437 51.583 25.8483 52.7334 24.9657C52.2885 25.0959 51.8724 25.3983 51.4478 25.5885C50.25 26.1251 48.9718 26.4612 47.6672 26.6031C47.3975 26.6324 47.068 26.6656 46.8079 26.7142C46.5601 26.3212 46.3061 25.9323 46.0459 25.5475C46.483 25.7147 47.508 26.0674 48.0259 25.9876C48.1125 25.9743 48.1285 25.8864 48.1471 25.8231C48.056 25.4117 47.2693 24.7382 46.974 24.3464C46.7456 24.0435 46.6091 23.894 46.3939 23.5391C49.2286 22.9405 51.0053 21.7217 52.6686 19.317C54.3839 16.8379 54.3637 13.4623 53.7485 10.5856C53.5997 9.9149 53.4405 9.24657 53.2698 8.58099Z" fill="white"/>
<path d="M55.6348 16.7177L55.6773 16.7522C55.843 17.0807 55.8567 18.7306 55.8385 19.1122C55.7408 21.136 54.3822 22.2689 52.9465 23.511C52.9044 23.553 52.9316 23.5343 52.8586 23.5566C52.8714 23.4755 53.3914 22.7114 53.4854 22.5564C54.87 20.2668 55.4072 19.4005 55.6348 16.7177Z" fill="#000100"/>
<path d="M15.1152 25.7859C17.1605 25.8076 19.0466 26.7036 20.8971 27.4937C19.3284 27.5259 17.7343 27.0918 16.202 27.1007C14.2548 27.112 12.6448 27.7515 11.2922 29.1426C12.0464 29.1412 13.3726 29.2342 14.0766 29.465C13.7441 29.7714 13.1507 30.1207 12.7521 30.3766C13.5523 30.536 14.2275 30.6638 15.0054 30.8992C14.7826 31.049 14.6312 31.1767 14.4251 31.35C14.9174 31.6102 15.3206 31.7103 15.8477 31.8761C16.068 32.15 16.1329 32.2643 16.4215 32.4622C16.5305 32.515 16.6412 32.5644 16.7532 32.6105C17.7637 33.0186 18.8838 32.5713 19.8296 32.1794C16.8667 35.0636 13.3741 32.8722 10.7454 30.7816C11.148 30.5932 11.6229 30.3322 12.0245 30.1252C11.3417 30.0404 10.3808 30.0168 9.77264 29.7055C9.26066 29.4434 10.4337 28.2101 10.6785 27.9184C11.8839 26.4819 13.2538 25.8965 15.1152 25.7859Z" fill="white"/>
<path d="M23.652 32.0247L23.6947 32.0962C23.4954 33.5933 23.4643 34.6639 23.6737 36.1594C23.799 37.0551 23.5853 38.1762 23.3457 39.0561C24.727 37.7961 25.19 36.7571 25.6766 35.0039C25.7582 35.4325 25.832 36.0126 25.7832 36.4427C25.5851 38.1923 24.9136 39.212 25.4364 41.0303C25.8174 40.6522 26.1032 40.1719 26.4473 39.7575C26.8188 39.3101 27.2098 38.9159 27.5824 38.4657C26.7341 40.5508 26.2508 42.4615 26.5697 44.7314C26.6571 45.3536 26.741 45.85 26.9648 46.4495C25.9072 45.3173 25.5169 44.3718 25.2452 42.847C25.1965 42.3308 25.0664 41.6863 24.9634 41.1796C24.3045 42.8664 24.2466 43.7092 24.51 45.5255C24.3364 45.2843 24.1702 45.0559 24.0179 44.8002C22.7506 42.673 24.2132 40.7615 24.7167 38.7444C23.5371 39.7781 23.0311 40.5702 21.3853 40.9903C22.5168 39.5785 22.7934 37.7932 22.8159 36.0436C22.1705 37.0448 21.8661 37.4031 20.9573 38.1713C21.2253 37.5631 21.6141 36.8712 21.8477 36.2632C22.4242 34.7625 22.9172 33.4675 23.652 32.0247Z" fill="white"/>
<path d="M18.7505 35.1285C18.7441 35.2116 18.372 36.0311 18.2969 36.2006C17.9913 36.8914 17.8539 37.5771 17.6133 38.2805C18.238 37.6489 18.8871 37.0419 19.5592 36.4613C18.3889 38.6628 18.2482 41.4319 18.9418 43.7962C19.0374 44.1219 19.1464 44.5648 19.3218 44.8456L19.3774 44.8328C19.4646 43.543 19.9006 42.4438 20.4774 41.3132C20.3309 43.134 20.1997 44.2106 20.2128 46.0726C20.252 46.8016 20.3118 47.6052 20.2985 48.3293C17.7636 45.3605 16.9647 42.666 18.1726 38.8264C17.8555 39.1604 16.4736 41.0579 16.16 40.8848C16.0885 40.6596 16.2719 39.9974 16.3201 39.7451C16.679 37.867 17.4234 36.4993 18.7505 35.1285Z" fill="white"/>
<path d="M43.5278 49.2867C43.5534 49.283 43.579 49.2801 43.6045 49.278C44.4782 49.1972 45.1066 49.4174 45.7668 49.9675C45.7412 50.0685 45.7148 50.1691 45.6872 50.2697C45.3214 51.5883 44.3496 52.2913 43.2025 52.9444C43.4845 52.4938 43.581 52.22 43.687 51.7046C43.2879 51.7677 42.7782 51.9631 42.3869 52.1062C41.6691 52.368 41.2201 52.5032 40.4634 52.5977C40.7529 52.3692 41.0634 52.0666 41.3372 51.8122C40.9125 51.9256 40.5983 51.9949 40.1653 52.074C39.8862 52.0802 39.6957 52.1 39.417 52.1346C39.5831 52.008 39.9728 51.7516 39.9876 51.5479C39.7885 51.4992 39.2215 51.5681 38.9279 51.5508C38.4715 51.5236 38.1763 51.472 37.7281 51.3949C38.5045 51.2267 38.5577 51.265 39.3481 50.8783C38.3301 50.8511 37.472 50.8193 37.0618 49.746C38.9572 50.6878 41.4472 49.5147 43.5278 49.2867Z" fill="white"/>
<path d="M6.67512 32.3979C6.67545 32.4367 6.13312 33.8207 6.06372 34.0011C5.54733 35.3431 5.59215 36.6076 5.4273 37.9952C5.84618 37.5326 6.22432 37.0535 6.66015 36.5905C7.48121 35.7183 8.29106 35.0548 9.23738 34.333C8.50621 35.4799 7.92021 36.3638 7.0855 37.4501C5.99561 38.7877 5.01947 40.2259 3.91786 41.5123C3.89477 40.6246 3.86575 39.774 3.94706 38.8879C4.16559 36.5068 5.06866 34.1846 6.67512 32.3979Z" fill="white"/>
<path d="M30.8319 42.6256C30.9116 42.725 30.7065 43.7574 30.6772 43.964C30.3813 46.0491 30.7856 47.0733 31.2725 48.9585C31.7634 47.1525 31.8279 46.3687 32.8062 44.6489C32.4682 46.0784 32.4018 47.4378 32.7732 48.8674C32.9757 49.5494 33.1468 49.979 33.4523 50.6173C32.6532 49.9485 32.404 49.6838 31.8769 48.7664C31.6424 49.2842 31.5442 49.8442 31.2766 50.3332C29.3745 47.604 29.3868 45.535 30.8319 42.6256Z" fill="white"/>
<path d="M26.6186 30.9038C26.9328 31.0069 27.249 31.1034 27.5671 31.1933C27.6288 32.4026 27.9248 33.2388 29.3248 33.4199C30.0552 33.5144 30.5594 33.1546 31.1035 32.7066C31.7337 33.2003 31.9093 33.6274 32.1811 34.3582C32.2196 34.5293 32.2795 34.7224 32.3277 34.8934C31.3849 34.5873 30.8396 34.6367 29.8781 34.6596C29.0479 34.6794 28.0521 34.5067 27.4522 33.8843C26.6005 33.0005 26.6103 32.0316 26.6186 30.9038Z" fill="white"/>
<path d="M21.8325 46.9893C21.874 47.0268 21.8949 47.0622 21.9017 47.1216C21.9742 47.7545 22.0709 48.3875 22.2679 48.996C22.5239 49.7877 23.0529 50.4404 23.478 51.1475C23.4179 49.9316 23.4093 49.3593 23.7139 48.1689C23.857 49.342 23.6366 49.6318 24.138 50.9723C24.4185 51.6696 24.7698 52.2361 25.2097 52.841C24.0742 52.4014 23.3792 52.0303 22.6089 51.0222C21.8423 50.0194 21.6249 48.2225 21.8325 46.9893Z" fill="white"/>
<path d="M48.2858 45.7308C48.7682 45.7127 48.9026 45.7758 49.3628 45.9345C49.1063 46.9839 48.327 47.863 47.4525 48.46L47.0488 48.6612C46.8649 48.6142 46.6633 48.5726 46.5479 48.4221C46.5759 48.1866 46.7577 47.9949 46.8299 47.7772C47.1164 46.9093 47.2282 45.9527 48.2858 45.7308Z" fill="white"/>
<path d="M37.7413 26.4523C37.804 26.4837 37.8065 26.4859 37.8539 26.5366C39.3696 28.1531 38.9045 30.3915 38.7899 32.397L38.7528 32.4633L38.7049 32.4568C37.769 30.8654 37.9805 30.4077 37.9743 28.7006C37.9755 27.9451 37.8972 27.1915 37.7413 26.4523Z" fill="white"/>
<path d="M21.0337 54.7467C21.06 54.764 21.085 54.7797 21.1068 54.8028C22.4284 56.2278 23.4434 58.5529 23.5894 60.4529C23.4815 60.3766 23.1939 59.8278 23.1118 59.6736C22.2467 58.0457 21.4608 56.5469 21.0337 54.7467Z" fill="white"/>
<path d="M32.7336 54.9879L32.7848 55.0473C32.8128 55.2737 32.7563 55.7891 32.7295 56.0319C32.5361 57.7558 31.364 59.2452 30.0487 60.2991C30.2729 59.761 30.4853 59.3231 30.6978 58.7632C31.0021 57.9298 30.9757 56.8582 30.9901 55.9647C31.2675 56.7877 31.4012 57.4359 31.2985 58.3014C32.1821 57.0236 32.3818 56.5032 32.7336 54.9879Z" fill="white"/>
<path d="M32.238 26.5483C32.6627 26.862 33.1995 27.3716 33.5343 27.7733C34.7758 29.2633 34.8979 30.5097 34.7589 32.3343L34.695 32.3231C34.3479 30.5974 34.1322 29.8804 33.1843 28.357C32.9583 27.9943 32.3625 26.942 32.238 26.5483Z" fill="white"/>
<path d="M21.501 28.4788L21.5384 28.5156C21.5259 28.6428 21.1854 29.1033 21.0834 29.3146C20.8472 29.8037 20.7224 30.1529 20.5927 30.6803C20.9536 30.1676 21.1922 29.8587 21.6028 29.395C21.1704 30.5362 21.0367 30.9691 20.7992 32.1894C20.7432 32.4083 20.717 32.625 20.6851 32.8486C20.4612 32.2958 20.26 31.8564 20.1313 31.2647C19.9126 31.3023 19.6894 31.3354 19.4698 31.3701C20.0132 30.1566 20.5854 29.4178 21.501 28.4788Z" fill="white"/>
<path d="M34.7095 58.127L34.7491 58.1975C34.5297 59.6983 32.7885 61.9422 31.7422 63.0967C31.6475 63.0097 31.7142 62.7702 31.75 62.6535C32.2873 60.8961 33.7777 59.6629 34.7095 58.127Z" fill="white"/>
<path d="M16.2849 45.4562C16.3144 45.4793 16.3606 45.516 16.364 45.5589C16.4481 46.5983 16.644 47.637 16.9492 48.6332C17.1075 49.1494 18.0906 51.1648 17.7703 51.5895C16.3334 49.5939 15.9753 47.8753 16.2849 45.4562Z" fill="white"/>
<path d="M13.798 39.3621C13.8549 39.586 13.7952 40.1789 13.7684 40.4131C13.7317 40.7277 13.6762 41.0394 13.6021 41.3474C13.4355 42.0537 13.192 42.7889 13.007 43.4952C12.9339 43.7743 12.6443 45.0983 12.5052 45.208C12.1054 43.0326 13.0888 41.2987 13.798 39.3621Z" fill="white"/>
<path d="M38.4898 56.5148C38.5307 56.6937 38.5059 57.1918 38.5018 57.3988C38.4696 58.9508 37.9823 59.9268 37.1844 61.2029C37.3522 60.455 37.3873 59.7383 37.4017 58.9751C37.3807 58.1266 37.1799 57.2512 36.9205 56.4472C37.4388 57.1452 37.7596 57.8668 37.8932 58.7224C38.0557 58.1097 38.3088 57.0504 38.4898 56.5148Z" fill="white"/>
<path d="M28.1409 29.8222C28.8928 29.6971 29.7176 29.889 30.3361 30.3308C30.832 30.685 31.0954 31.1458 31.3899 31.6597L30.9084 31.3012C30.451 31.0158 29.8628 30.7204 29.3376 30.5942C28.4271 30.3755 28.1981 30.536 27.4059 29.9701C27.6823 29.8988 27.8582 29.8652 28.1409 29.8222Z" fill="white"/>
<path d="M24.6553 18.6102C25.03 18.5856 25.3903 18.5988 25.7649 18.607C25.2834 18.7792 24.7845 18.9169 24.3091 19.0985C23.6154 19.3635 22.9216 19.6684 22.239 19.9628L21.4189 20.2726C22.2434 19.3224 23.4027 18.7269 24.6553 18.6102Z" fill="white"/>
<path d="M39.8067 30.8679C39.9564 31.926 40.031 32.5572 40.4038 33.5955C40.4986 33.8588 41.0058 35.1318 41.0322 35.2674L40.9794 35.2665C40.2764 34.4692 39.7074 33.7219 39.6303 32.6149C39.594 32.0885 39.6233 31.3631 39.8067 30.8679Z" fill="white"/>
<path d="M33.4181 38.248C33.4564 38.3688 33.4086 38.7283 33.388 38.8661C33.214 40.0329 32.1982 40.7236 31.2003 41.1013C31.1679 40.9887 31.4432 40.7863 31.5379 40.7013C32.3402 39.9802 32.9258 39.2009 33.4181 38.248Z" fill="white"/>
<path d="M29.0874 53.9901C29.2535 54.1381 29.3108 54.4906 29.3226 54.7125C29.3747 55.6889 28.8116 56.3894 28.1975 57.0701L28.1221 57.111C28.1177 56.9704 28.4538 56.3403 28.5287 56.147C28.8145 55.4093 29.0053 54.7842 29.0874 53.9901Z" fill="white"/>
<path d="M26.6732 24.8151C26.712 24.9227 26.5651 25.6189 26.5306 25.7834C26.3781 26.5107 26.4932 27.0139 26.5032 27.6676L26.4686 27.6738L26.396 27.5418C25.8963 26.3872 25.7306 25.7981 26.6732 24.8151Z" fill="white"/>
<path d="M28.5967 31.1997C28.7918 31.1369 29.0022 31.2361 29.078 31.4265C29.1537 31.6169 29.069 31.8334 28.8841 31.9218C28.7529 31.9846 28.5977 31.969 28.4816 31.8815C28.3655 31.7939 28.3078 31.649 28.332 31.5056C28.3562 31.3622 28.4583 31.2442 28.5967 31.1997Z" fill="white"/>
<path d="M49.4846 27.0181C49.3092 27.0658 49.0351 27.152 48.8676 27.0924C48.9604 27.0042 49.1919 26.966 49.3281 26.9318L49.4846 27.0181Z" fill="#BCBCBB"/>
</svg>
