<svg width="305" height="127" viewBox="0 0 305 127" fill="none" xmlns="http://www.w3.org/2000/svg">
<rect width="304.505" height="126.183" fill="black"/>
<path d="M158.009 71.6003C158.126 71.5616 158.3 71.5422 158.533 71.5422C159.192 71.5422 159.521 71.9686 159.521 72.8215C159.521 73.2867 159.415 73.684 159.201 74.0135C159.008 74.3236 158.697 74.5175 158.271 74.595C156.507 74.9245 154.772 75.2928 153.067 75.6998L152.98 76.3976C152.437 80.216 151.351 83.0362 149.723 84.8582C148.114 86.6996 146.099 87.6203 143.676 87.6203C142.067 87.6203 140.817 87.2229 139.925 86.4282C139.053 85.6529 138.617 84.6547 138.617 83.4336C138.617 81.3984 139.528 79.5861 141.35 77.9967C143.172 76.4073 145.934 75.002 149.636 73.7809L150.217 69.6814C150.295 69.2163 150.392 68.596 150.508 67.8207C149.597 70.2242 148.434 72.0171 147.019 73.1994C145.604 74.3818 144.025 74.973 142.28 74.973C140.613 74.973 139.344 74.469 138.471 73.4611C137.599 72.4338 137.163 71.1158 137.163 69.507C137.163 68.7898 137.241 68.0048 137.396 67.152C137.551 66.2797 137.793 65.1071 138.123 63.634C138.413 62.2966 138.626 61.2305 138.762 60.4358C138.917 59.6411 138.995 58.9336 138.995 58.3134C138.995 57.383 138.636 56.9178 137.919 56.9178C137.357 56.9178 136.688 57.1989 135.913 57.761C135.157 58.3037 134.353 59.1469 133.5 60.2904C133.228 60.6587 132.928 60.8429 132.598 60.8429C132.327 60.8429 132.085 60.7169 131.872 60.4649C131.678 60.1935 131.581 59.8931 131.581 59.5636C131.581 58.9627 131.852 58.2843 132.395 57.5284C134.372 54.8148 136.688 53.458 139.344 53.458C140.526 53.458 141.447 53.8166 142.106 54.5337C142.784 55.2509 143.123 56.3073 143.123 57.7028C143.123 58.7107 143.026 59.7477 142.833 60.8138C142.658 61.8605 142.387 63.1979 142.018 64.826C141.786 65.7952 141.611 66.5802 141.495 67.1811C141.379 67.7625 141.321 68.2471 141.321 68.6348C141.321 69.6233 141.495 70.3308 141.844 70.7572C142.193 71.1836 142.803 71.3968 143.676 71.3968C144.722 71.3968 145.788 70.825 146.874 69.6814C147.979 68.5185 148.967 66.7643 149.839 64.419C150.731 62.0737 151.371 59.205 151.758 55.813C151.855 54.9602 152.078 54.3593 152.427 54.0104C152.776 53.6421 153.28 53.458 153.939 53.458C155.296 53.458 155.974 54.1364 155.974 55.4932C155.974 55.7258 155.964 55.9099 155.945 56.0456C155.538 58.9336 155.16 61.5406 154.811 63.8666C154.617 65.2621 154.404 66.6965 154.172 68.1696C153.958 69.6427 153.745 71.1352 153.532 72.647C154.947 72.2594 156.439 71.9105 158.009 71.6003ZM149.2 76.8337C144.509 78.4619 142.164 80.4389 142.164 82.7649C142.164 83.3076 142.329 83.7534 142.658 84.1023C143.007 84.4706 143.492 84.6547 144.112 84.6547C146.806 84.6547 148.492 82.1156 149.171 77.0372L149.2 76.8337Z" fill="white"/>
<path d="M161.028 78.2584C159.826 78.2584 158.867 77.8223 158.15 76.95C157.432 76.0778 157.074 74.9342 157.074 73.5193C157.074 71.9686 157.432 70.5052 158.15 69.129C158.867 67.7335 159.816 66.6189 160.999 65.7855C162.201 64.9326 163.47 64.5062 164.808 64.5062C165.234 64.5062 165.515 64.5934 165.651 64.7679C165.806 64.9229 165.932 65.2137 166.029 65.6401C166.436 65.5626 166.862 65.5238 167.308 65.5238C168.258 65.5238 168.733 65.863 168.733 66.5414C168.733 66.9485 168.587 67.9176 168.296 69.4489C167.851 71.6779 167.628 73.2285 167.628 74.1007C167.628 74.3915 167.696 74.6241 167.831 74.7985C167.986 74.973 168.18 75.0602 168.413 75.0602C168.781 75.0602 169.227 74.8276 169.75 74.3624C170.273 73.8778 170.981 73.1025 171.873 72.0365C172.105 71.7651 172.367 71.6294 172.658 71.6294C172.91 71.6294 173.103 71.7457 173.239 71.9783C173.394 72.2109 173.472 72.5307 173.472 72.9378C173.472 73.7131 173.288 74.314 172.919 74.7404C172.125 75.7289 171.281 76.5624 170.39 77.2408C169.498 77.9192 168.636 78.2584 167.802 78.2584C167.163 78.2584 166.571 78.0452 166.029 77.6187C165.505 77.1729 165.108 76.5721 164.837 75.8161C163.829 77.4443 162.559 78.2584 161.028 78.2584ZM162.075 75.3219C162.501 75.3219 162.908 75.0699 163.296 74.5659C163.683 74.062 163.964 73.3933 164.139 72.5598L165.215 67.2101C164.4 67.2295 163.645 67.5396 162.947 68.1405C162.268 68.722 161.726 69.4973 161.319 70.4665C160.912 71.4356 160.708 72.4629 160.708 73.5483C160.708 74.1492 160.824 74.595 161.057 74.8857C161.309 75.1765 161.648 75.3219 162.075 75.3219Z" fill="white"/>
<path d="M183.465 75.0893C184.26 75.2443 184.657 75.6804 184.657 76.3976C184.657 76.8822 184.434 77.3183 183.989 77.706C183.562 78.0742 182.942 78.2584 182.128 78.2584C180.732 78.2584 179.589 77.8319 178.697 76.9791C177.825 76.1069 177.389 74.973 177.389 73.5774C177.389 72.8215 177.776 72.2787 178.552 71.9492C179.405 71.581 180.015 71.1933 180.383 70.7863C180.752 70.3598 180.936 69.8462 180.936 69.2453C180.936 68.8964 180.858 68.6348 180.703 68.4603C180.568 68.2859 180.393 68.1987 180.18 68.1987C179.657 68.1987 179.075 68.5766 178.435 69.3326C177.815 70.0885 177.234 71.0673 176.691 72.2691C176.148 73.4514 175.722 74.6725 175.412 75.9324C175.198 76.8434 174.947 77.4637 174.656 77.7932C174.384 78.1033 173.948 78.2584 173.347 78.2584C172.747 78.2584 172.301 78.0452 172.01 77.6187C171.739 77.1729 171.555 76.4945 171.458 75.5835C171.361 74.6725 171.312 73.3351 171.312 71.5713C171.312 68.5863 171.613 65.4754 172.214 62.2384C172.834 59.0015 173.735 56.2879 174.917 54.0976C176.119 51.888 177.554 50.7831 179.22 50.7831C180.112 50.7831 180.829 51.1708 181.372 51.9461C181.934 52.702 182.215 53.6906 182.215 54.9117C182.215 56.8694 181.643 58.9046 180.5 61.0173C179.356 63.1107 177.495 65.5626 174.917 68.3731C174.859 69.381 174.83 70.418 174.83 71.4841C175.761 69.0612 176.827 67.307 178.028 66.2216C179.23 65.1168 180.354 64.5644 181.401 64.5644C182.37 64.5644 183.145 64.8939 183.727 65.5529C184.328 66.2119 184.628 67.026 184.628 67.9951C184.628 69.0612 184.357 70.04 183.814 70.9316C183.271 71.8233 182.341 72.618 181.023 73.3157C181.139 73.8972 181.372 74.3043 181.721 74.5369C182.089 74.7501 182.671 74.9342 183.465 75.0893ZM178.61 53.6615C178.261 53.6615 177.873 54.1655 177.447 55.1734C177.02 56.1619 176.604 57.509 176.197 59.2147C175.809 60.901 175.489 62.7424 175.237 64.7388C176.439 63.3239 177.428 61.7829 178.203 60.116C178.998 58.4491 179.395 56.9372 179.395 55.5804C179.395 54.9602 179.327 54.4853 179.191 54.1558C179.056 53.8263 178.862 53.6615 178.61 53.6615Z" fill="white"/>
<path d="M215.073 71.6294C215.325 71.6294 215.519 71.7457 215.654 71.9783C215.809 72.2109 215.887 72.5307 215.887 72.9378C215.887 73.6937 215.703 74.2946 215.335 74.7404C214.249 76.039 213.193 76.95 212.165 77.4734C211.158 77.9967 209.936 78.2584 208.502 78.2584C207.494 78.2584 206.564 78.1324 205.711 77.8804C204.858 77.6284 203.821 77.2505 202.6 76.7465C201.495 76.2619 200.429 75.8646 199.402 75.5545C198.413 77.3571 196.931 78.2584 194.954 78.2584C193.868 78.2584 193.006 78.0161 192.366 77.5315C191.707 77.0276 191.377 76.3879 191.377 75.6126C191.377 74.6628 191.833 73.8778 192.744 73.2576C193.655 72.6179 194.866 72.2981 196.378 72.2981H196.756L197.279 63.8375C197.396 61.8992 197.745 60.3001 198.326 59.0402C198.908 57.7804 199.712 56.7046 200.739 55.813C201.631 55.0377 202.648 54.4562 203.792 54.0685C204.936 53.6615 206.147 53.458 207.426 53.458C209.52 53.458 211.129 54.0007 212.253 55.0861C213.377 56.1716 213.939 57.5865 213.939 59.331C213.939 60.5133 213.726 61.4728 213.299 62.2093C212.873 62.9265 212.282 63.2851 211.526 63.2851C210.983 63.2851 210.557 63.1591 210.247 62.9071C209.936 62.6358 209.781 62.2578 209.781 61.7732C209.781 61.5988 209.82 61.279 209.898 60.8138C210.014 60.2711 210.072 59.7865 210.072 59.3601C210.072 58.546 209.83 57.9063 209.345 57.4412C208.88 56.9566 208.163 56.7143 207.194 56.7143C205.488 56.7143 204.17 57.2764 203.24 58.4006C202.309 59.5054 201.718 61.2499 201.466 63.634L200.797 70.2339C200.701 71.1642 200.575 71.9686 200.419 72.647C201.66 72.8602 203.211 73.1994 205.071 73.6646C206.157 73.936 206.99 74.1298 207.572 74.2461C208.153 74.3624 208.667 74.4206 209.113 74.4206C210.237 74.4206 211.196 74.2364 211.991 73.8681C212.805 73.4805 213.571 72.8699 214.288 72.0365C214.521 71.7651 214.782 71.6294 215.073 71.6294Z" fill="white"/>
<path d="M217.104 78.2584C215.902 78.2584 214.943 77.8223 214.225 76.95C213.508 76.0778 213.15 74.9342 213.15 73.5193C213.15 71.9686 213.508 70.5052 214.225 69.129C214.943 67.7335 215.892 66.6189 217.075 65.7855C218.276 64.9326 219.546 64.5062 220.883 64.5062C221.31 64.5062 221.591 64.5934 221.727 64.7679C221.882 64.9229 222.008 65.2137 222.105 65.6401C222.512 65.5626 222.938 65.5238 223.384 65.5238C224.334 65.5238 224.808 65.863 224.808 66.5414C224.808 66.9485 224.663 67.9176 224.372 69.4489C223.927 71.6779 223.704 73.2285 223.704 74.1007C223.704 74.3915 223.772 74.6241 223.907 74.7985C224.062 74.973 224.256 75.0602 224.489 75.0602C224.857 75.0602 225.303 74.8276 225.826 74.3624C226.349 73.8778 227.057 73.1025 227.949 72.0365C228.181 71.7651 228.443 71.6294 228.734 71.6294C228.986 71.6294 229.179 71.7457 229.315 71.9783C229.47 72.2109 229.548 72.5307 229.548 72.9378C229.548 73.7131 229.363 74.314 228.995 74.7404C228.201 75.7289 227.357 76.5624 226.466 77.2408C225.574 77.9192 224.712 78.2584 223.878 78.2584C223.238 78.2584 222.647 78.0452 222.105 77.6187C221.581 77.1729 221.184 76.5721 220.913 75.8161C219.905 77.4443 218.635 78.2584 217.104 78.2584ZM218.15 75.3219C218.577 75.3219 218.984 75.0699 219.372 74.5659C219.759 74.062 220.04 73.3933 220.215 72.5598L221.291 67.2101C220.476 67.2295 219.72 67.5396 219.023 68.1405C218.344 68.722 217.802 69.4973 217.395 70.4665C216.988 71.4356 216.784 72.4629 216.784 73.5483C216.784 74.1492 216.9 74.595 217.133 74.8857C217.385 75.1765 217.724 75.3219 218.15 75.3219Z" fill="white"/>
<path d="M232.941 78.2584C231.003 78.2584 229.588 77.5121 228.697 76.0196C227.824 74.5272 227.388 72.366 227.388 69.5361C227.388 67.0357 227.698 64.3221 228.319 61.3953C228.939 58.4491 229.84 55.9487 231.022 53.8941C232.224 51.8201 233.649 50.7831 235.296 50.7831C236.188 50.7831 236.905 51.1708 237.448 51.9461C237.991 52.702 238.262 53.6906 238.262 54.9117C238.262 56.5011 237.962 58.0808 237.361 59.6508C236.76 61.2208 235.762 62.8684 234.366 64.5934C235.316 64.671 236.14 64.9908 236.837 65.5529C237.554 66.115 238.097 66.8419 238.465 67.7335C238.853 68.6251 239.047 69.5942 239.047 70.6409C239.047 72.0946 238.756 73.403 238.175 74.5659C237.613 75.7289 236.866 76.6399 235.936 77.2989C235.006 77.9385 234.007 78.2584 232.941 78.2584ZM231.226 66.5705C232.505 64.2252 233.523 62.1609 234.279 60.3777C235.054 58.5751 235.442 56.976 235.442 55.5804C235.442 54.9602 235.364 54.4853 235.209 54.1558C235.073 53.8263 234.88 53.6615 234.628 53.6615C234.24 53.6615 233.814 54.243 233.348 55.406C232.903 56.5495 232.486 58.1099 232.098 60.0869C231.711 62.064 231.42 64.2252 231.226 66.5705ZM233.058 75.1183C233.717 75.1183 234.269 74.7598 234.715 74.0426C235.18 73.3254 235.413 72.2788 235.413 70.9026C235.413 69.8365 235.219 69.0321 234.831 68.4894C234.444 67.9467 233.978 67.6753 233.436 67.6753C232.757 67.6753 232.185 68.0242 231.72 68.722C231.255 69.4198 231.022 70.4374 231.022 71.7748C231.022 72.9378 231.216 73.7906 231.604 74.3333C231.992 74.8567 232.476 75.1183 233.058 75.1183Z" fill="white"/>
<path d="M246.249 78.898C245.242 78.898 244.466 78.6654 243.923 78.2002C243.4 77.735 243.138 77.2117 243.138 76.6302C243.138 76.1262 243.323 75.6901 243.691 75.3219C244.059 74.9536 244.602 74.7694 245.319 74.7694C245.571 74.7694 245.862 74.7985 246.191 74.8567C246.54 74.8954 246.802 74.9245 246.976 74.9439C246.957 74.4399 246.841 73.9651 246.627 73.5193C246.434 73.0734 246.182 72.647 245.871 72.24C245.561 71.8136 245.271 71.4453 244.999 71.1352C244.398 72.2787 243.798 73.2285 243.197 73.9844C242.615 74.7404 241.976 75.4575 241.278 76.1359C240.929 76.4848 240.561 76.6593 240.173 76.6593C239.863 76.6593 239.611 76.5527 239.417 76.3395C239.223 76.1069 239.126 75.8258 239.126 75.4963C239.126 75.1086 239.262 74.7501 239.533 74.4206L239.911 73.9554C240.977 72.6373 241.782 71.5519 242.324 70.699C242.673 70.1369 243.022 69.4682 243.371 68.6929C243.739 67.9176 244.214 66.8612 244.796 65.5238C245.164 64.671 245.93 64.2445 247.093 64.2445C247.635 64.2445 248.013 64.293 248.226 64.3899C248.44 64.4868 248.546 64.6419 248.546 64.8551C248.546 64.9714 248.508 65.1555 248.43 65.4075C248.352 65.6595 248.246 65.9115 248.11 66.1635C247.761 66.8612 247.587 67.4524 247.587 67.937C247.587 68.2277 247.684 68.5475 247.878 68.8964C248.091 69.2453 248.411 69.6814 248.837 70.2048C249.457 71.0189 249.922 71.7166 250.233 72.2981C250.562 72.8602 250.727 73.4805 250.727 74.1589C250.727 74.973 250.533 75.7483 250.145 76.4848C249.777 77.202 249.254 77.7835 248.575 78.2293C247.897 78.6751 247.122 78.898 246.249 78.898Z" fill="white"/>
<path d="M54.8254 23.4662L54.8585 23.9241C54.874 24.1383 54.8254 24.3226 54.7972 24.4173C54.7633 24.5307 54.7192 24.6399 54.6772 24.7342C54.5928 24.9235 54.4837 25.1262 54.3819 25.3066C54.2784 25.4898 54.1691 25.6732 54.0815 25.8209C53.9853 25.9831 53.9285 26.0806 53.9034 26.1298C52.5879 28.7102 51.3276 31.7369 50.885 34.7164C50.4443 37.6833 50.825 40.5098 52.6679 42.8328C52.9549 43.1946 53.2509 43.5042 53.5861 43.8273C53.9453 43.647 54.3149 43.4787 54.5108 43.3859C55.6292 42.8559 56.6663 42.4635 57.718 42.1883C57.7007 42.1811 57.6835 42.1741 57.6666 42.1669C57.5502 42.1169 57.4132 42.0517 57.2867 41.9691C57.205 41.9157 56.9317 41.7359 56.7996 41.3942L56.6325 40.9617L56.8642 40.5602C57.16 40.0476 57.7059 39.8976 57.8335 39.858C60.4542 39.0447 63.2339 39.0061 65.8664 39.793C65.8529 39.7587 65.8397 39.7223 65.8289 39.6836L65.7091 39.2549L66.1846 38.5424L66.4602 38.4302C66.7186 38.325 66.9859 38.3073 67.1662 38.3056C67.366 38.3037 67.5699 38.3222 67.7517 38.3461C68.1154 38.3941 68.4713 38.4759 68.686 38.5343C70.6032 39.0559 72.3319 39.9689 73.6391 41.465C73.7305 41.3048 73.8669 41.0788 74.0023 40.9108C74.1225 40.7617 74.3273 40.5402 74.6258 40.4035C74.959 40.2508 75.36 40.2293 75.7401 40.4133L75.8159 40.4529L76.0176 40.5661L76.1463 40.7582C76.3274 41.0283 76.4134 41.3379 76.4611 41.5738C76.5089 41.8099 76.5341 42.0586 76.5478 42.2912C78.3446 41.9258 80.4203 42.005 82.0116 42.5263C82.3419 42.6346 82.9899 42.8505 83.6017 43.1184C83.9062 43.2517 84.2276 43.4091 84.5062 43.5852C84.7491 43.7388 85.1047 43.9942 85.3066 44.3703L85.5001 44.7306L85.3771 45.1205L85.3551 45.1896L85.201 45.6776L84.8544 45.7822C86.0847 46.5665 87.1535 47.5459 88.1268 48.6509C88.7392 48.5058 89.1861 48.4161 89.7403 48.1735C92.6593 46.8959 94.034 44.6796 94.5334 42.055C95.0274 39.459 94.6556 36.4751 93.9716 33.6956L93.9046 33.4274C93.8542 33.2295 93.6693 32.709 93.4652 32.0793C93.3718 31.791 93.2783 31.4899 93.2137 31.239C93.182 31.1158 93.1513 30.9819 93.1329 30.8569C93.1238 30.795 93.1144 30.714 93.1137 30.6259C93.1132 30.5604 93.1145 30.3844 93.1938 30.19L93.3986 29.6884L93.933 29.6C94.2204 29.5525 94.4706 29.6127 94.6339 29.6714C94.7836 29.7251 94.9177 29.7981 95.0295 29.8752L95.0761 29.9085L95.0766 29.9089C98.3077 32.3052 101.06 36.1049 102.462 40.2354C103.864 44.3678 103.952 48.956 101.646 52.8265C100.578 54.619 98.8353 56.1268 96.957 57.2848C95.5016 58.182 93.9227 58.8948 92.4264 59.3796C92.6954 59.7506 92.9859 60.1171 93.2813 60.4718L93.4192 60.6328C93.5565 60.7895 93.6955 60.939 93.8688 61.1356C94.0807 61.376 94.3129 61.6546 94.5171 61.976L94.7734 62.3796L94.5809 62.9064L94.4668 63.2181L94.1857 63.3945C93.7409 63.6735 93.2165 63.6933 92.8444 63.6713C92.593 63.6563 92.3327 63.6163 92.0776 63.5626C92.2026 63.923 92.296 64.2918 92.3233 64.634C92.3458 64.917 92.3349 65.31 92.1391 65.6747C91.9043 66.1119 91.4835 66.3623 91.007 66.4002C90.9408 66.4055 90.8747 66.4062 90.8088 66.4038C90.8256 66.6041 90.8216 66.8061 90.7853 67.0002C90.7349 67.2698 90.6031 67.6206 90.2765 67.8795C90.1693 67.9645 90.0561 68.0275 89.9413 68.0727C90.3301 68.6566 90.7773 69.1793 91.3839 69.733L91.5039 69.841L91.5042 69.8414C91.7959 70.101 92.3438 70.5663 92.8177 71.0704C93.0572 71.3253 93.3012 71.6138 93.4986 71.9188C93.6889 72.2131 93.8807 72.5903 93.9341 73.0142L93.9475 73.1278C94.2088 75.5205 93.2571 78.3268 92.1446 80.2347L92.1387 80.2448L92.1327 80.2544C91.6158 81.0943 90.8899 81.7957 89.9426 82.1679C89.3315 85.119 86.6488 86.6583 84.2523 87.3787C84.2182 87.5633 84.1952 87.732 84.1893 87.8949C84.1788 88.1869 84.2284 88.3854 84.3322 88.5457L84.3489 88.5677C84.3654 88.5891 84.3834 88.6116 84.4126 88.6481C84.462 88.7098 84.5468 88.8153 84.6226 88.9334C84.7312 89.1028 85.1003 89.7259 84.6871 90.3829L84.4997 90.6808L84.1651 90.7891C83.8009 90.9069 83.4527 90.8545 83.2586 90.8147C83.0517 90.7722 82.8422 90.7018 82.752 90.6736L82.7507 90.6731C82.3588 90.5502 82.0112 90.386 81.7007 90.1895C81.3719 93.5416 79.7247 96.3215 76.8035 98.515C76.6178 98.6545 76.2702 98.9007 75.8954 99.1084C75.7087 99.2118 75.4914 99.3191 75.2686 99.3967C75.0711 99.4655 74.7494 99.5547 74.4019 99.5002L73.9976 99.4368L73.793 99.1478C73.0124 100.085 72.0679 100.916 70.895 101.566L70.894 101.566C70.7868 101.625 70.5941 101.731 70.3743 101.803C70.1597 101.872 69.8028 101.95 69.41 101.822L68.8558 101.642L68.7896 101.265C67.5089 102.016 66.0813 102.56 64.5567 102.718C64.3789 102.737 64.1271 102.744 63.8755 102.719C63.7486 102.706 63.5976 102.682 63.4447 102.637C63.3039 102.595 63.0876 102.513 62.8925 102.342L62.5055 102.001L62.5721 101.489C62.5725 101.486 62.5729 101.482 62.5736 101.477C62.5742 101.472 62.5753 101.464 62.5763 101.457C62.5782 101.442 62.5815 101.416 62.5867 101.387C62.597 101.327 62.619 101.223 62.6728 101.104C62.7971 100.83 62.9991 100.677 63.1348 100.594L63.1354 100.593C63.1871 100.562 63.2377 100.529 63.2878 100.496C63.2492 100.517 63.2102 100.537 63.1704 100.555C62.9782 100.645 62.6987 100.747 62.3798 100.744L62.3648 100.744L62.3501 100.744C62.1145 100.734 61.8804 100.654 61.6874 100.52C61.4952 100.386 61.2038 100.091 61.1922 99.6184C61.1625 98.4029 61.2381 97.6644 61.0606 96.706L61.0216 96.5112C60.6539 94.799 59.7342 93.3896 58.5668 92.0015C58.4618 92.3712 58.3353 92.7456 58.1831 93.1099C57.815 93.9914 57.2636 94.8997 56.4318 95.5082L55.418 96.2498L54.9579 95.0812C54.8569 94.8248 54.7893 94.5373 54.74 94.3089C54.6834 94.0469 54.6524 93.8733 54.6096 93.696L54.5598 93.5054C54.4399 93.0619 54.2938 92.6257 54.1224 92.1997L54.1218 92.1982C53.7272 91.2132 53.2841 90.4109 52.7936 89.3538C52.6058 88.9491 52.4266 88.5512 52.256 88.1563C52.1855 88.2258 52.114 88.2769 52.0523 88.3129C51.9636 88.3647 51.8797 88.3945 51.8746 88.3963C51.858 88.4026 51.861 88.4015 51.8695 88.3981L51.5214 88.5512L51.1519 88.4121C50.8661 88.3045 50.6404 88.1219 50.5013 87.9973C50.3519 87.8635 50.2195 87.7195 50.1402 87.6339L50.1394 87.633C48.6788 86.0535 47.6567 84.1615 47.0317 82.1476C47.0344 82.3607 47.0435 82.5714 47.0607 82.7804L47.0741 82.9283L47.1063 83.219C47.1204 83.3517 47.1356 83.5085 47.1453 83.6544C47.1553 83.8046 47.1624 83.9795 47.1546 84.144C47.1507 84.2262 47.1422 84.3258 47.1224 84.4289C47.1054 84.5172 47.0661 84.686 46.9598 84.8573L46.7451 85.2029L46.348 85.2917L46.2335 85.3174L45.9774 85.3746L45.7275 85.2949C45.5442 85.2365 45.3733 85.1603 45.2055 85.0445C45.0544 84.9402 44.9341 84.8219 44.851 84.7397L44.8504 84.739C42.635 82.5454 41.2195 79.4026 40.6125 76.4787C40.52 76.0332 40.4507 75.6011 40.3986 75.1762C40.3725 75.2193 40.3461 75.2624 40.3198 75.3059L39.7948 76.1774C39.7282 76.2866 39.513 76.6569 39.2738 76.979C39.1563 77.1374 38.9995 77.3306 38.8184 77.488C38.7278 77.5668 38.5992 77.6649 38.4374 77.739C38.2764 77.8127 38.0163 77.8922 37.7079 77.8295L37.3388 77.7545L37.1173 77.4499C36.7971 77.0098 36.6718 76.4155 36.607 76.007C36.5355 75.5567 36.5064 75.0922 36.4853 74.8141C36.3489 73.017 36.4745 71.3533 36.7785 69.7172C36.6604 69.8323 36.5479 69.9409 36.4429 70.0388C36.2852 70.1859 36.1315 70.3233 35.9984 70.4291C35.9336 70.4807 35.855 70.5397 35.772 70.591C35.7307 70.6165 35.6716 70.6505 35.6006 70.6813C35.5428 70.7063 35.4054 70.7616 35.225 70.7699L34.7681 70.7907L34.1966 70.1575L34.1493 69.88C34.0847 69.5008 34.1209 69.0927 34.158 68.8302C34.4507 66.7626 35.2775 64.4118 36.4188 62.2738C37.0085 61.1692 37.6937 60.0999 38.451 59.143C38.0382 59.1812 37.6212 59.1968 37.2451 59.168C36.9904 59.1484 36.7147 59.1059 36.4567 59.0146C36.206 58.9259 35.8842 58.7598 35.6564 58.4352L35.4046 58.0765L35.6042 57.2524L35.8271 57.0517C36.0586 56.8434 36.4389 56.5943 36.7376 56.4012C37.0805 56.1794 37.3759 55.9941 37.5635 55.8585C38.5759 55.1263 39.6305 54.2951 40.7603 53.5492C40.4062 53.4743 40.0568 53.381 39.7628 53.2622C39.5546 53.1782 39.2862 53.0477 39.0687 52.8377C38.8261 52.6035 38.5637 52.1705 38.7111 51.6221L38.8243 51.2009L39.2148 51.0063C39.5308 50.8489 39.8906 50.724 40.2002 50.6228C40.5389 50.5122 40.8056 50.433 41.0522 50.3431C41.8138 50.0652 42.5693 49.786 43.3202 49.4985C42.1635 48.1172 41.2503 46.5442 40.787 44.8135C39.6793 40.6757 40.8646 36.0391 42.8072 32.5398L42.8089 32.5366L42.8108 32.5335C44.7215 29.1511 47.4688 26.3159 50.7898 24.3002L50.7919 24.2989C51.6235 23.7969 52.463 23.3075 53.5354 22.9998L53.9813 22.8718L54.8254 23.4662ZM53.8027 23.9313C52.8647 24.2004 52.121 24.6288 51.2927 25.1287L50.9963 25.3119C47.9501 27.2284 45.4265 29.8734 43.6547 33.0102L43.5676 33.1686C41.7534 36.5112 40.7179 40.8074 41.7232 44.5629C42.723 48.2976 46.0824 51.3406 49.384 53.1598L49.6242 53.291C47.2993 53.0497 45.6395 51.7735 43.9624 50.2905C43.1065 50.6216 42.2464 50.9391 41.3844 51.2535L41.1769 51.3258C40.6773 51.4938 40.0796 51.658 39.6469 51.8736C39.4396 52.6449 43.2098 52.9271 43.8171 52.9221C43.2921 53.1256 42.8818 53.4067 42.4001 53.6785C40.8823 54.5347 39.5419 55.6238 38.1315 56.6438L38.0458 56.7044C37.5915 57.0192 36.779 57.4988 36.4754 57.772L36.4497 57.8785C36.9952 58.6556 40.4541 57.8779 41.3323 57.5878C38.2486 59.9959 35.6647 65.0999 35.1175 68.966C35.0849 69.1966 35.0653 69.4866 35.1046 69.7172L35.1809 69.8017C35.4723 69.7884 38.1983 66.8604 38.6117 66.4598C37.7376 69.2417 37.2293 71.8114 37.4516 74.7409C37.4965 75.3331 37.5571 76.4069 37.9009 76.8796C38.1869 76.9378 38.6644 76.1745 38.8883 75.8041L38.9672 75.6729C39.6712 74.5183 40.2855 73.3894 41.2046 72.3871C41.2282 73.7287 41.2838 74.945 41.5614 76.2819C42.1405 79.0713 43.4857 82.024 45.5322 84.0503C45.7022 84.2183 45.7956 84.2994 46.0219 84.3716L46.1366 84.346C46.2554 84.1548 46.138 83.3045 46.1099 83.0254C45.9329 81.2676 46.2914 79.4946 46.4037 77.7458C46.1113 78.2593 45.5041 79.4358 45.1699 79.824C45.052 79.6081 44.9419 79.3921 44.8307 79.1728C43.1045 75.7712 44.0543 71.6533 46.2965 68.6911C45.3001 71.3045 44.7461 73.9204 45.1269 76.7155C45.2127 77.3457 45.364 77.9698 45.4851 78.5985C45.5898 77.9778 45.9101 77.1948 46.1091 76.577C46.5899 75.0854 47.1671 73.2758 47.9367 71.901C47.6876 73.0604 47.4368 74.2208 47.3209 75.4153C46.9241 79.5103 48.0129 83.906 50.8509 86.975L50.9895 87.1223C51.1267 87.2635 51.2887 87.4121 51.4495 87.4866L51.4932 87.5052C51.5537 87.4786 51.5875 87.4804 51.5928 87.4253C51.6674 86.6414 51.4514 85.5993 51.4279 84.8306C51.406 84.1135 51.3767 83.2683 51.4568 82.5997C51.9491 84.8998 52.6804 86.8075 53.6728 88.9458C54.1278 89.9263 54.6166 90.827 55.0215 91.8378C55.2338 92.3655 55.4101 92.9075 55.5492 93.459C55.6431 93.8448 55.7202 94.3721 55.8596 94.7261C57.1238 93.8012 57.7137 91.8142 57.9395 90.3202C57.9614 90.1769 57.9748 90.0326 57.9798 89.8874C59.7263 91.7733 61.4108 93.7081 61.9692 96.3077C62.2217 97.4832 62.1323 98.4195 62.161 99.5945C62.1633 99.6892 62.264 99.7537 62.3523 99.7709L62.389 99.7753C62.7815 99.779 63.3594 99.3064 63.693 98.9984L63.8197 98.8784C65.427 97.3162 66.3869 94.305 66.5583 92.0912C67.2747 95.677 66.9954 99.3657 63.6416 101.42C63.5441 101.479 63.5451 101.522 63.5331 101.614C63.7168 101.776 64.2157 101.78 64.456 101.755C66.9388 101.496 69.2027 100.084 70.9423 98.3967C70.7302 98.9135 70.5192 99.457 70.2289 99.9339C70.0894 100.142 69.6726 100.689 69.7097 100.901C69.939 100.975 70.2132 100.835 70.4256 100.718C73.4614 99.0368 74.8477 95.9803 75.9705 92.9275C75.9325 94.6762 75.7513 96.1498 74.8791 97.6926C74.7647 97.8952 74.444 98.3899 74.552 98.5428C74.9876 98.6112 75.8893 97.9895 76.2215 97.7399C79.626 95.1834 81.1356 91.8288 80.7284 87.5909C81.2404 88.6169 81.9187 89.3968 83.0405 89.7484C83.2674 89.8192 83.5823 89.9303 83.8202 89.8794L83.8667 89.8669C84.0275 89.6112 83.6618 89.2928 83.5194 89.0736C83.0297 88.3186 83.244 87.4164 83.4263 86.6025C86.0444 85.9419 88.7921 84.4024 89.0768 81.4174C90.0078 81.2266 90.733 80.6422 91.2572 79.8262L91.3074 79.7466C92.3794 77.9081 93.2407 75.2614 92.9725 73.1354C92.8628 72.2641 91.4906 71.1266 90.8599 70.5652C89.4196 69.2844 88.7627 68.1545 87.9612 66.4324C90.454 68.4207 90.0729 66.0908 89.1191 64.6094C92.6787 67.0962 91.2134 63.3246 90.0617 61.8155C90.7807 62.2046 92.8744 63.0056 93.6354 62.594L93.6706 62.5736L93.6992 62.4956C93.4131 62.0452 93.0364 61.6669 92.6854 61.2658L92.537 61.0922C91.949 60.3863 91.3525 59.6037 90.8974 58.807C94.3454 57.9729 98.7521 55.6287 100.721 52.4809L100.813 52.3302C105.051 45.219 100.629 35.2334 94.4993 30.6874C94.3916 30.6077 94.2282 30.5336 94.091 30.5563L94.0872 30.5682C94.0201 30.8453 94.7252 32.7223 94.8438 33.1885C96.3235 39.0048 96.647 46.2085 90.1291 49.0612C89.3219 49.4147 88.6046 49.5162 87.7808 49.7364L87.6186 49.5439C85.935 47.5691 84.0161 46.0454 81.4674 45.2925C82.1773 45.1872 82.8787 45.0848 83.5938 45.0251C83.833 45.0051 84.0936 44.9834 84.3309 44.9251L84.431 44.8979L84.4528 44.8286C84.149 44.2628 82.3647 43.6618 81.7098 43.4472C79.917 42.8598 77.3762 42.899 75.5677 43.5697C75.604 43.0218 75.6451 41.8326 75.3689 41.3429L75.3413 41.2979C74.9028 41.0515 74.5478 41.8474 74.3618 42.1578C74.1477 42.5161 73.9513 42.893 73.7401 43.2555C72.5874 41.3016 70.7929 40.1534 68.641 39.5282L68.4316 39.4694C68.0656 39.3697 67.1818 39.1829 66.8255 39.328L66.7623 39.4226C66.8173 39.6191 67.5114 40.2161 67.6936 40.4023L67.8933 40.6085C68.3582 41.0947 68.8106 41.6196 69.11 42.2193C68.1203 41.7328 67.2245 41.28 66.1755 40.9119L65.9635 40.8394C63.4114 39.9892 60.6885 39.9868 58.1208 40.7836L58.0599 40.8033C57.9176 40.8515 57.7766 40.9183 57.7037 41.0446C57.8157 41.3346 59.5697 41.731 59.9721 41.8657C60.6473 42.0918 61.2403 42.335 61.8833 42.6376C59.2619 42.6689 57.3052 43.1343 54.9259 44.2617L54.5761 44.4258C54.184 44.6097 53.7001 44.8413 53.4368 45.0164C52.9094 44.5302 52.4447 44.0914 51.9978 43.5458L51.9087 43.4353C47.8463 38.3147 50.2931 31.1502 52.9151 25.9364L53.04 25.6897C53.2048 25.3665 53.8703 24.3619 53.8918 24.0246V23.9941L53.8027 23.9313Z" fill="white"/>
<path d="M53.654 23.8397L53.7432 23.9026C53.7651 24.2049 53.0614 25.2644 52.8913 25.5981C50.2237 30.8308 47.6332 38.1418 51.7601 43.3436C52.2344 43.9415 52.7256 44.4063 53.2881 44.9249C53.6392 44.6914 54.3824 44.3573 54.7772 44.1702C57.1565 43.0428 59.1132 42.5773 61.7346 42.546C61.0915 42.2434 60.4986 42.0004 59.8234 41.7742C59.421 41.6395 57.6671 41.2431 57.555 40.9531C57.6383 40.8087 57.8106 40.7422 57.9721 40.692C60.5398 39.8953 63.2627 39.8976 65.8149 40.7478C66.9568 41.1282 67.9057 41.6089 68.9614 42.1278C68.6191 41.4424 68.0771 40.8548 67.5449 40.3107C67.3628 40.1245 66.6687 39.5276 66.6137 39.3311L66.677 39.2363C67.0332 39.0913 67.9169 39.2782 68.283 39.3778C70.5278 39.9886 72.4015 41.147 73.5914 43.1638C73.8026 42.8013 73.9991 42.4245 74.2131 42.0662C74.3991 41.7558 74.7541 40.9599 75.1926 41.2062C75.4992 41.6637 75.4565 42.9125 75.419 43.478C77.2275 42.8073 79.7683 42.7683 81.5612 43.3557C82.2161 43.5703 84.0004 44.1713 84.3041 44.7371L84.2823 44.8063C84.0199 44.8856 83.7185 44.9106 83.4452 44.9335C82.73 44.9933 82.0286 45.0958 81.3187 45.2011C83.9497 45.9782 85.9096 47.5766 87.6322 49.6448C88.4561 49.4246 89.1731 49.3232 89.9804 48.9697C96.4984 46.117 96.1748 38.9133 94.6951 33.0969C94.5746 32.6232 93.849 30.6937 93.9425 30.4647C94.0796 30.442 94.2428 30.5161 94.3506 30.5958C100.48 35.1418 104.902 45.1275 100.665 52.2387C98.7436 55.4623 94.2514 57.8682 90.7487 58.7155C91.2038 59.5122 91.8003 60.2948 92.3883 61.0008C92.7784 61.4687 93.2235 61.8893 93.5505 62.4041L93.522 62.482C92.7926 62.9396 90.6433 62.1194 89.913 61.724C91.0647 63.2331 92.5302 67.0047 88.9705 64.5178C89.9244 65.9993 90.3054 68.3292 87.8126 66.3407C88.6141 68.0629 89.2709 69.1929 90.7112 70.4737C91.3419 71.0351 92.7143 72.1726 92.8239 73.0439C93.092 75.1699 92.2307 77.8165 91.1587 79.655C90.631 80.5125 89.8892 81.129 88.9283 81.3259C88.6435 84.3109 85.8958 85.8504 83.2777 86.5109C83.0954 87.3248 82.8809 88.227 83.3707 88.982C83.5131 89.2012 83.8789 89.5197 83.7181 89.7754C83.476 89.8537 83.1339 89.7323 82.8919 89.6568C81.77 89.3052 81.0919 88.5255 80.5798 87.4995C80.987 91.7373 79.4774 95.0919 76.0729 97.6484C75.7407 97.898 74.8391 98.5197 74.4034 98.4513C74.2952 98.2985 74.616 97.8036 74.7304 97.6009C75.6026 96.0581 75.7839 94.5846 75.8219 92.8359C74.6991 95.8887 73.3129 98.9454 70.277 100.626C70.0646 100.743 69.7903 100.883 69.561 100.809C69.5239 100.598 69.9407 100.051 70.0802 99.8423C70.3705 99.3653 70.5815 98.822 70.7936 98.3052C69.054 99.9927 66.7901 101.405 64.3073 101.663C64.067 101.688 63.5682 101.685 63.3845 101.523C63.3965 101.43 63.3955 101.388 63.493 101.328C66.8468 99.2742 67.1261 95.5855 66.4097 91.9997C66.2384 94.2135 65.2784 97.2246 63.6711 98.7869C63.3795 99.0702 62.6889 99.688 62.2404 99.6838C62.1461 99.68 62.015 99.6112 62.0124 99.503C61.9837 98.328 62.073 97.3916 61.8205 96.2162C61.2621 93.6165 59.5777 91.6818 57.8312 89.7959C57.8262 89.9411 57.8127 90.0853 57.7908 90.2287C57.5649 91.7226 56.9752 93.7095 55.7109 94.6345C55.5715 94.2804 55.4945 93.7532 55.4006 93.3674C55.2615 92.816 55.0852 92.274 54.8729 91.7463C54.468 90.7355 53.979 89.8348 53.5241 88.8543C52.5317 86.716 51.8004 84.8082 51.3082 82.508C51.2281 83.1767 51.2573 84.0219 51.2793 84.7389C51.3028 85.5077 51.5189 86.5499 51.4442 87.3338C51.4389 87.3889 51.4051 87.387 51.3446 87.4136C51.1113 87.3258 50.8708 87.0652 50.7022 86.8835C47.8641 83.8145 46.7755 79.4187 47.1724 75.3237C47.2882 74.1292 47.5389 72.9689 47.7881 71.8096C47.0185 73.1844 46.4412 74.9939 45.9604 76.4854C45.7614 77.1033 45.4412 77.8863 45.3365 78.507C45.2154 77.8782 45.0641 77.2542 44.9783 76.624C44.5975 73.8288 45.1514 71.2131 46.1478 68.5997C43.9056 71.5619 42.9558 75.6796 44.682 79.0812C44.7933 79.3005 44.9034 79.5164 45.0212 79.7323C45.3554 79.3442 45.9627 78.1677 46.255 77.6542C46.1427 79.403 45.7842 81.176 45.9613 82.9337C45.9893 83.2128 46.1067 84.0632 45.9879 84.2544L45.8733 84.28C45.647 84.2079 45.5535 84.1268 45.3835 83.9588C43.337 81.9324 41.9918 78.9797 41.4127 76.1902C41.1352 74.8534 41.0795 73.6371 41.0558 72.2955C40.1368 73.2978 39.5226 74.4268 38.8186 75.5814C38.656 75.8481 38.0791 76.8546 37.7523 76.7882C37.4084 76.3155 37.3479 75.2416 37.303 74.6493C37.0807 71.7199 37.589 69.1501 38.4631 66.3683C38.0496 66.7688 35.3237 69.6968 35.0323 69.7101L34.956 69.6257C34.9167 69.395 34.9363 69.1051 34.9689 68.8744C35.5162 65.0083 38.0999 59.9044 41.1836 57.4963C40.3054 57.7865 36.8465 58.5641 36.301 57.787L36.3268 57.6805C36.6505 57.3891 37.5534 56.8628 37.9829 56.5522C39.3933 55.5321 40.7336 54.4432 42.2513 53.587C42.7331 53.3152 43.1435 53.0341 43.6685 52.8306C43.0616 52.8356 39.291 52.5535 39.4983 51.7822C39.9928 51.5357 40.7028 51.3563 41.2357 51.1619C42.0978 50.8474 42.9579 50.5302 43.8139 50.199C45.491 51.682 47.1505 52.9581 49.4755 53.1994L49.2352 53.0683C45.9336 51.2491 42.5743 48.206 41.5745 44.4713C40.5532 40.6562 41.6381 36.2831 43.5059 32.9186C45.3349 29.6806 47.965 26.9667 51.1441 25.0371C51.9724 24.5372 52.7161 24.1088 53.654 23.8397Z" fill="#000100"/>
<path d="M85.6794 62.4461C85.7264 62.5444 85.9038 63.8168 85.9584 64.0657C86.3105 65.6727 86.8501 67.3259 87.6512 68.7672C88.1224 69.6237 88.7839 70.2848 89.418 71.0028C90.033 71.699 91.208 72.2357 91.5725 73.032C92.0594 74.0965 90.462 74.6588 89.8892 75.2876C89.4341 75.7873 89.2158 76.1295 88.9192 76.7654C88.9614 75.6212 89.2201 75.2069 89.7392 74.2161C89.4687 74.2668 88.7792 74.4851 88.4798 74.5843C87.4253 74.9326 86.4676 74.4253 85.4359 74.0386C85.5531 74.2868 85.6836 74.6522 85.7544 74.9075C85.9451 75.5956 85.8507 75.9999 85.499 76.5822C84.2073 78.722 84.3136 78.7377 81.8777 79.3271C80.6191 79.6317 79.1504 79.9492 77.9379 79.2587C77.2745 78.881 76.9128 78.2669 76.7368 77.5513C76.9005 77.0406 77.2189 76.5385 77.479 76.0626C75.9262 76.8712 75.5755 77.6281 74.9382 79.1899C74.8091 78.2607 75.2789 76.1978 75.7056 75.3355C75.8631 75.0171 76.5047 73.9911 76.4881 73.7975C76.3519 73.7828 76.3538 73.8207 76.2053 73.9171C75.3886 74.4581 74.8229 75.0204 74.2192 75.7783C74.5249 74.5302 75.0478 73.3457 75.7649 72.2794C74.8101 72.734 74.1817 73.3092 73.4087 74.0054C73.441 72.1949 74.0394 70.8566 75.1484 69.4519C75.4631 69.0538 76.0178 68.3291 76.2494 67.8963L76.2788 67.8403C76.4601 68.4924 76.5398 69.5331 76.584 70.216C77.3898 69.0362 77.6038 67.5504 77.1639 66.1914C76.7425 64.9129 76.4625 64.9066 76.3021 63.3925C77.162 64.7088 77.6868 65.3894 79.2538 65.9141C78.6355 64.5753 78.5102 64.0867 78.6421 62.6362C80.0497 64.8326 81.8141 66.3611 84.3819 67.045C83.915 65.9411 83.4921 64.7432 83.4153 63.5459C84.0787 64.5872 84.5262 65.0468 85.5247 65.7111C85.3439 64.5031 85.3358 63.6118 85.6794 62.4461Z" fill="white"/>
<path d="M80.3194 72.5413C81.2737 72.4416 82.5038 72.8773 83.2773 73.4216C84.1842 74.0599 85.317 75.1623 84.8244 76.3866C84.8049 76.4351 84.7058 76.4199 84.6593 76.4213C84.1439 76.1992 83.3405 75.829 82.79 75.9633C80.728 76.4654 79.9602 74.6474 80.0888 72.9333C80.104 72.7325 80.1514 72.667 80.3194 72.5413Z" fill="#000100"/>
<path d="M81.3211 70.0774C83.1472 69.9777 84.8409 71.1993 86.4639 71.8537C87.4623 72.2556 88.1315 72.1878 89.0901 71.7564C88.2473 72.6785 87.6768 72.9566 86.4197 72.77C85.6419 72.5798 85.0445 72.2969 84.3355 71.9358C82.162 70.8291 80.8584 70.4713 78.4846 71.2244C79.5225 70.4936 80.0307 70.187 81.3211 70.0774Z" fill="#000100"/>
<path d="M74.16 45.3031C76.5129 44.7685 77.6248 44.6464 80.0094 45.2639C79.3512 45.3671 78.5986 45.4943 77.9612 45.6778C81.3012 46.3097 84.065 48.2142 86.3609 50.6495C86.7415 51.0533 87.1013 51.4885 87.4823 51.8831C86.64 51.554 86.1298 51.4087 85.3169 50.9495C84.7949 50.6546 84.112 50.13 83.6308 49.889C84.9211 51.2225 85.688 52.3618 86.6015 53.9956C87.6133 55.8057 88.7029 58.1424 90.1176 59.6852C88.7684 59.1654 87.8416 58.5971 86.817 57.5454C86.7776 59.7546 86.8967 60.923 87.8738 62.9587C86.2907 61.5181 85.8494 60.2939 85.464 58.2719C85.0587 59.8741 84.9268 60.6526 84.1447 62.1449C84.652 58.2217 83.9312 54.9488 80.9823 52.1203C82.3875 55.0671 82.5773 55.7418 82.6736 58.9894C82.3941 58.0577 82.0785 57.0481 81.6514 56.1727C80.7645 54.3557 79.169 52.6032 77.5645 51.3821C76.7725 50.7791 75.988 50.335 75.1694 49.6875C76.5893 52.0899 77.1009 53.839 76.9704 56.6753C76.9352 57.4431 76.8688 58.307 76.6752 59.0537C76.6638 59.0984 76.6515 59.143 76.6391 59.1874C75.5296 54.4309 71.99 54.1373 70.6129 50.0816C69.8758 52.0621 69.9378 53.3957 70.7988 55.3783C69.2103 54.1794 67.6618 52.9863 66.8339 51.1034C66.078 49.3843 66.2143 48.233 67.2227 46.6976C66.8624 49.2026 67.5198 50.4029 69.0424 52.3084C68.4596 50.0196 69.0472 48.3351 70.3811 46.447C71.4146 47.8396 72.1325 48.6673 73.7585 49.4542C73.4918 48.8489 73.2887 48.2014 73.0927 47.5693C75.9719 48.5842 77.3927 49.3824 79.6132 51.4139C78.4927 49.3998 77.2793 48.1275 75.2657 46.9609C74.962 46.7847 74.5254 46.531 74.2008 46.4222L74.2146 46.3936C74.5876 46.4141 74.9255 46.5362 75.2847 46.6077C76.9817 46.9452 79.1016 47.6823 80.5485 48.6578L80.7203 48.5589C79.0916 46.7239 76.5969 45.5332 74.16 45.3031Z" fill="white"/>
<path d="M80.7205 48.5589L81.2207 49.1054L80.5486 48.6579L80.7205 48.5589Z" fill="#000100"/>
<path d="M51.3527 26.2076C51.3551 26.2193 51.3767 26.2994 51.3726 26.3067C49.2583 30.0772 47.6785 34.4693 48.2926 38.8515C48.5291 40.5392 49.3311 42.6701 50.3841 44.0308C52.4512 46.7019 55.8 48.251 59.0997 48.6751C60.0118 48.7924 60.9812 48.8001 61.896 48.7967C60.5888 49.5612 59.8348 49.6612 58.3548 49.6481C59.6542 50.1374 61.1829 50.1016 62.5338 49.8975C60.9719 50.6098 60.1271 50.8329 58.4459 50.755C60.1634 51.4437 61.2558 51.2127 62.9311 51.1891C59.7388 52.1744 57.4547 51.7675 54.3818 50.6984C54.2635 50.6545 54.146 50.6088 54.0292 50.5613C50.6181 49.1734 47.9111 46.9767 46.4483 43.5316C46.6394 44.9278 47.246 46.2287 47.9015 47.4531C45.5875 45.2007 44.6596 42.1398 44.7846 38.9788C44.9046 35.9454 45.867 33.597 47.3648 31.004C46.1932 32.0551 45.2258 33.4439 44.5313 34.8446C44.3013 35.3084 44.1211 35.7852 43.8765 36.2391L43.889 36.1791C44.8822 31.5938 47.4976 28.6801 51.3527 26.2076Z" fill="white"/>
<path d="M96.2445 33.7158C98.9162 36.6725 100.806 40.6763 100.699 44.7464C100.56 49.9667 96.7133 53.559 91.8871 54.9358L91.7072 54.8366C93.2804 54.2746 94.303 53.5895 95.6271 52.5736C95.115 52.7234 94.6362 53.0715 94.1474 53.2905C92.7688 53.908 91.2977 54.2949 89.7961 54.4581C89.4858 54.4918 89.1066 54.53 88.8072 54.586C88.522 54.1337 88.2296 53.6861 87.9302 53.2432C88.4332 53.4356 89.613 53.8416 90.209 53.7497C90.3087 53.7344 90.3272 53.6332 90.3485 53.5605C90.2437 53.0869 89.3382 52.3118 88.9984 51.8608C88.7355 51.5122 88.5784 51.3402 88.3307 50.9317C91.5933 50.2427 93.6382 48.8399 95.5526 46.0724C97.5267 43.2191 97.5035 39.3338 96.7954 36.023C96.6241 35.2511 96.4409 34.4819 96.2445 33.7158Z" fill="white"/>
<path d="M98.9667 43.0807L99.0156 43.1204C99.2063 43.4985 99.222 45.3974 99.2011 45.8367C99.0887 48.1659 97.525 49.4698 95.8726 50.8994C95.8242 50.9477 95.8555 50.9262 95.7715 50.9519C95.7862 50.8585 96.3846 49.9791 96.4928 49.8007C98.0864 47.1655 98.7047 46.1684 98.9667 43.0807Z" fill="#000100"/>
<path d="M52.3309 53.5178C54.6849 53.5428 56.8556 54.574 58.9854 55.4833C57.1799 55.5204 55.3453 55.0208 53.5817 55.031C51.3406 55.044 49.4875 55.78 47.9307 57.381C48.7988 57.3795 50.3252 57.4865 51.1354 57.7521C50.7527 58.1048 50.0698 58.5068 49.611 58.8013C50.532 58.9848 51.3091 59.1319 52.2044 59.4029C51.948 59.5753 51.7737 59.7222 51.5365 59.9217C52.1032 60.2212 52.5672 60.3363 53.1738 60.5272C53.4274 60.8425 53.5021 60.974 53.8343 61.2018C53.9598 61.2625 54.0871 61.3194 54.2161 61.3724C55.3791 61.8422 56.6682 61.3273 57.7568 60.8763C54.3466 64.1958 50.3269 61.6736 47.3015 59.2675C47.7648 59.0506 48.3113 58.7502 48.7736 58.5121C47.9878 58.4144 46.8818 58.3872 46.1819 58.029C45.5926 57.7273 46.9427 56.3078 47.2245 55.9721C48.6117 54.3188 50.1884 53.645 52.3309 53.5178Z" fill="white"/>
<path d="M62.1562 60.6981L62.2054 60.7805C61.9761 62.5034 61.9403 63.7356 62.1812 65.457C62.3255 66.4878 62.0795 67.7782 61.8038 68.7909C63.3936 67.3406 63.9264 66.1448 64.4865 64.127C64.5804 64.6204 64.6653 65.288 64.6092 65.783C64.3811 67.7967 63.6084 68.9703 64.21 71.0631C64.6485 70.6279 64.9775 70.075 65.3735 69.5981C65.8011 69.0832 66.251 68.6295 66.6799 68.1113C65.7036 70.5112 65.1473 72.7103 65.5144 75.3227C65.615 76.0388 65.7115 76.6102 65.9691 77.3002C64.7519 75.9971 64.3027 74.9089 63.9899 73.154C63.9338 72.5598 63.7842 71.8181 63.6656 71.2349C62.9072 73.1763 62.8407 74.1463 63.1438 76.2367C62.9439 75.9591 62.7527 75.6962 62.5774 75.402C61.1188 72.9537 62.8022 70.7537 63.3817 68.4321C62.024 69.6218 61.4417 70.5335 59.5474 71.017C60.8498 69.3921 61.1681 67.3373 61.194 65.3236C60.4512 66.476 60.1008 66.8884 59.0548 67.7725C59.3633 67.0725 59.8108 66.2762 60.0797 65.5764C60.7432 63.8492 61.3106 62.3587 62.1562 60.6981Z" fill="white"/>
<path d="M56.5149 64.2704C56.5076 64.366 56.0793 65.3093 55.9929 65.5044C55.6411 66.2994 55.483 67.0886 55.2061 67.8982C55.9251 67.1712 56.6721 66.4727 57.4457 65.8044C56.0988 68.3382 55.9368 71.5253 56.7351 74.2464C56.8451 74.6213 56.9706 75.131 57.1725 75.4542L57.2365 75.4395C57.3368 73.955 57.8386 72.6899 58.5025 71.3886C58.3339 73.4843 58.1829 74.7233 58.1979 76.8665C58.2431 77.7055 58.3119 78.6304 58.2965 79.4637C55.379 76.0469 54.4596 72.9456 55.8499 68.5265C55.4848 68.9109 53.8943 71.0949 53.5334 70.8956C53.4512 70.6364 53.6623 69.8743 53.7178 69.5839C54.1308 67.4223 54.9876 65.8481 56.5149 64.2704Z" fill="white"/>
<path d="M85.0321 80.5657C85.0616 80.5614 85.091 80.5581 85.1204 80.5557C86.126 80.4627 86.8492 80.7161 87.609 81.3492C87.5796 81.4654 87.5492 81.5812 87.5174 81.697C87.0965 83.2147 85.9779 84.0238 84.6577 84.7755C84.9823 84.2568 85.0934 83.9417 85.2153 83.3485C84.7559 83.4211 84.1694 83.646 83.719 83.8107C82.8928 84.1121 82.376 84.2677 81.5052 84.3764C81.8383 84.1135 82.1957 83.7651 82.5108 83.4723C82.022 83.6028 81.6604 83.6826 81.1621 83.7737C80.8408 83.7808 80.6216 83.8036 80.3008 83.8434C80.492 83.6978 80.9405 83.4026 80.9576 83.1682C80.7284 83.1122 80.0758 83.1914 79.7379 83.1715C79.2126 83.1401 78.8728 83.0808 78.357 82.9921C79.2506 82.7985 79.3118 82.8426 80.2215 82.3975C79.0498 82.3661 78.0623 82.3296 77.5901 81.0943C79.7716 82.1782 82.6375 80.8281 85.0321 80.5657Z" fill="white"/>
<path d="M42.6168 61.1278C42.6172 61.1724 41.993 62.7653 41.9132 62.9729C41.3188 64.5174 41.3704 65.9728 41.1807 67.5699C41.6628 67.0374 42.098 66.486 42.5996 65.9531C43.5446 64.9493 44.4767 64.1856 45.5659 63.3549C44.7243 64.675 44.0499 65.6922 43.0892 66.9425C41.8348 68.482 40.7113 70.1372 39.4434 71.6179C39.4168 70.5961 39.3834 69.6171 39.477 68.5973C39.7285 65.8568 40.7679 63.1841 42.6168 61.1278Z" fill="white"/>
<path d="M70.4199 72.8992C70.5116 73.0135 70.2756 74.2018 70.2418 74.4396C69.9012 76.8394 70.3666 78.0182 70.927 80.1879C71.4919 78.1094 71.5662 77.2072 72.6922 75.2278C72.3032 76.8731 72.2267 78.4378 72.6542 80.0831C72.8872 80.868 73.0841 81.3625 73.4358 82.0971C72.5161 81.3274 72.2292 81.0227 71.6226 79.9668C71.3527 80.5628 71.2397 81.2073 70.9317 81.7701C68.7425 78.629 68.7567 76.2477 70.4199 72.8992Z" fill="white"/>
<path d="M65.5705 59.408C65.9321 59.5267 66.2961 59.6378 66.6622 59.7412C66.7332 61.133 67.0739 62.0955 68.6851 62.3039C69.5259 62.4126 70.1062 61.9985 70.7323 61.483C71.4577 62.0512 71.6598 62.5427 71.9726 63.3839C72.017 63.5808 72.0859 63.8031 72.1413 63.9998C71.0563 63.6475 70.4286 63.7044 69.3219 63.7308C68.3665 63.7536 67.2204 63.5548 66.53 62.8384C65.5497 61.8212 65.5609 60.706 65.5705 59.408Z" fill="white"/>
<path d="M60.0619 77.9214C60.1096 77.9646 60.1336 78.0054 60.1415 78.0738C60.2249 78.8022 60.3363 79.5307 60.5629 80.2311C60.8576 81.1423 61.4665 81.8935 61.9557 82.7074C61.8866 81.3079 61.8766 80.6492 62.2272 79.2791C62.392 80.6293 62.1383 80.9629 62.7153 82.5057C63.0382 83.3081 63.4425 83.9602 63.9488 84.6564C62.6419 84.1505 61.842 83.7234 60.9554 82.5631C60.0732 81.409 59.8229 79.3408 60.0619 77.9214Z" fill="white"/>
<path d="M90.5082 76.4731C91.0634 76.4522 91.2181 76.5248 91.7478 76.7075C91.4526 77.9153 90.5557 78.927 89.5491 79.6142L89.0845 79.8458C88.8729 79.7917 88.6408 79.7437 88.5079 79.5705C88.5402 79.2996 88.7495 79.0789 88.8325 78.8283C89.1624 77.8294 89.291 76.7284 90.5082 76.4731Z" fill="white"/>
<path d="M78.3722 54.2847C78.4443 54.3208 78.4472 54.3233 78.5018 54.3817C80.2462 56.2422 79.7109 58.8184 79.579 61.1266L79.5363 61.2029L79.4812 61.1954C78.404 59.3638 78.6474 58.837 78.6403 56.8723C78.6417 56.0027 78.5516 55.1355 78.3722 54.2847Z" fill="white"/>
<path d="M59.1426 86.8497C59.1729 86.8697 59.2017 86.8877 59.2267 86.9143C60.7478 88.5543 61.916 91.2304 62.084 93.4172C61.9598 93.3294 61.6288 92.6977 61.5343 92.5202C60.5387 90.6467 59.6341 88.9217 59.1426 86.8497Z" fill="white"/>
<path d="M72.6087 87.1274L72.6676 87.1957C72.6999 87.4562 72.6348 88.0494 72.604 88.329C72.3814 90.3131 71.0324 92.0272 69.5186 93.2402C69.7766 92.6209 70.0211 92.1169 70.2656 91.4724C70.6158 90.5134 70.5854 89.28 70.602 88.2516C70.9214 89.1988 71.0752 89.9448 70.957 90.9409C71.9739 89.4703 72.2038 88.8714 72.6087 87.1274Z" fill="white"/>
<path d="M72.0383 54.3951C72.5271 54.7561 73.145 55.3427 73.5303 55.805C74.9592 57.5198 75.0997 58.9544 74.9397 61.0544L74.8662 61.0415C74.4666 59.0553 74.2184 58.2302 73.1274 56.4768C72.8673 56.0594 72.1816 54.8482 72.0383 54.3951Z" fill="white"/>
<path d="M59.6807 56.6171L59.7236 56.6594C59.7093 56.8058 59.3174 57.3358 59.2 57.5789C58.9282 58.1419 58.7846 58.5439 58.6353 59.1509C59.0506 58.5607 59.3252 58.2052 59.7977 57.6716C59.3001 58.9849 59.1463 59.4832 58.8729 60.8877C58.8084 61.1397 58.7783 61.3891 58.7416 61.6464C58.4839 61.0102 58.2523 60.5045 58.1042 59.8234C57.8524 59.8667 57.5956 59.9048 57.3429 59.9447C57.9682 58.5481 58.6268 57.6977 59.6807 56.6171Z" fill="white"/>
<path d="M74.8826 90.7402L74.9282 90.8214C74.6757 92.5488 72.6716 95.1313 71.4675 96.4601C71.3584 96.36 71.4352 96.0842 71.4764 95.9499C72.0948 93.9274 73.8101 92.508 74.8826 90.7402Z" fill="white"/>
<path d="M53.677 76.157C53.711 76.1836 53.7641 76.2258 53.7681 76.2752C53.8649 77.4715 54.0903 78.667 54.4417 79.8135C54.6237 80.4076 55.7553 82.7273 55.3867 83.2161C53.7329 80.9192 53.3207 78.9413 53.677 76.157Z" fill="white"/>
<path d="M50.815 69.143C50.8804 69.4007 50.8117 70.0831 50.7809 70.3527C50.7387 70.7147 50.6748 71.0735 50.5895 71.428C50.3977 72.2409 50.1175 73.0871 49.9046 73.9C49.8205 74.2213 49.4871 75.7451 49.327 75.8713C48.8669 73.3675 49.9987 71.372 50.815 69.143Z" fill="white"/>
<path d="M79.2335 88.8847C79.2805 89.0907 79.252 89.6639 79.2473 89.9022C79.2103 91.6884 78.6494 92.8117 77.7311 94.2805C77.9242 93.4196 77.9646 92.5948 77.9812 91.7164C77.957 90.7398 77.7259 89.7323 77.4274 88.8069C78.0239 89.6103 78.3931 90.4408 78.5469 91.4255C78.7338 90.7203 79.0252 89.5012 79.2335 88.8847Z" fill="white"/>
<path d="M67.3228 58.1632C68.1882 58.0192 69.1374 58.24 69.8493 58.7485C70.4201 59.1562 70.7232 59.6865 71.0622 60.278L70.508 59.8654C69.9815 59.5369 69.3046 59.1969 68.7001 59.0517C67.6521 58.8 67.3886 58.9847 66.4768 58.3334C66.795 58.2513 66.9973 58.2126 67.3228 58.1632Z" fill="white"/>
<path d="M63.3108 45.2588C63.742 45.2306 64.1568 45.2457 64.5878 45.2552C64.0337 45.4533 63.4595 45.6118 62.9123 45.8209C62.1139 46.1259 61.3154 46.4768 60.5297 46.8156L59.5859 47.1722C60.5349 46.0786 61.8691 45.3932 63.3108 45.2588Z" fill="white"/>
<path d="M80.7493 59.3668C80.9215 60.5846 81.0074 61.3111 81.4364 62.5061C81.5456 62.8091 82.1293 64.2743 82.1596 64.4303L82.0989 64.4293C81.2898 63.5116 80.6349 62.6516 80.5461 61.3774C80.5044 60.7717 80.5381 59.9368 80.7493 59.3668Z" fill="white"/>
<path d="M73.3965 67.8608C73.4407 67.9998 73.3856 68.4136 73.3619 68.5721C73.1616 69.9152 71.9925 70.71 70.844 71.1447C70.8067 71.0152 71.1236 70.7822 71.2326 70.6844C72.1559 69.8544 72.8299 68.9575 73.3965 67.8608Z" fill="white"/>
<path d="M68.4122 85.9789C68.6033 86.1493 68.6693 86.5551 68.6829 86.8104C68.7428 87.9341 68.0947 88.7404 67.388 89.5239L67.3012 89.5709C67.2961 89.4091 67.683 88.6839 67.7691 88.4614C68.0981 87.6124 68.3177 86.8929 68.4122 85.9789Z" fill="white"/>
<path d="M65.6336 52.4004C65.6784 52.5242 65.5092 53.3255 65.4695 53.5148C65.294 54.3519 65.4265 54.931 65.438 55.6834L65.3982 55.6905L65.3146 55.5386C64.7395 54.2097 64.5488 53.5317 65.6336 52.4004Z" fill="white"/>
<path d="M67.8472 59.7486C68.0718 59.6764 68.3139 59.7905 68.4011 60.0096C68.4883 60.2287 68.3908 60.478 68.178 60.5797C68.027 60.652 67.8483 60.634 67.7147 60.5333C67.5811 60.4325 67.5146 60.2657 67.5425 60.1006C67.5704 59.9356 67.6879 59.7999 67.8472 59.7486Z" fill="white"/>
<path d="M91.8879 54.9359C91.686 54.9907 91.3706 55.09 91.1777 55.0214C91.2846 54.9198 91.5511 54.8759 91.7078 54.8366L91.8879 54.9359Z" fill="#BCBCBB"/>
</svg>
