<svg width="513" height="213" viewBox="0 0 513 213" fill="none" xmlns="http://www.w3.org/2000/svg">
<rect width="512.983" height="212.573" fill="white"/>
<path d="M266.19 120.621C266.386 120.556 266.68 120.523 267.072 120.523C268.182 120.523 268.737 121.242 268.737 122.678C268.737 123.462 268.557 124.132 268.198 124.687C267.872 125.209 267.349 125.536 266.631 125.666C263.659 126.221 260.737 126.842 257.863 127.527L257.716 128.703C256.802 135.136 254.973 139.887 252.231 142.956C249.52 146.058 246.124 147.609 242.043 147.609C239.333 147.609 237.226 146.94 235.724 145.601C234.255 144.295 233.52 142.613 233.52 140.556C233.52 137.128 235.055 134.074 238.124 131.397C241.194 128.719 245.847 126.352 252.084 124.295L253.063 117.389C253.194 116.605 253.357 115.56 253.553 114.254C252.018 118.303 250.059 121.323 247.675 123.315C245.292 125.307 242.631 126.303 239.692 126.303C236.884 126.303 234.745 125.454 233.275 123.756C231.806 122.025 231.071 119.805 231.071 117.095C231.071 115.887 231.202 114.564 231.463 113.127C231.724 111.658 232.132 109.682 232.688 107.201C233.177 104.948 233.537 103.152 233.765 101.813C234.026 100.474 234.157 99.2824 234.157 98.2375C234.157 96.6701 233.553 95.8864 232.345 95.8864C231.398 95.8864 230.271 96.3599 228.965 97.3069C227.692 98.2211 226.337 99.6416 224.9 101.568C224.443 102.189 223.937 102.499 223.381 102.499C222.924 102.499 222.516 102.286 222.157 101.862C221.83 101.405 221.667 100.899 221.667 100.344C221.667 99.3314 222.124 98.1885 223.039 96.915C226.369 92.3436 230.271 90.0578 234.745 90.0578C236.737 90.0578 238.288 90.6619 239.398 91.8701C240.541 93.0783 241.112 94.8579 241.112 97.2089C241.112 98.9069 240.949 100.654 240.622 102.45C240.328 104.213 239.871 106.466 239.251 109.209C238.859 110.842 238.565 112.164 238.369 113.176C238.173 114.156 238.075 114.972 238.075 115.625C238.075 117.291 238.369 118.483 238.957 119.201C239.545 119.919 240.573 120.278 242.043 120.278C243.806 120.278 245.602 119.315 247.431 117.389C249.292 115.429 250.957 112.474 252.427 108.523C253.929 104.572 255.006 99.7395 255.659 94.0252C255.822 92.5885 256.198 91.5762 256.786 90.9884C257.374 90.368 258.222 90.0578 259.333 90.0578C261.618 90.0578 262.761 91.2007 262.761 93.4864C262.761 93.8783 262.745 94.1885 262.712 94.417C262.027 99.2824 261.39 103.674 260.802 107.593C260.476 109.944 260.116 112.36 259.725 114.842C259.365 117.323 259.006 119.838 258.647 122.385C261.031 121.732 263.545 121.144 266.19 120.621ZM251.349 129.438C243.447 132.181 239.496 135.511 239.496 139.43C239.496 140.344 239.773 141.095 240.328 141.683C240.916 142.303 241.733 142.613 242.777 142.613C247.316 142.613 250.157 138.336 251.3 129.781L251.349 129.438Z" fill="black"/>
<path d="M271.275 131.838C269.251 131.838 267.634 131.103 266.426 129.634C265.218 128.164 264.614 126.238 264.614 123.854C264.614 121.242 265.218 118.776 266.426 116.458C267.634 114.107 269.234 112.229 271.226 110.825C273.251 109.389 275.389 108.67 277.642 108.67C278.361 108.67 278.834 108.817 279.063 109.111C279.324 109.372 279.536 109.862 279.7 110.58C280.385 110.45 281.104 110.385 281.855 110.385C283.455 110.385 284.255 110.956 284.255 112.099C284.255 112.785 284.01 114.417 283.52 116.997C282.769 120.752 282.393 123.364 282.393 124.834C282.393 125.323 282.508 125.715 282.736 126.009C282.998 126.303 283.324 126.45 283.716 126.45C284.336 126.45 285.087 126.058 285.969 125.274C286.851 124.458 288.042 123.152 289.545 121.356C289.936 120.899 290.377 120.67 290.867 120.67C291.291 120.67 291.618 120.866 291.847 121.258C292.108 121.65 292.238 122.189 292.238 122.874C292.238 124.181 291.928 125.193 291.308 125.911C289.969 127.576 288.549 128.981 287.047 130.123C285.545 131.266 284.091 131.838 282.687 131.838C281.61 131.838 280.614 131.479 279.7 130.76C278.818 130.009 278.149 128.997 277.691 127.723C275.993 130.466 273.855 131.838 271.275 131.838ZM273.038 126.891C273.757 126.891 274.442 126.466 275.095 125.617C275.749 124.768 276.222 123.642 276.516 122.238L278.328 113.225C276.957 113.258 275.683 113.78 274.508 114.793C273.365 115.772 272.451 117.078 271.765 118.711C271.079 120.344 270.736 122.074 270.736 123.903C270.736 124.915 270.932 125.666 271.324 126.156C271.748 126.646 272.32 126.891 273.038 126.891Z" fill="black"/>
<path d="M309.074 126.499C310.413 126.76 311.082 127.495 311.082 128.703C311.082 129.519 310.707 130.254 309.956 130.907C309.237 131.528 308.193 131.838 306.821 131.838C304.47 131.838 302.543 131.119 301.041 129.683C299.572 128.213 298.837 126.303 298.837 123.952C298.837 122.678 299.49 121.764 300.797 121.209C302.233 120.589 303.262 119.936 303.882 119.25C304.503 118.532 304.813 117.666 304.813 116.654C304.813 116.066 304.682 115.625 304.421 115.331C304.192 115.038 303.899 114.891 303.539 114.891C302.658 114.891 301.678 115.527 300.601 116.801C299.556 118.074 298.576 119.723 297.662 121.748C296.748 123.74 296.029 125.797 295.507 127.919C295.148 129.454 294.723 130.499 294.233 131.054C293.776 131.577 293.041 131.838 292.029 131.838C291.017 131.838 290.266 131.479 289.776 130.76C289.319 130.009 289.009 128.866 288.845 127.332C288.682 125.797 288.601 123.544 288.601 120.572C288.601 115.544 289.107 110.303 290.119 104.85C291.164 99.3967 292.682 94.8252 294.674 91.1354C296.699 87.4129 299.115 85.5517 301.923 85.5517C303.425 85.5517 304.633 86.2047 305.548 87.5109C306.495 88.7843 306.968 90.4497 306.968 92.5068C306.968 95.8048 306.005 99.2334 304.078 102.793C302.152 106.319 299.017 110.45 294.674 115.185C294.576 116.883 294.527 118.629 294.527 120.425C296.094 116.344 297.89 113.389 299.915 111.56C301.939 109.699 303.833 108.768 305.597 108.768C307.229 108.768 308.535 109.323 309.515 110.433C310.527 111.544 311.033 112.915 311.033 114.548C311.033 116.344 310.576 117.993 309.662 119.495C308.748 120.997 307.18 122.336 304.96 123.511C305.156 124.491 305.548 125.176 306.135 125.568C306.756 125.927 307.735 126.238 309.074 126.499ZM300.894 90.4007C300.307 90.4007 299.654 91.2497 298.935 92.9476C298.217 94.613 297.515 96.8824 296.829 99.7559C296.176 102.597 295.637 105.699 295.213 109.062C297.237 106.678 298.903 104.082 300.209 101.274C301.548 98.466 302.217 95.9191 302.217 93.6334C302.217 92.5885 302.103 91.7884 301.874 91.2333C301.646 90.6782 301.319 90.4007 300.894 90.4007Z" fill="black"/>
<path d="M362.322 120.67C362.746 120.67 363.073 120.866 363.301 121.258C363.563 121.65 363.693 122.189 363.693 122.874C363.693 124.148 363.383 125.16 362.763 125.911C360.934 128.099 359.154 129.634 357.424 130.515C355.726 131.397 353.669 131.838 351.252 131.838C349.554 131.838 347.987 131.625 346.55 131.201C345.114 130.776 343.367 130.14 341.309 129.291C339.448 128.474 337.652 127.805 335.922 127.283C334.256 130.319 331.758 131.838 328.428 131.838C326.599 131.838 325.146 131.43 324.069 130.613C322.958 129.764 322.403 128.687 322.403 127.381C322.403 125.781 323.171 124.458 324.705 123.413C326.24 122.336 328.281 121.797 330.828 121.797H331.464L332.346 107.544C332.542 104.278 333.13 101.584 334.109 99.462C335.089 97.3395 336.444 95.5273 338.175 94.0252C339.677 92.7191 341.391 91.7395 343.318 91.0864C345.244 90.4007 347.285 90.0578 349.44 90.0578C352.967 90.0578 355.677 90.9721 357.571 92.8007C359.465 94.6293 360.412 97.013 360.412 99.9518C360.412 101.944 360.052 103.56 359.334 104.801C358.616 106.009 357.62 106.613 356.346 106.613C355.432 106.613 354.714 106.401 354.191 105.976C353.669 105.519 353.408 104.882 353.408 104.066C353.408 103.772 353.473 103.233 353.603 102.45C353.799 101.535 353.897 100.719 353.897 100.001C353.897 98.6293 353.489 97.5518 352.673 96.7681C351.889 95.9517 350.681 95.5436 349.048 95.5436C346.175 95.5436 343.954 96.4905 342.387 98.3844C340.82 100.246 339.824 103.184 339.399 107.201L338.273 118.319C338.109 119.887 337.897 121.242 337.636 122.385C339.726 122.744 342.338 123.315 345.473 124.099C347.301 124.556 348.705 124.883 349.685 125.078C350.665 125.274 351.53 125.372 352.281 125.372C354.175 125.372 355.791 125.062 357.13 124.442C358.501 123.789 359.791 122.76 360.999 121.356C361.391 120.899 361.832 120.67 362.322 120.67Z" fill="black"/>
<path d="M365.743 131.838C363.719 131.838 362.102 131.103 360.894 129.634C359.686 128.164 359.082 126.238 359.082 123.854C359.082 121.242 359.686 118.776 360.894 116.458C362.102 114.107 363.702 112.229 365.694 110.825C367.719 109.389 369.858 108.67 372.111 108.67C372.829 108.67 373.302 108.817 373.531 109.111C373.792 109.372 374.004 109.862 374.168 110.58C374.853 110.45 375.572 110.385 376.323 110.385C377.923 110.385 378.723 110.956 378.723 112.099C378.723 112.785 378.478 114.417 377.988 116.997C377.237 120.752 376.862 123.364 376.862 124.834C376.862 125.323 376.976 125.715 377.204 126.009C377.466 126.303 377.792 126.45 378.184 126.45C378.805 126.45 379.556 126.058 380.437 125.274C381.319 124.458 382.511 123.152 384.013 121.356C384.405 120.899 384.845 120.67 385.335 120.67C385.76 120.67 386.086 120.866 386.315 121.258C386.576 121.65 386.707 122.189 386.707 122.874C386.707 124.181 386.396 125.193 385.776 125.911C384.437 127.576 383.017 128.981 381.515 130.123C380.013 131.266 378.56 131.838 377.156 131.838C376.078 131.838 375.082 131.479 374.168 130.76C373.286 130.009 372.617 128.997 372.16 127.723C370.462 130.466 368.323 131.838 365.743 131.838ZM367.506 126.891C368.225 126.891 368.911 126.466 369.564 125.617C370.217 124.768 370.69 123.642 370.984 122.238L372.796 113.225C371.425 113.258 370.151 113.78 368.976 114.793C367.833 115.772 366.919 117.078 366.233 118.711C365.547 120.344 365.204 122.074 365.204 123.903C365.204 124.915 365.4 125.666 365.792 126.156C366.217 126.646 366.788 126.891 367.506 126.891Z" fill="black"/>
<path d="M392.424 131.838C389.159 131.838 386.775 130.581 385.273 128.066C383.803 125.552 383.069 121.911 383.069 117.144C383.069 112.931 383.591 108.36 384.636 103.429C385.681 98.466 387.199 94.2538 389.191 90.7925C391.216 87.2986 393.616 85.5517 396.391 85.5517C397.893 85.5517 399.101 86.2047 400.016 87.5109C400.93 88.7843 401.387 90.4497 401.387 92.5068C401.387 95.1844 400.881 97.8456 399.869 100.491C398.857 103.135 397.175 105.911 394.824 108.817C396.424 108.948 397.812 109.487 398.987 110.433C400.195 111.38 401.11 112.605 401.73 114.107C402.383 115.609 402.71 117.242 402.71 119.005C402.71 121.454 402.22 123.658 401.24 125.617C400.293 127.576 399.036 129.111 397.469 130.221C395.901 131.299 394.22 131.838 392.424 131.838ZM389.534 112.148C391.689 108.197 393.403 104.719 394.677 101.715C395.983 98.6783 396.636 95.9844 396.636 93.6334C396.636 92.5885 396.506 91.7884 396.244 91.2333C396.016 90.6782 395.689 90.4007 395.265 90.4007C394.612 90.4007 393.893 91.3803 393.11 93.3395C392.359 95.266 391.657 97.8946 391.003 101.225C390.35 104.556 389.861 108.197 389.534 112.148ZM392.62 126.548C393.73 126.548 394.661 125.944 395.412 124.736C396.195 123.527 396.587 121.764 396.587 119.446C396.587 117.65 396.261 116.295 395.608 115.38C394.955 114.466 394.171 114.009 393.257 114.009C392.114 114.009 391.15 114.597 390.367 115.772C389.583 116.948 389.191 118.662 389.191 120.915C389.191 122.874 389.518 124.311 390.171 125.225C390.824 126.107 391.64 126.548 392.62 126.548Z" fill="black"/>
<path d="M414.843 132.915C413.145 132.915 411.839 132.523 410.925 131.74C410.043 130.956 409.602 130.074 409.602 129.095C409.602 128.246 409.913 127.511 410.533 126.891C411.153 126.27 412.068 125.96 413.276 125.96C413.7 125.96 414.19 126.009 414.745 126.107C415.333 126.172 415.774 126.221 416.068 126.254C416.035 125.405 415.839 124.605 415.48 123.854C415.154 123.103 414.729 122.385 414.207 121.699C413.684 120.981 413.194 120.36 412.737 119.838C411.725 121.764 410.713 123.364 409.7 124.638C408.721 125.911 407.643 127.119 406.468 128.262C405.88 128.85 405.26 129.144 404.606 129.144C404.084 129.144 403.66 128.964 403.333 128.605C403.006 128.213 402.843 127.74 402.843 127.185C402.843 126.532 403.072 125.927 403.529 125.372L404.166 124.589C405.962 122.368 407.317 120.54 408.231 119.103C408.819 118.156 409.407 117.029 409.994 115.723C410.615 114.417 411.415 112.638 412.394 110.385C413.015 108.948 414.305 108.229 416.264 108.229C417.178 108.229 417.815 108.311 418.174 108.474C418.533 108.638 418.713 108.899 418.713 109.258C418.713 109.454 418.647 109.764 418.517 110.189C418.386 110.613 418.207 111.038 417.978 111.462C417.39 112.638 417.096 113.634 417.096 114.45C417.096 114.94 417.26 115.478 417.586 116.066C417.945 116.654 418.484 117.389 419.203 118.27C420.247 119.642 421.031 120.817 421.554 121.797C422.109 122.744 422.386 123.789 422.386 124.932C422.386 126.303 422.06 127.609 421.407 128.85C420.786 130.058 419.905 131.038 418.762 131.789C417.619 132.54 416.313 132.915 414.843 132.915Z" fill="black"/>
<path d="M91.9572 39.5105L92.1107 39.6185C92.1483 40.1386 90.9379 41.9613 90.6453 42.5352C86.0565 51.5364 81.6003 64.1128 88.6993 73.0609C89.5153 74.0893 90.3602 74.8889 91.3278 75.7809C91.9317 75.3794 93.2102 74.8045 93.8893 74.4827C97.9822 72.5435 101.348 71.7427 105.857 71.6888C104.751 71.1683 103.731 70.7502 102.57 70.3612C101.878 70.1295 98.8605 69.4476 98.6677 68.9488C98.811 68.7004 99.1074 68.5859 99.3852 68.4997C103.802 67.129 108.486 67.133 112.876 68.5956C114.841 69.25 116.473 70.0768 118.289 70.9695C117.7 69.7904 116.768 68.7796 115.852 67.8437C115.539 67.5233 114.345 66.4966 114.25 66.1586L114.359 65.9956C114.972 65.7461 116.492 66.0676 117.122 66.2389C120.983 67.2896 124.207 69.2822 126.253 72.7516C126.617 72.128 126.955 71.4798 127.323 70.8634C127.643 70.3296 128.253 68.9604 129.008 69.3842C129.535 70.1711 129.462 72.3193 129.397 73.2921C132.508 72.1384 136.879 72.0712 139.963 73.0817C141.089 73.4508 144.159 74.4846 144.681 75.458L144.644 75.5769C144.192 75.7134 143.674 75.7565 143.204 75.7958C141.974 75.8986 140.767 76.0749 139.546 76.2561C144.072 77.5929 147.443 80.3424 150.406 83.9001C151.823 83.5213 153.057 83.3469 154.445 82.7389C165.658 77.8317 165.101 65.4398 162.556 55.4345C162.348 54.6198 161.1 51.3006 161.261 50.9066C161.497 50.8676 161.778 50.995 161.963 51.1323C172.507 58.9522 180.114 76.1295 172.824 88.3622C169.52 93.9073 161.792 98.0459 155.767 99.5034C156.55 100.874 157.576 102.22 158.588 103.435C159.259 104.239 160.024 104.963 160.587 105.849L160.538 105.982C159.283 106.77 155.586 105.359 154.33 104.679C156.311 107.275 158.832 113.762 152.708 109.485C154.349 112.033 155.005 116.041 150.716 112.62C152.095 115.583 153.225 117.526 155.703 119.73C156.788 120.695 159.148 122.652 159.337 124.151C159.798 127.808 158.317 132.361 156.472 135.523C155.565 136.998 154.289 138.059 152.636 138.398C152.146 143.532 147.419 146.181 142.916 147.317C142.602 148.717 142.233 150.269 143.076 151.568C143.32 151.945 143.95 152.492 143.673 152.932C143.257 153.067 142.668 152.858 142.252 152.728C140.322 152.123 139.156 150.782 138.275 149.017C138.975 156.307 136.378 162.078 130.522 166.475C129.951 166.905 128.4 167.974 127.65 167.857C127.464 167.594 128.016 166.742 128.213 166.394C129.713 163.74 130.025 161.205 130.09 158.197C128.159 163.448 125.774 168.706 120.552 171.598C120.187 171.8 119.715 172.04 119.32 171.912C119.256 171.549 119.973 170.608 120.213 170.249C120.713 169.429 121.076 168.494 121.441 167.605C118.448 170.508 114.554 172.938 110.283 173.382C109.87 173.425 109.012 173.418 108.695 173.14C108.716 172.981 108.714 172.908 108.882 172.805C114.651 169.272 115.132 162.927 113.899 156.759C113.605 160.567 111.953 165.746 109.189 168.434C108.687 168.921 107.499 169.984 106.727 169.977C106.565 169.97 106.34 169.852 106.335 169.666C106.286 167.644 106.439 166.034 106.005 164.012C105.045 159.54 102.147 156.212 99.1428 152.968C99.1342 153.217 99.1109 153.466 99.0733 153.712C98.6848 156.282 97.6703 159.7 95.4955 161.291C95.2557 160.682 95.1232 159.775 94.9617 159.111C94.7225 158.163 94.4192 157.23 94.0539 156.323C93.3574 154.584 92.5163 153.035 91.7337 151.348C90.0266 147.67 88.7687 144.388 87.922 140.431C87.7841 141.581 87.8345 143.035 87.8722 144.269C87.9127 145.591 88.2844 147.384 88.1559 148.732C88.1468 148.827 88.0887 148.824 87.9846 148.87C87.5833 148.719 87.1695 148.27 86.8796 147.958C81.9976 142.679 80.1249 135.117 80.8076 128.073C81.0069 126.018 81.4381 124.022 81.8667 122.028C80.5429 124.393 79.5498 127.505 78.7229 130.071C78.3805 131.134 77.8297 132.481 77.6495 133.549C77.4412 132.467 77.181 131.394 77.0334 130.309C76.3783 125.501 77.3312 121.002 79.0451 116.506C75.188 121.602 73.5543 128.685 76.5237 134.536C76.7151 134.914 76.9045 135.285 77.1072 135.656C77.6821 134.989 78.7267 132.965 79.2295 132.082C79.0364 135.09 78.4197 138.14 78.7242 141.163C78.7726 141.643 78.9744 143.106 78.77 143.435L78.5729 143.479C78.1836 143.355 78.0228 143.216 77.7304 142.927C74.21 139.441 71.896 134.362 70.8999 129.563C70.4225 127.264 70.3266 125.171 70.286 122.864C68.7051 124.588 67.6485 126.53 66.4375 128.516C66.1579 128.975 65.1654 130.706 64.6032 130.592C64.0116 129.779 63.9076 127.931 63.8303 126.913C63.448 121.873 64.3223 117.453 65.8259 112.668C65.1147 113.357 60.4257 118.393 59.9243 118.416L59.7932 118.271C59.7256 117.874 59.7593 117.375 59.8154 116.979C60.7567 110.328 65.2012 101.549 70.5058 97.4063C68.995 97.9054 63.0451 99.243 62.1068 97.9062L62.1511 97.723C62.708 97.2218 64.2611 96.3165 64.9999 95.7822C67.4261 94.0275 69.7316 92.1543 72.3425 90.6815C73.1712 90.2139 73.8771 89.7304 74.7803 89.3803C73.7362 89.389 67.2501 88.9037 67.6068 87.5768C68.4574 87.1529 69.6787 86.8442 70.5954 86.5098C72.0783 85.9689 73.5579 85.4231 75.0303 84.8534C77.9153 87.4045 80.77 89.5997 84.7693 90.0147L84.3561 89.7892C78.6767 86.6598 72.898 81.4252 71.1782 75.0007C69.4214 68.438 71.2876 60.9154 74.5006 55.1278C77.6468 49.5579 82.171 44.8894 87.6397 41.5702C89.0645 40.7103 90.3438 39.9734 91.9572 39.5105Z" fill="#000100"/>
<path d="M147.047 105.921C147.128 106.09 147.433 108.279 147.527 108.707C148.133 111.471 149.061 114.315 150.439 116.794C151.25 118.268 152.388 119.405 153.478 120.64C154.536 121.838 156.557 122.761 157.184 124.131C158.022 125.962 155.274 126.929 154.289 128.011C153.506 128.87 153.13 129.459 152.62 130.553C152.693 128.585 153.138 127.872 154.031 126.167C153.566 126.255 152.379 126.63 151.864 126.801C150.05 127.4 148.403 126.527 146.628 125.862C146.83 126.289 147.054 126.918 147.176 127.357C147.504 128.54 147.342 129.236 146.737 130.238C144.515 133.918 144.698 133.945 140.507 134.959C138.343 135.483 135.816 136.029 133.73 134.842C132.589 134.192 131.967 133.136 131.664 131.905C131.946 131.026 132.494 130.163 132.941 129.344C130.27 130.735 129.667 132.037 128.57 134.723C128.348 133.125 129.156 129.576 129.89 128.093C130.161 127.545 131.265 125.78 131.236 125.447C131.002 125.422 131.005 125.487 130.75 125.653C129.345 126.584 128.372 127.551 127.334 128.855C127.859 126.708 128.759 124.67 129.992 122.836C128.35 123.618 127.269 124.607 125.939 125.805C125.995 122.691 127.024 120.389 128.932 117.972C129.473 117.287 130.427 116.041 130.826 115.296L130.876 115.2C131.188 116.322 131.325 118.112 131.401 119.287C132.787 117.257 133.156 114.701 132.399 112.363C131.674 110.164 131.192 110.153 130.916 107.549C132.396 109.813 133.298 110.984 135.994 111.886C134.93 109.583 134.715 108.743 134.942 106.248C137.363 110.026 140.398 112.655 144.815 113.832C144.012 111.933 143.285 109.872 143.152 107.813C144.294 109.604 145.063 110.394 146.781 111.537C146.47 109.459 146.456 107.926 147.047 105.921Z" fill="white"/>
<path d="M137.826 123.286C139.468 123.115 141.584 123.864 142.915 124.801C144.475 125.899 146.423 127.795 145.576 129.901C145.542 129.985 145.372 129.958 145.292 129.961C144.405 129.579 143.023 128.942 142.076 129.173C138.529 130.037 137.208 126.909 137.43 123.961C137.456 123.615 137.537 123.503 137.826 123.286Z" fill="#000100"/>
<path d="M139.55 119.048C142.691 118.877 145.604 120.978 148.396 122.104C150.114 122.795 151.265 122.678 152.914 121.936C151.464 123.522 150.483 124.001 148.32 123.68C146.982 123.353 145.955 122.866 144.735 122.245C140.996 120.341 138.754 119.726 134.671 121.021C136.456 119.764 137.33 119.237 139.55 119.048Z" fill="#000100"/>
<path d="M127.231 76.4316C131.279 75.5118 133.191 75.302 137.293 76.3641C136.161 76.5416 134.866 76.7605 133.77 77.0761C139.515 78.1631 144.27 81.4392 148.219 85.6284C148.874 86.323 149.493 87.0717 150.148 87.7504C148.699 87.1843 147.822 86.9343 146.423 86.1445C145.525 85.6371 144.351 84.7347 143.523 84.3201C145.742 86.614 147.062 88.5738 148.633 91.3844C150.373 94.498 152.248 98.5176 154.681 101.172C152.36 100.277 150.766 99.2998 149.004 97.4906C148.936 101.291 149.141 103.301 150.822 106.803C148.098 104.324 147.339 102.218 146.676 98.7404C145.979 101.496 145.752 102.836 144.407 105.403C145.28 98.654 144.04 93.0239 138.967 88.1585C141.384 93.2274 141.711 94.3881 141.876 99.9745C141.395 98.3719 140.853 96.6351 140.118 95.1293C138.592 92.0037 135.848 88.9892 133.088 86.8886C131.725 85.8513 130.376 85.0873 128.968 83.9734C131.41 88.1061 132.29 91.1149 132.066 95.9939C132.005 97.3146 131.891 98.8007 131.558 100.085C131.538 100.162 131.517 100.239 131.496 100.315C129.587 92.133 123.498 91.628 121.129 84.6515C119.862 88.0582 119.968 90.3524 121.449 93.7628C118.717 91.7004 116.053 89.6481 114.629 86.4091C113.329 83.452 113.563 81.4715 115.298 78.8303C114.678 83.1394 115.809 85.2041 118.428 88.482C117.426 84.5448 118.436 81.6472 120.731 78.3993C122.509 80.7947 123.743 82.2186 126.541 83.5722C126.082 82.5309 125.732 81.4172 125.395 80.3297C130.348 82.0757 132.792 83.4486 136.612 86.9433C134.684 83.4787 132.597 81.2901 129.133 79.2832C128.611 78.9802 127.86 78.5437 127.301 78.3567L127.325 78.3074C127.967 78.3427 128.548 78.5528 129.166 78.6756C132.085 79.2562 135.732 80.5242 138.221 82.2023L138.516 82.0321C135.715 78.8755 131.423 76.8273 127.231 76.4316Z" fill="white"/>
<path d="M138.516 82.0322L139.376 82.9713L138.221 82.2023L138.516 82.0322Z" fill="#000100"/>
<path d="M87.9983 43.5836C88.0024 43.6037 88.0396 43.7415 88.0325 43.7541C84.3955 50.2401 81.678 57.7953 82.7344 65.3336C83.1412 68.2367 84.5207 71.9023 86.3321 74.2429C89.888 78.8377 95.6486 81.5025 101.325 82.2321C102.894 82.4338 104.561 82.4471 106.135 82.4411C103.886 83.7563 102.589 83.9283 100.043 83.9057C102.279 84.7475 104.908 84.6858 107.232 84.3348C104.545 85.5601 103.092 85.9438 100.2 85.8098C103.154 86.9945 105.034 86.5972 107.915 86.5566C102.424 88.2515 98.495 87.5515 93.209 85.7125C93.0055 85.637 92.8033 85.5583 92.6024 85.4766C86.7346 83.0892 82.0781 79.3105 79.5619 73.3842C79.8906 75.7859 80.9341 78.0238 82.0617 80.13C78.0812 76.2554 76.485 70.9901 76.7 65.5525C76.9063 60.3346 78.5618 56.2949 81.1384 51.8344C79.1231 53.6425 77.459 56.0315 76.2643 58.4409C75.8687 59.2387 75.5586 60.059 75.1378 60.8396L75.1595 60.7365C76.8678 52.849 81.3669 47.8368 87.9983 43.5836Z" fill="white"/>
<path d="M165.221 56.4993C169.817 61.5854 173.069 68.4727 172.883 75.4741C172.645 84.4539 166.028 90.6333 157.726 93.0017L157.416 92.831C160.122 91.8644 161.881 90.6858 164.159 88.9382C163.278 89.196 162.455 89.7947 161.614 90.1714C159.242 91.2338 156.712 91.8992 154.129 92.18C153.595 92.238 152.943 92.3037 152.428 92.4001C151.937 91.622 151.434 90.852 150.919 90.0902C151.784 90.4211 153.814 91.1195 154.839 90.9614C155.01 90.9351 155.042 90.761 155.079 90.6359C154.899 89.8212 153.341 88.4879 152.757 87.7121C152.304 87.1125 152.034 86.8165 151.608 86.1139C157.22 84.9287 160.738 82.5157 164.031 77.7549C167.427 72.8467 167.387 66.1634 166.169 60.4681C165.874 59.1402 165.559 57.817 165.221 56.4993Z" fill="white"/>
<path d="M169.903 72.6086L169.988 72.6769C170.316 73.3273 170.343 76.5938 170.307 77.3494C170.113 81.3561 167.423 83.5992 164.581 86.0583C164.498 86.1414 164.552 86.1043 164.407 86.1486C164.432 85.988 165.462 84.4753 165.648 84.1682C168.389 79.6352 169.453 77.9201 169.903 72.6086Z" fill="#000100"/>
<path d="M89.681 90.5623C93.7303 90.6053 97.4644 92.3791 101.128 93.9434C98.0222 94.0072 94.8663 93.1477 91.8326 93.1653C87.9775 93.1876 84.7899 94.4538 82.1119 97.2078C83.6052 97.2051 86.2308 97.3892 87.6245 97.8461C86.9662 98.4528 85.7915 99.1443 85.0023 99.651C86.5866 99.9666 87.9234 100.22 89.4634 100.686C89.0223 100.982 88.7226 101.235 88.3145 101.578C89.2893 102.093 90.0875 102.291 91.131 102.62C91.5672 103.162 91.6957 103.388 92.2671 103.78C92.483 103.885 92.702 103.983 92.9239 104.074C94.9244 104.882 97.1421 103.996 99.0147 103.22C93.1485 108.931 86.2337 104.592 81.0295 100.453C81.8265 100.08 82.7666 99.563 83.5617 99.1534C82.21 98.9854 80.3075 98.9387 79.1035 98.3224C78.0898 97.8035 80.4123 95.3617 80.897 94.7841C83.2834 91.9401 85.9955 90.7811 89.681 90.5623Z" fill="white"/>
<path d="M106.582 102.914L106.667 103.056C106.273 106.019 106.211 108.139 106.625 111.1C106.874 112.873 106.45 115.093 105.976 116.835C108.711 114.34 109.628 112.283 110.591 108.812C110.752 109.661 110.899 110.809 110.802 111.661C110.41 115.125 109.08 117.144 110.115 120.744C110.87 119.995 111.436 119.044 112.117 118.224C112.852 117.338 113.626 116.557 114.364 115.666C112.685 119.794 111.728 123.577 112.359 128.071C112.532 129.303 112.698 130.286 113.141 131.473C111.048 129.231 110.275 127.359 109.737 124.34C109.64 123.318 109.383 122.042 109.179 121.039C107.874 124.379 107.76 126.047 108.281 129.643C107.937 129.166 107.609 128.713 107.307 128.207C104.798 123.996 107.694 120.211 108.69 116.218C106.355 118.264 105.353 119.833 102.095 120.664C104.335 117.869 104.883 114.335 104.927 110.871C103.649 112.853 103.047 113.562 101.247 115.083C101.778 113.879 102.548 112.509 103.01 111.305C104.152 108.334 105.128 105.77 106.582 102.914Z" fill="white"/>
<path d="M96.8785 109.059C96.866 109.223 96.1291 110.846 95.9806 111.182C95.3754 112.549 95.1034 113.907 94.6272 115.299C95.8639 114.049 97.149 112.847 98.4796 111.698C96.1628 116.056 95.8842 121.539 97.2573 126.22C97.4465 126.864 97.6624 127.741 98.0097 128.297L98.1199 128.272C98.2923 125.718 99.1555 123.542 100.298 121.304C100.008 124.909 99.7478 127.04 99.7737 130.727C99.8513 132.17 99.9697 133.761 99.9433 135.194C94.9246 129.317 93.343 123.982 95.7345 116.38C95.1066 117.042 92.3707 120.798 91.7498 120.455C91.6084 120.01 91.9715 118.699 92.0669 118.199C92.7774 114.481 94.2513 111.773 96.8785 109.059Z" fill="white"/>
<path d="M145.933 137.09C145.984 137.083 146.035 137.077 146.085 137.073C147.815 136.913 149.059 137.349 150.366 138.438C150.316 138.638 150.263 138.837 150.209 139.036C149.484 141.647 147.56 143.038 145.289 144.332C145.848 143.439 146.039 142.897 146.249 141.877C145.458 142.002 144.449 142.389 143.675 142.672C142.253 143.19 141.364 143.458 139.866 143.645C140.44 143.193 141.054 142.594 141.596 142.09C140.755 142.314 140.133 142.452 139.276 142.608C138.724 142.621 138.346 142.66 137.795 142.728C138.124 142.478 138.895 141.97 138.924 141.567C138.53 141.47 137.408 141.607 136.826 141.572C135.923 141.518 135.338 141.416 134.451 141.264C135.988 140.931 136.093 141.007 137.658 140.241C135.643 140.187 133.944 140.124 133.132 137.999C136.884 139.864 141.814 137.541 145.933 137.09Z" fill="white"/>
<path d="M72.9713 103.653C72.9719 103.73 71.8982 106.47 71.7608 106.827C70.7384 109.484 70.8272 111.987 70.5008 114.735C71.3301 113.819 72.0788 112.87 72.9416 111.953C74.5672 110.227 76.1705 108.913 78.0441 107.484C76.5965 109.755 75.4363 111.505 73.7838 113.655C71.6259 116.304 69.6934 119.151 67.5124 121.698C67.4666 119.94 67.4092 118.256 67.5702 116.502C68.0028 111.788 69.7907 107.19 72.9713 103.653Z" fill="white"/>
<path d="M120.798 123.902C120.955 124.099 120.549 126.143 120.491 126.552C119.906 130.68 120.706 132.708 121.67 136.44C122.642 132.865 122.77 131.313 124.706 127.908C124.037 130.738 123.906 133.429 124.641 136.26C125.042 137.61 125.381 138.46 125.986 139.724C124.404 138.4 123.91 137.876 122.867 136.06C122.402 137.085 122.208 138.194 121.678 139.162C117.912 133.758 117.937 129.662 120.798 123.902Z" fill="white"/>
<path d="M112.456 100.695C113.078 100.899 113.704 101.09 114.334 101.268C114.456 103.662 115.042 105.318 117.814 105.676C119.26 105.863 120.258 105.151 121.335 104.264C122.583 105.241 122.931 106.087 123.469 107.534C123.545 107.873 123.664 108.255 123.759 108.594C121.893 107.988 120.813 108.085 118.909 108.131C117.266 108.17 115.294 107.828 114.106 106.596C112.42 104.846 112.44 102.928 112.456 100.695Z" fill="white"/>
<path d="M102.98 132.541C103.062 132.616 103.104 132.686 103.117 132.803C103.261 134.056 103.452 135.309 103.842 136.514C104.349 138.082 105.397 139.374 106.238 140.774C106.119 138.367 106.102 137.234 106.705 134.877C106.989 137.199 106.552 137.773 107.545 140.427C108.1 141.807 108.796 142.929 109.667 144.127C107.418 143.256 106.042 142.522 104.517 140.526C103 138.541 102.569 134.983 102.98 132.541Z" fill="white"/>
<path d="M155.353 130.05C156.308 130.014 156.574 130.139 157.485 130.453C156.978 132.531 155.435 134.271 153.703 135.453L152.904 135.851C152.54 135.758 152.141 135.676 151.912 135.378C151.968 134.912 152.328 134.532 152.471 134.101C153.038 132.383 153.259 130.489 155.353 130.05Z" fill="white"/>
<path d="M134.477 91.8816C134.601 91.9437 134.606 91.9481 134.7 92.0484C137.701 95.2489 136.78 99.6804 136.553 103.651L136.479 103.782L136.385 103.769C134.532 100.619 134.95 99.7125 134.938 96.3327C134.941 94.8369 134.786 93.3451 134.477 91.8816Z" fill="white"/>
<path d="M101.399 147.9C101.451 147.934 101.5 147.965 101.543 148.011C104.16 150.832 106.169 155.435 106.458 159.197C106.245 159.046 105.675 157.959 105.513 157.654C103.8 154.431 102.244 151.464 101.399 147.9Z" fill="white"/>
<path d="M124.563 148.377L124.664 148.495C124.719 148.943 124.608 149.963 124.555 150.444C124.172 153.857 121.851 156.806 119.247 158.892C119.691 157.827 120.111 156.96 120.532 155.852C121.134 154.202 121.082 152.08 121.111 150.311C121.66 151.941 121.925 153.224 121.721 154.937C123.471 152.408 123.866 151.377 124.563 148.377Z" fill="white"/>
<path d="M123.582 92.0715C124.422 92.6927 125.485 93.7016 126.148 94.4969C128.606 97.4467 128.848 99.9144 128.573 103.527L128.446 103.505C127.759 100.088 127.332 98.6686 125.455 95.6524C125.008 94.9345 123.828 92.8509 123.582 92.0715Z" fill="white"/>
<path d="M102.324 95.8938L102.398 95.9666C102.373 96.2185 101.699 97.1302 101.497 97.5484C101.03 98.5168 100.783 99.2083 100.526 100.252C101.241 99.2372 101.713 98.6256 102.526 97.7078C101.67 99.967 101.405 100.824 100.935 103.24C100.824 103.674 100.772 104.103 100.709 104.545C100.266 103.451 99.8673 102.581 99.6124 101.409C99.1794 101.484 98.7375 101.549 98.3029 101.618C99.3785 99.2156 100.511 97.7527 102.324 95.8938Z" fill="white"/>
<path d="M128.475 154.592L128.553 154.732C128.119 157.703 124.671 162.146 122.6 164.431C122.412 164.259 122.544 163.785 122.615 163.554C123.679 160.075 126.63 157.633 128.475 154.592Z" fill="white"/>
<path d="M91.9971 129.506C92.0554 129.552 92.1469 129.625 92.1536 129.709C92.3202 131.767 92.708 133.824 93.3123 135.796C93.6256 136.818 95.5721 140.808 94.9379 141.649C92.0932 137.698 91.3841 134.296 91.9971 129.506Z" fill="white"/>
<path d="M87.0735 117.441C87.1861 117.884 87.0679 119.058 87.0148 119.522C86.9422 120.144 86.8323 120.762 86.6856 121.371C86.3557 122.77 85.8737 124.225 85.5074 125.624C85.3627 126.176 84.7893 128.798 84.5138 129.015C83.7225 124.708 85.6692 121.275 87.0735 117.441Z" fill="white"/>
<path d="M135.959 151.4C136.04 151.754 135.991 152.741 135.982 153.15C135.919 156.223 134.954 158.155 133.374 160.682C133.706 159.201 133.776 157.782 133.804 156.271C133.763 154.591 133.365 152.858 132.852 151.266C133.878 152.648 134.513 154.077 134.778 155.771C135.099 154.558 135.6 152.461 135.959 151.4Z" fill="white"/>
<path d="M115.47 98.5534C116.959 98.3057 118.592 98.6856 119.816 99.5602C120.798 100.262 121.319 101.174 121.903 102.191L120.949 101.482C120.044 100.916 118.879 100.332 117.839 100.082C116.037 99.6488 115.583 99.9666 114.015 98.8462C114.562 98.7049 114.91 98.6385 115.47 98.5534Z" fill="white"/>
<path d="M108.569 76.3555C109.311 76.3069 110.024 76.3329 110.766 76.3492C109.812 76.6901 108.825 76.9627 107.883 77.3223C106.51 77.847 105.136 78.4506 103.785 79.0334L102.161 79.6468C103.794 77.7656 106.089 76.5867 108.569 76.3555Z" fill="white"/>
<path d="M138.566 100.624C138.863 102.719 139.01 103.968 139.748 106.024C139.936 106.545 140.94 109.066 140.992 109.334L140.888 109.332C139.496 107.754 138.369 106.274 138.217 104.082C138.145 103.04 138.203 101.604 138.566 100.624Z" fill="white"/>
<path d="M125.918 115.235C125.994 115.474 125.899 116.186 125.858 116.459C125.514 118.769 123.503 120.136 121.527 120.884C121.463 120.661 122.008 120.26 122.195 120.092C123.784 118.664 124.943 117.122 125.918 115.235Z" fill="white"/>
<path d="M117.344 146.402C117.673 146.695 117.786 147.393 117.809 147.832C117.912 149.765 116.798 151.152 115.582 152.5L115.433 152.581C115.424 152.302 116.089 151.055 116.237 150.672C116.803 149.212 117.181 147.974 117.344 146.402Z" fill="white"/>
<path d="M112.564 88.6402C112.641 88.8532 112.35 90.2316 112.282 90.5572C111.98 91.9972 112.208 92.9934 112.228 94.2877L112.159 94.2998L112.015 94.0385C111.026 91.7526 110.698 90.5863 112.564 88.6402Z" fill="white"/>
<path d="M116.372 101.281C116.757 101.156 117.174 101.353 117.323 101.729C117.473 102.106 117.306 102.534 116.94 102.709C116.681 102.833 116.373 102.802 116.144 102.629C115.914 102.456 115.8 102.169 115.848 101.886C115.896 101.602 116.098 101.369 116.372 101.281Z" fill="white"/>
<path d="M157.726 93.0017C157.379 93.0959 156.837 93.2666 156.505 93.1485C156.689 92.9741 157.147 92.8985 157.416 92.831L157.726 93.0017Z" fill="#BCBCBB"/>
</svg>
