<svg width="203" height="68" viewBox="0 0 203 68" fill="none" xmlns="http://www.w3.org/2000/svg">
<path d="M101.571 40.9658C101.695 40.9243 101.882 40.9036 102.131 40.9036C102.837 40.9036 103.189 41.3601 103.189 42.2733C103.189 42.7714 103.075 43.1968 102.847 43.5496C102.639 43.8817 102.307 44.0892 101.851 44.1722C99.9622 44.525 98.1048 44.9193 96.2785 45.3551L96.1851 46.1023C95.604 50.1907 94.4418 53.2103 92.6985 55.1611C90.976 57.1326 88.8177 58.1184 86.2235 58.1184C84.501 58.1184 83.1624 57.693 82.2077 56.8421C81.2738 56.012 80.8069 54.9432 80.8069 53.6357C80.8069 51.4566 81.7823 49.5162 83.7331 47.8144C85.6839 46.1126 88.6413 44.608 92.6052 43.3006L93.2278 38.9112C93.3108 38.4132 93.4145 37.7491 93.5391 36.9189C92.5637 39.4923 91.3184 41.412 89.8035 42.678C88.2885 43.9439 86.5971 44.5769 84.7293 44.5769C82.9445 44.5769 81.5851 44.0373 80.6512 42.9581C79.7173 41.8582 79.2504 40.447 79.2504 38.7245C79.2504 37.9566 79.3334 37.1161 79.4994 36.2029C79.6655 35.269 79.9249 34.0135 80.2777 32.4362C80.589 31.0042 80.8173 29.8628 80.9625 29.0119C81.1286 28.161 81.2116 27.4035 81.2116 26.7394C81.2116 25.7433 80.8276 25.2452 80.0598 25.2452C79.4579 25.2452 78.7419 25.5461 77.9118 26.148C77.1024 26.729 76.2412 27.6318 75.328 28.8563C75.0375 29.2506 74.7158 29.4477 74.363 29.4477C74.0724 29.4477 73.813 29.3128 73.5847 29.043C73.3772 28.7525 73.2734 28.4308 73.2734 28.078C73.2734 27.4347 73.564 26.7083 74.1451 25.8989C76.2619 22.9934 78.7419 21.5407 81.5851 21.5407C82.8511 21.5407 83.8369 21.9247 84.5425 22.6925C85.2689 23.4604 85.632 24.5915 85.632 26.0857C85.632 27.1649 85.5283 28.2752 85.3207 29.4166C85.134 30.5373 84.8434 31.9693 84.4491 33.7125C84.2001 34.7502 84.0133 35.5907 83.8888 36.2341C83.7642 36.8567 83.702 37.3755 83.702 37.7906C83.702 38.849 83.8888 39.6065 84.2623 40.063C84.6359 40.5196 85.2896 40.7479 86.2235 40.7479C87.3442 40.7479 88.4856 40.1357 89.6478 38.9112C90.8307 37.666 91.8892 35.7879 92.8231 33.2767C93.7777 30.7656 94.4626 27.6941 94.8776 24.0622C94.9814 23.1491 95.2201 22.5057 95.5936 22.1322C95.9672 21.7379 96.5068 21.5407 97.2124 21.5407C98.6651 21.5407 99.3915 22.2671 99.3915 23.7198C99.3915 23.9689 99.3811 24.166 99.3604 24.3113C98.9245 27.4035 98.5199 30.1948 98.1463 32.6852C97.9388 34.1795 97.7105 35.7152 97.4614 37.2925C97.2331 38.8697 97.0049 40.4677 96.7766 42.0865C98.2916 41.6714 99.8896 41.2979 101.571 40.9658ZM92.1382 46.5692C87.1159 48.3125 84.6048 50.4293 84.6048 52.9197C84.6048 53.5008 84.7812 53.9781 85.134 54.3517C85.5075 54.746 86.0264 54.9432 86.6905 54.9432C89.5752 54.9432 91.3807 52.2245 92.1071 46.7871L92.1382 46.5692Z" fill="white"/>
<path d="M104.803 48.0946C103.516 48.0946 102.489 47.6276 101.721 46.6937C100.953 45.7598 100.569 44.5354 100.569 43.0204C100.569 41.3601 100.953 39.7933 101.721 38.3198C102.489 36.8255 103.505 35.6322 104.771 34.7398C106.058 33.8267 107.417 33.3701 108.849 33.3701C109.306 33.3701 109.607 33.4635 109.752 33.6503C109.918 33.8163 110.053 34.1276 110.157 34.5842C110.593 34.5012 111.049 34.4597 111.527 34.4597C112.544 34.4597 113.052 34.8228 113.052 35.5492C113.052 35.985 112.896 37.0227 112.585 38.6622C112.108 41.0488 111.869 42.7091 111.869 43.643C111.869 43.9543 111.942 44.2033 112.087 44.3901C112.253 44.5769 112.46 44.6703 112.71 44.6703C113.104 44.6703 113.581 44.4212 114.142 43.9232C114.702 43.4043 115.459 42.5742 116.414 41.4328C116.663 41.1422 116.943 40.9969 117.255 40.9969C117.524 40.9969 117.732 41.1215 117.877 41.3705C118.043 41.6195 118.126 41.962 118.126 42.3978C118.126 43.2279 117.929 43.8713 117.535 44.3279C116.684 45.3863 115.781 46.2787 114.826 47.005C113.872 47.7314 112.948 48.0946 112.056 48.0946C111.371 48.0946 110.738 47.8663 110.157 47.4097C109.597 46.9324 109.171 46.289 108.881 45.4797C107.801 47.2229 106.442 48.0946 104.803 48.0946ZM105.923 44.9505C106.38 44.9505 106.816 44.6807 107.231 44.1411C107.646 43.6015 107.947 42.8855 108.133 41.9931L109.285 36.2652C108.414 36.2859 107.604 36.618 106.857 37.2614C106.131 37.8839 105.55 38.7141 105.114 39.7517C104.678 40.7894 104.46 41.8893 104.46 43.0515C104.46 43.6949 104.585 44.1722 104.834 44.4835C105.103 44.7948 105.467 44.9505 105.923 44.9505Z" fill="white"/>
<path d="M128.826 44.7014C129.677 44.8674 130.103 45.3344 130.103 46.1023C130.103 46.6211 129.864 47.088 129.387 47.5031C128.93 47.8974 128.266 48.0946 127.394 48.0946C125.9 48.0946 124.676 47.638 123.721 46.7249C122.787 45.791 122.32 44.5769 122.32 43.0827C122.32 42.2733 122.735 41.6922 123.565 41.3394C124.479 40.9451 125.132 40.53 125.527 40.0942C125.921 39.6376 126.118 39.0876 126.118 38.4443C126.118 38.0707 126.035 37.7906 125.869 37.6038C125.724 37.417 125.537 37.3236 125.309 37.3236C124.748 37.3236 124.126 37.7283 123.441 38.5377C122.777 39.3471 122.154 40.3951 121.573 41.6818C120.992 42.9478 120.535 44.2552 120.203 45.6042C119.975 46.5796 119.705 47.2437 119.394 47.5965C119.103 47.9286 118.636 48.0946 117.993 48.0946C117.35 48.0946 116.872 47.8663 116.561 47.4097C116.271 46.9324 116.073 46.206 115.97 45.2306C115.866 44.2552 115.814 42.8232 115.814 40.9347C115.814 37.7387 116.136 34.4078 116.779 30.942C117.443 27.4762 118.408 24.5707 119.674 22.2256C120.961 19.8597 122.497 18.6768 124.281 18.6768C125.236 18.6768 126.004 19.0918 126.585 19.922C127.187 20.7313 127.488 21.7898 127.488 23.0972C127.488 25.1933 126.876 27.3724 125.651 29.6345C124.427 31.8759 122.434 34.5012 119.674 37.5104C119.612 38.5896 119.581 39.6999 119.581 40.8413C120.577 38.2471 121.718 36.369 123.005 35.2068C124.292 34.0238 125.495 33.4324 126.616 33.4324C127.654 33.4324 128.484 33.7852 129.107 34.4908C129.75 35.1964 130.072 36.068 130.072 37.1057C130.072 38.2471 129.781 39.2952 129.2 40.2498C128.619 41.2045 127.623 42.0554 126.211 42.8025C126.336 43.4251 126.585 43.8609 126.959 44.1099C127.353 44.3382 127.975 44.5354 128.826 44.7014ZM123.628 21.7586C123.254 21.7586 122.839 22.2982 122.382 23.3774C121.926 24.4358 121.48 25.8782 121.044 27.7044C120.629 29.51 120.286 31.4816 120.017 33.6191C121.303 32.1042 122.362 30.4543 123.192 28.6695C124.043 26.8847 124.468 25.2659 124.468 23.8132C124.468 23.1491 124.396 22.6406 124.25 22.2878C124.105 21.935 123.897 21.7586 123.628 21.7586Z" fill="white"/>
<path d="M162.669 40.9969C162.939 40.9969 163.146 41.1215 163.291 41.3705C163.457 41.6195 163.54 41.962 163.54 42.3978C163.54 43.2072 163.343 43.8505 162.949 44.3279C161.787 45.7183 160.656 46.6937 159.556 47.2541C158.477 47.8144 157.169 48.0946 155.633 48.0946C154.554 48.0946 153.558 47.9597 152.645 47.6899C151.732 47.4201 150.621 47.0154 149.314 46.4758C148.131 45.957 146.99 45.5315 145.89 45.1995C144.831 47.1296 143.244 48.0946 141.127 48.0946C139.965 48.0946 139.041 47.8352 138.356 47.3163C137.651 46.7767 137.298 46.0919 137.298 45.2618C137.298 44.2448 137.786 43.4043 138.761 42.7402C139.736 42.0554 141.033 41.7129 142.652 41.7129H143.057L143.617 32.6541C143.742 30.5788 144.115 28.8666 144.738 27.5177C145.36 26.1687 146.222 25.0169 147.322 24.0622C148.276 23.2321 149.366 22.6095 150.59 22.1944C151.815 21.7586 153.112 21.5407 154.482 21.5407C156.723 21.5407 158.445 22.1218 159.649 23.284C160.853 24.4462 161.455 25.9612 161.455 27.829C161.455 29.0949 161.226 30.1222 160.77 30.9108C160.313 31.6787 159.68 32.0626 158.871 32.0626C158.29 32.0626 157.833 31.9277 157.501 31.658C157.169 31.3674 157.003 30.9627 157.003 30.4439C157.003 30.2571 157.045 29.9147 157.128 29.4166C157.252 28.8355 157.314 28.3167 157.314 27.8601C157.314 26.9885 157.055 26.3036 156.536 25.8055C156.038 25.2867 155.27 25.0273 154.233 25.0273C152.406 25.0273 150.995 25.6291 149.999 26.8328C149.003 28.0157 148.37 29.8835 148.1 32.4362L147.384 39.5027C147.28 40.4989 147.145 41.3601 146.979 42.0865C148.307 42.3148 149.968 42.678 151.96 43.176C153.122 43.4666 154.015 43.6741 154.637 43.7986C155.26 43.9232 155.81 43.9854 156.287 43.9854C157.491 43.9854 158.518 43.7883 159.369 43.394C160.241 42.9789 161.06 42.3252 161.828 41.4328C162.077 41.1422 162.357 40.9969 162.669 40.9969Z" fill="white"/>
<path d="M164.843 48.0946C163.557 48.0946 162.529 47.6276 161.761 46.6937C160.994 45.7598 160.61 44.5354 160.61 43.0204C160.61 41.3601 160.994 39.7933 161.761 38.3198C162.529 36.8255 163.546 35.6322 164.812 34.7398C166.099 33.8267 167.458 33.3701 168.89 33.3701C169.347 33.3701 169.648 33.4635 169.793 33.6503C169.959 33.8163 170.094 34.1276 170.198 34.5842C170.633 34.5012 171.09 34.4597 171.567 34.4597C172.584 34.4597 173.093 34.8228 173.093 35.5492C173.093 35.985 172.937 37.0227 172.626 38.6622C172.148 41.0488 171.91 42.7091 171.91 43.643C171.91 43.9543 171.982 44.2033 172.128 44.3901C172.294 44.5769 172.501 44.6703 172.75 44.6703C173.145 44.6703 173.622 44.4212 174.182 43.9232C174.743 43.4043 175.5 42.5742 176.455 41.4328C176.704 41.1422 176.984 40.9969 177.295 40.9969C177.565 40.9969 177.773 41.1215 177.918 41.3705C178.084 41.6195 178.167 41.962 178.167 42.3978C178.167 43.2279 177.97 43.8713 177.575 44.3279C176.725 45.3863 175.822 46.2787 174.867 47.005C173.912 47.7314 172.989 48.0946 172.097 48.0946C171.412 48.0946 170.779 47.8663 170.198 47.4097C169.637 46.9324 169.212 46.289 168.921 45.4797C167.842 47.2229 166.483 48.0946 164.843 48.0946ZM165.964 44.9505C166.421 44.9505 166.856 44.6807 167.271 44.1411C167.686 43.6015 167.987 42.8855 168.174 41.9931L169.326 36.2652C168.454 36.2859 167.645 36.618 166.898 37.2614C166.171 37.8839 165.59 38.7141 165.155 39.7517C164.719 40.7894 164.501 41.8893 164.501 43.0515C164.501 43.6949 164.625 44.1722 164.874 44.4835C165.144 44.7948 165.507 44.9505 165.964 44.9505Z" fill="white"/>
<path d="M181.801 48.0946C179.725 48.0946 178.21 47.2956 177.256 45.6976C176.322 44.0996 175.855 41.7856 175.855 38.7556C175.855 36.0784 176.187 33.1729 176.851 30.0392C177.515 26.8847 178.48 24.2075 179.746 22.0077C181.033 19.7871 182.558 18.6768 184.322 18.6768C185.277 18.6768 186.045 19.0918 186.626 19.922C187.207 20.7313 187.497 21.7898 187.497 23.0972C187.497 24.799 187.176 26.4904 186.532 28.1714C185.889 29.8524 184.82 31.6164 183.326 33.4635C184.343 33.5465 185.225 33.8889 185.972 34.4908C186.74 35.0926 187.321 35.8709 187.715 36.8255C188.13 37.7802 188.338 38.8179 188.338 39.9385C188.338 41.495 188.027 42.8959 187.404 44.1411C186.802 45.3863 186.003 46.3617 185.007 47.0673C184.011 47.7521 182.942 48.0946 181.801 48.0946ZM179.964 35.5803C181.334 33.0692 182.423 30.859 183.233 28.9496C184.063 27.0196 184.478 25.3074 184.478 23.8132C184.478 23.1491 184.395 22.6406 184.229 22.2878C184.083 21.935 183.876 21.7586 183.606 21.7586C183.191 21.7586 182.734 22.3812 182.236 23.6264C181.759 24.8509 181.313 26.5215 180.898 28.6383C180.483 30.7552 180.171 33.0692 179.964 35.5803ZM181.925 44.7325C182.631 44.7325 183.222 44.3486 183.699 43.5807C184.198 42.8129 184.447 41.6922 184.447 40.2187C184.447 39.0773 184.239 38.216 183.824 37.6349C183.409 37.0538 182.911 36.7633 182.33 36.7633C181.603 36.7633 180.991 37.1368 180.493 37.8839C179.995 38.6311 179.746 39.7206 179.746 41.1526C179.746 42.3978 179.954 43.3109 180.369 43.892C180.784 44.4524 181.302 44.7325 181.925 44.7325Z" fill="white"/>
<path d="M196.05 48.7794C194.97 48.7794 194.14 48.5304 193.559 48.0323C192.999 47.5342 192.719 46.9739 192.719 46.3513C192.719 45.8117 192.916 45.3448 193.31 44.9505C193.704 44.5561 194.286 44.359 195.053 44.359C195.323 44.359 195.635 44.3901 195.987 44.4524C196.361 44.4939 196.641 44.525 196.828 44.5458C196.807 44.0062 196.683 43.4977 196.454 43.0204C196.247 42.5431 195.977 42.0865 195.645 41.6507C195.313 41.1941 195.002 40.7998 194.711 40.4677C194.068 41.6922 193.424 42.7091 192.781 43.5185C192.158 44.3279 191.473 45.0957 190.726 45.8221C190.353 46.1957 189.958 46.3824 189.543 46.3824C189.211 46.3824 188.942 46.2683 188.734 46.04C188.527 45.791 188.423 45.49 188.423 45.1372C188.423 44.7222 188.568 44.3382 188.859 43.9854L189.263 43.4873C190.405 42.0761 191.266 40.9139 191.847 40.0008C192.221 39.3989 192.594 38.683 192.968 37.8528C193.362 37.0227 193.87 35.8916 194.493 34.4597C194.887 33.5465 195.707 33.0899 196.952 33.0899C197.533 33.0899 197.938 33.1418 198.166 33.2456C198.395 33.3494 198.509 33.5154 198.509 33.7437C198.509 33.8682 198.467 34.0653 198.384 34.3351C198.301 34.6049 198.187 34.8747 198.042 35.1445C197.668 35.8916 197.482 36.5246 197.482 37.0434C197.482 37.3547 197.585 37.6972 197.793 38.0707C198.021 38.4443 198.364 38.9112 198.82 39.4716C199.484 40.3432 199.982 41.0903 200.314 41.7129C200.667 42.3148 200.844 42.9789 200.844 43.7053C200.844 44.5769 200.636 45.407 200.221 46.1957C199.827 46.9635 199.266 47.5861 198.54 48.0634C197.814 48.5408 196.983 48.7794 196.05 48.7794Z" fill="white"/>
<path d="M92.107 46.7878C91.3806 52.2245 89.5754 54.943 86.6911 54.9433L86.4485 54.9338C85.9778 54.8968 85.5886 54.7495 85.2812 54.4909L85.1346 54.3517C84.8259 54.0248 84.6522 53.6185 84.6137 53.1327L84.6053 52.9197C84.6054 50.4294 87.1165 48.3127 92.1386 46.5695L92.107 46.7878ZM89.1111 50.2644C88.622 50.5521 88.213 50.8352 87.8805 51.1154C87.046 51.8189 86.8127 52.3705 86.7723 52.7794C87.3531 52.7595 87.8699 52.5206 88.4088 51.7091C88.6559 51.337 88.8928 50.8598 89.1111 50.2644ZM198.509 33.7436C198.509 33.5155 198.394 33.3496 198.166 33.2459C197.938 33.1422 197.533 33.0898 196.953 33.0898C195.707 33.0898 194.888 33.5466 194.493 34.4596L193.645 36.382C193.39 36.9475 193.165 37.4379 192.968 37.853C192.594 38.683 192.221 39.3992 191.848 40.001C191.267 40.9141 190.405 42.076 189.263 43.4872L188.859 43.986C188.569 44.3388 188.423 44.7224 188.423 45.1375C188.423 45.4901 188.526 45.7911 188.734 46.0401C188.915 46.24 189.145 46.3527 189.422 46.3776L189.544 46.3828C189.959 46.3828 190.353 46.1954 190.727 45.8218C191.474 45.0956 192.158 44.328 192.781 43.5188C193.424 42.7095 194.067 41.6924 194.711 40.4682C195.001 40.8002 195.313 41.1947 195.645 41.6513C195.977 42.0871 196.247 42.5438 196.455 43.0211C196.683 43.4982 196.807 44.0065 196.828 44.5459C196.641 44.5251 196.361 44.4935 195.988 44.452C195.635 44.3898 195.323 44.3593 195.053 44.3593C194.286 44.3593 193.705 44.5566 193.31 44.9508C192.916 45.345 192.719 45.8118 192.719 46.3512C192.719 46.9737 192.999 47.5341 193.559 48.0321C194.068 48.4679 194.767 48.7136 195.657 48.7681L196.05 48.7797C196.867 48.7797 197.605 48.5969 198.263 48.2314L198.541 48.0637C199.267 47.5864 199.827 46.9639 200.221 46.1962C200.585 45.5061 200.789 44.7839 200.834 44.0302L200.844 43.7055C200.844 42.9792 200.667 42.3153 200.314 41.7135C199.982 41.0909 199.484 40.3433 198.82 39.4717C198.364 38.9115 198.021 38.4448 197.793 38.0713C197.611 37.7446 197.509 37.4414 197.486 37.1623L197.482 37.0431C197.482 36.5245 197.669 35.8918 198.042 35.145C198.151 34.9427 198.242 34.74 198.316 34.5377L198.385 34.3352C198.468 34.0655 198.509 33.8681 198.509 33.7436ZM108.133 41.993C107.946 42.8853 107.646 43.6014 107.231 44.141C106.816 44.6806 106.38 44.9508 105.923 44.9508L105.756 44.9434C105.377 44.9094 105.07 44.756 104.834 44.4837C104.585 44.1724 104.46 43.695 104.46 43.0517C104.46 42.0349 104.628 41.0659 104.961 40.1444L105.114 39.7521C105.55 38.7145 106.131 37.884 106.857 37.2614C107.604 36.6181 108.414 36.2857 109.286 36.2649L108.133 41.993ZM168.174 41.993C167.987 42.8852 167.687 43.6014 167.272 44.141C166.857 44.6806 166.421 44.9508 165.964 44.9508L165.797 44.9434C165.418 44.9094 165.111 44.7561 164.875 44.4837C164.626 44.1724 164.501 43.695 164.501 43.0517C164.501 42.035 164.668 41.0658 165.001 40.1444L165.155 39.7521C165.537 38.8442 166.029 38.0952 166.633 37.505L166.898 37.2614C167.645 36.6183 168.454 36.2858 169.326 36.2649L168.174 41.993ZM182.288 40.2193C182.288 39.7726 182.245 39.4625 182.198 39.2544C182.057 39.5644 181.906 40.1448 181.906 41.1525C181.906 41.6075 181.942 41.9518 181.991 42.2039C182.138 41.8658 182.288 41.2537 182.288 40.2193ZM83.7026 37.7908C83.7026 37.4794 83.7369 37.1096 83.807 36.6814L83.8893 36.2343C83.9515 35.9128 84.029 35.5419 84.1223 35.1218L84.4492 33.713C84.8435 31.9698 85.1345 30.5377 85.3213 29.417C85.5029 28.4182 85.6044 27.443 85.6271 26.4918L85.6323 26.0859C85.6323 24.6852 85.3131 23.6036 84.6749 22.8412L84.543 22.6925C83.8815 21.9726 82.9733 21.5901 81.8193 21.5452L81.5852 21.541C78.7421 21.541 76.2625 22.9939 74.1457 25.8992C73.5647 26.7084 73.2737 27.4345 73.2736 28.0778C73.2736 28.4306 73.3772 28.7532 73.5847 29.0437C73.8129 29.3133 74.0725 29.4475 74.3629 29.4476C74.7157 29.4476 75.0372 29.2503 75.3278 28.856C76.1269 27.7845 76.8869 26.9599 77.6066 26.3811L77.9124 26.1481C78.7424 25.5464 79.4586 25.2454 80.0604 25.2454C80.828 25.2456 81.2119 25.7437 81.2119 26.7396L81.1961 27.2553C81.1649 27.7883 81.0875 28.374 80.963 29.0121L80.8386 29.7049C80.6985 30.4519 80.511 31.3622 80.2776 32.436C79.9248 34.0131 79.6654 35.2688 79.4994 36.2027C79.3334 37.1159 79.2505 37.9572 79.2505 38.7251L79.2558 39.0435C79.3104 40.6221 79.7764 41.9265 80.6519 42.9578C81.5858 44.037 82.9449 44.5775 84.7297 44.5775C86.5974 44.5775 88.289 43.9443 89.8039 42.6784C91.3189 41.4124 92.5636 39.4921 93.539 36.9187C93.4144 37.7488 93.3109 38.4136 93.2279 38.9117L92.6057 43.3005C88.6419 44.608 85.684 46.1131 83.7332 47.8148L83.3789 48.1365C81.6644 49.7598 80.807 51.5929 80.807 53.6357C80.807 54.9431 81.2745 56.0123 82.2084 56.8424C83.1034 57.64 84.3356 58.0643 85.9055 58.1141L86.2239 58.1183C88.8179 58.1183 90.9761 57.1329 92.6985 55.1615C94.4418 53.2107 95.6047 50.1907 96.1858 46.1023L96.2786 45.3558C97.7288 45.0097 99.1989 44.6899 100.688 44.3962C100.856 45.2954 101.201 46.0613 101.721 46.6939C102.441 47.5695 103.389 48.0344 104.565 48.089L104.803 48.0943C106.442 48.0941 107.802 47.2232 108.881 45.4802C109.171 46.2893 109.597 46.9327 110.157 47.4099C110.738 47.8665 111.371 48.0943 112.056 48.0943C112.948 48.0943 113.872 47.7313 114.826 47.005C115.251 46.6817 115.664 46.3237 116.068 45.9347C116.181 46.5638 116.346 47.0555 116.562 47.4099C116.873 47.8662 117.35 48.0942 117.993 48.0943C118.636 48.0943 119.104 47.9286 119.394 47.5966C119.705 47.2438 119.975 46.5797 120.203 45.6046C120.535 44.2557 120.992 42.9478 121.573 41.6819C122.154 40.3952 122.777 39.3467 123.441 38.5374C124.126 37.7283 124.749 37.3236 125.309 37.3236C125.537 37.3236 125.724 37.4174 125.869 37.6041C126.035 37.7909 126.119 38.071 126.119 38.4446L126.109 38.6818C126.066 39.2241 125.872 39.6955 125.527 40.0949L125.367 40.2573C124.965 40.634 124.365 40.9942 123.566 41.3392C122.736 41.692 122.32 42.2739 122.32 43.0833C122.321 44.5773 122.787 45.7917 123.721 46.7255C124.616 47.5816 125.748 48.0355 127.117 48.089L127.395 48.0943C128.157 48.0943 128.761 47.9439 129.206 47.6419L129.387 47.5038C129.864 47.0887 130.103 46.6212 130.103 46.1023C130.103 45.3824 129.729 44.9276 128.981 44.7368L128.827 44.702C127.976 44.536 127.354 44.3386 126.959 44.1104C126.586 43.8614 126.336 43.4253 126.212 42.8028C127.623 42.0557 128.619 41.2045 129.2 40.2499C129.708 39.4145 129.995 38.5077 130.058 37.5293L130.072 37.1064C130.072 36.0689 129.75 35.1968 129.107 34.4913C128.523 33.8297 127.757 33.4781 126.808 33.4368L126.616 33.4325C125.496 33.4325 124.292 34.0243 123.005 35.2073C121.718 36.3695 120.577 38.2475 119.581 40.8414C119.581 39.7 119.612 38.5894 119.675 37.5103C122.262 34.6893 124.174 32.2054 125.412 30.0592L125.652 29.6342C126.799 27.5138 127.409 25.4663 127.481 23.4918L127.487 23.0974C127.487 21.8718 127.223 20.8652 126.694 20.0773L126.585 19.9223C126.04 19.144 125.331 18.7307 124.458 18.6822L124.282 18.6769C122.497 18.6769 120.961 19.8598 119.675 22.2253C118.409 24.5704 117.443 27.4761 116.779 30.9418C116.136 34.4076 115.814 37.7393 115.814 40.9353C115.814 41.355 115.817 41.7522 115.823 42.1269C115.141 42.9168 114.581 43.5168 114.142 43.9237C113.581 44.4217 113.104 44.6703 112.71 44.6703L112.618 44.6661C112.409 44.6456 112.233 44.5532 112.088 44.3898C111.979 44.2497 111.91 44.0749 111.883 43.8647L111.869 43.6432C111.869 42.7094 112.108 41.0493 112.585 38.6629C112.858 37.2281 113.011 36.2538 113.045 35.7408L113.052 35.5489C113.052 34.8229 112.543 34.4596 111.527 34.4596C111.049 34.4596 110.593 34.501 110.157 34.5841C110.053 34.1277 109.918 33.8168 109.752 33.6508C109.625 33.4874 109.379 33.395 109.014 33.3745L108.849 33.3703C107.417 33.3704 106.058 33.8271 104.771 34.7401L104.537 34.9109C103.38 35.7828 102.441 36.9192 101.721 38.3201L101.582 38.5975C101.185 39.4156 100.905 40.2619 100.741 41.1367C99.3621 41.4251 98.0399 41.7406 96.7763 42.0868C97.0045 40.4682 97.2334 38.8702 97.4617 37.2931C97.7107 35.716 97.9386 34.18 98.1461 32.686C98.5196 30.1956 98.925 27.4034 99.3609 24.3111C99.3816 24.1659 99.3914 23.9684 99.3914 23.7196C99.3913 22.3579 98.7531 21.6345 97.4765 21.5494L97.2128 21.541C96.5073 21.541 95.9677 21.7383 95.5942 22.1325C95.2207 22.5061 94.982 23.1492 94.8782 24.0623C94.4631 27.694 93.7776 30.7654 92.823 33.2765C91.8891 35.7876 90.8308 37.6665 89.6479 38.9117C88.4858 40.1359 87.3445 40.7475 86.2239 40.7476V38.588C86.5087 38.5879 87.1224 38.4358 88.0819 37.4249V37.4238C88.9834 36.475 89.9164 34.8989 90.7994 32.5246L90.8015 32.5172L90.8047 32.5099C91.6771 30.2149 92.3308 27.3301 92.7323 23.8176C92.8527 22.7587 93.1642 21.5385 94.0272 20.6478L94.0261 20.6467C94.9201 19.7033 96.1008 19.3814 97.2128 19.3814C98.272 19.3814 99.4633 19.6473 100.374 20.5582C101.285 21.4691 101.551 22.6604 101.551 23.7196C101.551 24.0092 101.539 24.321 101.498 24.6117L101.499 24.6127C101.063 27.7097 100.657 30.5076 100.282 33.0055C100.075 34.4975 99.8461 36.0292 99.5981 37.601C99.5887 37.6663 99.5802 37.7328 99.5707 37.7982C99.6456 37.6385 99.7237 37.4792 99.8059 37.3215C100.662 35.66 101.802 34.2671 103.236 33.1868L103.527 32.9749C105.139 31.8328 106.926 31.2108 108.849 31.2107C109.379 31.2107 110.539 31.2796 111.346 32.1935C111.379 32.2289 111.411 32.2646 111.442 32.3011C111.47 32.3008 111.498 32.3 111.527 32.3C112.227 32.3 113.14 32.4137 113.926 32.9749C114.03 33.0496 114.127 33.1295 114.218 33.2122C114.343 32.3317 114.49 31.4439 114.656 30.5485L114.658 30.5358C115.351 26.9195 116.375 23.7906 117.773 21.2004L117.777 21.194H117.778C119.231 18.5211 121.345 16.5173 124.282 16.5173C125.97 16.5174 127.362 17.2998 128.317 18.6348L128.318 18.6337C128.325 18.6426 128.331 18.6522 128.337 18.6611C128.343 18.6687 128.349 18.6757 128.354 18.6833H128.353C129.278 19.9529 129.647 21.4843 129.647 23.0974C129.647 25.6252 128.908 28.1556 127.551 30.6624L127.547 30.6698C127.433 30.8771 127.313 31.0864 127.189 31.2982C128.538 31.4198 129.758 31.9809 130.702 33.036H130.703C131.741 34.1754 132.232 35.5812 132.232 37.1064C132.232 38.6348 131.837 40.0726 131.045 41.3729C130.736 41.8804 130.359 42.3448 129.93 42.7733C130.44 42.9581 130.953 43.2531 131.381 43.7223C132.03 44.4352 132.262 45.3025 132.262 46.1023C132.262 47.3815 131.64 48.4057 130.804 49.133L130.799 49.1382C129.807 49.9945 128.558 50.2539 127.395 50.2539C125.423 50.2539 123.639 49.6348 122.229 48.2862L122.211 48.2693L122.194 48.2525C122.043 48.1015 121.902 47.9443 121.769 47.7843C121.571 48.2397 121.329 48.6688 121.014 49.0254L121.013 49.0244C120.154 50.0017 118.966 50.2539 117.993 50.2539C117.031 50.2538 116.078 49.9565 115.332 49.269C114.333 49.8738 113.236 50.2539 112.056 50.2539C110.848 50.2539 109.752 49.838 108.823 49.1077L108.789 49.0813L108.756 49.0539C108.719 49.0219 108.684 48.9865 108.648 48.9537C107.567 49.7756 106.286 50.2538 104.803 50.2539C102.918 50.2539 101.26 49.5341 100.053 48.0658C99.749 47.6966 99.493 47.3032 99.2786 46.8911C98.9224 46.9674 98.5673 47.0447 98.2136 47.1241C97.5707 51.0738 96.3409 54.3135 94.3235 56.5809L94.3246 56.5819L94.3235 56.583C94.3185 56.5886 94.3137 56.5943 94.3088 56.5999L94.3077 56.5988C92.1817 59.0229 89.4399 60.2779 86.2239 60.278C84.1587 60.278 82.2429 59.7655 80.7732 58.4568L80.5159 58.2154C79.2691 56.9861 78.6473 55.4094 78.6473 53.6357C78.6474 50.7992 79.9145 48.361 82.1156 46.366C80.9305 46.0021 79.8722 45.3583 79.0185 44.3719L79.0122 44.3635L79.0048 44.3561C77.6782 42.7935 77.091 40.8555 77.0909 38.7251C77.0909 37.8042 77.19 36.832 77.3746 35.8168C77.5484 34.8403 77.815 33.5555 78.1686 31.9742C78.4766 30.557 78.6967 29.4522 78.834 28.6483L78.8382 28.624L78.8435 28.5987C78.8783 28.4203 78.9065 28.2493 78.9321 28.0862C78.4139 28.5084 77.7867 29.1724 77.0593 30.1478L77.0582 30.1467C76.5291 30.8605 75.6386 31.6072 74.3629 31.6072C73.3007 31.6071 72.4778 31.0775 71.9365 30.4378L71.8796 30.3703L71.8279 30.2986C71.3621 29.6465 71.114 28.8865 71.114 28.0778C71.1141 26.7961 71.6815 25.6274 72.391 24.6391L72.3994 24.6275C74.8034 21.328 77.8714 19.3814 81.5852 19.3814C83.3157 19.3814 84.9328 19.9246 86.1332 21.2309L86.1311 21.232C87.3535 22.5386 87.7919 24.2788 87.792 26.0859C87.792 27.3038 87.675 28.5436 87.4461 29.803C87.2497 30.9753 86.9515 32.4416 86.5561 34.1897L86.5498 34.2171C86.3042 35.2402 86.1247 36.0458 86.0088 36.6445L86.0067 36.6583C85.8971 37.2061 85.8622 37.5717 85.8622 37.7908C85.8622 38.1533 85.8914 38.4064 85.9255 38.5722C85.9996 38.5808 86.0978 38.588 86.2239 38.588V40.7476L85.8865 40.737C85.1846 40.6907 84.6673 40.4943 84.3353 40.1465L84.2625 40.0632C83.9357 39.6637 83.7519 39.0338 83.711 38.1736L83.7026 37.7908ZM183.607 21.7592C183.876 21.7595 184.084 21.9352 184.229 22.2875C184.395 22.6404 184.478 23.1493 184.478 23.8134C184.478 25.3076 184.063 27.0198 183.232 28.9499C182.423 30.8591 181.334 33.0695 179.965 35.5806C180.146 33.3832 180.407 31.3367 180.747 29.4413L180.898 28.6388C181.313 26.522 181.76 24.8512 182.237 23.6268C182.735 22.3816 183.192 21.7592 183.607 21.7592ZM161.455 27.8289C161.455 26.0781 160.926 24.6374 159.868 23.5065L159.65 23.284C158.521 22.1945 156.936 21.6154 154.896 21.5473L154.482 21.541C153.112 21.541 151.815 21.759 150.59 22.1948L150.138 22.3603C149.096 22.7689 148.157 23.3358 147.322 24.0623C146.222 25.0169 145.361 26.1689 144.738 27.5179L144.624 27.7752C144.07 29.0823 143.734 30.7088 143.617 32.6543L143.057 41.7135H142.652L142.353 41.7167C140.873 41.7568 139.676 42.0985 138.761 42.7406L138.584 42.8671C137.727 43.5104 137.299 44.3086 137.299 45.2619L137.302 45.4159C137.343 46.177 137.695 46.8102 138.356 47.3161C138.955 47.7701 139.738 48.0259 140.702 48.0827L141.127 48.0943C143.244 48.0942 144.831 47.1295 145.89 45.1997C146.989 45.5317 148.132 45.9568 149.315 46.4756C150.622 47.0151 151.732 47.4206 152.645 47.6904C153.558 47.9602 154.554 48.0942 155.633 48.0943C157.169 48.0943 158.477 47.8142 159.556 47.2538C160.132 46.9603 160.715 46.551 161.308 46.0296C161.441 46.2651 161.592 46.4869 161.762 46.6939C162.53 47.6276 163.557 48.0942 164.843 48.0943C166.483 48.0943 167.843 47.2234 168.922 45.4802C169.212 46.2894 169.638 46.9327 170.198 47.4099C170.706 47.8095 171.255 48.0339 171.843 48.0837L172.097 48.0943C172.989 48.0942 173.913 47.7313 174.867 47.005C175.586 46.4581 176.275 45.8168 176.935 45.0816C177.035 45.2975 177.142 45.5027 177.256 45.6974C178.21 47.2953 179.725 48.0942 181.8 48.0943C182.799 48.0943 183.742 47.8328 184.63 47.3087L185.007 47.0672C186.003 46.3616 186.802 45.3861 187.404 44.141C187.949 43.0516 188.255 41.8432 188.324 40.5156L188.338 39.9388C188.338 38.9582 188.179 38.0411 187.862 37.1876L187.715 36.8259C187.37 35.9907 186.882 35.2905 186.251 34.7254L185.972 34.4913C185.225 33.8895 184.343 33.5472 183.326 33.4642C184.82 31.6172 185.889 29.8526 186.532 28.1716V28.1706C187.095 26.7 187.412 25.2218 187.482 23.7354L187.498 23.0974C187.498 21.8718 187.242 20.8653 186.731 20.0773L186.626 19.9223C186.081 19.144 185.372 18.7308 184.499 18.6822L184.323 18.6769C182.559 18.6769 181.033 19.7875 179.746 22.0081C178.48 24.2079 177.515 26.8848 176.851 30.0392C176.187 33.1729 175.855 36.0785 175.855 38.7556L175.86 39.3156C175.879 40.2489 175.945 41.11 176.058 41.8991C175.287 42.8023 174.663 43.4787 174.183 43.9237L173.976 44.0988C173.504 44.4799 173.096 44.6702 172.751 44.6703L172.659 44.6661C172.45 44.6457 172.273 44.5533 172.128 44.3898C172.019 44.2498 171.951 44.0747 171.924 43.8647L171.91 43.6432C171.91 42.7094 172.149 41.0493 172.626 38.6629C172.938 37.0233 173.092 35.9847 173.092 35.5489C173.092 34.8229 172.584 34.4596 171.568 34.4596C171.09 34.4596 170.634 34.501 170.198 34.5841C170.094 34.1277 169.959 33.8168 169.793 33.6508C169.666 33.4875 169.42 33.395 169.055 33.3745L168.89 33.3703C167.458 33.3703 166.099 33.827 164.812 34.7401L164.577 34.9109C163.42 35.7828 162.482 36.9194 161.762 38.3201L161.622 38.5975C161.007 39.8657 160.674 41.2022 160.619 42.6067C160.215 42.9269 159.798 43.19 159.369 43.3944C158.518 43.7887 157.491 43.986 156.287 43.986V41.8263C157.259 41.8263 157.959 41.6666 158.456 41.4372C158.49 41.4209 158.523 41.4013 158.557 41.3835C158.744 39.9699 159.174 38.612 159.847 37.3215C160.703 35.66 161.843 34.2671 163.277 33.1868L163.568 32.9749C165.18 31.8328 166.967 31.2107 168.89 31.2107C169.419 31.2107 170.576 31.28 171.383 32.1903C171.417 32.2268 171.45 32.2635 171.482 32.3011C171.511 32.3008 171.539 32.3 171.568 32.3C172.268 32.3 173.181 32.4137 173.967 32.9749C174.018 33.0119 174.069 33.0497 174.117 33.0888C174.279 31.9505 174.485 30.7854 174.737 29.5942C175.436 26.2747 176.47 23.3718 177.875 20.9304L177.878 20.9251C179.357 18.3716 181.468 16.5173 184.323 16.5173C186.023 16.5175 187.424 17.3106 188.379 18.6632C189.295 19.9392 189.658 21.4782 189.658 23.0974C189.658 25.078 189.281 27.0305 188.549 28.9435C188.109 30.0929 187.509 31.2453 186.764 32.4023C186.948 32.5223 187.129 32.6515 187.304 32.7914H187.305C188.372 33.6282 189.167 34.703 189.694 35.9644H189.695V35.9654C189.701 35.9775 189.706 35.9892 189.711 36.0013H189.71C190.021 36.7248 190.236 37.4772 190.362 38.2537C190.567 37.8775 190.781 37.4507 190.999 36.9672L191.007 36.9461L191.017 36.9261C191.396 36.1275 191.895 35.0218 192.513 33.5992C192.887 32.7359 193.503 32.0194 194.353 31.546C195.173 31.0897 196.078 30.9302 196.953 30.9302C197.466 30.9302 198.164 30.9562 198.795 31.1738L199.06 31.2793L199.206 31.351C199.551 31.5307 199.917 31.8077 200.204 32.2251C200.54 32.7146 200.669 33.2531 200.669 33.7436C200.669 34.2199 200.535 34.6878 200.448 34.97C200.327 35.3645 200.165 35.7443 199.973 36.1099L199.974 36.111C199.748 36.5626 199.673 36.8348 199.65 36.9619C199.653 36.9688 199.657 36.976 199.662 36.9841C199.779 37.1711 199.954 37.421 200.201 37.7391L200.495 38.1071L200.517 38.1345L200.538 38.163C201.238 39.0824 201.812 39.9323 202.22 40.697H202.219C202.745 41.6241 203.003 42.6404 203.003 43.7055C203.003 44.9281 202.709 46.0952 202.142 47.1811L202.143 47.1821C202.141 47.1857 202.138 47.1892 202.136 47.1927C202.135 47.1956 202.134 47.1993 202.132 47.2022L202.131 47.2011C201.566 48.2943 200.755 49.1914 199.726 49.868C198.621 50.5941 197.372 50.9393 196.05 50.9393C194.664 50.9393 193.26 50.6202 192.154 49.6718L192.139 49.6592L192.125 49.6465C191.671 49.243 191.283 48.767 191.007 48.224C190.571 48.4209 190.082 48.5424 189.544 48.5424C188.795 48.5424 188.062 48.3039 187.46 47.8011C187.09 48.177 186.69 48.5215 186.256 48.8293L186.243 48.8388L186.23 48.8472C184.897 49.764 183.405 50.2539 181.8 50.2539C179.767 50.2538 177.989 49.6363 176.637 48.3569C176.484 48.4822 176.331 48.6053 176.175 48.7238C174.973 49.6385 173.601 50.2538 172.097 50.2539C170.889 50.2539 169.793 49.838 168.864 49.1077L168.83 49.0813L168.797 49.0539C168.76 49.0219 168.725 48.9865 168.689 48.9537C167.608 49.7758 166.326 50.2539 164.843 50.2539C163.381 50.2538 162.057 49.819 160.972 48.9389C160.832 49.0202 160.692 49.0974 160.55 49.1699C159.093 49.9262 157.426 50.2539 155.633 50.2539C154.374 50.2539 153.169 50.0971 152.033 49.7614C151.023 49.4629 149.837 49.0277 148.49 48.4718L148.469 48.4634L148.447 48.4539C147.861 48.1969 147.29 47.9665 146.733 47.7611C146.241 48.3303 145.675 48.8222 145.027 49.2163C143.85 49.9316 142.525 50.2538 141.127 50.2539C139.659 50.2539 138.226 49.9264 137.053 49.0381L137.044 49.0317C135.848 48.1167 135.139 46.8174 135.139 45.2619C135.139 43.5232 135.974 42.1305 137.278 41.1462L137.545 40.9553C138.565 40.2462 139.746 39.8403 141.02 39.6625L141.462 32.5215C141.597 30.2784 142.008 28.2818 142.778 26.6131C143.526 24.992 144.571 23.5903 145.906 22.431C147.069 21.4203 148.395 20.6626 149.866 20.1596C151.335 19.6366 152.879 19.3814 154.482 19.3814C157.088 19.3814 159.422 20.0628 161.149 21.7308C162.825 23.3492 163.615 25.4503 163.615 27.8289C163.615 29.3339 163.346 30.7721 162.639 31.9932L162.627 32.0142C161.829 33.3549 160.533 34.2222 158.871 34.2224C157.971 34.2224 156.974 34.0129 156.139 33.3345L156.109 33.3092L156.079 33.2839C155.195 32.51 154.843 31.4651 154.843 30.4441C154.843 30.0537 154.917 29.5438 154.997 29.0616L155.006 29.0131L155.016 28.9646C155.118 28.4905 155.155 28.1274 155.155 27.8606C155.155 27.4431 155.047 27.3705 155.04 27.3639L155.009 27.3333L154.985 27.308C154.943 27.2813 154.752 27.1867 154.233 27.1867C152.929 27.1868 152.177 27.588 151.663 28.2096L151.657 28.217L151.651 28.2244C151.062 28.9245 150.499 30.2849 150.248 32.6638L149.533 39.7205L149.532 39.7268C149.509 39.9469 149.483 40.1623 149.457 40.3732C150.375 40.5709 151.385 40.806 152.484 41.0808C153.636 41.3688 154.489 41.5665 155.06 41.6808C155.586 41.7859 155.99 41.8263 156.287 41.8263V43.986L155.916 43.9744C155.659 43.9588 155.384 43.9272 155.091 43.8805L154.638 43.7993C154.326 43.737 153.947 43.6532 153.501 43.5494L151.96 43.1761C149.968 42.6781 148.308 42.3151 146.98 42.0868C147.104 41.542 147.211 40.9212 147.3 40.2246L147.384 39.5033L148.1 32.436C148.353 30.0429 148.925 28.2515 149.816 27.0623L149.999 26.8335C150.995 25.6298 152.406 25.0271 154.233 25.0271C155.27 25.0271 156.039 25.2865 156.537 25.8054C157.056 26.3034 157.315 26.989 157.315 27.8606L157.303 28.2149C157.28 28.5805 157.221 28.9814 157.127 29.417L157.035 30.0476C157.014 30.2186 157.003 30.3508 157.003 30.4441C157.003 30.9629 157.17 31.3673 157.502 31.6578C157.792 31.894 158.178 32.027 158.659 32.0564L158.871 32.0627C159.63 32.0626 160.233 31.7251 160.682 31.0504L160.77 30.9112C161.169 30.2212 161.394 29.3483 161.444 28.2929L161.455 27.8289ZM123.628 21.7592C123.898 21.7593 124.105 21.9352 124.25 22.2875C124.395 22.6404 124.468 23.1493 124.468 23.8134C124.468 25.266 124.043 26.8848 123.193 28.6694L122.87 29.3327C122.094 30.8648 121.142 32.2936 120.016 33.6192C120.286 31.4816 120.629 29.51 121.044 27.7045C121.48 25.8785 121.926 24.4363 122.383 23.3779C122.839 22.2987 123.254 21.7592 123.628 21.7592ZM184.436 40.755C184.381 41.9671 184.135 42.9092 183.7 43.581C183.222 44.3488 182.63 44.7325 181.925 44.7325C181.302 44.7324 180.783 44.4523 180.368 43.8921C179.953 43.311 179.746 42.3976 179.746 41.1525C179.746 39.81 179.965 38.7686 180.403 38.028L180.493 37.8846C180.991 37.1376 181.604 36.7638 182.33 36.7637C182.911 36.7637 183.409 37.0538 183.824 37.6347C184.239 38.2158 184.447 39.0779 184.447 40.2193L184.436 40.755Z" fill="black"/>
<path d="M17.4936 0.50201L17.5215 0.888749C17.5346 1.06967 17.4936 1.2254 17.4697 1.30539C17.4412 1.40111 17.4039 1.49336 17.3684 1.57302C17.2971 1.7329 17.205 1.90412 17.119 2.05648C17.0316 2.21124 16.9392 2.3661 16.8652 2.49086C16.784 2.62784 16.736 2.7102 16.7148 2.75178C15.6037 4.93123 14.5392 7.48768 14.1654 10.0042C13.7932 12.5102 14.1147 14.8975 15.6713 16.8595C15.9137 17.1651 16.1637 17.4267 16.4469 17.6995C16.7502 17.5472 17.0624 17.4051 17.2278 17.3267C18.1725 16.8791 19.0484 16.5477 19.9368 16.3152C19.9221 16.3091 19.9076 16.3032 19.8933 16.2971C19.795 16.2549 19.6793 16.1998 19.5724 16.13C19.5035 16.085 19.2726 15.9331 19.1611 15.6445L19.0199 15.2792L19.2156 14.9401C19.4655 14.5071 19.9265 14.3804 20.0343 14.3469C22.2478 13.66 24.5956 13.6274 26.8191 14.2921C26.8077 14.2631 26.7966 14.2323 26.7875 14.1997L26.6863 13.8376L27.0879 13.2358L27.3206 13.141C27.5389 13.0521 27.7646 13.0372 27.917 13.0358C28.0857 13.0342 28.2579 13.0497 28.4115 13.07C28.7187 13.1105 29.0193 13.1796 29.2006 13.2289C30.8199 13.6695 32.28 14.4406 33.3841 15.7043C33.4614 15.5689 33.5765 15.3781 33.6909 15.2362C33.7924 15.1102 33.9654 14.9232 34.2175 14.8077C34.499 14.6788 34.8377 14.6606 35.1587 14.816L35.2227 14.8494L35.3931 14.945L35.5018 15.1073C35.6547 15.3354 35.7273 15.5969 35.7677 15.7962C35.808 15.9956 35.8293 16.2056 35.8409 16.4021C37.3585 16.0934 39.1117 16.1604 40.4557 16.6007C40.7347 16.6921 41.2821 16.8745 41.7988 17.1008C42.056 17.2134 42.3275 17.3463 42.5627 17.495C42.7679 17.6248 43.0683 17.8405 43.2388 18.1582L43.4022 18.4624L43.2983 18.7918L43.2798 18.8501L43.1496 19.2623L42.8569 19.3507C43.896 20.0131 44.7988 20.8404 45.6208 21.7736C46.138 21.6511 46.5155 21.5754 46.9836 21.3704C49.4491 20.2914 50.6101 18.4194 51.032 16.2026C51.4492 14.01 51.1352 11.4897 50.5575 9.14201L50.5009 8.91547C50.4583 8.74837 50.3022 8.30875 50.1298 7.77683C50.0509 7.53338 49.9719 7.27906 49.9173 7.06715C49.8905 6.96307 49.8646 6.84998 49.8491 6.74436C49.8414 6.69209 49.8335 6.6237 49.8329 6.54931C49.8325 6.49396 49.8335 6.3453 49.9005 6.18112L50.0735 5.75744L50.5248 5.68278C50.7676 5.64264 50.979 5.69353 51.1169 5.74306C51.2433 5.78848 51.3566 5.85011 51.451 5.91524L51.4903 5.94338L51.4908 5.9437C54.2198 7.96771 56.5441 11.177 57.7284 14.6657C58.9132 18.1561 58.9875 22.0313 57.0393 25.3005C56.137 26.8145 54.6655 28.088 53.079 29.066C51.8497 29.8239 50.5162 30.426 49.2524 30.8354C49.4796 31.1488 49.7249 31.4583 49.9744 31.7579L50.0909 31.8939C50.2069 32.0263 50.3243 32.1525 50.4706 32.3186C50.6496 32.5216 50.8458 32.7569 51.0182 33.0284L51.2347 33.3693L51.0721 33.8142L50.9757 34.0775L50.7383 34.2265C50.3626 34.4622 49.9197 34.4789 49.6054 34.4603C49.3931 34.4477 49.1732 34.4138 48.9577 34.3685C49.0633 34.6728 49.1422 34.9844 49.1653 35.2734C49.1843 35.5124 49.1751 35.8444 49.0097 36.1524C48.8114 36.5217 48.456 36.7332 48.0535 36.7652C47.9976 36.7696 47.9417 36.7703 47.8861 36.7682C47.9003 36.9374 47.8969 37.108 47.8663 37.272C47.8237 37.4997 47.7124 37.796 47.4365 38.0146C47.3459 38.0864 47.2504 38.1397 47.1534 38.1778C47.4818 38.671 47.8595 39.1125 48.3718 39.5801L48.4732 39.6714L48.4735 39.6717C48.7198 39.891 49.1826 40.284 49.5829 40.7098C49.7852 40.925 49.9913 41.1688 50.1579 41.4264C50.3187 41.6749 50.4807 41.9935 50.5258 42.3516L50.5372 42.4475C50.7578 44.4684 49.954 46.8387 49.0143 48.4502L49.0094 48.4587L49.0043 48.4668C48.5677 49.1762 47.9546 49.7686 47.1545 50.083C46.6383 52.5756 44.3725 53.8757 42.3483 54.4842C42.3195 54.6401 42.3 54.7826 42.2951 54.9202C42.2862 55.1668 42.3281 55.3345 42.4158 55.4698L42.4299 55.4884C42.4439 55.5065 42.459 55.5255 42.4837 55.5563C42.5255 55.6084 42.5971 55.6975 42.661 55.7973C42.7528 55.9404 43.0646 56.4666 42.7156 57.0216L42.5573 57.2732L42.2746 57.3647C41.967 57.4642 41.6729 57.42 41.509 57.3863C41.3343 57.3504 41.1573 57.2909 41.0811 57.2672L41.08 57.2667C40.749 57.1629 40.4554 57.0242 40.1932 56.8582C39.9154 59.6895 38.5242 62.0375 36.0569 63.8902C35.9 64.008 35.6064 64.216 35.2898 64.3914C35.1322 64.4787 34.9486 64.5694 34.7605 64.6349C34.5936 64.693 34.3219 64.7684 34.0284 64.7223L33.6869 64.6688L33.5141 64.4246C32.8548 65.2159 32.057 65.9184 31.0664 66.4669L31.0656 66.4674C30.975 66.5174 30.8122 66.6064 30.6266 66.6669C30.4453 66.726 30.1439 66.7913 29.8121 66.6835L29.344 66.5315L29.2881 66.2129C28.2064 66.8475 27.0006 67.3066 25.7129 67.4405C25.5627 67.4563 25.35 67.4624 25.1375 67.4409C25.0304 67.43 24.9028 67.41 24.7737 67.3716C24.6548 67.3363 24.472 67.2673 24.3073 67.1222L23.9804 66.8341L24.0366 66.4021C24.037 66.3994 24.0373 66.3964 24.0379 66.3918C24.0384 66.3877 24.0393 66.3814 24.0401 66.375C24.0418 66.3626 24.0446 66.3408 24.0489 66.3158C24.0577 66.2656 24.0762 66.1773 24.1217 66.0771C24.2267 65.8457 24.3973 65.7161 24.5119 65.6458L24.5124 65.6455C24.5561 65.6187 24.5989 65.5913 24.6411 65.5638C24.6086 65.5809 24.5756 65.5977 24.542 65.6133C24.3797 65.689 24.1436 65.7758 23.8742 65.7732L23.8616 65.773L23.8491 65.7726C23.6501 65.7645 23.4524 65.6968 23.2894 65.5834C23.1271 65.4706 22.881 65.2215 22.8711 64.8221C22.8461 63.7955 22.9099 63.1717 22.76 62.3622L22.7271 62.1977C22.4165 60.7515 21.6397 59.5611 20.6537 58.3887C20.5649 58.701 20.4581 59.0172 20.3296 59.3249C20.0187 60.0694 19.553 60.8366 18.8504 61.3505L17.9941 61.9769L17.6055 60.9899C17.5202 60.7733 17.4631 60.5305 17.4215 60.3376C17.3737 60.1163 17.3475 59.9696 17.3113 59.8199L17.2693 59.6589C17.168 59.2843 17.0446 58.9159 16.8998 58.5561L16.8993 58.5548C16.566 57.7229 16.1918 57.0452 15.7775 56.1524C15.6188 55.8105 15.4675 55.4745 15.3234 55.141C15.2638 55.1997 15.2035 55.2428 15.1514 55.2732C15.0764 55.3169 15.0055 55.3421 15.0013 55.3437C14.9872 55.349 14.9898 55.348 14.9969 55.3451L14.7029 55.4745L14.3908 55.357C14.1494 55.2661 13.9588 55.1119 13.8414 55.0067C13.7151 54.8937 13.6033 54.772 13.5363 54.6997L13.5357 54.6989C12.302 53.3648 11.4387 51.7669 10.9108 50.0659C10.9131 50.2458 10.9208 50.4238 10.9353 50.6003L10.9466 50.7252L10.9738 50.9708C10.9858 51.0829 10.9986 51.2153 11.0068 51.3385C11.0152 51.4654 11.0212 51.6131 11.0146 51.7521C11.0113 51.8214 11.0042 51.9056 10.9874 51.9927C10.9731 52.0672 10.9399 52.2099 10.8501 52.3545L10.6688 52.6464L10.3334 52.7214L10.2366 52.7432L10.0203 52.7914L9.80929 52.7241C9.65443 52.6748 9.51006 52.6104 9.36835 52.5126C9.24071 52.4245 9.13914 52.3246 9.06891 52.2552L9.06843 52.2546C7.19722 50.4018 6.00166 47.7473 5.48897 45.2778C5.41084 44.9014 5.3523 44.5365 5.30831 44.1777C5.2863 44.214 5.26396 44.2504 5.2418 44.2872L4.79831 45.0232C4.74209 45.1155 4.56034 45.4282 4.35833 45.7003C4.25901 45.8341 4.12658 45.9973 3.97367 46.1302C3.89711 46.1968 3.78851 46.2796 3.65184 46.3422C3.51586 46.4045 3.29614 46.4716 3.03568 46.4186L2.72392 46.3553L2.53686 46.0981C2.26637 45.7263 2.16058 45.2244 2.10584 44.8794C2.04549 44.499 2.02086 44.1067 2.00304 43.8718C1.88789 42.3539 1.99391 40.9487 2.25069 39.5668C2.15092 39.664 2.05589 39.7558 1.96723 39.8385C1.83405 39.9627 1.70419 40.0788 1.59184 40.1681C1.53706 40.2117 1.47072 40.2616 1.40063 40.3048C1.3657 40.3264 1.31582 40.3551 1.25578 40.3811C1.20699 40.4022 1.09099 40.449 0.938586 40.4559L0.552645 40.4735L0.0699806 39.9387L0.0300117 39.7043C-0.0245626 39.384 0.00603168 39.0393 0.037366 38.8177C0.28456 37.0713 0.98295 35.0857 1.94692 33.2799C2.44495 32.347 3.0237 31.4438 3.66335 30.6355C3.31471 30.6678 2.96248 30.681 2.64478 30.6566C2.4297 30.6401 2.19683 30.6043 1.9789 30.5272C1.76712 30.4522 1.49537 30.3119 1.30294 30.0378L1.09031 29.7348L1.25882 29.0387L1.44715 28.8692C1.64267 28.6933 1.96387 28.4829 2.21615 28.3197C2.50582 28.1325 2.75532 27.9759 2.91369 27.8614C3.76881 27.2429 4.65958 26.5409 5.61383 25.9109C5.31479 25.8477 5.01964 25.7688 4.77129 25.6685C4.59549 25.5975 4.36877 25.4873 4.18502 25.3099C3.98019 25.1122 3.75851 24.7464 3.88302 24.2832L3.97862 23.9275L4.30845 23.7631C4.57534 23.6301 4.87928 23.5247 5.14076 23.4392C5.42684 23.3457 5.65211 23.2789 5.86036 23.2029C6.50363 22.9683 7.14176 22.7324 7.77599 22.4896C6.79903 21.3229 6.0277 19.9943 5.63637 18.5325C4.7008 15.0376 5.70193 11.1214 7.34273 8.16581L7.34417 8.16309L7.34577 8.16054C8.95954 5.3036 11.28 2.90894 14.085 1.20642L14.0868 1.2053C14.7892 0.781363 15.4983 0.367967 16.404 0.108076L16.7807 0L17.4936 0.50201ZM16.6297 0.894824C15.8376 1.12213 15.2094 1.48397 14.5098 1.9062L14.2594 2.06096C11.6865 3.67969 9.55503 5.9137 8.05849 8.5631L7.98495 8.69692C6.45261 11.5202 5.57799 15.1488 6.42712 18.3208C7.27154 21.4752 10.109 24.0455 12.8976 25.582L13.1005 25.6928C11.1368 25.489 9.73497 24.4111 8.31845 23.1585C7.59549 23.4382 6.86907 23.7063 6.14094 23.9719L5.96572 24.033C5.54371 24.1748 5.03888 24.3136 4.67344 24.4957C4.49833 25.1471 7.68276 25.3855 8.19566 25.3812C7.75225 25.5531 7.4057 25.7905 6.99884 26.0201C5.71688 26.7433 4.58477 27.6631 3.39348 28.5247L3.32105 28.5759C2.93739 28.8418 2.25109 29.2468 1.99472 29.4776L1.97298 29.5676C2.43376 30.2239 5.35518 29.5671 6.09698 29.322C3.49237 31.3559 1.30997 35.6669 0.847776 38.9323C0.82024 39.1271 0.803717 39.372 0.836905 39.5668L0.901335 39.6381C1.14748 39.6269 3.44986 37.1539 3.79908 36.8155C3.0608 39.1652 2.6315 41.3357 2.8192 43.8099C2.85716 44.3102 2.9083 45.2171 3.19875 45.6164C3.44026 45.6655 3.84362 45.0208 4.03266 44.708L4.09933 44.5972C4.69391 43.622 5.21282 42.6684 5.98906 41.8219C6.00902 42.955 6.05603 43.9824 6.29043 45.1115C6.77956 47.4675 7.91576 49.9614 9.6443 51.673C9.78785 51.8148 9.86678 51.8833 10.0579 51.9443L10.1548 51.9227C10.2551 51.7612 10.156 51.043 10.1322 50.8072C9.98273 49.3226 10.2855 47.825 10.3804 46.348C10.1335 46.7817 9.62056 47.7754 9.3383 48.1032C9.23874 47.9209 9.14575 47.7384 9.0518 47.5533C7.5938 44.6802 8.39602 41.2021 10.2899 38.7002C9.44831 40.9075 8.98031 43.1169 9.30201 45.4778C9.37447 46.01 9.5022 46.5371 9.60449 47.0682C9.69296 46.5439 9.9635 45.8826 10.1316 45.3607C10.5376 44.1009 11.0252 42.5725 11.6752 41.4113C11.4648 42.3905 11.253 43.3707 11.1551 44.3796C10.8199 47.8383 11.7395 51.5511 14.1366 54.1432L14.2537 54.2676C14.3696 54.3869 14.5064 54.5124 14.6422 54.5753L14.6791 54.591C14.7302 54.5686 14.7588 54.57 14.7632 54.5235C14.8263 53.8614 14.6438 52.9813 14.6239 52.332C14.6054 51.7263 14.5807 51.0124 14.6484 50.4477C15.0641 52.3904 15.6819 54.0017 16.5201 55.8078C16.9043 56.6359 17.3172 57.3967 17.6592 58.2504C17.8386 58.6961 17.9874 59.154 18.1049 59.6197C18.1842 59.9456 18.2494 60.3909 18.3671 60.6899C19.4349 59.9087 19.9331 58.2305 20.1238 56.9687C20.1423 56.8476 20.1536 56.7257 20.1579 56.603C21.633 58.1959 23.0558 59.8301 23.5274 62.0259C23.7407 63.0187 23.6652 63.8095 23.6894 64.8019C23.6913 64.8819 23.7764 64.9364 23.851 64.951L23.882 64.9546C24.2135 64.9578 24.7016 64.5586 24.9834 64.2985L25.0904 64.1971C26.448 62.8776 27.2588 60.3343 27.4035 58.4645C28.0086 61.4931 27.7727 64.6087 24.9399 66.3435C24.8576 66.394 24.8585 66.4297 24.8483 66.5078C25.0035 66.6445 25.4249 66.6477 25.6279 66.6264C27.7249 66.4084 29.637 65.2156 31.1063 63.7903C30.9272 64.2268 30.749 64.6858 30.5038 65.0886C30.386 65.2646 30.0339 65.7267 30.0652 65.9051C30.2589 65.968 30.4905 65.8496 30.6699 65.7506C33.2341 64.3309 34.4049 61.7493 35.3533 59.1708C35.3212 60.6478 35.1681 61.8924 34.4314 63.1955C34.3348 63.3667 34.0639 63.7845 34.1552 63.9137C34.5231 63.9714 35.2847 63.4463 35.5653 63.2355C38.4408 61.0762 39.7158 58.2428 39.3719 54.6634C39.8044 55.53 40.3772 56.1887 41.3248 56.4857C41.5164 56.5454 41.7824 56.6393 41.9833 56.5963L42.0227 56.5858C42.1584 56.3698 41.8496 56.1009 41.7293 55.9157C41.3156 55.278 41.4967 54.516 41.6506 53.8286C43.862 53.2706 46.1827 51.9703 46.4232 49.4491C47.2095 49.2879 47.8221 48.7943 48.2648 48.1052L48.3072 48.0379C49.2127 46.4851 49.9401 44.2496 49.7136 42.4539C49.621 41.718 48.462 40.7573 47.9293 40.2831C46.7128 39.2013 46.1579 38.2469 45.4809 36.7924C47.5864 38.4718 47.2645 36.5038 46.4589 35.2526C49.4655 37.353 48.2279 34.1674 47.2551 32.8928C47.8623 33.2215 49.6308 33.898 50.2735 33.5504L50.3033 33.5331L50.3274 33.4673C50.0857 33.0868 49.7676 32.7673 49.4711 32.4286L49.3458 32.2819C48.8491 31.6857 48.3453 31.0247 47.9609 30.3518C50.8732 29.6473 54.5952 27.6673 56.2585 25.0086L56.3362 24.8813C59.9154 18.875 56.1802 10.4409 51.0032 6.60127C50.9122 6.53389 50.7742 6.47132 50.6583 6.49047L50.6551 6.50055C50.5985 6.7346 51.194 8.31995 51.2942 8.71371C52.5439 13.6263 52.8172 19.7108 47.312 22.1202C46.6302 22.4188 46.0244 22.5045 45.3286 22.6905L45.1916 22.5279C43.7695 20.8599 42.1488 19.573 39.9961 18.9371C40.5957 18.8482 41.1881 18.7617 41.7921 18.7112C41.9941 18.6943 42.2143 18.676 42.4147 18.6268L42.4992 18.6038L42.5176 18.5453C42.261 18.0673 40.754 17.5597 40.2009 17.3785C38.6866 16.8824 36.5406 16.9155 35.0131 17.4819C35.0437 17.0192 35.0785 16.0147 34.8452 15.6012L34.8218 15.5631C34.4515 15.355 34.1516 16.0273 33.9945 16.2894C33.8137 16.592 33.6478 16.9104 33.4695 17.2165C32.4958 15.5663 30.9801 14.5965 29.1626 14.0684L28.9857 14.0187C28.6766 13.9346 27.9301 13.7768 27.6292 13.8993L27.5758 13.9792C27.6222 14.1452 28.2085 14.6494 28.3624 14.8067L28.5311 14.9808C28.9237 15.3915 29.3058 15.8348 29.5587 16.3414C28.7228 15.9305 27.9662 15.5481 27.0802 15.2371L26.9011 15.1759C24.7455 14.4578 22.4457 14.4558 20.277 15.1287L20.2255 15.1453C20.1053 15.1861 19.9862 15.2425 19.9246 15.3492C20.0193 15.5941 21.5008 15.9289 21.8406 16.0427C22.4109 16.2337 22.9117 16.4391 23.4548 16.6947C21.2408 16.7212 19.5881 17.1142 17.5785 18.0664L17.283 18.205C16.9519 18.3603 16.5431 18.556 16.3207 18.7039C15.8753 18.2933 15.4828 17.9226 15.1053 17.4618L15.03 17.3684C11.5988 13.0434 13.6655 6.99215 15.8801 2.58839L15.9856 2.38007C16.1248 2.10705 16.6869 1.25854 16.7051 0.973643V0.947903L16.6297 0.894824Z" fill="white"/>
<path d="M16.5043 0.817505L16.5797 0.870574C16.5982 1.12594 16.0038 2.02086 15.8602 2.30268C13.6071 6.72234 11.419 12.8974 14.9047 17.291C15.3053 17.796 15.7202 18.1886 16.1953 18.6266C16.4918 18.4294 17.1196 18.1471 17.453 17.9891C19.4626 17.0369 21.1153 16.6438 23.3294 16.6173C22.7863 16.3617 22.2855 16.1564 21.7152 15.9654C21.3753 15.8517 19.8939 15.5168 19.7992 15.2719C19.8696 15.15 20.0151 15.0937 20.1515 15.0514C22.3202 14.3784 24.6201 14.3804 26.7757 15.0985C27.7402 15.4198 28.5417 15.8258 29.4334 16.2641C29.1443 15.6851 28.6865 15.1888 28.237 14.7293C28.0831 14.572 27.4969 14.0679 27.4504 13.9019L27.5039 13.8219C27.8048 13.6994 28.5512 13.8572 28.8604 13.9414C30.7564 14.4573 32.339 15.4356 33.344 17.1391C33.5224 16.833 33.6883 16.5147 33.8691 16.212C34.0262 15.9499 34.326 15.2776 34.6964 15.4857C34.9553 15.8721 34.9193 16.9269 34.8876 17.4045C36.4151 16.838 38.5612 16.8051 40.0755 17.3012C40.6286 17.4825 42.1357 17.9901 42.3923 18.468L42.3738 18.5264C42.1522 18.5934 41.8976 18.6145 41.6668 18.6339C41.0627 18.6843 40.4703 18.7709 39.8707 18.8598C42.0928 19.5162 43.7482 20.8663 45.2032 22.6131C45.8991 22.4272 46.5047 22.3415 47.1865 22.043C52.6919 19.6335 52.4185 13.549 51.1687 8.63632C51.0669 8.2363 50.4541 6.60654 50.533 6.4131C50.6489 6.39394 50.7867 6.45651 50.8777 6.52389C56.0548 10.3635 59.7901 18.7977 56.2107 24.804C54.5882 27.5267 50.794 29.5588 47.8355 30.2745C48.2199 30.9474 48.7237 31.6084 49.2203 32.2047C49.5498 32.5999 49.9258 32.9552 50.2019 33.39L50.1779 33.4557C49.5618 33.8422 47.7465 33.1495 47.1296 32.8156C48.1024 34.0902 49.3402 37.2757 46.3336 35.1753C47.1392 36.4265 47.4611 38.3944 45.3556 36.715C46.0326 38.1696 46.5873 39.1239 47.8038 40.2057C48.3365 40.6799 49.4957 41.6407 49.5883 42.3766C49.8147 44.1723 49.0872 46.4077 48.1818 47.9605C47.7361 48.6848 47.1096 49.2055 46.2979 49.3718C46.0574 51.893 43.7366 53.1933 41.5253 53.7512C41.3714 54.4386 41.1902 55.2006 41.6038 55.8383C41.7241 56.0235 42.0331 56.2925 41.8972 56.5085C41.6928 56.5746 41.4038 56.472 41.1994 56.4083C40.2518 56.1113 39.6791 55.4527 39.2466 54.5861C39.5905 58.1655 38.3155 60.9989 35.4399 63.1582C35.1594 63.369 34.3978 63.8941 34.0298 63.8364C33.9384 63.7073 34.2094 63.2893 34.306 63.1181C35.0427 61.815 35.1958 60.5705 35.2279 59.0934C34.2795 61.6719 33.1087 64.2536 30.5445 65.6734C30.3652 65.7724 30.1335 65.8906 29.9398 65.8277C29.9085 65.6493 30.2605 65.1872 30.3783 65.0112C30.6235 64.6084 30.8017 64.1494 30.9809 63.7129C29.5116 65.1383 27.5995 66.3311 25.5024 66.5492C25.2995 66.5704 24.8782 66.5672 24.723 66.4305C24.7331 66.3524 24.7323 66.3167 24.8146 66.2662C27.6473 64.5314 27.8833 61.4158 27.2781 58.3872C27.1334 60.257 26.3226 62.8003 24.9651 64.1198C24.7188 64.3591 24.1354 64.8809 23.7566 64.8773C23.677 64.8741 23.5663 64.816 23.564 64.7246C23.5398 63.7322 23.6152 62.9413 23.402 61.9485C22.9304 59.7528 21.5077 58.1186 20.0325 56.5257C20.0283 56.6484 20.0169 56.7702 19.9984 56.8913C19.8076 58.1531 19.3095 59.8313 18.2417 60.6126C18.1239 60.3135 18.0589 59.8682 17.9796 59.5424C17.8621 59.0766 17.7132 58.6188 17.5338 58.1731C17.1918 57.3194 16.7789 56.5586 16.3946 55.7305C15.5564 53.9244 14.9388 52.3131 14.523 50.3703C14.4553 50.935 14.4801 51.6489 14.4986 52.2545C14.5185 52.9039 14.701 53.7841 14.6379 54.4463C14.6334 54.4928 14.6049 54.4911 14.5538 54.5136C14.3567 54.4394 14.1535 54.2194 14.0112 54.0659C11.6141 51.4737 10.6946 47.7609 11.0298 44.3022C11.1276 43.2933 11.3394 42.3133 11.5498 41.3341C10.8998 42.4953 10.4122 44.0236 10.0062 45.2834C9.83806 45.8053 9.56762 46.4666 9.47916 46.9909C9.37687 46.4598 9.24913 45.9327 9.17666 45.4004C8.85496 43.0396 9.32284 40.8302 10.1644 38.6229C8.27055 41.1248 7.46838 44.6028 8.92638 47.4759C9.02034 47.6611 9.11333 47.8435 9.2129 48.0258C9.49516 47.698 10.0081 46.7043 10.255 46.2706C10.1601 47.7477 9.85734 49.2452 10.0068 50.7298C10.0306 50.9655 10.1297 51.6838 10.0293 51.8453L9.93254 51.867C9.74138 51.806 9.66246 51.7375 9.51889 51.5956C7.79033 49.8841 6.65415 47.3901 6.16502 45.0341C5.93062 43.905 5.88356 42.8776 5.8636 41.7445C5.08736 42.5911 4.56857 43.5446 3.97399 44.5198C3.83666 44.7451 3.34934 45.5952 3.07333 45.5391C2.78285 45.1399 2.73179 44.2328 2.69383 43.7326C2.50612 41.2583 2.93541 39.0878 3.67369 36.7382C3.32449 37.0765 1.02211 39.5496 0.775961 39.5608L0.711549 39.4895C0.678361 39.2947 0.694915 39.0498 0.722452 38.855C1.18464 35.5896 3.36694 31.2787 5.97154 29.2447C5.22973 29.4898 2.30828 30.1466 1.84757 29.4902L1.86933 29.4003C2.14278 29.1542 2.90535 28.7097 3.26809 28.4473C4.45939 27.5857 5.5914 26.666 6.87336 25.9428C7.28028 25.7132 7.62687 25.4759 8.07034 25.304C7.55769 25.3082 4.37297 25.0699 4.54809 24.4184C4.96575 24.2103 5.56542 24.0587 6.01551 23.8945C6.74365 23.6289 7.47015 23.361 8.19311 23.0812C9.60963 24.3338 11.0114 25.4117 12.975 25.6154L12.7721 25.5047C9.98352 23.9682 7.14612 21.3979 6.3017 18.2435C5.43908 15.0211 6.35541 11.3275 7.93302 8.48573C9.47784 5.75086 11.6993 3.45862 14.3844 1.82887C15.084 1.40664 15.7122 1.04481 16.5043 0.817505Z" fill="#000100"/>
<path d="M43.5537 33.4256C43.5934 33.5086 43.7433 34.5834 43.7894 34.7936C44.0868 36.1509 44.5426 37.5472 45.2191 38.7646C45.6172 39.488 46.1759 40.0464 46.7114 40.6528C47.2309 41.2408 48.2233 41.6942 48.5312 42.3668C48.9424 43.2658 47.5932 43.7408 47.1094 44.2719C46.725 44.694 46.5407 44.9829 46.2901 45.5201C46.3258 44.5537 46.5443 44.2037 46.9828 43.3668C46.7543 43.4097 46.1719 43.5941 45.919 43.6779C45.0283 43.9721 44.2195 43.5436 43.3481 43.2169C43.4471 43.4265 43.5573 43.7352 43.617 43.9508C43.7782 44.532 43.6984 44.8735 43.4014 45.3653C42.3104 47.1727 42.4001 47.1859 40.3427 47.6837C39.2797 47.941 38.0392 48.2092 37.0151 47.626C36.4547 47.3069 36.1493 46.7883 36.0006 46.1838C36.1388 45.7525 36.4078 45.3285 36.6275 44.9264C35.316 45.6094 35.0197 46.2488 34.4814 47.5679C34.3724 46.7831 34.7692 45.0407 35.1296 44.3124C35.2626 44.0434 35.8046 43.1768 35.7905 43.0133C35.6755 43.0009 35.6771 43.0329 35.5516 43.1143C34.8618 43.5712 34.384 44.0462 33.8742 44.6863C34.1323 43.6322 34.574 42.6317 35.1797 41.7311C34.3732 42.115 33.8425 42.6008 33.1896 43.1889C33.2168 41.6597 33.7223 40.5294 34.659 39.3429C34.9247 39.0066 35.3933 38.3946 35.5889 38.029L35.6138 37.9817C35.7669 38.5325 35.8342 39.4115 35.8715 39.9883C36.5521 38.9918 36.7329 37.7368 36.3613 36.589C36.0054 35.5092 35.7689 35.5038 35.6334 34.225C36.3597 35.3367 36.803 35.9116 38.1265 36.3548C37.6043 35.224 37.4984 34.8113 37.6099 33.5862C38.7987 35.4413 40.289 36.7324 42.4579 37.31C42.0634 36.3776 41.7063 35.3658 41.6414 34.3546C42.2017 35.234 42.5797 35.6222 43.423 36.1833C43.2703 35.163 43.2635 34.4102 43.5537 33.4256Z" fill="white"/>
<path d="M39.0264 41.9521C39.8325 41.868 40.8714 42.2359 41.5248 42.6957C42.2908 43.2348 43.2475 44.1659 42.8315 45.2C42.815 45.2409 42.7313 45.2281 42.692 45.2293C42.2567 45.0417 41.5781 44.729 41.1131 44.8425C39.3715 45.2666 38.723 43.731 38.8316 42.2832C38.8445 42.1137 38.8845 42.0583 39.0264 41.9521Z" fill="#000100"/>
<path d="M39.8725 39.8711C41.4149 39.7869 42.8455 40.8187 44.2163 41.3714C45.0596 41.7109 45.6248 41.6536 46.4345 41.2892C45.7226 42.068 45.2408 42.3029 44.179 42.1454C43.5221 41.9847 43.0174 41.7458 42.4186 41.4408C40.5828 40.506 39.4817 40.2038 37.4768 40.8399C38.3534 40.2226 38.7827 39.9637 39.8725 39.8711Z" fill="#000100"/>
<path d="M33.8239 18.9463C35.8112 18.4946 36.7504 18.3916 38.7645 18.9131C38.2086 19.0003 37.5729 19.1078 37.0345 19.2627C39.8556 19.7964 42.19 21.405 44.1292 23.462C44.4506 23.803 44.7544 24.1706 45.0763 24.5039C44.3648 24.2259 43.934 24.1032 43.2473 23.7154C42.8064 23.4662 42.2296 23.0231 41.8232 22.8196C42.913 23.9459 43.5608 24.9082 44.3324 26.2882C45.1869 27.817 46.1072 29.7907 47.3021 31.0937C46.1625 30.6546 45.3797 30.1747 44.5143 29.2864C44.4811 31.1523 44.5817 32.1392 45.407 33.8586C44.0698 32.6419 43.6971 31.6078 43.3716 29.9C43.0293 31.2532 42.9179 31.9108 42.2573 33.1713C42.6858 29.8576 42.0769 27.0932 39.5862 24.7042C40.773 27.1931 40.9334 27.763 41.0147 30.506C40.7787 29.7191 40.5121 28.8663 40.1514 28.127C39.4022 26.5923 38.0546 25.1121 36.6995 24.0807C36.0305 23.5714 35.3679 23.1963 34.6765 22.6494C35.8758 24.6785 36.3078 26.1559 36.1976 28.5515C36.168 29.2 36.1118 29.9296 35.9483 30.5603C35.9387 30.5981 35.9283 30.6358 35.9178 30.6733C34.9807 26.6558 31.9911 26.4078 30.8279 22.9823C30.2054 24.655 30.2577 25.7814 30.9849 27.456C29.6433 26.4433 28.3354 25.4357 27.6361 23.8453C26.9977 22.3933 27.1128 21.4209 27.9645 20.124C27.6602 22.2398 28.2155 23.2536 29.5014 24.8631C29.0093 22.9299 29.5055 21.5072 30.6322 19.9124C31.5051 21.0886 32.1114 21.7877 33.4848 22.4524C33.2596 21.9411 33.088 21.3942 32.9225 20.8603C35.3543 21.7176 36.5544 22.3917 38.4298 24.1076C37.4835 22.4064 36.4586 21.3318 34.7579 20.3464C34.5013 20.1976 34.1326 19.9833 33.8584 19.8915L33.87 19.8673C34.1851 19.8846 34.4705 19.9878 34.7739 20.0481C36.2072 20.3332 37.9977 20.9558 39.2198 21.7797L39.3649 21.6962C37.9893 20.1462 35.8822 19.1405 33.8239 18.9463Z" fill="white"/>
<path d="M39.3653 21.6959L39.7878 22.1574L39.2201 21.7795L39.3653 21.6959Z" fill="#000100"/>
<path d="M14.5605 2.81763C14.5625 2.82749 14.5807 2.89515 14.5772 2.90132C12.7914 6.086 11.4571 9.79567 11.9758 13.497C12.1756 14.9225 12.8529 16.7223 13.7423 17.8715C15.4883 20.1276 18.3168 21.4361 21.1038 21.7943C21.8741 21.8933 22.6929 21.8999 23.4656 21.8969C22.3616 22.5427 21.7246 22.6272 20.4746 22.6161C21.5722 23.0294 22.8633 22.9991 24.0043 22.8268C22.6851 23.4284 21.9716 23.6168 20.5515 23.551C22.0022 24.1327 22.9249 23.9376 24.3399 23.9177C21.6436 24.7499 19.7144 24.4062 17.1189 23.5032C17.019 23.4661 16.9197 23.4275 16.8211 23.3874C13.94 22.2152 11.6536 20.3598 10.4181 17.4499C10.5795 18.6292 11.0919 19.728 11.6455 20.7622C9.69107 18.8597 8.90733 16.2744 9.01291 13.6045C9.1142 11.0425 9.92707 9.05896 11.1922 6.86881C10.2026 7.75659 9.38556 8.92961 8.79895 10.1127C8.60471 10.5044 8.45248 10.9072 8.24585 11.2905L8.25647 11.2398C9.09528 7.36699 11.3044 4.90597 14.5605 2.81763Z" fill="white"/>
<path d="M52.4775 9.15912C54.7342 11.6564 56.3307 15.0381 56.2397 18.4759C56.1226 22.885 52.8736 25.9192 48.7972 27.0821L48.6452 26.9982C49.974 26.5236 50.8378 25.9449 51.9561 25.0869C51.5236 25.2134 51.1191 25.5074 50.7063 25.6924C49.5419 26.214 48.2993 26.5407 47.0311 26.6786C46.769 26.7071 46.4487 26.7393 46.1958 26.7866C45.9549 26.4046 45.708 26.0265 45.4551 25.6525C45.88 25.815 46.8764 26.1579 47.3798 26.0803C47.464 26.0673 47.4796 25.9819 47.4977 25.9204C47.4091 25.5204 46.6443 24.8658 46.3573 24.4848C46.1353 24.1904 46.0026 24.0451 45.7934 23.7001C48.5491 23.1181 50.2762 21.9333 51.8931 19.5958C53.5606 17.1858 53.5409 13.9042 52.9429 11.1078C52.7982 10.4558 52.6435 9.80613 52.4775 9.15912Z" fill="white"/>
<path d="M54.7765 17.0692L54.8178 17.1027C54.9789 17.422 54.9922 19.0259 54.9745 19.3969C54.8795 21.3643 53.5588 22.4656 52.1631 23.6731C52.1223 23.7139 52.1487 23.6957 52.0778 23.7174C52.0902 23.6386 52.5956 22.8958 52.687 22.745C54.033 20.5193 54.5553 19.6772 54.7765 17.0692Z" fill="#000100"/>
<path d="M15.3865 25.8846C17.3748 25.9056 19.2082 26.7766 21.0071 27.5447C19.4821 27.576 17.9326 27.154 16.443 27.1626C14.5501 27.1736 12.985 27.7953 11.6701 29.1475C12.4032 29.1462 13.6925 29.2366 14.3768 29.461C14.0536 29.7588 13.4768 30.0984 13.0893 30.3472C13.8672 30.5021 14.5235 30.6264 15.2797 30.8552C15.0631 31.0008 14.9159 31.125 14.7156 31.2934C15.1942 31.5464 15.5861 31.6436 16.0985 31.8049C16.3127 32.0712 16.3757 32.1822 16.6563 32.3746C16.7623 32.4259 16.8699 32.474 16.9788 32.5188C17.9611 32.9155 19.05 32.4806 19.9694 32.0997C17.0891 34.9035 13.6939 32.7732 11.1386 30.7409C11.5299 30.5577 11.9915 30.304 12.3819 30.1028C11.7182 30.0203 10.7841 29.9974 10.1929 29.6948C9.69519 29.44 10.8355 28.2411 11.0735 27.9575C12.2452 26.5611 13.5769 25.992 15.3865 25.8846Z" fill="white"/>
<path d="M23.6855 31.9489L23.727 32.0184C23.5333 33.4737 23.5031 34.5144 23.7066 35.9683C23.8284 36.839 23.6207 37.9288 23.3878 38.7842C24.7305 37.5593 25.1806 36.5492 25.6536 34.8449C25.733 35.2617 25.8047 35.8256 25.7573 36.2437C25.5647 37.9445 24.912 38.9357 25.4201 40.7034C25.7905 40.3358 26.0684 39.8688 26.4029 39.466C26.764 39.0311 27.144 38.6479 27.5063 38.2102C26.6817 40.2372 26.2118 42.0946 26.5218 44.3012C26.6068 44.906 26.6883 45.3886 26.9059 45.9714C25.8778 44.8707 25.4984 43.9516 25.2343 42.4694C25.1869 41.9676 25.0605 41.3411 24.9603 40.8485C24.3198 42.4882 24.2635 43.3075 24.5195 45.0731C24.3508 44.8387 24.1893 44.6166 24.0412 44.3681C22.8092 42.3002 24.231 40.442 24.7205 38.4812C23.5738 39.486 23.0819 40.256 21.482 40.6645C22.582 39.292 22.8508 37.5565 22.8728 35.8557C22.2453 36.829 21.9494 37.1773 21.0659 37.924C21.3265 37.3328 21.7045 36.6602 21.9315 36.0691C22.4919 34.6103 22.9712 33.3514 23.6855 31.9489Z" fill="white"/>
<path d="M18.9204 34.9664C18.9143 35.0472 18.5525 35.8439 18.4795 36.0087C18.1824 36.6802 18.0489 37.3468 17.815 38.0306C18.4223 37.4165 19.0532 36.8265 19.7066 36.2621C18.569 38.4021 18.4322 41.0941 19.1064 43.3924C19.1993 43.7091 19.3053 44.1396 19.4759 44.4125L19.5299 44.4001C19.6146 43.1463 20.0385 42.0777 20.5992 40.9786C20.4568 42.7487 20.3293 43.7952 20.342 45.6054C20.3801 46.314 20.4383 47.0952 20.4253 47.7991C17.9611 44.9131 17.1845 42.2938 18.3587 38.5613C18.0504 38.8859 16.707 40.7305 16.4022 40.5622C16.3328 40.3433 16.511 39.6996 16.5579 39.4543C16.9067 37.6286 17.6304 36.299 18.9204 34.9664Z" fill="white"/>
<path d="M43.0071 48.7298C43.0319 48.7262 43.0568 48.7234 43.0816 48.7214C43.931 48.6428 44.5418 48.8569 45.1835 49.3916C45.1587 49.4898 45.133 49.5876 45.1062 49.6854C44.7506 50.9672 43.8059 51.6506 42.6908 52.2855C42.965 51.8474 43.0588 51.5813 43.1618 51.0802C42.7738 51.1416 42.2784 51.3316 41.898 51.4706C41.2001 51.7252 40.7636 51.8566 40.0281 51.9484C40.3095 51.7264 40.6113 51.4322 40.8775 51.1849C40.4646 51.2951 40.1592 51.3624 39.7383 51.4394C39.467 51.4454 39.2818 51.4646 39.0108 51.4983C39.1724 51.3752 39.5511 51.1259 39.5656 50.9279C39.372 50.8806 38.8208 50.9476 38.5354 50.9307C38.0917 50.9043 37.8047 50.8542 37.369 50.7792C38.1238 50.6157 38.1755 50.653 38.9439 50.277C37.9543 50.2505 37.1201 50.2197 36.7213 49.1763C38.5639 50.0918 40.9845 48.9515 43.0071 48.7298Z" fill="white"/>
<path d="M7.18213 32.312C7.18245 32.3497 6.65525 33.6951 6.58779 33.8705C6.0858 35.175 6.12937 36.4043 5.96912 37.7532C6.37631 37.3035 6.74391 36.8377 7.16758 36.3876C7.96575 35.5398 8.75301 34.8948 9.67294 34.1931C8.96216 35.3081 8.39251 36.1673 7.58107 37.2233C6.52157 38.5236 5.57266 39.9217 4.50177 41.1722C4.47933 40.3093 4.45111 39.4824 4.53015 38.621C4.74259 36.3063 5.62048 34.0489 7.18213 32.312Z" fill="white"/>
<path d="M30.6649 42.2545C30.7424 42.3511 30.543 43.3548 30.5145 43.5556C30.2268 45.5826 30.6199 46.5782 31.0932 48.4108C31.5704 46.6552 31.6331 45.8932 32.5841 44.2214C32.2556 45.611 32.191 46.9325 32.5521 48.3222C32.7489 48.9852 32.9152 49.4028 33.2122 50.0233C32.4354 49.3732 32.1931 49.1158 31.6808 48.224C31.4528 48.7274 31.3573 49.2718 31.0972 49.7471C29.2481 47.0941 29.2601 45.0827 30.6649 42.2545Z" fill="white"/>
<path d="M26.5695 30.8595C26.8749 30.9597 27.1823 31.0535 27.4916 31.1409C27.5515 32.3165 27.8392 33.1294 29.2002 33.3055C29.9103 33.3973 30.4004 33.0475 30.9293 32.6121C31.5419 33.092 31.7126 33.5071 31.9768 34.2176C32.0143 34.384 32.0725 34.5717 32.1194 34.7378C31.2029 34.4403 30.6727 34.4883 29.738 34.5106C28.931 34.5299 27.963 34.362 27.3799 33.7569C26.5519 32.8977 26.5614 31.9558 26.5695 30.8595Z" fill="white"/>
<path d="M21.9163 46.4965C21.9566 46.5329 21.9769 46.5674 21.9835 46.6251C22.054 47.2404 22.148 47.8557 22.3395 48.4473C22.5884 49.2169 23.1026 49.8514 23.5158 50.5388C23.4574 49.3568 23.449 48.8004 23.7452 47.6432C23.8843 48.7836 23.67 49.0654 24.1574 50.3684C24.4301 51.0462 24.7716 51.597 25.1992 52.185C24.0954 51.7577 23.4198 51.3969 22.6709 50.4169C21.9258 49.4421 21.7144 47.6953 21.9163 46.4965Z" fill="white"/>
<path d="M47.6322 45.2733C48.1012 45.2556 48.2319 45.3169 48.6792 45.4713C48.4299 46.4914 47.6723 47.3459 46.8222 47.9263L46.4298 48.1219C46.251 48.0762 46.055 48.0357 45.9427 47.8894C45.97 47.6606 46.1468 47.4742 46.2169 47.2626C46.4955 46.4188 46.6041 45.4889 47.6322 45.2733Z" fill="white"/>
<path d="M37.3815 26.5322C37.4424 26.5627 37.4448 26.5649 37.4909 26.6142C38.9643 28.1856 38.5122 30.3615 38.4008 32.3111L38.3647 32.3755L38.3182 32.3692C37.4083 30.8222 37.6139 30.3773 37.6079 28.7178C37.6091 27.9833 37.533 27.2508 37.3815 26.5322Z" fill="white"/>
<path d="M21.1401 54.0372C21.1657 54.0541 21.19 54.0693 21.2112 54.0917C22.4959 55.477 23.4826 57.7372 23.6245 59.5843C23.5196 59.5101 23.2401 58.9766 23.1603 58.8267C22.3194 57.2442 21.5553 55.7872 21.1401 54.0372Z" fill="white"/>
<path d="M32.5137 54.2719L32.5634 54.3297C32.5907 54.5497 32.5358 55.0507 32.5097 55.2868C32.3217 56.9627 31.1823 58.4105 29.9037 59.435C30.1216 58.9119 30.3281 58.4862 30.5347 57.9419C30.8305 57.1318 30.8048 56.0901 30.8188 55.2215C31.0885 56.0215 31.2184 56.6516 31.1187 57.493C31.9776 56.2508 32.1717 55.745 32.5137 54.2719Z" fill="white"/>
<path d="M32.032 26.6253C32.4448 26.9303 32.9667 27.4257 33.2921 27.8162C34.499 29.2646 34.6177 30.4763 34.4826 32.25L34.4205 32.2391C34.083 30.5615 33.8733 29.8646 32.9518 28.3836C32.7322 28.0311 32.153 27.008 32.032 26.6253Z" fill="white"/>
<path d="M21.5943 28.5022L21.6306 28.5379C21.6185 28.6616 21.2875 29.1093 21.1883 29.3146C20.9587 29.7901 20.8374 30.1296 20.7113 30.6423C21.0622 30.1438 21.294 29.8435 21.6932 29.3928C21.2729 30.5021 21.1429 30.923 20.912 32.1092C20.8576 32.3221 20.8322 32.5327 20.8011 32.7501C20.5835 32.2127 20.3879 31.7856 20.2628 31.2103C20.0501 31.2469 19.8332 31.2791 19.6198 31.3128C20.1479 30.1332 20.7041 29.4149 21.5943 28.5022Z" fill="white"/>
<path d="M34.4347 57.3234L34.4732 57.392C34.26 58.851 32.5673 61.0323 31.5502 62.1546C31.4581 62.07 31.523 61.8371 31.5577 61.7237C32.0801 60.0154 33.5289 58.8165 34.4347 57.3234Z" fill="white"/>
<path d="M16.5237 45.0059C16.5524 45.0284 16.5973 45.064 16.6006 45.1057C16.6824 46.1162 16.8728 47.1259 17.1695 48.0943C17.3233 48.5961 18.2791 50.5553 17.9677 50.9682C16.5709 49.0282 16.2228 47.3576 16.5237 45.0059Z" fill="white"/>
<path d="M14.1064 39.0818C14.1617 39.2994 14.1037 39.8758 14.0776 40.1035C14.042 40.4093 13.988 40.7123 13.916 41.0118C13.754 41.6984 13.5173 42.413 13.3375 43.0997C13.2664 43.371 12.9849 44.6581 12.8496 44.7647C12.4611 42.6499 13.4169 40.9645 14.1064 39.0818Z" fill="white"/>
<path d="M38.109 55.7561C38.1487 55.93 38.1247 56.4142 38.1207 56.6154C38.0894 58.1242 37.6156 59.0729 36.84 60.3135C37.0032 59.5864 37.0372 58.8897 37.0513 58.1478C37.0308 57.3229 36.8356 56.4719 36.5835 55.6903C37.0873 56.3689 37.3992 57.0704 37.529 57.9021C37.687 57.3065 37.9331 56.2767 38.109 55.7561Z" fill="white"/>
<path d="M28.0491 29.8082C28.7801 29.6866 29.5818 29.8731 30.1831 30.3025C30.6652 30.6469 30.9212 31.0948 31.2075 31.5944L30.7394 31.2459C30.2948 30.9685 29.723 30.6813 29.2124 30.5586C28.3273 30.346 28.1047 30.5021 27.3346 29.9519C27.6033 29.8826 27.7743 29.8499 28.0491 29.8082Z" fill="white"/>
<path d="M24.6604 18.9085C25.0246 18.8846 25.3749 18.8974 25.739 18.9054C25.271 19.0728 24.786 19.2066 24.3238 19.3832C23.6495 19.6408 22.9751 19.9372 22.3114 20.2234L21.5143 20.5246C22.3158 19.6009 23.4427 19.022 24.6604 18.9085Z" fill="white"/>
<path d="M39.3895 30.8245C39.535 31.8531 39.6075 32.4667 39.9699 33.476C40.062 33.732 40.5551 34.9695 40.5807 35.1013L40.5294 35.1004C39.846 34.3253 39.2929 33.5989 39.2179 32.5227C39.1826 32.0111 39.2111 31.3059 39.3895 30.8245Z" fill="white"/>
<path d="M33.1791 37.9987C33.2164 38.1162 33.1699 38.4657 33.1499 38.5996C32.9807 39.7339 31.9933 40.4053 31.0232 40.7724C30.9917 40.663 31.2594 40.4662 31.3514 40.3836C32.1313 39.6826 32.7006 38.925 33.1791 37.9987Z" fill="white"/>
<path d="M28.9692 53.3018C29.1306 53.4457 29.1863 53.7884 29.1978 54.0041C29.2484 54.9532 28.701 55.6342 28.1041 56.296L28.0308 56.3357C28.0265 56.199 28.3533 55.5865 28.426 55.3985C28.7039 54.6815 28.8894 54.0738 28.9692 53.3018Z" fill="white"/>
<path d="M26.6223 24.9405C26.6601 25.045 26.5173 25.7219 26.4837 25.8817C26.3355 26.5888 26.4474 27.0779 26.4571 27.7134L26.4235 27.7194L26.3529 27.5911C25.8671 26.4687 25.7061 25.896 26.6223 24.9405Z" fill="white"/>
<path d="M28.4919 31.147C28.6816 31.086 28.8861 31.1823 28.9597 31.3674C29.0334 31.5525 28.951 31.7631 28.7713 31.849C28.6437 31.91 28.4928 31.8948 28.3799 31.8098C28.2671 31.7247 28.211 31.5838 28.2345 31.4443C28.2581 31.305 28.3574 31.1903 28.4919 31.147Z" fill="white"/>
<path d="M48.7976 27.0823C48.627 27.1286 48.3606 27.2125 48.1978 27.1545C48.288 27.0687 48.5131 27.0316 48.6455 26.9984L48.7976 27.0823Z" fill="#BCBCBB"/>
</svg>
