<svg width="1571" height="651" viewBox="0 0 1571 651" fill="none" xmlns="http://www.w3.org/2000/svg">
<rect width="1571" height="651" fill="black"/>
<path d="M815.2 369.4C815.8 369.2 816.7 369.1 817.9 369.1C821.3 369.1 823 371.3 823 375.7C823 378.1 822.45 380.15 821.35 381.85C820.35 383.45 818.75 384.45 816.55 384.85C807.45 386.55 798.5 388.45 789.7 390.55L789.25 394.15C786.45 413.85 780.85 428.4 772.45 437.8C764.15 447.3 753.75 452.05 741.25 452.05C732.95 452.05 726.5 450 721.9 445.9C717.4 441.9 715.15 436.75 715.15 430.45C715.15 419.95 719.85 410.6 729.25 402.4C738.65 394.2 752.9 386.95 772 380.65L775 359.5C775.4 357.1 775.9 353.9 776.5 349.9C771.8 362.3 765.8 371.55 758.5 377.65C751.2 383.75 743.05 386.8 734.05 386.8C725.45 386.8 718.9 384.2 714.4 379C709.9 373.7 707.65 366.9 707.65 358.6C707.65 354.9 708.05 350.85 708.85 346.45C709.65 341.95 710.9 335.9 712.6 328.3C714.1 321.4 715.2 315.9 715.9 311.8C716.7 307.7 717.1 304.05 717.1 300.85C717.1 296.05 715.25 293.65 711.55 293.65C708.65 293.65 705.2 295.1 701.2 298C697.3 300.8 693.15 305.15 688.75 311.05C687.35 312.95 685.8 313.9 684.1 313.9C682.7 313.9 681.45 313.25 680.35 311.95C679.35 310.55 678.85 309 678.85 307.3C678.85 304.2 680.25 300.7 683.05 296.8C693.25 282.8 705.2 275.8 718.9 275.8C725 275.8 729.75 277.65 733.15 281.35C736.65 285.05 738.4 290.5 738.4 297.7C738.4 302.9 737.9 308.25 736.9 313.75C736 319.15 734.6 326.05 732.7 334.45C731.5 339.45 730.6 343.5 730 346.6C729.4 349.6 729.1 352.1 729.1 354.1C729.1 359.2 730 362.85 731.8 365.05C733.6 367.25 736.75 368.35 741.25 368.35C746.65 368.35 752.15 365.4 757.75 359.5C763.45 353.5 768.55 344.45 773.05 332.35C777.65 320.25 780.95 305.45 782.95 287.95C783.45 283.55 784.6 280.45 786.4 278.65C788.2 276.75 790.8 275.8 794.2 275.8C801.2 275.8 804.7 279.3 804.7 286.3C804.7 287.5 804.65 288.45 804.55 289.15C802.45 304.05 800.5 317.5 798.7 329.5C797.7 336.7 796.6 344.1 795.4 351.7C794.3 359.3 793.2 367 792.1 374.8C799.4 372.8 807.1 371 815.2 369.4ZM769.75 396.4C745.55 404.8 733.45 415 733.45 427C733.45 429.8 734.3 432.1 736 433.9C737.8 435.8 740.3 436.75 743.5 436.75C757.4 436.75 766.1 423.65 769.6 397.45L769.75 396.4ZM830.773 403.75C824.573 403.75 819.623 401.5 815.923 397C812.223 392.5 810.373 386.6 810.373 379.3C810.373 371.3 812.223 363.75 815.923 356.65C819.623 349.45 824.523 343.7 830.623 339.4C836.823 335 843.373 332.8 850.273 332.8C852.473 332.8 853.923 333.25 854.623 334.15C855.423 334.95 856.073 336.45 856.573 338.65C858.673 338.25 860.873 338.05 863.173 338.05C868.073 338.05 870.523 339.8 870.523 343.3C870.523 345.4 869.773 350.4 868.273 358.3C865.973 369.8 864.823 377.8 864.823 382.3C864.823 383.8 865.173 385 865.873 385.9C866.673 386.8 867.673 387.25 868.873 387.25C870.773 387.25 873.073 386.05 875.773 383.65C878.473 381.15 882.123 377.15 886.723 371.65C887.923 370.25 889.273 369.55 890.773 369.55C892.073 369.55 893.073 370.15 893.773 371.35C894.573 372.55 894.973 374.2 894.973 376.3C894.973 380.3 894.023 383.4 892.123 385.6C888.023 390.7 883.673 395 879.073 398.5C874.473 402 870.023 403.75 865.723 403.75C862.423 403.75 859.373 402.65 856.573 400.45C853.873 398.15 851.823 395.05 850.423 391.15C845.223 399.55 838.673 403.75 830.773 403.75ZM836.173 388.6C838.373 388.6 840.473 387.3 842.473 384.7C844.473 382.1 845.923 378.65 846.823 374.35L852.373 346.75C848.173 346.85 844.273 348.45 840.673 351.55C837.173 354.55 834.373 358.55 832.273 363.55C830.173 368.55 829.123 373.85 829.123 379.45C829.123 382.55 829.723 384.85 830.923 386.35C832.223 387.85 833.973 388.6 836.173 388.6ZM946.532 387.4C950.632 388.2 952.682 390.45 952.682 394.15C952.682 396.65 951.532 398.9 949.232 400.9C947.032 402.8 943.832 403.75 939.632 403.75C932.432 403.75 926.532 401.55 921.932 397.15C917.432 392.65 915.182 386.8 915.182 379.6C915.182 375.7 917.182 372.9 921.182 371.2C925.582 369.3 928.732 367.3 930.632 365.2C932.532 363 933.482 360.35 933.482 357.25C933.482 355.45 933.082 354.1 932.282 353.2C931.582 352.3 930.682 351.85 929.582 351.85C926.882 351.85 923.882 353.8 920.582 357.7C917.382 361.6 914.382 366.65 911.582 372.85C908.782 378.95 906.582 385.25 904.982 391.75C903.882 396.45 902.582 399.65 901.082 401.35C899.682 402.95 897.432 403.75 894.332 403.75C891.232 403.75 888.932 402.65 887.432 400.45C886.032 398.15 885.082 394.65 884.582 389.95C884.082 385.25 883.832 378.35 883.832 369.25C883.832 353.85 885.382 337.8 888.482 321.1C891.682 304.4 896.332 290.4 902.432 279.1C908.632 267.7 916.032 262 924.632 262C929.232 262 932.932 264 935.732 268C938.632 271.9 940.082 277 940.082 283.3C940.082 293.4 937.132 303.9 931.232 314.8C925.332 325.6 915.732 338.25 902.432 352.75C902.132 357.95 901.982 363.3 901.982 368.8C906.782 356.3 912.282 347.25 918.482 341.65C924.682 335.95 930.482 333.1 935.882 333.1C940.882 333.1 944.882 334.8 947.882 338.2C950.982 341.6 952.532 345.8 952.532 350.8C952.532 356.3 951.132 361.35 948.332 365.95C945.532 370.55 940.732 374.65 933.932 378.25C934.532 381.25 935.732 383.35 937.532 384.55C939.432 385.65 942.432 386.6 946.532 387.4ZM921.482 276.85C919.682 276.85 917.682 279.45 915.482 284.65C913.282 289.75 911.132 296.7 909.032 305.5C907.032 314.2 905.382 323.7 904.082 334C910.282 326.7 915.382 318.75 919.382 310.15C923.482 301.55 925.532 293.75 925.532 286.75C925.532 283.55 925.182 281.1 924.482 279.4C923.782 277.7 922.782 276.85 921.482 276.85ZM1109.6 369.55C1110.9 369.55 1111.9 370.15 1112.6 371.35C1113.4 372.55 1113.8 374.2 1113.8 376.3C1113.8 380.2 1112.85 383.3 1110.95 385.6C1105.35 392.3 1099.9 397 1094.6 399.7C1089.4 402.4 1083.1 403.75 1075.7 403.75C1070.5 403.75 1065.7 403.1 1061.3 401.8C1056.9 400.5 1051.55 398.55 1045.25 395.95C1039.55 393.45 1034.05 391.4 1028.75 389.8C1023.65 399.1 1016 403.75 1005.8 403.75C1000.2 403.75 995.752 402.5 992.452 400C989.052 397.4 987.352 394.1 987.352 390.1C987.352 385.2 989.702 381.15 994.402 377.95C999.102 374.65 1005.35 373 1013.15 373H1015.1L1017.8 329.35C1018.4 319.35 1020.2 311.1 1023.2 304.6C1026.2 298.1 1030.35 292.55 1035.65 287.95C1040.25 283.95 1045.5 280.95 1051.4 278.95C1057.3 276.85 1063.55 275.8 1070.15 275.8C1080.95 275.8 1089.25 278.6 1095.05 284.2C1100.85 289.8 1103.75 297.1 1103.75 306.1C1103.75 312.2 1102.65 317.15 1100.45 320.95C1098.25 324.65 1095.2 326.5 1091.3 326.5C1088.5 326.5 1086.3 325.85 1084.7 324.55C1083.1 323.15 1082.3 321.2 1082.3 318.7C1082.3 317.8 1082.5 316.15 1082.9 313.75C1083.5 310.95 1083.8 308.45 1083.8 306.25C1083.8 302.05 1082.55 298.75 1080.05 296.35C1077.65 293.85 1073.95 292.6 1068.95 292.6C1060.15 292.6 1053.35 295.5 1048.55 301.3C1043.75 307 1040.7 316 1039.4 328.3L1035.95 362.35C1035.45 367.15 1034.8 371.3 1034 374.8C1040.4 375.9 1048.4 377.65 1058 380.05C1063.6 381.45 1067.9 382.45 1070.9 383.05C1073.9 383.65 1076.55 383.95 1078.85 383.95C1084.65 383.95 1089.6 383 1093.7 381.1C1097.9 379.1 1101.85 375.95 1105.55 371.65C1106.75 370.25 1108.1 369.55 1109.6 369.55ZM1120.08 403.75C1113.88 403.75 1108.93 401.5 1105.23 397C1101.53 392.5 1099.68 386.6 1099.68 379.3C1099.68 371.3 1101.53 363.75 1105.23 356.65C1108.93 349.45 1113.83 343.7 1119.93 339.4C1126.13 335 1132.68 332.8 1139.58 332.8C1141.78 332.8 1143.23 333.25 1143.93 334.15C1144.73 334.95 1145.38 336.45 1145.88 338.65C1147.98 338.25 1150.18 338.05 1152.48 338.05C1157.38 338.05 1159.83 339.8 1159.83 343.3C1159.83 345.4 1159.08 350.4 1157.58 358.3C1155.28 369.8 1154.13 377.8 1154.13 382.3C1154.13 383.8 1154.48 385 1155.18 385.9C1155.98 386.8 1156.98 387.25 1158.18 387.25C1160.08 387.25 1162.38 386.05 1165.08 383.65C1167.78 381.15 1171.43 377.15 1176.03 371.65C1177.23 370.25 1178.58 369.55 1180.08 369.55C1181.38 369.55 1182.38 370.15 1183.08 371.35C1183.88 372.55 1184.28 374.2 1184.28 376.3C1184.28 380.3 1183.33 383.4 1181.43 385.6C1177.33 390.7 1172.98 395 1168.38 398.5C1163.78 402 1159.33 403.75 1155.03 403.75C1151.73 403.75 1148.68 402.65 1145.88 400.45C1143.18 398.15 1141.13 395.05 1139.73 391.15C1134.53 399.55 1127.98 403.75 1120.08 403.75ZM1125.48 388.6C1127.68 388.6 1129.78 387.3 1131.78 384.7C1133.78 382.1 1135.23 378.65 1136.13 374.35L1141.68 346.75C1137.48 346.85 1133.58 348.45 1129.98 351.55C1126.48 354.55 1123.68 358.55 1121.58 363.55C1119.48 368.55 1118.43 373.85 1118.43 379.45C1118.43 382.55 1119.03 384.85 1120.23 386.35C1121.53 387.85 1123.28 388.6 1125.48 388.6ZM1201.79 403.75C1191.79 403.75 1184.49 399.9 1179.89 392.2C1175.39 384.5 1173.14 373.35 1173.14 358.75C1173.14 345.85 1174.74 331.85 1177.94 316.75C1181.14 301.55 1185.79 288.65 1191.89 278.05C1198.09 267.35 1205.44 262 1213.94 262C1218.54 262 1222.24 264 1225.04 268C1227.84 271.9 1229.24 277 1229.24 283.3C1229.24 291.5 1227.69 299.65 1224.59 307.75C1221.49 315.85 1216.34 324.35 1209.14 333.25C1214.04 333.65 1218.29 335.3 1221.89 338.2C1225.59 341.1 1228.39 344.85 1230.29 349.45C1232.29 354.05 1233.29 359.05 1233.29 364.45C1233.29 371.95 1231.79 378.7 1228.79 384.7C1225.89 390.7 1222.04 395.4 1217.24 398.8C1212.44 402.1 1207.29 403.75 1201.79 403.75ZM1192.94 343.45C1199.54 331.35 1204.79 320.7 1208.69 311.5C1212.69 302.2 1214.69 293.95 1214.69 286.75C1214.69 283.55 1214.29 281.1 1213.49 279.4C1212.79 277.7 1211.79 276.85 1210.49 276.85C1208.49 276.85 1206.29 279.85 1203.89 285.85C1201.59 291.75 1199.44 299.8 1197.44 310C1195.44 320.2 1193.94 331.35 1192.94 343.45ZM1202.39 387.55C1205.79 387.55 1208.64 385.7 1210.94 382C1213.34 378.3 1214.54 372.9 1214.54 365.8C1214.54 360.3 1213.54 356.15 1211.54 353.35C1209.54 350.55 1207.14 349.15 1204.34 349.15C1200.84 349.15 1197.89 350.95 1195.49 354.55C1193.09 358.15 1191.89 363.4 1191.89 370.3C1191.89 376.3 1192.89 380.7 1194.89 383.5C1196.89 386.2 1199.39 387.55 1202.39 387.55ZM1270.45 407.05C1265.25 407.05 1261.25 405.85 1258.45 403.45C1255.75 401.05 1254.4 398.35 1254.4 395.35C1254.4 392.75 1255.35 390.5 1257.25 388.6C1259.15 386.7 1261.95 385.75 1265.65 385.75C1266.95 385.75 1268.45 385.9 1270.15 386.2C1271.95 386.4 1273.3 386.55 1274.2 386.65C1274.1 384.05 1273.5 381.6 1272.4 379.3C1271.4 377 1270.1 374.8 1268.5 372.7C1266.9 370.5 1265.4 368.6 1264 367C1260.9 372.9 1257.8 377.8 1254.7 381.7C1251.7 385.6 1248.4 389.3 1244.8 392.8C1243 394.6 1241.1 395.5 1239.1 395.5C1237.5 395.5 1236.2 394.95 1235.2 393.85C1234.2 392.65 1233.7 391.2 1233.7 389.5C1233.7 387.5 1234.4 385.65 1235.8 383.95L1237.75 381.55C1243.25 374.75 1247.4 369.15 1250.2 364.75C1252 361.85 1253.8 358.4 1255.6 354.4C1257.5 350.4 1259.95 344.95 1262.95 338.05C1264.85 333.65 1268.8 331.45 1274.8 331.45C1277.6 331.45 1279.55 331.7 1280.65 332.2C1281.75 332.7 1282.3 333.5 1282.3 334.6C1282.3 335.2 1282.1 336.15 1281.7 337.45C1281.3 338.75 1280.75 340.05 1280.05 341.35C1278.25 344.95 1277.35 348 1277.35 350.5C1277.35 352 1277.85 353.65 1278.85 355.45C1279.95 357.25 1281.6 359.5 1283.8 362.2C1287 366.4 1289.4 370 1291 373C1292.7 375.9 1293.55 379.1 1293.55 382.6C1293.55 386.8 1292.55 390.8 1290.55 394.6C1288.65 398.3 1285.95 401.3 1282.45 403.6C1278.95 405.9 1274.95 407.05 1270.45 407.05Z" fill="white"/>
<path d="M282.855 121.066L283.026 123.429C283.106 124.534 282.856 125.485 282.71 125.974C282.535 126.558 282.307 127.122 282.091 127.608C281.655 128.585 281.093 129.631 280.567 130.562C280.033 131.507 279.469 132.453 279.017 133.215C278.521 134.052 278.228 134.555 278.098 134.809C271.312 148.121 264.809 163.737 262.526 179.108C260.252 194.415 262.216 208.998 271.724 220.982C273.205 222.849 274.732 224.447 276.462 226.113C278.314 225.183 280.222 224.315 281.232 223.836C287.002 221.102 292.353 219.077 297.779 217.657C297.69 217.62 297.601 217.584 297.513 217.547C296.913 217.289 296.206 216.953 295.553 216.526C295.132 216.251 293.722 215.323 293.041 213.561L292.178 211.329L293.374 209.258C294.9 206.613 297.716 205.839 298.375 205.635C311.896 201.439 326.236 201.24 339.818 205.3C339.748 205.123 339.68 204.935 339.625 204.735L339.007 202.523L341.46 198.848L342.882 198.269C344.215 197.726 345.594 197.635 346.524 197.626C347.555 197.616 348.607 197.711 349.545 197.835C351.421 198.082 353.257 198.504 354.365 198.806C364.256 201.497 373.175 206.207 379.919 213.926C380.391 213.099 381.094 211.934 381.793 211.066C382.413 210.297 383.469 209.155 385.009 208.449C386.729 207.662 388.797 207.551 390.759 208.5L391.149 208.704L392.19 209.288L392.854 210.279C393.788 211.673 394.232 213.27 394.478 214.487C394.725 215.705 394.855 216.988 394.926 218.188C404.195 216.303 414.905 216.712 423.114 219.401C424.818 219.96 428.162 221.074 431.318 222.456C432.889 223.144 434.547 223.956 435.984 224.864C437.237 225.657 439.072 226.974 440.114 228.915L441.112 230.773L440.477 232.785L440.364 233.142L439.569 235.659L437.781 236.199C444.128 240.245 449.642 245.298 454.664 250.999C457.823 250.251 460.129 249.788 462.988 248.536C478.048 241.945 485.14 230.511 487.717 216.97C490.265 203.576 488.347 188.182 484.818 173.842L484.472 172.458C484.213 171.437 483.259 168.752 482.206 165.503C481.724 164.016 481.241 162.462 480.908 161.168C480.744 160.532 480.586 159.841 480.491 159.196C480.444 158.877 480.396 158.459 480.392 158.005C480.39 157.667 480.396 156.759 480.805 155.756L481.862 153.168L484.619 152.712C486.102 152.467 487.393 152.778 488.235 153.08C489.007 153.358 489.699 153.734 490.276 154.132L490.516 154.304L490.519 154.306C507.189 166.669 521.386 186.272 528.62 207.582C535.857 228.902 536.311 252.573 524.411 272.542C518.9 281.79 509.911 289.569 500.22 295.543C492.712 300.172 484.566 303.85 476.846 306.351C478.234 308.265 479.733 310.155 481.257 311.985L481.968 312.816C482.677 313.625 483.394 314.396 484.288 315.41C485.381 316.651 486.579 318.088 487.633 319.746L488.955 321.828L487.962 324.546L487.373 326.154L485.923 327.064C483.628 328.504 480.922 328.606 479.003 328.492C477.706 328.415 476.363 328.208 475.047 327.932C475.692 329.791 476.174 331.694 476.314 333.459C476.43 334.919 476.374 336.947 475.364 338.828C474.152 341.084 471.982 342.376 469.523 342.571C469.182 342.598 468.841 342.602 468.501 342.59C468.587 343.623 468.567 344.666 468.38 345.667C468.119 347.058 467.44 348.868 465.755 350.203C465.201 350.642 464.618 350.967 464.025 351.2C466.031 354.213 468.338 356.909 471.467 359.766L472.087 360.323L472.089 360.325C473.593 361.664 476.42 364.065 478.865 366.666C480.101 367.981 481.36 369.469 482.378 371.043C483.36 372.561 484.349 374.507 484.625 376.694L484.694 377.28C486.042 389.625 481.132 404.103 475.392 413.946L475.362 413.998L475.331 414.048C472.664 418.381 468.919 422 464.032 423.92C460.879 439.145 447.039 447.087 434.675 450.804C434.498 451.756 434.38 452.626 434.349 453.467C434.295 454.973 434.551 455.997 435.087 456.824L435.173 456.937C435.258 457.048 435.351 457.164 435.502 457.353C435.757 457.671 436.194 458.215 436.585 458.824C437.145 459.698 439.049 462.913 436.918 466.303L435.951 467.84L434.224 468.398C432.345 469.006 430.549 468.736 429.548 468.53C428.481 468.311 427.399 467.948 426.934 467.803L426.927 467.8C424.905 467.166 423.112 466.319 421.51 465.305C419.814 482.599 411.316 496.941 396.245 508.258C395.287 508.978 393.493 510.248 391.559 511.319C390.596 511.853 389.475 512.406 388.326 512.807C387.307 513.162 385.647 513.622 383.854 513.341L381.768 513.014L380.713 511.522C376.686 516.356 371.813 520.647 365.761 523.997L365.757 524C365.203 524.305 364.209 524.849 363.075 525.219C361.968 525.579 360.127 525.979 358.1 525.32L355.241 524.392L354.899 522.445C348.292 526.322 340.927 529.126 333.061 529.944C332.143 530.04 330.844 530.078 329.547 529.946C328.892 529.88 328.113 529.758 327.324 529.523C326.598 529.307 325.482 528.886 324.475 528L322.478 526.24L322.822 523.602C322.824 523.585 322.826 523.566 322.83 523.538C322.833 523.514 322.838 523.475 322.843 523.436C322.853 523.36 322.871 523.227 322.897 523.074C322.951 522.767 323.064 522.228 323.342 521.616C323.983 520.203 325.025 519.411 325.725 518.981L325.728 518.979C325.995 518.816 326.256 518.649 326.514 518.48C326.315 518.585 326.114 518.688 325.909 518.783C324.917 519.246 323.475 519.775 321.83 519.76L321.753 519.759L321.676 519.756C320.461 519.707 319.253 519.293 318.258 518.601C317.266 517.911 315.763 516.39 315.703 513.95C315.55 507.679 315.94 503.869 315.024 498.925L314.823 497.92C312.926 489.086 308.181 481.815 302.158 474.653C301.616 476.561 300.963 478.492 300.178 480.372C298.279 484.92 295.435 489.606 291.143 492.745L285.913 496.571L283.539 490.542C283.018 489.219 282.669 487.736 282.415 486.558C282.123 485.206 281.963 484.31 281.742 483.395L281.485 482.412C280.867 480.124 280.113 477.874 279.228 475.676L279.225 475.668C277.19 470.586 274.904 466.447 272.373 460.993C271.404 458.905 270.479 456.853 269.599 454.815C269.235 455.174 268.867 455.437 268.549 455.623C268.091 455.89 267.658 456.044 267.632 456.054C267.546 456.086 267.561 456.08 267.605 456.062L265.809 456.853L263.903 456.135C262.428 455.58 261.264 454.638 260.547 453.995C259.776 453.305 259.093 452.561 258.683 452.12L258.679 452.115C251.144 443.966 245.87 434.205 242.646 423.815C242.66 424.915 242.707 426.002 242.796 427.08L242.865 427.843L243.031 429.343C243.104 430.027 243.182 430.836 243.232 431.589C243.284 432.364 243.32 433.266 243.28 434.115C243.26 434.539 243.216 435.053 243.114 435.585C243.026 436.04 242.824 436.912 242.275 437.795L241.168 439.578L239.119 440.036L238.528 440.169L237.207 440.464L235.918 440.053C234.972 439.751 234.09 439.358 233.224 438.761C232.445 438.223 231.824 437.612 231.395 437.188L231.392 437.185C219.962 425.867 212.66 409.653 209.528 394.568C209.051 392.27 208.693 390.04 208.425 387.849C208.29 388.071 208.154 388.293 208.018 388.518L205.309 393.014C204.966 393.577 203.856 395.487 202.622 397.149C202.015 397.967 201.206 398.963 200.272 399.775C199.805 400.182 199.141 400.688 198.306 401.07C197.476 401.451 196.134 401.861 194.543 401.537L192.638 401.15L191.496 399.579C189.844 397.308 189.197 394.242 188.863 392.135C188.494 389.812 188.344 387.415 188.235 385.98C187.532 376.708 188.179 368.126 189.748 359.685C189.138 360.278 188.558 360.839 188.016 361.344C187.203 362.103 186.41 362.811 185.723 363.357C185.389 363.624 184.984 363.928 184.555 364.192C184.342 364.324 184.037 364.499 183.671 364.658C183.373 364.787 182.664 365.073 181.733 365.115L179.376 365.223L176.427 361.956L176.183 360.524C175.85 358.568 176.037 356.462 176.228 355.108C177.738 344.441 182.004 332.313 187.892 321.282C190.934 315.584 194.47 310.067 198.377 305.13C196.247 305.327 194.096 305.408 192.155 305.259C190.841 305.158 189.419 304.939 188.088 304.468C186.794 304.01 185.134 303.153 183.959 301.479L182.66 299.628L183.689 295.376L184.84 294.341C186.034 293.266 187.996 291.981 189.537 290.984C191.306 289.84 192.83 288.884 193.798 288.185C199.021 284.407 204.462 280.118 210.291 276.27C208.464 275.884 206.661 275.403 205.144 274.79C204.07 274.356 202.686 273.683 201.563 272.6C200.312 271.392 198.958 269.158 199.718 266.328L200.302 264.155L202.317 263.151C203.947 262.339 205.804 261.695 207.401 261.173C209.149 260.602 210.525 260.193 211.797 259.729C215.726 258.296 219.624 256.856 223.498 255.372C217.53 248.246 212.819 240.13 210.428 231.201C204.714 209.854 210.829 185.933 220.851 167.879L220.86 167.862L220.87 167.847C230.727 150.396 244.901 135.769 262.035 125.369L262.046 125.362C266.336 122.773 270.667 120.248 276.2 118.66L278.501 118L282.855 121.066ZM277.579 123.466C272.74 124.854 268.903 127.064 264.63 129.644L263.1 130.589C247.384 140.476 234.365 154.122 225.223 170.306L224.774 171.123C215.414 188.368 210.072 210.533 215.259 229.908C220.416 249.176 237.748 264.876 254.782 274.262L256.021 274.938C244.027 273.694 235.464 267.109 226.811 259.458C222.395 261.167 217.958 262.804 213.51 264.427L212.44 264.8C209.862 265.666 206.779 266.514 204.547 267.626C203.477 271.605 222.928 273.061 226.061 273.035C223.353 274.085 221.236 275.535 218.751 276.937C210.92 281.355 204.005 286.974 196.728 292.236L196.286 292.549C193.942 294.173 189.75 296.647 188.184 298.057L188.051 298.606C190.866 302.616 208.711 298.603 213.242 297.106C197.332 309.53 184.002 335.863 181.178 355.809C181.01 356.998 180.909 358.495 181.112 359.685L181.506 360.12C183.009 360.052 197.073 344.945 199.206 342.879C194.696 357.231 192.074 370.489 193.22 385.603C193.452 388.658 193.765 394.198 195.539 396.637C197.014 396.937 199.478 392.999 200.633 391.088L201.04 390.411C204.672 384.454 207.841 378.63 212.583 373.459C212.705 380.38 212.992 386.656 214.424 393.553C217.411 407.944 224.352 423.178 234.91 433.632C235.787 434.498 236.269 434.917 237.436 435.289L238.028 435.157C238.641 434.171 238.035 429.784 237.89 428.344C236.977 419.275 238.827 410.128 239.406 401.105C237.898 403.755 234.765 409.824 233.041 411.827C232.433 410.713 231.865 409.599 231.291 408.468C222.385 390.918 227.285 369.673 238.853 354.391C233.713 367.874 230.854 381.369 232.819 395.79C233.262 399.041 234.042 402.261 234.667 405.505C235.207 402.302 236.86 398.263 237.886 395.075C240.367 387.38 243.345 378.044 247.315 370.951C246.03 376.932 244.736 382.92 244.138 389.082C242.091 410.209 247.708 432.887 262.35 448.721L263.065 449.48C263.773 450.209 264.609 450.976 265.438 451.36L265.664 451.456C265.976 451.319 266.15 451.328 266.177 451.044C266.563 446.999 265.448 441.623 265.327 437.657C265.214 433.958 265.063 429.597 265.476 426.147C268.016 438.014 271.789 447.857 276.909 458.889C279.256 463.947 281.778 468.594 283.867 473.809C284.963 476.531 285.872 479.328 286.59 482.173C287.074 484.163 287.472 486.884 288.191 488.71C294.713 483.938 297.756 473.687 298.922 465.979C299.034 465.24 299.104 464.495 299.13 463.746C308.14 473.476 316.831 483.458 319.712 496.87C321.014 502.935 320.553 507.765 320.701 513.827C320.713 514.316 321.233 514.649 321.688 514.737L321.878 514.76C323.902 514.779 326.884 512.341 328.605 510.752L329.259 510.133C337.551 502.073 342.504 486.538 343.387 475.116C347.084 493.616 345.643 512.647 328.34 523.243C327.837 523.552 327.842 523.77 327.78 524.247C328.728 525.082 331.302 525.101 332.542 524.972C345.351 523.64 357.031 516.354 366.006 507.647C364.911 510.314 363.823 513.118 362.325 515.578C361.605 516.653 359.455 519.476 359.646 520.565C360.829 520.949 362.244 520.227 363.34 519.622C379.002 510.95 386.154 495.181 391.947 479.431C391.751 488.453 390.816 496.055 386.316 504.015C385.726 505.06 384.071 507.613 384.629 508.401C386.876 508.754 391.528 505.547 393.242 504.259C410.806 491.07 418.595 473.762 416.494 451.898C419.136 457.192 422.635 461.215 428.423 463.029C429.593 463.394 431.218 463.968 432.445 463.705L432.685 463.641C433.515 462.321 431.628 460.679 430.893 459.548C428.367 455.653 429.473 450.998 430.413 446.799C443.92 443.391 458.096 435.448 459.565 420.048C464.368 419.064 468.11 416.049 470.814 411.839L471.073 411.428C476.604 401.943 481.047 388.288 479.664 377.319C479.098 372.824 472.018 366.956 468.764 364.06C461.334 357.452 457.944 351.622 453.809 342.737C466.67 352.996 464.704 340.975 459.783 333.332C478.148 346.162 470.588 326.703 464.646 318.918C468.355 320.926 479.158 325.058 483.084 322.935L483.265 322.829L483.413 322.427C481.937 320.103 479.993 318.151 478.182 316.082L477.417 315.187C474.383 311.544 471.306 307.507 468.958 303.396C486.746 299.093 509.482 286.999 519.641 270.759L520.116 269.981C541.979 233.293 519.163 181.776 487.541 158.322C486.985 157.911 486.142 157.528 485.434 157.645L485.415 157.707C485.069 159.137 488.706 168.82 489.318 171.226C496.952 201.233 498.621 238.398 464.994 253.116C460.829 254.94 457.129 255.464 452.879 256.6L452.042 255.606C443.356 245.418 433.456 237.557 420.306 233.673C423.969 233.13 427.588 232.601 431.277 232.293C432.511 232.19 433.856 232.078 435.08 231.777L435.596 231.637L435.709 231.279C434.141 228.36 424.936 225.259 421.557 224.152C412.308 221.122 399.199 221.324 389.869 224.784C390.056 221.958 390.268 215.822 388.843 213.296L388.701 213.063C386.439 211.793 384.607 215.899 383.647 217.5C382.543 219.348 381.53 221.293 380.44 223.163C374.493 213.083 365.235 207.159 354.133 203.934L353.052 203.63C351.164 203.116 346.604 202.152 344.766 202.9L344.44 203.389C344.724 204.403 348.305 207.482 349.245 208.443L350.275 209.507C352.674 212.016 355.008 214.723 356.552 217.817C351.447 215.308 346.825 212.972 341.413 211.072L340.319 210.698C327.152 206.312 313.104 206.299 299.857 210.41L299.543 210.512C298.809 210.761 298.081 211.105 297.705 211.757C298.283 213.253 307.332 215.298 309.408 215.993C312.891 217.16 315.951 218.414 319.268 219.976C305.744 220.137 295.649 222.538 283.374 228.354L281.569 229.201C279.546 230.15 277.049 231.345 275.691 232.248C272.971 229.74 270.573 227.476 268.267 224.661L267.807 224.091C246.849 197.673 259.473 160.71 273 133.811L273.644 132.538C274.494 130.87 277.928 125.687 278.039 123.947V123.79L277.579 123.466Z" fill="white"/>
<path d="M276.812 122.994L277.272 123.318C277.385 124.878 273.755 130.344 272.877 132.065C259.115 159.062 245.75 196.781 267.041 223.618C269.488 226.702 272.022 229.101 274.924 231.776C276.735 230.572 280.57 228.847 282.607 227.882C294.882 222.066 304.977 219.664 318.501 219.503C315.184 217.942 312.124 216.688 308.641 215.521C306.565 214.826 297.516 212.781 296.938 211.285C297.368 210.54 298.257 210.196 299.09 209.938C312.337 205.827 326.385 205.839 339.552 210.226C345.443 212.188 350.339 214.668 355.786 217.345C354.02 213.809 351.224 210.777 348.478 207.971C347.538 207.01 343.957 203.93 343.674 202.917L344 202.428C345.838 201.679 350.397 202.644 352.286 203.157C363.867 206.309 373.534 212.285 379.673 222.69C380.763 220.82 381.776 218.876 382.88 217.027C383.84 215.426 385.672 211.32 387.934 212.591C389.515 214.951 389.295 221.394 389.102 224.311C398.432 220.851 411.541 220.65 420.791 223.68C424.169 224.787 433.375 227.888 434.942 230.807L434.829 231.164C433.475 231.573 431.921 231.702 430.51 231.82C426.821 232.129 423.202 232.658 419.539 233.201C433.113 237.21 443.225 245.457 452.112 256.127C456.363 254.991 460.062 254.468 464.227 252.644C497.855 237.926 496.185 200.761 488.551 170.753C487.929 168.309 484.186 158.354 484.668 157.173C485.375 157.056 486.218 157.438 486.773 157.85C518.396 181.303 541.212 232.821 519.349 269.51C509.438 286.14 486.262 298.553 468.19 302.924C470.538 307.035 473.616 311.072 476.65 314.715C478.662 317.129 480.959 319.299 482.646 321.955L482.499 322.356C478.736 324.717 467.647 320.486 463.879 318.446C469.821 326.232 477.382 345.69 459.017 332.86C463.938 340.503 465.904 352.523 453.043 342.265C457.178 351.15 460.566 356.979 467.997 363.587C471.251 366.484 478.332 372.352 478.897 376.847C480.28 387.816 475.837 401.47 470.306 410.955C467.583 415.379 463.757 418.56 458.799 419.576C457.33 434.976 443.154 442.918 429.646 446.327C428.706 450.525 427.599 455.18 430.126 459.075C430.861 460.206 432.748 461.849 431.918 463.169C430.67 463.573 428.904 462.946 427.656 462.557C421.868 460.742 418.369 456.72 415.727 451.426C417.828 473.29 410.04 490.598 392.475 503.787C390.762 505.075 386.11 508.282 383.862 507.929C383.304 507.141 384.959 504.587 385.549 503.542C390.049 495.582 390.984 487.98 391.18 478.958C385.387 494.708 378.236 510.478 362.573 519.15C361.477 519.755 360.062 520.477 358.879 520.093C358.688 519.003 360.838 516.18 361.558 515.105C363.056 512.645 364.144 509.842 365.238 507.175C356.263 515.882 344.584 523.168 331.775 524.5C330.535 524.63 327.961 524.61 327.013 523.775C327.076 523.298 327.07 523.08 327.573 522.771C344.876 512.175 346.317 493.144 342.621 474.644C341.737 486.066 336.785 501.6 328.492 509.66C326.988 511.122 323.425 514.31 321.111 514.288C320.624 514.268 319.948 513.913 319.934 513.355C319.787 507.293 320.247 502.462 318.945 496.398C316.064 482.986 307.374 473.004 298.363 463.274C298.337 464.023 298.267 464.768 298.154 465.507C296.989 473.214 293.946 483.466 287.424 488.237C286.705 486.411 286.307 483.691 285.823 481.7C285.106 478.855 284.196 476.059 283.1 473.337C281.011 468.122 278.489 463.475 276.142 458.416C271.022 447.384 267.249 437.542 264.71 425.675C264.296 429.124 264.447 433.485 264.56 437.184C264.682 441.151 265.796 446.527 265.411 450.572C265.384 450.856 265.21 450.846 264.897 450.983C263.694 450.53 262.453 449.186 261.583 448.249C246.941 432.415 241.324 409.736 243.372 388.609C243.97 382.447 245.263 376.461 246.549 370.479C242.578 377.572 239.6 386.908 237.119 394.603C236.093 397.791 234.441 401.83 233.9 405.033C233.276 401.789 232.495 398.569 232.053 395.318C230.088 380.897 232.945 367.402 238.086 353.919C226.518 369.201 221.618 390.446 230.524 407.995C231.098 409.126 231.666 410.24 232.274 411.354C233.998 409.352 237.131 403.282 238.639 400.633C238.06 409.655 236.21 418.802 237.124 427.871C237.269 429.311 237.874 433.698 237.261 434.685L236.67 434.817C235.502 434.445 235.02 434.026 234.143 433.159C223.584 422.705 216.644 407.471 213.657 393.08C212.225 386.183 211.937 379.908 211.816 372.986C207.074 378.157 203.905 383.982 200.273 389.939C199.435 391.315 196.458 396.508 194.772 396.165C192.998 393.726 192.686 388.186 192.454 385.13C191.307 370.017 193.929 356.759 198.439 342.407C196.306 344.473 182.242 359.579 180.739 359.648L180.346 359.212C180.143 358.022 180.244 356.526 180.412 355.336C183.235 335.39 196.565 309.058 212.475 296.635C207.944 298.131 190.099 302.143 187.285 298.134L187.418 297.585C189.088 296.081 193.746 293.366 195.962 291.764C203.238 286.501 210.153 280.883 217.983 276.466C220.469 275.063 222.586 273.613 225.295 272.563C222.163 272.589 202.71 271.134 203.78 267.154C206.331 265.883 209.994 264.957 212.743 263.954C217.191 262.332 221.629 260.695 226.045 258.986C234.697 266.637 243.259 273.221 255.254 274.466L254.015 273.79C236.981 264.404 219.65 248.704 214.492 229.436C209.223 209.753 214.82 187.191 224.456 169.833C233.892 153.128 247.461 139.126 263.863 129.171C268.136 126.592 271.973 124.382 276.812 122.994Z" fill="#000100"/>
<path d="M442.037 322.171C442.28 322.678 443.195 329.243 443.477 330.527C445.294 338.818 448.077 347.347 452.21 354.783C454.641 359.202 458.054 362.613 461.325 366.317C464.498 369.909 470.561 372.678 472.441 376.786C474.953 382.278 466.712 385.179 463.757 388.423C461.409 391.001 460.282 392.767 458.752 396.047C458.97 390.144 460.304 388.007 462.983 382.895C461.587 383.157 458.03 384.283 456.485 384.795C451.045 386.592 446.104 383.975 440.781 381.979C441.386 383.26 442.059 385.145 442.424 386.462C443.408 390.012 442.921 392.098 441.107 395.102C434.443 406.142 434.991 406.223 422.424 409.264C415.931 410.835 408.353 412.473 402.097 408.911C398.675 406.962 396.809 403.794 395.901 400.102C396.745 397.467 398.388 394.877 399.73 392.421C391.719 396.593 389.91 400.498 386.621 408.556C385.956 403.762 388.379 393.119 390.58 388.67C391.393 387.028 394.703 381.734 394.618 380.735C393.915 380.66 393.925 380.855 393.159 381.352C388.945 384.144 386.027 387.045 382.912 390.955C384.489 384.516 387.187 378.405 390.887 372.903C385.96 375.249 382.719 378.216 378.73 381.808C378.897 372.467 381.984 365.563 387.706 358.316C389.329 356.262 392.191 352.523 393.386 350.29L393.538 350.001C394.473 353.365 394.885 358.735 395.112 362.258C399.27 356.171 400.374 348.505 398.104 341.494C395.93 334.898 394.486 334.866 393.658 327.054C398.094 333.845 400.802 337.357 408.887 340.064C405.697 333.156 405.05 330.635 405.731 323.152C412.993 334.484 422.096 342.37 435.344 345.898C432.934 340.203 430.753 334.023 430.356 327.846C433.779 333.218 436.088 335.589 441.239 339.016C440.306 332.784 440.265 328.186 442.037 322.171Z" fill="white"/>
<path d="M414.383 374.255C419.307 373.74 425.653 375.988 429.644 378.796C434.323 382.089 440.167 387.777 437.625 394.094C437.525 394.343 437.013 394.265 436.773 394.272C434.114 393.126 429.969 391.217 427.129 391.91C416.491 394.5 412.53 385.12 413.193 376.277C413.272 375.241 413.517 374.903 414.383 374.255Z" fill="#000100"/>
<path d="M419.552 361.543C428.973 361.029 437.711 367.331 446.084 370.707C451.236 372.781 454.688 372.431 459.634 370.205C455.285 374.962 452.342 376.397 445.857 375.435C441.844 374.453 438.761 372.994 435.104 371.131C423.89 365.421 417.165 363.575 404.918 367.46C410.272 363.69 412.895 362.108 419.552 361.543Z" fill="#000100"/>
<path d="M382.606 233.727C394.745 230.969 400.482 230.339 412.784 233.525C409.389 234.058 405.506 234.714 402.217 235.66C419.449 238.921 433.708 248.746 445.553 261.311C447.517 263.394 449.373 265.639 451.339 267.675C446.993 265.977 444.361 265.227 440.167 262.858C437.474 261.336 433.95 258.63 431.468 257.387C438.125 264.266 442.081 270.144 446.794 278.574C452.014 287.912 457.636 299.968 464.934 307.928C457.974 305.245 453.192 302.314 447.906 296.888C447.703 308.285 448.317 314.313 453.358 324.816C445.191 317.384 442.914 311.068 440.926 300.636C438.835 308.902 438.154 312.918 434.119 320.618C436.737 300.377 433.018 283.491 417.804 268.899C425.053 284.101 426.032 287.583 426.53 304.338C425.087 299.531 423.459 294.322 421.256 289.806C416.68 280.431 408.449 271.39 400.171 265.09C396.084 261.979 392.037 259.688 387.814 256.347C395.139 268.742 397.779 277.766 397.105 292.399C396.924 296.36 396.581 300.817 395.582 304.669C395.524 304.9 395.46 305.13 395.396 305.359C389.672 280.819 371.411 279.305 364.306 258.381C360.503 268.598 360.823 275.479 365.265 285.707C357.07 279.522 349.081 273.366 344.809 263.652C340.91 254.783 341.613 248.843 346.815 240.922C344.957 253.846 348.348 260.038 356.203 269.869C353.197 258.061 356.228 249.37 363.11 239.629C368.442 246.813 372.146 251.084 380.535 255.144C379.159 252.021 378.111 248.68 377.1 245.419C391.954 250.655 399.284 254.773 410.74 265.254C404.96 254.863 398.699 248.299 388.311 242.28C386.744 241.371 384.491 240.062 382.817 239.501L382.888 239.354C384.812 239.459 386.555 240.089 388.409 240.458C397.164 242.199 408.101 246.002 415.566 251.035L416.452 250.525C408.049 241.057 395.178 234.914 382.606 233.727Z" fill="white"/>
<path d="M416.452 250.525L419.03 253.341L415.566 251.035L416.452 250.525Z" fill="#000100"/>
<path d="M264.939 135.21C264.951 135.27 265.063 135.683 265.041 135.721C254.133 155.174 245.983 177.833 249.151 200.442C250.371 209.149 254.509 220.143 259.941 227.163C270.606 240.944 287.883 248.936 304.907 251.124C309.613 251.729 314.614 251.769 319.334 251.751C312.59 255.696 308.7 256.212 301.064 256.144C307.768 258.669 315.655 258.483 322.624 257.431C314.566 261.106 310.208 262.257 301.534 261.855C310.395 265.408 316.031 264.216 324.674 264.094C308.204 269.178 296.42 267.078 280.567 261.563C279.956 261.336 279.35 261.1 278.747 260.855C261.149 253.695 247.183 242.362 239.636 224.588C240.622 231.791 243.752 238.503 247.134 244.82C235.195 233.199 230.408 217.407 231.053 201.099C231.672 185.449 236.637 173.333 244.365 159.955C238.32 165.378 233.329 172.543 229.746 179.77C228.56 182.163 227.63 184.623 226.368 186.964L226.432 186.655C231.556 162.998 245.05 147.966 264.939 135.21Z" fill="white"/>
<path d="M496.545 173.947C510.329 189.201 520.081 209.857 519.525 230.856C518.81 257.788 498.964 276.321 474.064 283.424L473.136 282.913C481.252 280.013 486.529 276.479 493.359 271.237C490.718 272.011 488.247 273.806 485.726 274.936C478.613 278.122 471.023 280.118 463.277 280.96C461.675 281.134 459.719 281.331 458.174 281.62C456.703 279.287 455.195 276.977 453.65 274.692C456.245 275.685 462.332 277.779 465.407 277.305C465.921 277.226 466.016 276.704 466.127 276.329C465.585 273.885 460.914 269.887 459.161 267.56C457.805 265.762 456.994 264.874 455.716 262.767C472.549 259.212 483.098 251.975 492.975 237.696C503.16 222.976 503.04 202.931 499.387 185.85C498.503 181.867 497.558 177.899 496.545 173.947Z" fill="white"/>
<path d="M510.588 222.261L510.841 222.466C511.825 224.417 511.906 234.214 511.798 236.48C511.218 248.497 503.15 255.224 494.625 262.6C494.376 262.849 494.537 262.738 494.104 262.871C494.18 262.389 497.267 257.852 497.825 256.931C506.047 243.336 509.237 238.192 510.588 222.261Z" fill="#000100"/>
<path d="M269.986 276.108C282.13 276.237 293.33 281.557 304.318 286.249C295.003 286.44 285.537 283.862 276.439 283.915C264.877 283.982 255.316 287.78 247.285 296.04C251.763 296.031 259.638 296.584 263.818 297.954C261.844 299.774 258.32 301.848 255.953 303.367C260.705 304.314 264.714 305.073 269.333 306.47C268.01 307.36 267.111 308.118 265.887 309.147C268.811 310.692 271.205 311.286 274.335 312.271C275.643 313.898 276.028 314.576 277.742 315.751C278.389 316.065 279.046 316.358 279.712 316.632C285.712 319.055 292.363 316.399 297.979 314.072C280.385 331.198 259.647 318.186 244.038 305.772C246.429 304.653 249.248 303.103 251.633 301.875C247.579 301.371 241.873 301.231 238.262 299.382C235.222 297.826 242.187 290.503 243.641 288.77C250.798 280.241 258.932 276.764 269.986 276.108Z" fill="white"/>
<path d="M320.676 313.153L320.93 313.578C319.747 322.467 319.562 328.824 320.805 337.705C321.549 343.024 320.28 349.681 318.858 354.905C327.06 347.423 329.809 341.254 332.698 330.843C333.183 333.389 333.621 336.833 333.332 339.387C332.155 349.776 328.168 355.831 331.272 366.628C333.534 364.383 335.232 361.531 337.275 359.07C339.481 356.414 341.802 354.073 344.015 351.399C338.978 363.781 336.108 375.126 338.002 388.604C338.521 392.299 339.019 395.247 340.348 398.807C334.068 392.083 331.75 386.469 330.137 377.415C329.847 374.35 329.075 370.523 328.464 367.514C324.551 377.531 324.207 382.535 325.771 393.32C324.74 391.888 323.754 390.531 322.849 389.013C315.324 376.382 324.009 365.032 326.998 353.054C319.994 359.192 316.99 363.896 307.217 366.391C313.936 358.007 315.578 347.406 315.712 337.017C311.879 342.962 310.072 345.09 304.675 349.651C306.267 346.04 308.576 341.932 309.963 338.321C313.386 329.41 316.313 321.72 320.676 313.153Z" fill="white"/>
<path d="M291.572 331.583C291.534 332.077 289.324 336.943 288.879 337.95C287.064 342.052 286.248 346.123 284.82 350.3C288.529 346.549 292.383 342.945 296.374 339.498C289.425 352.57 288.59 369.013 292.708 383.052C293.275 384.986 293.923 387.615 294.965 389.283L295.295 389.207C295.812 381.548 298.401 375.021 301.826 368.308C300.956 379.12 300.177 385.512 300.255 396.569C300.488 400.898 300.843 405.669 300.764 409.969C285.712 392.341 280.968 376.341 288.141 353.542C286.258 355.525 278.052 366.792 276.19 365.764C275.766 364.427 276.855 360.495 277.141 358.997C279.272 347.844 283.692 339.723 291.572 331.583Z" fill="white"/>
<path d="M438.698 415.654C438.85 415.632 439.001 415.615 439.153 415.602C444.341 415.122 448.072 416.43 451.992 419.696C451.84 420.296 451.684 420.893 451.52 421.491C449.348 429.32 443.577 433.495 436.766 437.373C438.441 434.697 439.014 433.071 439.643 430.011C437.273 430.385 434.247 431.546 431.923 432.396C427.661 433.95 424.994 434.753 420.502 435.314C422.22 433.958 424.064 432.16 425.69 430.65C423.168 431.323 421.302 431.734 418.732 432.205C417.074 432.241 415.943 432.359 414.288 432.564C415.274 431.813 417.588 430.29 417.676 429.08C416.494 428.792 413.127 429.2 411.384 429.098C408.674 428.936 406.921 428.63 404.259 428.172C408.87 427.173 409.185 427.401 413.879 425.104C407.834 424.943 402.739 424.754 400.303 418.381C411.558 423.973 426.343 417.008 438.698 415.654Z" fill="white"/>
<path d="M219.869 315.37C219.871 315.6 216.651 323.818 216.239 324.889C213.173 332.858 213.439 340.366 212.46 348.606C214.947 345.859 217.193 343.014 219.781 340.265C224.656 335.086 229.465 331.146 235.084 326.86C230.742 333.67 227.263 338.918 222.306 345.369C215.835 353.312 210.038 361.851 203.497 369.49C203.36 364.219 203.188 359.168 203.67 353.906C204.968 339.767 210.33 325.979 219.869 315.37Z" fill="white"/>
<path d="M363.31 376.101C363.784 376.691 362.566 382.821 362.392 384.048C360.635 396.429 363.035 402.511 365.927 413.705C368.841 402.981 369.225 398.327 375.033 388.115C373.027 396.603 372.632 404.675 374.838 413.164C376.04 417.213 377.056 419.764 378.87 423.555C374.125 419.583 372.645 418.011 369.516 412.564C368.123 415.639 367.54 418.964 365.951 421.868C354.656 405.662 354.73 393.376 363.31 376.101Z" fill="white"/>
<path d="M338.292 306.497C340.158 307.11 342.035 307.683 343.925 308.216C344.291 315.397 346.048 320.363 354.361 321.438C358.699 321.999 361.692 319.862 364.923 317.203C368.665 320.134 369.708 322.67 371.322 327.01C371.551 328.026 371.906 329.172 372.192 330.187C366.594 328.37 363.356 328.663 357.647 328.799C352.717 328.917 346.804 327.892 343.242 324.195C338.185 318.948 338.243 313.194 338.292 306.497Z" fill="white"/>
<path d="M309.873 402.011C310.119 402.234 310.243 402.445 310.283 402.797C310.714 406.556 311.288 410.314 312.457 413.928C313.978 418.628 317.119 422.504 319.643 426.703C319.286 419.483 319.235 416.085 321.044 409.016C321.894 415.982 320.585 417.703 323.562 425.663C325.228 429.803 327.314 433.167 329.926 436.758C323.183 434.148 319.056 431.945 314.482 425.959C309.931 420.004 308.64 409.334 309.873 402.011Z" fill="white"/>
<path d="M466.949 394.539C469.814 394.431 470.612 394.806 473.344 395.749C471.821 401.98 467.194 407.2 462.001 410.745L459.604 411.94C458.512 411.66 457.315 411.413 456.629 410.519C456.796 409.121 457.876 407.983 458.304 406.69C460.006 401.537 460.669 395.856 466.949 394.539Z" fill="white"/>
<path d="M404.338 280.065C404.71 280.251 404.725 280.264 405.006 280.565C414.006 290.164 411.245 303.455 410.564 315.364L410.344 315.757L410.059 315.719C404.502 306.269 405.758 303.551 405.721 293.415C405.728 288.929 405.263 284.454 404.338 280.065Z" fill="white"/>
<path d="M305.129 448.075C305.285 448.177 305.434 448.271 305.563 448.408C313.41 456.869 319.437 470.675 320.304 481.957C319.663 481.504 317.956 478.246 317.468 477.33C312.332 467.664 307.665 458.764 305.129 448.075Z" fill="white"/>
<path d="M374.603 449.507L374.906 449.86C375.073 451.204 374.737 454.264 374.578 455.706C373.43 465.943 366.47 474.786 358.66 481.044C359.991 477.849 361.252 475.249 362.514 471.924C364.321 466.976 364.164 460.613 364.25 455.307C365.897 460.194 366.691 464.043 366.081 469.182C371.327 461.594 372.513 458.505 374.603 449.507Z" fill="white"/>
<path d="M371.66 280.635C374.181 282.498 377.369 285.523 379.357 287.909C386.729 296.756 387.454 304.157 386.629 314.991L386.249 314.925C384.188 304.678 382.907 300.421 377.279 291.374C375.937 289.221 372.399 282.972 371.66 280.635Z" fill="white"/>
<path d="M307.905 292.098L308.126 292.317C308.052 293.072 306.031 295.807 305.425 297.061C304.022 299.965 303.282 302.039 302.511 305.171C304.654 302.126 306.071 300.292 308.509 297.539C305.941 304.315 305.148 306.885 303.737 314.131C303.405 315.431 303.249 316.718 303.06 318.046C301.731 314.763 300.536 312.154 299.771 308.641C298.473 308.864 297.147 309.061 295.844 309.266C299.07 302.061 302.467 297.674 307.905 292.098Z" fill="white"/>
<path d="M386.335 468.146L386.57 468.565C385.268 477.477 374.928 490.801 368.715 497.656C368.153 497.14 368.549 495.717 368.762 495.024C371.952 484.589 380.802 477.266 386.335 468.146Z" fill="white"/>
<path d="M276.931 392.909C277.107 393.046 277.381 393.264 277.401 393.518C277.901 399.69 279.064 405.858 280.876 411.773C281.816 414.838 287.654 426.806 285.752 429.328C277.22 417.478 275.093 407.273 276.931 392.909Z" fill="white"/>
<path d="M262.165 356.722C262.503 358.051 262.148 361.572 261.989 362.963C261.772 364.831 261.442 366.682 261.002 368.511C260.012 372.705 258.567 377.07 257.468 381.264C257.034 382.922 255.315 390.783 254.488 391.435C252.115 378.517 257.954 368.222 262.165 356.722Z" fill="white"/>
<path d="M408.781 458.573C409.024 459.636 408.877 462.593 408.852 463.822C408.661 473.038 405.768 478.833 401.03 486.411C402.026 481.97 402.235 477.714 402.32 473.182C402.195 468.144 401.003 462.946 399.463 458.172C402.541 462.317 404.445 466.601 405.239 471.682C406.203 468.043 407.707 461.754 408.781 458.573Z" fill="white"/>
<path d="M347.332 300.075C351.796 299.332 356.694 300.472 360.366 303.095C363.311 305.198 364.875 307.934 366.624 310.986L363.765 308.857C361.049 307.162 357.556 305.408 354.437 304.659C349.031 303.36 347.671 304.313 342.967 300.953C344.608 300.53 345.653 300.33 347.332 300.075Z" fill="white"/>
<path d="M326.634 233.499C328.858 233.353 330.998 233.431 333.222 233.48C330.363 234.503 327.401 235.32 324.578 236.399C320.459 237.972 316.339 239.783 312.286 241.531L307.416 243.371C312.312 237.728 319.196 234.192 326.634 233.499Z" fill="white"/>
<path d="M416.601 306.285C417.49 312.568 417.933 316.316 420.147 322.481C420.71 324.044 423.721 331.603 423.878 332.408L423.565 332.403C419.39 327.669 416.011 323.231 415.554 316.658C415.338 313.533 415.512 309.225 416.601 306.285Z" fill="white"/>
<path d="M378.667 350.107C378.895 350.824 378.611 352.959 378.488 353.777C377.455 360.706 371.423 364.806 365.498 367.049C365.305 366.381 366.94 365.179 367.503 364.674C372.266 360.392 375.743 355.765 378.667 350.107Z" fill="white"/>
<path d="M352.952 443.582C353.938 444.461 354.278 446.554 354.348 447.871C354.657 453.669 351.314 457.829 347.668 461.871L347.22 462.113C347.193 461.279 349.189 457.537 349.634 456.389C351.331 452.009 352.464 448.297 352.952 443.582Z" fill="white"/>
<path d="M338.617 270.343C338.847 270.982 337.975 275.116 337.77 276.093C336.864 280.412 337.548 283.399 337.607 287.281L337.402 287.318L336.971 286.534C334.003 279.678 333.02 276.18 338.617 270.343Z" fill="white"/>
<path d="M350.036 308.255C351.193 307.882 352.441 308.47 352.891 309.6C353.34 310.729 352.837 312.014 351.741 312.538C350.962 312.911 350.042 312.818 349.353 312.299C348.664 311.78 348.322 310.92 348.465 310.069C348.609 309.219 349.215 308.519 350.036 308.255Z" fill="white"/>
<path d="M474.064 283.424C473.024 283.707 471.398 284.219 470.404 283.865C470.955 283.342 472.328 283.115 473.136 282.913L474.064 283.424Z" fill="#BCBCBB"/>
</svg>
