<svg width="83" height="83" viewBox="0 0 83 83" fill="none" xmlns="http://www.w3.org/2000/svg">
<rect width="82.0773" height="82.0773" fill="white"/>
<path d="M27.6168 4.72513L27.6975 4.78196C27.7173 5.05546 27.0808 6.0139 26.9269 6.31572C24.5139 11.0491 22.1706 17.6624 25.9036 22.3679C26.3327 22.9087 26.777 23.3292 27.2858 23.7982C27.6034 23.5871 28.2757 23.2848 28.6328 23.1156C30.7851 22.0958 32.5551 21.6747 34.9263 21.6464C34.3446 21.3726 33.8082 21.1528 33.1975 20.9482C32.8335 20.8264 31.2469 20.4678 31.1455 20.2055C31.2209 20.0749 31.3768 20.0147 31.5229 19.9693C33.8455 19.2486 36.3086 19.2507 38.6172 20.0198C39.6502 20.3639 40.5085 20.7987 41.4635 21.2681C41.1539 20.648 40.6636 20.1165 40.1822 19.6244C40.0174 19.4559 39.3896 18.916 39.3398 18.7382L39.3971 18.6525C39.7193 18.5213 40.5187 18.6904 40.8498 18.7805C42.8804 19.333 44.5754 20.3808 45.6517 22.2052C45.8428 21.8773 46.0205 21.5364 46.2141 21.2123C46.3824 20.9316 46.7034 20.2116 47.1001 20.4344C47.3774 20.8483 47.3388 21.9779 47.3049 22.4895C48.9408 21.8828 51.2392 21.8474 52.861 22.3788C53.4534 22.5729 55.0674 23.1165 55.3422 23.6284L55.3224 23.691C55.085 23.7627 54.8125 23.7854 54.5652 23.8061C53.9183 23.8601 53.2838 23.9528 52.6416 24.0481C55.0215 24.7511 56.7944 26.1969 58.3527 28.0678C59.0979 27.8686 59.7465 27.7768 60.4767 27.4571C66.3728 24.8766 66.0801 18.3603 64.7416 13.0989C64.6325 12.6705 63.9762 10.9251 64.0607 10.7179C64.1848 10.6974 64.3325 10.7644 64.4299 10.8365C69.9744 14.9487 73.9748 23.9815 70.1414 30.4142C68.4037 33.3301 64.3402 35.5064 61.1717 36.2729C61.5834 36.9935 62.123 37.7015 62.6549 38.3401C63.0077 38.7634 63.4104 39.1439 63.7062 39.6095L63.6804 39.6799C63.0206 40.0939 61.0764 39.3519 60.4158 38.9944C61.4576 40.3594 62.7832 43.7711 59.5632 41.5215C60.4261 42.8616 60.7708 44.9692 58.5158 43.1705C59.2408 44.7283 59.835 45.7505 61.1378 46.9091C61.7083 47.4169 62.9498 48.4459 63.0489 49.234C63.2915 51.1572 62.5124 53.5512 61.5426 55.2142C61.0653 55.9899 60.3943 56.5476 59.525 56.7257C59.2675 59.4259 56.782 60.8184 54.4137 61.416C54.2488 62.1522 54.0548 62.9682 54.4978 63.6512C54.6266 63.8495 54.9575 64.1376 54.812 64.369C54.5931 64.4398 54.2836 64.3299 54.0647 64.2616C53.0498 63.9435 52.4364 63.2382 51.9732 62.3102C52.3415 66.1436 50.976 69.1781 47.8964 71.4906C47.5959 71.7164 46.7803 72.2788 46.3862 72.217C46.2883 72.0787 46.5785 71.631 46.682 71.4477C47.471 70.0521 47.635 68.7192 47.6693 67.1373C46.6537 69.8989 45.3997 72.6638 42.6535 74.1843C42.4614 74.2904 42.2133 74.417 42.0059 74.3496C41.9723 74.1586 42.3494 73.6636 42.4755 73.4752C42.7382 73.0437 42.929 72.5522 43.1209 72.0847C41.5473 73.6112 39.4994 74.8888 37.2536 75.1223C37.0362 75.145 36.585 75.1416 36.4188 74.9952C36.4297 74.9115 36.4287 74.8733 36.5169 74.8192C39.5507 72.9613 39.8034 69.6246 39.1553 66.381C39.0003 68.3835 38.132 71.1073 36.678 72.5205C36.4143 72.7767 35.7895 73.3356 35.3838 73.3318C35.2985 73.3284 35.18 73.2661 35.1776 73.1682C35.1517 72.1053 35.2324 71.2584 35.004 70.1951C34.499 67.8435 32.9753 66.0934 31.3954 64.3874C31.3909 64.5188 31.3786 64.6493 31.3589 64.7789C31.1546 66.1303 30.6211 67.9276 29.4775 68.7643C29.3513 68.4441 29.2817 67.9671 29.1968 67.6181C29.0709 67.1193 28.9115 66.6291 28.7194 66.1517C28.3531 65.2374 27.9108 64.4226 27.4993 63.5357C26.6016 61.6014 25.9401 59.8757 25.4949 57.795C25.4224 58.3999 25.4489 59.1644 25.4687 59.8131C25.49 60.5085 25.6854 61.4512 25.6179 62.1603C25.6131 62.2101 25.5825 62.2084 25.5278 62.2325C25.3168 62.153 25.0992 61.9174 24.9467 61.753C22.3795 58.9768 21.3947 55.0005 21.7537 51.2962C21.8585 50.2158 22.0853 49.1662 22.3106 48.1175C21.6145 49.3611 21.0923 50.9979 20.6574 52.3471C20.4774 52.906 20.1877 53.6143 20.093 54.1758C19.9835 53.607 19.8466 53.0425 19.769 52.4725C19.4245 49.944 19.9256 47.5779 20.8269 45.2139C18.7986 47.8934 17.9395 51.6182 19.501 54.6952C19.6016 54.8936 19.7012 55.0889 19.8078 55.2842C20.1101 54.9331 20.6594 53.8689 20.9239 53.4044C20.8223 54.9863 20.498 56.5901 20.6581 58.1801C20.6836 58.4325 20.7897 59.2018 20.6822 59.3748L20.5786 59.398C20.3738 59.3327 20.2893 59.2593 20.1355 59.1073C18.2843 57.2743 17.0675 54.6034 16.5436 52.0801C16.2926 50.8708 16.2422 49.7706 16.2208 48.557C15.3895 49.4637 14.8339 50.4849 14.1971 51.5293C14.05 51.7706 13.5281 52.6811 13.2325 52.621C12.9214 52.1934 12.8667 51.222 12.8261 50.6862C12.625 48.0363 13.0848 45.7118 13.8755 43.1954C13.5015 43.5577 11.0357 46.2063 10.7721 46.2184L10.7031 46.1419C10.6675 45.9333 10.6853 45.671 10.7148 45.4624C11.2098 41.9652 13.547 37.3483 16.3364 35.1701C15.542 35.4325 12.4132 36.1359 11.9197 35.433L11.9431 35.3366C12.2359 35.0731 13.0526 34.597 13.4411 34.316C14.7169 33.3933 15.9293 32.4083 17.3022 31.6338C17.738 31.3879 18.1092 31.1337 18.5842 30.9496C18.0351 30.9541 14.6244 30.6989 14.8119 30.0012C15.2592 29.7783 15.9015 29.6159 16.3835 29.4401C17.1633 29.1556 17.9414 28.8687 18.7157 28.5691C20.2327 29.9106 21.734 31.0649 23.837 31.2832L23.6197 31.1646C20.6332 29.519 17.5944 26.7663 16.69 23.3879C15.7662 19.9369 16.7475 15.9811 18.4371 12.9376C20.0916 10.0086 22.4707 7.55371 25.3464 5.80827C26.0956 5.35608 26.7684 4.96857 27.6168 4.72513Z" fill="#000100"/>
<path d="M56.586 39.6475C56.6285 39.7364 56.789 40.8874 56.8384 41.1125C57.1569 42.5662 57.645 44.0617 58.3696 45.3654C58.7959 46.1402 59.3943 46.7382 59.9678 47.3877C60.5241 48.0174 61.587 48.5029 61.9167 49.2233C62.3571 50.1861 60.9122 50.6948 60.3941 51.2636C59.9824 51.7156 59.7849 52.0251 59.5166 52.6004C59.5548 51.5654 59.7888 51.1906 60.2584 50.2943C60.0137 50.3402 59.39 50.5377 59.1191 50.6274C58.1653 50.9425 57.299 50.4836 56.3658 50.1337C56.4718 50.3583 56.5898 50.6888 56.6538 50.9197C56.8264 51.5422 56.7409 51.9079 56.4228 52.4347C55.2544 54.3703 55.3505 54.3844 53.147 54.9176C52.0086 55.1932 50.68 55.4804 49.5832 54.8558C48.9831 54.5141 48.656 53.9586 48.4967 53.3112C48.6448 52.8493 48.9329 52.3952 49.1681 51.9646C47.7635 52.6961 47.4463 53.3808 46.8698 54.7935C46.753 53.953 47.178 52.0869 47.5639 51.3069C47.7064 51.0189 48.2868 50.0908 48.2718 49.9157C48.1486 49.9024 48.1503 49.9367 48.0159 50.0239C47.2771 50.5132 46.7654 51.0219 46.2194 51.7075C46.4959 50.5785 46.9689 49.507 47.6176 48.5424C46.7539 48.9537 46.1855 49.4739 45.4862 50.1037C45.5154 48.466 46.0567 47.2555 47.0599 45.9848C47.3445 45.6246 47.8464 44.9691 48.0558 44.5776L48.0825 44.527C48.2464 45.1168 48.3186 46.0582 48.3585 46.6759C49.0874 45.6088 49.281 44.2647 48.8831 43.0354C48.5019 41.8789 48.2486 41.8732 48.1035 40.5036C48.8813 41.6942 49.3561 42.31 50.7736 42.7846C50.2142 41.5735 50.1009 41.1315 50.2203 39.8194C51.4935 41.8062 53.0895 43.1889 55.4123 43.8075C54.9899 42.809 54.6074 41.7254 54.5379 40.6423C55.138 41.5843 55.5428 42 56.446 42.6009C56.2825 41.5082 56.2752 40.702 56.586 39.6475Z" fill="white"/>
<path d="M51.7374 48.7794C52.6006 48.6892 53.7133 49.0833 54.413 49.5757C55.2334 50.153 56.2581 51.1503 55.8125 52.2578C55.7949 52.3016 55.7052 52.2878 55.6631 52.2891C55.1969 52.0882 54.4701 51.7534 53.9722 51.8749C52.107 52.329 51.4124 50.6845 51.5287 49.1339C51.5425 48.9524 51.5854 48.8931 51.7374 48.7794Z" fill="#000100"/>
<path d="M52.6435 46.5506C54.2954 46.4604 55.8275 47.5654 57.2956 48.1573C58.1988 48.5209 58.8041 48.4596 59.6712 48.0693C58.9088 48.9034 58.3928 49.155 57.2557 48.9863C56.5521 48.8141 56.0116 48.5583 55.3703 48.2316C53.4042 47.2305 52.225 46.9069 50.0778 47.5881C51.0166 46.927 51.4763 46.6497 52.6435 46.5506Z" fill="#000100"/>
<path d="M46.1658 24.1404C48.2941 23.6567 49.2999 23.5463 51.457 24.1049C50.8616 24.1982 50.1808 24.3133 49.6043 24.4793C52.6255 25.0509 55.1256 26.7737 57.2025 28.9766C57.5467 29.3418 57.8721 29.7355 58.2168 30.0924C57.4549 29.7948 56.9934 29.6633 56.258 29.248C55.7858 28.9811 55.1681 28.5066 54.7328 28.2886C55.9 29.4948 56.5937 30.5254 57.4201 32.0034C58.3353 33.6407 59.3209 35.7545 60.6006 37.1501C59.3802 36.6798 58.5418 36.1658 57.615 35.2144C57.5794 37.2128 57.6871 38.2697 58.571 40.1111C57.1389 38.808 56.7397 37.7006 56.3911 35.8716C56.0245 37.3209 55.9052 38.0251 55.1977 39.375C55.6566 35.8262 55.0046 32.8655 52.337 30.307C53.6081 32.9726 53.7798 33.5829 53.867 36.5206C53.6141 35.6779 53.3287 34.7645 52.9423 33.9727C52.14 32.3291 50.6968 30.7439 49.2454 29.6392C48.529 29.0938 47.8194 28.6921 47.0789 28.1063C48.3633 30.2795 48.826 31.8617 48.708 34.4273C48.6762 35.1219 48.6161 35.9033 48.4409 36.5788C48.4306 36.6193 48.4195 36.6596 48.4083 36.6997C47.4047 32.3971 44.2029 32.1315 42.9571 28.4629C42.2904 30.2543 42.3465 31.4607 43.1253 33.2541C41.6884 32.1696 40.2876 31.0904 39.5387 29.3871C38.855 27.8321 38.9783 26.7906 39.8904 25.4017C39.5646 27.6677 40.1593 28.7534 41.5365 30.4771C41.0094 28.4068 41.5408 26.883 42.7475 25.1751C43.6824 26.4348 44.3317 27.1835 45.8026 27.8953C45.5614 27.3477 45.3776 26.7621 45.2004 26.1902C47.8048 27.1084 49.09 27.8303 51.0986 29.668C50.0851 27.8461 48.9874 26.6952 47.166 25.6399C46.8913 25.4806 46.4963 25.251 46.2027 25.1527L46.2152 25.1268C46.5526 25.1453 46.8582 25.2558 47.1832 25.3204C48.7183 25.6257 50.6358 26.2925 51.9447 27.1749L52.1001 27.0854C50.6268 25.4255 48.3701 24.3484 46.1658 24.1404Z" fill="white"/>
<path d="M52.1 27.0854L52.552 27.5793L51.9446 27.1749L52.1 27.0854Z" fill="#000100"/>
<path d="M25.5349 6.86697C25.537 6.87753 25.5566 6.95 25.5529 6.95661C23.6403 10.3673 22.2113 14.3403 22.7668 18.3044C22.9807 19.831 23.7062 21.7586 24.6587 22.9894C26.5286 25.4056 29.5578 26.8069 32.5427 27.1906C33.3677 27.2966 34.2446 27.3036 35.0721 27.3005C33.8897 27.9921 33.2076 28.0826 31.8688 28.0707C33.0443 28.5133 34.4271 28.4809 35.649 28.2963C34.2362 28.9406 33.472 29.1424 31.9512 29.0719C33.5048 29.6949 34.493 29.486 36.0084 29.4646C33.1207 30.3559 31.0546 29.9878 28.275 29.0208C28.168 28.9811 28.0616 28.9397 27.956 28.8967C24.8704 27.6413 22.4217 25.6542 21.0985 22.5379C21.2714 23.8008 21.8201 24.9776 22.4131 26.0852C20.3199 24.0477 19.4805 21.2789 19.5936 18.4195C19.7021 15.6756 20.5726 13.5513 21.9276 11.2057C20.8678 12.1565 19.9927 13.4128 19.3645 14.6798C19.1564 15.0993 18.9934 15.5307 18.7721 15.9412L18.7835 15.8869C19.6818 11.7392 22.0477 9.10354 25.5349 6.86697Z" fill="white"/>
<path d="M66.143 13.6588C68.5598 16.3334 70.2696 19.9551 70.1721 23.6368C70.0468 28.3589 66.5671 31.6085 62.2014 32.8539L62.0387 32.7641C63.4617 32.2558 64.3868 31.636 65.5845 30.7171C65.1213 30.8526 64.6882 31.1675 64.246 31.3655C62.999 31.9242 61.6682 32.2741 60.31 32.4218C60.0292 32.4523 59.6862 32.4869 59.4154 32.5375C59.1574 32.1284 58.8929 31.7234 58.6221 31.3228C59.0771 31.4969 60.1443 31.8641 60.6834 31.781C60.7736 31.7671 60.7903 31.6756 60.8097 31.6098C60.7148 31.1814 59.8957 30.4803 59.5884 30.0723C59.3506 29.757 59.2085 29.6014 58.9844 29.2319C61.9356 28.6086 63.7854 27.3397 65.5171 24.8362C67.3029 22.2552 67.2818 18.7407 66.6414 15.7459C66.4864 15.0476 66.3207 14.3517 66.143 13.6588Z" fill="white"/>
<path d="M68.6054 22.13L68.6496 22.1659C68.8222 22.5079 68.8363 24.2257 68.8175 24.623C68.7157 26.73 67.3013 27.9095 65.8065 29.2026C65.7627 29.2463 65.7911 29.2268 65.7151 29.2501C65.7284 29.1657 66.2697 28.3702 66.3676 28.2087C67.8091 25.825 68.3684 24.9231 68.6054 22.13Z" fill="#000100"/>
<path d="M26.4196 31.5711C28.549 31.5937 30.5126 32.5265 32.4392 33.3491C30.8059 33.3826 29.1464 32.9307 27.5511 32.9399C25.5238 32.9517 23.8476 33.6175 22.4394 35.0657C23.2246 35.0643 24.6053 35.1611 25.3382 35.4014C24.9921 35.7204 24.3743 36.084 23.9593 36.3505C24.7924 36.5164 25.4954 36.6495 26.3052 36.8946C26.0733 37.0505 25.9156 37.1835 25.701 37.3639C26.2136 37.6348 26.6334 37.739 27.1821 37.9116C27.4115 38.1968 27.4791 38.3158 27.7796 38.5218C27.8931 38.5767 28.0083 38.6283 28.1249 38.6762C29.1769 39.1011 30.3431 38.6354 31.3278 38.2274C28.243 41.2302 24.6069 38.9487 21.8702 36.7722C22.2893 36.5759 22.7837 36.3042 23.2018 36.0888C22.491 36.0004 21.4905 35.9759 20.8574 35.6518C20.3243 35.3789 21.5456 34.0949 21.8005 33.7912C23.0554 32.2956 24.4816 31.6862 26.4196 31.5711Z" fill="white"/>
<path d="M35.3074 38.0663L35.3519 38.1408C35.1444 39.6994 35.1121 40.814 35.33 42.371C35.4605 43.3036 35.238 44.4708 34.9886 45.3868C36.4267 44.075 36.9087 42.9932 37.4153 41.168C37.5003 41.6143 37.5771 42.2182 37.5263 42.666C37.32 44.4875 36.621 45.5491 37.1652 47.4422C37.5619 47.0485 37.8595 46.5484 38.2177 46.117C38.6044 45.6513 39.0115 45.2409 39.3994 44.7721C38.5163 46.9429 38.0131 48.9322 38.3451 51.2954C38.4361 51.9431 38.5234 52.46 38.7565 53.0841C37.6554 51.9054 37.249 50.921 36.9662 49.3336C36.9154 48.7961 36.78 48.1252 36.6728 47.5976C35.9868 49.3538 35.9265 50.2312 36.2007 52.1221C36.0199 51.871 35.847 51.6332 35.6884 51.3671C34.369 49.1524 35.8917 47.1623 36.4159 45.0623C35.1878 46.1385 34.661 46.9631 32.9476 47.4006C34.1256 45.9307 34.4136 44.072 34.437 42.2504C33.7651 43.2928 33.4482 43.6659 32.502 44.4656C32.781 43.8324 33.1858 43.1121 33.429 42.479C34.0292 40.9167 34.5425 39.5684 35.3074 38.0663Z" fill="white"/>
<path d="M30.2044 41.2977C30.1978 41.3842 29.8104 42.2375 29.7322 42.4139C29.414 43.1331 29.271 43.847 29.0205 44.5793C29.6709 43.9217 30.3467 43.2898 31.0464 42.6853C29.828 44.9773 29.6815 47.8603 30.4036 50.3217C30.5031 50.6609 30.6166 51.1219 30.7993 51.4142L30.8572 51.4009C30.9479 50.0582 31.4018 48.9137 32.0024 47.7367C31.8498 49.6323 31.7133 50.7532 31.7269 52.6918C31.7677 53.4507 31.83 54.2874 31.8161 55.0412C29.177 51.9504 28.3452 49.1451 29.6028 45.1477C29.2727 45.4954 27.8339 47.4709 27.5075 47.2906C27.4331 47.0563 27.624 46.3668 27.6742 46.1041C28.0478 44.1488 28.8229 42.7248 30.2044 41.2977Z" fill="white"/>
<path d="M56.0004 56.038C56.0271 56.0341 56.0537 56.0311 56.0803 56.029C56.9899 55.9448 57.6441 56.1741 58.3314 56.7467C58.3048 56.8519 58.2773 56.9566 58.2486 57.0614C57.8678 58.4342 56.856 59.1661 55.6617 59.8461C55.9554 59.3769 56.0558 59.0918 56.1661 58.5552C55.7506 58.6209 55.22 58.8244 54.8126 58.9734C54.0653 59.2459 53.5978 59.3867 52.8101 59.485C53.1114 59.2472 53.4347 58.9321 53.7197 58.6673C53.2776 58.7853 52.9504 58.8575 52.4997 58.9399C52.2091 58.9463 52.0108 58.9669 51.7206 59.003C51.8936 58.8712 52.2992 58.6042 52.3147 58.3921C52.1074 58.3415 51.5171 58.4131 51.2115 58.3951C50.7362 58.3668 50.4289 58.3131 49.9623 58.2329C50.7706 58.0577 50.826 58.0976 51.6489 57.695C50.589 57.6666 49.6957 57.6336 49.2686 56.5162C51.2419 57.4967 53.8343 56.2754 56.0004 56.038Z" fill="white"/>
<path d="M17.6329 38.4549C17.6332 38.4953 17.0686 39.9362 16.9963 40.1239C16.4587 41.5211 16.5054 42.8376 16.3337 44.2823C16.7698 43.8006 17.1635 43.3018 17.6173 42.8198C18.4721 41.9118 19.3152 41.221 20.3005 40.4695C19.5392 41.6636 18.9291 42.5838 18.0601 43.7148C16.9254 45.1074 15.9092 46.6047 14.7623 47.944C14.7382 47.0198 14.708 46.1342 14.7927 45.2117C15.0202 42.7326 15.9604 40.315 17.6329 38.4549Z" fill="white"/>
<path d="M42.7827 49.1031C42.8656 49.2065 42.6521 50.2814 42.6216 50.4965C42.3135 52.6673 42.7345 53.7336 43.2414 55.6963C43.7524 53.8161 43.8196 53 44.8381 51.2095C44.4862 52.6978 44.417 54.1131 44.8038 55.6014C45.0146 56.3114 45.1927 56.7587 45.5108 57.4233C44.6789 56.727 44.4194 56.4514 43.8707 55.4962C43.6265 56.0354 43.5242 56.6184 43.2457 57.1275C41.2654 54.2861 41.2782 52.132 42.7827 49.1031Z" fill="white"/>
<path d="M38.396 36.8993C38.7231 37.0066 39.0523 37.1071 39.3835 37.2007C39.4477 38.4597 39.7559 39.3303 41.2134 39.5189C41.9739 39.6172 42.4988 39.2426 43.0653 38.7763C43.7214 39.2902 43.9042 39.7349 44.1872 40.4958C44.2273 40.6739 44.2896 40.8749 44.3398 41.0529C43.3583 40.7343 42.7905 40.7857 41.7895 40.8096C40.9252 40.8302 39.8885 40.6504 39.2639 40.0023C38.3772 39.0822 38.3873 38.0734 38.396 36.8993Z" fill="white"/>
<path d="M33.4132 53.6461C33.4564 53.6851 33.4781 53.722 33.4852 53.7839C33.5607 54.4428 33.6614 55.1017 33.8665 55.7353C34.133 56.5595 34.6838 57.2391 35.1263 57.9753C35.0638 56.7094 35.0548 56.1135 35.3719 54.8742C35.521 56.0955 35.2915 56.3973 35.8134 57.7929C36.1055 58.5188 36.4712 59.1086 36.9292 59.7383C35.7471 59.2807 35.0235 58.8944 34.2215 57.8448C33.4234 56.8008 33.197 54.93 33.4132 53.6461Z" fill="white"/>
<path d="M60.9539 52.3359C61.4562 52.317 61.5961 52.3827 62.0752 52.548C61.8082 53.6405 60.9968 54.5557 60.0864 55.1773L59.6661 55.3868C59.4746 55.3379 59.2647 55.2945 59.1445 55.1378C59.1737 54.8927 59.363 54.6931 59.4382 54.4664C59.7365 53.5628 59.8528 52.5669 60.9539 52.3359Z" fill="white"/>
<path d="M49.9761 32.2648C50.0413 32.2975 50.0439 32.2998 50.0933 32.3526C51.6713 34.0355 51.1871 36.3659 51.0677 38.4539L51.0291 38.5229L50.9793 38.5161C50.0048 36.8593 50.2251 36.3828 50.2186 34.6055C50.2199 33.8189 50.1383 33.0344 49.9761 32.2648Z" fill="white"/>
<path d="M32.5815 61.7224C32.6089 61.7405 32.635 61.7568 32.6577 61.7808C34.0336 63.2644 35.0903 65.6851 35.2423 67.6632C35.1299 67.5838 34.8305 67.0124 34.745 66.8518C33.8445 65.1571 33.0262 63.5967 32.5815 61.7224Z" fill="white"/>
<path d="M44.7625 61.9735L44.8157 62.0354C44.8449 62.271 44.7861 62.8076 44.7582 63.0605C44.5569 64.8553 43.3365 66.4058 41.9672 67.503C42.2006 66.9428 42.4217 66.4869 42.6429 65.904C42.9597 65.0364 42.9322 63.9207 42.9472 62.9905C43.2361 63.8473 43.3752 64.5221 43.2684 65.4232C44.1882 64.0929 44.3962 63.5511 44.7625 61.9735Z" fill="white"/>
<path d="M44.2466 32.3647C44.6887 32.6914 45.2476 33.2219 45.5962 33.6401C46.8887 35.1913 47.0158 36.489 46.8711 38.3886L46.8046 38.377C46.4431 36.5803 46.2186 35.8339 45.2317 34.2478C44.9965 33.8702 44.3762 32.7746 44.2466 32.3647Z" fill="white"/>
<path d="M33.0682 34.3747L33.107 34.413C33.0941 34.5455 32.7396 35.0249 32.6334 35.2448C32.3875 35.754 32.2576 36.1176 32.1225 36.6667C32.4983 36.1329 32.7466 35.8113 33.1741 35.3286C32.7239 36.5166 32.5848 36.9673 32.3375 38.2378C32.2792 38.4657 32.252 38.6914 32.2187 38.9241C31.9856 38.3486 31.7762 37.8911 31.6421 37.2751C31.4144 37.3142 31.182 37.3487 30.9535 37.3848C31.5191 36.1215 32.1149 35.3522 33.0682 34.3747Z" fill="white"/>
<path d="M46.8196 65.2417L46.8608 65.3151C46.6324 66.8776 44.8196 69.2137 43.7303 70.4157C43.6317 70.3251 43.7012 70.0757 43.7384 69.9542C44.2978 68.1247 45.8494 66.8407 46.8196 65.2417Z" fill="white"/>
<path d="M27.6375 52.05C27.6682 52.074 27.7163 52.1122 27.7199 52.1569C27.8074 53.2391 28.0114 54.3204 28.3292 55.3576C28.4939 55.895 29.5175 57.9933 29.184 58.4355C27.6881 56.3578 27.3152 54.5685 27.6375 52.05Z" fill="white"/>
<path d="M25.0486 45.7054C25.1078 45.9384 25.0456 46.5557 25.0177 46.7996C24.9796 47.1271 24.9217 47.4516 24.8446 47.7723C24.6711 48.5077 24.4176 49.2731 24.225 50.0084C24.149 50.299 23.8474 51.6774 23.7026 51.7916C23.2864 49.5268 24.3102 47.7217 25.0486 45.7054Z" fill="white"/>
<path d="M50.7552 63.5632C50.7977 63.7495 50.7719 64.268 50.7676 64.4835C50.7341 66.0993 50.2267 67.1154 49.3961 68.444C49.5708 67.6653 49.6073 66.9192 49.6223 66.1247C49.6004 65.2412 49.3914 64.3299 49.1213 63.4928C49.6609 64.2195 49.9949 64.9708 50.134 65.8615C50.3031 65.2236 50.5667 64.1208 50.7552 63.5632Z" fill="white"/>
<path d="M39.981 35.7733C40.7638 35.6431 41.6224 35.8428 42.2664 36.3028C42.7827 36.6716 43.0568 37.1513 43.3635 37.6863L42.8622 37.3131C42.386 37.016 41.7737 36.7084 41.2268 36.577C40.2789 36.3493 40.0405 36.5164 39.2157 35.9273C39.5035 35.853 39.6866 35.8181 39.981 35.7733Z" fill="white"/>
<path d="M36.3518 24.1003C36.7419 24.0748 37.1171 24.0885 37.507 24.097C37.0058 24.2763 36.4864 24.4196 35.9914 24.6088C35.2692 24.8847 34.5469 25.2021 33.8362 25.5086L32.9824 25.8311C33.8408 24.8419 35.0477 24.2219 36.3518 24.1003Z" fill="white"/>
<path d="M52.1262 36.862C52.282 37.9636 52.3597 38.6208 52.7478 39.7017C52.8465 39.9759 53.3745 41.3012 53.402 41.4424L53.3471 41.4414C52.6151 40.6113 52.0227 39.8333 51.9425 38.6808C51.9047 38.1328 51.9352 37.3776 52.1262 36.862Z" fill="white"/>
<path d="M45.4752 44.5454C45.5151 44.6712 45.4653 45.0455 45.4438 45.1889C45.2627 46.4037 44.2051 47.1228 43.1662 47.516C43.1325 47.3988 43.4192 47.188 43.5177 47.0996C44.353 46.3488 44.9626 45.5375 45.4752 44.5454Z" fill="white"/>
<path d="M40.9665 60.9347C41.1394 61.0888 41.199 61.4558 41.2113 61.6868C41.2655 62.7033 40.6793 63.4326 40.04 64.1414L39.9615 64.1839C39.9568 64.0375 40.3068 63.3816 40.3847 63.1802C40.6823 62.4123 40.881 61.7615 40.9665 60.9347Z" fill="white"/>
<path d="M38.4528 30.5604C38.4933 30.6724 38.3403 31.3972 38.3044 31.5684C38.1456 32.3257 38.2655 32.8495 38.2759 33.5301L38.2399 33.5365L38.1643 33.3991C37.644 32.1971 37.4716 31.5837 38.4528 30.5604Z" fill="white"/>
<path d="M40.4552 37.2074C40.6582 37.1421 40.877 37.2452 40.9558 37.4433C41.0346 37.6413 40.9464 37.8666 40.7541 37.9585C40.6177 38.0238 40.4562 38.0076 40.3354 37.9165C40.2147 37.8255 40.1547 37.6747 40.1799 37.5256C40.2051 37.3764 40.3113 37.2537 40.4552 37.2074Z" fill="white"/>
<path d="M62.2013 32.8539C62.0189 32.9034 61.7339 32.9932 61.5596 32.9311C61.6562 32.8394 61.897 32.7996 62.0386 32.7641L62.2013 32.8539Z" fill="#BCBCBB"/>
</svg>
