<svg width="103" height="103" viewBox="0 0 103 103" fill="none" xmlns="http://www.w3.org/2000/svg">
<path d="M48.4904 0H54.1647C54.6743 0.171782 55.6769 0.18611 56.2356 0.225664C56.8527 0.273802 57.4682 0.336495 58.0821 0.413689C60.005 0.648101 62.4166 1.14354 64.2819 1.64487C78.1031 5.26177 89.7935 14.4713 96.5452 27.0617C99.193 32.0035 101.018 37.3437 101.948 42.8726C102.1 43.7817 102.222 44.6956 102.315 45.6129C102.372 46.1497 102.459 47.8885 102.597 48.2349V54.4321C102.436 54.9334 102.412 55.8564 102.371 56.4023C102.325 56.9519 102.264 57.5004 102.189 58.0466C101.89 60.297 101.442 62.5248 100.847 64.7154C97.2425 77.9746 88.4767 89.2371 76.5084 95.986C71.5122 98.8102 66.0768 100.775 60.4295 101.798C59.4689 101.974 58.6148 102.111 57.665 102.236C57.0274 102.32 55.1638 102.438 54.7132 102.597H47.7659C47.285 102.433 45.8465 102.332 45.2635 102.262C44.2307 102.134 43.2018 101.975 42.178 101.788C37.9438 101.018 33.8226 99.7217 29.9101 97.9285C16.2599 91.6854 6.035 79.7689 1.93756 65.3287C1.40369 63.4403 0.854196 61.0698 0.562543 59.1182C0.447249 58.3166 0.347041 57.5133 0.261973 56.7083C0.211116 56.1931 0.171037 54.645 0 54.2506V48.4384C0.132211 48.1335 0.227889 46.0916 0.282557 45.5793C0.390222 44.6081 0.523622 43.64 0.682618 42.6758C1.76971 36.386 4.01102 30.3517 7.29339 24.8772C14.2755 13.2173 25.6089 4.81357 38.7942 1.51943C40.8117 1.01085 42.8078 0.660418 44.8646 0.375551C45.9109 0.230633 47.5467 0.264305 48.4904 0Z" fill="white"/>
<path d="M37.4684 13.3333L37.5532 13.393C37.574 13.6803 36.9053 14.6872 36.7436 15.0042C34.2086 19.9769 31.7468 26.9245 35.6686 31.8679C36.1194 32.436 36.5862 32.8777 37.1207 33.3705C37.4543 33.1487 38.1606 32.8311 38.5358 32.6533C40.7968 31.582 42.6563 31.1396 45.1474 31.1099C44.5363 30.8223 43.9728 30.5913 43.3312 30.3764C42.9488 30.2484 41.282 29.8717 41.1755 29.5962C41.2547 29.4589 41.4184 29.3957 41.5719 29.348C44.012 28.5908 46.5996 28.5931 49.0249 29.401C50.11 29.7625 51.0118 30.2193 52.015 30.7125C51.6898 30.0611 51.1747 29.5027 50.669 28.9857C50.4958 28.8087 49.8362 28.2415 49.784 28.0547L49.8441 27.9647C50.1827 27.8269 51.0225 28.0044 51.3703 28.0991C53.5036 28.6796 55.2842 29.7803 56.415 31.697C56.6157 31.3525 56.8024 30.9944 57.0057 30.6539C57.1825 30.3589 57.5199 29.6026 57.9366 29.8367C58.2279 30.2714 58.1873 31.4581 58.1517 31.9956C59.8703 31.3582 62.2849 31.3211 63.9886 31.8793C64.611 32.0832 66.3066 32.6544 66.5953 33.1921L66.5745 33.2578C66.3251 33.3332 66.0388 33.357 65.779 33.3787C65.0994 33.4355 64.4328 33.5329 63.7582 33.633C66.2584 34.3715 68.1209 35.8904 69.7579 37.8559C70.5408 37.6466 71.2223 37.5502 71.9894 37.2143C78.1835 34.5034 77.8759 27.6576 76.4698 22.1303C76.3553 21.6802 75.6657 19.8466 75.7546 19.6289C75.8849 19.6074 76.04 19.6778 76.1424 19.7536C81.9672 24.0736 86.1698 33.5631 82.1426 40.3209C80.3171 43.3842 76.0481 45.6705 72.7195 46.4757C73.152 47.2328 73.7189 47.9766 74.2776 48.6474C74.6483 49.0921 75.0713 49.4918 75.3821 49.981L75.355 50.055C74.6618 50.4899 72.6194 49.7104 71.9253 49.3348C73.0198 50.7688 74.4125 54.3529 71.0297 51.9897C71.9362 53.3975 72.2983 55.6116 69.9293 53.722C70.691 55.3586 71.3152 56.4324 72.6839 57.6496C73.2832 58.1831 74.5874 59.2641 74.6916 60.092C74.9464 62.1124 74.1279 64.6275 73.1091 66.3746C72.6077 67.1895 71.9028 67.7753 70.9896 67.9625C70.719 70.7991 68.1078 72.262 65.6198 72.8898C65.4466 73.6632 65.2428 74.5205 65.7082 75.238C65.8435 75.4464 66.1912 75.749 66.0383 75.9921C65.8083 76.0665 65.4832 75.951 65.2532 75.8793C64.1871 75.5451 63.5426 74.8042 63.056 73.8292C63.443 77.8564 62.0084 81.0443 58.7731 83.4737C58.4574 83.7109 57.6006 84.3017 57.1866 84.2368C57.0838 84.0916 57.3886 83.6212 57.4973 83.4286C58.3262 81.9625 58.4985 80.5622 58.5345 78.9004C57.4675 81.8015 56.1502 84.7062 53.2652 86.3036C53.0634 86.415 52.8027 86.548 52.5848 86.4772C52.5496 86.2765 52.9457 85.7566 53.0782 85.5586C53.3541 85.1053 53.5546 84.589 53.7562 84.0979C52.103 85.7015 49.9517 87.0436 47.5923 87.289C47.3639 87.3129 46.8899 87.3093 46.7153 87.1555C46.7267 87.0675 46.7257 87.0274 46.8184 86.9706C50.0055 85.0188 50.271 81.5133 49.5901 78.1058C49.4273 80.2096 48.5151 83.071 46.9877 84.5556C46.7106 84.8248 46.0542 85.412 45.628 85.408C45.5384 85.4043 45.4139 85.339 45.4114 85.2361C45.3841 84.1195 45.469 83.2297 45.229 82.1127C44.6984 79.6422 43.0977 77.8036 41.438 76.0114C41.4332 76.1494 41.4204 76.2865 41.3996 76.4227C41.185 77.8424 40.6245 79.7306 39.4231 80.6096C39.2906 80.2732 39.2174 79.7721 39.1282 79.4055C38.996 78.8815 38.8285 78.3664 38.6267 77.865C38.2419 76.9044 37.7773 76.0484 37.3449 75.1167C36.4019 73.0846 35.7069 71.2717 35.2392 69.0858C35.163 69.7213 35.1908 70.5244 35.2117 71.2059C35.2341 71.9364 35.4394 72.9268 35.3684 73.6718C35.3634 73.7241 35.3313 73.7223 35.2738 73.7476C35.0521 73.6641 34.8235 73.4165 34.6633 73.2438C31.9663 70.3274 30.9318 66.15 31.3089 62.2585C31.419 61.1234 31.6572 60.0208 31.894 58.9191C31.1627 60.2255 30.614 61.9451 30.1572 63.3625C29.9681 63.9497 29.6638 64.6938 29.5643 65.2837C29.4492 64.6861 29.3055 64.0931 29.2239 63.4942C28.862 60.838 29.3884 58.3522 30.3353 55.8687C28.2044 58.6837 27.3019 62.5968 28.9423 65.8293C29.048 66.0377 29.1527 66.2429 29.2647 66.4481C29.5823 66.0792 30.1593 64.9612 30.4371 64.4733C30.3304 66.1351 29.9898 67.8199 30.158 69.4904C30.1847 69.7555 30.2962 70.5637 30.1833 70.7454L30.0744 70.7698C29.8593 70.7012 29.7705 70.6241 29.609 70.4645C27.6641 68.5388 26.3858 65.7328 25.8355 63.082C25.5717 61.8116 25.5188 60.6558 25.4963 59.3809C24.623 60.3333 24.0393 61.4062 23.3703 62.5034C23.2158 62.7569 22.6675 63.7134 22.357 63.6502C22.0302 63.2011 21.9727 62.1805 21.93 61.6177C21.7188 58.8338 22.2018 56.3918 23.0324 53.7482C22.6396 54.1288 20.0491 56.9113 19.7722 56.924L19.6997 56.8437C19.6624 56.6245 19.681 56.349 19.712 56.1298C20.232 52.4558 22.6873 47.6056 25.6178 45.3172C24.7832 45.5929 21.4962 46.3319 20.9778 45.5934L21.0023 45.4922C21.31 45.2153 22.168 44.7152 22.5761 44.42C23.9164 43.4506 25.1901 42.4158 26.6324 41.6021C27.0903 41.3438 27.4802 41.0768 27.9792 40.8833C27.4024 40.8881 23.8192 40.62 24.0162 39.887C24.4862 39.6528 25.1609 39.4823 25.6673 39.2976C26.4865 38.9987 27.3039 38.6972 28.1173 38.3825C29.7111 39.7918 31.2882 41.0045 33.4975 41.2338L33.2692 41.1092C30.1317 39.3804 26.9393 36.4886 25.9893 32.9395C25.0187 29.314 26.0497 25.1582 27.8247 21.9609C29.5628 18.8838 32.0621 16.3048 35.0832 14.4712C35.8703 13.9961 36.5771 13.589 37.4684 13.3333Z" fill="#000100"/>
<path d="M67.9022 50.021C67.9468 50.1144 68.1155 51.3236 68.1674 51.5601C68.502 53.0873 69.0147 54.6583 69.776 56.0279C70.2238 56.8419 70.8525 57.4701 71.455 58.1524C72.0394 58.814 73.156 59.3241 73.5024 60.0808C73.9651 61.0923 72.4471 61.6267 71.9028 62.2243C71.4703 62.6992 71.2628 63.0243 70.981 63.6286C71.0211 62.5413 71.2669 62.1476 71.7603 61.206C71.5032 61.2542 70.8479 61.4617 70.5634 61.5559C69.5613 61.887 68.6513 61.4049 67.6708 61.0373C67.7822 61.2732 67.9062 61.6204 67.9734 61.8631C68.1547 62.517 68.065 62.9012 67.7308 63.4545C66.5033 65.488 66.6043 65.5029 64.2894 66.063C63.0934 66.3525 61.6977 66.6542 60.5454 65.998C59.915 65.6391 59.5713 65.0555 59.404 64.3754C59.5596 63.8902 59.8622 63.4131 60.1093 62.9607C58.6338 63.7292 58.3005 64.4485 57.6948 65.9327C57.5722 65.0496 58.0186 63.0893 58.4241 62.2698C58.5738 61.9672 59.1835 60.9922 59.1677 60.8082C59.0383 60.7943 59.0401 60.8303 58.8989 60.9219C58.1228 61.436 57.5852 61.9704 57.0116 62.6906C57.302 61.5045 57.799 60.3789 58.4804 59.3656C57.5731 59.7976 56.976 60.3442 56.2413 61.0058C56.272 59.2853 56.8407 58.0135 57.8946 56.6787C58.1936 56.3003 58.7208 55.6116 58.9409 55.2004L58.9688 55.1471C59.1411 55.7668 59.2169 56.7558 59.2588 57.4047C60.0246 56.2836 60.2279 54.8716 59.8099 53.5801C59.4094 52.3652 59.1434 52.3592 58.9909 50.9204C59.8081 52.1712 60.3069 52.818 61.796 53.3166C61.2084 52.0444 61.0893 51.58 61.2147 50.2016C62.5523 52.2889 64.229 53.7415 66.6692 54.3913C66.2255 53.3423 65.8236 52.204 65.7506 51.0661C66.381 52.0557 66.8063 52.4924 67.7552 53.1237C67.5833 51.9757 67.5757 51.1288 67.9022 50.021Z" fill="white"/>
<path d="M62.8084 59.6144C63.7153 59.5197 64.8842 59.9337 65.6193 60.451C66.4811 61.0576 67.5576 62.1052 67.0895 63.2687C67.071 63.3147 66.9767 63.3002 66.9325 63.3016C66.4428 63.0905 65.6793 62.7388 65.1561 62.8664C63.1967 63.3435 62.467 61.6159 62.5892 59.9869C62.6036 59.7962 62.6487 59.7339 62.8084 59.6144Z" fill="#000100"/>
<path d="M63.7604 57.273C65.4958 57.1783 67.1053 58.3391 68.6476 58.961C69.5965 59.343 70.2324 59.2785 71.1433 58.8686C70.3424 59.7448 69.8003 60.0091 68.6057 59.8318C67.8665 59.651 67.2988 59.3822 66.625 59.039C64.5595 57.9874 63.3207 57.6473 61.0649 58.363C62.0512 57.6685 62.5342 57.3772 63.7604 57.273Z" fill="#000100"/>
<path d="M56.9552 33.73C59.1911 33.2218 60.2478 33.1059 62.5139 33.6927C61.8884 33.7908 61.1732 33.9117 60.5675 34.086C63.7415 34.6865 66.3679 36.4964 68.5497 38.8106C68.9114 39.1944 69.2533 39.608 69.6154 39.9829C68.8149 39.6702 68.3301 39.5321 67.5576 39.0957C67.0615 38.8154 66.4126 38.3169 65.9553 38.0879C67.1815 39.3551 67.9103 40.4378 68.7784 41.9905C69.7399 43.7106 70.7753 45.9312 72.1197 47.3973C70.8375 46.9032 69.9568 46.3632 68.9831 45.3638C68.9457 47.4632 69.0589 48.5735 69.9875 50.5081C68.483 49.1391 68.0636 47.9757 67.6974 46.0542C67.3123 47.5767 67.1869 48.3166 66.4437 49.7347C66.9258 46.0065 66.2408 42.8962 63.4384 40.2083C64.7737 43.0086 64.9541 43.6499 65.0457 46.736C64.78 45.8507 64.4802 44.8912 64.0743 44.0593C63.2314 42.3326 61.7152 40.6673 60.1905 39.5068C59.4378 38.9338 58.6923 38.5117 57.9144 37.8964C59.2637 40.1794 59.7499 41.8416 59.6259 44.5369C59.5925 45.2666 59.5294 46.0875 59.3454 46.7971C59.3345 46.8397 59.3228 46.882 59.3111 46.9242C58.2567 42.404 54.8931 42.1251 53.5843 38.271C52.8839 40.153 52.9428 41.4203 53.761 43.3044C52.2515 42.165 50.7799 41.0313 49.9931 39.2419C49.2749 37.6083 49.4044 36.5142 50.3626 35.0551C50.0203 37.4356 50.645 38.5762 52.0919 40.3871C51.5381 38.212 52.0964 36.6113 53.3641 34.817C54.3462 36.1403 55.0284 36.9269 56.5737 37.6747C56.3202 37.0995 56.1272 36.4842 55.941 35.8835C58.677 36.848 60.0272 37.6064 62.1373 39.537C61.0726 37.623 59.9194 36.414 58.006 35.3053C57.7173 35.1379 57.3024 34.8968 56.994 34.7934L57.0071 34.7663C57.3615 34.7857 57.6826 34.9018 58.024 34.9696C59.6367 35.2904 61.6512 35.9909 63.0262 36.9179L63.1895 36.8239C61.6417 35.0801 59.2709 33.9485 56.9552 33.73Z" fill="white"/>
<path d="M63.1894 36.8239L63.6642 37.3427L63.0261 36.9179L63.1894 36.8239Z" fill="#000100"/>
<path d="M35.2813 15.5834C35.2835 15.5945 35.3041 15.6707 35.3002 15.6776C33.291 19.2607 31.7897 23.4345 32.3733 27.599C32.598 29.2028 33.3601 31.2278 34.3608 32.5208C36.3252 35.0592 39.5076 36.5313 42.6433 36.9344C43.51 37.0458 44.4312 37.0532 45.3006 37.0499C44.0584 37.7764 43.3418 37.8715 41.9354 37.859C43.1703 38.324 44.623 38.2899 45.9067 38.096C44.4225 38.7729 43.6196 38.9849 42.022 38.9109C43.6541 39.5653 44.6922 39.3459 46.2843 39.3234C43.2506 40.2598 41.0801 39.8731 38.1599 38.8571C38.0475 38.8154 37.9358 38.7719 37.8248 38.7268C34.5832 37.4079 32.0107 35.3204 30.6207 32.0465C30.8023 33.3733 31.3787 34.6096 32.0017 35.7731C29.8027 33.6327 28.9209 30.7239 29.0397 27.7199C29.1536 24.8373 30.0682 22.6056 31.4916 20.1415C30.3782 21.1403 29.4589 22.4601 28.7989 23.7912C28.5804 24.232 28.4091 24.6851 28.1766 25.1164L28.1886 25.0594C29.1323 20.702 31.6178 17.9331 35.2813 15.5834Z" fill="white"/>
<path d="M77.9421 22.7186C80.4811 25.5283 82.2773 29.3331 82.1749 33.201C82.0433 38.1618 78.3877 41.5756 73.8012 42.8839L73.6303 42.7896C75.1253 42.2556 76.0972 41.6045 77.3554 40.6391C76.8688 40.7815 76.4137 41.1123 75.9492 41.3204C74.6392 41.9073 73.2411 42.2748 71.8143 42.43C71.5193 42.462 71.159 42.4984 70.8744 42.5516C70.6034 42.1217 70.3256 41.6963 70.041 41.2755C70.519 41.4583 71.6402 41.8441 72.2066 41.7568C72.3013 41.7422 72.3189 41.6461 72.3392 41.577C72.2395 41.1269 71.3791 40.3904 71.0562 39.9618C70.8063 39.6305 70.657 39.467 70.4216 39.0788C73.5221 38.4241 75.4653 37.091 77.2846 34.461C79.1606 31.7495 79.1385 28.0574 78.4657 24.9111C78.3029 24.1775 78.1288 23.4465 77.9421 22.7186Z" fill="white"/>
<path d="M80.5291 31.618L80.5755 31.6557C80.7568 32.015 80.7717 33.8196 80.7519 34.237C80.645 36.4505 79.159 37.6896 77.5887 39.0481C77.5427 39.0941 77.5725 39.0736 77.4927 39.098C77.5067 39.0093 78.0753 38.1736 78.1782 38.004C79.6925 35.4998 80.2802 34.5523 80.5291 31.618Z" fill="#000100"/>
<path d="M36.2109 41.5364C38.4479 41.5601 40.5108 42.5401 42.5348 43.4042C40.819 43.4394 39.0755 42.9647 37.3996 42.9744C35.2699 42.9867 33.5089 43.6862 32.0295 45.2076C32.8544 45.2061 34.3049 45.3078 35.0749 45.5602C34.7112 45.8954 34.0623 46.2774 33.6263 46.5573C34.5015 46.7317 35.24 46.8715 36.0908 47.129C35.8471 47.2928 35.6815 47.4325 35.456 47.622C35.9946 47.9066 36.4355 48.016 37.012 48.1974C37.253 48.497 37.3239 48.622 37.6396 48.8385C37.7589 48.8961 37.8799 48.9503 38.0025 49.0006C39.1076 49.4471 40.3327 48.9577 41.3672 48.5291C38.1265 51.6837 34.3066 49.2869 31.4315 47.0003C31.8718 46.7942 32.3912 46.5087 32.8304 46.2824C32.0837 46.1896 31.0327 46.1638 30.3675 45.8233C29.8075 45.5367 31.0906 44.1877 31.3583 43.8687C32.6766 42.2975 34.175 41.6572 36.2109 41.5364Z" fill="white"/>
<path d="M45.5481 48.3599L45.5948 48.4381C45.3769 50.0755 45.3429 51.2464 45.5718 52.8822C45.7089 53.8618 45.4752 55.088 45.2132 56.0504C46.724 54.6722 47.2304 53.5358 47.7625 51.6183C47.8518 52.0872 47.9325 52.7216 47.8792 53.1921C47.6624 55.1056 46.9281 56.2209 47.4998 58.2097C47.9165 57.7961 48.2292 57.2708 48.6055 56.8175C49.0118 56.3282 49.4394 55.8971 49.847 55.4046C48.9192 57.6852 48.3906 59.775 48.7394 62.2576C48.835 62.9382 48.9267 63.4811 49.1715 64.1368C48.0148 62.8985 47.5879 61.8644 47.2907 60.1967C47.2374 59.6321 47.0951 58.9272 46.9825 58.3729C46.2618 60.2179 46.1985 61.1397 46.4866 63.1262C46.2967 62.8624 46.115 62.6125 45.9484 62.3329C44.5622 60.0064 46.1619 57.9157 46.7126 55.7095C45.4225 56.8401 44.8691 57.7064 43.069 58.1659C44.3066 56.6218 44.6091 54.6691 44.6337 52.7555C43.9278 53.8506 43.5949 54.2425 42.6008 55.0826C42.894 54.4174 43.3193 53.6607 43.5748 52.9957C44.2053 51.3543 44.7445 49.9379 45.5481 48.3599Z" fill="white"/>
<path d="M40.1871 51.7546C40.1801 51.8455 39.7731 52.7419 39.691 52.9273C39.3567 53.6828 39.2064 54.4328 38.9433 55.2022C39.6266 54.5113 40.3365 53.8474 41.0716 53.2124C39.7917 55.6202 39.6378 58.649 40.3963 61.2348C40.5009 61.5911 40.6201 62.0755 40.812 62.3826L40.8728 62.3686C40.9681 60.9579 41.445 59.7556 42.0759 58.5191C41.9157 60.5106 41.7722 61.6881 41.7865 63.7247C41.8294 64.522 41.8948 65.4009 41.8802 66.1929C39.1077 62.9458 38.2339 59.9987 39.5551 55.7992C39.2082 56.1645 37.6968 58.2399 37.3538 58.0505C37.2756 57.8043 37.4762 57.08 37.5289 56.804C37.9214 54.7498 38.7357 53.2539 40.1871 51.7546Z" fill="white"/>
<path d="M67.2869 67.24C67.3149 67.236 67.3428 67.2328 67.3708 67.2306C68.3264 67.1422 69.0137 67.383 69.7357 67.9846C69.7077 68.0951 69.6789 68.2051 69.6487 68.3151C69.2486 69.7574 68.1857 70.5263 66.9311 71.2406C67.2396 70.7477 67.3451 70.4483 67.461 69.8845C67.0244 69.9535 66.467 70.1673 66.0391 70.3238C65.2539 70.6102 64.7628 70.7581 63.9353 70.8613C64.2518 70.6115 64.5914 70.2805 64.8909 70.0022C64.4264 70.1263 64.0827 70.202 63.6092 70.2886C63.3039 70.2954 63.0955 70.317 62.7907 70.3549C62.9724 70.2165 63.3986 69.936 63.4148 69.7132C63.197 69.66 62.5769 69.7353 62.2558 69.7163C61.7566 69.6866 61.4337 69.6302 60.9435 69.5459C61.7927 69.3619 61.8509 69.4038 62.7154 68.9808C61.6019 68.951 60.6634 68.9163 60.2147 67.7424C62.2879 68.7724 65.0113 67.4894 67.2869 67.24Z" fill="white"/>
<path d="M26.9798 48.7681C26.9802 48.8105 26.387 50.3243 26.3111 50.5215C25.7463 51.9893 25.7953 53.3724 25.615 54.8901C26.0732 54.3841 26.4868 53.86 26.9635 53.3536C27.8615 52.3997 28.7472 51.674 29.7823 50.8846C28.9826 52.139 28.3416 53.1057 27.4287 54.2939C26.2366 55.7568 25.169 57.3298 23.9641 58.7369C23.9389 57.7659 23.9071 56.8356 23.996 55.8664C24.2351 53.2621 25.2228 50.7222 26.9798 48.7681Z" fill="white"/>
<path d="M53.401 59.9545C53.4882 60.0632 53.2639 61.1925 53.2318 61.4184C52.9082 63.699 53.3504 64.8192 53.8829 66.881C54.4198 64.9058 54.4904 64.0485 55.5604 62.1675C55.1907 63.731 55.118 65.2179 55.5243 66.7814C55.7457 67.5273 55.9329 67.9972 56.2671 68.6953C55.3931 67.9638 55.1205 67.6743 54.544 66.6709C54.2875 67.2373 54.1801 67.8497 53.8874 68.3846C51.807 65.3996 51.8205 63.1366 53.401 59.9545Z" fill="white"/>
<path d="M48.7927 47.1339C49.1363 47.2467 49.4822 47.3522 49.8302 47.4505C49.8976 48.7732 50.2213 49.6878 51.7525 49.8859C52.5515 49.9892 53.1029 49.5957 53.698 49.1058C54.3873 49.6457 54.5793 50.1128 54.8766 50.9122C54.9188 51.0993 54.9843 51.3105 55.037 51.4975C54.0058 51.1627 53.4093 51.2168 52.3577 51.2418C51.4497 51.2635 50.3606 51.0746 49.7045 50.3938C48.7729 49.4272 48.7836 48.3674 48.7927 47.1339Z" fill="white"/>
<path d="M43.5579 64.7272C43.6033 64.7682 43.6261 64.807 43.6335 64.8719C43.7128 65.5642 43.8186 66.2564 44.034 66.9221C44.3141 67.7879 44.8927 68.5018 45.3575 69.2753C45.2919 67.9453 45.2824 67.3194 45.6156 66.0174C45.7722 67.3004 45.5311 67.6175 46.0794 69.0836C46.3863 69.8462 46.7704 70.4658 47.2516 71.1274C46.0097 70.6467 45.2495 70.2408 44.407 69.1382C43.5686 68.0414 43.3308 66.076 43.5579 64.7272Z" fill="white"/>
<path d="M72.4908 63.3508C73.0185 63.331 73.1655 63.4 73.6688 63.5736C73.3883 64.7213 72.5359 65.6828 71.5794 66.3358L71.1379 66.5559C70.9368 66.5045 70.7162 66.4589 70.59 66.2943C70.6206 66.0368 70.8195 65.8271 70.8984 65.589C71.2119 64.6397 71.3341 63.5934 72.4908 63.3508Z" fill="white"/>
<path d="M60.9581 42.2651C61.0267 42.2995 61.0294 42.3019 61.0813 42.3573C62.739 44.1254 62.2303 46.5735 62.105 48.767L62.0644 48.8395L62.0121 48.8324C60.9883 47.0919 61.2197 46.5912 61.2129 44.7241C61.2143 43.8978 61.1286 43.0736 60.9581 42.2651Z" fill="white"/>
<path d="M42.6843 73.2118C42.7131 73.2308 42.7405 73.2479 42.7643 73.2732C44.2097 74.8317 45.3199 77.3748 45.4796 79.4529C45.3615 79.3694 45.047 78.7692 44.9572 78.6005C44.0111 76.8201 43.1514 75.1808 42.6843 73.2118Z" fill="white"/>
<path d="M55.481 73.4756L55.537 73.5406C55.5676 73.7881 55.5058 74.3519 55.4765 74.6175C55.265 76.503 53.983 78.1319 52.5444 79.2846C52.7896 78.6961 53.022 78.2172 53.2544 77.6047C53.5872 76.6933 53.5583 75.5212 53.5741 74.544C53.8775 75.4441 54.0237 76.1531 53.9114 77.0996C54.8778 75.7021 55.0962 75.1329 55.481 73.4756Z" fill="white"/>
<path d="M54.939 42.3701C55.4034 42.7132 55.9906 43.2706 56.3568 43.71C57.7147 45.3396 57.8482 46.7028 57.6962 48.6985L57.6263 48.6863C57.2466 46.7987 57.0107 46.0146 55.9739 44.3483C55.7268 43.9517 55.0751 42.8007 54.939 42.3701Z" fill="white"/>
<path d="M43.1955 44.4817L43.2363 44.5219C43.2227 44.6611 42.8502 45.1647 42.7387 45.3957C42.4804 45.9307 42.3439 46.3127 42.202 46.8895C42.5968 46.3287 42.8576 45.9908 43.3067 45.4838C42.8338 46.7318 42.6876 47.2054 42.4278 48.54C42.3666 48.7795 42.338 49.0165 42.303 49.261C42.0582 48.6564 41.8381 48.1759 41.6973 47.5287C41.4581 47.5698 41.214 47.606 40.9739 47.6439C41.5681 46.3168 42.1939 45.5086 43.1955 44.4817Z" fill="white"/>
<path d="M57.6421 76.9089L57.6854 76.9861C57.4455 78.6276 55.541 81.0818 54.3967 82.3445C54.293 82.2494 54.3661 81.9874 54.4052 81.8597C54.9929 79.9377 56.6229 78.5888 57.6421 76.9089Z" fill="white"/>
<path d="M37.4904 63.0505C37.5226 63.0757 37.5731 63.1159 37.5769 63.1628C37.6689 64.2997 37.8831 65.4357 38.217 66.5252C38.39 67.0899 39.4654 69.2942 39.115 69.7587C37.5435 67.576 37.1517 65.6963 37.4904 63.0505Z" fill="white"/>
<path d="M34.7705 56.385C34.8327 56.6299 34.7674 57.2784 34.7381 57.5346C34.698 57.8787 34.6373 58.2196 34.5562 58.5565C34.374 59.329 34.1077 60.1331 33.9053 60.9056C33.8254 61.2109 33.5087 62.659 33.3565 62.779C32.9193 60.3996 33.9948 58.5033 34.7705 56.385Z" fill="white"/>
<path d="M61.7765 75.1456C61.8211 75.3413 61.7941 75.8861 61.7895 76.1125C61.7544 77.8099 61.2213 78.8774 60.3487 80.2732C60.5322 79.4551 60.5706 78.6713 60.5863 77.8366C60.5633 76.9084 60.3437 75.951 60.0601 75.0716C60.6269 75.8351 60.9778 76.6243 61.1239 77.5601C61.3016 76.89 61.5785 75.7314 61.7765 75.1456Z" fill="white"/>
<path d="M50.4579 45.9509C51.2803 45.8141 52.1823 46.0239 52.8588 46.5071C53.4013 46.8946 53.6892 47.3985 54.0114 47.9606L53.4848 47.5685C52.9845 47.2564 52.3412 46.9333 51.7667 46.7953C50.7709 46.5561 50.5204 46.7316 49.6539 46.1127C49.9563 46.0346 50.1486 45.9979 50.4579 45.9509Z" fill="white"/>
<path d="M46.6452 33.6879C47.055 33.661 47.4491 33.6754 47.8588 33.6844C47.3322 33.8727 46.7865 34.0233 46.2665 34.222C45.5078 34.5119 44.749 34.8453 44.0024 35.1673L43.1055 35.5062C44.0072 34.4669 45.2752 33.8156 46.6452 33.6879Z" fill="white"/>
<path d="M63.2169 47.0947C63.3806 48.252 63.4622 48.9424 63.8699 50.078C63.9736 50.366 64.5283 51.7583 64.5572 51.9066L64.4995 51.9056C63.7306 51.0335 63.1082 50.2162 63.0239 49.0054C62.9842 48.4297 63.0162 47.6363 63.2169 47.0947Z" fill="white"/>
<path d="M56.2295 55.1665C56.2714 55.2986 56.2191 55.6919 56.1966 55.8425C56.0062 57.1188 54.8952 57.8742 53.8038 58.2873C53.7684 58.1641 54.0695 57.9427 54.1731 57.8498C55.0505 57.061 55.691 56.2087 56.2295 55.1665Z" fill="white"/>
<path d="M51.4929 72.3842C51.6745 72.5461 51.7372 72.9317 51.7501 73.1744C51.807 74.2423 51.1911 75.0085 50.5195 75.753L50.4371 75.7977C50.4322 75.6439 50.7999 74.9548 50.8817 74.7433C51.1943 73.9365 51.403 73.2528 51.4929 72.3842Z" fill="white"/>
<path d="M48.8524 40.4745C48.8949 40.5921 48.7342 41.3537 48.6965 41.5335C48.5296 42.329 48.6556 42.8794 48.6665 43.5944L48.6287 43.6011L48.5493 43.4567C48.0027 42.1939 47.8215 41.5496 48.8524 40.4745Z" fill="white"/>
<path d="M50.9558 47.4576C51.169 47.389 51.3988 47.4973 51.4816 47.7053C51.5644 47.9134 51.4718 48.15 51.2698 48.2466C51.1264 48.3152 50.9568 48.2982 50.8299 48.2025C50.7031 48.1069 50.64 47.9485 50.6665 47.7918C50.693 47.6351 50.8045 47.5062 50.9558 47.4576Z" fill="white"/>
<path d="M73.8015 42.8839C73.6099 42.936 73.3104 43.0303 73.1273 42.9651C73.2288 42.8687 73.4818 42.8269 73.6306 42.7896L73.8015 42.8839Z" fill="#BCBCBB"/>
</svg>
