<svg width="61" height="61" viewBox="0 0 61 61" fill="none" xmlns="http://www.w3.org/2000/svg">
<circle cx="30.4505" cy="30.4505" r="30.4505" fill="black"/>
<path d="M24.2024 7.51467L24.221 7.77199C24.2297 7.89236 24.2025 7.99597 24.1866 8.04919C24.1676 8.11288 24.1428 8.17426 24.1191 8.22726C24.0717 8.33363 24.0104 8.44755 23.9532 8.54893C23.8951 8.65189 23.8336 8.75493 23.7844 8.83794C23.7303 8.92907 23.6984 8.98387 23.6843 9.01154C22.945 10.4616 22.2368 12.1625 21.9881 13.8369C21.7404 15.5042 21.9543 17.0926 22.99 18.398C23.1513 18.6013 23.3176 18.7753 23.506 18.9569C23.7078 18.8556 23.9156 18.761 24.0256 18.7088C24.6541 18.411 25.2369 18.1905 25.828 18.0358C25.8182 18.0318 25.8086 18.0279 25.7991 18.0238C25.7337 17.9957 25.6567 17.9591 25.5856 17.9126C25.5397 17.8827 25.3861 17.7816 25.3119 17.5896L25.218 17.3465L25.3482 17.1209C25.5144 16.8328 25.8212 16.7485 25.8929 16.7263C27.3656 16.2692 28.9277 16.2475 30.4071 16.6898C30.3995 16.6705 30.3921 16.65 30.386 16.6283L30.3187 16.3874L30.5859 15.987L30.7408 15.9239C30.886 15.8648 31.0362 15.8549 31.1376 15.8539C31.2498 15.8528 31.3644 15.8632 31.4666 15.8767C31.671 15.9036 31.871 15.9496 31.9916 15.9824C33.069 16.2756 34.0404 16.7886 34.775 17.6294C34.8265 17.5393 34.9031 17.4124 34.9792 17.3179C35.0467 17.2341 35.1618 17.1097 35.3296 17.0328C35.5168 16.9471 35.7422 16.935 35.9558 17.0384L35.9983 17.0606L36.1117 17.1242L36.184 17.2322C36.2858 17.384 36.3341 17.5579 36.3609 17.6905C36.3878 17.8232 36.4019 17.9629 36.4097 18.0937C37.4194 17.8883 38.5859 17.9328 39.4801 18.2258C39.6657 18.2866 40.0299 18.408 40.3737 18.5585C40.5448 18.6334 40.7255 18.7219 40.882 18.8208C41.0185 18.9072 41.2184 19.0507 41.3318 19.2621L41.4405 19.4645L41.3714 19.6836L41.359 19.7224L41.2725 19.9967L41.0777 20.0555C41.7691 20.4962 42.3697 21.0466 42.9166 21.6676C43.2608 21.5861 43.5119 21.5357 43.8234 21.3993C45.4637 20.6814 46.2363 19.4359 46.5169 17.9609C46.7945 16.5021 46.5856 14.8252 46.2012 13.2632L46.1635 13.1125C46.1352 13.0013 46.0313 12.7088 45.9167 12.3549C45.8642 12.1929 45.8116 12.0237 45.7753 11.8827C45.7575 11.8135 45.7402 11.7382 45.7299 11.668C45.7247 11.6332 45.7195 11.5877 45.7191 11.5382C45.7188 11.5014 45.7195 11.4025 45.7641 11.2932L45.8792 11.0113L46.1795 10.9617C46.341 10.9349 46.4817 10.9688 46.5734 11.0018C46.6575 11.032 46.7329 11.073 46.7957 11.1163L46.8219 11.135L46.8222 11.1353C48.6379 12.4819 50.1844 14.6172 50.9723 16.9384C51.7606 19.2606 51.8101 21.839 50.5138 24.0141C49.9135 25.0215 48.9344 25.8688 47.8789 26.5195C47.061 27.0237 46.1738 27.4243 45.3329 27.6967C45.484 27.9052 45.6473 28.1112 45.8133 28.3105L45.8908 28.401C45.9679 28.4891 46.0461 28.573 46.1434 28.6835C46.2625 28.8186 46.393 28.9752 46.5078 29.1558L46.6518 29.3826L46.5436 29.6786L46.4795 29.8538L46.3215 29.953C46.0716 30.1098 45.7769 30.1209 45.5678 30.1085C45.4265 30.1001 45.2802 30.0776 45.1368 30.0474C45.2071 30.2499 45.2596 30.4572 45.2749 30.6495C45.2876 30.8085 45.2814 31.0294 45.1714 31.2343C45.0395 31.4801 44.803 31.6207 44.5352 31.6421C44.498 31.645 44.4608 31.6454 44.4238 31.6441C44.4333 31.7566 44.431 31.8702 44.4106 31.9793C44.3823 32.1307 44.3083 32.3279 44.1247 32.4734C44.0644 32.5211 44.0009 32.5566 43.9363 32.582C44.1548 32.9101 44.4061 33.2038 44.747 33.5149L44.8144 33.5757L44.8146 33.5759C44.9785 33.7218 45.2864 33.9833 45.5528 34.2666C45.6874 34.4098 45.8245 34.5719 45.9354 34.7433C46.0424 34.9087 46.1501 35.1207 46.1801 35.3589L46.1877 35.4227C46.3345 36.7673 45.7997 38.3444 45.1745 39.4166L45.1712 39.4222L45.1678 39.4276C44.8773 39.8996 44.4694 40.2938 43.9371 40.5029C43.5936 42.1614 42.0861 43.0264 40.7393 43.4313C40.7201 43.535 40.7072 43.6298 40.7039 43.7213C40.698 43.8854 40.7259 43.997 40.7842 44.087L40.7936 44.0994C40.8029 44.1114 40.813 44.1241 40.8294 44.1446C40.8572 44.1792 40.9048 44.2385 40.9474 44.3049C41.0085 44.4001 41.2159 44.7502 40.9837 45.1195L40.8783 45.2869L40.6903 45.3478C40.4856 45.414 40.2899 45.3845 40.1809 45.3621C40.0646 45.3382 39.9469 45.2987 39.8962 45.2829L39.8955 45.2826C39.6752 45.2135 39.4799 45.1212 39.3054 45.0108C39.1206 46.8946 38.195 48.4567 36.5534 49.6894C36.449 49.7678 36.2536 49.9062 36.043 50.0229C35.9381 50.081 35.816 50.1413 35.6908 50.1849C35.5798 50.2236 35.399 50.2737 35.2037 50.2431L34.9765 50.2075L34.8615 50.045C34.4229 50.5715 33.8921 51.0389 33.233 51.4038L33.2324 51.4041C33.1722 51.4374 33.0639 51.4966 32.9403 51.5369C32.8198 51.5762 32.6192 51.6197 32.3985 51.548L32.087 51.4468L32.0498 51.2348C31.3301 51.657 30.5279 51.9625 29.6711 52.0516C29.5711 52.0621 29.4296 52.0662 29.2883 52.0518C29.217 52.0446 29.1321 52.0313 29.0462 52.0058C28.9671 51.9822 28.8455 51.9364 28.7359 51.8398L28.5184 51.6482L28.5558 51.3607C28.556 51.3589 28.5563 51.3569 28.5566 51.3538C28.557 51.3512 28.5576 51.3469 28.5581 51.3427C28.5592 51.3344 28.5611 51.32 28.564 51.3033C28.5698 51.2699 28.5821 51.2111 28.6124 51.1445C28.6822 50.9906 28.7958 50.9043 28.872 50.8575L28.8724 50.8573C28.9014 50.8395 28.9299 50.8212 28.958 50.8029C28.9363 50.8143 28.9144 50.8255 28.892 50.8359C28.784 50.8863 28.627 50.944 28.4477 50.9423L28.4393 50.9422L28.431 50.9419C28.2987 50.9365 28.1671 50.8914 28.0586 50.816C27.9506 50.7409 27.7869 50.5752 27.7803 50.3095C27.7637 49.6264 27.8062 49.2114 27.7064 48.6728L27.6845 48.5634C27.4778 47.6011 26.961 46.8091 26.305 46.0291C26.2459 46.2368 26.1749 46.4472 26.0894 46.652C25.8825 47.1473 25.5726 47.6577 25.1052 47.9997L24.5355 48.4165L24.2769 47.7597C24.2201 47.6157 24.1822 47.4541 24.1544 47.3257C24.1227 47.1785 24.1052 47.0809 24.0812 46.9813L24.0532 46.8742C23.9858 46.625 23.9037 46.3798 23.8074 46.1404L23.807 46.1396C23.5853 45.5861 23.3363 45.1352 23.0606 44.5411C22.9551 44.3137 22.8544 44.0901 22.7585 43.8682C22.7189 43.9073 22.6787 43.936 22.6441 43.9562C22.5942 43.9853 22.547 44.002 22.5442 44.0031C22.5349 44.0066 22.5366 44.006 22.5413 44.0041L22.3457 44.0901L22.1381 44.0119C21.9774 43.9515 21.8506 43.8489 21.7725 43.7789C21.6885 43.7037 21.6141 43.6227 21.5695 43.5746L21.5691 43.5741C20.7482 42.6865 20.1739 41.6233 19.8227 40.4916C19.8242 40.6113 19.8293 40.7297 19.8389 40.8472L19.8465 40.9302L19.8646 41.0936C19.8725 41.1682 19.8811 41.2563 19.8865 41.3383C19.8921 41.4227 19.8961 41.521 19.8917 41.6135C19.8895 41.6596 19.8848 41.7156 19.8736 41.7736C19.8641 41.8231 19.842 41.9181 19.7822 42.0143L19.6616 42.2085L19.4384 42.2584L19.3741 42.2729L19.2302 42.305L19.0898 42.2602C18.9867 42.2274 18.8907 42.1845 18.7964 42.1195C18.7115 42.0609 18.6439 41.9944 18.5972 41.9482L18.5968 41.9478C17.3518 40.7151 16.5564 38.9489 16.2153 37.3058C16.1633 37.0554 16.1243 36.8126 16.0951 36.5739C16.0804 36.5981 16.0656 36.6223 16.0508 36.6467L15.7557 37.1365C15.7183 37.1978 15.5974 37.4059 15.463 37.587C15.3969 37.676 15.3088 37.7845 15.2071 37.873C15.1561 37.9173 15.0839 37.9724 14.993 38.0141C14.9025 38.0555 14.7563 38.1001 14.583 38.0649L14.3756 38.0228L14.2511 37.8516C14.0711 37.6043 14.0008 37.2703 13.9643 37.0407C13.9242 36.7877 13.9078 36.5267 13.8959 36.3704C13.8193 35.3604 13.8899 34.4255 14.0607 33.5061C13.9943 33.5708 13.9311 33.6318 13.8721 33.6868C13.7835 33.7695 13.6971 33.8467 13.6223 33.9062C13.5859 33.9352 13.5418 33.9683 13.4951 33.9971C13.4719 34.0115 13.4387 34.0306 13.3988 34.0479C13.3663 34.0619 13.2891 34.093 13.1877 34.0977L12.9309 34.1094L12.6098 33.7535L12.5832 33.5976C12.5469 33.3845 12.5672 33.1551 12.5881 33.0077C12.7526 31.8457 13.2172 30.5246 13.8586 29.3231C14.19 28.7024 14.575 28.1015 15.0006 27.5638C14.7686 27.5852 14.5343 27.594 14.3229 27.5778C14.1798 27.5668 14.0249 27.5429 13.8799 27.4916C13.739 27.4418 13.5582 27.3484 13.4301 27.166L13.2887 26.9645L13.4008 26.5013L13.5261 26.3886C13.6562 26.2715 13.8699 26.1315 14.0377 26.023C14.2305 25.8983 14.3965 25.7942 14.5018 25.718C15.0708 25.3065 15.6634 24.8394 16.2983 24.4203C16.0994 24.3782 15.903 24.3257 15.7378 24.259C15.6208 24.2117 15.47 24.1384 15.3477 24.0204C15.2114 23.8888 15.0639 23.6455 15.1468 23.3373L15.2104 23.1006L15.4298 22.9913C15.6074 22.9028 15.8096 22.8326 15.9836 22.7757C16.1739 22.7135 16.3238 22.6691 16.4624 22.6185C16.8904 22.4624 17.3149 22.3055 17.7369 22.1439C17.0869 21.3677 16.5737 20.4837 16.3133 19.5111C15.6909 17.1858 16.357 14.5802 17.4487 12.6137L17.4496 12.6119L17.4507 12.6102C18.5244 10.7094 20.0683 9.1161 21.9346 7.98335L21.9357 7.9826C22.4031 7.70054 22.8749 7.42549 23.4775 7.25257L23.7281 7.18066L24.2024 7.51467ZM23.6277 7.77603C23.1006 7.92726 22.6827 8.16801 22.2172 8.44894L22.0506 8.5519C20.3387 9.62891 18.9206 11.1153 17.9249 12.878L17.8759 12.9671C16.8564 14.8455 16.2745 17.2598 16.8395 19.3702C17.4013 21.469 19.2892 23.1791 21.1445 24.2014L21.2795 24.2752C19.973 24.1396 19.0403 23.4223 18.0978 22.589C17.6168 22.7751 17.1335 22.9534 16.6491 23.1302L16.5325 23.1708C16.2517 23.2652 15.9158 23.3575 15.6727 23.4786C15.5562 23.9121 17.6749 24.0707 18.0161 24.0678C17.7211 24.1822 17.4906 24.3402 17.2198 24.4929C16.3669 24.9741 15.6137 25.5861 14.8211 26.1593L14.7729 26.1934C14.5176 26.3703 14.061 26.6398 13.8904 26.7933L13.8759 26.8532C14.1825 27.2899 16.1263 26.8529 16.6198 26.6898C14.8869 28.043 13.4348 30.9113 13.1273 33.0839C13.109 33.2135 13.098 33.3765 13.1201 33.5061L13.1629 33.5536C13.3267 33.5461 14.8586 31.9007 15.0909 31.6756C14.5997 33.2389 14.3141 34.683 14.439 36.3292C14.4642 36.662 14.4982 37.2655 14.6915 37.5311C14.8522 37.5638 15.1206 37.1349 15.2463 36.9267L15.2907 36.853C15.6863 36.2042 16.0315 35.5697 16.548 35.0065C16.5613 35.7604 16.5926 36.444 16.7485 37.1952C17.074 38.7628 17.8299 40.4221 18.98 41.5608C19.0755 41.6552 19.128 41.7008 19.2552 41.7413L19.3196 41.727C19.3864 41.6195 19.3204 41.1417 19.3046 40.9848C19.2052 39.997 19.4066 39.0006 19.4697 38.0179C19.3054 38.3064 18.9642 38.9676 18.7764 39.1857C18.7101 39.0644 18.6483 38.943 18.5858 38.8198C17.6157 36.9082 18.1495 34.5941 19.4095 32.9295C18.8496 34.3981 18.5382 35.8681 18.7522 37.4389C18.8005 37.793 18.8854 38.1437 18.9535 38.4971C19.0124 38.1483 19.1924 37.7083 19.3042 37.361C19.5744 36.5228 19.8988 35.5059 20.3312 34.7333C20.1912 35.3848 20.0503 36.037 19.9852 36.7082C19.7622 39.0094 20.374 41.4797 21.9689 43.2044L22.0468 43.2871C22.1239 43.3665 22.2149 43.45 22.3053 43.4919L22.3298 43.5023C22.3639 43.4874 22.3828 43.4884 22.3858 43.4574C22.4278 43.0169 22.3064 42.4313 22.2932 41.9993C22.2808 41.5963 22.2644 41.1213 22.3094 40.7456C22.586 42.0382 22.997 43.1102 23.5547 44.3119C23.8104 44.8629 24.0851 45.369 24.3126 45.9371C24.432 46.2336 24.531 46.5382 24.6092 46.8481C24.6619 47.0649 24.7053 47.3612 24.7836 47.5602C25.4941 47.0404 25.8255 45.9238 25.9525 45.0843C25.9647 45.0037 25.9723 44.9226 25.9751 44.841C26.9566 45.9008 27.9032 46.9881 28.217 48.449C28.3589 49.1096 28.3087 49.6358 28.3248 50.2961C28.3261 50.3493 28.3827 50.3856 28.4323 50.3952L28.4529 50.3977C28.6735 50.3997 28.9982 50.1342 29.1857 49.9611L29.2569 49.8937C30.1602 49.0157 30.6996 47.3236 30.7959 46.0795C31.1985 48.0946 31.0415 50.1675 29.1568 51.3217C29.102 51.3553 29.1026 51.3791 29.0958 51.4311C29.1991 51.522 29.4795 51.5241 29.6145 51.51C31.0098 51.3649 32.282 50.5713 33.2596 49.6229C33.1404 49.9134 33.0218 50.2188 32.8586 50.4868C32.7803 50.6039 32.546 50.9114 32.5669 51.03C32.6957 51.0719 32.8498 50.9931 32.9692 50.9273C34.6752 49.9827 35.4543 48.265 36.0852 46.5494C36.0639 47.5322 35.9621 48.3603 35.4719 49.2272C35.4076 49.3411 35.2274 49.6192 35.2881 49.7051C35.5329 49.7435 36.0396 49.3941 36.2263 49.2538C38.1395 47.8172 38.9878 45.932 38.759 43.5505C39.0467 44.1271 39.4279 44.5653 40.0583 44.7629C40.1858 44.8027 40.3628 44.8651 40.4965 44.8365L40.5226 44.8295C40.613 44.6858 40.4075 44.5069 40.3274 44.3837C40.0522 43.9594 40.1727 43.4524 40.2751 42.995C41.7464 42.6238 43.2905 41.7586 43.4505 40.0812C43.9737 39.974 44.3813 39.6456 44.6758 39.187L44.704 39.1422C45.3065 38.1091 45.7904 36.6217 45.6398 35.427C45.5781 34.9374 44.807 34.2982 44.4526 33.9827C43.6432 33.2629 43.274 32.6279 42.8236 31.6601C44.2245 32.7775 44.0103 31.4682 43.4742 30.6357C45.4747 32.0332 44.6512 29.9137 44.004 29.0656C44.408 29.2843 45.5846 29.7344 46.0123 29.5031L46.0321 29.4916L46.0481 29.4478C45.8873 29.1947 45.6757 28.9821 45.4784 28.7567L45.395 28.6592C45.0646 28.2625 44.7294 27.8227 44.4736 27.3749C46.4112 26.9062 48.8877 25.5888 49.9943 23.8199L50.046 23.7352C52.4274 19.739 49.9422 14.1274 46.4978 11.5728C46.4372 11.5279 46.3454 11.4863 46.2683 11.499L46.2662 11.5057C46.2285 11.6615 46.6247 12.7163 46.6914 12.9783C47.5229 16.2468 47.7047 20.295 44.0419 21.8982C43.5882 22.0968 43.1852 22.1539 42.7222 22.2776L42.631 22.1694C41.6849 21.0596 40.6066 20.2034 39.1743 19.7803C39.5732 19.7211 39.9674 19.6636 40.3693 19.63C40.5037 19.6188 40.6502 19.6066 40.7835 19.5738L40.8397 19.5585L40.852 19.5196C40.6812 19.2016 39.6785 18.8639 39.3105 18.7433C38.303 18.4132 36.8752 18.4352 35.8589 18.8121C35.8793 18.5042 35.9024 17.8359 35.7472 17.5608L35.7316 17.5354C35.4852 17.397 35.2857 17.8443 35.1812 18.0187C35.0609 18.22 34.9505 18.4318 34.8318 18.6355C34.1841 17.5375 33.1756 16.8923 31.9663 16.541L31.8486 16.5079C31.643 16.4519 31.1463 16.3469 30.9461 16.4284L30.9106 16.4816C30.9414 16.592 31.3315 16.9275 31.4339 17.0322L31.5461 17.148C31.8074 17.4213 32.0616 17.7162 32.2299 18.0533C31.6737 17.7799 31.1703 17.5254 30.5808 17.3185L30.4617 17.2778C29.0275 16.8 27.4973 16.7987 26.0544 17.2464L26.0201 17.2575C25.9401 17.2846 25.8609 17.3221 25.8199 17.3931C25.8829 17.5561 26.8686 17.7788 27.0947 17.8546C27.4741 17.9816 27.8074 18.1183 28.1687 18.2883C26.6956 18.3059 25.596 18.5675 24.2589 19.201L24.0623 19.2932C23.842 19.3966 23.57 19.5267 23.4221 19.6251C23.1257 19.3519 22.8646 19.1053 22.6134 18.7987L22.5633 18.7366C20.2804 15.859 21.6555 11.8328 23.1289 8.90283L23.1991 8.76422C23.2917 8.58257 23.6657 8.01802 23.6778 7.82847V7.81134L23.6277 7.77603Z" fill="white"/>
<path d="M23.544 7.72461L23.5942 7.75992C23.6065 7.92982 23.211 8.52525 23.1154 8.71276C21.6163 11.6533 20.1606 15.7619 22.4797 18.6851C22.7463 19.0211 23.0223 19.2823 23.3384 19.5737C23.5357 19.4425 23.9534 19.2547 24.1752 19.1496C25.5123 18.5161 26.6119 18.2545 28.085 18.2369C27.7237 18.0668 27.3904 17.9302 27.011 17.8032C26.7849 17.7275 25.7992 17.5047 25.7362 17.3417C25.7831 17.2606 25.8799 17.2232 25.9707 17.195C27.4136 16.7472 28.9438 16.7486 30.378 17.2263C31.0197 17.4401 31.553 17.7102 32.1462 18.0019C31.9539 17.6167 31.6493 17.2865 31.3502 16.9807C31.2479 16.8761 30.8578 16.5406 30.8269 16.4302L30.8625 16.377C31.0627 16.2955 31.5593 16.4005 31.765 16.4565C33.0265 16.7997 34.0795 17.4507 34.7482 18.5841C34.8668 18.3803 34.9772 18.1686 35.0975 17.9672C35.2021 17.7928 35.4015 17.3455 35.648 17.484C35.8202 17.7411 35.7962 18.4428 35.7752 18.7606C36.7915 18.3837 38.2193 18.3618 39.2269 18.6919C39.5949 18.8125 40.5976 19.1502 40.7683 19.4682L40.756 19.5071C40.6086 19.5516 40.4392 19.5657 40.2856 19.5786C39.8837 19.6121 39.4896 19.6697 39.0906 19.7289C40.5691 20.1657 41.6705 21.0639 42.6386 22.2261C43.1015 22.1024 43.5045 22.0454 43.9581 21.8468C47.6211 20.2437 47.4392 16.1954 46.6077 12.9268C46.5399 12.6606 46.1322 11.5763 46.1847 11.4476C46.2618 11.4348 46.3535 11.4765 46.414 11.5213C49.8586 14.076 52.3438 19.6876 49.9623 23.6838C48.8828 25.4954 46.3583 26.8474 44.3899 27.3235C44.6457 27.7713 44.9809 28.2111 45.3113 28.6078C45.5305 28.8707 45.7807 29.1071 45.9644 29.3964L45.9484 29.4402C45.5385 29.6973 44.3307 29.2364 43.9203 29.0142C44.5675 29.8623 45.391 31.9818 43.3906 30.5843C43.9267 31.4168 44.1408 32.7261 42.7399 31.6087C43.1904 32.5765 43.5594 33.2115 44.3688 33.9312C44.7233 34.2467 45.4945 34.886 45.5561 35.3756C45.7068 36.5704 45.2228 38.0577 44.6203 39.0908C44.3238 39.5727 43.9069 39.9191 43.3669 40.0298C43.2069 41.7073 41.6628 42.5724 40.1915 42.9436C40.0891 43.401 39.9685 43.9079 40.2437 44.3322C40.3238 44.4554 40.5294 44.6344 40.439 44.7781C40.3029 44.8221 40.1107 44.7539 39.9747 44.7115C39.3442 44.5139 38.9631 44.0757 38.6754 43.4991C38.9042 45.8806 38.0559 47.7658 36.1427 49.2025C35.956 49.3427 35.4493 49.6921 35.2045 49.6537C35.1437 49.5678 35.3239 49.2897 35.3882 49.1758C35.8784 48.3088 35.9802 47.4807 36.0016 46.498C35.3706 48.2136 34.5916 49.9313 32.8855 50.8759C32.7662 50.9418 32.612 51.0204 32.4832 50.9786C32.4623 50.8599 32.6966 50.5524 32.775 50.4353C32.9381 50.1673 33.0567 49.862 33.1759 49.5715C32.1983 50.5199 30.9261 51.3135 29.5308 51.4586C29.3958 51.4727 29.1155 51.4706 29.0122 51.3797C29.019 51.3277 29.0184 51.3039 29.0732 51.2703C30.9579 50.1161 31.1149 48.0432 30.7123 46.0281C30.616 47.2722 30.0765 48.9643 29.1733 49.8422C29.0094 50.0014 28.6213 50.3487 28.3693 50.3463C28.3163 50.3441 28.2426 50.3055 28.2411 50.2447C28.225 49.5843 28.2752 49.0582 28.1333 48.3976C27.8195 46.9367 26.873 45.8494 25.8915 44.7896C25.8887 44.8712 25.881 44.9523 25.8688 45.0328C25.7418 45.8723 25.4104 46.989 24.7 47.5087C24.6216 47.3098 24.5783 47.0135 24.5256 46.7967C24.4474 46.4868 24.3483 46.1822 24.229 45.8857C24.0015 45.3176 23.7267 44.8115 23.471 44.2605C22.9133 43.0588 22.5024 41.9867 22.2258 40.6941C22.1807 41.0699 22.1972 41.5448 22.2095 41.9478C22.2227 42.3798 22.3442 42.9655 22.3022 43.406C22.2992 43.437 22.2802 43.4359 22.2462 43.4508C22.1151 43.4015 21.9799 43.2551 21.8852 43.153C20.2903 41.4283 19.6786 38.958 19.9016 36.6568C19.9667 35.9855 20.1076 35.3335 20.2476 34.682C19.8151 35.4545 19.4907 36.4714 19.2205 37.3096C19.1087 37.6568 18.9287 38.0969 18.8699 38.4457C18.8018 38.0923 18.7168 37.7416 18.6686 37.3875C18.4546 35.8167 18.7659 34.3467 19.3258 32.8781C18.0658 34.5427 17.532 36.8568 18.5021 38.7684C18.5646 38.8916 18.6265 39.0129 18.6927 39.1343C18.8805 38.9161 19.2218 38.255 19.3861 37.9665C19.323 38.9492 19.1215 39.9455 19.221 40.9333C19.2368 41.0901 19.3027 41.568 19.2359 41.6755L19.1715 41.6899C19.0444 41.6494 18.9918 41.6038 18.8963 41.5094C17.7462 40.3706 16.9903 38.7113 16.6649 37.1437C16.5089 36.3925 16.4776 35.709 16.4643 34.955C15.9478 35.5183 15.6027 36.1527 15.2071 36.8016C15.1157 36.9515 14.7915 37.5171 14.6078 37.4798C14.4146 37.2141 14.3806 36.6106 14.3553 36.2778C14.2304 34.6316 14.5161 33.1875 15.0073 31.6241C14.7749 31.8492 13.2431 33.4947 13.0793 33.5021L13.0364 33.4547C13.0144 33.3251 13.0254 33.1621 13.0437 33.0325C13.3512 30.8599 14.8032 27.9917 16.5361 26.6384C16.0426 26.8015 14.0988 27.2385 13.7923 26.8017L13.8068 26.7419C13.9887 26.5782 14.4961 26.2824 14.7374 26.1079C15.53 25.5346 16.2832 24.9227 17.1361 24.4415C17.4069 24.2888 17.6375 24.1308 17.9325 24.0165C17.5915 24.0193 15.4725 23.8607 15.589 23.4273C15.8669 23.2888 16.2659 23.1879 16.5654 23.0787C17.0498 22.902 17.5332 22.7237 18.0142 22.5376C18.9567 23.371 19.8893 24.0881 21.1958 24.2237L21.0608 24.15C19.2055 23.1277 17.3176 21.4176 16.7558 19.3188C16.1819 17.1749 16.7915 14.7173 17.8412 12.8266C18.869 11.007 20.347 9.48185 22.1335 8.39751C22.599 8.11658 23.017 7.87585 23.544 7.72461Z" fill="#000100"/>
<path d="M41.5411 29.42C41.5675 29.4752 41.6672 30.1903 41.6979 30.3302C41.8958 31.2333 42.199 32.1623 42.6492 32.9722C42.914 33.4536 43.2857 33.8251 43.642 34.2286C43.9876 34.6198 44.648 34.9214 44.8528 35.3689C45.1264 35.9671 44.2287 36.2831 43.9068 36.6365C43.6511 36.9173 43.5284 37.1096 43.3617 37.4669C43.3855 36.8239 43.5308 36.5911 43.8226 36.0343C43.6706 36.0628 43.2831 36.1855 43.1148 36.2412C42.5222 36.437 41.984 36.1519 41.4043 35.9346C41.4701 36.074 41.5435 36.2794 41.5832 36.4229C41.6904 36.8095 41.6373 37.0368 41.4397 37.364C40.7138 38.5665 40.7736 38.5753 39.4047 38.9065C38.6974 39.0777 37.872 39.2561 37.1906 38.8681C36.8178 38.6558 36.6146 38.3107 36.5157 37.9086C36.6077 37.6216 36.7866 37.3395 36.9327 37.072C36.0602 37.5264 35.8631 37.9518 35.5049 38.8294C35.4324 38.3073 35.6964 37.148 35.9361 36.6634C36.0247 36.4845 36.3852 35.9079 36.3759 35.7991C36.2994 35.7908 36.3004 35.8121 36.217 35.8663C35.758 36.1703 35.4401 36.4863 35.1009 36.9122C35.2726 36.2108 35.5665 35.5452 35.9695 34.9459C35.4329 35.2014 35.0798 35.5247 34.6454 35.9159C34.6635 34.8985 34.9998 34.1464 35.6231 33.357C35.7999 33.1333 36.1116 32.7261 36.2418 32.4828L36.2583 32.4514C36.3602 32.8178 36.405 33.4026 36.4298 33.7864C36.8826 33.1234 37.0029 32.2884 36.7557 31.5247C36.5189 30.8063 36.3615 30.8027 36.2714 29.9519C36.7546 30.6915 37.0496 31.074 37.9302 31.3689C37.5827 30.6165 37.5123 30.3419 37.5864 29.5268C38.3774 30.7611 39.3689 31.6201 40.812 32.0044C40.5495 31.3841 40.3119 30.7109 40.2687 30.0381C40.6415 30.6232 40.893 30.8815 41.4541 31.2548C41.3525 30.5759 41.348 30.0751 41.5411 29.42Z" fill="white"/>
<path d="M38.529 35.0932C39.0653 35.0372 39.7566 35.282 40.1913 35.5879C40.7009 35.9466 41.3375 36.5661 41.0607 37.2542C41.0497 37.2814 40.994 37.2728 40.9679 37.2736C40.6782 37.1488 40.2268 36.9408 39.9174 37.0163C38.7586 37.2984 38.3271 36.2768 38.3994 35.3135C38.408 35.2007 38.4346 35.1639 38.529 35.0932Z" fill="#000100"/>
<path d="M39.0919 33.7085C40.1181 33.6525 41.0699 34.339 41.982 34.7068C42.5431 34.9326 42.9191 34.8945 43.4578 34.6521C42.9842 35.1703 42.6636 35.3265 41.9572 35.2217C41.5201 35.1148 41.1843 34.9558 40.7859 34.7529C39.5645 34.131 38.8319 33.9299 37.4979 34.3531C38.0812 33.9424 38.3668 33.7702 39.0919 33.7085Z" fill="#000100"/>
<path d="M35.0677 19.7863C36.39 19.4858 37.0148 19.4172 38.3549 19.7642C37.985 19.8222 37.562 19.8937 37.2039 19.9968C39.0808 20.352 40.634 21.4222 41.9242 22.7908C42.1381 23.0177 42.3402 23.2623 42.5544 23.484C42.081 23.2991 41.7943 23.2174 41.3375 22.9594C41.0442 22.7936 40.6604 22.4988 40.39 22.3634C41.1151 23.1127 41.5461 23.753 42.0594 24.6712C42.628 25.6884 43.2403 27.0015 44.0353 27.8685C43.2771 27.5764 42.7563 27.257 42.1805 26.666C42.1584 27.9075 42.2253 28.5641 42.7744 29.7081C41.8847 28.8985 41.6367 28.2105 41.4202 27.0743C41.1924 27.9746 41.1183 28.4122 40.6788 29.2508C40.9639 27.0461 40.5588 25.2068 38.9016 23.6173C39.6913 25.2733 39.7979 25.6525 39.8521 27.4775C39.695 26.9539 39.5176 26.3865 39.2776 25.8946C38.7792 24.8735 37.8826 23.8887 36.9809 23.2024C36.5358 22.8636 36.095 22.614 35.635 22.2501C36.4329 23.6002 36.7204 24.5831 36.647 26.177C36.6273 26.6085 36.59 27.094 36.4812 27.5136C36.4748 27.5388 36.4678 27.5638 36.4609 27.5888C35.8374 24.9157 33.8483 24.7508 33.0744 22.4716C32.6602 23.5846 32.695 24.334 33.1788 25.4482C32.2862 24.7744 31.4159 24.104 30.9507 23.0458C30.5259 22.0798 30.6025 21.4328 31.1692 20.5699C30.9667 21.9776 31.3362 22.6521 32.1918 23.723C31.8643 22.4368 32.1945 21.4902 32.9441 20.4291C33.5249 21.2117 33.9283 21.6768 34.8421 22.119C34.6922 21.7789 34.5781 21.415 34.468 21.0598C36.0859 21.6302 36.8844 22.0787 38.1322 23.2203C37.5026 22.0885 36.8207 21.3735 35.6891 20.7179C35.5184 20.6189 35.2731 20.4763 35.0907 20.4152L35.0984 20.3991C35.308 20.4106 35.4979 20.4792 35.6998 20.5194C36.6534 20.709 37.8447 21.1233 38.6579 21.6715L38.7544 21.6159C37.8391 20.5847 36.4372 19.9155 35.0677 19.7863Z" fill="white"/>
<path d="M38.7543 21.6159L39.0351 21.9227L38.6577 21.6715L38.7543 21.6159Z" fill="#000100"/>
<path d="M22.2507 9.0553C22.252 9.06186 22.2642 9.10687 22.2619 9.11098C21.0737 11.2299 20.1859 13.6981 20.531 16.1607C20.6639 17.1091 21.1146 18.3067 21.7063 19.0713C22.868 20.5724 24.7499 21.4429 26.6042 21.6813C27.1168 21.7472 27.6615 21.7515 28.1756 21.7496C27.4411 22.1792 27.0173 22.2354 26.1856 22.228C26.9159 22.503 27.7749 22.4829 28.5341 22.3682C27.6563 22.7685 27.1816 22.8939 26.2368 22.8501C27.202 23.2371 27.8159 23.1073 28.7573 23.094C26.9634 23.6477 25.6798 23.4191 23.9529 22.8183C23.8865 22.7936 23.8204 22.7679 23.7548 22.7412C21.8379 21.9613 20.3166 20.7268 19.4946 18.7908C19.602 19.5754 19.9429 20.3065 20.3113 20.9945C19.0109 19.7288 18.4894 18.0087 18.5597 16.2323C18.6271 14.5276 19.1679 13.2079 20.0096 11.7507C19.3512 12.3414 18.8076 13.1219 18.4173 13.909C18.2881 14.1696 18.1868 14.4376 18.0493 14.6926L18.0564 14.6589C18.6145 12.0822 20.0843 10.4448 22.2507 9.0553Z" fill="white"/>
<path d="M47.4784 13.2747C48.9798 14.9362 50.042 17.1862 49.9815 19.4735C49.9036 22.4071 47.7418 24.4258 45.0297 25.1995L44.9286 25.1438C45.8126 24.828 46.3874 24.4429 47.1314 23.872C46.8437 23.9563 46.5746 24.1519 46.2999 24.2749C45.5252 24.622 44.6984 24.8393 43.8546 24.9311C43.6802 24.95 43.4671 24.9715 43.2989 25.003C43.1386 24.7488 42.9743 24.4972 42.806 24.2484C43.0887 24.3565 43.7517 24.5846 44.0867 24.533C44.1427 24.5244 44.1531 24.4675 44.1651 24.4266C44.1061 24.1605 43.5973 23.7249 43.4063 23.4715C43.2586 23.2756 43.1703 23.1789 43.0311 22.9494C44.8646 22.5622 46.0137 21.7739 47.0895 20.2186C48.1989 18.6151 48.1859 16.4318 47.788 14.5712C47.6917 14.1374 47.5888 13.7051 47.4784 13.2747Z" fill="white"/>
<path d="M49.0081 18.5373L49.0356 18.5596C49.1428 18.7721 49.1516 19.8393 49.1399 20.0861C49.0767 21.395 48.1979 22.1278 47.2693 22.9312C47.2421 22.9583 47.2597 22.9462 47.2125 22.9607C47.2208 22.9082 47.5571 22.414 47.6179 22.3137C48.5134 20.8328 48.8609 20.2725 49.0081 18.5373Z" fill="#000100"/>
<path d="M22.8005 24.4026C24.1234 24.4166 25.3433 24.9962 26.5401 25.5072C25.5255 25.528 24.4945 25.2472 23.5034 25.253C22.244 25.2603 21.2027 25.6739 20.3278 26.5736C20.8156 26.5727 21.6734 26.6329 22.1287 26.7821C21.9136 26.9803 21.5299 27.2063 21.2721 27.3718C21.7896 27.4749 22.2263 27.5576 22.7294 27.7098C22.5853 27.8067 22.4874 27.8893 22.3541 28.0014C22.6726 28.1697 22.9333 28.2344 23.2742 28.3416C23.4167 28.5188 23.4587 28.5927 23.6454 28.7207C23.7159 28.7548 23.7875 28.7868 23.8599 28.8166C24.5135 29.0806 25.238 28.7913 25.8497 28.5378C23.9333 30.4033 21.6744 28.9859 19.9742 27.6338C20.2346 27.5119 20.5417 27.343 20.8014 27.2092C20.3599 27.1543 19.7383 27.1391 19.345 26.9377C19.0138 26.7682 19.7726 25.9705 19.9309 25.7818C20.7105 24.8527 21.5965 24.4741 22.8005 24.4026Z" fill="white"/>
<path d="M28.322 28.4377L28.3496 28.484C28.2207 29.4522 28.2006 30.1447 28.336 31.112C28.4171 31.6913 28.2789 32.4164 28.1239 32.9856C29.0173 32.1706 29.3168 31.4985 29.6315 30.3646C29.6843 30.6419 29.732 31.017 29.7005 31.2953C29.5723 32.4269 29.138 33.0864 29.4761 34.2624C29.7226 34.0179 29.9074 33.7072 30.13 33.4392C30.3703 33.1498 30.6231 32.8949 30.8641 32.6037C30.3155 33.9523 30.0029 35.1881 30.2091 36.6562C30.2657 37.0586 30.3199 37.3797 30.4647 37.7675C29.7807 37.0352 29.5282 36.4237 29.3525 35.4375C29.3209 35.1036 29.2368 34.6867 29.1702 34.359C28.744 35.45 28.7066 35.9951 28.8769 37.1699C28.7646 37.0138 28.6572 36.8661 28.5587 36.7008C27.739 35.3249 28.685 34.0886 29.0106 32.7839C28.2477 33.4525 27.9204 33.9648 26.8559 34.2366C27.5878 33.3234 27.7667 32.1687 27.7813 31.0371C27.3638 31.6847 27.1669 31.9164 26.5791 32.4132C26.7524 32.0199 27.004 31.5724 27.155 31.1791C27.5279 30.2085 27.8468 29.3709 28.322 28.4377Z" fill="white"/>
<path d="M25.1517 30.4453C25.1476 30.499 24.9069 31.0291 24.8584 31.1387C24.6607 31.5855 24.5718 32.029 24.4162 32.484C24.8203 32.0754 25.2401 31.6828 25.6748 31.3073C24.9179 32.7312 24.8269 34.5222 25.2755 36.0514C25.3373 36.2621 25.4078 36.5485 25.5213 36.7301L25.5573 36.7219C25.6136 35.8877 25.8956 35.1767 26.2687 34.4454C26.1739 35.6231 26.0891 36.3194 26.0975 37.5238C26.1229 37.9953 26.1616 38.515 26.153 38.9833C24.5134 37.0632 23.9967 35.3204 24.778 32.837C24.5729 33.0531 23.6791 34.2803 23.4763 34.1683C23.43 34.0227 23.5487 33.5944 23.5798 33.4312C23.8119 32.2165 24.2934 31.3318 25.1517 30.4453Z" fill="white"/>
<path d="M41.1775 39.6025C41.1941 39.6001 41.2106 39.5983 41.2271 39.5969C41.7922 39.5447 42.1987 39.6871 42.6256 40.0428C42.6091 40.1082 42.592 40.1732 42.5742 40.2383C42.3376 41.0912 41.709 41.5459 40.9671 41.9683C41.1495 41.6768 41.2119 41.4997 41.2805 41.1664C41.0223 41.2072 40.6927 41.3336 40.4396 41.4261C39.9753 41.5955 39.6849 41.683 39.1955 41.744C39.3827 41.5963 39.5835 41.4005 39.7606 41.236C39.4859 41.3093 39.2827 41.3541 39.0027 41.4053C38.8222 41.4093 38.6989 41.4221 38.5187 41.4445C38.6261 41.3627 38.8782 41.1968 38.8878 41.065C38.759 41.0336 38.3923 41.0781 38.2024 41.0669C37.9072 41.0493 37.7162 41.016 37.4263 40.9661C37.9285 40.8573 37.9629 40.8821 38.4741 40.6319C37.8157 40.6143 37.2607 40.5938 36.9954 39.8996C38.2213 40.5087 39.8318 39.75 41.1775 39.6025Z" fill="white"/>
<path d="M17.3416 28.6791C17.3418 28.7042 16.991 29.5994 16.9462 29.716C16.6122 30.584 16.6411 31.4019 16.5345 32.2994C16.8054 32.0001 17.05 31.6903 17.3319 31.3908C17.863 30.8267 18.3868 30.3975 18.9988 29.9307C18.5259 30.6725 18.1469 31.2442 17.607 31.9468C16.9021 32.8119 16.2707 33.7421 15.5582 34.5742C15.5433 34 15.5245 33.4498 15.5771 32.8767C15.7185 31.3367 16.3026 29.8347 17.3416 28.6791Z" fill="white"/>
<path d="M32.9659 35.2943C33.0174 35.3586 32.8848 36.0263 32.8658 36.1599C32.6744 37.5086 32.9359 38.171 33.2508 39.3903C33.5683 38.2222 33.6101 37.7153 34.2428 36.6029C34.0242 37.5275 33.9812 38.4068 34.2215 39.3314C34.3524 39.7725 34.4631 40.0504 34.6607 40.4632C34.1439 40.0306 33.9826 39.8594 33.6418 39.266C33.4901 39.601 33.4266 39.9631 33.2535 40.2794C32.0232 38.5142 32.0312 37.176 32.9659 35.2943Z" fill="white"/>
<path d="M30.2408 27.7127C30.444 27.7794 30.6485 27.8418 30.8543 27.9C30.8942 28.6821 31.0856 29.223 31.9911 29.3401C32.4636 29.4012 32.7897 29.1685 33.1416 28.8788C33.5492 29.1981 33.6628 29.4743 33.8386 29.947C33.8635 30.0577 33.9022 30.1826 33.9334 30.2932C33.3236 30.0952 32.9709 30.1271 32.349 30.142C31.812 30.1548 31.168 30.0431 30.78 29.6405C30.2291 29.0689 30.2354 28.4422 30.2408 27.7127Z" fill="white"/>
<path d="M27.1453 38.1166C27.1721 38.1408 27.1856 38.1638 27.19 38.2022C27.2369 38.6115 27.2995 39.0209 27.4268 39.4145C27.5924 39.9266 27.9346 40.3487 28.2095 40.8061C28.1707 40.0196 28.1651 39.6495 28.3621 38.8796C28.4547 39.6383 28.3121 39.8258 28.6364 40.6928C28.8178 41.1437 29.045 41.5102 29.3295 41.9014C28.5951 41.6171 28.1456 41.3771 27.6474 40.725C27.1516 40.0765 27.011 38.9142 27.1453 38.1166Z" fill="white"/>
<path d="M44.2547 37.3027C44.5667 37.2909 44.6537 37.3317 44.9513 37.4344C44.7854 38.1131 44.2814 38.6817 43.7157 39.0679L43.4546 39.198C43.3357 39.1676 43.2053 39.1407 43.1306 39.0433C43.1487 38.891 43.2664 38.767 43.313 38.6262C43.4984 38.0649 43.5706 37.4461 44.2547 37.3027Z" fill="white"/>
<path d="M37.4348 24.8336C37.4754 24.8539 37.477 24.8553 37.5076 24.8881C38.488 25.9336 38.1871 27.3813 38.113 28.6785L38.089 28.7214L38.0581 28.7171C37.4527 27.6879 37.5895 27.3918 37.5855 26.2877C37.5863 25.799 37.5356 25.3117 37.4348 24.8336Z" fill="white"/>
<path d="M26.6285 43.134C26.6456 43.1452 26.6617 43.1553 26.6758 43.1703C27.5306 44.0919 28.1871 45.5958 28.2815 46.8247C28.2117 46.7753 28.0257 46.4204 27.9726 46.3206C27.4131 45.2678 26.9048 44.2984 26.6285 43.134Z" fill="white"/>
<path d="M34.1959 43.29L34.229 43.3284C34.2471 43.4749 34.2106 43.8082 34.1933 43.9653C34.0682 45.0803 33.3101 46.0436 32.4594 46.7252C32.6043 46.3772 32.7417 46.094 32.8792 45.7318C33.076 45.1928 33.0589 44.4997 33.0682 43.9218C33.2477 44.4541 33.3341 44.8734 33.2677 45.4331C33.8392 44.6067 33.9684 44.2701 34.1959 43.29Z" fill="white"/>
<path d="M33.8752 24.8956C34.1499 25.0985 34.4971 25.4281 34.7137 25.6879C35.5167 26.6516 35.5956 27.4578 35.5057 28.6379L35.4644 28.6307C35.2398 27.5145 35.1004 27.0508 34.4873 26.0654C34.3411 25.8309 33.9558 25.1502 33.8752 24.8956Z" fill="white"/>
<path d="M26.9308 26.1443L26.9549 26.168C26.9469 26.2503 26.7267 26.5482 26.6607 26.6848C26.5079 27.0012 26.4272 27.2271 26.3433 27.5682C26.5768 27.2365 26.731 27.0367 26.9966 26.7369C26.717 27.4749 26.6305 27.7549 26.4769 28.5442C26.4406 28.6858 26.4237 28.826 26.4031 28.9706C26.2583 28.613 26.1281 28.3288 26.0449 27.9461C25.9034 27.9704 25.759 27.9919 25.6171 28.0143C25.9685 27.2295 26.3386 26.7516 26.9308 26.1443Z" fill="white"/>
<path d="M35.4738 45.3203L35.4994 45.3659C35.3576 46.3367 34.2314 47.788 33.5546 48.5347C33.4934 48.4784 33.5365 48.3235 33.5597 48.248C33.9072 47.1114 34.8711 46.3137 35.4738 45.3203Z" fill="white"/>
<path d="M23.557 37.1251C23.5761 37.14 23.6059 37.1637 23.6081 37.1915C23.6625 37.8638 23.7892 38.5356 23.9867 39.1799C24.089 39.5138 24.7249 40.8173 24.5177 41.092C23.5884 39.8013 23.3567 38.6897 23.557 37.1251Z" fill="white"/>
<path d="M21.9487 33.1834C21.9855 33.3282 21.9469 33.7117 21.9296 33.8632C21.9059 34.0667 21.8699 34.2683 21.822 34.4675C21.7142 34.9243 21.5568 35.3998 21.4371 35.8567C21.3898 36.0372 21.2025 36.8935 21.1125 36.9645C20.854 35.5574 21.49 34.436 21.9487 33.1834Z" fill="white"/>
<path d="M37.9187 44.2776C37.9451 44.3933 37.9291 44.7155 37.9264 44.8494C37.9056 45.8532 37.5904 46.4844 37.0744 47.3098C37.1829 46.826 37.2056 46.3625 37.2149 45.8689C37.2013 45.3201 37.0714 44.7539 36.9037 44.2339C37.2389 44.6854 37.4464 45.1521 37.5328 45.7054C37.6379 45.3091 37.8016 44.624 37.9187 44.2776Z" fill="white"/>
<path d="M31.2254 27.0132C31.7117 26.9323 32.2452 27.0564 32.6452 27.3421C32.966 27.5712 33.1363 27.8692 33.3268 28.2016L33.0154 27.9698C32.7195 27.7852 32.3391 27.5941 31.9994 27.5125C31.4105 27.371 31.2624 27.4748 30.75 27.1088C30.9288 27.0627 31.0425 27.041 31.2254 27.0132Z" fill="white"/>
<path d="M28.9708 19.7614C29.2131 19.7456 29.4462 19.7541 29.6885 19.7594C29.377 19.8707 29.0544 19.9598 28.7469 20.0773C28.2982 20.2487 27.8495 20.4459 27.4079 20.6363L26.8776 20.8367C27.4108 20.2221 28.1606 19.837 28.9708 19.7614Z" fill="white"/>
<path d="M38.7705 27.6896C38.8673 28.374 38.9156 28.7822 39.1567 29.4538C39.218 29.6241 39.546 30.4475 39.5631 30.5351L39.529 30.5346C39.0743 30.0188 38.7062 29.5355 38.6564 28.8195C38.6329 28.4791 38.6518 28.0099 38.7705 27.6896Z" fill="white"/>
<path d="M34.6385 32.4629C34.6633 32.541 34.6324 32.7736 34.6191 32.8626C34.5065 33.6173 33.8495 34.064 33.2041 34.3083C33.1832 34.2355 33.3613 34.1046 33.4225 34.0496C33.9414 33.5832 34.3201 33.0792 34.6385 32.4629Z" fill="white"/>
<path d="M31.8375 42.6447C31.9449 42.7404 31.982 42.9684 31.9896 43.1119C32.0233 43.7434 31.6591 44.1965 31.2619 44.6368L31.2132 44.6632C31.2103 44.5723 31.4277 44.1648 31.4761 44.0397C31.661 43.5626 31.7844 43.1583 31.8375 42.6447Z" fill="white"/>
<path d="M30.276 23.7747C30.3012 23.8443 30.2061 24.2946 30.1838 24.4009C30.0852 24.8714 30.1597 25.1968 30.1661 25.6196L30.1437 25.6236L30.0968 25.5383C29.7735 24.7915 29.6664 24.4104 30.276 23.7747Z" fill="white"/>
<path d="M31.5201 27.9042C31.6463 27.8636 31.7823 27.9277 31.8314 28.0508C31.8804 28.174 31.8255 28.314 31.706 28.3712C31.6211 28.4118 31.5207 28.4017 31.4456 28.3451C31.3705 28.2885 31.3332 28.1948 31.3489 28.102C31.3645 28.0093 31.4306 27.933 31.5201 27.9042Z" fill="white"/>
<path d="M45.0296 25.1995C44.9162 25.2303 44.7391 25.286 44.6309 25.2475C44.6909 25.1905 44.8405 25.1658 44.9285 25.1437L45.0296 25.1995Z" fill="#BCBCBB"/>
</svg>
