<svg width="49" height="49" viewBox="0 0 49 49" fill="none" xmlns="http://www.w3.org/2000/svg">
<rect width="48.7208" height="48.7208" fill="black"/>
<path d="M17.8422 3.44474L17.8592 3.67931C17.8671 3.78904 17.8423 3.88349 17.8278 3.93201C17.8105 3.99007 17.7878 4.04602 17.7663 4.09433C17.7231 4.19131 17.6672 4.29516 17.615 4.38757C17.562 4.48143 17.506 4.57536 17.4611 4.65103C17.4119 4.73411 17.3828 4.78406 17.3699 4.80929C16.696 6.13118 16.0503 7.68173 15.8236 9.20808C15.5979 10.728 15.7929 12.176 16.737 13.366C16.884 13.5513 17.0357 13.71 17.2074 13.8755C17.3914 13.7831 17.5807 13.6969 17.6811 13.6494C18.254 13.3779 18.7853 13.1768 19.3241 13.0358C19.3152 13.0322 19.3064 13.0286 19.2977 13.0249C19.2381 12.9993 19.1679 12.9659 19.1031 12.9235C19.0613 12.8962 18.9213 12.8041 18.8536 12.629L18.768 12.4075L18.8867 12.2018C19.0382 11.9392 19.3179 11.8623 19.3833 11.842C20.7258 11.4254 22.1498 11.4056 23.4984 11.8088C23.4915 11.7912 23.4848 11.7725 23.4792 11.7527L23.4178 11.5331L23.6614 11.1681L23.8026 11.1106C23.935 11.0567 24.0719 11.0477 24.1643 11.0468C24.2666 11.0458 24.3711 11.0553 24.4642 11.0676C24.6506 11.0921 24.8329 11.134 24.9429 11.1639C25.925 11.4312 26.8106 11.8989 27.4803 12.6653C27.5271 12.5832 27.5969 12.4675 27.6663 12.3814C27.7279 12.305 27.8328 12.1916 27.9858 12.1215C28.1565 12.0433 28.3619 12.0323 28.5566 12.1266L28.5954 12.1468L28.6988 12.2048L28.7647 12.3032C28.8574 12.4416 28.9015 12.6002 28.926 12.7211C28.9504 12.842 28.9633 12.9694 28.9704 13.0886C29.8908 12.9014 30.9542 12.9419 31.7694 13.209C31.9386 13.2645 32.2706 13.3751 32.584 13.5123C32.74 13.5806 32.9047 13.6612 33.0473 13.7515C33.1718 13.8302 33.354 13.961 33.4574 14.1537L33.5565 14.3382L33.4935 14.538L33.4822 14.5734L33.4033 14.8234L33.2258 14.877C33.856 15.2787 34.4036 15.7805 34.9021 16.3465C35.2158 16.2722 35.4448 16.2263 35.7287 16.102C37.2241 15.4475 37.9283 14.3121 38.1842 12.9676C38.4372 11.6377 38.2468 10.109 37.8964 8.68513L37.862 8.54772C37.8362 8.44637 37.7415 8.17974 37.637 7.85711C37.5891 7.70945 37.5412 7.5552 37.5081 7.42667C37.4918 7.36354 37.4761 7.29495 37.4667 7.23089C37.462 7.19919 37.4572 7.15771 37.4569 7.11259C37.4566 7.07901 37.4573 6.98885 37.4979 6.88927L37.6028 6.6323L37.8766 6.58702C38.0238 6.56267 38.152 6.59353 38.2356 6.62357C38.3123 6.65113 38.381 6.6885 38.4383 6.72801L38.4622 6.74507L38.4625 6.74527C40.1177 7.97288 41.5274 9.91941 42.2457 12.0354C42.9643 14.1524 43.0094 16.5028 41.8278 18.4857C41.2805 19.404 40.388 20.1764 39.4257 20.7696C38.6802 21.2292 37.8713 21.5944 37.1048 21.8427C37.2426 22.0328 37.3914 22.2205 37.5427 22.4022L37.6134 22.4848C37.6837 22.565 37.7549 22.6416 37.8437 22.7423C37.9522 22.8655 38.0712 23.0082 38.1758 23.1729L38.3071 23.3796L38.2085 23.6495L38.15 23.8092L38.006 23.8995C37.7782 24.0425 37.5095 24.0526 37.3189 24.0413C37.1901 24.0337 37.0568 24.0131 36.9261 23.9856C36.9901 24.1702 37.038 24.3592 37.0519 24.5345C37.0635 24.6795 37.0579 24.8808 36.9576 25.0676C36.8373 25.2916 36.6218 25.4199 36.3776 25.4393C36.3437 25.442 36.3098 25.4424 36.2761 25.4411C36.2847 25.5437 36.2827 25.6473 36.2641 25.7467C36.2382 25.8848 36.1707 26.0645 36.0034 26.1971C35.9485 26.2407 35.8905 26.273 35.8317 26.2961C36.0309 26.5953 36.26 26.863 36.5707 27.1466L36.6322 27.202L36.6324 27.2022C36.7818 27.3352 37.0625 27.5735 37.3052 27.8318C37.4279 27.9624 37.5529 28.1102 37.654 28.2664C37.7516 28.4172 37.8498 28.6104 37.8772 28.8276L37.884 28.8858C38.0179 30.1115 37.5304 31.5491 36.9604 32.5266L36.9574 32.5317L36.9543 32.5366C36.6895 32.9669 36.3177 33.3262 35.8324 33.5169C35.5193 35.0287 34.145 35.8173 32.9173 36.1864C32.8998 36.2809 32.888 36.3673 32.885 36.4508C32.8796 36.6004 32.905 36.7021 32.9582 36.7842L32.9667 36.7954C32.9752 36.8064 32.9845 36.8179 32.9994 36.8366C33.0247 36.8682 33.0682 36.9223 33.107 36.9828C33.1626 37.0696 33.3517 37.3888 33.14 37.7254L33.044 37.878L32.8726 37.9334C32.686 37.9938 32.5076 37.967 32.4082 37.9465C32.3023 37.9248 32.1949 37.8887 32.1487 37.8743L32.148 37.874C31.9473 37.8111 31.7692 37.7269 31.6102 37.6262C31.4417 39.3435 30.5979 40.7676 29.1014 41.8913C29.0062 41.9628 28.8281 42.0889 28.6361 42.1953C28.5405 42.2483 28.4292 42.3033 28.3151 42.343C28.2138 42.3782 28.0491 42.424 27.871 42.396L27.6639 42.3636L27.5591 42.2155C27.1592 42.6954 26.6754 43.1215 26.0745 43.4542L26.074 43.4545C26.0191 43.4848 25.9203 43.5388 25.8077 43.5755C25.6978 43.6113 25.515 43.6509 25.3138 43.5856L25.0299 43.4933L24.9959 43.3001C24.3399 43.685 23.6085 43.9635 22.8275 44.0447C22.7364 44.0542 22.6074 44.058 22.4785 44.0449C22.4135 44.0383 22.3361 44.0262 22.2578 44.0029C22.1857 43.9815 22.0749 43.9396 21.9749 43.8516L21.7766 43.6769L21.8108 43.4149C21.811 43.4132 21.8112 43.4114 21.8116 43.4086C21.8119 43.4062 21.8124 43.4023 21.8129 43.3984C21.8139 43.3909 21.8156 43.3777 21.8182 43.3625C21.8236 43.3321 21.8348 43.2785 21.8624 43.2178C21.926 43.0774 22.0296 42.9988 22.0991 42.9561L22.0994 42.9559C22.1258 42.9397 22.1518 42.9231 22.1774 42.9064C22.1577 42.9168 22.1377 42.927 22.1173 42.9365C22.0188 42.9824 21.8756 43.035 21.7123 43.0334L21.7046 43.0333L21.697 43.033C21.5764 43.0282 21.4564 42.9871 21.3575 42.9183C21.2591 42.8499 21.1098 42.6988 21.1039 42.4566C21.0887 41.8339 21.1274 41.4556 21.0365 40.9646L21.0165 40.8648C20.8281 39.9876 20.357 39.2656 19.7589 38.5545C19.7051 38.7439 19.6403 38.9357 19.5624 39.1224C19.3738 39.5739 19.0913 40.0392 18.6652 40.351L18.1458 40.7309L17.9101 40.1322C17.8584 40.0009 17.8238 39.8536 17.7985 39.7366C17.7695 39.6024 17.7536 39.5134 17.7317 39.4226L17.7062 39.3249C17.6448 39.0978 17.5699 38.8743 17.4821 38.6561L17.4818 38.6553C17.2797 38.1507 17.0527 37.7397 16.8014 37.1981C16.7052 36.9908 16.6134 36.787 16.526 36.5847C16.4898 36.6203 16.4532 36.6465 16.4216 36.6649C16.3762 36.6914 16.3332 36.7067 16.3306 36.7077C16.3221 36.7109 16.3236 36.7103 16.328 36.7085L16.1496 36.787L15.9604 36.7157C15.8139 36.6606 15.6983 36.5671 15.6271 36.5033C15.5505 36.4347 15.4827 36.3609 15.4421 36.3171L15.4417 36.3166C14.6934 35.5074 14.1698 34.5382 13.8496 33.5065C13.851 33.6157 13.8557 33.7236 13.8645 33.8307L13.8714 33.9064L13.8878 34.0554C13.8951 34.1234 13.9029 34.2037 13.9078 34.2784C13.9129 34.3554 13.9166 34.445 13.9126 34.5293C13.9106 34.5713 13.9063 34.6224 13.8961 34.6752C13.8874 34.7204 13.8673 34.8069 13.8128 34.8946L13.7028 35.0717L13.4994 35.1172L13.4407 35.1304L13.3095 35.1597L13.1815 35.1188C13.0876 35.0889 13 35.0499 12.9141 34.9905C12.8367 34.9371 12.7751 34.8765 12.7325 34.8344L12.7322 34.834C11.5972 33.7103 10.8721 32.1003 10.5611 30.6024C10.5138 30.3742 10.4782 30.1528 10.4516 29.9352C10.4382 29.9572 10.4247 29.9793 10.4112 30.0016L10.1422 30.448C10.1081 30.504 9.9979 30.6937 9.87537 30.8587C9.81513 30.9398 9.73481 31.0388 9.64207 31.1194C9.59563 31.1598 9.52977 31.2101 9.44687 31.248C9.36439 31.2858 9.23113 31.3265 9.07315 31.2944L8.88406 31.256L8.77061 31.1C8.60655 30.8745 8.54238 30.57 8.50918 30.3608C8.47258 30.1301 8.45764 29.8921 8.44683 29.7497C8.37699 28.829 8.44129 27.9767 8.59703 27.1386C8.53652 27.1975 8.47888 27.2532 8.42511 27.3033C8.34433 27.3787 8.26557 27.4491 8.19742 27.5033C8.1642 27.5297 8.12396 27.5599 8.08145 27.5862C8.06027 27.5993 8.03001 27.6167 7.9936 27.6324C7.96401 27.6453 7.89364 27.6736 7.80121 27.6778L7.56713 27.6885L7.27438 27.3641L7.25014 27.222C7.21704 27.0277 7.23559 26.8186 7.2546 26.6842C7.40453 25.625 7.82812 24.4207 8.41279 23.3254C8.71486 22.7595 9.06588 22.2118 9.45385 21.7215C9.24239 21.7411 9.02875 21.7491 8.83606 21.7343C8.70561 21.7243 8.56437 21.7025 8.43219 21.6558C8.30374 21.6103 8.13891 21.5252 8.0222 21.359L7.89323 21.1752L7.99544 20.753L8.10967 20.6502C8.22826 20.5435 8.42307 20.4159 8.57609 20.3169C8.75178 20.2033 8.90311 20.1084 8.99916 20.0389C9.51782 19.6638 10.0581 19.238 10.6369 18.8559C10.4555 18.8175 10.2765 18.7697 10.1258 18.7089C10.0192 18.6658 9.8817 18.599 9.77026 18.4914C9.64602 18.3715 9.51157 18.1496 9.58708 17.8687L9.64507 17.6529L9.84512 17.5532C10.007 17.4725 10.1913 17.4086 10.3499 17.3568C10.5235 17.3001 10.6601 17.2595 10.7864 17.2134C11.1766 17.0711 11.5636 16.9281 11.9483 16.7808C11.3557 16.0732 10.8879 15.2673 10.6505 14.3807C10.0831 12.261 10.6903 9.88571 11.6855 8.09304L11.6864 8.09139L11.6873 8.08984C12.6661 6.35703 14.0736 4.90461 15.7749 3.87199L15.7759 3.87131C16.202 3.61418 16.632 3.36344 17.1814 3.20581L17.4098 3.14026L17.8422 3.44474ZM17.3183 3.68299C16.8378 3.82086 16.4568 4.04033 16.0325 4.29642L15.8807 4.39028C14.3201 5.37208 13.0273 6.72707 12.1196 8.33401L12.075 8.41517C11.1456 10.1275 10.6151 12.3284 11.1301 14.2523C11.6423 16.1656 13.3633 17.7245 15.0547 18.6564L15.1777 18.7236C13.9867 18.6 13.1364 17.9462 12.2773 17.1865C11.8388 17.3561 11.3982 17.5188 10.9566 17.6799L10.8503 17.7169C10.5943 17.8029 10.2881 17.8871 10.0665 17.9975C9.96029 18.3927 11.8917 18.5372 12.2028 18.5346C11.9339 18.6389 11.7237 18.7829 11.4769 18.9221C10.6994 19.3607 10.0127 19.9187 9.29017 20.4412L9.24624 20.4723C9.01354 20.6336 8.59728 20.8792 8.44179 21.0192L8.4286 21.0738C8.70807 21.4719 10.48 21.0735 10.9299 20.9248C9.35015 22.1584 8.02646 24.7732 7.74613 26.7537C7.72943 26.8719 7.71941 27.0204 7.73954 27.1386L7.77862 27.1818C7.92791 27.175 9.32437 25.675 9.53618 25.4699C9.08839 26.895 8.82801 28.2114 8.94185 29.7121C8.96488 30.0155 8.99589 30.5656 9.17206 30.8078C9.31854 30.8376 9.56319 30.4466 9.67785 30.2568L9.71828 30.1896C10.0789 29.5981 10.3936 29.0198 10.8645 28.5063C10.8766 29.1936 10.9051 29.8167 11.0472 30.5016C11.3439 31.9306 12.033 33.4432 13.0815 34.4813C13.1685 34.5673 13.2164 34.6089 13.3323 34.6458L13.3911 34.6327C13.4519 34.5348 13.3918 34.0992 13.3774 33.9562C13.2867 33.0557 13.4704 32.1474 13.5279 31.2515C13.3781 31.5146 13.0671 32.1173 12.8959 32.3161C12.8355 32.2055 12.7791 32.0949 12.7221 31.9826C11.8378 30.2399 12.3243 28.1304 13.473 26.6129C12.9626 27.9517 12.6787 29.2918 12.8738 30.7237C12.9178 31.0466 12.9953 31.3663 13.0573 31.6884C13.111 31.3704 13.2751 30.9693 13.377 30.6527C13.6233 29.8886 13.919 28.9616 14.3132 28.2573C14.1856 28.8512 14.0572 29.4457 13.9978 30.0576C13.7945 32.1554 14.3523 34.4073 15.8062 35.9795L15.8772 36.055C15.9474 36.1273 16.0304 36.2035 16.1128 36.2416L16.1352 36.2511C16.1662 36.2375 16.1835 36.2384 16.1862 36.2102C16.2245 35.8086 16.1138 35.2748 16.1017 34.881C16.0905 34.5136 16.0755 34.0806 16.1166 33.7381C16.3687 34.9164 16.7434 35.8937 17.2518 36.9892C17.4849 37.4914 17.7353 37.9528 17.9427 38.4707C18.0515 38.741 18.1418 39.0187 18.213 39.3012C18.2611 39.4988 18.3006 39.7689 18.3721 39.9503C19.0197 39.4765 19.3219 38.4586 19.4376 37.6933C19.4488 37.6198 19.4556 37.5459 19.4582 37.4715C20.3529 38.4376 21.2159 39.4288 21.5019 40.7606C21.6313 41.3627 21.5855 41.8424 21.6002 42.4443C21.6014 42.4929 21.653 42.5259 21.6982 42.5347L21.717 42.5369C21.9181 42.5388 22.2141 42.2968 22.385 42.139L22.4499 42.0775C23.2733 41.2772 23.7651 39.7346 23.8528 38.6005C24.2199 40.4374 24.0768 42.3271 22.3587 43.3793C22.3087 43.4099 22.3093 43.4316 22.3031 43.479C22.3972 43.5619 22.6528 43.5638 22.7759 43.5509C24.0478 43.4187 25.2076 42.6952 26.0987 41.8307C25.9901 42.0955 25.882 42.3739 25.7333 42.6182C25.6618 42.7249 25.4483 43.0052 25.4673 43.1134C25.5847 43.1516 25.7252 43.0798 25.834 43.0198C27.3893 42.1587 28.0994 40.5928 28.6746 39.0289C28.6552 39.9248 28.5623 40.6797 28.1155 41.47C28.0569 41.5738 27.8926 41.8273 27.9479 41.9056C28.1711 41.9406 28.633 41.6221 28.8032 41.4942C30.5473 40.1846 31.3206 38.466 31.112 36.2951C31.3743 36.8207 31.7218 37.2202 32.2965 37.4003C32.4127 37.4365 32.574 37.4935 32.6959 37.4674L32.7198 37.461C32.8021 37.33 32.6148 37.1669 32.5418 37.0546C32.2909 36.6678 32.4008 36.2056 32.4941 35.7887C33.8354 35.4503 35.243 34.6616 35.3888 33.1324C35.8657 33.0347 36.2373 32.7353 36.5058 32.3173L36.5315 32.2765C37.0807 31.3347 37.5219 29.9788 37.3845 28.8896C37.3284 28.4433 36.6254 27.8606 36.3023 27.573C35.5644 26.9169 35.2279 26.338 34.8173 25.4558C36.0943 26.4744 35.8991 25.2808 35.4105 24.5219C37.234 25.7959 36.4834 23.8637 35.8934 23.0906C36.2617 23.29 37.3343 23.7003 37.7241 23.4895L37.7422 23.479L37.7568 23.439C37.6102 23.2083 37.4173 23.0145 37.2374 22.809L37.1614 22.7201C36.8602 22.3585 36.5546 21.9575 36.3215 21.5494C38.0878 21.1221 40.3453 19.9212 41.3542 18.3086L41.4013 18.2314C43.5722 14.5884 41.3067 9.47294 38.1667 7.1441C38.1115 7.10323 38.0278 7.06528 37.9575 7.0769L37.9556 7.08301C37.9212 7.22497 38.2824 8.18653 38.3432 8.42535C39.1012 11.405 39.267 15.0953 35.9279 16.5568C35.5144 16.7378 35.1469 16.7899 34.7249 16.9027L34.6418 16.804C33.7793 15.7924 32.7963 15.0118 31.4906 14.6261C31.8543 14.5722 32.2136 14.5197 32.5799 14.4891C32.7025 14.4788 32.836 14.4677 32.9575 14.4379L33.0088 14.4239L33.02 14.3884C32.8643 14.0986 31.9503 13.7907 31.6148 13.6808C30.6963 13.3799 29.3948 13.3999 28.4683 13.7435C28.4869 13.4628 28.5079 12.8536 28.3665 12.6028L28.3523 12.5797C28.1277 12.4535 27.9458 12.8612 27.8505 13.0202C27.7408 13.2038 27.6402 13.3968 27.532 13.5825C26.9415 12.5816 26.0222 11.9934 24.9198 11.6731L24.8125 11.643C24.625 11.5919 24.1723 11.4962 23.9898 11.5705L23.9574 11.619C23.9855 11.7197 24.3411 12.0255 24.4345 12.1209L24.5368 12.2265C24.7749 12.4756 25.0067 12.7445 25.1601 13.0517C24.6531 12.8025 24.1941 12.5706 23.6568 12.382L23.5482 12.3448C22.2408 11.9093 20.8458 11.9081 19.5305 12.3162L19.4992 12.3263C19.4263 12.351 19.3541 12.3852 19.3167 12.4499C19.3742 12.5985 20.2727 12.8016 20.4788 12.8706C20.8247 12.9864 21.1285 13.111 21.4579 13.266C20.115 13.2821 19.1126 13.5205 17.8937 14.098L17.7145 14.1821C17.5137 14.2763 17.2657 14.3949 17.1309 14.4846C16.8607 14.2356 16.6226 14.0108 16.3937 13.7313L16.348 13.6747C14.2669 11.0514 15.5204 7.38118 16.8636 4.71018L16.9276 4.58383C17.012 4.41824 17.353 3.9036 17.364 3.7308V3.71519L17.3183 3.68299Z" fill="white"/>
<path d="M17.2421 3.63608L17.2879 3.66827C17.2991 3.82315 16.9386 4.36595 16.8514 4.53688C15.4849 7.21752 14.1578 10.9629 16.2719 13.6277C16.5149 13.934 16.7665 14.1721 17.0547 14.4377C17.2345 14.3182 17.6153 14.147 17.8175 14.0511C19.0364 13.4736 20.0388 13.2351 21.3817 13.2191C21.0523 13.064 20.7485 12.9395 20.4026 12.8237C20.1965 12.7547 19.298 12.5516 19.2406 12.4031C19.2833 12.3291 19.3715 12.295 19.4543 12.2693C20.7696 11.8611 22.1646 11.8623 23.472 12.2979C24.057 12.4928 24.5431 12.739 25.0839 13.0048C24.9086 12.6537 24.6309 12.3527 24.3583 12.074C24.265 11.9786 23.9094 11.6728 23.8812 11.5721L23.9136 11.5236C24.0961 11.4493 24.5489 11.545 24.7364 11.596C25.8864 11.909 26.8463 12.5024 27.4558 13.5356C27.564 13.3499 27.6647 13.1568 27.7743 12.9733C27.8696 12.8143 28.0515 12.4065 28.2761 12.5327C28.4331 12.7671 28.4113 13.4068 28.3921 13.6965C29.3186 13.353 30.6202 13.3329 31.5387 13.6339C31.8741 13.7438 32.7882 14.0517 32.9438 14.3416L32.9326 14.377C32.7982 14.4176 32.6438 14.4304 32.5038 14.4422C32.1374 14.4728 31.7781 14.5253 31.4144 14.5792C32.7622 14.9774 33.7663 15.7962 34.6488 16.8557C35.0708 16.7429 35.4382 16.6909 35.8517 16.5099C39.1908 15.0485 39.025 11.3581 38.267 8.3784C38.2052 8.13577 37.8335 7.14728 37.8814 7.02996C37.9517 7.01834 38.0353 7.05628 38.0905 7.09715C41.2305 9.42598 43.4961 14.5416 41.3251 18.1845C40.341 19.8359 38.0397 21.0684 36.2453 21.5025C36.4784 21.9106 36.784 22.3116 37.0852 22.6732C37.2851 22.9129 37.5131 23.1284 37.6806 23.3921L37.666 23.432C37.2924 23.6665 36.1913 23.2463 35.8172 23.0437C36.4072 23.8168 37.1579 25.7489 35.3343 24.475C35.823 25.2339 36.0182 26.4275 34.7411 25.4088C35.1518 26.2911 35.4882 26.8699 36.2261 27.5261C36.5492 27.8137 37.2522 28.3964 37.3084 28.8428C37.4458 29.9319 37.0045 31.2877 36.4553 32.2295C36.185 32.6689 35.805 32.9847 35.3127 33.0855C35.1668 34.6147 33.7592 35.4034 32.418 35.7418C32.3246 36.1587 32.2147 36.6209 32.4656 37.0077C32.5386 37.12 32.726 37.2831 32.6436 37.4141C32.5196 37.4542 32.3443 37.392 32.2203 37.3534C31.6456 37.1732 31.2982 36.7738 31.0359 36.2482C31.2445 38.4192 30.4711 40.1377 28.7271 41.4473C28.5569 41.5752 28.095 41.8937 27.8718 41.8587C27.8164 41.7804 27.9807 41.5268 28.0393 41.423C28.4861 40.6327 28.579 39.8778 28.5985 38.982C28.0233 40.5459 27.3131 42.1118 25.7579 42.9729C25.6491 43.0329 25.5085 43.1046 25.3911 43.0665C25.3721 42.9583 25.5856 42.678 25.6571 42.5712C25.8058 42.3269 25.9139 42.0486 26.0225 41.7838C25.1314 42.6483 23.9716 43.3718 22.6997 43.5041C22.5766 43.5169 22.3211 43.515 22.2269 43.4321C22.2331 43.3847 22.2326 43.3631 22.2825 43.3324C24.0007 42.2802 24.1437 40.3905 23.7767 38.5536C23.689 39.6877 23.1972 41.2302 22.3738 42.0306C22.2244 42.1757 21.8706 42.4922 21.6408 42.49C21.5925 42.4881 21.5254 42.4529 21.524 42.3974C21.5093 41.7955 21.5551 41.3158 21.4257 40.7136C21.1397 39.3819 20.2768 38.3907 19.3821 37.4246C19.3795 37.499 19.3726 37.5729 19.3614 37.6463C19.2457 38.4116 18.9435 39.4295 18.2959 39.9033C18.2245 39.722 18.185 39.4519 18.1369 39.2542C18.0657 38.9717 17.9753 38.6941 17.8666 38.4238C17.6591 37.9059 17.4087 37.4445 17.1756 36.9423C16.6672 35.8468 16.2926 34.8695 16.0404 33.6911C15.9994 34.0337 16.0144 34.4667 16.0256 34.834C16.0377 35.2278 16.1483 35.7617 16.1101 36.1633C16.1074 36.1915 16.0901 36.1906 16.0591 36.2042C15.9396 36.1592 15.8163 36.0257 15.73 35.9326C14.2761 34.3604 13.7184 32.1085 13.9217 30.0107C13.981 29.3988 14.1095 28.8044 14.2371 28.2104C13.8429 28.9147 13.5471 29.8417 13.3008 30.6058C13.1989 30.9223 13.0348 31.3235 12.9812 31.6415C12.9191 31.3193 12.8417 30.9997 12.7977 30.6768C12.6026 29.2449 12.8864 27.9049 13.3968 26.566C12.2481 28.0835 11.7616 30.193 12.6459 31.9356C12.7029 32.0479 12.7593 32.1586 12.8197 32.2692C12.9909 32.0703 13.302 31.4676 13.4517 31.2046C13.3942 32.1005 13.2106 33.0087 13.3012 33.9092C13.3156 34.0522 13.3757 34.4878 13.3149 34.5858L13.2562 34.5989C13.1402 34.562 13.0924 34.5204 13.0053 34.4343C11.9569 33.3962 11.2677 31.8836 10.9711 30.4546C10.8289 29.7698 10.8004 29.1467 10.7883 28.4594C10.3174 28.9728 10.0028 29.5512 9.64216 30.1427C9.55887 30.2793 9.26329 30.795 9.09589 30.7609C8.9197 30.5188 8.88873 29.9686 8.86571 29.6652C8.75186 28.1645 9.01223 26.848 9.46002 25.4229C9.24822 25.6281 7.85176 27.1281 7.70247 27.1349L7.6634 27.0916C7.64327 26.9735 7.65331 26.825 7.67001 26.7068C7.95035 24.7262 9.27396 22.1116 10.8537 20.8779C10.4038 21.0266 8.63186 21.4249 8.35243 21.0268L8.36563 20.9723C8.53148 20.823 8.994 20.5534 9.21401 20.3943C9.93656 19.8717 10.6232 19.3139 11.4007 18.8752C11.6475 18.736 11.8577 18.592 12.1267 18.4878C11.8158 18.4903 9.88415 18.3458 9.99036 17.9506C10.2437 17.8244 10.6074 17.7325 10.8804 17.6329C11.322 17.4718 11.7627 17.3093 12.2012 17.1396C13.0603 17.8993 13.9105 18.5531 15.1015 18.6767L14.9785 18.6095C13.2871 17.6776 11.5661 16.1186 11.054 14.2054C10.5308 12.251 11.0866 10.0107 12.0434 8.28706C12.9804 6.62829 14.3277 5.23798 15.9563 4.2495C16.3807 3.9934 16.7617 3.77395 17.2421 3.63608Z" fill="#000100"/>
<path d="M33.6485 23.4136C33.6726 23.464 33.7635 24.1159 33.7915 24.2433C33.9719 25.0666 34.2483 25.9135 34.6587 26.6518C34.9001 27.0907 35.239 27.4293 35.5638 27.7971C35.8788 28.1538 36.4808 28.4287 36.6675 28.8367C36.9169 29.382 36.0986 29.6701 35.8052 29.9922C35.572 30.2482 35.4602 30.4235 35.3083 30.7492C35.3299 30.1631 35.4624 29.9509 35.7284 29.4432C35.5898 29.4693 35.2365 29.5811 35.0831 29.6319C34.543 29.8103 34.0524 29.5505 33.5238 29.3523C33.5839 29.4795 33.6507 29.6667 33.687 29.7975C33.7847 30.15 33.7363 30.3571 33.5562 30.6554C32.8944 31.7516 32.9489 31.7596 31.701 32.0616C31.0563 32.2176 30.3038 32.3803 29.6827 32.0265C29.3428 31.833 29.1576 31.5184 29.0674 31.1518C29.1512 30.8902 29.3144 30.633 29.4476 30.3892C28.6521 30.8035 28.4725 31.1912 28.146 31.9913C28.0798 31.5153 28.3205 30.4585 28.5391 30.0167C28.6198 29.8536 28.9485 29.328 28.94 29.2288C28.8702 29.2213 28.8712 29.2407 28.7951 29.2901C28.3767 29.5672 28.0869 29.8553 27.7777 30.2436C27.9342 29.6042 28.2021 28.9974 28.5695 28.4511C28.0803 28.684 27.7585 28.9787 27.3624 29.3353C27.379 28.4078 27.6855 27.7223 28.2537 27.0027C28.4149 26.7987 28.6991 26.4275 28.8177 26.2057L28.8328 26.1771C28.9256 26.5111 28.9665 27.0442 28.9891 27.3941C29.4019 26.7897 29.5115 26.0285 29.2862 25.3323C29.0703 24.6774 28.9268 24.6741 28.8447 23.8985C29.2852 24.5728 29.5541 24.9215 30.3568 25.1903C30.0401 24.5044 29.9759 24.2541 30.0435 23.511C30.7645 24.6362 31.6684 25.4193 32.9839 25.7696C32.7447 25.2041 32.528 24.5904 32.4887 23.9771C32.8285 24.5105 33.0578 24.7459 33.5693 25.0863C33.4767 24.4674 33.4725 24.0108 33.6485 23.4136Z" fill="white"/>
<path d="M30.9025 28.5853C31.3914 28.5343 32.0216 28.7574 32.4178 29.0363C32.8824 29.3633 33.4627 29.928 33.2104 30.5552C33.2004 30.58 33.1496 30.5723 33.1258 30.573C32.8617 30.4592 32.4502 30.2696 32.1681 30.3384C31.1118 30.5956 30.7185 29.6642 30.7844 28.7861C30.7921 28.6833 30.8164 28.6497 30.9025 28.5853Z" fill="#000100"/>
<path d="M31.4157 27.3231C32.3512 27.272 33.2189 27.8978 34.0503 28.2331C34.5618 28.439 34.9046 28.4042 35.3957 28.1832C34.9639 28.6556 34.6717 28.7981 34.0277 28.7025C33.6292 28.605 33.3232 28.4601 32.96 28.2751C31.8465 27.7082 31.1787 27.5249 29.9626 27.9107C30.4943 27.5363 30.7547 27.3793 31.4157 27.3231Z" fill="#000100"/>
<path d="M27.7472 14.6315C28.9526 14.3576 29.5222 14.2951 30.7438 14.6114C30.4066 14.6643 30.0211 14.7295 29.6946 14.8235C31.4056 15.1472 32.8214 16.1229 33.9976 17.3704C34.1926 17.5773 34.3769 17.8003 34.5721 18.0024C34.1406 17.8338 33.8792 17.7593 33.4628 17.5241C33.1954 17.373 32.8455 17.1043 32.599 16.9808C33.26 17.6639 33.6529 18.2476 34.1209 19.0846C34.6392 20.0119 35.1974 21.209 35.9221 21.9993C35.2309 21.733 34.7561 21.4419 34.2312 20.9031C34.2111 22.0348 34.2721 22.6334 34.7727 23.6763C33.9616 22.9383 33.7355 22.3111 33.5381 21.2753C33.3305 22.096 33.2629 22.4949 32.8623 23.2594C33.1222 21.2496 32.7529 19.5729 31.2422 18.1239C31.962 19.6335 32.0593 19.9792 32.1086 21.6428C31.9655 21.1656 31.8038 20.6483 31.585 20.1999C31.1306 19.2691 30.3133 18.3713 29.4913 17.7457C29.0856 17.4368 28.6837 17.2093 28.2643 16.8776C28.9917 18.1083 29.2538 19.0044 29.1869 20.4574C29.1689 20.8507 29.1349 21.2932 29.0357 21.6758C29.0299 21.6987 29.0236 21.7215 29.0172 21.7443C28.4489 19.3076 26.6356 19.1572 25.9301 17.0795C25.5525 18.094 25.5842 18.7773 26.0253 19.7929C25.2116 19.1787 24.4183 18.5675 23.9941 17.6029C23.6069 16.7223 23.6768 16.1325 24.1933 15.3459C24.0088 16.6292 24.3456 17.2441 25.1255 18.2202C24.827 17.0477 25.128 16.1848 25.8113 15.2175C26.3408 15.9309 26.7085 16.355 27.5416 16.7581C27.4049 16.448 27.3009 16.1163 27.2005 15.7924C28.6754 16.3124 29.4033 16.7213 30.5408 17.762C29.9668 16.7302 29.3452 16.0784 28.3137 15.4808C28.1581 15.3905 27.9344 15.2605 27.7681 15.2048L27.7752 15.1902C27.9663 15.2007 28.1394 15.2632 28.3234 15.2998C29.1928 15.4727 30.2788 15.8504 31.02 16.3501L31.108 16.2994C30.2736 15.3594 28.9956 14.7494 27.7472 14.6315Z" fill="white"/>
<path d="M31.1082 16.2994L31.3648 16.5797L31.02 16.3502L31.1082 16.2994Z" fill="#000100"/>
<path d="M16.0632 4.84912C16.0645 4.8551 16.0755 4.89614 16.0734 4.89988C14.9903 6.83147 14.181 9.08149 14.4956 11.3264C14.6168 12.191 15.0276 13.2827 15.567 13.9797C16.626 15.3481 18.3416 16.1417 20.032 16.359C20.4992 16.419 20.9958 16.423 21.4644 16.4212C20.7948 16.8129 20.4085 16.8641 19.6503 16.8574C20.316 17.1081 21.0991 17.0897 21.7912 16.9852C20.9911 17.3501 20.5583 17.4644 19.697 17.4245C20.5768 17.7773 21.1365 17.659 21.9947 17.6468C20.3593 18.1516 19.1892 17.9432 17.615 17.3955C17.5544 17.373 17.4942 17.3495 17.4344 17.3252C15.6869 16.6142 14.3002 15.4889 13.5508 13.724C13.6487 14.4392 13.9595 15.1057 14.2953 15.733C13.1098 14.5791 12.6345 13.011 12.6985 11.3917C12.76 9.83771 13.253 8.63465 14.0203 7.30627C13.4201 7.84473 12.9245 8.5562 12.5687 9.27377C12.4509 9.51136 12.3586 9.75564 12.2333 9.98812L12.2397 9.95739C12.7485 7.60843 14.0884 6.11575 16.0632 4.84912Z" fill="white"/>
<path d="M39.0609 8.6955C40.4297 10.2102 41.398 12.2613 41.3428 14.3463C41.2718 17.0206 39.3011 18.8609 36.8287 19.5662L36.7366 19.5154C37.5425 19.2275 38.0664 18.8765 38.7447 18.3561C38.4823 18.4329 38.237 18.6112 37.9866 18.7233C37.2804 19.0397 36.5268 19.2379 35.7575 19.3215C35.5986 19.3388 35.4043 19.3584 35.2509 19.3871C35.1048 19.1553 34.955 18.926 34.8016 18.6991C35.0593 18.7977 35.6637 19.0057 35.9691 18.9586C36.0201 18.9508 36.0296 18.8989 36.0405 18.8617C35.9868 18.619 35.5229 18.222 35.3489 17.9909C35.2142 17.8124 35.1337 17.7242 35.0068 17.515C36.6782 17.162 37.7258 16.4434 38.7065 15.0256C39.7178 13.5639 39.7059 11.5735 39.3432 9.87745C39.2554 9.48198 39.1616 9.08793 39.0609 8.6955Z" fill="white"/>
<path d="M40.4553 13.493L40.4804 13.5133C40.5781 13.707 40.5861 14.6798 40.5754 14.9048C40.5178 16.0981 39.7168 16.7661 38.8703 17.4984C38.8455 17.5232 38.8615 17.5121 38.8185 17.5253C38.826 17.4775 39.1326 17.027 39.188 16.9356C40.0044 15.5856 40.3212 15.0748 40.4553 13.493Z" fill="#000100"/>
<path d="M16.5643 18.8398C17.7702 18.8526 18.8822 19.3808 19.9733 19.8467C19.0484 19.8657 18.1085 19.6097 17.2051 19.615C16.057 19.6216 15.1077 19.9987 14.3101 20.8189C14.7548 20.8181 15.5368 20.8729 15.9518 21.009C15.7558 21.1896 15.406 21.3956 15.1709 21.5465C15.6428 21.6405 16.0409 21.7158 16.4995 21.8546C16.3681 21.9429 16.2789 22.0182 16.1573 22.1204C16.4476 22.2738 16.6853 22.3328 16.9961 22.4306C17.126 22.5921 17.1643 22.6595 17.3344 22.7762C17.3987 22.8073 17.464 22.8365 17.5301 22.8636C18.1258 23.1043 18.7863 22.8405 19.3439 22.6094C17.5969 24.31 15.5377 23.0179 13.9878 21.7853C14.2252 21.6742 14.5051 21.5203 14.7419 21.3983C14.3394 21.3483 13.7728 21.3343 13.4142 21.1508C13.1123 20.9963 13.804 20.2691 13.9483 20.0971C14.659 19.2501 15.4667 18.9049 16.5643 18.8398Z" fill="white"/>
<path d="M21.5977 22.5182L21.6229 22.5604C21.5054 23.4431 21.4871 24.0743 21.6105 24.9561C21.6844 25.4842 21.5584 26.1452 21.4172 26.664C22.2316 25.9211 22.5046 25.3085 22.7915 24.2748C22.8396 24.5275 22.8831 24.8695 22.8544 25.1232C22.7375 26.1547 22.3416 26.7559 22.6498 27.8281C22.8745 27.6051 23.043 27.3219 23.2459 27.0776C23.4649 26.8138 23.6954 26.5814 23.9151 26.3159C23.415 27.5453 23.13 28.6719 23.3181 30.0102C23.3696 30.3771 23.4191 30.6698 23.551 31.0233C22.9275 30.3557 22.6973 29.7982 22.5371 28.8992C22.5084 28.5948 22.4317 28.2148 22.371 27.9161C21.9825 28.9106 21.9484 29.4075 22.1036 30.4785C22.0013 30.3362 21.9033 30.2015 21.8135 30.0508C21.0662 28.7966 21.9286 27.6695 22.2255 26.4802C21.53 27.0897 21.2317 27.5567 20.2613 27.8045C20.9285 26.9721 21.0915 25.9194 21.1048 24.8878C20.7242 25.4781 20.5448 25.6894 20.0089 26.1423C20.1669 25.7837 20.3962 25.3758 20.5339 25.0173C20.8738 24.1325 21.1645 23.3689 21.5977 22.5182Z" fill="white"/>
<path d="M18.7078 24.3482C18.704 24.3972 18.4846 24.8804 18.4403 24.9804C18.2601 25.3877 18.1791 25.7919 18.0373 26.2067C18.4056 25.8342 18.7883 25.4764 19.1846 25.1341C18.4946 26.4321 18.4116 28.0648 18.8206 29.4588C18.8769 29.6508 18.9412 29.9119 19.0446 30.0775L19.0774 30.07C19.1288 29.3095 19.3859 28.6614 19.726 27.9948C19.6396 29.0684 19.5623 29.7031 19.57 30.801C19.5931 31.2308 19.6284 31.7046 19.6205 32.1315C18.1259 30.3811 17.6549 28.7924 18.3671 26.5286C18.1801 26.7255 17.3653 27.8443 17.1804 27.7422C17.1383 27.6094 17.2464 27.219 17.2748 27.0702C17.4864 25.9629 17.9253 25.1564 18.7078 24.3482Z" fill="white"/>
<path d="M33.3169 32.6961C33.3319 32.6939 33.347 32.6922 33.3621 32.691C33.8772 32.6433 34.2477 32.7732 34.637 33.0975C34.6219 33.157 34.6063 33.2163 34.59 33.2757C34.3744 34.0531 33.8014 34.4676 33.125 34.8527C33.2913 34.587 33.3482 34.4256 33.4107 34.1217C33.1754 34.1589 32.8749 34.2741 32.6442 34.3585C32.2209 34.5129 31.9562 34.5926 31.5101 34.6483C31.6807 34.5136 31.8638 34.3351 32.0252 34.1851C31.7748 34.252 31.5896 34.2928 31.3343 34.3395C31.1697 34.3432 31.0574 34.3548 30.893 34.3753C30.991 34.3006 31.2208 34.1494 31.2295 34.0293C31.1121 34.0006 30.7778 34.0412 30.6047 34.031C30.3356 34.015 30.1615 33.9846 29.8973 33.9391C30.355 33.8399 30.3864 33.8625 30.8524 33.6345C30.2522 33.6185 29.7463 33.5997 29.5044 32.9669C30.622 33.5222 32.0901 32.8305 33.3169 32.6961Z" fill="white"/>
<path d="M11.5881 22.7383C11.5883 22.7612 11.2685 23.5772 11.2276 23.6835C10.9231 24.4748 10.9495 25.2204 10.8523 26.0385C11.0993 25.7658 11.3223 25.4833 11.5792 25.2103C12.0633 24.696 12.5408 24.3048 13.0988 23.8792C12.6677 24.5555 12.3222 25.0766 11.83 25.7171C11.1874 26.5058 10.6119 27.3537 9.96235 28.1123C9.94874 27.5888 9.93162 27.0873 9.97957 26.5649C10.1084 25.1609 10.6409 23.7917 11.5881 22.7383Z" fill="white"/>
<path d="M25.8311 28.7686C25.8781 28.8272 25.7571 29.436 25.7398 29.5578C25.5654 30.7872 25.8038 31.3911 26.0909 32.5026C26.3803 31.4378 26.4183 30.9756 26.9951 29.9616C26.7958 30.8045 26.7567 31.606 26.9757 32.4489C27.095 32.851 27.1959 33.1043 27.3761 33.4806C26.9049 33.0863 26.758 32.9302 26.4472 32.3893C26.3089 32.6946 26.251 33.0248 26.0933 33.3131C24.9718 31.704 24.979 30.484 25.8311 28.7686Z" fill="white"/>
<path d="M23.3471 21.8573C23.5323 21.9181 23.7187 21.975 23.9063 22.028C23.9427 22.741 24.1172 23.2341 24.9426 23.3408C25.3733 23.3965 25.6706 23.1844 25.9914 22.9203C26.363 23.2114 26.4665 23.4632 26.6268 23.8941C26.6495 23.995 26.6848 24.1088 26.7132 24.2096C26.1573 24.0292 25.8358 24.0583 25.2689 24.0718C24.7794 24.0835 24.1923 23.9817 23.8386 23.6146C23.3364 23.0935 23.3421 22.5223 23.3471 21.8573Z" fill="white"/>
<path d="M20.525 31.3414C20.5495 31.3636 20.5618 31.3845 20.5658 31.4195C20.6086 31.7926 20.6656 32.1658 20.7817 32.5247C20.9327 32.9914 21.2446 33.3763 21.4952 33.7932C21.4598 33.0763 21.4547 32.7388 21.6343 32.037C21.7187 32.7286 21.5887 32.8995 21.8843 33.6899C22.0498 34.101 22.2569 34.435 22.5162 34.7917C21.8468 34.5325 21.437 34.3137 20.9828 33.7193C20.5308 33.1281 20.4026 32.0686 20.525 31.3414Z" fill="white"/>
<path d="M36.122 30.5995C36.4064 30.5888 36.4857 30.626 36.757 30.7196C36.6058 31.3383 36.1463 31.8566 35.6307 32.2086L35.3927 32.3273C35.2842 32.2996 35.1654 32.275 35.0973 32.1863C35.1138 32.0475 35.221 31.9344 35.2636 31.8061C35.4325 31.2943 35.4984 30.7303 36.122 30.5995Z" fill="white"/>
<path d="M29.905 19.2327C29.942 19.2512 29.9434 19.2525 29.9714 19.2824C30.8651 20.2355 30.5908 21.5552 30.5233 22.7377L30.5014 22.7768L30.4732 22.7729C29.9213 21.8347 30.046 21.5648 30.0424 20.5583C30.0431 20.1128 29.9969 19.6685 29.905 19.2327Z" fill="white"/>
<path d="M20.0538 35.9153C20.0693 35.9256 20.0841 35.9348 20.0969 35.9484C20.8762 36.7886 21.4746 38.1595 21.5607 39.2798C21.4971 39.2348 21.3275 38.9112 21.2791 38.8203C20.7691 37.8605 20.3056 36.9768 20.0538 35.9153Z" fill="white"/>
<path d="M26.9523 36.0576L26.9825 36.0926C26.999 36.2261 26.9657 36.5299 26.9499 36.6731C26.8359 37.6896 26.1448 38.5677 25.3693 39.1891C25.5014 38.8718 25.6267 38.6137 25.752 38.2835C25.9314 37.7922 25.9158 37.1603 25.9243 36.6335C26.0879 37.1188 26.1667 37.5009 26.1062 38.0112C26.6271 37.2578 26.7449 36.951 26.9523 36.0576Z" fill="white"/>
<path d="M26.6603 19.2892C26.9107 19.4742 27.2272 19.7747 27.4246 20.0115C28.1566 20.89 28.2286 21.6249 28.1466 22.7007L28.109 22.6941C27.9043 21.6766 27.7771 21.2539 27.2182 20.3556C27.085 20.1418 26.7337 19.5213 26.6603 19.2892Z" fill="white"/>
<path d="M20.3297 20.4275L20.3517 20.4492C20.3444 20.5242 20.1436 20.7957 20.0835 20.9203C19.9442 21.2087 19.8706 21.4146 19.7941 21.7256C20.0069 21.4232 20.1476 21.2411 20.3897 20.9677C20.1347 21.6405 20.0559 21.8958 19.9159 22.6153C19.8829 22.7444 19.8674 22.8722 19.8486 23.004C19.7166 22.678 19.598 22.419 19.5221 22.0701C19.3931 22.0922 19.2615 22.1118 19.1321 22.1322C19.4524 21.4168 19.7898 20.9811 20.3297 20.4275Z" fill="white"/>
<path d="M28.1173 37.9084L28.1407 37.95C28.0113 38.8349 26.9847 40.1579 26.3678 40.8386C26.3119 40.7873 26.3513 40.6461 26.3723 40.5773C26.6892 39.5411 27.5679 38.814 28.1173 37.9084Z" fill="white"/>
<path d="M17.2541 30.4375C17.2715 30.4511 17.2987 30.4728 17.3007 30.4981C17.3503 31.1109 17.4658 31.7233 17.6458 32.3107C17.7391 32.6151 18.3188 33.8034 18.1299 34.0538C17.2827 32.8771 17.0716 31.8639 17.2541 30.4375Z" fill="white"/>
<path d="M15.788 26.8444C15.8215 26.9764 15.7863 27.326 15.7705 27.4641C15.7489 27.6496 15.7161 27.8334 15.6725 28.015C15.5742 28.4315 15.4307 28.8649 15.3216 29.2814C15.2785 29.446 15.1077 30.2266 15.0257 30.2912C14.79 29.0086 15.3698 27.9863 15.788 26.8444Z" fill="white"/>
<path d="M30.3462 36.9578C30.3702 37.0633 30.3557 37.357 30.3532 37.479C30.3343 38.3941 30.0469 38.9696 29.5765 39.722C29.6754 39.281 29.6961 38.8585 29.7046 38.4085C29.6922 37.9081 29.5738 37.392 29.4209 36.9179C29.7265 37.3295 29.9156 37.755 29.9944 38.2594C30.0902 37.8982 30.2395 37.2736 30.3462 36.9578Z" fill="white"/>
<path d="M24.2444 21.2196C24.6878 21.1458 25.174 21.2589 25.5387 21.5194C25.8311 21.7283 25.9864 21.9999 26.1601 22.3029L25.8762 22.0916C25.6065 21.9233 25.2597 21.7491 24.95 21.6747C24.4131 21.5458 24.2781 21.6404 23.811 21.3067C23.974 21.2647 24.0777 21.2449 24.2444 21.2196Z" fill="white"/>
<path d="M22.1892 14.6088C22.4101 14.5943 22.6226 14.6021 22.8434 14.6069C22.5595 14.7084 22.2654 14.7896 21.9851 14.8967C21.5761 15.053 21.167 15.2327 20.7645 15.4063L20.281 15.589C20.7671 15.0287 21.4507 14.6776 22.1892 14.6088Z" fill="white"/>
<path d="M31.1227 21.8362C31.2109 22.4601 31.2549 22.8322 31.4747 23.4444C31.5306 23.5996 31.8296 24.3502 31.8452 24.4302L31.8141 24.4296C31.3996 23.9595 31.0641 23.5189 31.0186 22.8662C30.9972 22.5559 31.0145 22.1282 31.1227 21.8362Z" fill="white"/>
<path d="M27.3561 26.1875C27.3787 26.2588 27.3505 26.4708 27.3383 26.552C27.2357 27.24 26.6368 27.6472 26.0484 27.8699C26.0293 27.8035 26.1917 27.6841 26.2475 27.634C26.7205 27.2088 27.0658 26.7494 27.3561 26.1875Z" fill="white"/>
<path d="M24.8026 35.4692C24.9005 35.5565 24.9343 35.7644 24.9412 35.8952C24.9719 36.4709 24.6399 36.8839 24.2779 37.2853L24.2334 37.3093C24.2308 37.2264 24.429 36.855 24.4731 36.741C24.6417 36.306 24.7542 35.9375 24.8026 35.4692Z" fill="white"/>
<path d="M23.3792 18.2674C23.4022 18.3308 23.3155 18.7413 23.2952 18.8383C23.2052 19.2671 23.2731 19.5638 23.279 19.9492L23.2586 19.9529L23.2158 19.875C22.9212 19.1943 22.8235 18.8469 23.3792 18.2674Z" fill="white"/>
<path d="M24.5132 22.0318C24.6281 21.9948 24.752 22.0532 24.7966 22.1654C24.8413 22.2775 24.7913 22.4051 24.6824 22.4572C24.6052 22.4941 24.5137 22.485 24.4453 22.4334C24.3769 22.3818 24.3429 22.2964 24.3572 22.212C24.3715 22.1275 24.4316 22.058 24.5132 22.0318Z" fill="white"/>
<path d="M36.8294 19.5664C36.7258 19.5945 36.564 19.6454 36.4651 19.6102C36.5199 19.5581 36.6566 19.5356 36.737 19.5154L36.8294 19.5664Z" fill="#BCBCBB"/>
</svg>
