<svg width="49" height="49" viewBox="0 0 49 49" fill="none" xmlns="http://www.w3.org/2000/svg">
<rect width="48.7208" height="48.7208" fill="white"/>
<path d="M16.3932 2.80484L16.4411 2.83858C16.4528 3.00092 16.075 3.56985 15.9837 3.74901C14.5513 6.55871 13.1603 10.4844 15.3762 13.2775C15.6309 13.5985 15.8947 13.8481 16.1967 14.1266C16.3852 14.0012 16.7843 13.8218 16.9963 13.7213C18.2739 13.116 19.3245 12.866 20.7321 12.8492C20.3868 12.6867 20.0684 12.5562 19.7058 12.4348C19.4898 12.3625 18.548 12.1496 18.4878 11.9939C18.5326 11.9164 18.6251 11.8806 18.7118 11.8537C20.0905 11.4259 21.5526 11.4271 22.923 11.8837C23.5361 12.0879 24.0457 12.346 24.6125 12.6247C24.4288 12.2566 24.1377 11.9411 23.852 11.649C23.7541 11.549 23.3814 11.2285 23.3519 11.123L23.3859 11.0721C23.5772 10.9942 24.0517 11.0946 24.2482 11.148C25.4536 11.476 26.4597 12.098 27.0986 13.181C27.212 12.9863 27.3175 12.784 27.4325 12.5916C27.5323 12.4249 27.7229 11.9976 27.9584 12.1298C28.123 12.3755 28.1001 13.046 28.0799 13.3497C29.051 12.9896 30.4153 12.9686 31.378 13.284C31.7297 13.3992 32.6878 13.7219 32.8509 14.0258L32.8391 14.0629C32.6982 14.1055 32.5364 14.1189 32.3896 14.1312C32.0056 14.1633 31.629 14.2183 31.2478 14.2749C32.6605 14.6922 33.7129 15.5504 34.6379 16.6609C35.0802 16.5427 35.4653 16.4882 35.8987 16.2985C39.3986 14.7667 39.2248 10.8986 38.4303 7.77548C38.3656 7.52118 37.976 6.48509 38.0262 6.36212C38.0998 6.34994 38.1875 6.38972 38.2453 6.43255C41.5365 8.87351 43.9111 14.2354 41.6356 18.0538C40.6041 19.7846 38.192 21.0765 36.3113 21.5315C36.5556 21.9592 36.8759 22.3795 37.1916 22.7586C37.4011 23.0098 37.6401 23.2357 37.8157 23.5121L37.8004 23.5539C37.4087 23.7996 36.2547 23.3592 35.8625 23.1469C36.481 23.9572 37.2678 25.9824 35.3565 24.647C35.8686 25.4425 36.0733 26.6935 34.7347 25.6259C35.1651 26.5506 35.5178 27.1573 36.2911 27.8451C36.6298 28.1465 37.3667 28.7573 37.4256 29.2251C37.5695 30.3667 37.107 31.7878 36.5314 32.775C36.2481 33.2354 35.8498 33.5664 35.3338 33.6722C35.1809 35.275 33.7055 36.1016 32.2997 36.4563C32.2018 36.8933 32.0867 37.3777 32.3496 37.7831C32.4261 37.9009 32.6225 38.0718 32.5362 38.2092C32.4062 38.2512 32.2225 38.186 32.0925 38.1455C31.4901 37.9567 31.126 37.538 30.8511 36.9871C31.0697 39.2626 30.2591 41.0639 28.4311 42.4366C28.2527 42.5706 27.7686 42.9044 27.5346 42.8677C27.4765 42.7857 27.6488 42.5199 27.7102 42.4111C28.1786 41.5827 28.2759 40.7915 28.2963 39.8525C27.6934 41.4917 26.9491 43.133 25.3189 44.0356C25.2049 44.0985 25.0576 44.1737 24.9345 44.1337C24.9146 44.0203 25.1384 43.7265 25.2133 43.6146C25.3692 43.3585 25.4824 43.0667 25.5963 42.7892C24.6622 43.6954 23.4467 44.4537 22.1135 44.5923C21.9845 44.6058 21.7167 44.6038 21.618 44.5169C21.6245 44.4672 21.6239 44.4445 21.6762 44.4124C23.4771 43.3096 23.6271 41.3289 23.2424 39.4035C23.1504 40.5922 22.635 42.209 21.7719 43.0479C21.6153 43.2 21.2445 43.5318 21.0037 43.5295C20.953 43.5274 20.8827 43.4905 20.8812 43.4324C20.8658 42.8015 20.9138 42.2987 20.7782 41.6675C20.4784 40.2717 19.574 39.2328 18.6362 38.2201C18.6335 38.2981 18.6262 38.3756 18.6144 38.4525C18.4932 39.2547 18.1765 40.3216 17.4977 40.8182C17.4228 40.6282 17.3814 40.3451 17.331 40.1379C17.2564 39.8418 17.1617 39.5508 17.0477 39.2674C16.8303 38.7247 16.5677 38.241 16.3234 37.7146C15.7906 36.5664 15.3979 35.542 15.1336 34.3069C15.0906 34.666 15.1063 35.1198 15.1181 35.5048C15.1307 35.9176 15.2467 36.4772 15.2066 36.8982C15.2038 36.9277 15.1856 36.9267 15.1532 36.941C15.0279 36.8938 14.8987 36.7539 14.8082 36.6563C13.2843 35.0084 12.6998 32.6481 12.9129 30.4493C12.9751 29.8079 13.1097 29.1849 13.2435 28.5624C12.8303 29.3006 12.5202 30.2722 12.2621 31.0731C12.1552 31.4048 11.9833 31.8253 11.9271 32.1586C11.8621 31.821 11.7808 31.4859 11.7348 31.1475C11.5303 29.6466 11.8277 28.2421 12.3627 26.8388C11.1587 28.4294 10.6488 30.6404 11.5757 32.4669C11.6354 32.5846 11.6945 32.7006 11.7578 32.8165C11.9373 32.6081 12.2633 31.9764 12.4203 31.7007C12.36 32.6397 12.1675 33.5917 12.2626 34.5355C12.2776 34.6853 12.3406 35.142 12.2768 35.2447L12.2153 35.2584C12.0938 35.2197 12.0436 35.1761 11.9523 35.0859C10.8534 33.9978 10.1311 32.4124 9.82019 30.9146C9.67118 30.1968 9.64126 29.5437 9.62857 28.8233C9.1351 29.3615 8.80529 29.9677 8.42729 30.5876C8.33999 30.7308 8.03019 31.2713 7.85472 31.2356C7.67006 30.9818 7.63759 30.4052 7.61346 30.0872C7.49413 28.5142 7.76704 27.1344 8.23639 25.6406C8.01439 25.8557 6.5507 27.4279 6.39422 27.4351L6.35327 27.3897C6.33217 27.2659 6.3427 27.1102 6.3602 26.9863C6.65403 24.9104 8.04138 22.1699 9.69719 20.8768C9.22561 21.0326 7.36836 21.4502 7.07547 21.0329L7.08931 20.9757C7.26314 20.8193 7.74793 20.5367 7.97854 20.3699C8.73588 19.8222 9.45553 19.2375 10.2705 18.7777C10.5292 18.6318 10.7495 18.4809 11.0315 18.3716C10.7056 18.3743 8.68094 18.2228 8.79227 17.8086C9.05778 17.6763 9.43901 17.5799 9.72515 17.4756C10.188 17.3067 10.6499 17.1363 11.1095 16.9585C12.01 17.7548 12.9011 18.44 14.1495 18.5696L14.0205 18.4992C12.2477 17.5224 10.4439 15.8884 9.90709 13.883C9.3587 11.8345 9.94123 9.48634 10.9442 7.67975C11.9262 5.94111 13.3385 4.48387 15.0455 3.44779C15.4902 3.17937 15.8896 2.94935 16.3932 2.80484Z" fill="#000100"/>
<path d="M33.5891 23.5346C33.6144 23.5874 33.7097 24.2706 33.739 24.4043C33.928 25.2672 34.2178 26.1549 34.6479 26.9287C34.9009 27.3887 35.2561 27.7436 35.5966 28.1292C35.9268 28.503 36.5577 28.7912 36.7534 29.2188C37.0149 29.7903 36.1572 30.0923 35.8496 30.4299C35.6052 30.6982 35.488 30.8819 35.3288 31.2234C35.3514 30.609 35.4903 30.3866 35.7691 29.8545C35.6238 29.8818 35.2536 29.999 35.0928 30.0523C34.5266 30.2393 34.0124 29.9669 33.4584 29.7592C33.5214 29.8925 33.5914 30.0887 33.6294 30.2258C33.7318 30.5953 33.6811 30.8124 33.4923 31.125C32.7987 32.274 32.8558 32.2824 31.5478 32.5989C30.872 32.7625 30.0834 32.933 29.4323 32.5622C29.0761 32.3594 28.8819 32.0296 28.7874 31.6454C28.8753 31.3712 29.0463 31.1016 29.1859 30.846C28.3522 31.2802 28.1639 31.6867 27.8216 32.5252C27.7523 32.0263 28.0046 30.9186 28.2337 30.4556C28.3183 30.2847 28.6628 29.7337 28.6539 29.6298C28.5807 29.6219 28.5818 29.6423 28.502 29.694C28.0635 29.9845 27.7597 30.2864 27.4356 30.6934C27.5997 30.0232 27.8805 29.3872 28.2655 28.8146C27.7528 29.0587 27.4155 29.3676 27.0004 29.7414C27.0177 28.7693 27.339 28.0507 27.9345 27.2964C28.1035 27.0826 28.4013 26.6935 28.5257 26.4611L28.5415 26.4311C28.6388 26.7812 28.6816 27.34 28.7053 27.7067C29.138 27.0732 29.2529 26.2754 29.0167 25.5457C28.7904 24.8592 28.6401 24.8558 28.554 24.0428C29.0157 24.7496 29.2975 25.1151 30.1389 25.3968C29.8069 24.6779 29.7396 24.4155 29.8105 23.6367C30.5663 24.816 31.5137 25.6368 32.8925 26.004C32.6417 25.4113 32.4147 24.7681 32.3734 24.1252C32.7296 24.6843 32.9699 24.931 33.5061 25.2878C33.409 24.6391 33.4047 24.1606 33.5891 23.5346Z" fill="white"/>
<path d="M30.711 28.9553C31.2235 28.9018 31.8839 29.1357 32.2993 29.428C32.7862 29.7707 33.3945 30.3626 33.13 31.0201C33.1195 31.0461 33.0663 31.0379 33.0413 31.0387C32.7646 30.9194 32.3332 30.7207 32.0376 30.7928C30.9304 31.0624 30.5181 30.0862 30.5872 29.1658C30.5953 29.058 30.6208 29.0228 30.711 28.9553Z" fill="#000100"/>
<path d="M31.249 27.6323C32.2295 27.5788 33.139 28.2346 34.0104 28.586C34.5466 28.8019 34.9059 28.7654 35.4206 28.5338C34.968 29.0289 34.6617 29.1782 33.9867 29.0781C33.5691 28.9759 33.2483 28.824 32.8676 28.6301C31.7005 28.0359 31.0005 27.8438 29.726 28.2482C30.2832 27.8557 30.5561 27.6911 31.249 27.6323Z" fill="#000100"/>
<path d="M27.4038 14.3297C28.6672 14.0426 29.2642 13.977 30.5447 14.3086C30.1912 14.364 29.7871 14.4323 29.4449 14.5308C31.2383 14.8701 32.7223 15.8928 33.9551 17.2004C34.1595 17.4172 34.3526 17.6509 34.5573 17.8628C34.105 17.6861 33.831 17.608 33.3945 17.3615C33.1142 17.2031 32.7476 16.9214 32.4892 16.792C33.182 17.508 33.5938 18.1198 34.0843 18.9971C34.6276 19.969 35.2126 21.2237 35.9722 22.0522C35.2478 21.773 34.7501 21.4679 34.2 20.9032C34.1789 22.0894 34.2428 22.7168 34.7675 23.8098C33.9174 23.0363 33.6804 22.379 33.4735 21.2933C33.2559 22.1535 33.1851 22.5716 32.7651 23.3729C33.0375 21.2663 32.6505 19.5089 31.067 17.9902C31.8215 19.5724 31.9235 19.9347 31.9752 21.6785C31.8251 21.1783 31.6557 20.6361 31.4263 20.1661C30.9501 19.1904 30.0934 18.2495 29.2319 17.5938C28.8066 17.27 28.3854 17.0315 27.9458 16.6838C28.7082 17.9738 28.9829 18.913 28.9128 20.436C28.894 20.8482 28.8583 21.3121 28.7543 21.713C28.7482 21.7371 28.7416 21.761 28.735 21.7849C28.1392 19.2308 26.2386 19.0732 25.4992 16.8955C25.1034 17.9589 25.1367 18.675 25.599 19.7395C24.7461 19.0958 23.9146 18.4551 23.47 17.4441C23.0642 16.521 23.1373 15.9028 23.6788 15.0784C23.4854 16.4235 23.8383 17.068 24.6559 18.0911C24.343 16.8622 24.6584 15.9577 25.3747 14.9439C25.9296 15.6916 26.3151 16.136 27.1882 16.5586C27.045 16.2335 26.936 15.8859 26.8307 15.5465C28.3767 16.0915 29.1396 16.52 30.3319 17.6108C29.7303 16.5294 29.0787 15.8462 27.9975 15.2198C27.8344 15.1252 27.6 14.9889 27.4257 14.9306L27.4331 14.9152C27.6334 14.9262 27.8148 14.9918 28.0077 15.0301C28.9189 15.2113 30.0572 15.6071 30.8341 16.1309L30.9264 16.0778C30.0519 15.0925 28.7123 14.4532 27.4038 14.3297Z" fill="white"/>
<path d="M30.9266 16.0778L31.1955 16.3716L30.8341 16.131L30.9266 16.0778Z" fill="#000100"/>
<path d="M15.1573 4.07623C15.1586 4.0825 15.1702 4.12551 15.168 4.12944C14.0327 6.15403 13.1845 8.51237 13.5142 10.8654C13.6412 11.7716 14.0718 12.9158 14.6372 13.6464C15.7472 15.0807 17.5453 15.9125 19.3171 16.1402C19.8068 16.2032 20.3273 16.2074 20.8186 16.2055C20.1167 16.616 19.7118 16.6697 18.9171 16.6627C19.6149 16.9254 20.4357 16.9062 21.161 16.7966C20.3224 17.1791 19.8688 17.2989 18.966 17.257C19.8882 17.6268 20.4748 17.5028 21.3744 17.4901C19.6602 18.0192 18.4338 17.8007 16.7838 17.2266C16.7203 17.2031 16.6572 17.1785 16.5945 17.153C14.7629 16.4078 13.3093 15.2283 12.5239 13.3784C12.6265 14.1281 12.9522 14.8266 13.3042 15.4841C12.0617 14.2747 11.5635 12.6311 11.6306 10.9338C11.695 9.305 12.2117 8.04402 13.016 6.65168C12.3869 7.21607 11.8675 7.96179 11.4946 8.71391C11.3711 8.96294 11.2743 9.21898 11.1429 9.46266L11.1497 9.43045C11.683 6.96839 13.0873 5.40385 15.1573 4.07623Z" fill="white"/>
<path d="M39.2622 8.10785C40.6968 9.69545 41.7118 11.8453 41.6539 14.0308C41.5795 16.8338 39.514 18.7627 36.9225 19.502L36.8259 19.4487C37.6706 19.147 38.2198 18.7791 38.9307 18.2336C38.6558 18.314 38.3987 18.5009 38.1362 18.6185C37.396 18.9501 36.606 19.1578 35.7998 19.2455C35.6331 19.2636 35.4295 19.2841 35.2688 19.3142C35.1156 19.0713 34.9586 18.8309 34.7979 18.5931C35.068 18.6964 35.7014 18.9144 36.0215 18.8651C36.075 18.8569 36.0849 18.8025 36.0964 18.7635C36.0401 18.5092 35.5539 18.093 35.3714 17.8508C35.2303 17.6637 35.1459 17.5713 35.0129 17.352C36.7648 16.982 37.8628 16.2288 38.8907 14.7427C39.9507 13.2106 39.9383 11.1245 39.5581 9.34671C39.4661 8.9322 39.3677 8.51917 39.2622 8.10785Z" fill="white"/>
<path d="M40.7239 13.1363L40.7501 13.1576C40.8525 13.3606 40.8609 14.3803 40.8497 14.6161C40.7893 15.8668 39.9497 16.567 39.0625 17.3346C39.0365 17.3605 39.0533 17.349 39.0082 17.3628C39.0161 17.3126 39.3374 16.8404 39.3955 16.7446C40.2512 15.3296 40.5832 14.7943 40.7239 13.1363Z" fill="#000100"/>
<path d="M15.6825 18.7405C16.9464 18.7539 18.112 19.3077 19.2556 19.7959C18.2862 19.8158 17.301 19.5476 16.3541 19.553C15.1507 19.56 14.1557 19.9552 13.3198 20.8149C13.7859 20.8141 14.6055 20.8715 15.0406 21.0142C14.8351 21.2035 14.4684 21.4194 14.222 21.5776C14.7166 21.6761 15.1338 21.7551 15.6145 21.9005C15.4769 21.9931 15.3833 22.072 15.2559 22.1791C15.5602 22.3399 15.8094 22.4018 16.1351 22.5042C16.2712 22.6735 16.3113 22.7442 16.4897 22.8665C16.5571 22.8991 16.6255 22.9296 16.6947 22.9581C17.3192 23.2103 18.0114 22.9339 18.5959 22.6917C16.7648 24.4741 14.6064 23.1198 12.9819 21.8279C13.2307 21.7114 13.5242 21.5501 13.7724 21.4222C13.3504 21.3698 12.7566 21.3552 12.3807 21.1628C12.0643 21.0009 12.7893 20.2387 12.9406 20.0584C13.6855 19.1706 14.5321 18.8088 15.6825 18.7405Z" fill="white"/>
<path d="M20.9582 22.596L20.9845 22.6402C20.8614 23.5654 20.8422 24.227 20.9716 25.1513C21.049 25.7048 20.917 26.3977 20.7689 26.9414C21.6226 26.1627 21.9087 25.5206 22.2094 24.4371C22.2598 24.7021 22.3054 25.0605 22.2753 25.3264C22.1528 26.4076 21.7379 27.0378 22.0609 28.1615C22.2964 27.9278 22.473 27.631 22.6857 27.3749C22.9153 27.0984 23.1569 26.8548 23.3872 26.5765C22.8629 27.8651 22.5642 29.046 22.7613 30.4487C22.8153 30.8332 22.8672 31.14 23.0055 31.5105C22.3519 30.8108 22.1107 30.2265 21.9428 29.2842C21.9127 28.9652 21.8323 28.5669 21.7686 28.2537C21.3614 29.2962 21.3257 29.817 21.4884 30.9395C21.3811 30.7904 21.2784 30.6493 21.1843 30.4913C20.4011 29.1767 21.305 27.9954 21.6162 26.7488C20.8872 27.3876 20.5745 27.8771 19.5574 28.1368C20.2567 27.2643 20.4276 26.1609 20.4415 25.0797C20.0426 25.6984 19.8545 25.9199 19.2928 26.3946C19.4585 26.0187 19.6988 25.5912 19.8431 25.2154C20.1994 24.288 20.5041 23.4876 20.9582 22.596Z" fill="white"/>
<path d="M17.9292 24.5142C17.9253 24.5655 17.6953 25.072 17.6489 25.1768C17.46 25.6037 17.3751 26.0274 17.2265 26.4622C17.6125 26.0718 18.0137 25.6967 18.429 25.3379C17.7058 26.6984 17.6188 28.4097 18.0475 29.8708C18.1065 30.0721 18.1739 30.3458 18.2823 30.5193L18.3167 30.5114C18.3705 29.7144 18.64 29.035 18.9965 28.3363C18.9059 29.4616 18.8249 30.1269 18.8329 31.2777C18.8572 31.7282 18.8941 32.2248 18.8859 32.6723C17.3193 30.8376 16.8256 29.1724 17.5721 26.7995C17.3761 27.0059 16.5221 28.1786 16.3283 28.0716C16.2842 27.9324 16.3975 27.5232 16.4273 27.3673C16.6491 26.2066 17.1091 25.3613 17.9292 24.5142Z" fill="white"/>
<path d="M33.2415 33.264C33.2573 33.2617 33.2731 33.2599 33.2889 33.2586C33.8289 33.2087 34.2172 33.3447 34.6252 33.6847C34.6094 33.7471 34.5931 33.8093 34.576 33.8714C34.35 34.6863 33.7494 35.1208 33.0405 35.5244C33.2148 35.2459 33.2744 35.0767 33.3399 34.7582C33.0932 34.7972 32.7783 34.918 32.5364 35.0064C32.0928 35.1682 31.8153 35.2518 31.3477 35.3101C31.5266 35.169 31.7185 34.9819 31.8877 34.8247C31.6252 34.8948 31.431 34.9376 31.1635 34.9865C30.991 34.9903 30.8732 35.0026 30.701 35.024C30.8037 34.9457 31.0445 34.7873 31.0537 34.6614C30.9306 34.6313 30.5802 34.6739 30.3988 34.6632C30.1167 34.6463 29.9343 34.6145 29.6573 34.5668C30.1371 34.4629 30.17 34.4866 30.6584 34.2476C30.0293 34.2307 29.499 34.2111 29.2455 33.5478C30.4169 34.1298 31.9557 33.4049 33.2415 33.264Z" fill="white"/>
<path d="M10.4667 22.8267C10.4669 22.8507 10.1318 23.706 10.0889 23.8174C9.76974 24.6468 9.79744 25.4283 9.69556 26.2858C9.95443 25.9999 10.1881 25.7038 10.4575 25.4177C10.9649 24.8787 11.4654 24.4686 12.0502 24.0226C11.5983 24.7314 11.2362 25.2776 10.7203 25.949C10.0468 26.7756 9.44352 27.6644 8.76273 28.4594C8.74846 27.9108 8.73052 27.3851 8.78077 26.8375C8.91583 25.366 9.47392 23.9309 10.4667 22.8267Z" fill="white"/>
<path d="M25.3956 29.1474C25.4448 29.2088 25.3181 29.8469 25.3 29.9745C25.1171 31.2631 25.367 31.8961 25.6679 33.0611C25.9712 31.945 26.0111 31.4606 26.6157 30.3978C26.4068 31.2812 26.3657 32.1214 26.5953 33.0048C26.7204 33.4263 26.8262 33.6918 27.015 34.0862C26.5211 33.6729 26.3671 33.5093 26.0414 32.9424C25.8965 33.2624 25.8358 33.6085 25.6704 33.9107C24.4949 32.224 24.5025 30.9454 25.3956 29.1474Z" fill="white"/>
<path d="M22.7917 21.9033C22.9858 21.967 23.1813 22.0267 23.3779 22.0822C23.416 22.8296 23.5989 23.3464 24.4641 23.4583C24.9155 23.5167 25.2271 23.2943 25.5633 23.0175C25.9528 23.3226 26.0613 23.5865 26.2293 24.0382C26.2531 24.1439 26.2901 24.2632 26.3199 24.3689C25.7373 24.1797 25.4002 24.2103 24.806 24.2244C24.293 24.2367 23.6776 24.13 23.3069 23.7453C22.7805 23.1991 22.7865 22.6003 22.7917 21.9033Z" fill="white"/>
<path d="M19.8339 31.8441C19.8595 31.8673 19.8724 31.8893 19.8766 31.9259C19.9214 32.3171 19.9812 32.7082 20.1029 33.0843C20.2612 33.5736 20.5881 33.977 20.8508 34.414C20.8137 33.6625 20.8083 33.3088 20.9966 32.5732C21.0851 33.2981 20.9488 33.4773 21.2587 34.3057C21.432 34.7366 21.6491 35.0867 21.921 35.4605C21.2193 35.1889 20.7898 34.9595 20.3137 34.3365C19.84 33.7168 19.7056 32.6063 19.8339 31.8441Z" fill="white"/>
<path d="M36.182 31.0664C36.4801 31.0552 36.5632 31.0942 36.8475 31.1923C36.689 31.8408 36.2074 32.3841 35.667 32.7531L35.4175 32.8774C35.3039 32.8484 35.1793 32.8226 35.1079 32.7296C35.1252 32.5841 35.2376 32.4656 35.2822 32.3311C35.4593 31.7947 35.5284 31.2035 36.182 31.0664Z" fill="white"/>
<path d="M29.6654 19.1523C29.7041 19.1717 29.7057 19.1731 29.735 19.2044C30.6717 20.2034 30.3842 21.5867 30.3134 22.8261L30.2905 22.8671L30.2609 22.863C29.6825 21.8796 29.8132 21.5967 29.8094 20.5417C29.8101 20.0748 29.7617 19.6091 29.6654 19.1523Z" fill="white"/>
<path d="M19.3403 36.6382C19.3566 36.6489 19.3721 36.6586 19.3855 36.6729C20.2022 37.5535 20.8295 38.9905 20.9197 40.1646C20.853 40.1175 20.6753 39.7783 20.6246 39.683C20.09 38.677 19.6043 37.7508 19.3403 36.6382Z" fill="white"/>
<path d="M26.5708 36.7873L26.6024 36.824C26.6197 36.9639 26.5848 37.2824 26.5682 37.4325C26.4487 38.4979 25.7243 39.4183 24.9115 40.0696C25.05 39.737 25.1813 39.4664 25.3126 39.1204C25.5007 38.6054 25.4844 37.9431 25.4933 37.3909C25.6647 37.8996 25.7473 38.3001 25.6839 38.835C26.2299 38.0453 26.3533 37.7237 26.5708 36.7873Z" fill="white"/>
<path d="M26.2645 19.2116C26.527 19.4055 26.8587 19.7204 27.0656 19.9687C27.8329 20.8895 27.9083 21.6598 27.8224 22.7874L27.7829 22.7805C27.5684 21.714 27.4351 21.2709 26.8493 20.3294C26.7097 20.1053 26.3415 19.4549 26.2645 19.2116Z" fill="white"/>
<path d="M19.6292 20.4047L19.6522 20.4275C19.6445 20.5061 19.4341 20.7907 19.3711 20.9212C19.2251 21.2235 19.148 21.4393 19.0678 21.7653C19.2909 21.4484 19.4383 21.2575 19.692 20.9709C19.4248 21.6762 19.3422 21.9437 19.1954 22.6978C19.1608 22.8331 19.1447 22.9671 19.1249 23.1052C18.9866 22.7636 18.8622 22.4921 18.7827 22.1264C18.6475 22.1496 18.5096 22.1701 18.3739 22.1915C18.7097 21.4416 19.0633 20.985 19.6292 20.4047Z" fill="white"/>
<path d="M27.7919 38.7272L27.8164 38.7708C27.6808 39.6983 26.6047 41.085 25.9581 41.7985C25.8996 41.7447 25.9408 41.5967 25.9629 41.5246C26.295 40.4385 27.216 39.6764 27.7919 38.7272Z" fill="white"/>
<path d="M16.4053 30.8967C16.4236 30.9109 16.4521 30.9336 16.4542 30.9601C16.5062 31.6025 16.6273 32.2444 16.8159 32.86C16.9137 33.1791 17.5213 34.4246 17.3233 34.6871C16.4353 33.4537 16.214 32.3917 16.4053 30.8967Z" fill="white"/>
<path d="M14.8686 27.1306C14.9037 27.2689 14.8668 27.6353 14.8503 27.7801C14.8276 27.9745 14.7933 28.1671 14.7475 28.3575C14.6445 28.794 14.494 29.2483 14.3797 29.6848C14.3346 29.8573 14.1556 30.6756 14.0696 30.7433C13.8226 29.3989 14.4302 28.3274 14.8686 27.1306Z" fill="white"/>
<path d="M30.1279 37.7309C30.1531 37.8415 30.1378 38.1493 30.1353 38.2772C30.1154 39.2363 29.8142 39.8395 29.3212 40.6281C29.4249 40.1659 29.4465 39.723 29.4554 39.2514C29.4425 38.727 29.3184 38.186 29.1581 37.6891C29.4784 38.1205 29.6766 38.5664 29.7592 39.0952C29.8596 38.7165 30.016 38.0619 30.1279 37.7309Z" fill="white"/>
<path d="M23.7326 21.2349C24.1973 21.1576 24.7069 21.2762 25.0892 21.5492C25.3957 21.7681 25.5584 22.0529 25.7405 22.3705L25.4429 22.1489C25.1602 21.9726 24.7967 21.79 24.4721 21.712C23.9094 21.5769 23.7679 21.6761 23.2783 21.3263C23.4491 21.2822 23.5578 21.2615 23.7326 21.2349Z" fill="white"/>
<path d="M21.5782 14.3059C21.8097 14.2908 22.0324 14.2989 22.2639 14.304C21.9664 14.4104 21.6581 14.4954 21.3642 14.6077C20.9355 14.7715 20.5068 14.9599 20.0849 15.1418L19.5781 15.3333C20.0877 14.7461 20.8041 14.3781 21.5782 14.3059Z" fill="white"/>
<path d="M30.9419 21.8812C31.0344 22.5351 31.0805 22.9252 31.3109 23.5668C31.3695 23.7296 31.6829 24.5163 31.6992 24.6001L31.6666 24.5995C31.2321 24.1068 30.8805 23.645 30.8328 22.9608C30.8104 22.6355 30.8285 22.1872 30.9419 21.8812Z" fill="white"/>
<path d="M26.9938 26.442C27.0175 26.5167 26.9879 26.7389 26.9752 26.824C26.8677 27.5451 26.2399 27.9719 25.6232 28.2053C25.6032 28.1358 25.7734 28.0107 25.8319 27.9582C26.3277 27.5125 26.6896 27.0309 26.9938 26.442Z" fill="white"/>
<path d="M24.3175 36.1707C24.4202 36.2621 24.4556 36.48 24.4629 36.6171C24.4951 37.2205 24.1471 37.6534 23.7676 38.0741L23.721 38.0994C23.7182 38.0125 23.926 37.6231 23.9722 37.5036C24.1489 37.0477 24.2668 36.6614 24.3175 36.1707Z" fill="white"/>
<path d="M22.8254 18.1406C22.8495 18.207 22.7586 18.6373 22.7373 18.7389C22.643 19.1884 22.7142 19.4994 22.7204 19.9034L22.699 19.9072L22.6541 19.8256C22.3453 19.1121 22.2429 18.748 22.8254 18.1406Z" fill="white"/>
<path d="M24.0142 22.0862C24.1347 22.0474 24.2647 22.1087 24.3116 22.2264C24.3584 22.344 24.306 22.4779 24.1918 22.5325C24.1107 22.5713 24.0147 22.5617 23.943 22.5076C23.8712 22.4535 23.8356 22.3639 23.8505 22.2753C23.8655 22.1867 23.9286 22.1138 24.0142 22.0862Z" fill="white"/>
<path d="M36.9225 19.502C36.8142 19.5314 36.645 19.5847 36.5415 19.5478C36.5988 19.4934 36.7418 19.4698 36.8259 19.4487L36.9225 19.502Z" fill="#BCBCBB"/>
</svg>
