<svg width="1024" height="1024" viewBox="0 0 1024 1024" fill="none" xmlns="http://www.w3.org/2000/svg">
<rect width="1024" height="1024" fill="white"/>
<path d="M344.548 58.9502L345.554 59.6593C345.801 63.0714 337.86 75.0289 335.94 78.7945C305.835 137.848 276.6 220.357 323.174 279.062C328.527 285.809 334.07 291.055 340.418 296.907C344.38 294.273 352.768 290.501 357.223 288.39C384.075 275.667 406.157 270.414 435.741 270.06C428.484 266.645 421.792 263.902 414.172 261.35C409.631 259.83 389.837 255.356 388.572 252.084C389.512 250.454 391.457 249.703 393.28 249.137C422.257 240.145 452.987 240.171 481.789 249.767C494.676 254.06 505.385 259.484 517.299 265.341C513.437 257.605 507.32 250.974 501.314 244.834C499.258 242.732 491.425 235.996 490.804 233.778L491.518 232.709C495.539 231.072 505.512 233.181 509.643 234.305C534.977 241.199 556.123 254.271 569.552 277.033C571.935 272.942 574.152 268.689 576.568 264.645C578.667 261.143 582.673 252.16 587.622 254.94C591.081 260.103 590.599 274.196 590.176 280.579C610.587 273.01 639.261 272.569 659.494 279.198C666.885 281.62 687.022 288.402 690.45 294.788L690.204 295.569C687.242 296.464 683.841 296.746 680.756 297.004C672.685 297.679 664.77 298.836 656.758 300.024C686.449 308.794 708.568 326.833 728.009 350.174C737.307 347.689 745.399 346.544 754.509 342.555C828.069 310.361 824.416 229.063 807.717 163.422C806.357 158.077 798.168 136.301 799.223 133.716C800.771 133.46 802.613 134.296 803.829 135.196C873.003 186.5 922.912 299.194 875.086 379.448C853.406 415.827 802.71 442.979 763.18 452.541C768.316 461.532 775.048 470.365 781.684 478.332C786.086 483.612 791.109 488.36 794.8 494.169L794.478 495.048C786.247 500.212 761.991 490.956 753.748 486.494C766.747 503.525 783.285 546.089 743.112 518.024C753.877 534.742 758.178 561.036 730.044 538.596C739.09 558.032 746.502 570.784 762.757 585.239C769.874 591.574 785.363 604.412 786.6 614.245C789.626 638.238 779.905 668.106 767.807 688.854C761.852 698.532 753.481 705.489 742.635 707.711C739.422 741.398 708.413 758.772 678.866 766.227C676.809 775.412 674.389 785.593 679.916 794.114C681.522 796.588 685.651 800.182 683.836 803.069C681.104 803.952 677.243 802.581 674.512 801.73C661.851 797.761 654.198 788.962 648.419 777.383C653.014 825.209 635.978 863.068 597.556 891.919C593.807 894.736 583.632 901.752 578.715 900.981C577.494 899.256 581.115 893.67 582.405 891.383C592.249 873.972 594.295 857.343 594.723 837.607C582.052 872.06 566.408 906.556 532.146 925.526C529.75 926.849 526.653 928.428 524.066 927.588C523.647 925.204 528.351 919.029 529.925 916.678C533.202 911.296 535.583 905.164 537.976 899.331C518.344 918.376 492.796 934.314 464.776 937.228C462.064 937.512 456.435 937.469 454.361 935.643C454.497 934.598 454.485 934.122 455.585 933.447C493.435 910.267 496.587 868.638 488.502 828.171C486.569 853.155 475.735 887.136 457.596 904.767C454.305 907.964 446.51 914.938 441.449 914.889C440.385 914.847 438.906 914.07 438.876 912.849C438.553 899.588 439.56 889.022 436.711 875.756C430.409 846.417 411.4 824.582 391.69 803.299C391.633 804.938 391.48 806.566 391.233 808.183C388.684 825.043 382.028 847.467 367.761 857.905C366.188 853.91 365.318 847.96 364.259 843.606C362.689 837.382 360.7 831.266 358.303 825.311C353.734 813.903 348.216 803.738 343.081 792.673C331.881 768.541 323.629 747.011 318.074 721.052C317.169 728.598 317.5 738.137 317.747 746.229C318.013 754.905 320.451 766.666 319.608 775.514C319.549 776.135 319.168 776.114 318.485 776.414C315.852 775.423 313.137 772.483 311.235 770.431C279.206 735.797 266.92 686.187 271.399 639.973C272.706 626.493 275.536 613.399 278.347 600.315C269.663 615.83 263.147 636.251 257.722 653.084C255.476 660.057 251.862 668.894 250.68 675.899C249.313 668.803 247.607 661.76 246.638 654.648C242.34 623.103 248.591 593.583 259.836 564.089C234.531 597.519 223.813 643.99 243.294 682.379C244.55 684.854 245.792 687.29 247.122 689.727C250.894 685.346 257.747 672.07 261.046 666.275C259.779 686.01 255.733 706.019 257.731 725.856C258.048 729.006 259.372 738.603 258.031 740.761L256.738 741.05C254.184 740.236 253.129 739.32 251.211 737.425C228.115 714.556 212.934 681.233 206.398 649.753C203.266 634.666 202.637 620.939 202.371 605.799C191.999 617.11 185.067 629.851 177.122 642.881C175.288 645.891 168.776 657.251 165.088 656.501C161.207 651.167 160.525 639.047 160.018 632.363C157.51 599.302 163.245 570.302 173.11 538.907C168.444 543.427 137.681 576.471 134.392 576.621L133.531 575.668C133.088 573.065 133.309 569.793 133.677 567.19C139.852 523.559 169.011 465.959 203.813 438.782C193.901 442.057 154.866 450.833 148.71 442.062L149.001 440.86C152.655 437.572 162.844 431.633 167.691 428.127C183.608 416.615 198.734 404.326 215.863 394.664C221.3 391.596 225.931 388.424 231.856 386.127C225.006 386.184 182.453 383 184.793 374.295C190.374 371.514 198.387 369.489 204.4 367.295C214.129 363.746 223.837 360.166 233.497 356.428C252.423 373.164 271.153 387.566 297.39 390.289L294.679 388.81C257.419 368.279 219.507 333.936 208.224 291.788C196.698 248.733 208.942 199.38 230.021 161.41C250.662 124.868 280.344 94.2396 316.221 72.4636C325.569 66.8219 333.963 61.9874 344.548 58.9502Z" fill="#000100"/>
<path d="M705.971 494.643C706.501 495.752 708.505 510.113 709.12 512.921C713.094 531.058 719.184 549.715 728.224 565.98C733.542 575.647 741.008 583.107 748.163 591.21C755.104 599.067 768.365 605.124 772.478 614.111C777.973 626.124 759.945 632.47 753.481 639.566C748.345 645.206 745.882 649.067 742.534 656.244C743.011 643.331 745.93 638.656 751.789 627.473C748.736 628.046 740.954 630.51 737.575 631.629C725.675 635.56 714.867 629.835 703.224 625.47C704.547 628.271 706.019 632.395 706.817 635.276C708.97 643.042 707.905 647.605 703.936 654.176C689.358 678.325 690.558 678.502 663.067 685.154C648.864 688.592 632.288 692.175 618.605 684.382C611.117 680.119 607.036 673.189 605.049 665.113C606.897 659.35 610.491 653.684 613.426 648.312C595.902 657.438 591.944 665.98 584.751 683.606C583.295 673.119 588.597 649.838 593.412 640.107C595.19 636.513 602.43 624.935 602.243 622.75C600.706 622.583 600.727 623.012 599.051 624.099C589.834 630.205 583.45 636.551 576.638 645.104C580.087 631.019 585.989 617.651 594.081 605.617C583.305 610.748 576.215 617.239 567.49 625.095C567.854 604.663 574.608 589.561 587.124 573.708C590.675 569.214 596.936 561.036 599.549 556.152L599.881 555.52C601.927 562.879 602.827 574.624 603.325 582.33C612.419 569.016 614.834 552.248 609.869 536.911C605.114 522.483 601.954 522.411 600.144 505.324C609.848 520.179 615.771 527.86 633.456 533.781C626.477 518.672 625.063 513.158 626.552 496.788C642.437 521.576 662.349 538.826 691.329 546.544C686.059 534.086 681.287 520.567 680.419 507.055C687.907 518.807 692.957 523.993 704.225 531.49C702.185 517.857 702.094 507.799 705.971 494.643Z" fill="white"/>
<path d="M645.479 608.573C656.249 607.448 670.131 612.365 678.86 618.508C689.095 625.711 701.879 638.152 696.32 651.97C696.1 652.516 694.981 652.345 694.456 652.361C688.64 649.854 679.573 645.677 673.36 647.193C650.09 652.859 641.424 632.341 642.876 612.997C643.047 610.731 643.583 609.992 645.479 608.573Z" fill="#000100"/>
<path d="M656.785 580.767C677.393 579.642 696.508 593.427 714.824 600.813C726.092 605.349 733.644 604.583 744.462 599.715C734.951 610.121 728.513 613.259 714.326 611.154C705.548 609.007 698.805 605.815 690.804 601.739C666.275 589.25 651.563 585.212 624.774 593.711C636.487 585.463 642.223 582.004 656.785 580.767Z" fill="#000100"/>
<path d="M575.968 301.176C602.521 295.142 615.069 293.765 641.981 300.733C634.553 301.898 626.059 303.334 618.866 305.404C656.56 312.536 687.751 334.029 713.661 361.513C717.957 366.07 722.016 370.981 726.317 375.434C716.811 371.721 711.053 370.08 701.879 364.899C695.988 361.569 688.281 355.649 682.85 352.93C697.412 367.979 706.067 380.836 716.377 399.275C727.795 419.703 740.092 446.074 756.057 463.485C740.831 457.618 730.371 451.205 718.808 439.336C718.364 464.268 719.708 477.454 730.735 500.428C712.869 484.17 707.888 470.354 703.539 447.536C698.966 465.616 697.477 474.403 688.651 491.244C694.376 446.969 686.24 410.032 652.96 378.111C668.819 411.367 670.961 418.982 672.048 455.632C668.894 445.118 665.332 433.723 660.512 423.844C650.502 403.339 632.497 383.561 614.389 369.78C605.451 362.975 596.598 357.963 587.359 350.655C603.383 377.768 609.157 397.507 607.684 429.517C607.288 438.181 606.538 447.931 604.353 456.358C604.224 456.863 604.085 457.366 603.946 457.867C591.424 404.187 551.478 400.874 535.936 355.104C527.618 377.454 528.317 392.505 538.034 414.88C520.108 401.349 502.632 387.884 493.288 366.634C484.758 347.234 486.296 334.241 497.676 316.913C493.611 345.183 501.03 358.729 518.212 380.234C511.636 354.404 518.266 335.394 533.321 314.085C544.984 329.801 553.086 339.142 571.437 348.023C568.427 341.191 566.135 333.885 563.923 326.75C596.416 338.205 612.45 347.212 637.509 370.139C624.865 347.409 611.17 333.051 588.446 319.884C585.019 317.896 580.092 315.033 576.428 313.806L576.584 313.483C580.793 313.714 584.606 315.092 588.661 315.898C607.812 319.707 631.736 328.026 648.065 339.035L650.004 337.919C631.624 317.21 603.469 303.772 575.968 301.176Z" fill="white"/>
<path d="M650.005 337.919L655.644 344.08L648.066 339.035L650.005 337.919Z" fill="#000100"/>
<path d="M318.576 85.6727C318.602 85.8045 318.847 86.7085 318.8 86.791C294.939 129.343 277.11 178.91 284.041 228.366C286.71 247.412 295.76 271.461 307.644 286.816C330.973 316.961 368.766 334.444 406.005 339.231C416.298 340.554 427.238 340.641 437.562 340.602C422.81 349.231 414.3 350.359 397.598 350.211C412.263 355.733 429.515 355.329 444.76 353.026C427.133 361.064 417.599 363.582 398.626 362.703C418.009 370.475 430.337 367.869 449.244 367.602C413.217 378.722 387.44 374.13 352.761 362.064C351.426 361.569 350.099 361.053 348.781 360.517C310.285 344.854 279.735 320.063 263.228 281.183C265.384 296.94 272.23 311.622 279.628 325.44C253.513 300.02 243.041 265.476 244.452 229.802C245.805 195.57 256.666 169.067 273.57 139.803C260.348 151.665 249.431 167.338 241.593 183.146C238.998 188.38 236.963 193.761 234.203 198.883L234.345 198.206C245.552 146.459 275.069 113.576 318.576 85.6727Z" fill="white"/>
<path d="M825.204 170.408C855.356 203.775 876.688 248.961 875.472 294.894C873.908 353.807 830.495 394.348 776.028 409.886L773.999 408.766C791.753 402.424 803.294 394.692 818.236 383.227C812.458 384.919 807.054 388.846 801.537 391.317C785.979 398.287 769.377 402.653 752.431 404.495C748.929 404.876 744.65 405.307 741.27 405.939C738.052 400.834 734.752 395.782 731.373 390.785C737.05 392.956 750.364 397.537 757.091 396.501C758.216 396.328 758.424 395.186 758.665 394.365C757.482 389.02 747.263 380.273 743.429 375.183C740.462 371.249 738.689 369.307 735.893 364.698C772.713 356.922 795.791 341.091 817.395 309.857C839.675 277.657 839.413 233.81 831.422 196.446C829.489 187.734 827.421 179.053 825.204 170.408Z" fill="white"/>
<path d="M855.923 276.094L856.475 276.543C858.628 280.81 858.805 302.24 858.569 307.197C857.3 333.484 839.653 348.2 821.005 364.333C820.458 364.878 820.812 364.635 819.864 364.925C820.03 363.872 826.783 353.947 828.004 351.933C845.989 322.194 852.967 310.941 855.923 276.094Z" fill="#000100"/>
<path d="M329.615 393.882C356.181 394.164 380.679 405.802 404.715 416.064C384.339 416.483 363.634 410.844 343.731 410.959C318.439 411.106 297.527 419.413 279.957 437.481C289.754 437.463 306.98 438.671 316.124 441.669C311.805 445.649 304.098 450.186 298.92 453.51C309.314 455.58 318.084 457.241 328.188 460.298C325.294 462.244 323.327 463.903 320.65 466.154C327.045 469.533 332.282 470.833 339.128 472.987C341.99 476.545 342.833 478.029 346.582 480.6C347.998 481.285 349.435 481.928 350.891 482.526C364.015 487.827 378.565 482.016 390.85 476.926C352.364 514.389 306.999 485.925 272.856 458.771C278.085 456.323 284.253 452.933 289.469 450.245C280.601 449.143 268.119 448.837 260.22 444.793C253.57 441.389 268.807 425.369 271.987 421.58C287.643 402.922 305.436 395.318 329.615 393.882Z" fill="white"/>
<path d="M440.499 474.916L441.053 475.846C438.465 495.29 438.061 509.196 440.78 528.622C442.408 540.256 439.633 554.818 436.521 566.247C454.462 549.881 460.476 536.385 466.796 513.613C467.856 519.181 468.814 526.715 468.181 532.302C465.607 555.027 456.886 568.272 463.676 591.89C468.625 586.979 472.338 580.74 476.807 575.357C481.632 569.547 486.71 564.426 491.55 558.578C480.533 585.662 474.255 610.48 478.397 639.963C479.532 648.044 480.622 654.492 483.529 662.28C469.792 647.573 464.722 635.292 461.193 615.487C460.56 608.782 458.871 600.411 457.533 593.829C448.974 615.739 448.223 626.686 451.643 650.277C449.388 647.144 447.23 644.177 445.252 640.857C428.79 613.227 447.788 588.398 454.328 562.199C439.007 575.625 432.434 585.913 411.057 591.371C425.755 573.033 429.347 549.843 429.64 527.117C421.256 540.123 417.302 544.777 405.497 554.754C408.978 546.855 414.029 537.868 417.063 529.97C424.551 510.478 430.955 493.656 440.499 474.916Z" fill="white"/>
<path d="M376.834 515.232C376.752 516.311 371.918 526.956 370.943 529.158C366.973 538.13 365.188 547.037 362.064 556.173C370.178 547.968 378.609 540.085 387.338 532.544C372.138 561.138 370.311 597.107 379.319 627.816C380.561 632.047 381.977 637.799 384.256 641.446L384.978 641.28C386.11 624.528 391.773 610.249 399.265 595.564C397.362 619.215 395.658 633.198 395.828 657.384C396.337 666.853 397.115 677.291 396.941 686.696C364.016 648.135 353.639 613.136 369.329 563.264C365.209 567.602 347.26 592.249 343.187 590C342.259 587.075 344.641 578.474 345.267 575.197C349.928 550.802 359.598 533.036 376.834 515.232Z" fill="white"/>
<path d="M698.666 699.132C698.998 699.084 699.33 699.046 699.662 699.019C711.01 697.97 719.172 700.83 727.747 707.974C727.415 709.286 727.072 710.593 726.713 711.9C721.963 729.027 709.339 738.158 694.44 746.642C698.103 740.788 699.356 737.232 700.733 730.537C695.549 731.357 688.929 733.895 683.846 735.754C674.522 739.155 668.69 740.911 658.862 742.138C662.622 739.171 666.655 735.24 670.211 731.935C664.695 733.408 660.614 734.308 654.99 735.336C651.364 735.416 648.89 735.673 645.27 736.123C647.428 734.479 652.489 731.148 652.682 728.502C650.095 727.87 642.731 728.765 638.918 728.54C632.989 728.186 629.155 727.517 623.333 726.515C633.418 724.33 634.109 724.828 644.375 719.805C631.152 719.451 620.007 719.039 614.678 705.098C639.298 717.33 671.641 702.093 698.666 699.132Z" fill="white"/>
<path d="M219.988 479.765C219.993 480.268 212.948 498.245 212.047 500.588C205.34 518.019 205.922 534.443 203.781 552.467C209.221 546.458 214.133 540.235 219.794 534.221C230.459 522.893 240.978 514.274 253.269 504.899C243.772 519.797 236.161 531.277 225.319 545.387C211.162 562.761 198.483 581.441 184.175 598.151C183.875 586.62 183.498 575.572 184.554 564.062C187.392 533.134 199.122 502.971 219.988 479.765Z" fill="white"/>
<path d="M533.759 612.611C534.794 613.902 532.13 627.312 531.749 629.996C527.906 657.079 533.157 670.383 539.482 694.869C545.857 671.411 546.696 661.23 559.403 638.891C555.013 657.459 554.149 675.117 558.974 693.685C561.604 702.543 563.826 708.124 567.795 716.414C557.416 707.728 554.178 704.289 547.333 692.373C544.286 699.1 543.011 706.373 539.535 712.724C514.829 677.275 514.989 650.401 533.759 612.611Z" fill="white"/>
<path d="M479.033 460.357C483.114 461.696 487.221 462.95 491.354 464.117C492.154 479.825 495.999 490.687 514.183 493.039C523.671 494.266 530.22 489.592 537.287 483.774C545.472 490.186 547.753 495.734 551.284 505.227C551.785 507.449 552.562 509.957 553.188 512.178C540.943 508.202 533.859 508.844 521.37 509.142C510.587 509.399 497.653 507.156 489.861 499.07C478.798 487.591 478.925 475.006 479.033 460.357Z" fill="white"/>
<path d="M416.866 669.29C417.405 669.777 417.676 670.238 417.764 671.009C418.706 679.23 419.963 687.451 422.52 695.356C425.846 705.639 432.718 714.117 438.238 723.302C437.458 707.508 437.346 700.074 441.303 684.613C443.162 699.849 440.299 703.614 446.811 721.026C450.455 730.082 455.017 737.441 460.731 745.297C445.983 739.588 436.956 734.768 426.95 721.674C416.993 708.649 414.169 685.309 416.866 669.29Z" fill="white"/>
<path d="M760.465 652.945C766.731 652.709 768.477 653.528 774.454 655.59C771.122 669.22 761 680.639 749.641 688.394L744.398 691.007C742.009 690.397 739.39 689.856 737.891 687.901C738.255 684.843 740.617 682.352 741.554 679.525C745.276 668.251 746.727 655.826 760.465 652.945Z" fill="white"/>
<path d="M623.505 402.537C624.319 402.945 624.351 402.974 624.967 403.632C644.654 424.629 638.613 453.702 637.124 479.752L636.642 480.613L636.021 480.528C623.863 459.858 626.611 453.913 626.531 431.739C626.547 421.926 625.529 412.139 623.505 402.537Z" fill="white"/>
<path d="M406.49 770.051C406.831 770.276 407.156 770.48 407.439 770.78C424.605 789.289 437.789 819.489 439.685 844.168C438.283 843.177 434.548 836.049 433.481 834.046C422.246 812.902 412.037 793.434 406.49 770.051Z" fill="white"/>
<path d="M558.46 773.184L559.124 773.956C559.488 776.896 558.755 783.59 558.407 786.745C555.895 809.137 540.67 828.481 523.586 842.17C526.498 835.181 529.257 829.494 532.017 822.221C535.969 811.397 535.626 797.478 535.813 785.872C539.417 796.562 541.153 804.981 539.82 816.222C551.296 799.625 553.89 792.866 558.46 773.184Z" fill="white"/>
<path d="M552.023 403.783C557.539 407.858 564.512 414.477 568.861 419.695C584.987 439.048 586.572 455.238 584.767 478.937L583.937 478.792C579.428 456.377 576.627 447.064 564.314 427.276C561.379 422.566 553.64 408.897 552.023 403.783Z" fill="white"/>
<path d="M412.562 428.86L413.047 429.338C412.885 430.99 408.462 436.972 407.138 439.715C404.07 446.069 402.449 450.605 400.764 457.455C405.452 450.795 408.55 446.783 413.883 440.761C408.267 455.582 406.531 461.206 403.446 477.056C402.718 479.9 402.379 482.715 401.964 485.619C399.056 478.438 396.443 472.731 394.77 465.045C391.929 465.533 389.03 465.964 386.179 466.414C393.236 450.653 400.668 441.056 412.562 428.86Z" fill="white"/>
<path d="M584.125 813.957L584.639 814.873C581.79 834.367 559.173 863.513 545.583 878.508C544.352 877.378 545.219 874.267 545.683 872.751C552.663 849.925 572.021 833.907 584.125 813.957Z" fill="white"/>
<path d="M344.809 649.378C345.192 649.678 345.791 650.154 345.836 650.711C346.928 664.213 349.473 677.704 353.438 690.643C355.493 697.348 368.263 723.527 364.102 729.043C345.439 703.122 340.787 680.799 344.809 649.378Z" fill="white"/>
<path d="M312.508 570.221C313.247 573.129 312.471 580.831 312.123 583.873C311.647 587.959 310.926 592.008 309.963 596.009C307.799 605.183 304.637 614.732 302.234 623.906C301.285 627.532 297.523 644.729 295.715 646.154C290.523 617.897 303.296 595.377 312.508 570.221Z" fill="white"/>
<path d="M633.225 793.016C633.755 795.341 633.434 801.81 633.38 804.499C632.963 824.657 626.632 837.334 616.269 853.91C618.449 844.195 618.904 834.887 619.092 824.973C618.818 813.951 616.21 802.581 612.842 792.138C619.574 801.205 623.74 810.577 625.476 821.69C627.586 813.732 630.874 799.973 633.225 793.016Z" fill="white"/>
<path d="M498.806 446.309C508.573 444.684 519.285 447.176 527.319 452.914C533.761 457.515 537.181 463.5 541.007 470.175L534.753 465.519C528.811 461.812 521.172 457.974 514.349 456.335C502.523 453.495 499.549 455.58 489.259 448.229C492.849 447.303 495.133 446.867 498.806 446.309Z" fill="white"/>
<path d="M453.53 300.676C458.396 300.358 463.077 300.528 467.942 300.635C461.688 302.872 455.209 304.66 449.033 307.019C440.023 310.462 431.011 314.422 422.144 318.245L411.493 322.27C422.202 309.928 437.26 302.193 453.53 300.676Z" fill="white"/>
<path d="M650.331 459.892C652.275 473.635 653.245 481.834 658.086 495.32C659.318 498.74 665.905 515.276 666.248 517.036L665.562 517.025C656.431 506.668 649.04 496.962 648.039 482.583C647.568 475.746 647.948 466.324 650.331 459.892Z" fill="white"/>
<path d="M567.351 555.75C567.849 557.319 567.227 561.99 566.96 563.778C564.7 578.935 551.505 587.906 538.544 592.811C538.123 591.349 541.7 588.72 542.929 587.616C553.35 578.249 560.956 568.127 567.351 555.75Z" fill="white"/>
<path d="M511.1 760.224C513.257 762.146 514.002 766.725 514.155 769.607C514.831 782.289 507.517 791.388 499.541 800.23L498.562 800.761C498.504 798.934 502.87 790.751 503.843 788.239C507.555 778.658 510.034 770.539 511.1 760.224Z" fill="white"/>
<path d="M479.743 381.272C480.248 382.669 478.339 391.713 477.891 393.849C475.91 403.296 477.405 409.831 477.535 418.323L477.086 418.403L476.143 416.688C469.652 401.691 467.5 394.039 479.743 381.272Z" fill="white"/>
<path d="M504.722 464.201C507.253 463.386 509.983 464.673 510.966 467.143C511.95 469.614 510.85 472.424 508.451 473.572C506.748 474.386 504.734 474.184 503.227 473.048C501.72 471.912 500.972 470.031 501.286 468.17C501.6 466.309 502.925 464.779 504.722 464.201Z" fill="white"/>
<path d="M776.028 409.886C773.752 410.504 770.196 411.624 768.021 410.849C769.227 409.705 772.231 409.209 773.998 408.766L776.028 409.886Z" fill="#BCBCBB"/>
</svg>
