<svg width="83" height="95" viewBox="0 0 83 95" fill="none" xmlns="http://www.w3.org/2000/svg">
<path d="M24.5146 0.703492L24.5538 1.24545C24.5722 1.49899 24.5147 1.71721 24.4812 1.8293C24.4412 1.96345 24.389 2.09272 24.3392 2.20435C24.2393 2.4284 24.1103 2.66834 23.9897 2.88185C23.8673 3.09872 23.7378 3.31574 23.6341 3.49058C23.5203 3.68253 23.453 3.79794 23.4233 3.85621C21.8663 6.91038 20.3746 10.4929 19.8507 14.0194C19.3291 17.5312 19.7797 20.8766 21.961 23.6261C22.3007 24.0544 22.6511 24.4209 23.0478 24.8033C23.4729 24.5899 23.9104 24.3906 24.1423 24.2808C25.466 23.6536 26.6935 23.1891 27.9384 22.8633C27.9179 22.8548 27.8975 22.8465 27.8775 22.838C27.7397 22.7788 27.5776 22.7017 27.4279 22.6038C27.3312 22.5407 27.0077 22.3278 26.8514 21.9234L26.6536 21.4115L26.9278 20.9363C27.278 20.3295 27.9241 20.152 28.0751 20.1051C31.1771 19.1425 34.4671 19.0968 37.583 20.0283C37.567 19.9876 37.5514 19.9445 37.5387 19.8988L37.3968 19.3913L37.9596 18.548L38.2858 18.4151C38.5917 18.2907 38.908 18.2698 39.1215 18.2677C39.358 18.2655 39.5993 18.2873 39.8145 18.3157C40.245 18.3725 40.6663 18.4692 40.9203 18.5384C43.1895 19.1558 45.2356 20.2364 46.7829 22.0072C46.8911 21.8176 47.0525 21.5502 47.2128 21.3512C47.355 21.1748 47.5974 20.9127 47.9508 20.7508C48.3452 20.5701 48.8198 20.5447 49.2697 20.7624L49.3593 20.8093L49.5982 20.9432L49.7505 21.1706C49.9648 21.4904 50.0666 21.8568 50.1231 22.136C50.1797 22.4155 50.2095 22.7098 50.2257 22.9852C52.3524 22.5526 54.8093 22.6464 56.6927 23.2634C57.0837 23.3915 57.8507 23.6471 58.5749 23.9642C58.9352 24.122 59.3157 24.3082 59.6453 24.5167C59.9329 24.6985 60.3538 25.0008 60.5928 25.446L60.8218 25.8724L60.6762 26.3339L60.6502 26.4157L60.4678 26.9933L60.0576 27.1172C61.5138 28.0454 62.7788 29.2047 63.9308 30.5125C64.6556 30.3409 65.1846 30.2347 65.8406 29.9475C69.2956 28.4354 70.9226 25.8121 71.5138 22.7056C72.0984 19.6329 71.6584 16.1011 70.8488 12.8112L70.7695 12.4937C70.7099 12.2595 70.491 11.6435 70.2495 10.8981C70.1389 10.5569 70.0282 10.2005 69.9517 9.90356C69.9142 9.75771 69.8779 9.59923 69.8561 9.45122C69.8453 9.37797 69.8343 9.28214 69.8334 9.17789C69.8328 9.10032 69.8343 8.892 69.9282 8.66192L70.1706 8.06821L70.8031 7.96358C71.1433 7.90732 71.4395 7.97863 71.6327 8.04804C71.8099 8.1117 71.9687 8.19806 72.101 8.28934L72.1561 8.32877L72.1568 8.32922C75.9811 11.1656 79.2382 15.6629 80.8978 20.5518C82.5581 25.443 82.6622 30.8737 79.9321 35.4549C78.6677 37.5766 76.6055 39.3612 74.3824 40.7318C72.6597 41.7938 70.791 42.6375 69.0199 43.2112C69.3383 43.6504 69.6821 44.0842 70.0317 44.504L70.195 44.6946C70.3575 44.8801 70.5221 45.057 70.7271 45.2897C70.9779 45.5742 71.2528 45.904 71.4945 46.2844L71.7978 46.7621L71.57 47.3856L71.4349 47.7546L71.1022 47.9634C70.5758 48.2937 69.9551 48.3171 69.5146 48.2909C69.2171 48.2733 68.909 48.2259 68.607 48.1623C68.755 48.5889 68.8656 49.0255 68.8978 49.4304C68.9245 49.7654 68.9116 50.2306 68.6798 50.6622C68.4019 51.1798 67.9039 51.4761 67.3398 51.521C67.2615 51.5272 67.1832 51.5281 67.1053 51.5252C67.1251 51.7623 67.1205 52.0014 67.0775 52.2312C67.0178 52.5502 66.8618 52.9655 66.4753 53.2719C66.3483 53.3725 66.2144 53.4471 66.0785 53.5006C66.5387 54.1917 67.068 54.8103 67.7859 55.4657L67.928 55.5936L67.9284 55.594C68.2736 55.9013 68.9221 56.452 69.483 57.0488C69.7666 57.3504 70.0554 57.6919 70.2889 58.0529C70.5142 58.4012 70.7412 58.8476 70.8044 59.3494L70.8203 59.4839C71.1296 62.3159 70.0032 65.6375 68.6863 67.8958L68.6794 67.9076L68.6722 67.9191C68.0605 68.9132 67.2013 69.7434 66.0801 70.1839C65.3567 73.6769 62.1815 75.4988 59.3449 76.3516C59.3045 76.57 59.2772 76.7697 59.2703 76.9625C59.2578 77.3082 59.3166 77.5431 59.4394 77.7328L59.4592 77.7588C59.4788 77.7842 59.5001 77.8108 59.5347 77.854C59.5931 77.927 59.6935 78.0518 59.7831 78.1916C59.9118 78.3922 60.3486 79.1296 59.8595 79.9073L59.6377 80.26L59.2416 80.3881C58.8106 80.5276 58.3984 80.4656 58.1687 80.4184C57.9239 80.3681 57.6758 80.2847 57.5691 80.2515L57.5676 80.2508C57.1037 80.1054 56.6922 79.911 56.3248 79.6784C55.9355 83.6461 53.986 86.9363 50.5284 89.5326C50.3086 89.6978 49.8971 89.9892 49.4534 90.235C49.2325 90.3574 48.9753 90.4844 48.7116 90.5762C48.4778 90.6576 48.0971 90.7633 47.6857 90.6988L47.2072 90.6237L46.965 90.2816C46.0412 91.3905 44.9232 92.3749 43.5349 93.1435L43.5338 93.1442C43.4069 93.2142 43.1788 93.339 42.9186 93.4238C42.6646 93.5066 42.2422 93.5981 41.7773 93.4471L41.1213 93.234L41.0429 92.7875C39.5271 93.6768 37.8374 94.3202 36.0329 94.5079C35.8223 94.53 35.5243 94.5386 35.2265 94.5084C35.0764 94.4931 34.8976 94.4652 34.7166 94.4114C34.55 94.3618 34.2939 94.2652 34.0631 94.0619L33.6049 93.6581L33.6838 93.0528C33.6843 93.0489 33.6848 93.0447 33.6856 93.0382C33.6863 93.0326 33.6875 93.0237 33.6887 93.0147C33.691 92.9973 33.6949 92.9669 33.701 92.9318C33.7133 92.8614 33.7393 92.7377 33.803 92.5973C33.9501 92.2731 34.1893 92.0914 34.3499 91.9928L34.3505 91.9924C34.4117 91.9549 34.4717 91.9165 34.5309 91.8779C34.4853 91.9019 34.439 91.9254 34.392 91.9474C34.1645 92.0535 33.8337 92.175 33.4562 92.1714L33.4385 92.1712L33.421 92.1705C33.1422 92.1593 32.8651 92.0643 32.6366 91.9055C32.4092 91.7473 32.0643 91.3982 32.0505 90.8386C32.0154 89.3999 32.1049 88.5259 31.8948 87.3915L31.8487 87.1609C31.4133 85.1343 30.3248 83.4661 28.943 81.8231C28.8187 82.2607 28.669 82.7038 28.4889 83.1351C28.0532 84.1784 27.4006 85.2535 26.4161 85.9737L25.2161 86.8515L24.6715 85.4683C24.552 85.1648 24.472 84.8246 24.4136 84.5542C24.3466 84.2441 24.3099 84.0386 24.2592 83.8287L24.2003 83.6031C24.0584 83.0782 23.8855 82.5619 23.6825 82.0577L23.6819 82.0559C23.2149 80.89 22.6904 79.9405 22.1098 78.6892C21.8875 78.2102 21.6754 77.7393 21.4735 77.2719C21.39 77.3542 21.3054 77.4146 21.2324 77.4572C21.1274 77.5185 21.028 77.5538 21.022 77.556C21.0024 77.5634 21.006 77.5621 21.016 77.558L20.604 77.7393L20.1666 77.5746C19.8283 77.4473 19.5612 77.2311 19.3966 77.0837C19.2197 76.9253 19.063 76.7548 18.9691 76.6536L18.9682 76.6524C17.2394 74.7829 16.0296 72.5436 15.2899 70.1599C15.2931 70.4121 15.3039 70.6616 15.3242 70.9089L15.3401 71.0839L15.3782 71.428C15.3949 71.5851 15.4129 71.7707 15.4243 71.9433C15.4361 72.1212 15.4446 72.3281 15.4353 72.5229C15.4307 72.6201 15.4207 72.738 15.3972 72.8601C15.3771 72.9645 15.3307 73.1644 15.2048 73.3671L14.9507 73.7762L14.4807 73.8813L14.3451 73.9117L14.042 73.9794L13.7463 73.8851C13.5292 73.8159 13.3269 73.7257 13.1284 73.5887C12.9495 73.4652 12.8071 73.3252 12.7087 73.228L12.7081 73.2271C10.0858 70.6307 8.41044 66.9108 7.69198 63.4501C7.5825 62.9227 7.50046 62.4113 7.43881 61.9085C7.40797 61.9594 7.37666 62.0104 7.34561 62.0619L6.72411 63.0934C6.64534 63.2226 6.39065 63.6609 6.10755 64.0422C5.96837 64.2297 5.78278 64.4584 5.56851 64.6447C5.46122 64.738 5.30904 64.8541 5.11751 64.9418C4.92696 65.029 4.61905 65.1231 4.25405 65.0489L3.81717 64.9601L3.55504 64.5996C3.17598 64.0787 3.02774 63.3753 2.95102 62.8918C2.86645 62.3588 2.83194 61.809 2.80696 61.4799C2.64559 59.3527 2.79417 57.3836 3.154 55.4471C3.01419 55.5833 2.88102 55.7118 2.75678 55.8277C2.57015 56.0018 2.38817 56.1645 2.23072 56.2897C2.15396 56.3508 2.061 56.4206 1.96277 56.4813C1.91383 56.5115 1.84392 56.5517 1.75979 56.5881C1.69142 56.6177 1.52885 56.6832 1.31529 56.693L0.774451 56.7176L0.0980675 55.9682L0.042057 55.6398C-0.0344208 55.1909 0.00845251 54.7079 0.0523629 54.3972C0.398769 51.95 1.37746 49.1674 2.72832 46.6368C3.42623 45.3295 4.23726 44.0639 5.13364 42.9312C4.64508 42.9764 4.15147 42.9949 3.70627 42.9608C3.40487 42.9376 3.07853 42.8874 2.77313 42.7793C2.47636 42.6743 2.09554 42.4777 1.82588 42.0935L1.5279 41.6689L1.76405 40.6935L2.02797 40.456C2.30196 40.2094 2.75207 39.9145 3.10561 39.6859C3.51153 39.4235 3.86117 39.2041 4.08311 39.0436C5.28143 38.1769 6.52972 37.1931 7.86695 36.3103C7.44789 36.2217 7.03429 36.1112 6.68625 35.9706C6.4399 35.8711 6.12218 35.7167 5.86469 35.4681C5.57765 35.191 5.26699 34.6784 5.44147 34.0293L5.57545 33.5308L6.03765 33.3005C6.41166 33.1141 6.83759 32.9663 7.20401 32.8466C7.60491 32.7156 7.9206 32.6219 8.21243 32.5155C9.11388 32.1866 10.0081 31.8561 10.8969 31.5158C9.52783 29.8809 8.44692 28.0191 7.89854 25.9705C6.58747 21.073 7.9904 15.5851 10.2897 11.4432L10.2918 11.4394L10.294 11.4358C12.5555 7.43221 15.8073 4.07644 19.7381 1.69062L19.7405 1.68905C20.7249 1.09496 21.7185 0.515651 22.9878 0.151453L23.5156 0L24.5146 0.703492ZM23.3041 1.25396C22.194 1.5725 21.3137 2.07956 20.3333 2.67125L19.9825 2.88813C16.3769 5.15654 13.39 8.28718 11.2928 11.9999L11.1897 12.1874C9.04238 16.1438 7.81672 21.2289 9.00666 25.6739C10.19 30.0944 14.1663 33.6962 18.0741 35.8494L18.3584 36.0047C15.6066 35.7191 13.6421 34.2085 11.6571 32.4532C10.644 32.8452 9.62598 33.2209 8.60562 33.5931L8.36007 33.6787C7.76869 33.8775 7.06124 34.0719 6.54914 34.3271C6.30374 35.24 10.7663 35.574 11.485 35.568C10.8636 35.8089 10.378 36.1416 9.80783 36.4633C8.01136 37.4767 6.42488 38.7658 4.75546 39.9732L4.65397 40.0449C4.11632 40.4175 3.15457 40.9851 2.79531 41.3084L2.76484 41.4346C3.41055 42.3544 7.50449 41.4339 8.54401 41.0905C4.89404 43.9407 1.83573 49.9819 1.18803 54.5579C1.14944 54.8308 1.12629 55.1741 1.1728 55.4471L1.26309 55.547C1.60802 55.5313 4.83447 52.0656 5.32385 51.5915C4.28926 54.8842 3.68765 57.9258 3.9507 61.3932C4.00389 62.0941 4.07555 63.3651 4.48257 63.9246C4.82101 63.9934 5.38626 63.09 5.65118 62.6516L5.7446 62.4963C6.57782 61.1297 7.305 59.7935 8.39278 58.6072C8.42075 60.1951 8.48662 61.6348 8.8151 63.2171C9.50055 66.5187 11.0928 70.0136 13.5151 72.412C13.7162 72.6108 13.8268 72.7068 14.0947 72.7922L14.2304 72.762C14.371 72.5356 14.2321 71.5292 14.1988 71.1988C13.9893 69.1183 14.4136 67.0197 14.5465 64.9498C14.2005 65.5576 13.4818 66.9501 13.0862 67.4096C12.9467 67.154 12.8164 66.8984 12.6848 66.6389C10.6416 62.6126 11.7658 57.7387 14.4197 54.2325C13.2404 57.3258 12.5846 60.422 13.0354 63.7304C13.1369 64.4763 13.3159 65.2149 13.4593 65.9591C13.5832 65.2244 13.9624 64.2977 14.1979 63.5664C14.7669 61.801 15.4502 59.6591 16.3611 58.0319C16.0662 59.4041 15.7694 60.7776 15.6323 62.1914C15.1625 67.0383 16.4512 72.2412 19.8104 75.8737L19.9744 76.048C20.1368 76.2151 20.3285 76.391 20.5188 76.4793L20.5706 76.5012C20.6422 76.4698 20.6822 76.4718 20.6884 76.4067C20.7768 75.4788 20.5212 74.2454 20.4933 73.3355C20.4673 72.4868 20.4327 71.4864 20.5276 70.6949C21.1102 73.4175 21.9758 75.6754 23.1504 78.2064C23.6889 79.3668 24.2675 80.433 24.7467 81.6293C24.9981 82.2539 25.2067 82.8955 25.3714 83.5482C25.4825 84.0049 25.5738 84.629 25.7388 85.048C27.2351 83.9532 27.9333 81.6014 28.2006 79.8332C28.2265 79.6635 28.2423 79.4927 28.2483 79.3208C30.3155 81.553 32.3093 83.8431 32.9702 86.9201C33.269 88.3114 33.1632 89.4196 33.1972 90.8103C33.1999 90.9224 33.3191 90.9988 33.4237 91.0191L33.4671 91.0243C33.9317 91.0287 34.6157 90.4694 35.0106 90.1048L35.1604 89.9628C37.0629 88.1137 38.1991 84.5496 38.4019 81.9293C39.2499 86.1735 38.9193 90.5395 34.9496 92.9706C34.8343 93.0413 34.8355 93.0914 34.8212 93.2009C35.0387 93.3924 35.6292 93.3969 35.9137 93.3671C38.8523 93.0615 41.5319 91.39 43.5909 89.3926C43.3399 90.0043 43.0902 90.6475 42.7465 91.2121C42.5814 91.4586 42.0881 92.1063 42.132 92.3562C42.4033 92.4443 42.728 92.2785 42.9793 92.1398C46.5726 90.1503 48.2134 86.5325 49.5424 82.9191C49.4974 84.989 49.2829 86.7331 48.2506 88.5592C48.1152 88.799 47.7355 89.3846 47.8634 89.5656C48.379 89.6464 49.4463 88.9106 49.8395 88.6152C53.8691 85.5893 55.6558 81.6187 55.1739 76.6027C55.78 77.8171 56.5827 78.7401 57.9106 79.1563C58.1791 79.2401 58.5518 79.3716 58.8334 79.3114L58.8885 79.2966C59.0788 78.9939 58.646 78.6171 58.4774 78.3576C57.8977 77.464 58.1515 76.3961 58.3672 75.4328C61.4661 74.6509 64.7183 72.8286 65.0553 69.2956C66.1572 69.0698 67.0156 68.3781 67.636 67.4123L67.6954 67.318C68.9643 65.1419 69.9837 62.0092 69.6663 59.4928C69.5365 58.4616 67.9123 57.1153 67.1658 56.4508C65.461 54.9348 64.6835 53.5974 63.7348 51.559C66.6853 53.9125 66.2343 51.1547 65.1052 49.4013C69.3185 52.3448 67.5842 47.8806 66.221 46.0944C67.072 46.555 69.5502 47.503 70.4509 47.0159L70.4926 46.9917L70.5264 46.8994C70.1878 46.3663 69.7419 45.9185 69.3264 45.4438L69.1508 45.2384C68.4548 44.4028 67.7488 43.4765 67.2101 42.5335C71.2912 41.5463 76.5071 38.7716 78.8379 35.0458L78.9468 34.8675C83.9626 26.4505 78.7282 14.6314 71.4734 9.2507C71.3459 9.15628 71.1525 9.06859 70.9902 9.09544L70.9857 9.10955C70.9062 9.43754 71.7407 11.6592 71.8812 12.211C73.6325 19.0953 74.0155 27.6217 66.3007 30.9983C65.3453 31.4166 64.4964 31.5368 63.5213 31.7974L63.3293 31.5696C61.3365 29.2321 59.0653 27.4287 56.0486 26.5376C56.8888 26.4129 57.719 26.2917 58.5655 26.221C58.8486 26.1973 59.1571 26.1716 59.4379 26.1027L59.5564 26.0704L59.5822 25.9884C59.2226 25.3187 57.1107 24.6074 56.3356 24.3534C54.2135 23.6581 51.2062 23.7045 49.0656 24.4983C49.1086 23.8499 49.1573 22.4423 48.8304 21.8627L48.7977 21.8094C48.2787 21.5178 47.8584 22.4599 47.6382 22.8272C47.3849 23.2513 47.1524 23.6974 46.9025 24.1264C45.5381 21.8138 43.414 20.4548 40.867 19.7148L40.6192 19.6451C40.186 19.5272 39.1399 19.3061 38.7182 19.4778L38.6434 19.5898C38.7084 19.8224 39.5301 20.529 39.7457 20.7494L39.9821 20.9934C40.5323 21.569 41.0678 22.1902 41.4222 22.9C40.2508 22.3242 39.1904 21.7883 37.9489 21.3526L37.6979 21.2668C34.6772 20.2604 31.4543 20.2576 28.4152 21.2007L28.3431 21.224C28.1747 21.2811 28.0077 21.3601 27.9214 21.5096C28.0541 21.8528 30.1301 22.322 30.6063 22.4815C31.4055 22.7492 32.1074 23.037 32.8685 23.3952C29.7658 23.4322 27.4498 23.9831 24.6336 25.3174L24.2196 25.5117C23.7555 25.7293 23.1827 26.0035 22.8711 26.2107C22.2469 25.6353 21.6968 25.1159 21.1679 24.4701L21.0624 24.3393C16.254 18.2785 19.1502 9.79846 22.2536 3.62724L22.4015 3.33532C22.5965 2.95272 23.3842 1.76366 23.4097 1.36442V1.32835L23.3041 1.25396Z" fill="white"/>
<path d="M61.0341 46.8408C61.0897 46.9571 61.2997 48.4633 61.3643 48.7578C61.7811 50.6599 62.4198 52.6167 63.3679 54.3225C63.9257 55.3364 64.7087 56.1188 65.4591 56.9687C66.1871 57.7927 67.5778 58.428 68.0092 59.3705C68.5855 60.6304 66.6948 61.296 66.0169 62.0403C65.4782 62.6317 65.2198 63.0367 64.8688 63.7894C64.9188 62.4351 65.2249 61.9448 65.8394 60.7719C65.5192 60.832 64.7031 61.0904 64.3486 61.2078C63.1005 61.6201 61.967 61.0197 60.7459 60.5619C60.8847 60.8556 61.0391 61.2882 61.1228 61.5903C61.3486 62.4048 61.2368 62.8834 60.8206 63.5726C59.2917 66.1053 59.4175 66.1238 56.5343 66.8214C55.0447 67.182 53.3062 67.5578 51.8711 66.7405C51.0858 66.2934 50.6578 65.5666 50.4494 64.7196C50.6432 64.1152 51.0201 63.5209 51.3279 62.9575C49.4901 63.9146 49.075 64.8106 48.3206 66.6591C48.1678 65.5593 48.7239 63.1176 49.2289 62.097C49.4154 61.7201 50.1748 60.5057 50.1551 60.2765C49.9939 60.2591 49.9962 60.3041 49.8203 60.4181C48.8537 61.0584 48.1841 61.724 47.4696 62.6211C47.8314 61.1438 48.4504 59.7418 49.2991 58.4797C48.1689 59.0178 47.4253 59.6985 46.5103 60.5226C46.5484 58.3797 47.2568 56.7957 48.5694 55.1331C48.9418 54.6618 49.5985 53.8041 49.8726 53.2918L49.9074 53.2255C50.122 53.9973 50.2163 55.2291 50.2686 56.0374C51.2223 54.641 51.4757 52.8823 50.955 51.2738C50.4562 49.7606 50.1248 49.7531 49.9349 47.961C50.9527 49.519 51.574 50.3246 53.4287 50.9456C52.6968 49.361 52.5485 48.7826 52.7047 47.0658C54.3706 49.6655 56.459 51.4747 59.4984 52.2841C58.9457 50.9776 58.4452 49.5597 58.3542 48.1426C59.1395 49.3751 59.6691 49.919 60.8509 50.7053C60.6369 49.2755 60.6274 48.2206 61.0341 46.8408Z" fill="white"/>
<path d="M47.3994 26.5501C50.1843 25.9172 51.5003 25.7728 54.3228 26.5036C53.5438 26.6258 52.6529 26.7764 51.8986 26.9935C55.8518 27.7415 59.1231 29.9957 61.8406 32.8782C62.2911 33.3561 62.7168 33.8712 63.1679 34.3382C62.1709 33.9488 61.567 33.7767 60.6049 33.2333C59.987 32.8841 59.1787 32.2632 58.6092 31.978C60.1364 33.5563 61.0441 34.9048 62.1254 36.8387C63.3229 38.9811 64.6126 41.7469 66.287 43.573C64.6901 42.9577 63.5931 42.2851 62.3804 41.0402C62.3338 43.6551 62.4748 45.038 63.6313 47.4475C61.7575 45.7424 61.2351 44.2934 60.779 41.9002C60.2993 43.7965 60.1431 44.718 59.2175 46.4843C59.8179 41.8407 58.9647 37.9668 55.4743 34.619C57.1375 38.1068 57.3622 38.9055 57.4762 42.7494C57.1454 41.6466 56.7718 40.4516 56.2663 39.4155C55.2165 37.2648 53.3281 35.1906 51.429 33.7453C50.4915 33.0316 49.563 32.5059 48.5941 31.7394C50.2747 34.583 50.8802 36.6533 50.7257 40.0104C50.6842 40.9191 50.6055 41.9417 50.3764 42.8255C50.3629 42.8785 50.3483 42.9312 50.3337 42.9838C49.0204 37.3538 44.8309 37.0064 43.2009 32.206C42.3285 34.5501 42.4018 36.1286 43.4209 38.4753C41.5408 37.0561 39.7079 35.644 38.728 33.4153C37.8334 31.3806 37.9947 30.0179 39.1882 28.2006C38.7618 31.1655 39.5399 32.5862 41.342 34.8416C40.6523 32.1326 41.3477 30.1388 42.9266 27.904C44.1498 29.5522 44.9995 30.532 46.9242 31.4634C46.6085 30.7469 46.3681 29.9805 46.1361 29.2323C49.5439 30.4337 51.2256 31.3783 53.8538 33.7829C52.5277 31.399 51.0914 29.8931 48.7081 28.5122C48.3486 28.3037 47.8319 28.0034 47.4477 27.8747L47.464 27.8408C47.9054 27.8651 48.3054 28.0096 48.7306 28.0941C50.7392 28.4936 53.2483 29.3661 54.9609 30.5207L55.1643 30.4037C53.2365 28.2317 50.2837 26.8223 47.3994 26.5501Z" fill="white"/>
<path d="M20.4043 3.94826C20.4071 3.96208 20.4327 4.05689 20.4278 4.06554C17.9253 8.52839 16.0554 13.727 16.7823 18.9138C17.0622 20.9114 18.0114 23.4336 19.2578 25.0441C21.7045 28.2057 25.6682 30.0393 29.5738 30.5413C30.6533 30.68 31.8007 30.6892 32.8835 30.6851C31.3364 31.5901 30.4438 31.7084 28.6921 31.6928C30.2302 32.2721 32.0395 32.2296 33.6384 31.9881C31.7898 32.8312 30.7898 33.0952 28.7999 33.003C30.8327 33.8181 32.1258 33.5448 34.1087 33.5168C30.3302 34.6831 27.6267 34.2014 23.9896 32.936C23.8496 32.8841 23.7105 32.8299 23.5722 32.7737C19.5348 31.131 16.3307 28.531 14.5994 24.4533C14.8256 26.1058 15.5436 27.6456 16.3194 29.0949C13.5806 26.4289 12.4823 22.806 12.6302 19.0645C12.7722 15.4742 13.9113 12.6946 15.6842 9.62539C14.2974 10.8695 13.1524 12.5133 12.3304 14.1712C12.0582 14.7201 11.8449 15.2845 11.5553 15.8217L11.5702 15.7507C12.7456 10.3235 15.8414 6.87476 20.4043 3.94826Z" fill="white"/>
<path d="M73.5391 12.8352C76.7014 16.3348 78.9387 21.0738 78.8111 25.8913C78.6471 32.07 74.094 36.322 68.3816 37.9516L68.1687 37.8341C70.0307 37.169 71.2412 36.358 72.8083 35.1556C72.2022 35.333 71.6355 35.745 71.0569 36.0041C69.4252 36.7351 67.6839 37.193 65.9067 37.3862C65.5394 37.4261 65.0906 37.4713 64.7361 37.5376C64.3986 37.0023 64.0526 36.4724 63.6981 35.9482C64.2935 36.1759 65.6899 36.6565 66.3954 36.5477C66.5133 36.5296 66.5353 36.4098 66.5605 36.3237C66.4364 35.7632 65.3647 34.8458 64.9625 34.312C64.6513 33.8994 64.4654 33.6957 64.1722 33.2123C68.0339 32.3967 70.4542 30.7364 72.7201 27.4607C75.0568 24.0834 75.0292 19.4848 74.1912 15.5661C73.9884 14.6524 73.7716 13.7419 73.5391 12.8352Z" fill="white"/>
<path d="M21.5622 36.2731C24.3484 36.3026 26.9177 37.5232 29.4386 38.5995C27.3016 38.6434 25.1301 38.052 23.0427 38.0641C20.3901 38.0795 18.1968 38.9507 16.3541 40.8457C17.3816 40.8438 19.1882 40.9705 20.1472 41.2849C19.6942 41.7023 18.886 42.1782 18.3429 42.5268C19.4331 42.744 20.3528 42.9181 21.4125 43.2387C21.109 43.4428 20.9027 43.6168 20.6219 43.8529C21.2927 44.2073 21.8419 44.3436 22.5599 44.5695C22.86 44.9427 22.9484 45.0984 23.3416 45.368C23.4902 45.4398 23.6409 45.5072 23.7936 45.57C25.1701 46.126 26.696 45.5165 27.9844 44.9827C23.9481 48.9118 19.1902 45.9265 15.6093 43.0786C16.1577 42.8218 16.8046 42.4662 17.3517 42.1844C16.4216 42.0688 15.1125 42.0367 14.2841 41.6126C13.5866 41.2556 15.1847 39.5754 15.5181 39.178C17.1602 37.2211 19.0263 36.4236 21.5622 36.2731Z" fill="white"/>
<path d="M33.1914 44.7719L33.2496 44.8694C32.9781 46.9087 32.9358 48.3672 33.221 50.4046C33.3917 51.6247 33.1006 53.152 32.7743 54.3507C34.6559 52.6341 35.2867 51.2187 35.9495 48.8304C36.0607 49.4144 36.1612 50.2046 36.0948 50.7905C35.8248 53.1739 34.9102 54.563 35.6222 57.0401C36.1413 56.525 36.5307 55.8706 36.9994 55.3061C37.5055 54.6967 38.0381 54.1597 38.5457 53.5463C37.3902 56.3868 36.7317 58.9897 37.1662 62.0819C37.2852 62.9295 37.3995 63.6057 37.7044 64.4225C36.2637 62.88 35.732 61.5921 35.3618 59.5149C35.2954 58.8117 35.1183 57.9337 34.978 57.2434C34.0803 59.5413 34.0015 60.6894 34.3603 63.1637C34.1237 62.8351 33.8974 62.5239 33.6899 62.1757C31.9634 59.2779 33.9559 56.6738 34.6418 53.926C33.0349 55.3342 32.3456 56.4132 30.1036 56.9856C31.6451 55.0623 32.0218 52.6302 32.0525 50.2467C31.1732 51.6107 30.7586 52.0988 29.5205 53.1453C29.8856 52.3168 30.4153 51.3742 30.7335 50.5459C31.5189 48.5016 32.1905 46.7374 33.1914 44.7719Z" fill="white"/>
<path d="M26.5143 49.0001C26.5056 49.1133 25.9987 50.2298 25.8964 50.4607C25.48 51.4017 25.2929 52.3358 24.9652 53.2941C25.8162 52.4336 26.7004 51.6068 27.6159 50.8158C26.0218 53.8148 25.8301 57.5871 26.7749 60.8079C26.9051 61.2517 27.0536 61.8549 27.2926 62.2374L27.3684 62.22C27.4871 60.463 28.081 58.9655 28.8668 57.4254C28.6673 59.9058 28.4885 61.3724 28.5064 63.909C28.5598 64.9021 28.6413 65.9969 28.6231 66.9832C25.1699 62.939 24.0816 59.2683 25.7271 54.0378C25.2951 54.4927 23.4125 57.0777 22.9854 56.8418C22.888 56.5351 23.1379 55.633 23.2035 55.2892C23.6924 52.7307 24.7065 50.8675 26.5143 49.0001Z" fill="white"/>
<path d="M60.2678 68.2875C60.3026 68.2824 60.3374 68.2785 60.3722 68.2757C61.5625 68.1656 62.4185 68.4655 63.3178 69.2148C63.283 69.3525 63.247 69.4895 63.2094 69.6266C62.7112 71.4229 61.3872 72.3806 59.8246 73.2703C60.2088 72.6564 60.3402 72.2834 60.4846 71.5813C59.9409 71.6672 59.2466 71.9335 58.7135 72.1284C57.7356 72.485 57.1239 72.6693 56.0932 72.7979C56.4875 72.4867 56.9105 72.0744 57.2835 71.7279C56.7049 71.8823 56.2769 71.9767 55.6871 72.0846C55.3069 72.093 55.0474 72.1199 54.6676 72.1671C54.894 71.9947 55.4248 71.6453 55.445 71.3678C55.1737 71.3015 54.4014 71.3953 54.0015 71.3718C53.3797 71.3347 52.9775 71.2645 52.3669 71.1594C53.4246 70.9303 53.4971 70.9825 54.5738 70.4556C53.187 70.4186 52.0181 70.3753 51.4592 68.9132C54.0414 70.1961 57.4334 68.5981 60.2678 68.2875Z" fill="white"/>
<path d="M10.0645 45.2804C10.0649 45.3332 9.32613 47.2186 9.23159 47.4643C8.52812 49.2924 8.58918 51.0151 8.36461 52.9054C8.93524 52.2752 9.45037 51.6225 10.0441 50.9918C11.1626 49.8036 12.2658 48.8997 13.555 47.9165C12.5589 49.4789 11.7606 50.6829 10.6235 52.1628C9.1388 53.985 7.80904 55.9442 6.30835 57.6967C6.2769 56.4873 6.23735 55.3286 6.34812 54.1215C6.64582 50.8777 7.87605 47.7143 10.0645 45.2804Z" fill="white"/>
<path d="M42.9726 59.2132C43.0812 59.3486 42.8018 60.7551 42.7619 61.0365C42.3588 63.877 42.9096 65.2722 43.5729 67.8403C44.2415 65.3801 44.3295 64.3123 45.6621 61.9695C45.2017 63.9169 45.1112 65.7688 45.6172 67.7162C45.893 68.6452 46.1261 69.2305 46.5423 70.1C45.4538 69.1889 45.1142 68.8283 44.3963 67.5786C44.0768 68.2841 43.943 69.0468 43.5785 69.713C40.9873 65.9951 41.004 63.1765 42.9726 59.2132Z" fill="white"/>
<path d="M37.233 43.2449C37.661 43.3854 38.0917 43.5169 38.5251 43.6393C38.6091 45.2867 39.0124 46.4259 40.9195 46.6726C41.9146 46.8013 42.6014 46.3111 43.3426 45.7009C44.2011 46.3734 44.4403 46.9552 44.8106 47.9508C44.8631 48.1839 44.9447 48.447 45.0103 48.6799C43.726 48.2629 42.9831 48.3302 41.6732 48.3614C40.5423 48.3884 39.1858 48.1532 38.3686 47.3052C37.2083 46.1012 37.2216 44.7813 37.233 43.2449Z" fill="white"/>
<path d="M30.7129 65.1577C30.7694 65.2088 30.7978 65.2571 30.8071 65.338C30.9058 66.2002 31.0376 67.0624 31.3059 67.8915C31.6547 68.9699 32.3754 69.8591 32.9544 70.8224C32.8726 69.166 32.8608 68.3863 33.2758 66.7647C33.4708 68.3627 33.1705 68.7576 33.8535 70.5837C34.2357 71.5335 34.7142 72.3053 35.3134 73.1293C33.7666 72.5305 32.8198 72.025 31.7704 70.6516C30.7262 69.2856 30.43 66.8377 30.7129 65.1577Z" fill="white"/>
<path d="M66.7494 63.4434C67.4066 63.4187 67.5897 63.5046 68.2165 63.7209C67.8672 65.1504 66.8056 66.3479 65.6142 67.1613L65.0643 67.4354C64.8138 67.3713 64.5391 67.3146 64.3818 67.1096C64.42 66.7889 64.6677 66.5277 64.766 66.2311C65.1564 65.0487 65.3086 63.7456 66.7494 63.4434Z" fill="white"/>
<path d="M52.3851 37.1808C52.4705 37.2236 52.4739 37.2266 52.5385 37.2956C54.6033 39.4978 53.9697 42.547 53.8135 45.279L53.763 45.3693L53.6978 45.3605C52.4228 43.1926 52.7109 42.5691 52.7025 40.2435C52.7042 39.2143 52.5975 38.1878 52.3851 37.1808Z" fill="white"/>
<path d="M29.6246 75.7255C29.6605 75.7491 29.6946 75.7704 29.7242 75.8019C31.5246 77.7431 32.9073 80.9105 33.1061 83.4988C32.9591 83.3949 32.5674 82.6473 32.4555 82.4372C31.2771 80.2196 30.2064 78.1779 29.6246 75.7255Z" fill="white"/>
<path d="M45.5631 76.054L45.6328 76.1349C45.671 76.4433 45.594 77.1454 45.5575 77.4762C45.2941 79.8247 43.6973 81.8536 41.9055 83.2892C42.2109 82.5562 42.5003 81.9597 42.7897 81.1969C43.2043 80.0617 43.1683 78.6019 43.1879 77.3847C43.5659 78.5058 43.7479 79.3888 43.6081 80.5678C44.8117 78.8271 45.0838 78.1183 45.5631 76.054Z" fill="white"/>
<path d="M44.8881 37.3115C45.4666 37.7389 46.1979 38.4331 46.654 38.9803C48.3452 41.01 48.5115 42.708 48.3222 45.1936L48.2352 45.1784C47.7622 42.8275 47.4684 41.8508 46.1771 39.7754C45.8693 39.2814 45.0576 37.8478 44.8881 37.3115Z" fill="white"/>
<path d="M30.2614 39.9415L30.3123 39.9916C30.2953 40.165 29.8314 40.7923 29.6925 41.08C29.3707 41.7464 29.2008 42.2221 29.0241 42.9406C29.5157 42.2421 29.8407 41.8212 30.4 41.1897C29.811 42.7442 29.6289 43.334 29.3053 44.9963C29.229 45.2946 29.1934 45.5898 29.1499 45.8943C28.8449 45.1413 28.5708 44.5427 28.3955 43.7366C28.0975 43.7878 27.7934 43.833 27.4944 43.8802C28.2345 42.2272 29.014 41.2206 30.2614 39.9415Z" fill="white"/>
<path d="M48.2548 80.3303L48.3088 80.4263C48.0099 82.4709 45.6379 85.5276 44.2126 87.1004C44.0835 86.9819 44.1745 86.6555 44.2232 86.4966C44.9552 84.1026 46.9854 82.4226 48.2548 80.3303Z" fill="white"/>
<path d="M23.1555 63.0693C23.1956 63.1008 23.2586 63.1508 23.2632 63.2092C23.3778 64.6252 23.6447 66.0402 24.0605 67.3972C24.276 68.1005 25.6154 70.846 25.179 71.4246C23.2216 68.706 22.7337 66.3648 23.1555 63.0693Z" fill="white"/>
<path d="M19.7679 54.7674C19.8454 55.0724 19.764 55.8801 19.7275 56.1992C19.6776 56.6277 19.6019 57.0524 19.501 57.472C19.274 58.4341 18.9423 59.4357 18.6903 60.3978C18.5908 60.7781 18.1962 62.5817 18.0067 62.7311C17.4621 59.7676 18.8017 57.4057 19.7679 54.7674Z" fill="white"/>
<path d="M53.4045 78.134C53.4601 78.3778 53.4264 79.0563 53.4208 79.3383C53.377 81.4525 52.7131 82.7821 51.6262 84.5205C51.8548 83.5016 51.9026 82.5254 51.9222 81.4857C51.8936 80.3297 51.62 79.1372 51.2667 78.0419C51.9728 78.9929 52.4098 79.9758 52.5918 81.1414C52.8131 80.3067 53.158 78.8637 53.4045 78.134Z" fill="white"/>
<path d="M39.3069 41.7715C40.3312 41.6011 41.4547 41.8624 42.2973 42.4643C42.9729 42.9469 43.3316 43.5745 43.7329 44.2746L43.0769 43.7863C42.4538 43.3975 41.6526 42.995 40.937 42.8231C39.6967 42.5252 39.3847 42.7439 38.3055 41.9729C38.6821 41.8758 38.9217 41.83 39.3069 41.7715Z" fill="white"/>
<path d="M34.5582 26.4977C35.0686 26.4643 35.5595 26.4822 36.0698 26.4934C35.4139 26.728 34.7343 26.9155 34.0866 27.163C33.1416 27.524 32.1965 27.9393 31.2665 28.3404L30.1494 28.7624C31.2726 27.468 32.8519 26.6568 34.5582 26.4977Z" fill="white"/>
<path d="M55.1986 43.1961C55.4025 44.6375 55.5042 45.4974 56.0119 46.9118C56.1411 47.2705 56.832 49.0047 56.868 49.1893L56.7961 49.1882C55.8384 48.102 55.0632 47.084 54.9582 45.5759C54.9088 44.8589 54.9486 43.8707 55.1986 43.1961Z" fill="white"/>
<path d="M46.4957 53.2497C46.5479 53.4143 46.4827 53.9041 46.4547 54.0917C46.2176 55.6813 44.8338 56.6221 43.4744 57.1366C43.4303 56.9833 43.8054 56.7075 43.9344 56.5918C45.0273 55.6094 45.825 54.5478 46.4957 53.2497Z" fill="white"/>
<path d="M40.5962 74.6948C40.8224 74.8964 40.9005 75.3767 40.9166 75.6789C40.9875 77.009 40.2204 77.9633 39.3839 78.8906L39.2812 78.9463C39.2751 78.7547 39.7331 77.8964 39.835 77.633C40.2244 76.6281 40.4843 75.7766 40.5962 74.6948Z" fill="white"/>
<path d="M37.3072 34.9505C37.3601 35.0971 37.16 36.0456 37.1129 36.2696C36.9052 37.2604 37.062 37.9458 37.0756 38.8364L37.0285 38.8448L36.9296 38.665C36.2488 37.0921 36.0232 36.2896 37.3072 34.9505Z" fill="white"/>
<path d="M39.9271 43.6481C40.1926 43.5626 40.4789 43.6976 40.582 43.9567C40.6851 44.2158 40.5698 44.5106 40.3182 44.6309C40.1396 44.7163 39.9284 44.6951 39.7703 44.5759C39.6123 44.4568 39.5338 44.2595 39.5667 44.0643C39.5997 43.8692 39.7387 43.7087 39.9271 43.6481Z" fill="white"/>
<path d="M68.3817 37.9515C68.143 38.0164 67.77 38.1338 67.542 38.0526C67.6684 37.9326 67.9835 37.8805 68.1688 37.8341L68.3817 37.9515Z" fill="#BCBCBB"/>
</svg>
