<svg width="103" height="103" viewBox="0 0 103 103" fill="none" xmlns="http://www.w3.org/2000/svg">
<circle cx="51.2983" cy="51.2983" r="51.2983" fill="black"/>
<path d="M40.7726 12.6596L40.804 13.0931C40.8186 13.2959 40.7727 13.4704 40.7459 13.5601C40.7139 13.6674 40.6721 13.7707 40.6323 13.86C40.5524 14.0392 40.4492 14.2312 40.3527 14.4019C40.2548 14.5754 40.1513 14.749 40.0683 14.8888C39.9773 15.0423 39.9235 15.1347 39.8997 15.1813C38.6544 17.6241 37.4612 20.4896 37.0422 23.3103C36.625 26.1191 36.9854 28.795 38.7301 30.9942C39.0018 31.3367 39.282 31.6298 39.5994 31.9357C39.9394 31.765 40.2893 31.6056 40.4748 31.5178C41.5336 31.0161 42.5154 30.6446 43.5111 30.384C43.4947 30.3772 43.4784 30.3706 43.4624 30.3637C43.3522 30.3164 43.2225 30.2547 43.1027 30.1765C43.0255 30.126 42.7667 29.9557 42.6416 29.6322L42.4834 29.2228L42.7028 28.8427C42.9828 28.3574 43.4996 28.2153 43.6204 28.1779C46.1015 27.4079 48.733 27.3714 51.2253 28.1164C51.2124 28.0839 51.2 28.0494 51.1898 28.0128L51.0764 27.6069L51.5265 26.9324L51.7874 26.8262C52.032 26.7266 52.2851 26.7099 52.4558 26.7083C52.645 26.7065 52.838 26.7239 53.0101 26.7466C53.3544 26.792 53.6914 26.8694 53.8946 26.9247C55.7096 27.4186 57.3462 28.2829 58.5837 29.6993C58.6704 29.5476 58.7994 29.3337 58.9276 29.1746C59.0414 29.0334 59.2353 28.8238 59.5179 28.6943C59.8334 28.5498 60.213 28.5294 60.5729 28.7036L60.6445 28.7411L60.8356 28.8483L60.9574 29.0301C61.1288 29.2859 61.2102 29.5789 61.2554 29.8023C61.3007 30.0258 61.3245 30.2612 61.3375 30.4815C63.0385 30.1355 65.0037 30.2105 66.5101 30.704C66.8228 30.8065 67.4363 31.0109 68.0155 31.2646C68.3038 31.3908 68.6081 31.5397 68.8717 31.7065C69.1017 31.8519 69.4384 32.0937 69.6296 32.4498L69.8127 32.7908L69.6962 33.16L69.6755 33.2254L69.5296 33.6873L69.2015 33.7864C70.3662 34.5289 71.3781 35.4561 72.2995 36.5022C72.8792 36.3649 73.3023 36.28 73.827 36.0503C76.5904 34.8408 77.8918 32.7426 78.3646 30.2578C78.8323 27.8002 78.4804 24.9753 77.8328 22.3439L77.7693 22.0899C77.7217 21.9026 77.5466 21.4099 77.3534 20.8137C77.265 20.5408 77.1764 20.2557 77.1153 20.0182C77.0852 19.9016 77.0562 19.7748 77.0387 19.6564C77.0301 19.5978 77.0213 19.5212 77.0206 19.4378C77.0202 19.3757 77.0213 19.2091 77.0965 19.0251L77.2903 18.5502L77.7962 18.4665C78.0683 18.4215 78.3052 18.4786 78.4598 18.5341C78.6015 18.585 78.7285 18.6541 78.8343 18.7271L78.8784 18.7586L78.8789 18.759C81.9378 21.0276 84.543 24.6248 85.8704 28.5352C87.1984 32.4474 87.2817 36.7911 85.0981 40.4553C84.0867 42.1524 82.4373 43.5798 80.6591 44.676C79.2812 45.5255 77.7865 46.2003 76.37 46.6592C76.6246 47.0105 76.8996 47.3574 77.1792 47.6932L77.3099 47.8457C77.4398 47.994 77.5714 48.1355 77.7355 48.3216C77.9361 48.5493 78.1559 48.813 78.3492 49.1173L78.5919 49.4993L78.4096 49.9981L78.3016 50.2932L78.0355 50.4602C77.6144 50.7244 77.1179 50.7431 76.7656 50.7222C76.5276 50.7081 76.2812 50.6701 76.0397 50.6193C76.1581 50.9605 76.2465 51.3097 76.2723 51.6336C76.2937 51.9015 76.2833 52.2737 76.098 52.6188C75.8756 53.0328 75.4773 53.2698 75.0262 53.3057C74.9635 53.3107 74.9009 53.3114 74.8385 53.3091C74.8544 53.4987 74.8507 53.69 74.8163 53.8738C74.7686 54.129 74.6438 54.4611 74.3346 54.7062C74.2331 54.7866 74.126 54.8463 74.0173 54.8891C74.3854 55.4419 74.8087 55.9367 75.3829 56.4609L75.4966 56.5632L75.4969 56.5636C75.773 56.8093 76.2917 57.2498 76.7404 57.7271C76.9672 57.9684 77.1982 58.2415 77.385 58.5303C77.5652 58.8088 77.7467 59.1659 77.7973 59.5673L77.81 59.6748C78.0574 61.94 77.1564 64.5967 76.1031 66.403L76.0976 66.4125L76.0919 66.4217C75.6025 67.2168 74.9153 67.8808 74.0185 68.2332C73.44 71.0271 70.9003 72.4843 68.6314 73.1664C68.5991 73.3411 68.5773 73.5008 68.5718 73.655C68.5618 73.9315 68.6088 74.1194 68.7071 74.2711L68.7228 74.2919C68.7385 74.3122 68.7556 74.3335 68.7832 74.3681C68.83 74.4265 68.9102 74.5263 68.982 74.6381C69.0848 74.7985 69.4342 75.3884 69.0431 76.0104L68.8657 76.2925L68.5488 76.395C68.2041 76.5065 67.8744 76.4569 67.6906 76.4192C67.4948 76.3789 67.2965 76.3123 67.2111 76.2857L67.2099 76.2851C66.8388 76.1688 66.5097 76.0133 66.2158 75.8273C65.9045 79.0008 64.3451 81.6325 61.5796 83.7092C61.4038 83.8413 61.0746 84.0744 60.7198 84.271C60.5431 84.3689 60.3373 84.4705 60.1265 84.5439C59.9394 84.609 59.6349 84.6935 59.3059 84.6419L58.9231 84.5819L58.7294 84.3082C57.9905 85.1952 57.0963 85.9825 55.9859 86.5973L55.985 86.5979C55.8835 86.6539 55.701 86.7537 55.4929 86.8215C55.2898 86.8877 54.9519 86.961 54.5801 86.8401L54.0554 86.6697L53.9927 86.3126C52.7803 87.0239 51.4287 87.5385 49.9854 87.6887C49.817 87.7063 49.5786 87.7132 49.3405 87.689C49.2203 87.6768 49.0773 87.6545 48.9326 87.6114C48.7993 87.5718 48.5945 87.4945 48.4099 87.3319L48.0434 87.009L48.1065 86.5248C48.1069 86.5217 48.1073 86.5183 48.1079 86.5131C48.1085 86.5086 48.1095 86.5015 48.1104 86.4943C48.1122 86.4804 48.1154 86.456 48.1203 86.428C48.1301 86.3717 48.1509 86.2727 48.2018 86.1604C48.3195 85.9011 48.5108 85.7558 48.6393 85.677L48.6398 85.6766C48.6887 85.6466 48.7367 85.6159 48.7841 85.585C48.7476 85.6042 48.7106 85.623 48.673 85.6406C48.491 85.7255 48.2264 85.8227 47.9244 85.8198L47.9103 85.8196L47.8963 85.8191C47.6733 85.8101 47.4517 85.7341 47.2689 85.6071C47.087 85.4806 46.8112 85.2014 46.8001 84.7537C46.7721 83.603 46.8436 82.9039 46.6756 81.9966L46.6387 81.8122C46.2905 80.1912 45.4199 78.8569 44.3146 77.5428C44.2152 77.8928 44.0955 78.2472 43.9514 78.5921C43.6029 79.4266 43.0809 80.2865 42.2935 80.8626L41.3337 81.5647L40.898 80.4583C40.8025 80.2156 40.7385 79.9435 40.6918 79.7272C40.6382 79.4792 40.6088 79.3148 40.5683 79.1469L40.5212 78.9665C40.4077 78.5466 40.2694 78.1337 40.1071 77.7304L40.1065 77.7289C39.733 76.7964 39.3135 76.0369 38.8491 75.0361C38.6713 74.653 38.5016 74.2764 38.3401 73.9025C38.2734 73.9683 38.2057 74.0166 38.1473 74.0507C38.0633 74.0997 37.9839 74.1279 37.9791 74.1297C37.9634 74.1356 37.9662 74.1346 37.9742 74.1313L37.6447 74.2763L37.2949 74.1446C37.0243 74.0428 36.8107 73.8699 36.679 73.752C36.5375 73.6253 36.4121 73.4889 36.3371 73.4079L36.3363 73.407C34.9535 71.9117 33.9859 70.1206 33.3942 68.214C33.3968 68.4157 33.4054 68.6152 33.4217 68.8131L33.4344 68.953L33.4649 69.2283C33.4782 69.3539 33.4926 69.5024 33.5018 69.6404C33.5112 69.7827 33.5179 69.9482 33.5106 70.104C33.5069 70.1818 33.4989 70.2761 33.4801 70.3737C33.464 70.4573 33.4268 70.6171 33.3262 70.7792L33.1229 71.1065L32.747 71.1905L32.6386 71.2149L32.3961 71.269L32.1596 71.1936C31.986 71.1382 31.8242 71.0661 31.6653 70.9565C31.5223 70.8577 31.4084 70.7458 31.3297 70.668L31.3292 70.6672C29.2318 68.5905 27.8917 65.6152 27.3171 62.8472C27.2295 62.4253 27.1639 62.0163 27.1146 61.6141C27.0899 61.6548 27.0649 61.6956 27.04 61.7369L26.5429 62.5619C26.4799 62.6653 26.2762 63.0158 26.0498 63.3208C25.9384 63.4707 25.79 63.6536 25.6186 63.8027C25.5328 63.8773 25.4111 63.9701 25.2579 64.0403C25.1055 64.1101 24.8592 64.1853 24.5673 64.1259L24.2178 64.055L24.0082 63.7666C23.705 63.35 23.5864 62.7873 23.525 62.4006C23.4574 61.9743 23.4298 61.5346 23.4098 61.2713C23.2807 59.5699 23.3996 57.9949 23.6874 56.446C23.5756 56.5549 23.469 56.6578 23.3697 56.7505C23.2204 56.8897 23.0748 57.0198 22.9489 57.12C22.8875 57.1688 22.8132 57.2247 22.7346 57.2732C22.6954 57.2973 22.6395 57.3295 22.5722 57.3587C22.5175 57.3823 22.3875 57.4347 22.2167 57.4425L21.7841 57.4622L21.2431 56.8628L21.1983 56.6001C21.1371 56.2411 21.1714 55.8547 21.2066 55.6063C21.4836 53.6488 22.2664 51.4232 23.3469 49.3992C23.9051 48.3535 24.5538 47.3412 25.2708 46.4352C24.88 46.4714 24.4852 46.4862 24.1291 46.4589C23.888 46.4404 23.627 46.4002 23.3827 46.3137C23.1454 46.2297 22.8408 46.0725 22.6251 45.7652L22.3868 45.4256L22.5756 44.6454L22.7867 44.4554C23.0059 44.2582 23.3659 44.0223 23.6487 43.8395C23.9734 43.6296 24.253 43.4541 24.4305 43.3258C25.389 42.6326 26.3874 41.8456 27.457 41.1395C27.1218 41.0686 26.791 40.9803 26.5126 40.8679C26.3156 40.7883 26.0615 40.6647 25.8555 40.4659C25.6259 40.2443 25.3775 39.8343 25.517 39.3151L25.6242 38.9164L25.9939 38.7322C26.293 38.5831 26.6337 38.4649 26.9268 38.3691C27.2474 38.2643 27.4999 38.1894 27.7333 38.1042C28.4544 37.8412 29.1696 37.5769 29.8805 37.3047C28.7855 35.997 27.9209 34.5078 27.4823 32.8693C26.4336 28.952 27.5558 24.5625 29.3949 21.2497L29.3965 21.2466L29.3983 21.2438C31.2071 18.0415 33.8081 15.3574 36.9521 13.4491L36.954 13.4479C37.7414 12.9727 38.5361 12.5093 39.5514 12.218L39.9735 12.0969L40.7726 12.6596ZM39.8044 13.0999C38.9164 13.3547 38.2124 13.7602 37.4282 14.2335L37.1476 14.4069C34.2637 16.2213 31.8746 18.7254 30.1972 21.695L30.1147 21.845C28.3972 25.0095 27.4168 29.0767 28.3686 32.632C29.3151 36.1678 32.4955 39.0486 35.6212 40.7709L35.8486 40.8951C33.6475 40.6667 32.0763 39.4584 30.4885 38.0544C29.6782 38.368 28.864 38.6685 28.0478 38.9662L27.8514 39.0346C27.3784 39.1936 26.8126 39.3491 26.403 39.5533C26.2067 40.2835 29.776 40.5506 30.3509 40.5458C29.8539 40.7385 29.4655 41.0046 29.0094 41.2619C27.5725 42.0725 26.3036 43.1035 24.9683 44.0693L24.8871 44.1266C24.4571 44.4247 23.6878 44.8787 23.4005 45.1373L23.3761 45.2382C23.8926 45.9738 27.1671 45.2376 27.9986 44.9629C25.0792 47.2427 22.633 52.0747 22.1149 55.7348C22.0841 55.9531 22.0655 56.2277 22.1027 56.446L22.1749 56.5259C22.4508 56.5133 25.0315 53.7414 25.4229 53.3622C24.5954 55.9958 24.1142 58.4286 24.3246 61.2019C24.3672 61.7626 24.4245 62.7792 24.75 63.2267C25.0207 63.2818 25.4729 62.5592 25.6847 62.2085L25.7595 62.0843C26.4259 60.9912 27.0075 59.9225 27.8776 58.9736C27.9 60.2437 27.9527 61.3952 28.2154 62.6608C28.7636 65.3016 30.0372 68.097 31.9746 70.0153C32.1355 70.1743 32.224 70.2511 32.4382 70.3194L32.5468 70.2952C32.6593 70.1142 32.5482 69.3092 32.5215 69.045C32.354 67.3809 32.6934 65.7023 32.7997 64.0467C32.5229 64.5328 31.948 65.6467 31.6316 66.0142C31.5201 65.8098 31.4158 65.6053 31.3105 65.3977C29.6763 62.1773 30.5755 58.2789 32.6982 55.4746C31.755 57.9487 31.2304 60.4251 31.591 63.0714C31.6722 63.668 31.8154 64.2588 31.93 64.854C32.0292 64.2664 32.3324 63.5251 32.5208 62.9402C32.9759 61.5281 33.5225 59.815 34.251 58.5134C34.0151 59.611 33.7777 60.7096 33.6681 61.8404C33.2924 65.7172 34.3231 69.8787 37.01 72.7841L37.1411 72.9235C37.271 73.0572 37.4244 73.1979 37.5766 73.2685L37.618 73.2861C37.6753 73.2609 37.7072 73.2626 37.7122 73.2104C37.7829 72.4683 37.5784 71.4818 37.5562 70.754C37.5354 70.0752 37.5077 69.2749 37.5836 68.6419C38.0496 70.8195 38.7419 72.6256 39.6815 74.6499C40.1122 75.5781 40.5749 76.4308 40.9582 77.3878C41.1593 77.8873 41.3262 78.4005 41.4579 78.9226C41.5467 79.2878 41.6197 79.787 41.7517 80.1222C42.9486 79.2465 43.507 77.3654 43.7208 75.9511C43.7415 75.8154 43.7542 75.6788 43.759 75.5413C45.4124 77.3267 47.0071 79.1584 47.5358 81.6195C47.7748 82.7324 47.6901 83.6188 47.7173 84.7312C47.7195 84.8208 47.8149 84.8819 47.8985 84.8982L47.9332 84.9023C48.3048 84.9058 48.8519 84.4584 49.1677 84.1669L49.2876 84.0532C50.8093 82.5742 51.7181 79.7235 51.8803 77.6277C52.5585 81.0224 52.2941 84.5145 49.119 86.459C49.0267 86.5156 49.0277 86.5556 49.0163 86.6432C49.1903 86.7964 49.6626 86.8 49.8901 86.7762C52.2405 86.5318 54.3838 85.1948 56.0307 83.5972C55.8299 84.0864 55.6302 84.6009 55.3553 85.0525C55.2232 85.2497 54.8287 85.7677 54.8637 85.9676C55.0808 86.0381 55.3405 85.9055 55.5415 85.7945C58.4156 84.2032 59.728 81.3095 60.7909 78.4194C60.755 80.0749 60.5834 81.47 59.7577 82.9306C59.6494 83.1224 59.3457 83.5908 59.448 83.7355C59.8604 83.8002 60.7141 83.2117 61.0286 82.9754C64.2516 80.5551 65.6808 77.3792 65.2953 73.3672C65.7801 74.3386 66.4221 75.0768 67.4842 75.4098C67.699 75.4767 67.9971 75.5819 68.2223 75.5338L68.2664 75.5219C68.4186 75.2798 68.0724 74.9784 67.9376 74.7709C67.4739 74.0561 67.6769 73.202 67.8494 72.4315C70.328 71.8061 72.9293 70.3486 73.1989 67.5227C74.0802 67.342 74.7668 66.7888 75.2631 66.0163L75.3106 65.9409C76.3255 64.2004 77.1408 61.6947 76.887 59.682C76.7831 58.8572 75.484 57.7803 74.8869 57.2488C73.5234 56.0362 72.9015 54.9666 72.1427 53.3362C74.5027 55.2186 74.1419 53.0128 73.2388 51.6103C76.6088 53.9646 75.2216 50.394 74.1312 48.9653C74.8119 49.3337 76.7941 50.092 77.5145 49.7024L77.5479 49.683L77.5749 49.6092C77.304 49.1828 76.9474 48.8246 76.6151 48.4449L76.4746 48.2806C75.918 47.6123 75.3533 46.8714 74.9224 46.1171C78.1866 45.3275 82.3585 43.1082 84.2228 40.1281L84.3099 39.9855C88.3218 33.2532 84.1351 23.7997 78.3324 19.496C78.2304 19.4205 78.0757 19.3504 77.9459 19.3718L77.9423 19.3831C77.8787 19.6455 78.5462 21.4224 78.6585 21.8638C80.0593 27.3702 80.3657 34.19 74.195 36.8907C73.4308 37.2253 72.7518 37.3215 71.9719 37.5299L71.8183 37.3477C70.2244 35.4781 68.4078 34.0356 65.9949 33.3229C66.667 33.2232 67.331 33.1262 68.008 33.0696C68.2344 33.0507 68.4812 33.0302 68.7058 32.975L68.8006 32.9492L68.8212 32.8836C68.5336 32.3479 66.8444 31.779 66.2244 31.5758C64.5271 31.0197 62.1218 31.0568 60.4096 31.6918C60.444 31.1731 60.4829 30.0473 60.2214 29.5837L60.1953 29.541C59.7802 29.3078 59.444 30.0613 59.2679 30.3551C59.0653 30.6943 58.8793 31.0511 58.6794 31.3943C57.5881 29.5446 55.8892 28.4576 53.852 27.8657L53.6538 27.81C53.3073 27.7157 52.4706 27.5388 52.1333 27.6761L52.0734 27.7657C52.1255 27.9518 52.7826 28.5169 52.9551 28.6932L53.1442 28.8884C53.5843 29.3487 54.0125 29.8456 54.296 30.4134C53.3591 29.9528 52.511 29.5242 51.5179 29.1756L51.3172 29.107C48.9011 28.3021 46.3233 28.2998 43.8925 29.0542L43.8348 29.0728C43.7001 29.1185 43.5665 29.1817 43.4975 29.3013C43.6036 29.5758 45.2641 29.9511 45.645 30.0786C46.2842 30.2927 46.8456 30.5229 47.4544 30.8094C44.9727 30.8391 43.1202 31.2797 40.8678 32.3469L40.5366 32.5023C40.1654 32.6764 39.7072 32.8957 39.458 33.0614C38.9588 32.6012 38.5188 32.1857 38.0957 31.6692L38.0113 31.5646C34.1654 26.7168 36.4819 19.9341 38.9641 14.9981L39.0824 14.7646C39.2384 14.4586 39.8684 13.5075 39.8888 13.1882V13.1594L39.8044 13.0999Z" fill="white"/>
<path d="M39.6637 13.0132L39.7481 13.0727C39.7688 13.359 39.1027 14.362 38.9416 14.6779C36.4162 19.6318 33.9637 26.5532 37.8707 31.4778C38.3197 32.0438 38.7848 32.4839 39.3173 32.9748C39.6496 32.7538 40.3532 32.4374 40.727 32.2603C42.9795 31.193 44.8319 30.7524 47.3136 30.7227C46.7049 30.4362 46.1435 30.2061 45.5043 29.9921C45.1234 29.8645 43.4629 29.4892 43.3568 29.2147C43.4357 29.078 43.5988 29.015 43.7517 28.9675C46.1825 28.2132 48.7604 28.2154 51.1765 29.0203C52.2575 29.3805 53.1559 29.8355 54.1554 30.3268C53.8313 29.6779 53.3182 29.1216 52.8144 28.6065C52.6419 28.4302 51.9848 27.8652 51.9328 27.6791L51.9926 27.5894C52.3299 27.4521 53.1665 27.629 53.5131 27.7233C55.6383 28.3016 57.4122 29.3982 58.5387 31.3076C58.7386 30.9644 58.9246 30.6076 59.1272 30.2684C59.3033 29.9746 59.6394 29.2211 60.0545 29.4543C60.3447 29.8874 60.3043 31.0697 60.2688 31.6051C61.981 30.9701 64.3864 30.9331 66.0837 31.4892C66.7037 31.6924 68.393 32.2614 68.6805 32.7971L68.6598 32.8625C68.4114 32.9376 68.1261 32.9613 67.8673 32.983C67.1903 33.0395 66.5263 33.1366 65.8541 33.2363C68.3449 33.972 70.2004 35.4852 71.8312 37.4432C72.6112 37.2348 73.29 37.1387 74.0542 36.8041C80.225 34.1034 79.9186 27.2835 78.5177 21.7771C78.4036 21.3287 77.7167 19.502 77.8052 19.2852C77.935 19.2637 78.0896 19.3338 78.1916 19.4093C83.9944 23.713 88.1811 33.1666 84.1691 39.8989C82.3505 42.9507 78.0977 45.2284 74.7816 46.0305C75.2125 46.7848 75.7772 47.5257 76.3338 48.194C76.7031 48.637 77.1246 49.0353 77.4341 49.5226L77.4071 49.5963C76.7166 50.0295 74.6819 49.253 73.9904 48.8788C75.0808 50.3074 76.4682 53.878 73.0982 51.5237C74.0012 52.9262 74.362 55.1319 72.002 53.2495C72.7608 54.8799 73.3826 55.9496 74.7461 57.1622C75.3432 57.6937 76.6425 58.7706 76.7463 59.5954C77.0001 61.6082 76.1847 64.1137 75.1698 65.8542C74.6702 66.666 73.968 67.2497 73.0582 67.4361C72.7886 70.262 70.1874 71.7194 67.7087 72.3448C67.5362 73.1153 67.3331 73.9694 67.7968 74.6842C67.9316 74.8917 68.278 75.1932 68.1257 75.4354C67.8965 75.5095 67.5726 75.3945 67.3435 75.323C66.2814 74.9901 65.6394 74.252 65.1546 73.2807C65.5401 77.2927 64.111 80.4686 60.8879 82.8888C60.5734 83.1251 59.7198 83.7136 59.3074 83.6489C59.2049 83.5043 59.5086 83.0357 59.6169 82.8438C60.4427 81.3833 60.6143 79.9883 60.6502 78.3327C59.5873 81.2229 58.2749 84.1166 55.4008 85.7079C55.1998 85.8189 54.94 85.9515 54.723 85.8809C54.6879 85.681 55.0825 85.163 55.2145 84.9658C55.4894 84.5142 55.6891 83.9998 55.8899 83.5106C54.243 85.1082 52.0998 86.4452 49.7493 86.6896C49.5218 86.7134 49.0496 86.7098 48.8756 86.5566C48.887 86.469 48.886 86.429 48.9783 86.3724C52.1534 84.428 52.4179 80.9358 51.7396 77.5411C51.5774 79.6369 50.6686 82.4876 49.147 83.9666C48.8709 84.2348 48.2171 84.8197 47.7925 84.8157C47.7032 84.8121 47.5791 84.747 47.5766 84.6445C47.5495 83.5321 47.634 82.6457 47.395 81.5329C46.8664 79.0718 45.2717 77.2401 43.6183 75.4547C43.6135 75.5922 43.6007 75.7287 43.58 75.8644C43.3662 77.2787 42.8078 79.1598 41.611 80.0355C41.479 79.7003 41.4061 79.2012 41.3172 78.8359C41.1855 78.3138 41.0186 77.8008 40.8176 77.3012C40.4343 76.3442 39.9714 75.4915 39.5407 74.5633C38.6011 72.5389 37.9089 70.7328 37.4429 68.5552C37.367 69.1883 37.3947 69.9884 37.4155 70.6673C37.4377 71.3951 37.6423 72.3817 37.5716 73.1239C37.5666 73.176 37.5346 73.1742 37.4773 73.1993C37.2565 73.1162 37.0287 72.8696 36.8692 72.6975C34.1823 69.7921 33.1517 65.6305 33.5274 61.7537C33.6371 60.6229 33.8744 59.5244 34.1103 58.4269C33.3818 59.7284 32.8352 61.4415 32.3801 62.8535C32.1917 63.4385 31.8885 64.1798 31.7894 64.7674C31.6747 64.1721 31.5315 63.5813 31.4503 62.9847C31.0897 60.3385 31.6142 57.8621 32.5575 55.388C30.4347 58.1923 29.5356 62.0907 31.1698 65.311C31.2751 65.5186 31.3793 65.723 31.4909 65.9274C31.8073 65.5599 32.3822 64.4462 32.6589 63.9601C32.5526 65.6157 32.2133 67.2941 32.3808 68.9582C32.4074 69.2224 32.5185 70.0275 32.406 70.2085L32.2975 70.2328C32.0833 70.1645 31.9948 70.0877 31.8339 69.9287C29.8964 68.0103 28.6229 65.2149 28.0747 62.5741C27.8119 61.3085 27.7592 60.157 27.7368 58.8869C26.8668 59.8358 26.2853 60.9046 25.6188 61.9977C25.4649 62.2502 24.9187 63.2031 24.6093 63.1402C24.2837 62.6927 24.2265 61.676 24.1839 61.1153C23.9735 58.342 24.4547 55.9092 25.2822 53.2755C24.8908 53.6547 22.3102 56.4267 22.0343 56.4393L21.9621 56.3593C21.9249 56.141 21.9434 55.8665 21.9743 55.6481C22.4923 51.9881 24.9384 47.1561 27.8578 44.8764C27.0263 45.151 23.7518 45.8872 23.2354 45.1515L23.2598 45.0507C23.5663 44.7748 24.421 44.2766 24.8276 43.9825C26.1629 43.0168 27.4317 41.9859 28.8686 41.1754C29.3247 40.918 29.7132 40.652 30.2103 40.4593C29.6357 40.464 26.066 40.1969 26.2623 39.4667C26.7305 39.2334 27.4026 39.0635 27.9071 38.8795C28.7232 38.5818 29.5375 38.2814 30.3479 37.9679C31.9356 39.3718 33.5068 40.58 35.7078 40.8084L35.4804 40.6843C32.3547 38.962 29.1744 36.0811 28.2279 32.5454C27.261 28.9336 28.2881 24.7935 30.0564 21.6083C31.7879 18.5429 34.2778 15.9736 37.2875 14.1468C38.0716 13.6736 38.7757 13.268 39.6637 13.0132Z" fill="#000100"/>
<path d="M69.9823 49.5623C70.0268 49.6554 70.1948 50.86 70.2465 51.0956C70.5798 52.617 71.0906 54.1821 71.849 55.5466C72.2951 56.3575 72.9214 56.9833 73.5216 57.6631C74.1039 58.3222 75.2163 58.8303 75.5613 59.5842C76.0223 60.5919 74.51 61.1243 73.9678 61.7195C73.5369 62.1926 73.3302 62.5166 73.0495 63.1186C73.0894 62.0354 73.3343 61.6432 73.8258 60.7051C73.5697 60.7532 72.9169 60.9598 72.6334 61.0537C71.6351 61.3835 70.7285 60.9032 69.7518 60.5371C69.8628 60.772 69.9863 61.118 70.0533 61.3597C70.2339 62.0111 70.1445 62.3939 69.8116 62.9452C68.5886 64.9709 68.6893 64.9858 66.3832 65.5437C65.1917 65.8322 63.8012 66.1327 62.6533 65.479C62.0252 65.1214 61.6829 64.5401 61.5162 63.8626C61.6712 63.3792 61.9727 62.9038 62.2189 62.4532C60.7489 63.2188 60.4168 63.9354 59.8135 65.4139C59.6913 64.5342 60.1361 62.5812 60.54 61.7649C60.6891 61.4635 61.2965 60.4921 61.2808 60.3088C61.1519 60.2949 61.1537 60.3309 61.013 60.4221C60.2398 60.9342 59.7043 61.4666 59.1328 62.1841C59.4222 61.0025 59.9173 59.8811 60.5961 58.8716C59.6922 59.302 59.0973 59.8465 58.3655 60.5056C58.396 58.7917 58.9626 57.5247 60.0125 56.1949C60.3104 55.8179 60.8356 55.1319 61.0548 54.7221L61.0827 54.6691C61.2543 55.2864 61.3298 56.2717 61.3716 56.9182C62.1344 55.8013 62.337 54.3946 61.9206 53.1081C61.5216 51.8977 61.2565 51.8917 61.1047 50.4583C61.9188 51.7044 62.4157 52.3488 63.8992 52.8455C63.3138 51.5781 63.1951 51.1155 63.32 49.7423C64.6526 51.8217 66.323 53.2688 68.754 53.9162C68.3119 52.8711 67.9116 51.7371 67.8388 50.6035C68.4669 51.5893 68.8906 52.0244 69.8358 52.6533C69.6646 51.5097 69.657 50.666 69.9823 49.5623Z" fill="white"/>
<path d="M64.9079 59.1197C65.8114 59.0253 66.9759 59.4377 67.7083 59.9531C68.5668 60.5573 69.6392 61.601 69.1729 62.7601C69.1545 62.8059 69.0606 62.7916 69.0165 62.7929C68.5286 62.5826 67.768 62.2322 67.2469 62.3594C65.2948 62.8347 64.5678 61.1135 64.6896 59.4908C64.704 59.3007 64.7489 59.2387 64.9079 59.1197Z" fill="#000100"/>
<path d="M65.8561 56.787C67.5849 56.6927 69.1883 57.8491 70.7248 58.4686C71.6701 58.8492 72.3036 58.7849 73.2111 58.3765C72.4132 59.2495 71.8732 59.5128 70.683 59.3362C69.9467 59.156 69.3811 58.8883 68.7098 58.5464C66.6522 57.4987 65.418 57.1599 63.1708 57.8729C64.1533 57.181 64.6345 56.8908 65.8561 56.787Z" fill="#000100"/>
<path d="M59.0768 33.3329C61.3043 32.8267 62.357 32.7112 64.6145 33.2957C63.9914 33.3934 63.2789 33.5139 62.6755 33.6876C65.8375 34.2858 68.454 36.0888 70.6276 38.3944C70.9879 38.7767 71.3284 39.1887 71.6892 39.5622C70.8918 39.2507 70.4088 39.1131 69.6392 38.6784C69.145 38.3991 68.4985 37.9025 68.0429 37.6744C69.2645 38.9368 69.9905 40.0154 70.8554 41.5622C71.8132 43.2758 72.8447 45.488 74.184 46.9486C72.9067 46.4564 72.0293 45.9184 71.0593 44.9228C71.022 47.0142 71.1348 48.1204 72.0599 50.0476C70.5611 48.6838 70.1433 47.5248 69.7785 45.6106C69.3948 47.1273 69.2699 47.8644 68.5295 49.2772C69.0098 45.563 68.3273 42.4645 65.5355 39.7868C66.8658 42.5765 67.0455 43.2153 67.1367 46.2898C66.8721 45.4078 66.5734 44.4519 66.169 43.6232C65.3293 41.903 63.8189 40.244 62.2999 39.0879C61.5501 38.5171 60.8074 38.0966 60.0324 37.4836C61.3766 39.758 61.861 41.4139 61.7374 44.099C61.7042 44.8259 61.6413 45.6438 61.458 46.3507C61.4472 46.3931 61.4355 46.4352 61.4238 46.4773C60.3734 41.9742 57.0225 41.6963 55.7187 37.8567C55.0209 39.7316 55.0796 40.9942 55.8947 42.8712C54.3909 41.7361 52.9249 40.6066 52.1411 38.824C51.4255 37.1966 51.5545 36.1066 52.5092 34.653C52.1681 37.0245 52.7905 38.1608 54.2319 39.9648C53.6802 37.798 54.2364 36.2033 55.4993 34.4158C56.4777 35.7341 57.1573 36.5178 58.6967 37.2627C58.4443 36.6897 58.252 36.0767 58.0664 35.4782C60.7921 36.4391 62.1373 37.1947 64.2394 39.118C63.1787 37.2113 62.0299 36.0068 60.1236 34.9023C59.8361 34.7355 59.4228 34.4953 59.1155 34.3924L59.1285 34.3653C59.4816 34.3847 59.8015 34.5003 60.1416 34.5679C61.7482 34.8874 63.7551 35.5853 65.1249 36.5088L65.2876 36.4152C63.7457 34.6779 61.3838 33.5506 59.0768 33.3329Z" fill="white"/>
<path d="M65.2874 36.4152L65.7605 36.932L65.1248 36.5088L65.2874 36.4152Z" fill="#000100"/>
<path d="M37.4848 15.2549C37.487 15.266 37.5075 15.3418 37.5036 15.3488C35.502 18.9183 34.0064 23.0764 34.5878 27.2251C34.8117 28.8228 35.5709 30.8402 36.5678 32.1284C38.5248 34.6571 41.6951 36.1237 44.819 36.5252C45.6825 36.6362 46.6002 36.6436 47.4663 36.6403C46.2288 37.3641 45.5149 37.4588 44.1137 37.4463C45.344 37.9096 46.7912 37.8757 48.0701 37.6825C46.5914 38.3568 45.7916 38.568 44.2 38.4943C45.826 39.1462 46.8602 38.9276 48.4462 38.9052C45.424 39.8381 43.2617 39.4528 40.3525 38.4407C40.2405 38.3991 40.1293 38.3558 40.0187 38.3109C36.7893 36.997 34.2266 34.9173 32.8418 31.6558C33.0227 32.9776 33.597 34.2092 34.2176 35.3684C32.0269 33.236 31.1484 30.3382 31.2668 27.3456C31.3803 24.4739 32.2914 22.2506 33.7094 19.7958C32.6003 20.7909 31.6844 22.1057 31.0269 23.4317C30.8092 23.8708 30.6386 24.3222 30.407 24.7519L30.4189 24.6951C31.3591 20.3542 33.8352 17.5957 37.4848 15.2549Z" fill="white"/>
<path d="M79.9845 22.3631C82.5139 25.1622 84.3034 28.9527 84.2014 32.8059C84.0702 37.748 80.4284 41.1489 75.8593 42.4523L75.689 42.3584C77.1784 41.8264 78.1465 41.1777 79.4 40.216C78.9152 40.3578 78.4619 40.6873 77.9992 40.8946C76.694 41.4793 75.3013 41.8455 73.8798 42.0001C73.586 42.032 73.227 42.0682 72.9435 42.1212C72.6735 41.693 72.3968 41.2692 72.1133 40.8499C72.5895 41.0321 73.7064 41.4164 74.2707 41.3294C74.365 41.3149 74.3825 41.2191 74.4028 41.1503C74.3035 40.7019 73.4463 39.9681 73.1246 39.5412C72.8757 39.2112 72.727 39.0483 72.4925 38.6616C75.5812 38.0093 77.5171 36.6813 79.3295 34.0612C81.1984 31.3599 81.1764 27.6817 80.5061 24.5474C80.3439 23.8165 80.1705 23.0883 79.9845 22.3631Z" fill="white"/>
<path d="M82.5616 31.2289L82.6078 31.2665C82.7884 31.6244 82.8033 33.4221 82.7835 33.838C82.677 36.0431 81.1967 37.2776 79.6323 38.631C79.5865 38.6767 79.6161 38.6563 79.5366 38.6806C79.5505 38.5923 80.1171 37.7597 80.2195 37.5908C81.7282 35.096 82.3136 34.1521 82.5616 31.2289Z" fill="#000100"/>
<path d="M38.4109 41.1098C40.6394 41.1334 42.6945 42.1097 44.7108 42.9706C43.0015 43.0056 41.2646 42.5327 39.5951 42.5423C37.4734 42.5546 35.7191 43.2514 34.2452 44.7672C35.067 44.7657 36.5121 44.867 37.2791 45.1184C36.9168 45.4523 36.2703 45.8329 35.836 46.1118C36.7079 46.2855 37.4436 46.4247 38.2911 46.6812C38.0484 46.8444 37.8834 46.9836 37.6588 47.1724C38.1953 47.4559 38.6346 47.5649 39.2089 47.7456C39.449 48.0441 39.5197 48.1686 39.8342 48.3843C39.953 48.4417 40.0735 48.4957 40.1956 48.5458C41.2966 48.9906 42.5171 48.5031 43.5477 48.0761C40.3192 51.2188 36.5137 48.831 33.6495 46.5531C34.0882 46.3477 34.6055 46.0633 35.0431 45.8379C34.2992 45.7454 33.2522 45.7197 32.5895 45.3805C32.0317 45.095 33.3098 43.7511 33.5766 43.4333C34.8899 41.8681 36.3826 41.2302 38.4109 41.1098Z" fill="white"/>
<path d="M47.7127 47.9075L47.7592 47.9854C47.5421 49.6166 47.5082 50.7832 47.7363 52.4127C47.8729 53.3887 47.64 54.6103 47.379 55.569C48.884 54.196 49.3885 53.0639 49.9187 51.1536C50.0076 51.6207 50.088 52.2528 50.0349 52.7214C49.819 54.6278 49.0874 55.7388 49.6569 57.7201C50.0721 57.3081 50.3836 56.7847 50.7585 56.3332C51.1632 55.8458 51.5892 55.4163 51.9952 54.9257C51.071 57.1976 50.5444 59.2795 50.8918 61.7528C50.9871 62.4307 51.0785 62.9716 51.3224 63.6249C50.17 62.3912 49.7447 61.361 49.4486 59.6996C49.3955 59.1371 49.2538 58.4349 49.1416 57.8828C48.4236 59.7207 48.3606 60.639 48.6475 62.6181C48.4584 62.3552 48.2773 62.1064 48.1114 61.8278C46.7305 59.51 48.3242 57.4272 48.8728 55.2294C47.5875 56.3557 47.0361 57.2187 45.2429 57.6765C46.4758 56.1382 46.7771 54.1929 46.8017 52.2865C46.0984 53.3775 45.7668 53.7679 44.7765 54.6049C45.0685 53.9422 45.4922 53.1883 45.7467 52.5258C46.3749 50.8907 46.9121 49.4795 47.7127 47.9075Z" fill="white"/>
<path d="M42.3719 51.2895C42.365 51.38 41.9594 52.2731 41.8777 52.4578C41.5446 53.2104 41.3949 53.9576 41.1328 54.724C41.8135 54.0357 42.5207 53.3744 43.253 52.7418C41.9779 55.1405 41.8246 58.1578 42.5803 60.7339C42.6845 61.0888 42.8033 61.5714 42.9944 61.8773L43.055 61.8634C43.15 60.4581 43.625 59.2603 44.2536 58.0284C44.0939 60.0124 43.951 61.1854 43.9652 63.2143C44.0079 64.0087 44.0731 64.8843 44.0586 65.6732C41.2965 62.4384 40.4261 59.5025 41.7423 55.3189C41.3967 55.6828 39.891 57.7503 39.5493 57.5616C39.4714 57.3163 39.6713 56.5948 39.7238 56.3198C40.1148 54.2734 40.9259 52.7831 42.3719 51.2895Z" fill="white"/>
<path d="M69.3696 66.7164C69.3974 66.7123 69.4253 66.7092 69.4531 66.7069C70.4051 66.6189 71.0898 66.8588 71.8091 67.4581C71.7813 67.5682 71.7525 67.6778 71.7224 67.7874C71.3239 69.2242 70.265 69.9902 69.0151 70.7018C69.3224 70.2108 69.4275 69.9125 69.543 69.3509C69.1081 69.4196 68.5528 69.6326 68.1264 69.7885C67.3443 70.0738 66.855 70.2211 66.0306 70.324C66.346 70.0751 66.6843 69.7454 66.9826 69.4681C66.5198 69.5917 66.1775 69.6672 65.7058 69.7534C65.4016 69.7602 65.194 69.7817 64.8903 69.8195C65.0714 69.6816 65.496 69.4021 65.5121 69.1802C65.2951 69.1272 64.6774 69.2022 64.3575 69.1833C63.8602 69.1537 63.5385 69.0975 63.0501 69.0135C63.8961 68.8302 63.9541 68.872 64.8153 68.4505C63.7061 68.4209 62.7711 68.3863 62.3241 67.2169C64.3894 68.243 67.1025 66.9648 69.3696 66.7164Z" fill="white"/>
<path d="M29.2145 48.3142C29.2149 48.3565 28.624 49.8645 28.5484 50.061C27.9857 51.5232 28.0345 52.9011 27.8549 54.4131C28.3113 53.909 28.7234 53.3869 29.1982 52.8824C30.0929 51.9321 30.9753 51.2091 32.0064 50.4227C31.2097 51.6724 30.5712 52.6354 29.6617 53.8191C28.4741 55.2766 27.4105 56.8436 26.2102 58.2453C26.1851 57.2781 26.1534 56.3512 26.242 55.3857C26.4801 52.7912 27.4641 50.261 29.2145 48.3142Z" fill="white"/>
<path d="M55.5361 59.4584C55.623 59.5666 55.3995 60.6916 55.3676 60.9167C55.0451 63.1887 55.4857 64.3047 56.0162 66.3587C56.551 64.3909 56.6214 63.5369 57.6873 61.663C57.3191 63.2206 57.2466 64.7018 57.6514 66.2594C57.872 67.0025 58.0584 67.4707 58.3913 68.1661C57.5207 67.4374 57.2491 67.149 56.6748 66.1494C56.4193 66.7137 56.3123 67.3238 56.0207 67.8566C53.9481 64.8829 53.9616 62.6284 55.5361 59.4584Z" fill="white"/>
<path d="M50.9453 46.6862C51.2876 46.7985 51.6322 46.9037 51.9788 47.0016C52.046 48.3193 52.3685 49.2305 53.8939 49.4278C54.6899 49.5307 55.2392 49.1387 55.832 48.6506C56.5187 49.1885 56.7101 49.6538 57.0062 50.4502C57.0482 50.6366 57.1135 50.847 57.166 51.0333C56.1387 50.6998 55.5445 50.7536 54.4968 50.7786C53.5922 50.8002 52.5073 50.612 51.8536 49.9337C50.9256 48.9708 50.9362 47.915 50.9453 46.6862Z" fill="white"/>
<path d="M45.7303 64.213C45.7755 64.2539 45.7982 64.2925 45.8057 64.3572C45.8846 65.0468 45.9901 65.7365 46.2046 66.3996C46.4836 67.2622 47.0601 67.9734 47.5232 68.7439C47.4578 67.419 47.4483 66.7954 47.7802 65.4984C47.9362 66.7765 47.6961 67.0924 48.2423 68.5529C48.548 69.3127 48.9307 69.93 49.4101 70.589C48.1729 70.1101 47.4156 69.7058 46.5762 68.6073C45.741 67.5147 45.5041 65.5568 45.7303 64.213Z" fill="white"/>
<path d="M74.5537 62.8418C75.0794 62.8221 75.2258 62.8908 75.7272 63.0638C75.4478 64.2072 74.5986 65.165 73.6457 65.8155L73.2059 66.0348C73.0055 65.9836 72.7858 65.9382 72.66 65.7742C72.6906 65.5177 72.8887 65.3088 72.9673 65.0716C73.2796 64.1258 73.4013 63.0835 74.5537 62.8418Z" fill="white"/>
<path d="M63.0646 41.8358C63.1329 41.87 63.1356 41.8724 63.1872 41.9276C64.8388 43.689 64.332 46.1279 64.2071 48.3131L64.1666 48.3853L64.1145 48.3783C63.0947 46.6443 63.3252 46.1456 63.3184 44.2855C63.3198 43.4623 63.2344 42.6412 63.0646 41.8358Z" fill="white"/>
<path d="M44.8599 72.6656C44.8885 72.6844 44.9158 72.7015 44.9395 72.7267C46.3795 74.2793 47.4855 76.8128 47.6445 78.883C47.527 78.7999 47.2136 78.2019 47.1241 78.0339C46.1816 76.2602 45.3252 74.6271 44.8599 72.6656Z" fill="white"/>
<path d="M57.608 72.9284L57.6637 72.9931C57.6943 73.2398 57.6327 73.8014 57.6035 74.066C57.3928 75.9444 56.1156 77.5672 54.6825 78.7155C54.9268 78.1292 55.1582 77.6521 55.3897 77.042C55.7213 76.134 55.6925 74.9663 55.7082 73.9928C56.0105 74.8895 56.1561 75.5958 56.0443 76.5388C57.007 75.1465 57.2247 74.5795 57.608 72.9284Z" fill="white"/>
<path d="M57.0681 41.9403C57.5308 42.2822 58.1158 42.8374 58.4806 43.2751C59.8333 44.8986 59.9663 46.2567 59.8149 48.2448L59.7453 48.2326C59.367 46.3522 59.132 45.571 58.0991 43.9111C57.8529 43.5159 57.2038 42.3693 57.0681 41.9403Z" fill="white"/>
<path d="M45.369 44.0439L45.4096 44.084C45.3961 44.2226 45.025 44.7244 44.9139 44.9545C44.6566 45.4875 44.5206 45.868 44.3793 46.4427C44.7725 45.884 45.0324 45.5474 45.4798 45.0422C45.0087 46.2856 44.863 46.7573 44.6042 48.0869C44.5432 48.3255 44.5147 48.5617 44.4799 48.8052C44.236 48.2029 44.0167 47.7242 43.8765 47.0794C43.6381 47.1203 43.395 47.1565 43.1558 47.1942C43.7478 45.8721 44.3712 45.067 45.369 44.0439Z" fill="white"/>
<path d="M59.761 76.3487L59.8041 76.4255C59.5651 78.0609 57.6679 80.5058 56.5278 81.7638C56.4246 81.669 56.4973 81.408 56.5363 81.2808C57.1218 79.366 58.7457 78.0223 59.761 76.3487Z" fill="white"/>
<path d="M39.6853 62.5426C39.7174 62.5678 39.7677 62.6078 39.7714 62.6545C39.8631 63.7871 40.0765 64.9188 40.4091 66.0043C40.5815 66.5668 41.6528 68.7628 41.3038 69.2255C39.7381 67.0511 39.3479 65.1785 39.6853 62.5426Z" fill="white"/>
<path d="M36.9759 55.9024C37.0378 56.1463 36.9728 56.7924 36.9436 57.0476C36.9036 57.3904 36.8431 57.73 36.7624 58.0656C36.5808 58.8352 36.3155 59.6363 36.114 60.4059C36.0343 60.71 35.7188 62.1526 35.5671 62.2721C35.1316 59.9018 36.203 58.0126 36.9759 55.9024Z" fill="white"/>
<path d="M63.8798 74.5921C63.9243 74.7871 63.8974 75.3298 63.8929 75.5553C63.8578 77.2464 63.3268 78.3098 62.4575 79.7003C62.6403 78.8853 62.6785 78.1045 62.6942 77.2729C62.6713 76.3483 62.4525 75.3945 62.1699 74.5184C62.7347 75.279 63.0842 76.0652 63.2298 76.9975C63.4068 76.3299 63.6826 75.1757 63.8798 74.5921Z" fill="white"/>
<path d="M52.6039 45.5077C53.4232 45.3714 54.3218 45.5804 54.9958 46.0618C55.5362 46.4478 55.8231 46.9498 56.144 47.5098L55.6194 47.1192C55.1209 46.8082 54.4801 46.4863 53.9078 46.3488C52.9157 46.1105 52.6662 46.2854 51.803 45.6688C52.1042 45.5911 52.2958 45.5545 52.6039 45.5077Z" fill="white"/>
<path d="M48.8058 33.291C49.214 33.2643 49.6067 33.2786 50.0148 33.2875C49.4902 33.4752 48.9466 33.6252 48.4285 33.8231C47.6727 34.1119 46.9167 34.4441 46.1729 34.7648L45.2794 35.1024C46.1778 34.0671 47.441 33.4182 48.8058 33.291Z" fill="white"/>
<path d="M65.3149 46.6472C65.478 47.8001 65.5593 48.4878 65.9654 49.6192C66.0687 49.9061 66.6213 51.2932 66.6501 51.4409L66.5926 51.4399C65.8266 50.5711 65.2066 49.7569 65.1226 48.5507C65.083 47.9772 65.1149 47.1868 65.3149 46.6472Z" fill="white"/>
<path d="M58.3539 54.6885C58.3956 54.8201 58.3435 55.2119 58.3211 55.3619C58.1315 56.6334 57.0246 57.3859 55.9373 57.7974C55.902 57.6748 56.2021 57.4542 56.3052 57.3616C57.1794 56.5759 57.8174 55.7267 58.3539 54.6885Z" fill="white"/>
<path d="M53.6353 71.8412C53.8162 72.0024 53.8786 72.3866 53.8915 72.6283C53.9482 73.6922 53.3346 74.4555 52.6656 75.1972L52.5834 75.2417C52.5786 75.0885 52.9449 74.402 53.0264 74.1913C53.3378 73.3875 53.5458 72.7065 53.6353 71.8412Z" fill="white"/>
<path d="M51.0046 40.0519C51.047 40.1692 50.8869 40.9278 50.8493 41.107C50.6831 41.8995 50.8086 42.4477 50.8194 43.16L50.7817 43.1667L50.7026 43.0229C50.1581 41.7649 49.9776 41.123 51.0046 40.0519Z" fill="white"/>
<path d="M53.1 47.0086C53.3124 46.9403 53.5414 47.0482 53.6239 47.2555C53.7064 47.4628 53.6141 47.6985 53.4129 47.7947C53.2701 47.8631 53.1011 47.8461 52.9747 47.7508C52.8483 47.6555 52.7855 47.4977 52.8118 47.3416C52.8382 47.1855 52.9494 47.0571 53.1 47.0086Z" fill="white"/>
<path d="M75.8592 42.4523C75.6682 42.5041 75.3699 42.5981 75.1875 42.5331C75.2886 42.4371 75.5406 42.3955 75.6889 42.3583L75.8592 42.4523Z" fill="#BCBCBB"/>
</svg>
