<svg width="83" height="95" viewBox="0 0 83 95" fill="none" xmlns="http://www.w3.org/2000/svg">
<path d="M22.7942 0L22.9028 0.0765068C22.9294 0.444653 22.0726 1.73481 21.8655 2.1411C18.6173 8.51267 15.463 17.4149 20.488 23.7489C21.0656 24.4769 21.6637 25.0429 22.3486 25.6743C22.7761 25.3901 23.6811 24.9832 24.1618 24.7554C27.059 23.3826 29.4415 22.8158 32.6334 22.7777C31.8505 22.4092 31.1284 22.1133 30.3063 21.8379C29.8164 21.6739 27.6807 21.1912 27.5442 20.8381C27.6456 20.6623 27.8555 20.5812 28.0521 20.5202C31.1786 19.55 34.4942 19.5528 37.6018 20.5881C38.9922 21.0513 40.1477 21.6366 41.4332 22.2685C41.0164 21.4339 40.3564 20.7184 39.7084 20.0559C39.4866 19.8291 38.6414 19.1024 38.5745 18.8631L38.6516 18.7477C39.0853 18.5711 40.1614 18.7986 40.6071 18.9199C43.3405 19.6637 45.6221 21.0741 47.071 23.53C47.3281 23.0886 47.5673 22.6297 47.8279 22.1934C48.0545 21.8155 48.4867 20.8464 49.0206 21.1463C49.3939 21.7034 49.3419 23.224 49.2962 23.9126C51.4984 23.0959 54.5922 23.0484 56.7753 23.7636C57.5728 24.0249 59.7454 24.7567 60.1153 25.4457L60.0887 25.5299C59.7691 25.6265 59.4022 25.657 59.0694 25.6848C58.1986 25.7576 57.3445 25.8824 56.48 26.0106C59.6836 26.9569 62.0701 28.9032 64.1677 31.4215C65.1709 31.1534 66.044 31.0299 67.0269 30.5995C74.9636 27.1259 74.5695 18.3543 72.7678 11.2719C72.621 10.6953 71.7375 8.34573 71.8514 8.06686C72.0183 8.03924 72.2171 8.12944 72.3483 8.22658C79.8118 13.7619 85.1967 25.9211 80.0365 34.58C77.6974 38.5052 72.2275 41.4347 67.9624 42.4664C68.5166 43.4365 69.2429 44.3895 69.9589 45.2491C70.4339 45.8189 70.9759 46.3311 71.374 46.9579L71.3394 47.0527C70.4512 47.6099 67.8342 46.6112 66.9448 46.1298C68.3473 47.9673 70.1317 52.5598 65.7972 49.5317C66.9587 51.3355 67.4227 54.1725 64.3873 51.7514C65.3633 53.8484 66.163 55.2242 67.9168 56.7838C68.6847 57.4674 70.3559 58.8525 70.4894 59.9134C70.8158 62.5022 69.7671 65.7248 68.4617 67.9634C67.8191 69.0076 66.916 69.7582 65.7458 69.998C65.3991 73.6327 62.0534 75.5072 58.8654 76.3116C58.6435 77.3026 58.3823 78.4011 58.9787 79.3204C59.152 79.5874 59.5975 79.9751 59.4016 80.2866C59.1069 80.3819 58.6903 80.234 58.3956 80.1421C57.0296 79.7139 56.2038 78.7645 55.5803 77.5152C56.0761 82.6754 54.238 86.7602 50.0925 89.8731C49.688 90.177 48.5901 90.934 48.0596 90.8508C47.9279 90.6647 48.3185 90.062 48.4578 89.8153C49.5199 87.9367 49.7406 86.1425 49.7868 84.0131C48.4196 87.7304 46.7318 91.4523 43.0351 93.4991C42.7765 93.6418 42.4425 93.8123 42.1632 93.7215C42.1181 93.4644 42.6256 92.7981 42.7955 92.5445C43.149 91.9637 43.4059 91.3021 43.6641 90.6728C41.5459 92.7276 38.7894 94.4473 35.7662 94.7617C35.4736 94.7923 34.8662 94.7877 34.6424 94.5906C34.6571 94.4779 34.6559 94.4265 34.7745 94.3537C38.8584 91.8528 39.1985 87.3612 38.3261 82.995C38.1175 85.6906 36.9486 89.3571 34.9915 91.2593C34.6364 91.6043 33.7954 92.3567 33.2493 92.3515C33.1345 92.3468 32.975 92.2631 32.9717 92.1313C32.9368 90.7006 33.0455 89.5605 32.7381 88.1291C32.0582 84.9637 30.0072 82.6078 27.8805 80.3114C27.8744 80.4883 27.8579 80.6639 27.8313 80.8384C27.5563 82.6575 26.8382 85.0769 25.2988 86.2032C25.129 85.7721 25.0352 85.1301 24.9209 84.6603C24.7516 83.9889 24.5369 83.329 24.2783 82.6864C23.7853 81.4556 23.1899 80.3588 22.6359 79.165C21.4275 76.5612 20.5371 74.2383 19.9378 71.4374C19.8402 72.2516 19.8759 73.2808 19.9026 74.1539C19.9312 75.09 20.1943 76.359 20.1034 77.3136C20.0969 77.3806 20.0558 77.3783 19.9821 77.4106C19.6981 77.3037 19.4051 76.9865 19.1999 76.7652C15.7441 73.0283 14.4185 67.6757 14.9018 62.6894C15.0429 61.235 15.3481 59.8221 15.6515 58.4105C14.7145 60.0845 14.0115 62.2878 13.4261 64.104C13.1837 64.8563 12.7939 65.8098 12.6663 66.5656C12.5189 65.8 12.3347 65.0401 12.2302 64.2727C11.7665 60.8692 12.441 57.6841 13.6542 54.5019C10.924 58.1088 9.76752 63.1228 11.8694 67.2648C12.0049 67.5318 12.1389 67.7947 12.2825 68.0576C12.6894 67.5849 13.4288 66.1525 13.7848 65.5272C13.648 67.6566 13.2115 69.8154 13.4271 71.9558C13.4613 72.2955 13.6041 73.331 13.4595 73.5639L13.3199 73.5951C13.0444 73.5073 12.9306 73.4085 12.7236 73.2039C10.2316 70.7365 8.59368 67.1411 7.88853 63.7446C7.55061 62.1168 7.48277 60.6358 7.45399 59.0022C6.33493 60.2226 5.58702 61.5973 4.72985 63.0032C4.53188 63.3279 3.82933 64.5536 3.43142 64.4727C3.01266 63.8971 2.93904 62.5894 2.88432 61.8683C2.61371 58.3012 3.23259 55.1722 4.29692 51.7849C3.7935 52.2726 0.474291 55.8379 0.119435 55.8541L0.026575 55.7512C-0.0212708 55.4704 0.00259448 55.1173 0.0422926 54.8365C0.708608 50.1289 3.8547 43.9141 7.60961 40.982C6.54018 41.3353 2.32849 42.2821 1.66431 41.3358L1.69569 41.2062C2.08989 40.8514 3.18925 40.2106 3.7122 39.8323C5.42962 38.5902 7.06157 37.2643 8.9097 36.2218C9.49633 35.8908 9.996 35.5486 10.6353 35.3007C9.89626 35.3069 5.30503 34.9633 5.5575 34.0241C6.15961 33.724 7.02413 33.5055 7.67299 33.2689C8.72271 32.8859 9.77006 32.4996 10.8123 32.0963C12.8544 33.9021 14.8752 35.456 17.7062 35.7498L17.4136 35.5902C13.3934 33.375 9.30293 29.6696 8.08558 25.122C6.84199 20.4766 8.16301 15.1517 10.4374 11.0549C12.6644 7.11214 15.8669 3.80755 19.7379 1.45802C20.7465 0.849319 21.6521 0.327697 22.7942 0Z" fill="#000100"/>
<path d="M61.79 47.009C61.8472 47.1287 62.0634 48.6781 62.1298 48.9812C62.5586 50.938 63.2156 52.951 64.191 54.7059C64.7648 55.7489 65.5703 56.5538 66.3423 57.4281C67.0912 58.2758 68.5219 58.9294 68.9657 59.899C69.5586 61.1951 67.6136 61.8799 66.9161 62.6455C66.362 63.254 66.0961 63.6706 65.735 64.4449C65.7864 63.0517 66.1013 62.5473 66.7335 61.3407C66.4041 61.4026 65.5645 61.6684 65.1999 61.7891C63.9159 62.2133 62.7498 61.5956 61.4936 61.1246C61.6363 61.4268 61.7952 61.8718 61.8813 62.1827C62.1136 63.0205 61.9986 63.5129 61.5704 64.2219C59.9975 66.8274 60.127 66.8465 57.1609 67.5642C55.6284 67.9351 53.84 68.3217 52.3636 67.4809C51.5558 67.021 51.1155 66.2732 50.9011 65.4018C51.1004 64.7801 51.4882 64.1687 51.8048 63.5891C49.9141 64.5738 49.4871 65.4955 48.711 67.3972C48.5539 66.2657 49.1259 63.7538 49.6454 62.7039C49.8373 62.3161 50.6185 61.0668 50.5983 60.8311C50.4324 60.8132 50.4348 60.8594 50.2539 60.9767C49.2594 61.6354 48.5706 62.3202 47.8356 63.243C48.2077 61.7233 48.8445 60.281 49.7176 58.9825C48.555 59.5361 47.7899 60.2365 46.8486 61.0842C46.8879 58.8797 47.6166 57.2502 48.967 55.5397C49.3501 55.0549 50.0256 54.1725 50.3076 53.6455L50.3435 53.5774C50.5642 54.3713 50.6613 55.6385 50.715 56.4701C51.6962 55.0335 51.9568 53.2243 51.4211 51.5695C50.908 50.0128 50.5671 50.0051 50.3718 48.1615C51.4188 49.7642 52.0579 50.593 53.966 51.2319C53.213 49.6017 53.0605 49.0067 53.2211 47.2405C54.935 49.915 57.0835 51.7762 60.2102 52.6089C59.6416 51.2648 59.1267 49.8062 59.0331 48.3482C59.8409 49.6162 60.3859 50.1757 61.6017 50.9847C61.3815 49.5137 61.3717 48.4285 61.79 47.009Z" fill="white"/>
<path d="M55.2631 59.3015C56.4251 59.1802 57.9229 59.7106 58.8648 60.3734C59.9691 61.1506 61.3484 62.493 60.7486 63.9838C60.7249 64.0428 60.6041 64.0243 60.5475 64.026C59.92 63.7556 58.9417 63.3049 58.2714 63.4684C55.7606 64.0797 54.8257 61.866 54.9823 59.7788C55.0007 59.5344 55.0585 59.4547 55.2631 59.3015Z" fill="#000100"/>
<path d="M56.483 56.3013C58.7065 56.18 60.7689 57.6674 62.7451 58.4642C63.9609 58.9537 64.7757 58.871 65.9429 58.3458C64.9167 59.4685 64.2221 59.8071 62.6914 59.58C61.7443 59.3483 61.0168 59.0039 60.1535 58.5642C57.5069 57.2166 55.9196 56.7809 53.0292 57.698C54.2929 56.8081 54.9118 56.4348 56.483 56.3013Z" fill="#000100"/>
<path d="M47.7633 26.1349C50.6283 25.4839 51.9822 25.3353 54.8859 26.0871C54.0844 26.2128 53.1679 26.3677 52.3919 26.5911C56.4588 27.3606 59.8242 29.6796 62.6198 32.6449C63.0832 33.1366 63.5212 33.6666 63.9852 34.147C62.9596 33.7463 62.3384 33.5693 61.3485 33.0103C60.7129 32.6511 59.8814 32.0123 59.2954 31.7189C60.8666 33.3426 61.8004 34.7299 62.9128 36.7193C64.1447 38.9234 65.4715 41.7687 67.194 43.6473C65.5512 43.0142 64.4227 42.3223 63.1751 41.0417C63.1271 43.7317 63.2722 45.1544 64.462 47.6332C62.5343 45.8791 61.9969 44.3884 61.5277 41.9264C61.0342 43.8772 60.8735 44.8252 59.9212 46.6423C60.539 41.8652 59.6612 37.8799 56.0705 34.4359C57.7815 38.024 58.0126 38.8456 58.1299 42.8C57.7896 41.6655 57.4053 40.4361 56.8852 39.3702C55.8052 37.1578 53.8625 35.0239 51.9088 33.537C50.9444 32.8028 49.9892 32.262 48.9924 31.4735C50.7213 34.3988 51.3443 36.5286 51.1854 39.9822C51.1426 40.9171 51.0617 41.969 50.8259 42.8783C50.8121 42.9328 50.797 42.987 50.782 43.0411C49.431 37.2493 45.1211 36.8918 43.4442 31.9534C42.5467 34.3649 42.6221 35.9888 43.6705 38.403C41.7363 36.943 39.8508 35.4903 38.8427 33.1975C37.9223 31.1044 38.0883 29.7024 39.3161 27.8329C38.8774 30.8831 39.6779 32.3446 41.5318 34.6649C40.8223 31.8779 41.5377 29.8268 43.1619 27.5278C44.4204 29.2234 45.2945 30.2313 47.2745 31.1895C46.9497 30.4524 46.7024 29.664 46.4638 28.8943C49.9696 30.1302 51.6996 31.102 54.4034 33.5757C53.0391 31.1232 51.5615 29.574 49.1097 28.1535C48.7399 27.939 48.2083 27.63 47.813 27.4976L47.8298 27.4628C48.284 27.4877 48.6954 27.6364 49.1328 27.7234C51.1992 28.1343 53.7805 29.0319 55.5423 30.2197L55.7515 30.0993C53.7683 27.8649 50.7306 26.415 47.7633 26.1349Z" fill="white"/>
<path d="M55.7514 30.0993L56.3599 30.764L55.5422 30.2197L55.7514 30.0993Z" fill="#000100"/>
<path d="M19.9921 2.88324C19.995 2.89745 20.0213 2.995 20.0163 3.00389C17.4418 7.59506 15.5182 12.9431 16.2659 18.2791C16.5539 20.3341 17.5304 22.9289 18.8126 24.5856C21.3297 27.8381 25.4074 29.7244 29.4253 30.2408C30.5358 30.3836 31.7162 30.393 32.8301 30.3888C31.2385 31.3198 30.3203 31.4415 28.5182 31.4255C30.1005 32.0214 31.9618 31.9777 33.6067 31.7293C31.7049 32.5966 30.6762 32.8683 28.6291 32.7734C30.7204 33.6119 32.0506 33.3308 34.0905 33.302C30.2034 34.5018 27.4222 34.0063 23.6805 32.7045C23.5365 32.651 23.3933 32.5953 23.2511 32.5375C19.0976 30.8476 15.8014 28.1728 14.0203 23.9778C14.253 25.6779 14.9916 27.262 15.7898 28.7529C12.9722 26.0102 11.8423 22.2831 11.9945 18.4341C12.1405 14.7405 13.3124 11.881 15.1363 8.7236C13.7097 10.0035 12.5317 11.6945 11.686 13.4001C11.406 13.9648 11.1866 14.5455 10.8887 15.0981L10.904 15.025C12.1132 9.44181 15.298 5.89388 19.9921 2.88324Z" fill="white"/>
<path d="M74.6545 12.0257C77.9078 15.6259 80.2094 20.5011 80.0782 25.4571C79.9095 31.8135 75.2254 36.1877 69.3487 37.8642L69.1297 37.7433C71.0453 37.0591 72.2906 36.2248 73.9027 34.9878C73.2792 35.1703 72.6962 35.5941 72.101 35.8607C70.4224 36.6127 68.631 37.0837 66.8027 37.2825C66.4248 37.3236 65.9631 37.3701 65.5985 37.4383C65.2512 36.8875 64.8953 36.3425 64.5306 35.8032C65.1432 36.0375 66.5797 36.5318 67.3055 36.4199C67.4268 36.4013 67.4493 36.2781 67.4753 36.1895C67.3476 35.6128 66.2451 34.6691 65.8314 34.1199C65.5112 33.6955 65.32 33.4859 65.0183 32.9886C68.991 32.1496 71.481 30.4415 73.812 27.0716C76.2159 23.5973 76.1876 18.8664 75.3254 14.835C75.1168 13.8951 74.8938 12.9584 74.6545 12.0257Z" fill="white"/>
<path d="M77.969 23.4288L78.0285 23.4771C78.2608 23.9375 78.2799 26.2498 78.2545 26.7846C78.1175 29.6208 76.2135 31.2086 74.2015 32.9493C74.1425 33.0081 74.1806 32.9819 74.0784 33.0132C74.0963 32.8995 74.825 31.8287 74.9567 31.6114C76.8971 28.4026 77.65 27.1886 77.969 23.4288Z" fill="#000100"/>
<path d="M21.1832 36.1375C24.0495 36.1679 26.6927 37.4235 29.2861 38.5308C27.0876 38.5759 24.8537 37.9676 22.7063 37.98C19.9774 37.9958 17.721 38.8921 15.8254 40.8415C16.8824 40.8396 18.741 40.9699 19.7275 41.2934C19.2616 41.7228 18.43 42.2123 17.8714 42.571C18.9929 42.7944 19.9391 42.9735 21.0292 43.3034C20.717 43.5133 20.5048 43.6923 20.2159 43.9352C20.9059 44.2998 21.4709 44.44 22.2096 44.6724C22.5184 45.0564 22.6093 45.2165 23.0138 45.4938C23.1666 45.5677 23.3217 45.6371 23.4787 45.7016C24.8948 46.2736 26.4646 45.6467 27.7901 45.0975C23.6377 49.1395 18.743 46.0684 15.0592 43.1386C15.6234 42.8745 16.2888 42.5087 16.8516 42.2187C15.8948 42.0998 14.5481 42.0667 13.6958 41.6305C12.9783 41.2632 14.6223 39.5347 14.9654 39.1259C16.6546 37.1127 18.5744 36.2923 21.1832 36.1375Z" fill="white"/>
<path d="M33.1468 44.8806L33.2066 44.9809C32.9274 47.0789 32.8838 48.5792 33.1772 50.6752C33.3529 51.9305 33.0534 53.5016 32.7177 54.7348C34.6534 52.9689 35.3023 51.5127 35.9842 49.0557C36.0986 49.6565 36.202 50.4694 36.1337 51.0722C35.8559 53.5242 34.915 54.9532 35.6475 57.5015C36.1815 56.9716 36.5821 56.2984 37.0643 55.7177C37.5849 55.0907 38.1328 54.5383 38.655 53.9073C37.4663 56.8295 36.7889 59.5072 37.2358 62.6882C37.3583 63.5602 37.4759 64.2559 37.7896 65.0961C36.3074 63.5094 35.7604 62.1844 35.3796 60.0475C35.3113 59.324 35.1291 58.4208 34.9847 57.7107C34.0613 60.0746 33.9802 61.2558 34.3493 63.8012C34.1059 63.4631 33.8731 63.143 33.6597 62.7847C31.8835 59.8036 33.9333 57.1247 34.6389 54.2979C32.9858 55.7466 32.2767 56.8566 29.9702 57.4454C31.556 55.4669 31.9436 52.9648 31.9752 50.5128C31.0706 51.916 30.6441 52.4182 29.3704 53.4947C29.746 52.6424 30.2909 51.6727 30.6183 50.8206C31.4262 48.7175 32.1171 46.9026 33.1468 44.8806Z" fill="white"/>
<path d="M26.2778 49.2304C26.2689 49.3469 25.7473 50.4954 25.6421 50.733C25.2138 51.7011 25.0212 52.662 24.6841 53.6478C25.5596 52.7626 26.4692 51.912 27.4111 51.0983C25.7711 54.1835 25.5739 58.0643 26.5459 61.3777C26.6798 61.8342 26.8326 62.4548 27.0785 62.8483L27.1564 62.8304C27.2785 61.0229 27.8896 59.4824 28.698 57.8979C28.4927 60.4497 28.3088 61.9584 28.3271 64.568C28.3821 65.5896 28.4659 66.7158 28.4472 67.7305C24.8947 63.57 23.7751 59.7938 25.468 54.4129C25.0235 54.881 23.0868 57.5402 22.6474 57.2975C22.5472 56.982 22.8043 56.054 22.8718 55.7003C23.3747 53.0683 24.418 51.1515 26.2778 49.2304Z" fill="white"/>
<path d="M61.0019 69.0724C61.0377 69.0672 61.0735 69.0631 61.1093 69.0602C62.3338 68.947 63.2144 69.2555 64.1396 70.0264C64.1037 70.168 64.0668 70.309 64.0281 70.4499C63.5155 72.2979 62.1535 73.2831 60.5459 74.1984C60.9412 73.5669 61.0764 73.1832 61.2249 72.4609C60.6656 72.5493 59.9513 72.8232 59.403 73.0237C58.3969 73.3906 57.7677 73.5801 56.7073 73.7125C57.113 73.3923 57.5481 72.9682 57.9318 72.6117C57.3366 72.7706 56.8963 72.8677 56.2895 72.9786C55.8983 72.9873 55.6314 73.015 55.2407 73.0635C55.4736 72.8862 56.0197 72.5267 56.0405 72.2413C55.7614 72.1731 54.9668 72.2696 54.5554 72.2453C53.9157 72.2072 53.502 72.135 52.8739 72.0269C53.962 71.7911 54.0365 71.8449 55.1442 71.3029C53.7175 71.2647 52.515 71.2202 51.9401 69.7161C54.5964 71.0359 58.086 69.3919 61.0019 69.0724Z" fill="white"/>
<path d="M9.35483 45.4038C9.35529 45.4581 8.59525 47.3977 8.498 47.6504C7.7743 49.5312 7.83712 51.3033 7.60609 53.248C8.19313 52.5996 8.72307 51.9282 9.33385 51.2793C10.4845 50.0571 11.6195 49.1271 12.9457 48.1156C11.921 49.723 11.0998 50.9616 9.92996 52.4841C8.40254 54.3586 7.03454 56.3741 5.49071 58.177C5.45835 56.9329 5.41767 55.7408 5.53162 54.499C5.83788 51.162 7.10348 47.9076 9.35483 45.4038Z" fill="white"/>
<path d="M43.2091 59.7372C43.3208 59.8765 43.0334 61.3234 42.9923 61.6129C42.5776 64.5351 43.1442 65.9705 43.8266 68.6124C44.5144 66.0814 44.6049 64.9829 45.9759 62.5727C45.5023 64.5761 45.4091 66.4813 45.9297 68.4847C46.2134 69.4404 46.4532 70.0426 46.8814 70.9371C45.7616 69.9998 45.4123 69.6288 44.6736 68.3431C44.345 69.0689 44.2073 69.8536 43.8324 70.5389C41.1666 66.7142 41.1839 63.8145 43.2091 59.7372Z" fill="white"/>
<path d="M37.3046 43.3098C37.7449 43.4542 38.188 43.5895 38.6339 43.7155C38.7203 45.4102 39.1351 46.5822 41.0971 46.836C42.1208 46.9683 42.8274 46.4641 43.5899 45.8363C44.473 46.5282 44.7191 47.1267 45.1001 48.151C45.1541 48.3908 45.238 48.6614 45.3055 48.9009C43.9843 48.472 43.22 48.5412 41.8725 48.5734C40.7091 48.6011 39.3136 48.3591 38.4728 47.4867C37.2792 46.2482 37.2929 44.8903 37.3046 43.3098Z" fill="white"/>
<path d="M30.5971 65.8526C30.6553 65.9051 30.6845 65.9548 30.694 66.038C30.7956 66.925 30.9312 67.812 31.2072 68.6649C31.5661 69.7744 32.3074 70.6891 32.9031 71.6801C32.8189 69.9761 32.8068 69.174 33.2337 67.5058C33.4344 69.1498 33.1254 69.556 33.828 71.4346C34.2212 72.4117 34.7135 73.2057 35.33 74.0534C33.7387 73.4374 32.7647 72.9173 31.6851 71.5045C30.6109 70.0992 30.3061 67.5809 30.5971 65.8526Z" fill="white"/>
<path d="M67.6695 64.089C68.3456 64.0635 68.534 64.152 69.1789 64.3744C68.8194 65.845 67.7273 67.077 66.5017 67.9137L65.936 68.1957C65.6783 68.1299 65.3957 68.0715 65.2339 67.8606C65.2732 67.5306 65.528 67.2619 65.6291 66.9568C66.0307 65.7405 66.1873 64.3999 67.6695 64.089Z" fill="white"/>
<path d="M52.8923 37.0713C52.9802 37.1152 52.9836 37.1184 53.0501 37.1894C55.1743 39.4548 54.5224 42.5917 54.3618 45.4023L54.3098 45.4952L54.2428 45.4861C52.931 43.2559 53.2275 42.6144 53.2188 40.222C53.2206 39.1633 53.1108 38.1072 52.8923 37.0713Z" fill="white"/>
<path d="M29.4774 76.7242C29.5143 76.7484 29.5494 76.7704 29.5799 76.8028C31.432 78.7998 32.8545 82.0583 33.059 84.721C32.9078 84.6141 32.5048 83.845 32.3897 83.6289C31.1774 81.3475 30.076 79.2471 29.4774 76.7242Z" fill="white"/>
<path d="M45.8743 77.0622L45.946 77.1454C45.9853 77.4627 45.9061 78.185 45.8686 78.5253C45.5976 80.9413 43.9548 83.0285 42.1116 84.5055C42.4257 83.7514 42.7235 83.1377 43.0212 82.353C43.4477 81.1852 43.4106 79.6833 43.4309 78.4311C43.8197 79.5845 44.007 80.4929 43.8631 81.7058C45.1014 79.9151 45.3813 79.1858 45.8743 77.0622Z" fill="white"/>
<path d="M45.1798 37.2058C45.7749 37.6454 46.5273 38.3596 46.9965 38.9226C48.7364 41.0106 48.9074 42.7574 48.7127 45.3145L48.6231 45.2989C48.1366 42.8803 47.8344 41.8756 46.5059 39.7405C46.1892 39.2323 45.3543 37.7575 45.1798 37.2058Z" fill="white"/>
<path d="M30.1325 39.9114L30.1848 39.9629C30.1673 40.1412 29.6901 40.7866 29.5472 41.0826C29.2162 41.7681 29.0413 42.2575 28.8595 42.9967C29.3653 42.2781 29.6996 41.8451 30.275 41.1954C29.6691 42.7946 29.4818 43.4013 29.1489 45.1115C29.0704 45.4183 29.0338 45.722 28.989 46.0353C28.6753 45.2606 28.3933 44.6449 28.2129 43.8156C27.9063 43.8682 27.5935 43.9147 27.2859 43.9633C28.0473 42.2627 28.8492 41.2272 30.1325 39.9114Z" fill="white"/>
<path d="M48.6432 81.4614L48.6987 81.5602C48.3913 83.6636 45.951 86.8082 44.4848 88.4262C44.352 88.3042 44.4455 87.9685 44.4956 87.805C45.2487 85.3422 47.3373 83.6139 48.6432 81.4614Z" fill="white"/>
<path d="M22.8226 63.7041C22.8639 63.7365 22.9286 63.7879 22.9334 63.848C23.0513 65.3048 23.3259 66.7604 23.7536 68.1564C23.9754 68.8799 25.3532 71.7044 24.9043 72.2996C22.8906 69.5028 22.3887 67.0943 22.8226 63.7041Z" fill="white"/>
<path d="M19.3374 55.1635C19.4171 55.4773 19.3334 56.3082 19.2959 56.6365C19.2445 57.0774 19.1667 57.5142 19.0628 57.9459C18.8293 58.9357 18.4881 59.966 18.2288 60.9559C18.1264 61.3471 17.7206 63.2025 17.5255 63.3562C16.9654 60.3075 18.3434 57.8777 19.3374 55.1635Z" fill="white"/>
<path d="M53.941 79.202C53.9982 79.4528 53.9635 80.1508 53.9577 80.4409C53.9127 82.6159 53.2296 83.9837 52.1115 85.7721C52.3467 84.7239 52.3958 83.7196 52.416 82.65C52.3866 81.4608 52.1052 80.234 51.7417 79.1072C52.4681 80.0855 52.9176 81.0968 53.1048 82.2958C53.3325 81.4371 53.6873 79.9526 53.941 79.202Z" fill="white"/>
<path d="M39.438 41.794C40.4917 41.6187 41.6475 41.8876 42.5144 42.5067C43.2094 43.0032 43.5784 43.6489 43.9912 44.3691L43.3164 43.8667C42.6754 43.4667 41.8511 43.0527 41.115 42.8759C39.839 42.5694 39.5181 42.7943 38.4078 42.0012C38.7952 41.9013 39.0417 41.8542 39.438 41.794Z" fill="white"/>
<path d="M34.553 26.081C35.0781 26.0466 35.5831 26.0651 36.108 26.0766C35.4333 26.3179 34.7341 26.5108 34.0678 26.7654C33.0956 27.1368 32.1234 27.5641 31.1667 27.9767L30.0175 28.4108C31.1729 27.0792 32.7976 26.2447 34.553 26.081Z" fill="white"/>
<path d="M55.7866 43.2596C55.9964 44.7424 56.101 45.627 56.6233 47.0821C56.7562 47.4511 57.467 49.2352 57.504 49.4251L57.43 49.4239C56.4448 48.3065 55.6473 47.2592 55.5393 45.7078C55.4884 44.9702 55.5295 43.9535 55.7866 43.2596Z" fill="white"/>
<path d="M46.8336 53.6022C46.8873 53.7715 46.8203 54.2754 46.7914 54.4684C46.5476 56.1037 45.124 57.0716 43.7255 57.6009C43.6801 57.4431 44.066 57.1594 44.1987 57.0404C45.323 56.0297 46.1437 54.9376 46.8336 53.6022Z" fill="white"/>
<path d="M40.7644 75.6638C40.9971 75.8713 41.0774 76.3653 41.094 76.6762C41.1669 78.0446 40.3778 79.0263 39.5172 79.9803L39.4116 80.0376C39.4053 79.8405 39.8764 78.9576 39.9813 78.6865C40.3819 77.6528 40.6493 76.7768 40.7644 75.6638Z" fill="white"/>
<path d="M37.3812 34.7769C37.4357 34.9276 37.2297 35.9034 37.1814 36.1338C36.9676 37.1532 37.129 37.8583 37.143 38.7745L37.0945 38.7831L36.9928 38.5981C36.2924 36.98 36.0603 36.1544 37.3812 34.7769Z" fill="white"/>
<path d="M40.0762 43.7245C40.3493 43.6366 40.6439 43.7754 40.75 44.042C40.8561 44.3086 40.7374 44.6118 40.4786 44.7355C40.2949 44.8234 40.0775 44.8016 39.9149 44.679C39.7524 44.5565 39.6716 44.3535 39.7055 44.1527C39.7394 43.952 39.8824 43.7868 40.0762 43.7245Z" fill="white"/>
<path d="M69.3489 37.8642C69.1033 37.9309 68.7196 38.0517 68.485 37.9681C68.615 37.8446 68.9392 37.7911 69.1299 37.7433L69.3489 37.8642Z" fill="#BCBCBB"/>
</svg>
