<svg width="356" height="411" viewBox="0 0 356 411" fill="none" xmlns="http://www.w3.org/2000/svg">
<path d="M98.6167 0L99.0867 0.330999C99.202 1.92375 95.495 7.5055 94.599 9.26325C80.546 36.8292 66.899 75.344 88.6395 102.747C91.1382 105.897 93.726 108.346 96.6892 111.077C98.5385 109.848 102.454 108.087 104.534 107.102C117.068 101.163 127.376 98.7105 141.185 98.5455C137.798 96.9513 134.674 95.671 131.117 94.4798C128.998 93.77 119.758 91.6818 119.167 90.1543C119.606 89.3935 120.514 89.0427 121.365 88.7787C134.891 84.5812 149.236 84.5935 162.681 89.0725C168.696 91.0765 173.695 93.6087 179.257 96.3425C177.454 92.7315 174.598 89.636 171.795 86.77C170.835 85.7888 167.178 82.6445 166.889 81.6093L167.222 81.11C169.099 80.346 173.754 81.3305 175.683 81.8553C187.508 85.073 197.379 91.1752 203.648 101.8C204.76 99.8905 205.795 97.9052 206.923 96.0177C207.903 94.3827 209.773 90.1898 212.083 91.4875C213.698 93.8975 213.473 100.476 213.275 103.456C222.803 99.9223 236.188 99.7165 245.633 102.811C249.083 103.942 258.483 107.108 260.083 110.089L259.968 110.453C258.585 110.871 256.998 111.003 255.558 111.123C251.79 111.438 248.095 111.978 244.355 112.533C258.215 116.627 268.54 125.047 277.615 135.942C281.955 134.782 285.733 134.248 289.985 132.386C324.323 117.358 322.618 79.408 314.823 48.767C314.188 46.272 310.365 36.107 310.858 34.9005C311.58 34.781 312.44 35.1712 313.008 35.5915C345.298 59.5397 368.595 112.145 346.27 149.607C336.15 166.589 312.485 179.263 294.033 183.727C296.43 187.924 299.573 192.047 302.67 195.766C304.725 198.231 307.07 200.447 308.793 203.159L308.643 203.569C304.8 205.98 293.478 201.659 289.63 199.576C295.698 207.526 303.418 227.395 284.665 214.294C289.69 222.098 291.698 234.372 278.565 223.897C282.788 232.97 286.248 238.922 293.835 245.67C297.158 248.627 304.388 254.62 304.965 259.21C306.378 270.41 301.84 284.352 296.193 294.037C293.413 298.555 289.505 301.802 284.443 302.84C282.943 318.565 268.468 326.675 254.675 330.155C253.715 334.442 252.585 339.195 255.165 343.172C255.915 344.327 257.843 346.005 256.995 347.352C255.72 347.765 253.918 347.125 252.643 346.727C246.733 344.875 243.16 340.767 240.463 335.362C242.608 357.687 234.655 375.36 216.72 388.827C214.97 390.142 210.22 393.417 207.925 393.057C207.355 392.252 209.045 389.645 209.648 388.577C214.243 380.45 215.198 372.687 215.398 363.475C209.483 379.557 202.18 395.66 186.187 404.515C185.068 405.132 183.623 405.87 182.415 405.477C182.22 404.365 184.416 401.482 185.15 400.385C186.68 397.872 187.791 395.01 188.909 392.287C179.744 401.177 167.818 408.617 154.739 409.977C153.473 410.11 150.845 410.09 149.877 409.237C149.941 408.75 149.935 408.527 150.449 408.212C168.117 397.392 169.588 377.96 165.814 359.07C164.912 370.732 159.855 386.595 151.387 394.825C149.851 396.317 146.213 399.572 143.85 399.55C143.353 399.53 142.663 399.167 142.649 398.597C142.498 392.407 142.968 387.475 141.638 381.282C138.697 367.587 129.823 357.395 120.622 347.46C120.596 348.225 120.525 348.985 120.409 349.74C119.22 357.61 116.113 368.077 109.453 372.95C108.718 371.085 108.312 368.307 107.818 366.275C107.085 363.37 106.156 360.515 105.038 357.735C102.905 352.41 100.329 347.665 97.9322 342.5C92.7042 331.235 88.852 321.185 86.259 309.067C85.8367 312.59 85.991 317.042 86.1065 320.82C86.2305 324.87 87.3687 330.36 86.9752 334.49C86.9475 334.78 86.7695 334.77 86.4507 334.91C85.2217 334.447 83.9545 333.075 83.0667 332.117C68.1155 315.95 62.3805 292.792 64.4712 271.22C65.0815 264.927 66.4022 258.815 67.7147 252.707C63.6607 259.95 60.6192 269.482 58.0867 277.34C57.0382 280.595 55.3515 284.72 54.7997 287.99C54.1617 284.677 53.365 281.39 52.913 278.07C50.9065 263.345 53.8247 249.565 59.0737 235.797C47.2615 251.402 42.2582 273.095 51.352 291.015C51.938 292.17 52.518 293.307 53.139 294.445C54.8995 292.4 58.0985 286.202 59.6385 283.497C59.047 292.71 57.1585 302.05 58.091 311.31C58.239 312.78 58.857 317.26 58.2312 318.267L57.6275 318.402C56.4352 318.022 55.943 317.595 55.0475 316.71C44.2662 306.035 37.1797 290.48 34.129 275.785C32.667 268.742 32.3735 262.335 32.249 255.267C27.4075 260.547 24.1717 266.495 20.4632 272.577C19.6067 273.982 16.5672 279.285 14.8457 278.935C13.034 276.445 12.7155 270.787 12.4787 267.667C11.308 252.235 13.9855 238.697 18.5902 224.042C16.4122 226.152 2.05197 241.577 0.516723 241.647L0.114974 241.202C-0.092026 239.987 0.0112248 238.46 0.182975 237.245C3.06572 216.878 16.677 189.99 32.9222 177.305C28.2955 178.833 10.074 182.93 7.20047 178.836L7.33622 178.275C9.04172 176.74 13.798 173.967 16.0605 172.331C23.4907 166.957 30.5512 161.221 38.547 156.71C41.085 155.278 43.2467 153.798 46.0127 152.725C42.8152 152.752 22.9517 151.266 24.044 147.202C26.649 145.904 30.3892 144.959 33.1965 143.935C37.738 142.278 42.2692 140.607 46.7785 138.862C55.6135 146.674 64.3562 153.397 76.604 154.668L75.3385 153.978C57.9455 144.394 40.2482 128.363 34.9815 108.688C29.6012 88.59 35.3165 65.5522 45.1562 47.8277C54.7915 30.77 68.6467 16.473 85.3942 6.308C89.7577 3.6745 93.6757 1.41775 98.6167 0Z" fill="#000100"/>
<path d="M267.328 203.38C267.575 203.898 268.51 210.601 268.798 211.912C270.653 220.378 273.495 229.087 277.715 236.68C280.198 241.192 283.683 244.675 287.023 248.457C290.263 252.125 296.453 254.952 298.373 259.147C300.938 264.755 292.523 267.717 289.505 271.03C287.108 273.662 285.958 275.465 284.395 278.815C284.618 272.787 285.98 270.605 288.715 265.385C287.29 265.652 283.658 266.802 282.08 267.325C276.525 269.16 271.48 266.487 266.045 264.45C266.663 265.757 267.35 267.682 267.723 269.027C268.728 272.652 268.23 274.782 266.378 277.85C259.573 289.122 260.133 289.205 247.3 292.31C240.67 293.915 232.933 295.587 226.545 291.95C223.05 289.96 221.145 286.725 220.218 282.955C221.08 280.265 222.758 277.62 224.128 275.112C215.948 279.372 214.1 283.36 210.743 291.587C210.063 286.692 212.538 275.825 214.785 271.282C215.615 269.605 218.995 264.2 218.908 263.18C218.19 263.102 218.2 263.302 217.418 263.81C213.115 266.66 210.135 269.622 206.955 273.615C208.565 267.04 211.32 260.8 215.098 255.182C210.068 257.577 206.758 260.607 202.685 264.275C202.855 254.737 206.008 247.687 211.85 240.287C213.508 238.19 216.43 234.372 217.65 232.092L217.805 231.797C218.76 235.232 219.18 240.715 219.413 244.312C223.658 238.097 224.785 230.27 222.468 223.111C220.248 216.376 218.773 216.342 217.928 208.366C222.458 215.3 225.223 218.886 233.478 221.65C230.22 214.597 229.56 212.023 230.255 204.382C237.67 215.952 246.965 224.005 260.493 227.607C258.033 221.792 255.805 215.482 255.4 209.174C258.895 214.66 261.253 217.081 266.513 220.58C265.56 214.216 265.518 209.521 267.328 203.38Z" fill="white"/>
<path d="M239.09 256.562C244.118 256.037 250.598 258.332 254.673 261.2C259.45 264.562 265.418 270.37 262.823 276.82C262.72 277.075 262.198 276.995 261.953 277.002C259.238 275.832 255.005 273.882 252.105 274.59C241.243 277.235 237.198 267.657 237.875 258.627C237.955 257.57 238.205 257.225 239.09 256.562Z" fill="#000100"/>
<path d="M244.368 243.582C253.988 243.057 262.91 249.492 271.46 252.94C276.72 255.057 280.245 254.7 285.295 252.427C280.855 257.285 277.85 258.75 271.228 257.767C267.13 256.765 263.983 255.275 260.248 253.372C248.798 247.542 241.93 245.657 229.425 249.625C234.893 245.775 237.57 244.16 244.368 243.582Z" fill="#000100"/>
<path d="M206.643 113.07C219.038 110.253 224.895 109.611 237.458 112.863C233.99 113.407 230.025 114.077 226.668 115.044C244.263 118.373 258.823 128.406 270.918 141.235C272.923 143.362 274.818 145.655 276.825 147.734C272.388 146 269.7 145.234 265.418 142.816C262.668 141.262 259.07 138.498 256.535 137.229C263.333 144.253 267.373 150.255 272.185 158.863C277.515 168.398 283.255 180.708 290.708 188.836C283.6 186.097 278.718 183.103 273.32 177.563C273.113 189.201 273.74 195.356 278.888 206.08C270.548 198.491 268.223 192.042 266.193 181.39C264.058 189.83 263.363 193.932 259.243 201.793C261.915 181.126 258.118 163.884 242.583 148.983C249.985 164.507 250.985 168.062 251.493 185.17C250.02 180.262 248.358 174.943 246.108 170.331C241.435 160.759 233.03 151.527 224.578 145.094C220.405 141.918 216.273 139.578 211.96 136.167C219.44 148.823 222.135 158.037 221.448 172.979C221.263 177.024 220.913 181.575 219.893 185.509C219.833 185.744 219.768 185.979 219.703 186.213C213.858 161.155 195.211 159.609 187.956 138.243C184.074 148.676 184.4 155.702 188.936 166.147C180.568 159.83 172.41 153.545 168.048 143.626C164.067 134.57 164.785 128.505 170.097 120.416C168.199 133.613 171.662 139.936 179.683 149.974C176.613 137.917 179.708 129.043 186.735 119.096C192.18 126.432 195.962 130.793 204.528 134.938C203.123 131.749 202.053 128.338 201.02 125.008C216.188 130.355 223.673 134.56 235.37 145.262C229.468 134.652 223.075 127.949 212.468 121.803C210.868 120.875 208.568 119.538 206.858 118.966L206.93 118.815C208.895 118.923 210.675 119.566 212.568 119.942C221.508 121.72 232.675 125.604 240.298 130.743L241.203 130.222C232.623 120.555 219.48 114.282 206.643 113.07Z" fill="white"/>
<path d="M241.203 130.222L243.835 133.098L240.298 130.743L241.203 130.222Z" fill="#000100"/>
<path d="M86.493 12.474C86.5055 12.5355 86.6195 12.9575 86.5977 12.996C75.4595 32.8592 67.1372 55.997 70.3722 79.0827C71.6182 87.9735 75.843 99.1995 81.3902 106.367C92.28 120.439 109.922 128.6 127.305 130.834C132.109 131.452 137.216 131.493 142.035 131.474C135.149 135.502 131.177 136.029 123.38 135.96C130.226 138.538 138.279 138.349 145.395 137.274C137.167 141.026 132.717 142.201 123.86 141.791C132.908 145.419 138.663 144.202 147.488 144.078C130.671 149.269 118.639 147.125 102.45 141.493C101.827 141.262 101.208 141.02 100.593 140.77C82.623 133.459 68.3625 121.887 60.6567 103.738C61.6632 111.093 64.859 117.946 68.3122 124.396C56.122 112.531 51.2337 96.4058 51.8922 79.7533C52.524 63.7735 57.594 51.402 65.4847 37.7417C59.3127 43.279 54.2165 50.5952 50.5577 57.9742C49.3462 60.4175 48.3967 62.9295 47.108 65.3202L47.1742 65.0043C52.406 40.849 66.1845 25.4992 86.493 12.474Z" fill="white"/>
<path d="M322.985 52.028C337.06 67.604 347.018 88.6962 346.45 110.138C345.72 137.638 325.455 156.563 300.03 163.816L299.083 163.293C307.37 160.333 312.758 156.723 319.733 151.371C317.035 152.161 314.513 153.994 311.938 155.148C304.675 158.401 296.925 160.439 289.015 161.299C287.38 161.477 285.383 161.678 283.805 161.973C282.303 159.59 280.763 157.232 279.185 154.899C281.835 155.913 288.05 158.051 291.19 157.567C291.715 157.487 291.813 156.954 291.925 156.57C291.373 154.075 286.603 149.992 284.813 147.616C283.428 145.78 282.6 144.874 281.295 142.722C298.483 139.092 309.255 131.702 319.34 117.123C329.74 102.091 329.618 81.6239 325.888 64.1824C324.985 60.1157 324.02 56.0635 322.985 52.028Z" fill="white"/>
<path d="M337.325 101.362L337.583 101.572C338.588 103.563 338.67 113.567 338.56 115.881C337.968 128.152 329.73 135.021 321.025 142.552C320.77 142.806 320.935 142.693 320.493 142.828C320.57 142.337 323.723 137.704 324.293 136.764C332.688 122.881 335.945 117.629 337.325 101.362Z" fill="#000100"/>
<path d="M91.6462 156.345C104.047 156.477 115.483 161.909 126.703 166.7C117.191 166.895 107.526 164.263 98.2357 164.317C86.4295 164.385 76.6675 168.263 68.4662 176.697C73.0392 176.689 81.0802 177.252 85.3485 178.652C83.3325 180.51 79.735 182.627 77.318 184.179C82.17 185.146 86.2637 185.921 90.98 187.348C89.6292 188.256 88.7112 189.03 87.4615 190.081C90.4467 191.659 92.8912 192.265 96.087 193.271C97.4227 194.932 97.8162 195.625 99.5662 196.825C100.227 197.144 100.898 197.444 101.578 197.724C107.704 200.198 114.496 197.486 120.23 195.11C102.265 212.597 81.0892 199.31 65.1512 186.635C67.5922 185.492 70.4712 183.91 72.9062 182.655C68.7667 182.141 62.9402 181.998 59.253 180.11C56.1487 178.521 63.2612 171.043 64.7455 169.274C72.0537 160.565 80.3597 157.015 91.6462 156.345Z" fill="white"/>
<path d="M143.406 194.172L143.665 194.605C142.457 203.682 142.269 210.174 143.538 219.242C144.298 224.672 143.002 231.47 141.55 236.805C149.925 229.165 152.732 222.865 155.682 212.235C156.177 214.834 156.624 218.351 156.329 220.959C155.127 231.567 151.056 237.75 154.225 248.775C156.536 246.482 158.269 243.57 160.355 241.057C162.607 238.345 164.978 235.955 167.237 233.225C162.094 245.867 159.164 257.452 161.097 271.215C161.627 274.987 162.136 277.997 163.493 281.632C157.08 274.767 154.714 269.035 153.066 259.79C152.771 256.66 151.982 252.752 151.358 249.68C147.363 259.907 147.012 265.017 148.609 276.03C147.556 274.567 146.549 273.182 145.625 271.632C137.941 258.735 146.809 247.145 149.862 234.915C142.71 241.182 139.642 245.985 129.663 248.532C136.524 239.972 138.201 229.147 138.337 218.539C134.424 224.61 132.578 226.782 127.068 231.44C128.693 227.752 131.051 223.557 132.467 219.87C135.962 210.772 138.951 202.92 143.406 194.172Z" fill="white"/>
<path d="M113.688 212.991C113.649 213.494 111.393 218.464 110.938 219.491C109.085 223.68 108.252 227.837 106.793 232.102C110.581 228.272 114.516 224.592 118.591 221.072C111.496 234.42 110.643 251.21 114.848 265.545C115.427 267.52 116.088 270.205 117.152 271.907L117.489 271.83C118.018 264.01 120.661 257.345 124.159 250.49C123.27 261.53 122.475 268.057 122.554 279.347C122.792 283.767 123.155 288.64 123.074 293.03C107.704 275.03 102.86 258.692 110.184 235.412C108.261 237.437 99.8827 248.942 97.9815 247.892C97.5482 246.527 98.6602 242.512 98.9525 240.982C101.128 229.595 105.642 221.302 113.688 212.991Z" fill="white"/>
<path d="M263.918 298.835C264.073 298.812 264.228 298.795 264.383 298.782C269.68 298.292 273.49 299.627 277.493 302.962C277.338 303.575 277.178 304.185 277.01 304.795C274.793 312.79 268.9 317.052 261.945 321.012C263.655 318.28 264.24 316.62 264.883 313.495C262.463 313.877 259.373 315.062 257 315.93C252.648 317.517 249.925 318.337 245.338 318.91C247.093 317.525 248.975 315.69 250.635 314.147C248.06 314.835 246.155 315.255 243.53 315.735C241.838 315.772 240.683 315.892 238.993 316.102C240 315.335 242.363 313.78 242.453 312.545C241.245 312.25 237.808 312.667 236.028 312.562C233.26 312.397 231.47 312.085 228.753 311.617C233.46 310.597 233.783 310.83 238.575 308.485C232.403 308.32 227.2 308.127 224.713 301.62C236.205 307.33 251.303 300.217 263.918 298.835Z" fill="white"/>
<path d="M40.4727 196.435C40.4747 196.67 37.1865 205.061 36.7657 206.155C33.6347 214.292 33.9065 221.959 32.907 230.372C35.4467 227.567 37.7395 224.662 40.382 221.855C45.3602 216.567 50.2705 212.544 56.0082 208.167C51.575 215.122 48.022 220.48 42.961 227.067C36.3527 235.177 30.4342 243.897 23.755 251.697C23.615 246.315 23.439 241.157 23.932 235.785C25.257 221.347 30.7325 207.268 40.4727 196.435Z" fill="white"/>
<path d="M186.94 258.447C187.423 259.05 186.18 265.31 186.002 266.562C184.208 279.205 186.659 285.415 189.611 296.845C192.587 285.895 192.979 281.142 198.91 270.715C196.861 279.382 196.458 287.625 198.71 296.292C199.938 300.427 200.975 303.032 202.828 306.902C197.983 302.847 196.472 301.242 193.276 295.68C191.854 298.82 191.259 302.215 189.636 305.18C178.103 288.632 178.178 276.087 186.94 258.447Z" fill="white"/>
<path d="M161.394 187.375C163.299 188 165.216 188.586 167.145 189.131C167.519 196.463 169.314 201.533 177.802 202.631C182.231 203.204 185.288 201.022 188.587 198.306C192.408 201.3 193.472 203.889 195.12 208.32C195.354 209.358 195.717 210.529 196.009 211.565C190.293 209.709 186.986 210.009 181.157 210.148C176.123 210.268 170.086 209.221 166.448 205.447C161.284 200.088 161.343 194.213 161.394 187.375Z" fill="white"/>
<path d="M132.375 284.905C132.626 285.132 132.753 285.347 132.794 285.707C133.233 289.545 133.82 293.382 135.014 297.072C136.567 301.872 139.774 305.83 142.351 310.117C141.987 302.745 141.935 299.275 143.782 292.057C144.65 299.17 143.313 300.927 146.353 309.055C148.054 313.282 150.184 316.717 152.851 320.385C145.966 317.72 141.752 315.47 137.082 309.357C132.434 303.277 131.116 292.382 132.375 284.905Z" fill="white"/>
<path d="M292.765 277.275C295.69 277.165 296.505 277.547 299.295 278.51C297.74 284.872 293.015 290.202 287.713 293.822L285.265 295.042C284.15 294.757 282.928 294.505 282.228 293.592C282.398 292.165 283.5 291.002 283.938 289.682C285.675 284.42 286.353 278.62 292.765 277.275Z" fill="white"/>
<path d="M228.833 160.385C229.213 160.576 229.228 160.589 229.515 160.896C238.705 170.698 235.885 184.269 235.19 196.429L234.965 196.831L234.675 196.791C229 187.143 230.283 184.367 230.245 174.017C230.253 169.436 229.778 164.867 228.833 160.385Z" fill="white"/>
<path d="M127.531 331.94C127.69 332.045 127.842 332.14 127.974 332.28C135.987 340.92 142.141 355.017 143.026 366.537C142.372 366.075 140.628 362.747 140.131 361.812C134.886 351.942 130.12 342.855 127.531 331.94Z" fill="white"/>
<path d="M198.47 333.402L198.78 333.762C198.95 335.135 198.608 338.26 198.445 339.732C197.273 350.185 190.166 359.215 182.191 365.605C183.55 362.342 184.838 359.687 186.127 356.292C187.972 351.24 187.811 344.742 187.899 339.325C189.581 344.315 190.391 348.245 189.769 353.492C195.126 345.745 196.337 342.59 198.47 333.402Z" fill="white"/>
<path d="M195.466 160.967C198.04 162.869 201.295 165.959 203.325 168.395C210.853 177.429 211.593 184.986 210.75 196.049L210.363 195.981C208.258 185.518 206.95 181.171 201.203 171.934C199.833 169.735 196.22 163.354 195.466 160.967Z" fill="white"/>
<path d="M130.365 172.673L130.592 172.896C130.516 173.667 128.452 176.459 127.833 177.74C126.401 180.706 125.645 182.823 124.858 186.021C127.046 182.912 128.493 181.039 130.982 178.228C128.361 185.147 127.55 187.772 126.11 195.17C125.77 196.498 125.612 197.812 125.418 199.167C124.061 195.816 122.841 193.152 122.06 189.564C120.734 189.792 119.381 189.993 118.05 190.203C121.344 182.846 124.813 178.366 130.365 172.673Z" fill="white"/>
<path d="M210.45 352.435L210.69 352.862C209.36 361.962 198.803 375.567 192.459 382.567C191.885 382.04 192.289 380.587 192.506 379.88C195.764 369.225 204.8 361.747 210.45 352.435Z" fill="white"/>
<path d="M98.7387 275.61C98.9174 275.75 99.1974 275.972 99.2182 276.232C99.7282 282.535 100.916 288.832 102.767 294.872C103.726 298.002 109.687 310.222 107.745 312.797C99.0329 300.697 96.8614 290.277 98.7387 275.61Z" fill="white"/>
<path d="M83.661 238.66C84.0057 240.017 83.6437 243.612 83.4812 245.032C83.259 246.94 82.9222 248.83 82.473 250.697C81.4627 254.98 79.9865 259.437 78.8647 263.72C78.4217 265.412 76.6657 273.44 75.822 274.105C73.3985 260.915 79.3605 250.402 83.661 238.66Z" fill="white"/>
<path d="M233.37 342.66C233.618 343.745 233.468 346.765 233.443 348.02C233.248 357.43 230.293 363.347 225.455 371.085C226.473 366.55 226.685 362.205 226.773 357.577C226.645 352.432 225.428 347.125 223.855 342.25C226.998 346.482 228.943 350.857 229.753 356.045C230.738 352.33 232.273 345.907 233.37 342.66Z" fill="white"/>
<path d="M170.624 180.818C175.183 180.059 180.184 181.222 183.934 183.901C186.941 186.049 188.537 188.842 190.323 191.958L187.404 189.785C184.63 188.054 181.064 186.263 177.88 185.498C172.359 184.172 170.971 185.145 166.167 181.714C167.843 181.282 168.91 181.078 170.624 180.818Z" fill="white"/>
<path d="M149.489 112.837C151.761 112.688 153.946 112.768 156.217 112.818C153.298 113.862 150.273 114.696 147.39 115.798C143.184 117.405 138.978 119.253 134.839 121.038L129.867 122.917C134.866 117.155 141.895 113.545 149.489 112.837Z" fill="white"/>
<path d="M241.355 187.158C242.263 193.574 242.715 197.401 244.975 203.696C245.55 205.292 248.625 213.011 248.785 213.833L248.465 213.828C244.203 208.993 240.753 204.462 240.285 197.75C240.065 194.559 240.243 190.161 241.355 187.158Z" fill="white"/>
<path d="M202.62 231.905C202.853 232.637 202.563 234.817 202.438 235.652C201.383 242.727 195.224 246.915 189.173 249.205C188.977 248.522 190.647 247.295 191.221 246.78C196.085 242.407 199.635 237.682 202.62 231.905Z" fill="white"/>
<path d="M176.363 327.352C177.37 328.25 177.717 330.387 177.789 331.732C178.104 337.652 174.69 341.9 170.967 346.027L170.51 346.275C170.483 345.422 172.521 341.602 172.975 340.43C174.708 335.957 175.865 332.167 176.363 327.352Z" fill="white"/>
<path d="M161.725 150.459C161.961 151.111 161.07 155.332 160.861 156.329C159.936 160.739 160.634 163.79 160.695 167.754L160.485 167.791L160.045 166.991C157.015 159.99 156.01 156.418 161.725 150.459Z" fill="white"/>
<path d="M173.385 189.17C174.567 188.789 175.841 189.39 176.3 190.543C176.759 191.697 176.246 193.008 175.126 193.544C174.331 193.924 173.391 193.83 172.688 193.299C171.984 192.769 171.635 191.891 171.782 191.022C171.928 190.154 172.547 189.439 173.385 189.17Z" fill="white"/>
<path d="M300.03 163.816C298.968 164.104 297.308 164.627 296.293 164.265C296.855 163.731 298.258 163.5 299.083 163.293L300.03 163.816Z" fill="#BCBCBB"/>
</svg>
