<svg width="61" height="61" viewBox="0 0 61 61" fill="none" xmlns="http://www.w3.org/2000/svg">
<path d="M28.7837 0H32.152C32.4544 0.101969 33.0496 0.110474 33.3812 0.133953C33.7475 0.162528 34.1129 0.199742 34.4773 0.245564C35.6187 0.38471 37.0502 0.678802 38.1575 0.97639C46.3617 3.12337 53.3011 8.59012 57.3088 16.0637C58.8806 18.9971 59.9637 22.1671 60.5158 25.449C60.6062 25.9887 60.6788 26.5312 60.7337 27.0756C60.7675 27.3943 60.819 28.4264 60.901 28.6321V32.3107C60.8056 32.6082 60.7916 33.1561 60.7668 33.4802C60.7397 33.8064 60.7036 34.132 60.6587 34.4562C60.4817 35.792 60.2157 37.1145 59.8623 38.4148C57.7228 46.2854 52.5194 52.9708 45.4151 56.9769C42.4493 58.6533 39.2229 59.8195 35.8707 60.4272C35.3005 60.5312 34.7935 60.6126 34.2297 60.6868C33.8512 60.737 32.745 60.8066 32.4776 60.901H28.3537C28.0682 60.804 27.2143 60.7437 26.8682 60.7022C26.2552 60.6263 25.6444 60.5322 25.0367 60.4211C22.5233 59.9641 20.0769 59.1944 17.7545 58.13C9.6518 54.4241 3.58235 47.3505 1.15013 38.7789C0.833223 37.6579 0.507048 36.2508 0.333924 35.0924C0.265486 34.6165 0.206002 34.1397 0.155506 33.6619C0.125318 33.356 0.101527 32.4371 0 32.2029V28.7528C0.07848 28.5719 0.135274 27.3598 0.167725 27.0557C0.231634 26.4792 0.31082 25.9045 0.405199 25.3322C1.0505 21.5986 2.38093 18.0166 4.32932 14.767C8.47387 7.84572 15.2014 2.85732 23.0281 0.90193C24.2256 0.600035 25.4105 0.392022 26.6314 0.222925C27.2525 0.136903 28.2236 0.156891 28.7837 0Z" fill="white"/>
<path d="M22.2411 7.91452L22.2915 7.94996C22.3038 8.12051 21.9069 8.7182 21.8109 8.90642C20.3062 11.8581 18.8449 15.9823 21.1728 18.9166C21.4404 19.2538 21.7174 19.516 22.0347 19.8086C22.2328 19.6769 22.652 19.4884 22.8747 19.3828C24.2169 18.7469 25.3206 18.4843 26.7993 18.4666C26.4366 18.2959 26.1021 18.1588 25.7213 18.0313C25.4943 17.9553 24.5049 17.7317 24.4417 17.5681C24.4887 17.4867 24.5859 17.4491 24.677 17.4208C26.1254 16.9714 27.6614 16.9727 29.101 17.4523C29.7452 17.6669 30.2804 17.938 30.876 18.2307C30.6829 17.8441 30.3771 17.5126 30.0769 17.2057C29.9742 17.1007 29.5826 16.764 29.5516 16.6531L29.5873 16.5997C29.7883 16.5179 30.2868 16.6233 30.4933 16.6795C31.7596 17.024 32.8165 17.6774 33.4878 18.8152C33.6069 18.6107 33.7177 18.3981 33.8384 18.196C33.9434 18.0209 34.1436 17.5719 34.391 17.7109C34.5639 17.9689 34.5398 18.6734 34.5186 18.9924C35.5388 18.6141 36.9721 18.592 37.9834 18.9234C38.3529 19.0444 39.3594 19.3834 39.5307 19.7027L39.5184 19.7417C39.3704 19.7864 39.2004 19.8005 39.0462 19.8134C38.6428 19.8471 38.2471 19.9049 37.8467 19.9644C39.3308 20.4027 40.4363 21.3044 41.4081 22.471C41.8728 22.3468 42.2773 22.2896 42.7327 22.0902C46.4095 20.481 46.2269 16.4174 45.3922 13.1364C45.3242 12.8693 44.9149 11.7808 44.9677 11.6516C45.045 11.6388 45.1371 11.6806 45.1979 11.7256C48.6554 14.29 51.1501 19.9229 48.7596 23.9343C47.6759 25.7527 45.1419 27.1098 43.1661 27.5878C43.4228 28.0372 43.7593 28.4787 44.0909 28.8769C44.311 29.1408 44.5621 29.3781 44.7465 29.6685L44.7305 29.7124C44.319 29.9706 43.1066 29.5079 42.6946 29.2849C43.3443 30.1361 44.171 32.2637 42.163 30.8608C42.7011 31.6965 42.916 33.0108 41.5098 31.8891C41.962 32.8606 42.3324 33.498 43.1449 34.2205C43.5007 34.5372 44.2749 35.1789 44.3367 35.6704C44.4879 36.8696 44.0021 38.3626 43.3973 39.3996C43.0997 39.8834 42.6813 40.2311 42.1392 40.3422C41.9786 42.026 40.4286 42.8944 38.9517 43.2671C38.8489 43.7262 38.7279 44.235 39.0042 44.661C39.0845 44.7846 39.2909 44.9643 39.2001 45.1085C39.0636 45.1527 38.8706 45.0842 38.7341 45.0416C38.1012 44.8433 37.7187 44.4034 37.4298 43.8247C37.6595 46.2152 36.808 48.1075 34.8875 49.5496C34.7001 49.6904 34.1915 50.0411 33.9458 50.0026C33.8847 49.9164 34.0657 49.6372 34.1302 49.5229C34.6222 48.6526 34.7245 47.8214 34.7459 46.8349C34.1126 48.557 33.3306 50.2812 31.6181 51.2294C31.4983 51.2955 31.3435 51.3745 31.2142 51.3325C31.1933 51.2134 31.4284 50.9047 31.5071 50.7872C31.6708 50.5182 31.7899 50.2116 31.9095 49.9201C30.9282 50.872 29.6512 51.6687 28.2506 51.8143C28.1151 51.8285 27.8337 51.8264 27.73 51.7351C27.7368 51.6829 27.7363 51.6591 27.7912 51.6253C29.6831 50.4668 29.8407 48.3859 29.4366 46.3632C29.3399 47.612 28.7984 49.3106 27.8917 50.1918C27.7273 50.3516 27.3377 50.7002 27.0847 50.6978C27.0315 50.6956 26.9576 50.6568 26.9561 50.5958C26.9399 49.933 26.9902 49.4048 26.8478 48.7417C26.5329 47.2753 25.5827 46.1839 24.5975 45.1201C24.5947 45.202 24.587 45.2833 24.5747 45.3642C24.4473 46.2069 24.1146 47.3277 23.4014 47.8495C23.3228 47.6498 23.2794 47.3524 23.2264 47.1347C23.1479 46.8237 23.0485 46.518 22.9287 46.2203C22.7003 45.6501 22.4245 45.142 22.1678 44.5889C21.608 43.3827 21.1955 42.3066 20.9179 41.009C20.8727 41.3862 20.8892 41.863 20.9016 42.2675C20.9148 42.7011 21.0367 43.289 20.9946 43.7312C20.9916 43.7623 20.9726 43.7612 20.9384 43.7762C20.8068 43.7267 20.6711 43.5797 20.5761 43.4772C18.9751 41.746 18.361 39.2663 18.5849 36.9564C18.6502 36.2826 18.7917 35.6281 18.9322 34.9741C18.4981 35.7496 18.1724 36.7703 17.9012 37.6117C17.789 37.9602 17.6084 38.4019 17.5493 38.7521C17.481 38.3974 17.3956 38.0454 17.3472 37.6899C17.1324 36.1131 17.4449 34.6376 18.0069 33.1634C16.7421 34.8343 16.2064 37.1571 17.1801 39.076C17.2428 39.1997 17.305 39.3215 17.3714 39.4433C17.56 39.2243 17.9025 38.5607 18.0674 38.271C18.0041 39.2575 17.8018 40.2576 17.9017 41.2492C17.9175 41.4066 17.9837 41.8863 17.9167 41.9942L17.8521 42.0086C17.7244 41.9679 17.6717 41.9221 17.5758 41.8274C16.4214 40.6843 15.6626 39.0187 15.3359 37.4452C15.1793 36.6911 15.1479 36.005 15.1346 35.2482C14.6162 35.8136 14.2697 36.4504 13.8726 37.1017C13.7809 37.2522 13.4554 37.82 13.2711 37.7825C13.0771 37.5159 13.043 36.9101 13.0176 36.576C12.8922 34.9235 13.1789 33.4739 13.672 31.9047C13.4388 32.1306 11.9011 33.7823 11.7367 33.7898L11.6937 33.7421C11.6715 33.612 11.6826 33.4485 11.701 33.3184C12.0097 31.1375 13.4671 28.2584 15.2067 26.9001C14.7112 27.0637 12.7601 27.5024 12.4524 27.064L12.4669 27.0039C12.6496 26.8396 13.1589 26.5427 13.4011 26.3675C14.1968 25.7921 14.9528 25.1778 15.809 24.6948C16.0807 24.5415 16.3122 24.383 16.6084 24.2681C16.266 24.271 14.139 24.1118 14.256 23.6767C14.5349 23.5377 14.9354 23.4365 15.236 23.3268C15.7223 23.1494 16.2075 22.9705 16.6904 22.7837C17.6364 23.6202 18.5726 24.3401 19.884 24.4762L19.7485 24.4022C17.8861 23.376 15.9911 21.6594 15.4272 19.5527C14.8511 17.4006 15.463 14.9338 16.5167 13.0359C17.5484 11.2093 19.032 9.67843 20.8253 8.58997C21.2925 8.30798 21.7121 8.06633 22.2411 7.91452Z" fill="#000100"/>
<path d="M40.3065 29.6922C40.333 29.7476 40.4331 30.4654 40.4639 30.6058C40.6625 31.5123 40.9669 32.4449 41.4188 33.2579C41.6846 33.7411 42.0577 34.114 42.4154 34.519C42.7623 34.9117 43.4251 35.2145 43.6307 35.6637C43.9054 36.2641 43.0043 36.5813 42.6812 36.936C42.4245 37.2179 42.3014 37.4109 42.134 37.7697C42.1579 37.1242 42.3038 36.8905 42.5966 36.3316C42.444 36.3602 42.0551 36.4834 41.8862 36.5393C41.2913 36.7358 40.7511 36.4496 40.1691 36.2315C40.2353 36.3715 40.3089 36.5776 40.3488 36.7216C40.4564 37.1098 40.4031 37.3379 40.2048 37.6663C39.4761 38.8734 39.536 38.8822 38.162 39.2147C37.452 39.3865 36.6235 39.5656 35.9395 39.1761C35.5653 38.963 35.3613 38.6166 35.262 38.213C35.3544 37.9249 35.534 37.6417 35.6807 37.3732C34.8048 37.8293 34.6069 38.2563 34.2474 39.1373C34.1746 38.6132 34.4396 37.4495 34.6803 36.9631C34.7692 36.7835 35.1311 36.2047 35.1217 36.0955C35.0449 36.0872 35.046 36.1086 34.9622 36.1629C34.5015 36.4681 34.1824 36.7853 33.8419 37.2128C34.0143 36.5088 34.3093 35.8406 34.7138 35.2391C34.1752 35.4956 33.8207 35.82 33.3846 36.2127C33.4028 35.1915 33.7404 34.4366 34.366 33.6442C34.5435 33.4196 34.8564 33.0108 34.9871 32.7667L35.0037 32.7351C35.1059 33.1029 35.1509 33.69 35.1758 34.0752C35.6304 33.4097 35.7511 32.5715 35.5029 31.8049C35.2652 31.0837 35.1073 31.0802 35.0168 30.2261C35.5019 30.9686 35.7979 31.3525 36.6819 31.6485C36.3331 30.8933 36.2624 30.6177 36.3368 29.7994C37.1308 31.0384 38.1261 31.9007 39.5746 32.2864C39.3112 31.6637 39.0727 30.988 39.0293 30.3126C39.4035 30.9 39.656 31.1592 40.2192 31.534C40.1172 30.8525 40.1127 30.3498 40.3065 29.6922Z" fill="white"/>
<path d="M37.2828 35.3868C37.8212 35.3306 38.5151 35.5764 38.9514 35.8834C39.463 36.2435 40.102 36.8653 39.8241 37.556C39.8131 37.5833 39.7572 37.5747 39.7309 37.5755C39.4402 37.4502 38.987 37.2414 38.6765 37.3172C37.5133 37.6004 37.0802 36.5749 37.1527 35.608C37.1613 35.4947 37.1881 35.4578 37.2828 35.3868Z" fill="#000100"/>
<path d="M37.8479 33.997C38.878 33.9408 39.8335 34.6298 40.749 34.999C41.3122 35.2257 41.6897 35.1874 42.2304 34.9441C41.755 35.4642 41.4332 35.6211 40.7241 35.5159C40.2853 35.4085 39.9483 35.249 39.5484 35.0453C38.3223 34.421 37.5869 34.2192 36.2479 34.644C36.8334 34.2318 37.1201 34.0588 37.8479 33.997Z" fill="#000100"/>
<path d="M33.8084 20.022C35.1356 19.7203 35.7628 19.6515 37.108 19.9998C36.7367 20.058 36.3121 20.1298 35.9526 20.2333C37.8367 20.5898 39.3957 21.6641 40.6908 23.0378C40.9055 23.2656 41.1085 23.5111 41.3234 23.7337C40.8483 23.5481 40.5605 23.4661 40.1019 23.2071C39.8074 23.0407 39.4222 22.7448 39.1508 22.6088C39.8787 23.361 40.3113 24.0037 40.8266 24.9254C41.3973 25.9464 42.0119 27.2646 42.8099 28.1348C42.0489 27.8416 41.5261 27.521 40.9481 26.9278C40.9259 28.1739 40.9931 28.833 41.5443 29.9814C40.6512 29.1688 40.4023 28.4782 40.1849 27.3376C39.9563 28.2413 39.8819 28.6805 39.4407 29.5223C39.7269 27.3093 39.3202 25.463 37.6568 23.8675C38.4494 25.5297 38.5565 25.9104 38.6108 27.7423C38.4532 27.2168 38.2752 26.6472 38.0342 26.1534C37.5339 25.1285 36.6339 24.1399 35.7288 23.4511C35.282 23.1109 34.8395 22.8604 34.3778 22.4951C35.1787 23.8503 35.4673 24.837 35.3937 26.4369C35.3739 26.87 35.3364 27.3574 35.2272 27.7786C35.2207 27.8038 35.2138 27.829 35.2068 27.854C34.5809 25.1709 32.5843 25.0053 31.8074 22.7175C31.3917 23.8346 31.4266 24.5869 31.9123 25.7053C31.0163 25.029 30.1427 24.356 29.6757 23.2938C29.2494 22.3241 29.3262 21.6747 29.895 20.8086C29.6918 22.2216 30.0627 22.8987 30.9215 23.9736C30.5928 22.6825 30.9242 21.7323 31.6767 20.6672C32.2597 21.4527 32.6646 21.9197 33.5819 22.3636C33.4314 22.0221 33.3169 21.6569 33.2063 21.3003C34.8304 21.8728 35.6319 22.323 36.8845 23.469C36.2524 22.3329 35.5679 21.6152 34.4321 20.9571C34.2608 20.8577 34.0145 20.7146 33.8314 20.6532L33.8391 20.6371C34.0496 20.6487 34.2402 20.7175 34.4428 20.7578C35.4001 20.9482 36.5959 21.364 37.4121 21.9143L37.509 21.8585C36.5903 20.8234 35.183 20.1517 33.8084 20.022Z" fill="white"/>
<path d="M37.509 21.8585L37.7909 22.1665L37.4121 21.9143L37.509 21.8585Z" fill="#000100"/>
<path d="M20.9428 9.25024C20.9441 9.25683 20.9563 9.30202 20.954 9.30614C19.7613 11.4331 18.8702 13.9106 19.2166 16.3826C19.35 17.3346 19.8024 18.5367 20.3964 19.3042C21.5624 20.811 23.4515 21.6848 25.3128 21.9241C25.8273 21.9902 26.3741 21.9946 26.8902 21.9926C26.1528 22.4239 25.7275 22.4803 24.8926 22.4729C25.6256 22.749 26.4879 22.7287 27.25 22.6136C26.3689 23.0154 25.8924 23.1413 24.944 23.0973C25.9128 23.4858 26.5291 23.3555 27.4741 23.3422C25.6733 23.898 24.3849 23.6685 22.6515 23.0654C22.5848 23.0406 22.5184 23.0148 22.4526 22.988C20.5284 22.2052 19.0014 20.966 18.1762 19.0226C18.284 19.8102 18.6262 20.5441 18.996 21.2348C17.6907 19.9642 17.1672 18.2375 17.2378 16.4544C17.3054 14.7433 17.8483 13.4186 18.6932 11.9559C18.0323 12.5488 17.4866 13.3322 17.0949 14.1223C16.9651 14.384 16.8635 14.653 16.7255 14.9089L16.7326 14.8751C17.2928 12.2886 18.7682 10.645 20.9428 9.25024Z" fill="white"/>
<path d="M46.2661 13.4856C47.7732 15.1535 48.8395 17.412 48.7787 19.7079C48.7005 22.6527 46.5306 24.6791 43.8081 25.4557L43.7066 25.3997C44.5941 25.0828 45.1709 24.6963 45.9178 24.1232C45.629 24.2077 45.3589 24.4041 45.0831 24.5276C44.3055 24.876 43.4756 25.0942 42.6286 25.1862C42.4536 25.2053 42.2397 25.2268 42.0708 25.2584C41.9099 25.0033 41.745 24.7508 41.576 24.5009C41.8598 24.6095 42.5253 24.8385 42.8615 24.7867C42.9177 24.778 42.9282 24.7209 42.9402 24.6799C42.8811 24.4127 42.3703 23.9755 42.1786 23.7211C42.0303 23.5245 41.9417 23.4274 41.802 23.197C43.6424 22.8083 44.7959 22.0171 45.8758 20.4559C46.9894 18.8464 46.9763 16.6547 46.5769 14.7871C46.4803 14.3517 46.3769 13.9177 46.2661 13.4856Z" fill="white"/>
<path d="M47.8018 18.7683L47.8294 18.7907C47.937 19.004 47.9458 20.0751 47.934 20.3229C47.8706 21.6368 46.9885 22.3724 46.0564 23.1788C46.0291 23.206 46.0468 23.1939 45.9994 23.2084C46.0077 23.1557 46.3453 22.6597 46.4063 22.559C47.3052 21.0725 47.654 20.5101 47.8018 18.7683Z" fill="#000100"/>
<path d="M21.4947 24.6558C22.8226 24.6699 24.0471 25.2516 25.2485 25.7646C24.23 25.7855 23.1951 25.5036 22.2003 25.5094C20.9361 25.5167 19.8908 25.9319 19.0126 26.8351C19.5023 26.8342 20.3633 26.8945 20.8204 27.0444C20.6045 27.2433 20.2193 27.4701 19.9605 27.6363C20.48 27.7397 20.9184 27.8227 21.4234 27.9756C21.2787 28.0728 21.1804 28.1557 21.0466 28.2682C21.3663 28.4372 21.628 28.5021 21.9702 28.6098C22.1133 28.7876 22.1554 28.8618 22.3428 28.9903C22.4136 29.0246 22.4854 29.0567 22.5582 29.0866C23.2142 29.3516 23.9414 29.0611 24.5555 28.8067C22.6318 30.6792 20.3643 29.2565 18.6577 27.8992C18.919 27.7768 19.2273 27.6074 19.4881 27.4731C19.0448 27.418 18.4209 27.4027 18.0261 27.2005C17.6937 27.0304 18.4553 26.2297 18.6142 26.0403C19.3968 25.1076 20.2862 24.7276 21.4947 24.6558Z" fill="white"/>
<path d="M27.0371 28.7062L27.0648 28.7526C26.9355 29.7245 26.9153 30.4196 27.0512 31.3906C27.1326 31.9721 26.9938 32.7 26.8383 33.2713C27.7351 32.4532 28.0357 31.7786 28.3516 30.6404C28.4045 30.9187 28.4524 31.2953 28.4208 31.5745C28.2921 32.7104 27.8562 33.3725 28.1956 34.553C28.443 34.3075 28.6286 33.9957 28.852 33.7266C29.0931 33.4362 29.347 33.1802 29.5889 32.8879C29.0382 34.2417 28.7244 35.4822 28.9314 36.9558C28.9882 37.3598 29.0426 37.6821 29.1879 38.0713C28.5013 37.3362 28.2479 36.7224 28.0715 35.7325C28.0398 35.3973 27.9554 34.9789 27.8885 34.6499C27.4607 35.745 27.4232 36.2922 27.5942 37.4714C27.4814 37.3148 27.3736 37.1665 27.2747 37.0005C26.4519 35.6195 27.4015 34.3785 27.7283 33.0689C26.9625 33.74 26.634 34.2542 25.5655 34.527C26.3001 33.6104 26.4797 32.4513 26.4943 31.3154C26.0753 31.9654 25.8777 32.1981 25.2876 32.6968C25.4616 32.3019 25.7141 31.8527 25.8657 31.458C26.24 30.4837 26.5601 29.6429 27.0371 28.7062Z" fill="white"/>
<path d="M23.8549 30.7213C23.8508 30.7753 23.6092 31.3074 23.5604 31.4174C23.362 31.8659 23.2728 32.3111 23.1166 32.7678C23.5222 32.3577 23.9436 31.9636 24.3799 31.5867C23.6202 33.0159 23.5288 34.8138 23.9791 36.3488C24.0412 36.5602 24.1119 36.8477 24.2259 37.03L24.262 37.0217C24.3185 36.1844 24.6016 35.4707 24.9761 34.7367C24.881 35.9188 24.7958 36.6178 24.8043 37.8267C24.8297 38.3 24.8686 38.8217 24.8599 39.2918C23.2142 37.3644 22.6955 35.615 23.4798 33.1222C23.2738 33.339 22.3767 34.571 22.1731 34.4586C22.1267 34.3124 22.2458 33.8825 22.277 33.7186C22.51 32.4993 22.9933 31.6113 23.8549 30.7213Z" fill="white"/>
<path d="M39.9412 39.9134C39.9578 39.911 39.9744 39.9091 39.991 39.9078C40.5582 39.8553 40.9662 39.9983 41.3948 40.3554C41.3782 40.4209 41.361 40.4863 41.3431 40.5516C41.1057 41.4077 40.4747 41.8641 39.73 42.2881C39.9131 41.9955 39.9757 41.8178 40.0445 41.4832C39.7854 41.5241 39.4545 41.651 39.2005 41.7439C38.7344 41.9139 38.4429 42.0017 37.9517 42.063C38.1396 41.9147 38.3412 41.7182 38.5189 41.553C38.2432 41.6267 38.0392 41.6716 37.7581 41.723C37.5769 41.727 37.4532 41.7399 37.2722 41.7624C37.3801 41.6802 37.6331 41.5137 37.6427 41.3814C37.5134 41.3499 37.1454 41.3946 36.9548 41.3833C36.6584 41.3656 36.4667 41.3322 36.1758 41.2821C36.6798 41.1729 36.7144 41.1978 37.2275 40.9467C36.5666 40.929 36.0095 40.9084 35.7432 40.2116C36.9738 40.823 38.5904 40.0614 39.9412 39.9134Z" fill="white"/>
<path d="M16.0152 28.9485C16.0154 28.9737 15.6633 29.8723 15.6182 29.9894C15.283 30.8606 15.3121 31.6816 15.205 32.5825C15.477 32.2821 15.7225 31.9711 16.0054 31.6705C16.5385 31.1043 17.0643 30.6735 17.6787 30.2048C17.204 30.9495 16.8235 31.5233 16.2816 32.2286C15.574 33.097 14.9403 34.0307 14.225 34.866C14.2101 34.2896 14.1912 33.7373 14.244 33.1621C14.3859 31.6161 14.9722 30.1085 16.0152 28.9485Z" fill="white"/>
<path d="M31.6986 35.5888C31.7504 35.6533 31.6172 36.3236 31.5982 36.4577C31.4061 37.8115 31.6686 38.4764 31.9847 39.7003C32.3034 38.5278 32.3453 38.0189 32.9804 36.9024C32.761 37.8305 32.7178 38.7131 32.959 39.6412C33.0904 40.0839 33.2015 40.3629 33.3999 40.7773C32.8811 40.3431 32.7193 40.1712 32.3771 39.5756C32.2248 39.9118 32.1611 40.2753 31.9874 40.5928C30.7524 38.8209 30.7604 37.4776 31.6986 35.5888Z" fill="white"/>
<path d="M28.9633 27.9785C29.1672 28.0454 29.3725 28.1081 29.5791 28.1665C29.6191 28.9516 29.8113 29.4945 30.7202 29.6121C31.1944 29.6734 31.5218 29.4398 31.875 29.149C32.2841 29.4695 32.3982 29.7468 32.5746 30.2213C32.5996 30.3324 32.6385 30.4577 32.6698 30.5687C32.0577 30.37 31.7036 30.4021 31.0794 30.417C30.5404 30.4298 29.8939 30.3177 29.5045 29.9136C28.9515 29.3398 28.9578 28.7107 28.9633 27.9785Z" fill="white"/>
<path d="M25.8558 38.4218C25.8827 38.4461 25.8962 38.4691 25.9007 38.5077C25.9477 38.9186 26.0106 39.3295 26.1384 39.7246C26.3046 40.2386 26.6481 40.6624 26.924 41.1215C26.8851 40.332 26.8794 39.9605 27.0772 39.1876C27.1702 39.9492 27.027 40.1374 27.3525 41.0077C27.5347 41.4604 27.7627 41.8282 28.0483 42.2209C27.3112 41.9355 26.8599 41.6946 26.3598 41.0401C25.8621 40.3891 25.721 39.2224 25.8558 38.4218Z" fill="white"/>
<path d="M43.0303 37.6048C43.3435 37.593 43.4308 37.634 43.7295 37.737C43.563 38.4183 43.0571 38.989 42.4893 39.3767L42.2272 39.5073C42.1078 39.4768 41.9769 39.4497 41.902 39.352C41.9202 39.1992 42.0382 39.0747 42.0851 38.9334C42.2711 38.3699 42.3437 37.7488 43.0303 37.6048Z" fill="white"/>
<path d="M36.1844 25.0884C36.2251 25.1088 36.2267 25.1102 36.2575 25.1431C37.2416 26.1926 36.9396 27.6458 36.8652 28.9479L36.8411 28.9909L36.8101 28.9867C36.2024 27.9535 36.3397 27.6563 36.3357 26.548C36.3365 26.0575 36.2856 25.5683 36.1844 25.0884Z" fill="white"/>
<path d="M25.3373 43.4583C25.3544 43.4695 25.3706 43.4797 25.3847 43.4947C26.2428 44.4198 26.9018 45.9294 26.9965 47.1629C26.9265 47.1134 26.7397 46.7571 26.6864 46.657C26.1248 45.6001 25.6146 44.627 25.3373 43.4583Z" fill="white"/>
<path d="M32.9333 43.6148L32.9665 43.6534C32.9847 43.8003 32.9481 44.1349 32.9307 44.2926C32.8051 45.4119 32.0441 46.3788 31.1902 47.063C31.3357 46.7137 31.4736 46.4294 31.6116 46.0658C31.8092 45.5248 31.792 44.8291 31.8014 44.249C31.9815 44.7833 32.0683 45.2041 32.0016 45.766C32.5752 44.9364 32.7049 44.5986 32.9333 43.6148Z" fill="white"/>
<path d="M32.6116 25.1507C32.8873 25.3544 33.2358 25.6852 33.4532 25.946C34.2592 26.9134 34.3385 27.7226 34.2482 28.9072L34.2067 28.8999C33.9813 27.7795 33.8413 27.3141 33.2259 26.325C33.0792 26.0895 32.6924 25.4063 32.6116 25.1507Z" fill="white"/>
<path d="M25.6406 26.4041L25.6649 26.428C25.6568 26.5106 25.4357 26.8096 25.3695 26.9467C25.2161 27.2643 25.1351 27.491 25.0509 27.8335C25.2852 27.5005 25.4401 27.3 25.7067 26.999C25.426 27.7398 25.3392 28.0209 25.185 28.8132C25.1486 28.9553 25.1316 29.096 25.1109 29.2412C24.9655 28.8823 24.8349 28.597 24.7513 28.2128C24.6093 28.2372 24.4644 28.2587 24.3219 28.2813C24.6746 27.4935 25.0461 27.0137 25.6406 26.4041Z" fill="white"/>
<path d="M34.2162 45.6528L34.2419 45.6986C34.0995 46.673 32.969 48.1298 32.2897 48.8793C32.2282 48.8229 32.2716 48.6673 32.2948 48.5916C32.6436 47.4507 33.6112 46.65 34.2162 45.6528Z" fill="white"/>
<path d="M22.254 37.4265C22.2732 37.4415 22.3031 37.4653 22.3054 37.4931C22.36 38.168 22.4872 38.8423 22.6853 39.4891C22.7881 39.8242 23.4264 41.1327 23.2184 41.4085C22.2855 40.1128 22.053 38.9971 22.254 37.4265Z" fill="white"/>
<path d="M20.6396 33.4699C20.6765 33.6153 20.6378 34.0002 20.6204 34.1523C20.5966 34.3565 20.5605 34.5589 20.5124 34.7589C20.4042 35.2174 20.2462 35.6947 20.1261 36.1533C20.0786 36.3345 19.8906 37.1941 19.8002 37.2653C19.5407 35.8529 20.1791 34.7273 20.6396 33.4699Z" fill="white"/>
<path d="M36.6703 44.6061C36.6968 44.7223 36.6808 45.0457 36.6781 45.18C36.6572 46.1877 36.3408 46.8213 35.8228 47.6498C35.9318 47.1642 35.9545 46.699 35.9639 46.2034C35.9502 45.6525 35.8199 45.0842 35.6515 44.5622C35.988 45.0154 36.1963 45.4839 36.283 46.0393C36.3885 45.6415 36.5528 44.9538 36.6703 44.6061Z" fill="white"/>
<path d="M29.9516 27.2763C30.4398 27.1951 30.9752 27.3196 31.3768 27.6064C31.6988 27.8364 31.8697 28.1356 32.061 28.4692L31.7483 28.2365C31.4514 28.0512 31.0695 27.8594 30.7285 27.7775C30.1374 27.6355 29.9887 27.7397 29.4744 27.3723C29.6538 27.326 29.768 27.3042 29.9516 27.2763Z" fill="white"/>
<path d="M27.6885 19.997C27.9317 19.981 28.1657 19.9896 28.4088 19.9949C28.0962 20.1067 27.7724 20.1961 27.4637 20.314C27.0133 20.4861 26.5629 20.684 26.1197 20.8751L25.5873 21.0763C26.1226 20.4594 26.8752 20.0728 27.6885 19.997Z" fill="white"/>
<path d="M37.5254 27.9553C37.6225 28.6422 37.671 29.052 37.913 29.7261C37.9746 29.8971 38.3038 30.7236 38.321 30.8116L38.2867 30.811C37.8303 30.2933 37.4608 29.8082 37.4108 29.0894C37.3872 28.7477 37.4062 28.2768 37.5254 27.9553Z" fill="white"/>
<path d="M33.3776 32.7466C33.4025 32.825 33.3715 33.0585 33.3581 33.1479C33.2451 33.9054 32.5856 34.3538 31.9377 34.599C31.9167 34.526 32.0955 34.3945 32.157 34.3394C32.6778 33.8712 33.058 33.3652 33.3776 32.7466Z" fill="white"/>
<path d="M30.566 42.967C30.6738 43.0631 30.711 43.292 30.7186 43.436C30.7524 44.0699 30.3869 44.5247 29.9882 44.9667L29.9392 44.9932C29.9363 44.9019 30.1546 44.4929 30.2032 44.3673C30.3888 43.8884 30.5126 43.4826 30.566 42.967Z" fill="white"/>
<path d="M28.9985 24.0255C29.0238 24.0953 28.9284 24.5474 28.906 24.6541C28.8069 25.1263 28.8817 25.453 28.8882 25.8774L28.8657 25.8814L28.8186 25.7957C28.4941 25.0461 28.3866 24.6636 28.9985 24.0255Z" fill="white"/>
<path d="M30.2473 28.1706C30.374 28.1299 30.5106 28.1942 30.5598 28.3178C30.609 28.4415 30.5539 28.5821 30.4339 28.6395C30.3487 28.6802 30.2479 28.6701 30.1725 28.6133C30.0972 28.5564 30.0597 28.4623 30.0754 28.3692C30.0912 28.2761 30.1575 28.1995 30.2473 28.1706Z" fill="white"/>
<path d="M43.8084 25.4557C43.6946 25.4866 43.5169 25.5426 43.4082 25.5039C43.4684 25.4467 43.6186 25.4219 43.707 25.3997L43.8084 25.4557Z" fill="#BCBCBB"/>
</svg>
