<svg width="358" height="413" viewBox="0 0 358 413" fill="none" xmlns="http://www.w3.org/2000/svg">
<path d="M106.855 3.06641L107.026 5.42871C107.106 6.53385 106.856 7.48504 106.71 7.97363C106.535 8.55836 106.307 9.12182 106.091 9.6084C105.655 10.585 105.093 11.6308 104.567 12.5615C104.033 13.5068 103.469 14.4528 103.017 15.2148C102.521 16.0515 102.228 16.5546 102.098 16.8086C95.3117 30.1212 88.8093 45.7367 86.5261 61.1084C84.2525 76.4155 86.2165 90.9976 95.7243 102.982C97.2052 104.849 98.7323 106.447 100.462 108.113C102.314 107.183 104.222 106.315 105.232 105.836C111.002 103.102 116.353 101.077 121.779 99.6572C121.69 99.6203 121.601 99.5843 121.513 99.5469C120.913 99.2891 120.206 98.9528 119.553 98.5264C119.132 98.2513 117.722 97.3233 117.041 95.5605L116.178 93.3291L117.374 91.2578C118.9 88.6131 121.716 87.839 122.375 87.6348C135.896 83.439 150.236 83.2397 163.818 87.2998C163.748 87.1228 163.68 86.9347 163.625 86.7354L163.007 84.5234L165.46 80.8477L166.882 80.2686C168.215 79.7259 169.594 79.6348 170.524 79.626C171.555 79.6162 172.607 79.7112 173.545 79.835C175.421 80.0824 177.257 80.5043 178.365 80.8057C188.256 83.4969 197.175 88.2069 203.919 95.9258C204.391 95.0991 205.094 93.9335 205.793 93.0664C206.413 92.2972 207.469 91.1548 209.009 90.4492C210.729 89.6617 212.797 89.5507 214.759 90.5L215.149 90.7041L216.19 91.2881L216.854 92.2793C217.788 93.6729 218.232 95.2701 218.478 96.4873C218.725 97.7052 218.855 98.9882 218.926 100.188C228.195 98.303 238.905 98.7117 247.114 101.401C248.818 101.96 252.162 103.074 255.318 104.456C256.889 105.144 258.547 105.956 259.984 106.864C261.237 107.657 263.072 108.974 264.114 110.915L265.112 112.773L264.477 114.785L264.364 115.142L263.569 117.659L261.781 118.199C268.128 122.245 273.642 127.298 278.664 132.999C281.823 132.251 284.129 131.788 286.988 130.536C302.048 123.945 309.14 112.511 311.717 98.9697C314.265 85.5764 312.347 70.1819 308.818 55.8418L308.472 54.458C308.213 53.4373 307.259 50.752 306.206 47.5029C305.724 46.0158 305.241 44.4624 304.908 43.168C304.744 42.5322 304.586 41.8415 304.491 41.1963C304.444 40.877 304.396 40.4593 304.392 40.0049C304.39 39.6668 304.396 38.7587 304.805 37.7559L305.862 35.168L308.619 34.7119C310.102 34.4667 311.393 34.7775 312.235 35.0801C313.007 35.3576 313.699 35.734 314.276 36.1318L314.516 36.3037L314.519 36.3057C331.189 48.6689 345.386 68.2721 352.62 89.582C359.857 110.902 360.311 134.573 348.411 154.542C342.9 163.79 333.911 171.569 324.22 177.543C316.712 182.172 308.566 185.85 300.846 188.351C302.234 190.265 303.733 192.155 305.257 193.985L305.968 194.816C306.677 195.625 307.394 196.396 308.288 197.41C309.381 198.651 310.579 200.088 311.633 201.746L312.955 203.828L311.962 206.546L311.373 208.154L309.923 209.064C307.628 210.504 304.922 210.606 303.003 210.492C301.706 210.415 300.363 210.208 299.047 209.932C299.692 211.791 300.174 213.694 300.314 215.459C300.43 216.919 300.374 218.947 299.364 220.828C298.152 223.084 295.982 224.376 293.523 224.571C293.182 224.598 292.841 224.602 292.501 224.59C292.587 225.623 292.567 226.666 292.38 227.667C292.119 229.058 291.44 230.868 289.755 232.203C289.201 232.642 288.618 232.967 288.025 233.2C290.031 236.213 292.338 238.909 295.467 241.766L296.087 242.323L296.089 242.325C297.593 243.664 300.42 246.065 302.865 248.666C304.101 249.981 305.36 251.469 306.378 253.043C307.36 254.561 308.349 256.507 308.625 258.694L308.694 259.28C310.042 271.625 305.132 286.103 299.392 295.946L299.362 295.998L299.331 296.048C296.664 300.381 292.919 304 288.032 305.92C284.879 321.145 271.039 329.087 258.675 332.804C258.498 333.756 258.38 334.626 258.349 335.467C258.295 336.973 258.551 337.997 259.087 338.824L259.173 338.938C259.258 339.048 259.351 339.164 259.502 339.353C259.757 339.671 260.194 340.215 260.585 340.824C261.145 341.698 263.049 344.913 260.918 348.303L259.951 349.84L258.224 350.398C256.345 351.006 254.549 350.736 253.548 350.53C252.481 350.311 251.399 349.948 250.934 349.803L250.927 349.8C248.905 349.166 247.112 348.319 245.51 347.305C243.814 364.599 235.316 378.941 220.245 390.258C219.287 390.978 217.493 392.248 215.559 393.319C214.596 393.853 213.475 394.406 212.326 394.807C211.307 395.162 209.647 395.622 207.854 395.341L205.768 395.014L204.713 393.522C200.686 398.356 195.813 402.647 189.761 405.997L189.757 406C189.203 406.305 188.209 406.849 187.075 407.219C185.968 407.579 184.127 407.979 182.1 407.32L179.241 406.392L178.899 404.445C172.292 408.322 164.927 411.126 157.061 411.944C156.143 412.04 154.844 412.078 153.547 411.946C152.892 411.88 152.113 411.758 151.324 411.523C150.598 411.307 149.482 410.886 148.475 410L146.478 408.24L146.822 405.602C146.824 405.585 146.826 405.566 146.83 405.538C146.833 405.514 146.838 405.475 146.843 405.436C146.853 405.36 146.871 405.227 146.897 405.074C146.951 404.767 147.064 404.228 147.342 403.616C147.983 402.203 149.025 401.411 149.725 400.981L149.728 400.979C149.995 400.816 150.256 400.649 150.514 400.48C150.315 400.585 150.114 400.688 149.909 400.783C148.917 401.246 147.475 401.775 145.83 401.76L145.753 401.759L145.676 401.756C144.461 401.707 143.253 401.293 142.258 400.601C141.266 399.911 139.763 398.39 139.703 395.95C139.55 389.679 139.94 385.869 139.024 380.925L138.823 379.92C136.926 371.086 132.181 363.815 126.158 356.653C125.616 358.561 124.963 360.492 124.178 362.372C122.279 366.92 119.435 371.606 115.143 374.745L109.913 378.571L107.539 372.542C107.018 371.219 106.669 369.736 106.415 368.558C106.123 367.206 105.963 366.31 105.742 365.396L105.485 364.412C104.867 362.124 104.113 359.874 103.228 357.676L103.225 357.668C101.19 352.586 98.9036 348.447 96.3728 342.993C95.4038 340.905 94.4794 338.853 93.5993 336.815C93.2354 337.174 92.8669 337.437 92.5486 337.623C92.0907 337.89 91.6577 338.044 91.6316 338.054C91.546 338.086 91.5615 338.08 91.6052 338.062L89.8093 338.853L87.903 338.135C86.4283 337.58 85.2642 336.638 84.5466 335.995C83.7756 335.305 83.0925 334.561 82.6833 334.12L82.6794 334.115C75.1436 325.966 69.8704 316.205 66.6462 305.815C66.6602 306.915 66.7072 308.002 66.7956 309.08L66.865 309.843L67.031 311.343C67.1038 312.027 67.1823 312.836 67.2321 313.589C67.2835 314.364 67.3203 315.266 67.28 316.115C67.2599 316.539 67.2164 317.053 67.114 317.585C67.0263 318.04 66.8238 318.912 66.2751 319.795L65.1677 321.578L63.1189 322.036L62.528 322.169L61.2068 322.464L59.9177 322.053C58.9717 321.751 58.0899 321.358 57.2243 320.761C56.4446 320.223 55.8242 319.612 55.3952 319.188L55.3923 319.185C43.9625 307.867 36.6597 291.653 33.528 276.568C33.0508 274.27 32.6932 272.04 32.4245 269.849C32.2901 270.071 32.1536 270.293 32.0183 270.518L29.3093 275.014C28.9659 275.577 27.8558 277.487 26.6218 279.149C26.0151 279.967 25.2062 280.963 24.2722 281.775C23.8046 282.182 23.1412 282.688 22.3064 283.07C21.4758 283.451 20.1337 283.861 18.5427 283.537L16.6384 283.15L15.4958 281.579C13.8436 279.308 13.1974 276.242 12.863 274.135C12.4944 271.812 12.3439 269.415 12.2351 267.98C11.5317 258.708 12.1793 250.126 13.7478 241.685C13.1384 242.278 12.5579 242.839 12.0163 243.344C11.2029 244.103 10.4097 244.811 9.72336 245.357C9.38874 245.624 8.98354 245.928 8.55539 246.192C8.34207 246.324 8.03736 246.499 7.67062 246.658C7.37261 246.787 6.66402 247.073 5.73312 247.115L3.3757 247.223L0.42746 243.956L0.183319 242.524C-0.150035 240.568 0.0368431 238.462 0.228241 237.108C1.73817 226.441 6.00411 214.313 11.8923 203.282C14.9344 197.584 18.4695 192.067 22.3767 187.13C20.2471 187.327 18.0956 187.408 16.155 187.259C14.8413 187.158 13.4188 186.939 12.0876 186.468C10.794 186.01 9.13411 185.153 7.95871 183.479L6.65988 181.628L7.68918 177.376L8.83957 176.341C10.0339 175.266 11.9958 173.981 13.5368 172.984C15.3062 171.84 16.8302 170.884 17.7976 170.185C23.0209 166.407 28.4619 162.119 34.2907 158.271C32.4641 157.884 30.6613 157.403 29.1443 156.79C28.0704 156.356 26.6856 155.683 25.5632 154.6C24.3121 153.392 22.9579 151.158 23.7185 148.328L24.3025 146.155L26.3171 145.151C27.9473 144.339 29.8039 143.695 31.4011 143.173C33.1486 142.602 34.5246 142.193 35.7966 141.729C39.7259 140.296 43.6237 138.856 47.4978 137.372C41.5302 130.246 36.8187 122.13 34.4284 113.201C28.7137 91.8537 34.8288 67.9327 44.8513 49.8789L44.8601 49.8623L44.8698 49.8467C54.7272 32.3958 68.9013 17.7685 86.0349 7.36914L86.0456 7.3623C90.3363 4.77277 94.6674 2.24764 100.2 0.660156L102.501 0L106.855 3.06641ZM101.579 5.46582C96.7399 6.85427 92.9029 9.06448 88.6296 11.6436L87.1003 12.5889C71.3842 22.4765 58.3646 36.1224 49.2234 52.3057L48.7741 53.123C39.4142 70.3682 34.0718 92.5331 39.2585 111.908C44.4165 131.176 61.7484 146.876 78.782 156.262L80.0212 156.938C68.0265 155.694 59.4637 149.109 50.8112 141.458C46.3953 143.167 41.958 144.804 37.5105 146.427L36.4402 146.8C33.8624 147.666 30.7788 148.514 28.5466 149.626C27.477 153.605 46.9283 155.061 50.0612 155.035C47.3527 156.085 45.2359 157.535 42.7507 158.938C34.9202 163.355 28.005 168.974 20.7282 174.236L20.2859 174.549C17.9423 176.173 13.7502 178.647 12.1843 180.057L12.0515 180.606C14.866 184.616 32.7108 180.603 37.2419 179.106C21.3323 191.53 8.00162 217.863 5.17844 237.809C5.01024 238.998 4.90931 240.495 5.11203 241.685L5.50559 242.12C7.00911 242.052 21.0727 226.945 23.2058 224.879C18.6962 239.231 16.0739 252.489 17.2204 267.603C17.4523 270.658 17.7647 276.198 19.5388 278.637C21.014 278.937 23.4778 274.999 24.6325 273.088L25.0398 272.411C28.6716 266.454 31.8413 260.63 36.5827 255.459C36.7047 262.38 36.9918 268.656 38.4236 275.553C41.4113 289.944 48.3515 305.178 58.9099 315.632C59.7867 316.498 60.2689 316.917 61.4362 317.289L62.028 317.157C62.6408 316.171 62.0354 311.784 61.8904 310.344C60.9771 301.275 62.8267 292.128 63.406 283.105C61.8978 285.755 58.7649 291.824 57.0407 293.827C56.4326 292.713 55.8646 291.599 55.2907 290.468C46.3849 272.918 51.2851 251.673 62.8532 236.391C57.7127 249.874 54.854 263.369 56.8191 277.79C57.2617 281.041 58.0419 284.261 58.6667 287.505C59.2071 284.302 60.8596 280.263 61.8864 277.075C64.3666 269.38 67.3449 260.044 71.3152 252.951C70.0298 258.932 68.736 264.92 68.1384 271.082C66.091 292.209 71.7081 314.887 86.3503 330.721L87.0652 331.48C87.773 332.209 88.6086 332.976 89.4382 333.36L89.6638 333.456C89.976 333.319 90.1503 333.328 90.1775 333.044C90.5627 328.999 89.4484 323.623 89.3269 319.657C89.2138 315.958 89.0628 311.597 89.4763 308.147C92.0157 320.014 95.789 329.857 100.909 340.889C103.256 345.947 105.778 350.594 107.867 355.809C108.963 358.531 109.872 361.328 110.59 364.173C111.074 366.163 111.472 368.884 112.191 370.71C118.713 365.938 121.756 355.687 122.922 347.979C123.034 347.24 123.104 346.495 123.13 345.746C132.14 355.476 140.831 365.458 143.712 378.87C145.014 384.935 144.553 389.765 144.701 395.827C144.713 396.316 145.233 396.649 145.688 396.737L145.878 396.76C147.902 396.779 150.884 394.341 152.605 392.752L153.259 392.133C161.551 384.073 166.504 368.538 167.387 357.116C171.084 375.616 169.643 394.647 152.34 405.243C151.837 405.552 151.842 405.77 151.78 406.247C152.728 407.082 155.302 407.101 156.542 406.972C169.351 405.64 181.031 398.354 190.006 389.647C188.911 392.314 187.823 395.118 186.325 397.578C185.605 398.653 183.455 401.476 183.646 402.565C184.829 402.949 186.244 402.227 187.34 401.622C203.002 392.95 210.154 377.181 215.947 361.431C215.751 370.453 214.816 378.055 210.316 386.015C209.726 387.06 208.071 389.613 208.629 390.401C210.876 390.754 215.528 387.547 217.242 386.259C234.806 373.07 242.595 355.762 240.494 333.898C243.136 339.192 246.635 343.215 252.423 345.029C253.593 345.394 255.218 345.968 256.445 345.705L256.685 345.641C257.515 344.321 255.628 342.679 254.893 341.548C252.367 337.653 253.473 332.998 254.413 328.799C267.92 325.391 282.096 317.448 283.565 302.048C288.368 301.064 292.11 298.049 294.814 293.839L295.073 293.428C300.604 283.943 305.047 270.288 303.664 259.319C303.098 254.824 296.018 248.956 292.764 246.06C285.334 239.452 281.944 233.622 277.809 224.737C290.67 234.996 288.704 222.975 283.783 215.332C302.148 228.162 294.588 208.703 288.646 200.918C292.355 202.926 303.158 207.058 307.084 204.935L307.265 204.829L307.413 204.427C305.937 202.103 303.993 200.151 302.182 198.082L301.417 197.187C298.383 193.544 295.306 189.507 292.958 185.396C310.746 181.093 333.482 168.999 343.641 152.759L344.116 151.981C365.979 115.293 343.163 63.7757 311.541 40.3223C310.985 39.9107 310.142 39.5285 309.434 39.6455L309.415 39.707C309.069 41.1367 312.706 50.8204 313.318 53.2256C320.952 83.2333 322.621 120.398 288.994 135.116C284.829 136.94 281.129 137.464 276.879 138.6L276.042 137.606C267.356 127.418 257.456 119.557 244.306 115.673C247.969 115.13 251.588 114.601 255.277 114.293C256.511 114.19 257.856 114.078 259.08 113.777L259.596 113.637L259.709 113.279C258.141 110.36 248.936 107.259 245.557 106.152C236.308 103.122 223.199 103.324 213.869 106.784C214.056 103.958 214.268 97.8222 212.843 95.2959L212.701 95.0635C210.439 93.7925 208.607 97.8988 207.647 99.5C206.543 101.348 205.53 103.293 204.44 105.163C198.493 95.0828 189.235 89.1589 178.133 85.9336L177.052 85.6299C175.164 85.116 170.604 84.1522 168.766 84.9004L168.44 85.3887C168.724 86.4025 172.305 89.4824 173.245 90.4434L174.275 91.5068C176.674 94.0156 179.008 96.7233 180.552 99.8174C175.447 97.3076 170.825 94.9716 165.413 93.0723L164.319 92.6982C151.152 88.3118 137.104 88.2995 123.857 92.4102L123.543 92.5117C122.809 92.7608 122.081 93.1052 121.705 93.7568C122.283 95.2528 131.332 97.2981 133.408 97.9932C136.891 99.1598 139.951 100.414 143.268 101.976C129.744 102.137 119.649 104.538 107.374 110.354L105.569 111.201C103.546 112.15 101.049 113.345 99.6911 114.248C96.9705 111.74 94.5727 109.476 92.2673 106.661L91.8073 106.091C70.8486 79.6727 83.4725 42.7098 96.9997 15.8105L97.6443 14.5381C98.4943 12.8704 101.928 7.6875 102.039 5.94727V5.79004L101.579 5.46582Z" fill="white"/>
<path d="M100.812 4.99353L101.272 5.31769C101.385 6.87753 97.7548 12.3439 96.8773 14.0654C83.1146 41.0618 69.7496 78.7808 91.0409 105.618C93.488 108.702 96.0223 111.101 98.9243 113.776C100.735 112.572 104.57 110.847 106.607 109.882C118.882 104.066 128.977 101.664 142.501 101.503C139.184 99.9416 136.124 98.6878 132.641 97.5211C130.565 96.826 121.516 94.7809 120.938 93.285C121.368 92.54 122.257 92.1965 123.09 91.9379C136.337 87.8271 150.385 87.8391 163.552 92.2256C169.444 94.1882 174.339 96.6681 179.786 99.3454C178.02 95.809 175.224 92.7775 172.478 89.9707C171.538 89.0097 167.957 85.9304 167.674 84.9166L168 84.4276C169.838 83.6794 174.397 84.6436 176.286 85.1575C187.867 88.3087 197.534 94.2849 203.673 104.69C204.763 102.82 205.776 100.876 206.88 99.0273C207.84 97.4261 209.672 93.3198 211.934 94.5907C213.515 96.9509 213.295 103.394 213.102 106.311C222.432 102.851 235.541 102.65 244.791 105.68C248.169 106.787 257.375 109.888 258.942 112.807L258.829 113.164C257.475 113.573 255.921 113.702 254.511 113.82C250.821 114.129 247.202 114.658 243.539 115.201C257.113 119.21 267.225 127.457 276.112 138.127C280.363 136.991 284.062 136.468 288.227 134.644C321.855 119.926 320.185 82.7608 312.551 52.7529C311.929 50.3095 308.186 40.3545 308.668 39.1729C309.375 39.0559 310.218 39.4381 310.773 39.8496C342.396 63.3031 365.212 114.821 343.349 151.51C333.438 168.14 310.262 180.553 292.191 184.924C294.538 189.035 297.616 193.072 300.65 196.715C302.662 199.129 304.959 201.299 306.646 203.955L306.499 204.356C302.736 206.717 291.647 202.486 287.879 200.446C293.821 208.232 301.382 227.69 283.017 214.86C287.938 222.503 289.904 234.523 277.043 224.265C281.178 233.15 284.566 238.979 291.997 245.587C295.251 248.484 302.332 254.352 302.897 258.847C304.28 269.816 299.837 283.47 294.306 292.955C291.583 297.379 287.757 300.56 282.799 301.576C281.33 316.976 267.154 324.918 253.646 328.327C252.706 332.525 251.599 337.18 254.126 341.075C254.861 342.206 256.748 343.849 255.918 345.169C254.67 345.573 252.904 344.946 251.656 344.557C245.868 342.742 242.369 338.72 239.727 333.426C241.828 355.29 234.04 372.598 216.475 385.787C214.762 387.075 210.11 390.282 207.862 389.929C207.304 389.141 208.959 386.587 209.549 385.542C214.049 377.582 214.984 369.98 215.18 360.958C209.388 376.708 202.236 392.478 186.573 401.15C185.477 401.755 184.062 402.477 182.879 402.093C182.688 401.003 184.838 398.18 185.558 397.105C187.056 394.645 188.144 391.842 189.238 389.175C180.263 397.882 168.584 405.168 155.775 406.5C154.535 406.63 151.961 406.61 151.013 405.775C151.076 405.298 151.07 405.08 151.573 404.771C168.876 394.175 170.317 375.144 166.621 356.644C165.737 368.066 160.785 383.6 152.492 391.66C150.988 393.122 147.425 396.31 145.111 396.288C144.624 396.268 143.948 395.913 143.934 395.355C143.787 389.293 144.247 384.462 142.945 378.398C140.064 364.986 131.374 355.004 122.363 345.274C122.337 346.023 122.267 346.768 122.154 347.507C120.989 355.214 117.947 365.466 111.424 370.237C110.705 368.411 110.307 365.691 109.823 363.7C109.106 360.855 108.196 358.059 107.1 355.337C105.011 350.122 102.489 345.475 100.142 340.416C95.0217 329.384 91.249 319.542 88.7096 307.675C88.2961 311.124 88.4471 315.485 88.5603 319.184C88.6817 323.151 89.7964 328.527 89.411 332.572C89.3839 332.856 89.2096 332.846 88.8974 332.983C87.6938 332.53 86.4527 331.186 85.5833 330.249C70.941 314.415 65.3245 291.736 67.372 270.609C67.9697 264.447 69.2631 258.461 70.5485 252.479C66.5783 259.572 63.5996 268.908 61.1194 276.603C60.0926 279.791 58.4407 283.83 57.9004 287.033C57.2755 283.789 56.4953 280.569 56.0526 277.318C54.0876 262.897 56.9455 249.402 62.0861 235.919C50.5179 251.201 45.618 272.446 54.5239 289.995C55.0977 291.126 55.6658 292.24 56.2739 293.354C57.9981 291.352 61.131 285.282 62.6391 282.633C62.0599 291.655 60.2104 300.802 61.1236 309.871C61.2686 311.311 61.8738 315.698 61.261 316.685L60.6697 316.817C59.5021 316.445 59.02 316.026 58.143 315.159C47.5845 304.705 40.6444 289.471 37.6567 275.08C36.2249 268.183 35.9375 261.908 35.8156 254.986C31.0741 260.157 27.9052 265.982 24.2733 271.939C23.4345 273.315 20.4578 278.508 18.7719 278.165C16.9976 275.726 16.6857 270.186 16.4538 267.13C15.3072 252.017 17.9294 238.759 22.439 224.407C20.306 226.473 6.2425 241.579 4.73897 241.648L4.34552 241.212C4.1428 240.022 4.24392 238.526 4.41212 237.336C7.23531 217.39 20.5653 191.058 36.4749 178.635C31.9438 180.131 14.0987 184.143 11.2846 180.134L11.4176 179.585C13.0878 178.081 17.7458 175.366 19.9615 173.764C27.2383 168.501 34.1529 162.883 41.9834 158.466C44.469 157.063 46.5861 155.613 49.2949 154.563C46.1635 154.589 26.7104 153.134 27.7801 149.154C30.3313 147.883 33.9942 146.957 36.7435 145.954C41.1911 144.332 45.6288 142.695 50.0449 140.986C58.6973 148.637 67.2594 155.221 79.2541 156.466L78.0147 155.79C60.9811 146.404 43.6495 130.704 38.4916 111.436C33.2225 91.7531 38.8197 69.1913 48.4561 51.8331C57.8923 35.1278 71.4613 21.1262 87.8627 11.1712C92.1361 8.59211 95.9731 6.38199 100.812 4.99353Z" fill="#000100"/>
<path d="M266.037 204.171C266.28 204.678 267.195 211.243 267.477 212.527C269.294 220.818 272.077 229.347 276.21 236.783C278.641 241.202 282.054 244.613 285.325 248.317C288.498 251.909 294.561 254.678 296.441 258.786C298.953 264.278 290.712 267.179 287.757 270.423C285.409 273.001 284.282 274.767 282.752 278.047C282.97 272.144 284.304 270.007 286.983 264.895C285.587 265.157 282.03 266.283 280.485 266.795C275.045 268.592 270.104 265.975 264.781 263.979C265.386 265.26 266.059 267.145 266.424 268.462C267.408 272.012 266.921 274.098 265.107 277.102C258.443 288.142 258.991 288.223 246.424 291.264C239.931 292.835 232.353 294.473 226.097 290.911C222.675 288.962 220.809 285.794 219.901 282.102C220.745 279.467 222.388 276.877 223.73 274.421C215.719 278.593 213.91 282.498 210.621 290.556C209.956 285.762 212.379 275.119 214.58 270.67C215.393 269.028 218.703 263.734 218.618 262.735C217.915 262.66 217.925 262.855 217.159 263.352C212.945 266.144 210.027 269.045 206.912 272.955C208.489 266.516 211.187 260.405 214.887 254.903C209.96 257.249 206.719 260.216 202.73 263.808C202.897 254.467 205.984 247.563 211.706 240.316C213.329 238.262 216.191 234.523 217.386 232.29L217.538 232.001C218.473 235.365 218.885 240.735 219.112 244.258C223.27 238.171 224.374 230.505 222.104 223.494C219.93 216.898 218.486 216.866 217.658 209.054C222.094 215.845 224.802 219.357 232.887 222.064C229.697 215.156 229.05 212.635 229.731 205.152C236.993 216.484 246.096 224.37 259.344 227.898C256.934 222.203 254.753 216.023 254.356 209.846C257.779 215.218 260.088 217.589 265.239 221.016C264.306 214.784 264.265 210.186 266.037 204.171Z" fill="white"/>
<path d="M238.383 256.255C243.307 255.741 249.653 257.988 253.644 260.796C258.323 264.089 264.167 269.777 261.625 276.094C261.525 276.343 261.013 276.265 260.773 276.272C258.114 275.127 253.969 273.217 251.129 273.91C240.491 276.5 236.53 267.12 237.193 258.277C237.272 257.241 237.517 256.904 238.383 256.255Z" fill="#000100"/>
<path d="M243.552 243.543C252.973 243.029 261.711 249.331 270.084 252.707C275.236 254.781 278.688 254.431 283.634 252.205C279.285 256.962 276.342 258.397 269.857 257.435C265.844 256.453 262.761 254.994 259.104 253.131C247.89 247.421 241.165 245.575 228.918 249.46C234.272 245.69 236.895 244.108 243.552 243.543Z" fill="#000100"/>
<path d="M206.606 115.727C218.745 112.969 224.482 112.339 236.784 115.525C233.389 116.058 229.506 116.714 226.217 117.66C243.449 120.921 257.708 130.746 269.553 143.311C271.517 145.394 273.373 147.639 275.339 149.675C270.993 147.977 268.361 147.227 264.167 144.858C261.474 143.336 257.95 140.63 255.468 139.387C262.125 146.266 266.081 152.144 270.794 160.574C276.014 169.912 281.636 181.968 288.934 189.927C281.974 187.245 277.192 184.314 271.906 178.888C271.703 190.285 272.317 196.313 277.358 206.816C269.191 199.384 266.914 193.067 264.926 182.636C262.835 190.902 262.154 194.918 258.119 202.618C260.737 182.377 257.018 165.491 241.804 150.899C249.053 166.101 250.032 169.583 250.53 186.337C249.087 181.531 247.459 176.322 245.256 171.806C240.68 162.431 232.449 153.39 224.171 147.09C220.084 143.979 216.037 141.688 211.814 138.347C219.139 150.741 221.779 159.766 221.105 174.399C220.924 178.36 220.581 182.817 219.582 186.669C219.524 186.9 219.46 187.13 219.396 187.359C213.672 162.819 195.411 161.305 188.306 140.381C184.503 150.598 184.823 157.479 189.265 167.707C181.07 161.522 173.081 155.366 168.809 145.652C164.91 136.783 165.613 130.843 170.815 122.922C168.957 135.846 172.348 142.038 180.203 151.869C177.197 140.061 180.228 131.37 187.11 121.629C192.442 128.813 196.146 133.084 204.535 137.144C203.159 134.021 202.111 130.68 201.1 127.419C215.954 132.655 223.284 136.773 234.74 147.254C228.96 136.863 222.699 130.299 212.311 124.28C210.744 123.371 208.491 122.062 206.817 121.501L206.888 121.354C208.812 121.459 210.555 122.089 212.409 122.458C221.164 124.199 232.101 128.002 239.566 133.035L240.452 132.525C232.049 123.057 219.178 116.914 206.606 115.727Z" fill="white"/>
<path d="M240.452 132.525L243.03 135.341L239.566 133.035L240.452 132.525Z" fill="#000100"/>
<path d="M88.9388 17.2098C88.951 17.2701 89.0627 17.6833 89.0414 17.7211C78.1332 37.1739 69.983 59.8336 73.1511 82.4423C74.3714 91.1494 78.5088 102.143 83.9415 109.163C94.6062 122.944 111.883 130.936 128.907 133.124C133.613 133.729 138.614 133.769 143.334 133.751C136.59 137.696 132.7 138.212 125.064 138.144C131.768 140.669 139.655 140.484 146.624 139.431C138.566 143.106 134.208 144.257 125.534 143.855C134.395 147.408 140.031 146.216 148.674 146.094C132.204 151.178 120.42 149.078 104.567 143.563C103.956 143.336 103.35 143.1 102.747 142.855C85.1487 135.695 71.1829 124.362 63.6364 106.588C64.6221 113.791 67.7518 120.503 71.1337 126.82C59.1953 115.199 54.4081 99.4074 55.053 83.099C55.6717 67.4494 60.6369 55.3335 68.3646 41.9555C62.3201 47.3783 57.3292 54.5434 53.746 61.77C52.5596 64.1627 51.6297 66.6228 50.3676 68.9642L50.4324 68.6547C55.5561 44.9986 69.0499 29.966 88.9388 17.2098Z" fill="white"/>
<path d="M320.545 55.9465C334.329 71.2007 344.081 91.8571 343.525 112.856C342.81 139.788 322.964 158.321 298.064 165.424L297.136 164.913C305.252 162.013 310.529 158.479 317.36 153.237C314.718 154.011 312.247 155.806 309.726 156.936C302.613 160.122 295.023 162.118 287.277 162.96C285.676 163.134 283.719 163.331 282.174 163.62C280.703 161.287 279.195 158.977 277.65 156.692C280.245 157.685 286.332 159.779 289.407 159.305C289.921 159.226 290.016 158.704 290.127 158.329C289.585 155.886 284.914 151.887 283.161 149.56C281.805 147.762 280.994 146.874 279.716 144.767C296.549 141.212 307.098 133.975 316.975 119.696C327.16 104.976 327.04 84.931 323.387 67.8499C322.503 63.8672 321.558 59.8987 320.545 55.9465Z" fill="white"/>
<path d="M334.589 104.261L334.841 104.466C335.825 106.417 335.906 116.214 335.798 118.48C335.218 130.497 327.15 137.224 318.625 144.6C318.376 144.849 318.537 144.738 318.104 144.871C318.18 144.389 321.267 139.852 321.825 138.931C330.047 125.336 333.237 120.192 334.589 104.261Z" fill="#000100"/>
<path d="M93.9856 158.108C106.13 158.237 117.33 163.557 128.318 168.249C119.003 168.44 109.537 165.862 100.439 165.915C88.8766 165.982 79.3163 169.78 71.2845 178.04C75.763 178.031 83.6379 178.584 87.8179 179.954C85.8436 181.773 82.3204 183.847 79.9534 185.367C84.7051 186.314 88.7143 187.073 93.3331 188.47C92.0102 189.36 91.1112 190.118 89.8873 191.147C92.8108 192.692 95.2048 193.286 98.3345 194.271C99.6427 195.898 100.028 196.576 101.742 197.751C102.389 198.065 103.046 198.358 103.712 198.632C109.712 201.055 116.363 198.399 121.979 196.072C104.385 213.198 83.6467 200.186 68.038 187.772C70.4286 186.653 73.2481 185.103 75.6328 183.875C71.5788 183.371 65.8727 183.231 62.2616 181.382C59.2215 179.826 66.1871 172.503 67.6406 170.77C74.7979 162.241 82.9323 158.764 93.9856 158.108Z" fill="white"/>
<path d="M144.676 195.153L144.93 195.578C143.747 204.467 143.562 210.824 144.805 219.705C145.549 225.023 144.28 231.681 142.858 236.905C151.06 229.423 153.809 223.254 156.698 212.843C157.183 215.389 157.621 218.833 157.332 221.387C156.155 231.776 152.168 237.831 155.272 248.628C157.534 246.383 159.232 243.531 161.275 241.07C163.481 238.414 165.802 236.073 168.015 233.399C162.978 245.781 160.108 257.126 162.002 270.604C162.521 274.299 163.019 277.247 164.348 280.807C158.068 274.083 155.75 268.469 154.137 259.415C153.847 256.35 153.075 252.523 152.463 249.514C148.551 259.53 148.207 264.535 149.771 275.32C148.74 273.888 147.754 272.531 146.849 271.013C139.324 258.382 148.009 247.032 150.998 235.054C143.994 241.192 140.99 245.896 131.217 248.39C137.936 240.007 139.578 229.406 139.712 219.017C135.879 224.962 134.072 227.09 128.675 231.651C130.267 228.04 132.576 223.932 133.963 220.321C137.386 211.41 140.313 203.72 144.676 195.153Z" fill="white"/>
<path d="M115.572 213.583C115.534 214.077 113.324 218.943 112.879 219.95C111.064 224.052 110.248 228.123 108.82 232.3C112.529 228.549 116.383 224.945 120.374 221.498C113.425 234.57 112.59 251.013 116.708 265.051C117.275 266.986 117.923 269.615 118.965 271.283L119.295 271.207C119.812 263.548 122.401 257.021 125.826 250.308C124.956 261.119 124.177 267.512 124.255 278.569C124.488 282.897 124.843 287.669 124.764 291.969C109.712 274.341 104.968 258.341 112.141 235.542C110.258 237.525 102.052 248.792 100.19 247.764C99.7656 246.427 100.855 242.495 101.141 240.997C103.272 229.844 107.692 221.723 115.572 213.583Z" fill="white"/>
<path d="M262.698 297.654C262.85 297.632 263.001 297.614 263.153 297.602C268.341 297.122 272.072 298.43 275.992 301.696C275.84 302.296 275.684 302.893 275.52 303.49C273.348 311.32 267.577 315.495 260.766 319.373C262.441 316.697 263.014 315.071 263.643 312.011C261.273 312.385 258.247 313.546 255.923 314.395C251.661 315.95 248.994 316.753 244.502 317.314C246.22 315.957 248.064 314.16 249.69 312.65C247.168 313.323 245.302 313.734 242.732 314.204C241.074 314.241 239.943 314.359 238.288 314.564C239.274 313.813 241.588 312.29 241.676 311.08C240.494 310.791 237.127 311.2 235.384 311.097C232.674 310.936 230.921 310.63 228.259 310.172C232.87 309.173 233.185 309.401 237.879 307.104C231.834 306.943 226.739 306.754 224.303 300.381C235.558 305.973 250.343 299.008 262.698 297.654Z" fill="white"/>
<path d="M43.8694 197.37C43.8713 197.6 40.651 205.818 40.239 206.889C37.1727 214.858 37.4388 222.366 36.46 230.606C38.9472 227.859 41.1926 225.014 43.7805 222.265C48.6559 217.086 53.4647 213.146 59.0839 208.86C54.7422 215.67 51.2626 220.918 46.3062 227.369C39.8345 235.312 34.0383 243.851 27.4971 251.49C27.3599 246.219 27.1876 241.168 27.6704 235.906C28.968 221.768 34.3304 207.979 43.8694 197.37Z" fill="white"/>
<path d="M187.31 258.101C187.784 258.691 186.566 264.821 186.392 266.048C184.634 278.429 187.035 284.511 189.927 295.705C192.841 284.981 193.225 280.327 199.033 270.115C197.027 278.603 196.632 286.675 198.838 295.164C200.04 299.213 201.056 301.765 202.87 305.555C198.125 301.583 196.645 300.011 193.516 294.564C192.123 297.639 191.54 300.964 189.951 303.868C178.656 287.662 178.73 275.376 187.31 258.101Z" fill="white"/>
<path d="M162.292 188.497C164.158 189.11 166.035 189.683 167.925 190.216C168.291 197.397 170.048 202.363 178.361 203.438C182.699 203.999 185.692 201.862 188.923 199.203C192.665 202.134 193.708 204.67 195.322 209.01C195.551 210.026 195.906 211.172 196.192 212.187C190.594 210.37 187.356 210.663 181.647 210.799C176.717 210.917 170.804 209.892 167.242 206.195C162.185 200.948 162.243 195.194 162.292 188.497Z" fill="white"/>
<path d="M133.873 284.012C134.119 284.234 134.243 284.445 134.283 284.798C134.714 288.556 135.288 292.314 136.457 295.928C137.978 300.629 141.119 304.504 143.643 308.703C143.286 301.483 143.235 298.085 145.044 291.016C145.894 297.982 144.585 299.703 147.562 307.663C149.228 311.803 151.314 315.167 153.926 318.759C147.183 316.149 143.056 313.945 138.482 307.959C133.931 302.004 132.64 291.335 133.873 284.012Z" fill="white"/>
<path d="M290.949 276.539C293.814 276.431 294.612 276.806 297.344 277.749C295.821 283.98 291.194 289.2 286.001 292.745L283.604 293.94C282.512 293.66 281.315 293.413 280.629 292.519C280.796 291.121 281.876 289.983 282.304 288.69C284.006 283.537 284.669 277.856 290.949 276.539Z" fill="white"/>
<path d="M228.338 162.065C228.71 162.251 228.725 162.264 229.006 162.565C238.006 172.164 235.245 185.455 234.564 197.364L234.344 197.757L234.059 197.719C228.502 188.269 229.758 185.551 229.721 175.415C229.728 170.929 229.263 166.454 228.338 162.065Z" fill="white"/>
<path d="M129.129 330.075C129.285 330.177 129.434 330.27 129.563 330.408C137.41 338.869 143.437 352.675 144.304 363.957C143.663 363.504 141.956 360.246 141.468 359.33C136.332 349.664 131.665 340.764 129.129 330.075Z" fill="white"/>
<path d="M198.603 331.507L198.906 331.86C199.073 333.204 198.737 336.264 198.578 337.706C197.43 347.943 190.47 356.786 182.66 363.044C183.991 359.849 185.252 357.249 186.514 353.924C188.321 348.976 188.164 342.613 188.25 337.307C189.897 342.194 190.691 346.043 190.081 351.182C195.327 343.594 196.513 340.505 198.603 331.507Z" fill="white"/>
<path d="M195.66 162.635C198.181 164.498 201.369 167.523 203.357 169.909C210.729 178.756 211.454 186.157 210.629 196.992L210.249 196.925C208.188 186.678 206.907 182.421 201.279 173.375C199.937 171.221 196.399 164.972 195.66 162.635Z" fill="white"/>
<path d="M131.905 174.099L132.126 174.317C132.052 175.072 130.031 177.807 129.425 179.061C128.022 181.966 127.282 184.039 126.511 187.171C128.654 184.126 130.071 182.292 132.509 179.539C129.941 186.315 129.148 188.886 127.737 196.131C127.405 197.431 127.249 198.718 127.06 200.046C125.731 196.763 124.536 194.154 123.771 190.641C122.473 190.864 121.147 191.061 119.844 191.267C123.07 184.061 126.467 179.674 131.905 174.099Z" fill="white"/>
<path d="M210.335 350.146L210.57 350.565C209.268 359.477 198.928 372.801 192.716 379.656C192.153 379.139 192.549 377.717 192.762 377.024C195.952 366.589 204.802 359.266 210.335 350.146Z" fill="white"/>
<path d="M100.931 274.909C101.107 275.046 101.381 275.264 101.401 275.518C101.901 281.69 103.064 287.858 104.876 293.773C105.816 296.838 111.654 308.806 109.752 311.328C101.22 299.478 99.093 289.273 100.931 274.909Z" fill="white"/>
<path d="M86.1653 238.722C86.5029 240.051 86.1484 243.572 85.9893 244.963C85.7716 246.831 85.4418 248.682 85.0018 250.511C84.0125 254.705 82.5667 259.07 81.4682 263.264C81.0343 264.922 79.3146 272.783 78.4883 273.435C76.1148 260.517 81.9537 250.222 86.1653 238.722Z" fill="white"/>
<path d="M232.781 340.573C233.024 341.636 232.877 344.593 232.852 345.823C232.661 355.038 229.768 360.833 225.03 368.411C226.026 363.97 226.235 359.714 226.32 355.183C226.195 350.144 225.003 344.946 223.463 340.172C226.541 344.317 228.445 348.601 229.239 353.682C230.203 350.043 231.707 343.754 232.781 340.573Z" fill="white"/>
<path d="M171.332 182.075C175.796 181.332 180.694 182.472 184.366 185.095C187.311 187.198 188.875 189.934 190.624 192.986L187.765 190.857C185.049 189.162 181.556 187.408 178.437 186.659C173.031 185.36 171.671 186.314 166.967 182.953C168.608 182.53 169.653 182.33 171.332 182.075Z" fill="white"/>
<path d="M150.634 115.499C152.858 115.353 154.998 115.432 157.222 115.48C154.363 116.503 151.401 117.32 148.578 118.399C144.459 119.972 140.339 121.783 136.286 123.531L131.416 125.371C136.312 119.728 143.196 116.192 150.634 115.499Z" fill="white"/>
<path d="M240.601 188.285C241.49 194.568 241.933 198.316 244.147 204.481C244.71 206.044 247.721 213.603 247.878 214.408L247.565 214.403C243.39 209.669 240.011 205.231 239.554 198.658C239.338 195.533 239.512 191.225 240.601 188.285Z" fill="white"/>
<path d="M202.667 232.107C202.895 232.824 202.611 234.959 202.488 235.777C201.455 242.705 195.423 246.806 189.498 249.049C189.306 248.381 190.94 247.179 191.503 246.674C196.266 242.392 199.744 237.765 202.667 232.107Z" fill="white"/>
<path d="M176.952 325.582C177.938 326.461 178.278 328.554 178.348 329.871C178.657 335.669 175.314 339.829 171.668 343.871L171.22 344.113C171.193 343.279 173.189 339.537 173.634 338.389C175.331 334.009 176.464 330.297 176.952 325.582Z" fill="white"/>
<path d="M162.617 152.344C162.847 152.982 161.975 157.117 161.77 158.093C160.864 162.412 161.548 165.4 161.607 169.281L161.402 169.318L160.971 168.534C158.003 161.678 157.02 158.18 162.617 152.344Z" fill="white"/>
<path d="M174.036 190.255C175.193 189.882 176.441 190.47 176.891 191.6C177.34 192.729 176.837 194.014 175.741 194.538C174.962 194.911 174.042 194.818 173.353 194.299C172.664 193.78 172.322 192.92 172.465 192.069C172.609 191.219 173.215 190.519 174.036 190.255Z" fill="white"/>
<path d="M298.064 165.424C297.024 165.707 295.398 166.219 294.404 165.865C294.955 165.342 296.328 165.115 297.136 164.912L298.064 165.424Z" fill="#BCBCBB"/>
</svg>
