<svg width="455" height="455" viewBox="0 0 455 455" fill="none" xmlns="http://www.w3.org/2000/svg">
<g clip-path="url(#clip0_16_167)">
<path d="M215.047 0H240.212C242.472 0.761828 246.918 0.82537 249.396 1.00078C252.132 1.21427 254.862 1.4923 257.585 1.83465C266.112 2.87423 276.807 5.07143 285.08 7.29475C346.375 23.3351 398.22 64.178 428.163 120.014C439.905 141.93 447.997 165.613 452.122 190.133C452.797 194.165 453.34 198.218 453.75 202.286C454.003 204.667 454.388 212.378 455 213.914V241.398C454.288 243.621 454.182 247.714 453.997 250.135C453.795 252.572 453.525 255.005 453.19 257.427C451.867 267.408 449.88 277.288 447.24 287.003C431.255 345.805 392.38 395.753 339.302 425.682C317.145 438.207 293.04 446.92 267.995 451.46C263.735 452.237 259.948 452.845 255.735 453.4C252.908 453.775 244.643 454.295 242.645 455H211.834C209.701 454.275 203.322 453.825 200.736 453.515C196.156 452.948 191.593 452.245 187.053 451.415C168.275 448 149.998 442.25 132.647 434.297C72.11 406.61 26.7642 353.763 8.59275 289.723C6.22512 281.348 3.78823 270.835 2.49479 262.18C1.98348 258.625 1.53907 255.062 1.16181 251.492C0.936265 249.207 0.758523 242.342 0 240.593V214.816C0.586335 213.464 1.01065 204.409 1.2531 202.137C1.73057 197.83 2.32218 193.536 3.0273 189.26C7.8484 161.366 17.7882 134.605 32.345 110.326C63.3095 58.6165 113.572 21.3474 172.046 6.73845C180.993 4.48295 189.846 2.92885 198.967 1.66551C203.607 1.02282 210.862 1.17215 215.047 0Z" fill="#000100"/>
<path d="M155.839 31.0729L156.01 33.4352C156.09 34.5403 155.84 35.4915 155.694 35.9801C155.519 36.5648 155.292 37.1283 155.075 37.6149C154.639 38.5915 154.077 39.6373 153.551 40.568C153.017 41.5133 152.453 42.4592 152.001 43.2213C151.505 44.058 151.212 44.5611 151.082 44.8151C144.296 58.1277 137.793 73.7432 135.51 89.1149C133.237 104.422 135.201 119.004 144.708 130.989C146.189 132.855 147.716 134.453 149.446 136.12C151.299 135.19 153.206 134.321 154.216 133.842C159.986 131.108 165.337 129.084 170.763 127.664C170.674 127.627 170.585 127.591 170.497 127.553C169.897 127.296 169.19 126.959 168.538 126.533C168.116 126.258 166.706 125.33 166.025 123.567L165.163 121.336L166.358 119.264C167.884 116.62 170.701 115.845 171.359 115.641C184.88 111.445 199.22 111.246 212.802 115.306C212.732 115.129 212.665 114.941 212.609 114.742L211.991 112.53L214.444 108.854L215.866 108.275C217.199 107.732 218.578 107.641 219.508 107.632C220.539 107.623 221.591 107.718 222.529 107.841C224.405 108.089 226.242 108.511 227.349 108.812C237.24 111.503 246.159 116.213 252.903 123.932C253.375 123.106 254.078 121.94 254.777 121.073C255.397 120.304 256.453 119.161 257.994 118.456C259.713 117.668 261.782 117.557 263.743 118.506L264.133 118.711L265.174 119.295L265.838 120.286C266.772 121.679 267.216 123.277 267.462 124.494C267.709 125.712 267.839 126.995 267.91 128.195C277.179 126.309 287.889 126.718 296.098 129.408C297.802 129.966 301.146 131.08 304.302 132.463C305.873 133.15 307.531 133.962 308.968 134.871C310.222 135.663 312.056 136.981 313.098 138.922L314.096 140.78L313.461 142.792L313.348 143.148L312.553 145.666L310.765 146.206C317.112 150.252 322.627 155.305 327.648 161.005C330.807 160.257 333.113 159.795 335.972 158.543C351.032 151.951 358.124 140.517 360.701 126.976C363.249 113.583 361.331 98.1884 357.802 83.8483L357.456 82.4645C357.197 81.4438 356.243 78.7585 355.19 75.5094C354.708 74.0223 354.225 72.4689 353.892 71.1744C353.728 70.5387 353.57 69.8479 353.475 69.2028C353.428 68.8835 353.38 68.4658 353.376 68.0114C353.374 67.6732 353.38 66.7652 353.789 65.7623L354.846 63.1744L357.603 62.7184C359.086 62.4732 360.377 62.784 361.219 63.0865C361.992 63.364 362.684 63.7405 363.26 64.1383L363.5 64.3102L363.503 64.3121C380.173 76.6753 394.37 96.2786 401.604 117.589C408.841 138.908 409.295 162.58 397.395 182.548C391.884 191.797 382.895 199.575 373.205 205.549C365.696 210.179 357.55 213.856 349.831 216.357C351.218 218.271 352.717 220.162 354.241 221.992L354.953 222.823C355.661 223.631 356.378 224.402 357.272 225.417C358.365 226.657 359.563 228.094 360.617 229.753L361.939 231.835L360.946 234.552L360.357 236.161L358.907 237.071C356.612 238.51 353.907 238.613 351.987 238.499C350.69 238.422 349.347 238.215 348.031 237.938C348.676 239.797 349.158 241.7 349.298 243.465C349.415 244.926 349.358 246.953 348.348 248.835C347.137 251.091 344.966 252.382 342.507 252.578C342.166 252.605 341.825 252.609 341.485 252.596C341.571 253.63 341.551 254.672 341.364 255.673C341.104 257.064 340.424 258.874 338.739 260.21C338.185 260.648 337.602 260.973 337.009 261.207C339.015 264.219 341.322 266.916 344.452 269.772L345.071 270.33L345.073 270.332C346.577 271.671 349.404 274.071 351.849 276.672C353.085 277.987 354.344 279.476 355.362 281.049C356.344 282.568 357.333 284.514 357.609 286.701L357.678 287.287C359.026 299.631 354.116 314.109 348.376 323.953L348.346 324.005L348.315 324.054C345.648 328.387 341.903 332.006 337.016 333.926C333.863 349.152 320.023 357.093 307.659 360.81C307.482 361.762 307.364 362.633 307.333 363.473C307.279 364.98 307.535 366.004 308.071 366.831L308.157 366.944C308.242 367.055 308.335 367.171 308.486 367.359C308.741 367.677 309.178 368.221 309.569 368.831C310.129 369.705 312.034 372.919 309.902 376.309L308.935 377.846L307.208 378.405C305.33 379.013 303.533 378.743 302.532 378.537C301.465 378.317 300.383 377.954 299.918 377.809L299.912 377.806C297.889 377.172 296.096 376.325 294.495 375.311C292.798 392.606 284.3 406.947 269.229 418.264C268.271 418.984 266.477 420.254 264.543 421.326C263.58 421.859 262.459 422.413 261.31 422.813C260.291 423.168 258.631 423.629 256.838 423.347L254.752 423.02L253.697 421.529C249.67 426.362 244.797 430.653 238.746 434.004L238.741 434.006C238.187 434.312 237.193 434.856 236.059 435.225C234.952 435.586 233.111 435.985 231.084 435.327L228.225 434.398L227.883 432.452C221.276 436.328 213.911 439.132 206.045 439.951C205.128 440.047 203.829 440.084 202.531 439.953C201.876 439.886 201.097 439.765 200.308 439.53C199.582 439.314 198.466 438.893 197.459 438.006L195.462 436.247L195.806 433.608C195.808 433.591 195.81 433.573 195.814 433.545C195.817 433.52 195.822 433.481 195.828 433.442C195.837 433.366 195.855 433.233 195.881 433.081C195.935 432.774 196.048 432.235 196.326 431.623C196.967 430.209 198.009 429.417 198.709 428.988L198.712 428.986C198.979 428.823 199.24 428.655 199.498 428.487C199.3 428.591 199.098 428.694 198.893 428.79C197.902 429.252 196.459 429.782 194.814 429.766L194.737 429.765L194.661 429.762C193.445 429.713 192.237 429.299 191.242 428.607C190.25 427.918 188.747 426.396 188.687 423.957C188.534 417.686 188.924 413.876 188.008 408.931L187.807 407.926C185.91 399.092 181.165 391.821 175.142 384.66C174.6 386.567 173.948 388.499 173.163 390.379C171.263 394.926 168.419 399.612 164.127 402.752L158.897 406.578L156.523 400.548C156.002 399.226 155.653 397.743 155.399 396.564C155.107 395.212 154.947 394.317 154.726 393.402L154.469 392.419C153.851 390.131 153.097 387.88 152.212 385.682L152.209 385.674C150.174 380.593 147.888 376.454 145.357 371C144.388 368.912 143.464 366.859 142.583 364.822C142.219 365.18 141.851 365.444 141.533 365.63C141.075 365.897 140.642 366.05 140.616 366.06C140.53 366.092 140.546 366.087 140.589 366.069L138.793 366.859L136.887 366.141C135.412 365.586 134.248 364.644 133.531 364.002C132.76 363.311 132.077 362.568 131.667 362.127L131.664 362.122C124.128 353.973 118.855 344.212 115.63 333.822C115.644 334.921 115.691 336.008 115.78 337.087L115.849 337.849L116.015 339.349C116.088 340.034 116.166 340.843 116.216 341.595C116.268 342.371 116.304 343.273 116.264 344.122C116.244 344.545 116.201 345.059 116.098 345.591C116.01 346.047 115.808 346.918 115.259 347.801L114.152 349.585L112.103 350.043L111.512 350.175L110.191 350.47L108.902 350.059C107.956 349.758 107.074 349.365 106.208 348.767C105.429 348.229 104.808 347.619 104.379 347.195L104.376 347.191C92.9466 335.874 85.6438 319.66 82.5121 304.575C82.0349 302.276 81.6773 300.047 81.4086 297.855C81.2742 298.077 81.1377 298.299 81.0024 298.524L78.2934 303.02C77.95 303.583 76.8399 305.494 75.6059 307.156C74.9992 307.973 74.1903 308.97 73.2563 309.782C72.7887 310.188 72.1253 310.694 71.2905 311.077C70.4599 311.457 69.1178 311.867 67.5268 311.544L65.6225 311.157L64.4799 309.586C62.8277 307.315 62.1815 304.249 61.8471 302.141C61.4785 299.818 61.328 297.422 61.2192 295.987C60.5158 286.715 61.1634 278.132 62.7319 269.691C62.1225 270.285 61.542 270.845 61.0004 271.35C60.187 272.109 59.3938 272.818 58.7075 273.364C58.3728 273.63 57.9676 273.935 57.5395 274.199C57.3262 274.331 57.0215 274.506 56.6547 274.665C56.3567 274.794 55.6481 275.079 54.7172 275.122L52.3598 275.229L49.4116 271.963L49.1674 270.531C48.8341 268.574 49.0209 266.469 49.2123 265.115C50.7223 254.448 54.9882 242.319 60.8764 231.289C63.9185 225.59 67.4536 220.074 71.3608 215.136C69.2312 215.333 67.0797 215.414 65.1391 215.265C63.8254 215.164 62.4029 214.945 61.0717 214.474C59.7781 214.016 58.1182 213.16 56.9428 211.485L55.644 209.634L56.6733 205.382L57.8237 204.347C59.018 203.272 60.9799 201.987 62.5209 200.991C64.2903 199.847 65.8143 198.891 66.7817 198.191C72.005 194.413 77.446 190.125 83.2748 186.277C81.4482 185.891 79.6454 185.409 78.1284 184.797C77.0545 184.363 75.6697 183.69 74.5473 182.606C73.2962 181.398 71.942 179.164 72.7026 176.335L73.2866 174.162L75.3012 173.158C76.9314 172.345 78.788 171.701 80.3852 171.179C82.1327 170.608 83.5087 170.2 84.7807 169.736C88.71 168.303 92.6078 166.862 96.4819 165.379C90.5143 158.252 85.8028 150.137 83.4125 141.208C77.6978 119.86 83.8129 95.9391 93.8354 77.8854L93.8442 77.8688L93.8539 77.8531C103.711 60.4022 117.885 45.775 135.019 35.3756L135.03 35.3688C139.32 32.7792 143.651 30.2541 149.184 28.6666L151.485 28.0065L155.839 31.0729ZM150.563 33.4723C145.724 34.8607 141.887 37.0709 137.614 39.65L136.084 40.5953C120.368 50.483 107.349 64.1289 98.2075 80.3121L97.7582 81.1295C88.3983 98.3747 83.0559 120.54 88.2426 139.915C93.4006 159.183 110.732 174.882 127.766 184.268L129.005 184.945C117.011 183.7 108.448 177.116 99.7953 169.464C95.3793 171.173 90.9421 172.811 86.4946 174.433L85.4243 174.806C82.8465 175.673 79.7629 176.52 77.5307 177.632C76.4611 181.612 95.9124 183.067 99.0453 183.042C96.3368 184.092 94.22 185.542 91.7348 186.944C83.9043 191.361 76.9891 196.98 69.7123 202.243L69.27 202.555C66.9264 204.18 62.7343 206.654 61.1684 208.063L61.0356 208.613C63.8501 212.622 81.6949 208.61 86.226 207.113C70.3164 219.537 56.9857 245.869 54.1625 265.815C53.9943 267.005 53.8934 268.501 54.0961 269.691L54.4897 270.127C55.9932 270.058 70.0568 254.952 72.1899 252.885C67.6803 267.238 65.058 280.495 66.2045 295.609C66.4364 298.664 66.7488 304.204 68.5229 306.643C69.9981 306.943 72.4619 303.005 73.6166 301.094L74.0239 300.418C77.6557 294.461 80.8254 288.636 85.5668 283.465C85.6888 290.387 85.9759 296.662 87.4077 303.559C90.3954 317.95 97.3356 333.184 107.894 343.638C108.771 344.505 109.253 344.923 110.42 345.296L111.012 345.164C111.625 344.177 111.019 339.79 110.874 338.35C109.961 329.282 111.811 320.134 112.39 311.112C110.882 313.761 107.749 319.831 106.025 321.834C105.417 320.72 104.849 319.605 104.275 318.474C95.369 300.924 100.269 279.68 111.837 264.397C106.697 277.88 103.838 291.376 105.803 305.797C106.246 309.048 107.026 312.267 107.651 315.511C108.191 312.309 109.844 308.269 110.871 305.082C113.351 297.387 116.329 288.05 120.299 280.958C119.014 286.939 117.72 292.926 117.122 299.089C115.075 320.215 120.692 342.894 135.334 358.727L136.049 359.487C136.757 360.216 137.593 360.982 138.422 361.367L138.648 361.463C138.96 361.325 139.134 361.334 139.162 361.05C139.547 357.006 138.432 351.63 138.311 347.664C138.198 343.964 138.047 339.604 138.46 336.154C141 348.021 144.773 357.863 149.893 368.895C152.24 373.953 154.762 378.6 156.851 383.815C157.947 386.538 158.856 389.334 159.574 392.179C160.058 394.17 160.456 396.89 161.175 398.716C167.698 393.945 170.741 383.693 171.906 375.986C172.019 375.247 172.088 374.502 172.114 373.753C181.124 383.482 189.815 393.465 192.696 406.877C193.998 412.941 193.537 417.772 193.685 423.834C193.697 424.322 194.217 424.655 194.672 424.744L194.862 424.766C196.887 424.785 199.868 422.347 201.589 420.758L202.243 420.139C210.535 412.079 215.488 396.544 216.372 385.123C220.068 403.622 218.627 422.653 201.324 433.25C200.821 433.558 200.826 433.776 200.764 434.254C201.712 435.088 204.286 435.108 205.526 434.978C218.335 433.646 230.015 426.36 238.99 417.654C237.896 420.32 236.807 423.124 235.309 425.585C234.589 426.659 232.439 429.482 232.63 430.572C233.813 430.956 235.228 430.233 236.324 429.629C251.986 420.957 259.138 405.187 264.931 389.437C264.735 398.459 263.8 406.062 259.3 414.021C258.71 415.067 257.055 417.619 257.613 418.408C259.86 418.76 264.512 415.553 266.226 414.265C283.79 401.076 291.579 383.769 289.478 361.905C292.12 367.198 295.619 371.222 301.407 373.036C302.577 373.401 304.202 373.974 305.429 373.712L305.669 373.647C306.499 372.328 304.612 370.685 303.877 369.554C301.351 365.659 302.457 361.004 303.397 356.805C316.904 353.397 331.08 345.454 332.549 330.054C337.352 329.07 341.094 326.055 343.798 321.845L344.057 321.434C349.588 311.949 354.031 298.294 352.648 287.326C352.082 282.831 345.002 276.962 341.748 274.066C334.318 267.458 330.929 261.629 326.793 252.744C339.654 263.002 337.688 250.981 332.767 243.339C351.132 256.169 343.572 236.71 337.63 228.924C341.34 230.932 352.142 235.064 356.068 232.941L356.249 232.836L356.397 232.433C354.921 230.109 352.977 228.158 351.166 226.089L350.401 225.193C347.367 221.551 344.29 217.513 341.942 213.403C359.731 209.1 382.466 197.005 392.625 180.765L393.1 179.988C414.963 143.3 392.147 91.7822 360.525 68.3287C359.969 67.9172 359.126 67.5349 358.418 67.652L358.399 67.7135C358.053 69.1431 361.69 78.8269 362.302 81.2321C369.936 111.24 371.605 148.405 337.978 163.123C333.813 164.946 330.113 165.47 325.863 166.606L325.026 165.613C316.34 155.424 306.44 147.563 293.29 143.679C296.953 143.136 300.572 142.608 304.261 142.299C305.495 142.196 306.84 142.084 308.064 141.784L308.581 141.643L308.693 141.286C307.125 138.366 297.92 135.266 294.541 134.159C285.292 131.128 272.184 131.33 262.853 134.791C263.04 131.964 263.253 125.829 261.828 123.302L261.685 123.07C259.423 121.799 257.591 125.905 256.631 127.506C255.527 129.355 254.514 131.299 253.424 133.17C247.477 123.089 238.219 117.165 227.117 113.94L226.037 113.636C224.148 113.122 219.588 112.159 217.75 112.907L217.424 113.395C217.708 114.409 221.289 117.489 222.229 118.45L223.259 119.513C225.658 122.022 227.992 124.73 229.537 127.824C224.431 125.314 219.809 122.978 214.397 121.079L213.303 120.705C200.136 116.318 186.088 116.306 172.841 120.417L172.527 120.518C171.793 120.767 171.065 121.112 170.689 121.763C171.267 123.259 180.316 125.305 182.392 126C185.876 127.166 188.935 128.421 192.252 129.982C178.728 130.144 168.633 132.545 156.358 138.361L154.553 139.208C152.531 140.156 150.034 141.351 148.675 142.255C145.955 139.746 143.557 137.482 141.251 134.668L140.791 134.097C119.833 107.679 132.457 70.7163 145.984 43.817L146.628 42.5446C147.478 40.8769 150.912 35.694 151.023 33.9537V33.7965L150.563 33.4723Z" fill="white"/>
<path d="M149.796 33L150.256 33.3242C150.369 34.884 146.739 40.3504 145.861 42.0718C132.099 69.0683 118.734 106.787 140.025 133.625C142.472 136.709 145.006 139.107 147.908 141.782C149.719 140.578 153.554 138.854 155.591 137.889C167.866 132.073 177.961 129.671 191.485 129.509C188.168 127.948 185.109 126.694 181.625 125.528C179.549 124.833 170.5 122.787 169.922 121.291C170.352 120.546 171.241 120.203 172.074 119.944C185.321 115.834 199.369 115.846 212.536 120.232C218.428 122.195 223.323 124.675 228.77 127.352C227.004 123.815 224.208 120.784 221.462 117.977C220.522 117.016 216.941 113.937 216.658 112.923L216.984 112.434C218.822 111.686 223.381 112.65 225.27 113.164C236.851 116.315 246.518 122.291 252.657 132.697C253.747 130.827 254.76 128.882 255.865 127.034C256.824 125.433 258.656 121.326 260.918 122.597C262.5 124.957 262.279 131.4 262.086 134.318C271.416 130.858 284.525 130.656 293.775 133.687C297.153 134.794 306.359 137.894 307.926 140.814L307.813 141.171C306.46 141.58 304.905 141.709 303.495 141.827C299.805 142.135 296.186 142.664 292.524 143.207C306.097 147.217 316.209 155.463 325.096 166.133C329.347 164.997 333.046 164.474 337.211 162.651C370.839 147.933 369.169 110.767 361.535 80.7594C360.913 78.3159 357.17 68.361 357.652 67.1794C358.36 67.0624 359.202 67.4445 359.758 67.8561C391.38 91.3095 414.196 142.828 392.333 179.516C382.422 196.147 359.246 208.559 341.175 212.931C343.523 217.041 346.6 221.079 349.634 224.721C351.646 227.135 353.943 229.305 355.63 231.961L355.483 232.363C351.72 234.724 340.631 230.492 336.863 228.453C342.805 236.238 350.366 255.696 332.001 242.866C336.922 250.509 338.888 262.53 326.027 252.271C330.162 261.156 333.55 266.986 340.981 273.594C344.235 276.49 351.316 282.359 351.881 286.854C353.265 297.823 348.821 311.477 343.29 320.962C340.567 325.386 336.741 328.566 331.783 329.582C330.314 344.983 316.138 352.925 302.63 356.333C301.69 360.532 300.584 365.186 303.11 369.082C303.845 370.213 305.732 371.856 304.902 373.175C303.654 373.579 301.888 372.952 300.64 372.563C294.852 370.749 291.353 366.726 288.712 361.433C290.812 383.297 283.024 400.604 265.46 413.793C263.746 415.081 259.094 418.288 256.846 417.936C256.288 417.147 257.943 414.594 258.533 413.548C263.033 405.589 263.969 397.987 264.164 388.965C258.372 404.715 251.22 420.485 235.557 429.157C234.462 429.761 233.046 430.484 231.863 430.099C231.672 429.01 233.822 426.187 234.542 425.112C236.04 422.651 237.128 419.848 238.222 417.182C229.248 425.888 217.568 433.174 204.759 434.506C203.519 434.636 200.945 434.616 199.997 433.782C200.06 433.304 200.054 433.086 200.557 432.778C217.86 422.181 219.301 403.15 215.605 384.651C214.721 396.072 209.769 411.607 201.476 419.667C199.972 421.128 196.409 424.316 194.095 424.294C193.608 424.275 192.932 423.92 192.919 423.361C192.771 417.299 193.231 412.469 191.929 406.404C189.048 392.992 180.358 383.01 171.347 373.28C171.321 374.03 171.251 374.774 171.139 375.513C169.973 383.221 166.931 393.472 160.408 398.244C159.689 396.417 159.292 393.697 158.807 391.707C158.09 388.862 157.18 386.066 156.084 383.343C153.996 378.128 151.473 373.481 149.126 368.423C144.006 357.391 140.233 347.548 137.694 335.681C137.28 339.131 137.431 343.491 137.544 347.191C137.666 351.157 138.781 356.534 138.395 360.578C138.368 360.862 138.194 360.853 137.881 360.99C136.678 360.537 135.437 359.193 134.567 358.255C119.925 342.422 114.309 319.743 116.356 298.616C116.954 292.453 118.247 286.467 119.533 280.486C115.562 287.579 112.584 296.914 110.104 304.609C109.077 307.797 107.425 311.837 106.884 315.039C106.26 311.795 105.479 308.576 105.037 305.324C103.072 290.903 105.93 277.408 111.07 263.925C99.502 279.208 94.6021 300.452 103.508 318.002C104.082 319.133 104.65 320.247 105.258 321.361C106.982 319.358 110.115 313.289 111.623 310.64C111.044 319.662 109.194 328.809 110.108 337.877C110.253 339.317 110.858 343.704 110.245 344.691L109.654 344.823C108.486 344.451 108.004 344.033 107.127 343.166C96.5686 332.711 89.6285 317.478 86.6408 303.086C85.209 296.189 84.9216 289.914 84.7997 282.993C80.0582 288.164 76.8893 293.988 73.2574 299.945C72.4186 301.321 69.4419 306.514 67.756 306.171C65.9817 303.733 65.6698 298.192 65.4379 295.137C64.2913 280.023 66.9135 266.765 71.4231 252.413C69.2901 254.479 55.2266 269.586 53.7231 269.654L53.3296 269.219C53.1269 268.029 53.228 266.533 53.3962 265.343C56.2194 245.397 69.5494 219.065 85.459 206.641C80.9279 208.138 63.0828 212.15 60.2687 208.14L60.4017 207.591C62.0719 206.088 66.7299 203.373 68.9457 201.77C76.2224 196.507 83.137 190.889 90.9675 186.472C93.4531 185.07 95.5702 183.62 98.279 182.57C95.1476 182.596 75.6945 181.14 76.7642 177.161C79.3154 175.889 82.9783 174.963 85.7276 173.961C90.1752 172.338 94.6129 170.701 99.029 168.993C107.681 176.644 116.244 183.227 128.238 184.472L126.999 183.796C109.965 174.41 92.6336 158.711 87.4757 139.442C82.2066 119.76 87.8038 97.1978 97.4402 79.8395C106.876 63.1342 120.445 49.1326 136.847 39.1777C141.12 36.5986 144.957 34.3885 149.796 33Z" fill="#000100"/>
<path d="M315.021 232.178C315.264 232.685 316.179 239.25 316.461 240.534C318.278 248.825 321.061 257.354 325.194 264.789C327.625 269.209 331.038 272.619 334.309 276.324C337.483 279.915 343.545 282.684 345.425 286.793C347.937 292.284 339.696 295.186 336.741 298.43C334.393 301.008 333.266 302.773 331.736 306.054C331.954 300.151 333.289 298.013 335.967 292.901C334.571 293.163 331.014 294.29 329.469 294.801C324.029 296.598 319.088 293.981 313.765 291.986C314.37 293.266 315.043 295.151 315.408 296.469C316.392 300.019 315.905 302.105 314.091 305.109C307.427 316.148 307.975 316.229 295.408 319.27C288.915 320.842 281.337 322.48 275.082 318.917C271.659 316.969 269.793 313.8 268.885 310.108C269.729 307.474 271.372 304.884 272.714 302.428C264.703 306.6 262.894 310.505 259.606 318.562C258.94 313.769 261.364 303.126 263.565 298.677C264.377 297.034 267.688 291.741 267.602 290.742C266.899 290.666 266.909 290.862 266.143 291.359C261.929 294.15 259.011 297.051 255.896 300.961C257.473 294.522 260.171 288.411 263.871 282.91C258.945 285.255 255.703 288.223 251.715 291.814C251.881 282.474 254.968 275.569 260.69 268.322C262.313 266.268 265.176 262.53 266.37 260.297L266.522 260.008C267.457 263.372 267.869 268.741 268.096 272.264C272.254 266.178 273.358 258.512 271.088 251.501C268.914 244.905 267.47 244.872 266.642 237.061C271.079 243.851 273.786 247.363 281.871 250.07C278.681 243.163 278.034 240.642 278.715 233.159C285.977 244.49 295.08 252.376 308.328 255.904C305.918 250.209 303.737 244.029 303.34 237.852C306.763 243.224 309.072 245.595 314.223 249.023C313.29 242.79 313.249 238.192 315.021 232.178Z" fill="white"/>
<path d="M287.367 284.261C292.291 283.747 298.637 285.995 302.628 288.803C307.307 292.096 313.151 297.783 310.61 304.1C310.509 304.35 309.997 304.271 309.757 304.279C307.099 303.133 302.954 301.223 300.113 301.916C289.475 304.506 285.514 295.127 286.177 286.283C286.256 285.248 286.501 284.91 287.367 284.261Z" fill="#000100"/>
<path d="M292.536 271.549C301.957 271.035 310.695 277.337 319.069 280.713C324.22 282.787 327.672 282.437 332.618 280.212C328.269 284.969 325.326 286.403 318.841 285.441C314.828 284.459 311.746 283 308.088 281.137C296.874 275.428 290.149 273.581 277.902 277.467C283.257 273.696 285.879 272.115 292.536 271.549Z" fill="#000100"/>
<path d="M255.59 143.734C267.729 140.975 273.466 140.346 285.769 143.531C282.373 144.064 278.49 144.72 275.202 145.667C292.433 148.927 306.692 158.753 318.537 171.317C320.501 173.4 322.357 175.646 324.323 177.681C319.977 175.984 317.345 175.234 313.151 172.865C310.458 171.343 306.935 168.637 304.452 167.393C311.109 174.273 315.065 180.151 319.779 188.58C324.998 197.919 330.62 209.974 337.918 217.934C330.958 215.252 326.176 212.32 320.89 206.894C320.687 218.292 321.301 224.32 326.343 234.822C318.175 227.39 315.898 221.074 313.91 210.643C311.819 218.908 311.138 222.925 307.103 230.624C309.721 210.383 306.002 193.498 290.788 178.905C298.037 194.108 299.017 197.589 299.514 214.344C298.072 209.537 296.443 204.328 294.24 199.812C289.664 190.438 281.433 181.397 273.155 175.097C269.068 171.986 265.021 169.694 260.798 166.353C268.123 178.748 270.763 187.772 270.089 202.405C269.908 206.366 269.565 210.823 268.567 214.676C268.508 214.907 268.444 215.137 268.38 215.366C262.656 190.826 244.395 189.311 237.29 168.387C233.487 178.605 233.807 185.485 238.249 195.714C230.054 189.528 222.065 183.373 217.793 173.658C213.894 164.789 214.597 158.85 219.799 150.928C217.941 163.852 221.332 170.044 229.187 179.875C226.181 168.067 229.212 159.377 236.094 149.635C241.426 156.82 245.13 161.09 253.519 165.15C252.143 162.027 251.095 158.687 250.084 155.425C264.938 160.662 272.268 164.779 283.724 175.261C277.944 164.87 271.683 158.306 261.295 152.287C259.728 151.378 257.476 150.069 255.801 149.508L255.872 149.36C257.796 149.466 259.539 150.096 261.393 150.464C270.148 152.205 281.085 156.008 288.55 161.041L289.436 160.531C281.034 151.064 268.163 144.921 255.59 143.734Z" fill="white"/>
<path d="M289.436 160.531L292.014 163.348L288.55 161.041L289.436 160.531Z" fill="#000100"/>
<path d="M137.923 45.2162C137.935 45.2765 138.047 45.6898 138.025 45.7275C127.117 65.1803 118.967 87.84 122.135 110.449C123.355 119.156 127.493 130.15 132.926 137.169C143.59 150.95 160.868 158.943 177.891 161.131C182.597 161.736 187.598 161.776 192.318 161.758C185.574 165.702 181.684 166.218 174.048 166.15C180.752 168.675 188.639 168.49 195.608 167.437C187.55 171.112 183.192 172.263 174.518 171.861C183.379 175.414 189.015 174.223 197.658 174.101C181.188 179.184 169.404 177.085 153.551 171.569C152.941 171.343 152.334 171.107 151.732 170.862C134.133 163.701 120.167 152.368 112.62 134.594C113.606 141.797 116.736 148.509 120.118 154.826C108.179 143.206 103.392 127.414 104.037 111.105C104.656 95.4558 109.621 83.3399 117.349 69.9619C111.304 75.3848 106.313 82.5498 102.73 89.7764C101.544 92.1691 100.614 94.6292 99.3517 96.9706L99.4165 96.6611C104.54 73.005 118.034 57.9724 137.923 45.2162Z" fill="white"/>
<path d="M369.529 83.953C383.313 99.2071 393.065 119.864 392.509 140.862C391.794 167.794 371.948 186.328 347.048 193.431L346.12 192.919C354.237 190.02 359.513 186.485 366.344 181.244C363.702 182.017 361.231 183.813 358.71 184.942C351.597 188.129 344.007 190.124 336.261 190.966C334.66 191.141 332.703 191.338 331.158 191.627C329.687 189.293 328.179 186.983 326.634 184.699C329.229 185.691 335.316 187.786 338.391 187.312C338.905 187.233 339 186.711 339.111 186.335C338.57 183.892 333.898 179.893 332.145 177.566C330.789 175.768 329.978 174.88 328.7 172.773C345.533 169.218 356.083 161.981 365.959 147.703C376.144 132.982 376.024 112.937 372.371 95.8563C371.488 91.8736 370.543 87.9051 369.529 83.953Z" fill="white"/>
<path d="M383.573 132.268L383.825 132.473C384.809 134.423 384.89 144.22 384.782 146.487C384.202 158.504 376.135 165.231 367.609 172.606C367.36 172.856 367.521 172.744 367.088 172.877C367.164 172.396 370.251 167.858 370.809 166.938C379.031 153.342 382.221 148.198 383.573 132.268Z" fill="#000100"/>
<path d="M142.97 186.115C155.114 186.244 166.314 191.564 177.302 196.255C167.987 196.447 158.522 193.869 149.423 193.922C137.861 193.989 128.3 197.786 120.269 206.046C124.747 206.038 132.622 206.59 136.802 207.96C134.828 209.78 131.305 211.854 128.937 213.374C133.689 214.32 137.698 215.079 142.317 216.477C140.994 217.366 140.095 218.125 138.871 219.154C141.795 220.699 144.189 221.293 147.319 222.278C148.627 223.904 149.012 224.583 150.726 225.758C151.374 226.071 152.03 226.365 152.696 226.638C158.696 229.062 165.347 226.405 170.963 224.079C153.369 241.205 132.631 228.192 117.022 215.779C119.413 214.66 122.232 213.11 124.617 211.881C120.563 211.377 114.857 211.237 111.246 209.389C108.206 207.833 115.171 200.509 116.625 198.777C123.782 190.247 131.916 186.771 142.97 186.115Z" fill="white"/>
<path d="M193.66 223.16L193.914 223.585C192.731 232.474 192.546 238.831 193.789 247.711C194.533 253.03 193.264 259.687 191.842 264.912C200.044 257.43 202.793 251.26 205.682 240.85C206.167 243.395 206.605 246.84 206.316 249.394C205.139 259.783 201.152 265.837 204.256 276.635C206.518 274.389 208.216 271.537 210.259 269.076C212.465 266.42 214.786 264.079 216.999 261.406C211.962 273.787 209.092 285.133 210.986 298.611C211.505 302.305 212.003 305.253 213.332 308.813C207.052 302.09 204.734 296.476 203.121 287.422C202.831 284.357 202.059 280.53 201.448 277.521C197.535 287.537 197.191 292.541 198.755 303.326C197.724 301.894 196.738 300.538 195.833 299.02C188.308 286.389 196.993 275.038 199.983 263.061C192.978 269.199 189.974 273.902 180.201 276.397C186.92 268.014 188.562 257.413 188.696 247.023C184.863 252.969 183.056 255.096 177.659 259.658C179.251 256.046 181.56 251.938 182.947 248.327C186.37 239.417 189.297 231.727 193.66 223.16Z" fill="white"/>
<path d="M164.556 241.59C164.518 242.083 162.308 246.95 161.863 247.956C160.048 252.058 159.232 256.13 157.804 260.307C161.513 256.556 165.367 252.952 169.358 249.504C162.409 262.576 161.574 279.019 165.692 293.058C166.26 294.992 166.907 297.622 167.949 299.289L168.279 299.213C168.796 291.555 171.385 285.027 174.81 278.314C173.94 289.126 173.161 295.519 173.239 306.575C173.472 310.904 173.827 315.676 173.748 319.975C158.696 302.347 153.952 286.347 161.125 263.548C159.242 265.531 151.036 276.799 149.174 275.77C148.75 274.433 149.839 270.501 150.125 269.003C152.256 257.851 156.676 249.729 164.556 241.59Z" fill="white"/>
<path d="M311.682 325.66C311.834 325.638 311.985 325.621 312.137 325.609C317.325 325.129 321.057 326.436 324.976 329.702C324.825 330.302 324.668 330.9 324.504 331.497C322.332 339.327 316.561 343.501 309.75 347.379C311.425 344.703 311.998 343.078 312.627 340.017C310.257 340.392 307.231 341.552 304.907 342.402C300.645 343.957 297.978 344.76 293.486 345.32C295.205 343.964 297.048 342.167 298.674 340.656C296.152 341.33 294.286 341.741 291.716 342.211C290.058 342.248 288.927 342.365 287.272 342.571C288.259 341.819 290.572 340.296 290.66 339.087C289.478 338.798 286.111 339.207 284.368 339.104C281.658 338.942 279.905 338.636 277.243 338.179C281.854 337.18 282.17 337.407 286.863 335.111C280.818 334.949 275.723 334.761 273.287 328.388C284.542 333.98 299.328 327.014 311.682 325.66Z" fill="white"/>
<path d="M92.8535 225.376C92.8554 225.606 89.6351 233.824 89.2231 234.895C86.1568 242.864 86.4229 250.373 85.4441 258.612C87.9313 255.865 90.1767 253.02 92.7646 250.271C97.64 245.092 102.449 241.152 108.068 236.866C103.726 243.677 100.247 248.925 95.2903 255.376C88.8186 263.318 83.0224 271.858 76.4812 279.497C76.344 274.225 76.1717 269.174 76.6545 263.913C77.9521 249.774 83.3145 235.985 92.8535 225.376Z" fill="white"/>
<path d="M236.294 286.107C236.768 286.697 235.55 292.828 235.376 294.054C233.619 306.436 236.019 312.517 238.911 323.711C241.825 312.988 242.209 308.333 248.018 298.121C246.011 306.61 245.616 314.682 247.822 323.17C249.024 327.22 250.04 329.771 251.854 333.561C247.109 329.59 245.629 328.018 242.5 322.57C241.107 325.645 240.524 328.97 238.935 331.874C227.64 315.668 227.714 303.383 236.294 286.107Z" fill="white"/>
<path d="M211.277 216.504C213.142 217.116 215.02 217.689 216.909 218.223C217.275 225.404 219.032 230.369 227.345 231.444C231.683 232.005 234.677 229.869 237.907 227.209C241.649 230.14 242.692 232.676 244.306 237.016C244.535 238.032 244.89 239.179 245.177 240.194C239.578 238.376 236.34 238.67 230.631 238.806C225.701 238.923 219.788 237.898 216.226 234.202C211.169 228.954 211.227 223.201 211.277 216.504Z" fill="white"/>
<path d="M182.857 312.018C183.103 312.241 183.227 312.451 183.267 312.804C183.698 316.562 184.272 320.32 185.442 323.934C186.962 328.635 190.103 332.511 192.627 336.71C192.27 329.489 192.219 326.091 194.028 319.023C194.878 325.988 193.569 327.709 196.546 335.669C198.212 339.809 200.298 343.173 202.91 346.765C196.168 344.155 192.041 341.951 187.466 335.965C182.915 330.011 181.624 319.341 182.857 312.018Z" fill="white"/>
<path d="M339.933 304.546C342.798 304.438 343.596 304.812 346.328 305.755C344.806 311.986 340.178 317.206 334.985 320.751L332.588 321.946C331.496 321.667 330.299 321.42 329.614 320.526C329.78 319.128 330.86 317.99 331.288 316.697C332.99 311.543 333.653 305.863 339.933 304.546Z" fill="white"/>
<path d="M277.322 190.071C277.694 190.258 277.709 190.271 277.99 190.572C286.99 200.171 284.229 213.462 283.548 225.37L283.328 225.764L283.044 225.725C277.486 216.276 278.742 213.558 278.705 203.421C278.712 198.935 278.247 194.461 277.322 190.071Z" fill="white"/>
<path d="M178.113 358.081C178.269 358.184 178.418 358.277 178.547 358.414C186.394 366.876 192.422 380.682 193.288 391.964C192.648 391.511 190.94 388.252 190.452 387.336C185.316 377.67 180.649 368.771 178.113 358.081Z" fill="white"/>
<path d="M247.587 359.513L247.89 359.866C248.057 361.21 247.721 364.271 247.562 365.713C246.414 375.949 239.454 384.793 231.644 391.051C232.975 387.855 234.236 385.255 235.498 381.93C237.305 376.982 237.148 370.619 237.234 365.314C238.881 370.2 239.675 374.049 239.065 379.188C244.312 371.601 245.498 368.511 247.587 359.513Z" fill="white"/>
<path d="M244.644 190.641C247.166 192.504 250.353 195.53 252.341 197.915C259.713 206.762 260.438 214.164 259.613 224.998L259.233 224.932C257.172 214.684 255.891 210.427 250.263 201.381C248.921 199.228 245.383 192.979 244.644 190.641Z" fill="white"/>
<path d="M180.889 202.105L181.11 202.323C181.036 203.079 179.015 205.813 178.409 207.067C177.007 209.972 176.266 212.046 175.495 215.177C177.638 212.133 179.055 210.298 181.493 207.545C178.926 214.321 178.132 216.892 176.721 224.138C176.389 225.438 176.234 226.725 176.044 228.052C174.715 224.77 173.52 222.161 172.755 218.647C171.457 218.87 170.131 219.067 168.828 219.273C172.054 212.068 175.452 207.68 180.889 202.105Z" fill="white"/>
<path d="M259.319 378.153L259.554 378.571C258.252 387.483 247.912 400.807 241.7 407.663C241.137 407.146 241.533 405.723 241.746 405.031C244.936 394.596 253.786 387.273 259.319 378.153Z" fill="white"/>
<path d="M149.916 302.915C150.091 303.052 150.365 303.27 150.385 303.525C150.885 309.697 152.048 315.864 153.86 321.78C154.8 324.845 160.638 336.812 158.736 339.334C150.204 327.484 148.077 317.279 149.916 302.915Z" fill="white"/>
<path d="M135.149 266.729C135.487 268.058 135.133 271.579 134.973 272.969C134.756 274.837 134.426 276.688 133.986 278.517C132.997 282.711 131.551 287.077 130.452 291.271C130.018 292.928 128.299 300.79 127.472 301.441C125.099 288.524 130.938 278.228 135.149 266.729Z" fill="white"/>
<path d="M281.766 368.58C282.008 369.642 281.861 372.6 281.837 373.829C281.646 383.044 278.752 388.84 274.014 396.417C275.011 391.976 275.219 387.721 275.304 383.189C275.18 378.15 273.987 372.952 272.447 368.178C275.525 372.323 277.43 376.608 278.223 381.688C279.187 378.05 280.691 371.76 281.766 368.58Z" fill="white"/>
<path d="M220.316 210.082C224.781 209.339 229.678 210.478 233.351 213.101C236.295 215.205 237.859 217.941 239.608 220.992L236.749 218.864C234.033 217.169 230.54 215.415 227.421 214.665C222.015 213.367 220.655 214.32 215.951 210.96C217.593 210.536 218.637 210.337 220.316 210.082Z" fill="white"/>
<path d="M199.618 143.506C201.842 143.36 203.982 143.438 206.206 143.487C203.347 144.509 200.385 145.327 197.562 146.405C193.443 147.979 189.323 149.789 185.27 151.537L180.4 153.377C185.296 147.735 192.18 144.199 199.618 143.506Z" fill="white"/>
<path d="M289.586 216.291C290.474 222.574 290.917 226.322 293.131 232.487C293.694 234.051 296.705 241.61 296.862 242.415L296.549 242.41C292.374 237.675 288.996 233.238 288.538 226.664C288.322 223.539 288.496 219.232 289.586 216.291Z" fill="white"/>
<path d="M251.651 260.113C251.879 260.83 251.595 262.965 251.472 263.783C250.439 270.712 244.407 274.813 238.482 277.056C238.29 276.387 239.925 275.185 240.487 274.681C245.25 270.399 248.728 265.771 251.651 260.113Z" fill="white"/>
<path d="M225.936 353.588C226.922 354.467 227.262 356.561 227.332 357.878C227.641 363.676 224.298 367.835 220.652 371.878L220.204 372.12C220.177 371.285 222.174 367.544 222.618 366.396C224.315 362.016 225.448 358.304 225.936 353.588Z" fill="white"/>
<path d="M211.601 180.35C211.832 180.989 210.959 185.123 210.754 186.099C209.848 190.418 210.532 193.406 210.591 197.288L210.386 197.324L209.955 196.541C206.987 189.685 206.004 186.187 211.601 180.35Z" fill="white"/>
<path d="M223.02 218.261C224.177 217.889 225.425 218.477 225.875 219.606C226.324 220.736 225.821 222.021 224.725 222.545C223.946 222.917 223.026 222.825 222.337 222.305C221.648 221.786 221.306 220.926 221.449 220.076C221.593 219.225 222.199 218.525 223.02 218.261Z" fill="white"/>
<path d="M347.048 193.431C346.008 193.713 344.382 194.225 343.388 193.871C343.939 193.348 345.312 193.121 346.12 192.919L347.048 193.431Z" fill="#BCBCBB"/>
</g>
<defs>
<clipPath id="clip0_16_167">
<rect width="455" height="455" fill="white"/>
</clipPath>
</defs>
</svg>
