<svg width="49" height="57" viewBox="0 0 49 57" fill="none" xmlns="http://www.w3.org/2000/svg">
<path d="M13.5305 0L13.595 0.0454141C13.6108 0.263944 13.1022 1.02978 12.9793 1.27095C11.0512 5.05309 9.17875 10.3374 12.1616 14.0973C12.5044 14.5294 12.8595 14.8654 13.2661 15.2402C13.5198 15.0715 14.057 14.8299 14.3424 14.6947C16.0621 13.8798 17.4764 13.5434 19.3711 13.5207C18.9063 13.302 18.4777 13.1264 17.9897 12.9629C17.6989 12.8655 16.4311 12.579 16.3501 12.3694C16.4103 12.2651 16.5349 12.2169 16.6516 12.1807C18.5075 11.6048 20.4756 11.6065 22.3203 12.221C23.1456 12.496 23.8315 12.8434 24.5946 13.2185C24.3472 12.7231 23.9554 12.2983 23.5708 11.9051C23.4391 11.7705 22.9374 11.3391 22.8977 11.197L22.9434 11.1285C23.2009 11.0237 23.8397 11.1588 24.1042 11.2308C25.7267 11.6723 27.0811 12.5095 27.9411 13.9673C28.0938 13.7053 28.2358 13.4329 28.3905 13.1739C28.5249 12.9496 28.7815 12.3743 29.0984 12.5524C29.32 12.883 29.2892 13.7857 29.2621 14.1944C30.5693 13.7096 32.4057 13.6814 33.7016 14.106C34.175 14.2611 35.4647 14.6955 35.6842 15.1045L35.6684 15.1545C35.4787 15.2118 35.2609 15.2299 35.0633 15.2464C34.5464 15.2896 34.0395 15.3637 33.5263 15.4398C35.428 16.0015 36.8446 17.1568 38.0897 18.6517C38.6852 18.4925 39.2035 18.4192 39.7869 18.1638C44.4981 16.1018 44.2642 10.895 43.1947 6.69098C43.1076 6.34866 42.5831 4.95399 42.6507 4.78846C42.7498 4.77206 42.8678 4.8256 42.9457 4.88326C47.376 8.16904 50.5724 15.3866 47.5094 20.5266C46.1209 22.8565 42.874 24.5955 40.3422 25.2079C40.6712 25.7838 41.1023 26.3494 41.5273 26.8597C41.8093 27.1979 42.131 27.502 42.3674 27.874L42.3468 27.9303C41.8196 28.2611 40.2661 27.6682 39.7382 27.3825C40.5707 28.4732 41.6299 31.1993 39.057 29.4018C39.7464 30.4726 40.0219 32.1566 38.22 30.7194C38.7994 31.9642 39.2741 32.7809 40.3151 33.7067C40.771 34.1124 41.763 34.9346 41.8422 35.5644C42.036 37.1011 41.4135 39.014 40.6386 40.3428C40.2572 40.9626 39.7211 41.4082 39.0265 41.5506C38.8207 43.7081 36.8346 44.8208 34.9423 45.2983C34.8106 45.8865 34.6555 46.5386 35.0095 47.0843C35.1124 47.2428 35.3769 47.4729 35.2606 47.6578C35.0856 47.7144 34.8383 47.6266 34.6634 47.5721C33.8525 47.3179 33.3624 46.7543 32.9923 46.0127C33.2866 49.0758 32.1955 51.5005 29.7347 53.3483C29.4946 53.5287 28.8429 53.9781 28.528 53.9287C28.4498 53.8182 28.6817 53.4605 28.7644 53.314C29.3948 52.1989 29.5258 51.1338 29.5533 49.8699C28.7417 52.0764 27.7398 54.2857 25.5455 55.5007C25.392 55.5854 25.1937 55.6866 25.0279 55.6327C25.0011 55.4801 25.3024 55.0846 25.4032 54.934C25.6131 54.5893 25.7656 54.1966 25.9189 53.823C24.6615 55.0428 23.0252 56.0636 21.2307 56.2502C21.057 56.2683 20.6964 56.2656 20.5636 56.1486C20.5723 56.0817 20.5716 56.0512 20.642 56.008C23.0662 54.5235 23.2681 51.8573 22.7502 49.2655C22.6264 50.8656 21.9326 53.042 20.7708 54.1712C20.5601 54.376 20.0608 54.8226 19.7367 54.8195C19.6685 54.8167 19.5738 54.767 19.5719 54.6888C19.5512 53.8395 19.6157 53.1627 19.4332 52.3131C19.0296 50.4341 17.8121 49.0357 16.5498 47.6726C16.5461 47.7775 16.5364 47.8818 16.5206 47.9854C16.3573 49.0652 15.931 50.5013 15.0173 51.1699C14.9165 50.914 14.8608 50.5329 14.793 50.254C14.6924 49.8555 14.565 49.4637 14.4115 49.0823C14.1188 48.3517 13.7654 47.7007 13.4366 46.992C12.7193 45.4464 12.1908 44.0675 11.835 42.405C11.7771 42.8883 11.7982 43.4992 11.8141 44.0175C11.8311 44.5731 11.9873 45.3264 11.9333 45.893C11.9295 45.9328 11.905 45.9314 11.8613 45.9507C11.6927 45.8872 11.5188 45.6989 11.397 45.5675C9.34566 43.3493 8.55879 40.172 8.84565 37.2122C8.92938 36.3488 9.11059 35.5102 9.29067 34.6722C8.73445 35.6659 8.31715 36.9738 7.96968 38.0519C7.82582 38.4985 7.59439 39.0644 7.51869 39.5131C7.43116 39.0586 7.32184 38.6075 7.25982 38.152C6.98453 36.1317 7.38492 34.2411 8.1051 32.3521C6.48442 34.4932 5.79796 37.4694 7.04565 39.9281C7.12605 40.0866 7.20563 40.2427 7.29083 40.3987C7.53238 40.1182 7.97129 39.2678 8.18258 38.8967C8.10143 40.1607 7.84232 41.4422 7.97026 42.7127C7.99057 42.9144 8.07536 43.529 7.98951 43.6673L7.90667 43.6858C7.74309 43.6336 7.67555 43.575 7.55269 43.4536C6.07346 41.9889 5.10117 39.8547 4.6826 37.8385C4.48201 36.8723 4.44174 35.9931 4.42466 35.0235C3.76039 35.7479 3.31644 36.5639 2.80762 37.3984C2.6901 37.5912 2.27307 38.3187 2.03688 38.2707C1.7883 37.9291 1.7446 37.1529 1.71212 36.7248C1.55149 34.6074 1.91885 32.75 2.55064 30.7393C2.25181 31.0288 0.281537 33.1452 0.070896 33.1548L0.0157748 33.0937C-0.0126263 32.927 0.00154007 32.7174 0.0251047 32.5507C0.420627 29.7563 2.28813 26.0673 4.51703 24.3267C3.88223 24.5364 1.38218 25.0985 0.987927 24.5368L1.00655 24.4598C1.24055 24.2492 1.89312 23.8688 2.20355 23.6443C3.223 22.907 4.19172 22.12 5.28876 21.5011C5.63699 21.3046 5.93359 21.1015 6.31309 20.9544C5.87438 20.958 3.14905 20.7541 3.29891 20.1966C3.65632 20.0185 4.1695 19.8888 4.55466 19.7483C5.17777 19.521 5.79947 19.2917 6.41815 19.0523C7.63034 20.1242 8.82987 21.0465 10.5103 21.2209L10.3367 21.1262C7.9503 19.8113 5.52218 17.6118 4.79957 14.9123C4.06138 12.1548 4.84553 8.99397 6.19557 6.56212C7.51756 4.22174 9.41854 2.26015 11.7164 0.865477C12.315 0.504153 12.8526 0.19452 13.5305 0Z" fill="#000100"/>
<path d="M36.6784 27.9044C36.7123 27.9754 36.8406 28.8951 36.88 29.075C37.1346 30.2366 37.5246 31.4315 38.1036 32.4732C38.4442 33.0923 38.9223 33.5701 39.3806 34.0891C39.8251 34.5923 40.6744 34.9802 40.9378 35.5558C41.2898 36.3252 40.1352 36.7316 39.7212 37.1861C39.3922 37.5473 39.2344 37.7946 39.0201 38.2542C39.0506 37.4272 39.2375 37.1278 39.6128 36.4116C39.4173 36.4483 38.9189 36.6061 38.7024 36.6778C37.9403 36.9295 37.2481 36.5629 36.5024 36.2833C36.5871 36.4627 36.6814 36.7268 36.7326 36.9114C36.8704 37.4087 36.8022 37.701 36.548 38.1218C35.6143 39.6685 35.6912 39.6798 33.9305 40.1058C33.0209 40.326 31.9593 40.5555 31.0829 40.0564C30.6033 39.7834 30.342 39.3395 30.2147 38.8223C30.3331 38.4532 30.5632 38.0903 30.7512 37.7462C29.6289 38.3307 29.3754 38.8778 28.9147 40.0067C28.8214 39.3351 29.161 37.844 29.4694 37.2208C29.5832 36.9906 30.047 36.249 30.035 36.1091C29.9365 36.0984 29.9379 36.1259 29.8306 36.1955C29.2402 36.5865 28.8314 36.993 28.3951 37.5408C28.616 36.6387 28.994 35.7825 29.5122 35.0118C28.8221 35.3404 28.368 35.7561 27.8092 36.2593C27.8325 34.9507 28.2651 33.9834 29.0667 32.9681C29.2941 32.6804 29.6951 32.1566 29.8624 31.8438L29.8837 31.8033C30.0147 32.2746 30.0724 33.0268 30.1043 33.5204C30.6867 32.6677 30.8414 31.5937 30.5234 30.6114C30.2188 29.6874 30.0165 29.6828 29.9005 28.5885C30.5221 29.5398 30.9014 30.0318 32.034 30.411C31.5871 29.4433 31.4965 29.0902 31.5919 28.0418C32.6093 29.6293 33.8846 30.7341 35.7406 31.2284C35.4031 30.4305 35.0974 29.5647 35.0419 28.6993C35.5214 29.4519 35.8448 29.7841 36.5665 30.2643C36.4359 29.3911 36.43 28.747 36.6784 27.9044Z" fill="white"/>
<path d="M32.8039 35.2011C33.4937 35.1291 34.3828 35.444 34.9419 35.8374C35.5974 36.2988 36.4161 37.0956 36.0601 37.9805C36.046 38.0155 35.9743 38.0046 35.9407 38.0056C35.5682 37.8451 34.9875 37.5775 34.5896 37.6746C33.0993 38.0375 32.5443 36.7234 32.6372 35.4845C32.6482 35.3394 32.6825 35.292 32.8039 35.2011Z" fill="#000100"/>
<path d="M33.5281 33.4203C34.848 33.3482 36.0722 34.2311 37.2452 34.7041C37.9669 34.9947 38.4506 34.9456 39.1434 34.6338C38.5343 35.3003 38.122 35.5013 37.2133 35.3665C36.6512 35.2289 36.2193 35.0245 35.7068 34.7635C34.1359 33.9636 33.1936 33.705 31.4779 34.2493C32.2281 33.7211 32.5954 33.4995 33.5281 33.4203Z" fill="#000100"/>
<path d="M28.352 15.5136C30.0527 15.1271 30.8563 15.0389 32.5799 15.4852C32.1042 15.5598 31.5602 15.6518 31.0995 15.7844C33.5136 16.2411 35.5113 17.6177 37.1708 19.3779C37.4458 19.6698 37.7058 19.9843 37.9813 20.2695C37.3724 20.0317 37.0037 19.9266 36.4161 19.5947C36.0388 19.3815 35.5452 19.0024 35.1974 18.8282C36.1301 19.792 36.6844 20.6155 37.3447 21.7964C38.076 23.1047 38.8635 24.7937 39.886 25.9088C38.9108 25.5331 38.2409 25.1223 37.5004 24.3622C37.4719 25.9589 37.558 26.8035 38.2643 28.2749C37.12 27.2336 36.801 26.3487 36.5225 24.8873C36.2295 26.0453 36.1342 26.608 35.5689 27.6867C35.9356 24.851 35.4146 22.4853 33.2831 20.441C34.2988 22.5708 34.436 23.0586 34.5056 25.4059C34.3036 24.7325 34.0755 24.0027 33.7667 23.37C33.1257 22.0567 31.9725 20.79 30.8128 19.9074C30.2403 19.4716 29.6733 19.1505 29.0816 18.6825C30.1079 20.419 30.4776 21.6832 30.3833 23.7333C30.3579 24.2882 30.3099 24.9126 30.17 25.4524C30.1617 25.4847 30.1528 25.5169 30.1439 25.549C29.3419 22.111 26.7836 21.8988 25.7882 18.9674C25.2555 20.3989 25.3002 21.3628 25.9225 22.7958C24.7744 21.9292 23.6552 21.0669 23.0567 19.7059C22.5104 18.4634 22.6089 17.6312 23.3378 16.5215C23.0774 18.3321 23.5526 19.1996 24.653 20.5769C24.2319 18.9226 24.6565 17.7051 25.6207 16.3403C26.3677 17.3469 26.8865 17.9451 28.0618 18.5139C27.8691 18.0764 27.7223 17.6084 27.5806 17.1515C29.6616 17.8851 30.6886 18.462 32.2935 19.9304C31.4837 18.4746 30.6066 17.555 29.1512 16.7118C28.9317 16.5844 28.6161 16.401 28.3815 16.3224L28.3915 16.3018C28.6611 16.3166 28.9053 16.4048 29.165 16.4565C30.3916 16.7004 31.9238 17.2332 32.9696 17.9383L33.0938 17.8668C31.9166 16.5405 30.1134 15.6798 28.352 15.5136Z" fill="white"/>
<path d="M33.094 17.8668L33.4555 18.2618L32.9697 17.9383L33.094 17.8668Z" fill="#000100"/>
<path d="M11.8671 1.71146C11.8688 1.71989 11.8845 1.77779 11.8815 1.78308C10.3533 4.50838 9.21145 7.68295 9.65531 10.8504C9.82626 12.0702 10.4059 13.6105 11.167 14.5939C12.6611 16.5246 15.0816 17.6443 17.4666 17.9508C18.1258 18.0356 18.8265 18.0412 19.4877 18.0387C18.5429 18.5913 17.9979 18.6636 16.9282 18.6541C17.8674 19.0078 18.9723 18.9818 19.9487 18.8344C18.8198 19.3492 18.2092 19.5104 16.994 19.4541C18.2354 19.9519 19.025 19.785 20.2359 19.7679C17.9285 20.4801 16.2776 20.186 14.0565 19.4132C13.9711 19.3815 13.8861 19.3484 13.8017 19.3141C11.3361 18.311 9.37956 16.7232 8.32231 14.2331C8.4604 15.2423 8.89887 16.1826 9.37267 17.0676C7.70013 15.4396 7.02945 13.2272 7.11979 10.9424C7.20647 8.74991 7.90209 7.0525 8.98473 5.17827C8.13791 5.938 7.43869 6.94181 6.9367 7.95423C6.77047 8.28945 6.6402 8.63411 6.46338 8.96213L6.47247 8.91877C7.19028 5.6046 9.08074 3.49856 11.8671 1.71146Z" fill="white"/>
<path d="M44.3147 7.13837C46.2458 9.27544 47.612 12.1694 47.5341 15.1112C47.434 18.8844 44.6536 21.4809 41.1652 22.476L41.0352 22.4043C42.1722 21.9981 42.9114 21.5029 43.8684 20.7686C43.4983 20.8769 43.1522 21.1285 42.7989 21.2868C41.8025 21.7331 40.7392 22.0127 39.6539 22.1307C39.4296 22.1551 39.1555 22.1827 38.9391 22.2232C38.7329 21.8963 38.5216 21.5727 38.3052 21.2526C38.6688 21.3917 39.5215 21.6851 39.9523 21.6187C40.0243 21.6076 40.0377 21.5345 40.0531 21.4819C39.9773 21.1396 39.3229 20.5794 39.0773 20.2534C38.8873 20.0015 38.7737 19.8771 38.5947 19.5819C40.9529 19.0839 42.4309 18.07 43.8146 16.0696C45.2415 14.0072 45.2247 11.199 44.7129 8.806C44.5891 8.24803 44.4567 7.69205 44.3147 7.13837Z" fill="white"/>
<path d="M46.2821 13.9072L46.3175 13.9359C46.4553 14.2092 46.4667 15.5818 46.4516 15.8992C46.3703 17.5828 45.2401 18.5253 44.0457 19.5586C44.0107 19.5935 44.0334 19.5779 43.9727 19.5965C43.9833 19.529 44.4158 18.8934 44.494 18.7644C45.6459 16.8597 46.0928 16.139 46.2821 13.9072Z" fill="#000100"/>
<path d="M12.5742 21.451C14.2757 21.4691 15.8447 22.2144 17.3841 22.8717C16.0791 22.8985 14.753 22.5374 13.4783 22.5447C11.8585 22.5541 10.5191 23.0861 9.39387 24.2433C10.0213 24.2422 11.1246 24.3196 11.7102 24.5115C11.4336 24.7665 10.94 25.057 10.6084 25.2699C11.2741 25.4025 11.8357 25.5089 12.4828 25.7047C12.2975 25.8293 12.1715 25.9355 12.0001 26.0797C12.4097 26.2962 12.7451 26.3794 13.1835 26.5173C13.3668 26.7452 13.4208 26.8403 13.6609 27.0049C13.7516 27.0488 13.8436 27.09 13.9369 27.1283C14.7774 27.4678 15.7093 27.0957 16.4961 26.7697C14.0312 29.169 11.1258 27.346 8.93904 25.6069C9.27396 25.4501 9.66896 25.233 10.0031 25.0608C9.4351 24.9902 8.63569 24.9706 8.12979 24.7117C7.70387 24.4936 8.67973 23.4676 8.88337 23.225C9.88609 22.0299 11.0257 21.5429 12.5742 21.451Z" fill="white"/>
<path d="M19.6759 26.6409L19.7114 26.7004C19.5457 27.9458 19.5198 28.8364 19.6939 30.0806C19.7982 30.8257 19.6204 31.7583 19.4211 32.4903C20.5702 31.4421 20.9554 30.5777 21.3602 29.1193C21.428 29.4759 21.4894 29.9584 21.4489 30.3163C21.284 31.7717 20.7255 32.62 21.1603 34.1326C21.4773 33.8181 21.7151 33.4185 22.0013 33.0738C22.3103 32.7016 22.6356 32.3737 22.9456 31.9991C22.2399 33.7337 21.8378 35.3232 22.1031 37.2115C22.1758 37.7291 22.2456 38.142 22.4318 38.6408C21.552 37.6989 21.2273 36.9124 21.0013 35.6439C20.9607 35.2145 20.8526 34.6784 20.7669 34.2568C20.2187 35.66 20.1706 36.3612 20.3897 37.8721C20.2452 37.6714 20.107 37.4814 19.9803 37.2688C18.926 35.4992 20.1428 33.909 20.5616 32.231C19.5803 33.0909 19.1594 33.7498 17.7903 34.0994C18.7316 32.9249 18.9617 31.4397 18.9804 29.9842C18.4435 30.8171 18.1903 31.1152 17.4342 31.7542C17.6572 31.2483 17.9807 30.6727 18.175 30.1669C18.6545 28.9185 19.0647 27.8411 19.6759 26.6409Z" fill="white"/>
<path d="M15.5984 29.223C15.5931 29.2921 15.2835 29.9739 15.2211 30.1149C14.9668 30.6895 14.8525 31.2599 14.6524 31.8451C15.172 31.3196 15.712 30.8147 16.2711 30.3317C15.2976 32.1631 15.1806 34.4667 15.7575 36.4335C15.837 36.7045 15.9277 37.0729 16.0737 37.3065L16.1199 37.2959C16.1924 36.2229 16.5551 35.3085 17.035 34.3679C16.9131 35.8827 16.804 36.7783 16.8148 38.3273C16.8475 38.9337 16.8972 39.6022 16.8861 40.2046C14.7774 37.7349 14.1128 35.4934 15.1177 32.2993C14.8538 32.5771 13.7042 34.1556 13.4434 34.0116C13.3839 33.8243 13.5365 33.2734 13.5766 33.0635C13.8751 31.5011 14.4944 30.3633 15.5984 29.223Z" fill="white"/>
<path d="M36.2105 41.0011C36.2317 40.998 36.253 40.9956 36.2743 40.9939C37.0011 40.9266 37.5238 41.1098 38.073 41.5674C38.0517 41.6514 38.0298 41.7351 38.0068 41.8188C37.7026 42.9157 36.8941 43.5006 35.9398 44.0439C36.1745 43.669 36.2547 43.4412 36.3429 43.0125C36.0108 43.0649 35.5869 43.2275 35.2614 43.3466C34.6642 43.5644 34.2907 43.6769 33.6612 43.7554C33.902 43.5654 34.1603 43.3136 34.3881 43.102C34.0348 43.1963 33.7734 43.2539 33.4132 43.3198C33.181 43.3249 33.0226 43.3414 32.7907 43.3702C32.9289 43.2649 33.2531 43.0516 33.2654 42.8821C33.0997 42.8416 32.6281 42.8989 32.3839 42.8845C32.0042 42.8619 31.7586 42.819 31.3857 42.7549C32.0316 42.6149 32.0759 42.6468 32.7334 42.3251C31.8865 42.3024 31.1727 42.276 30.8314 41.3832C32.4082 42.1666 34.4797 41.1907 36.2105 41.0011Z" fill="white"/>
<path d="M5.55305 26.9515C5.55332 26.9837 5.10216 28.1351 5.04443 28.2851C4.61485 29.4015 4.65214 30.4534 4.515 31.6078C4.86346 31.2229 5.17803 30.8243 5.54059 30.4392C6.22363 29.7137 6.89733 29.1616 7.68456 28.5612C7.07631 29.5154 6.58883 30.2506 5.89444 31.1543C4.98777 32.267 4.17573 33.4634 3.25932 34.5336C3.24011 33.7951 3.21596 33.0875 3.2836 32.3504C3.4654 30.3695 4.21665 28.4378 5.55305 26.9515Z" fill="white"/>
<path d="M25.6487 35.4598C25.715 35.5424 25.5444 36.4013 25.52 36.5732C25.2739 38.3078 25.6102 39.1598 26.0153 40.728C26.4236 39.2257 26.4773 38.5736 27.2911 37.1429C27.01 38.3321 26.9547 39.463 27.2637 40.6522C27.4321 41.2196 27.5744 41.577 27.8286 42.108C27.1639 41.5516 26.9565 41.3314 26.5181 40.5682C26.323 40.999 26.2413 41.4648 26.0187 41.8716C24.4363 39.6013 24.4466 37.88 25.6487 35.4598Z" fill="white"/>
<path d="M22.1439 25.7085C22.4052 25.7942 22.6683 25.8745 22.9329 25.9493C22.9842 26.9553 23.2304 27.651 24.3951 27.8016C25.0027 27.8802 25.4222 27.5809 25.8748 27.2083C26.399 27.6189 26.5451 27.9742 26.7712 28.5822C26.8033 28.7246 26.8531 28.8852 26.8932 29.0274C26.1089 28.7728 25.6552 28.8139 24.8553 28.833C24.1647 28.8494 23.3364 28.7058 22.8373 28.1879C22.1288 27.4527 22.1369 26.6467 22.1439 25.7085Z" fill="white"/>
<path d="M18.1623 39.0898C18.1968 39.121 18.2142 39.1505 18.2198 39.1999C18.2801 39.7264 18.3606 40.253 18.5245 40.7592C18.7375 41.4178 19.1776 41.9608 19.5311 42.5491C19.4812 41.5375 19.474 41.0614 19.7274 40.0712C19.8465 41.047 19.6631 41.2882 20.0802 42.4033C20.3136 42.9833 20.6058 43.4546 20.9717 43.9578C20.0271 43.5921 19.449 43.2834 18.8081 42.4448C18.1705 41.6106 17.9896 40.1157 18.1623 39.0898Z" fill="white"/>
<path d="M40.1684 38.0429C40.5698 38.0279 40.6816 38.0803 41.0644 38.2124C40.851 39.0853 40.2027 39.8166 39.4752 40.3133L39.1394 40.4807C38.9864 40.4416 38.8187 40.407 38.7227 40.2818C38.746 40.0859 38.8972 39.9264 38.9573 39.7453C39.1957 39.0233 39.2886 38.2275 40.1684 38.0429Z" fill="white"/>
<path d="M31.3967 22.0053C31.4489 22.0314 31.4509 22.0333 31.4904 22.0755C32.7513 23.4202 32.3644 25.2823 32.269 26.9506L32.2381 27.0058L32.1983 27.0004C31.4197 25.6765 31.5957 25.2957 31.5905 23.8756C31.5916 23.2471 31.5264 22.6203 31.3967 22.0053Z" fill="white"/>
<path d="M17.4976 45.5432C17.5194 45.5576 17.5403 45.5706 17.5584 45.5898C18.6578 46.7752 19.5022 48.7095 19.6236 50.29C19.5338 50.2266 19.2946 49.77 19.2263 49.6418C18.5067 48.2876 17.8528 47.0407 17.4976 45.5432Z" fill="white"/>
<path d="M27.2309 45.7438L27.2734 45.7932C27.2967 45.9815 27.2497 46.4103 27.2274 46.6123C27.0666 48.0464 26.0915 49.2854 24.9973 50.1621C25.1838 49.7145 25.3605 49.3502 25.5373 48.8844C25.7904 48.1912 25.7684 47.2997 25.7804 46.5564C26.0112 47.241 26.1224 47.7802 26.037 48.5002C26.772 47.4372 26.9382 47.0044 27.2309 45.7438Z" fill="white"/>
<path d="M26.8185 22.0852C27.1717 22.3462 27.6183 22.7701 27.8969 23.1043C28.9297 24.3437 29.0312 25.3806 28.9156 26.8985L28.8624 26.8892C28.5736 25.4536 28.3942 24.8572 27.6056 23.5898C27.4177 23.2881 26.922 22.4127 26.8185 22.0852Z" fill="white"/>
<path d="M17.8865 23.6912L17.9175 23.7218C17.9072 23.8277 17.6239 24.2107 17.5391 24.3865C17.3426 24.7934 17.2388 25.0839 17.1309 25.5226C17.4311 25.0961 17.6296 24.8391 17.9711 24.4534C17.6114 25.4027 17.5002 25.7629 17.3026 26.778C17.2561 26.9601 17.2343 27.1404 17.2077 27.3264C17.0215 26.8665 16.8541 26.501 16.747 26.0088C16.5651 26.04 16.3794 26.0676 16.1968 26.0964C16.6488 25.087 17.1248 24.4723 17.8865 23.6912Z" fill="white"/>
<path d="M28.8745 48.3551L28.9074 48.4138C28.7249 49.6623 27.2764 51.529 26.406 52.4894C26.3272 52.417 26.3828 52.2177 26.4125 52.1207C26.8595 50.6588 28.0993 49.6328 28.8745 48.3551Z" fill="white"/>
<path d="M13.5474 37.8145C13.5719 37.8337 13.6103 37.8642 13.6132 37.8999C13.6831 38.7646 13.8461 39.6287 14.1 40.4574C14.2316 40.8868 15.0495 42.5634 14.7831 42.9167C13.5877 41.2566 13.2898 39.8269 13.5474 37.8145Z" fill="white"/>
<path d="M11.4786 32.7449C11.5259 32.9311 11.4762 33.4244 11.4539 33.6192C11.4234 33.8809 11.3772 34.1402 11.3156 34.3965C11.177 34.984 10.9744 35.5956 10.8205 36.1832C10.7598 36.4154 10.5188 37.5168 10.4031 37.608C10.0706 35.7983 10.8886 34.356 11.4786 32.7449Z" fill="white"/>
<path d="M32.0191 47.014C32.0531 47.1629 32.0325 47.5772 32.0291 47.7494C32.0023 49.0405 31.5969 49.8524 30.9331 50.914C31.0727 50.2918 31.1019 49.6956 31.1139 49.0607C31.0964 48.3548 30.9294 47.6266 30.7136 46.9577C31.1448 47.5384 31.4116 48.1387 31.5228 48.8505C31.6579 48.3407 31.8685 47.4596 32.0191 47.014Z" fill="white"/>
<path d="M23.4102 24.8087C24.0357 24.7047 24.7218 24.8643 25.2363 25.2318C25.6489 25.5265 25.8679 25.9098 26.113 26.3373L25.7124 26.0391C25.3319 25.8017 24.8426 25.5559 24.4057 25.4509C23.6482 25.269 23.4577 25.4025 22.7987 24.9317C23.0287 24.8724 23.175 24.8445 23.4102 24.8087Z" fill="white"/>
<path d="M20.5105 15.4816C20.8222 15.4612 21.122 15.4721 21.4336 15.4789C21.033 15.6222 20.618 15.7367 20.2225 15.8878C19.6454 16.1083 19.0683 16.3619 18.5004 16.6068L17.8182 16.8645C18.5041 16.0741 19.4685 15.5787 20.5105 15.4816Z" fill="white"/>
<path d="M33.1148 25.6787C33.2393 26.5589 33.3014 27.084 33.6114 27.9477C33.6903 28.1668 34.1122 29.2258 34.1342 29.3385L34.0903 29.3378C33.5054 28.6745 33.0321 28.0529 32.968 27.1319C32.9378 26.6941 32.9621 26.0906 33.1148 25.6787Z" fill="white"/>
<path d="M27.8003 31.818C27.8322 31.9185 27.7924 32.2176 27.7752 32.3322C27.6305 33.3029 26.7855 33.8774 25.9553 34.1916C25.9284 34.098 26.1574 33.9296 26.2362 33.8589C26.9036 33.259 27.3907 32.6107 27.8003 31.818Z" fill="white"/>
<path d="M24.1975 44.9137C24.3356 45.0369 24.3833 45.3301 24.3931 45.5147C24.4364 46.3269 23.968 46.9097 23.4572 47.476L23.3944 47.51C23.3907 47.393 23.6704 46.8689 23.7327 46.708C23.9704 46.0944 24.1292 45.5744 24.1975 44.9137Z" fill="white"/>
<path d="M22.1893 20.6434C22.2216 20.7329 22.0994 21.3121 22.0707 21.4489C21.9438 22.054 22.0396 22.4725 22.0479 23.0164L22.0191 23.0215L21.9587 22.9117C21.543 21.9512 21.4052 21.4611 22.1893 20.6434Z" fill="white"/>
<path d="M23.7894 25.9547C23.9517 25.9025 24.1267 25.9849 24.1897 26.1433C24.2527 26.3017 24.1822 26.4819 24.0284 26.5554C23.9193 26.6077 23.7901 26.5947 23.6935 26.5219C23.597 26.449 23.549 26.3285 23.5691 26.2091C23.5893 26.0899 23.6742 25.9917 23.7894 25.9547Z" fill="white"/>
<path d="M41.1656 22.4761C41.0197 22.5157 40.7917 22.5875 40.6523 22.5379C40.7296 22.4645 40.9222 22.4327 41.0355 22.4043L41.1656 22.4761Z" fill="#BCBCBB"/>
</svg>
