<svg width="83" height="83" viewBox="0 0 83 83" fill="none" xmlns="http://www.w3.org/2000/svg">
<rect width="82.0773" height="82.0773" fill="black"/>
<path d="M30.058 5.80308L30.0865 6.19824C30.0999 6.38311 30.058 6.54222 30.0336 6.62395C30.0044 6.72176 29.9663 6.81602 29.9301 6.89741C29.8572 7.06078 29.7631 7.23573 29.6752 7.39141C29.5859 7.54954 29.4916 7.70777 29.416 7.83525C29.333 7.97521 29.2839 8.05936 29.2622 8.10185C28.127 10.3288 27.0393 12.9409 26.6573 15.5123C26.277 18.0728 26.6055 20.5121 28.196 22.5169C28.4437 22.8291 28.6992 23.0964 28.9885 23.3752C29.2984 23.2196 29.6174 23.0743 29.7865 22.9942C30.7517 22.5369 31.6467 22.1982 32.5544 21.9607C32.5394 21.9545 32.5246 21.9485 32.51 21.9422C32.4095 21.8991 32.2913 21.8428 32.1821 21.7715C32.1117 21.7255 31.8758 21.5703 31.7618 21.2754L31.6175 20.9021L31.8175 20.5556C32.0728 20.1132 32.5439 19.9837 32.6541 19.9496C34.9158 19.2477 37.3147 19.2144 39.5866 19.8935C39.5749 19.8639 39.5636 19.8325 39.5543 19.7991L39.4509 19.4291L39.8613 18.8142L40.0991 18.7174C40.3221 18.6266 40.5528 18.6114 40.7084 18.6099C40.8808 18.6082 41.0568 18.6241 41.2137 18.6448C41.5276 18.6862 41.8348 18.7568 42.02 18.8072C43.6746 19.2574 45.1665 20.0453 46.2946 21.3365C46.3736 21.1982 46.4912 21.0032 46.6081 20.8582C46.7118 20.7295 46.8886 20.5384 47.1462 20.4204C47.4338 20.2886 47.7799 20.2701 48.1079 20.4289L48.1732 20.463L48.3474 20.5607L48.4585 20.7265C48.6147 20.9596 48.6889 21.2268 48.7301 21.4304C48.7714 21.6341 48.7931 21.8488 48.805 22.0495C50.3556 21.7341 52.147 21.8025 53.5203 22.2524C53.8054 22.3458 54.3646 22.5322 54.8927 22.7634C55.1554 22.8785 55.4328 23.0143 55.6732 23.1663C55.8828 23.2988 56.1898 23.5193 56.364 23.8439L56.531 24.1547L56.4248 24.4913L56.4058 24.5509L56.2729 24.972L55.9738 25.0624C57.0355 25.7392 57.9579 26.5845 58.7979 27.5381C59.3264 27.4129 59.7121 27.3355 60.1904 27.1261C62.7095 26.0235 63.8959 24.1108 64.3269 21.8457C64.7532 19.6053 64.4324 17.0301 63.8421 14.6313L63.7842 14.3998C63.7408 14.2291 63.5812 13.7799 63.4051 13.2364C63.3245 12.9876 63.2437 12.7277 63.188 12.5112C63.1606 12.4049 63.1341 12.2893 63.1182 12.1814C63.1104 12.128 63.1023 12.0581 63.1017 11.9821C63.1013 11.9255 63.1024 11.7736 63.1708 11.6059L63.3476 11.173L63.8088 11.0967C64.0568 11.0557 64.2728 11.1077 64.4137 11.1583C64.5429 11.2047 64.6586 11.2677 64.7551 11.3342L64.7953 11.363L64.7958 11.3633C67.5842 13.4314 69.9591 16.7106 71.1692 20.2753C72.3798 23.8417 72.4557 27.8014 70.4651 31.1417C69.5432 32.6887 68.0396 33.99 66.4186 34.9893C65.1625 35.7637 63.7999 36.3788 62.5086 36.7972C62.7407 37.1174 62.9914 37.4337 63.2463 37.7398L63.3654 37.8788C63.4839 38.014 63.6038 38.143 63.7534 38.3127C63.9362 38.5202 64.1367 38.7606 64.3129 39.038L64.5341 39.3863L64.3679 39.8409L64.2694 40.1099L64.0268 40.2622C63.643 40.503 63.1904 40.5201 62.8693 40.501C62.6523 40.4881 62.4277 40.4536 62.2075 40.4073C62.3154 40.7182 62.396 41.0366 62.4196 41.3319C62.439 41.5761 62.4296 41.9153 62.2606 42.23C62.0579 42.6074 61.6948 42.8234 61.2836 42.8562C61.2265 42.8607 61.1694 42.8613 61.1125 42.8593C61.127 43.0321 61.1236 43.2065 61.0923 43.374C61.0487 43.6066 60.935 43.9094 60.6532 44.1328C60.5606 44.2062 60.463 44.2606 60.3639 44.2996C60.6994 44.8035 61.0854 45.2546 61.6088 45.7324L61.7124 45.8257L61.7127 45.826C61.9644 46.05 62.4373 46.4516 62.8462 46.8867C63.053 47.1066 63.2636 47.3557 63.4338 47.6189C63.5981 47.8728 63.7636 48.1983 63.8097 48.5642L63.8213 48.6622C64.0468 50.7272 63.2255 53.1491 62.2653 54.7957L62.2603 54.8043L62.2551 54.8127C61.809 55.5375 61.1825 56.1429 60.365 56.4641C59.8376 59.011 57.5224 60.3394 55.4541 60.9611C55.4246 61.1204 55.4048 61.266 55.3997 61.4066C55.3906 61.6586 55.4335 61.83 55.5231 61.9683L55.5374 61.9872C55.5518 62.0057 55.5673 62.0251 55.5925 62.0566C55.6351 62.1099 55.7083 62.2009 55.7737 62.3028C55.8674 62.449 56.186 62.9868 55.8294 63.5538L55.6676 63.8109L55.3788 63.9044C55.0645 64.0061 54.764 63.9608 54.5965 63.9264C54.418 63.8897 54.2371 63.829 54.1593 63.8047L54.1582 63.8042C53.8199 63.6982 53.5199 63.5565 53.2521 63.3869C52.9682 66.2799 51.5467 68.6789 49.0256 70.572C48.8654 70.6924 48.5653 70.9049 48.2419 71.0841C48.0808 71.1734 47.8932 71.266 47.701 71.3329C47.5305 71.3923 47.2529 71.4693 46.953 71.4223L46.604 71.3676L46.4274 71.1181C45.7538 71.9266 44.9387 72.6444 43.9264 73.2049L43.9256 73.2053C43.8331 73.2564 43.6667 73.3474 43.477 73.4092C43.2918 73.4696 42.9838 73.5363 42.6449 73.4262L42.1666 73.2708L42.1094 72.9453C41.0042 73.5937 39.7721 74.0628 38.4564 74.1997C38.3028 74.2158 38.0855 74.2221 37.8684 74.2C37.7589 74.1889 37.6286 74.1685 37.4966 74.1293C37.3751 74.0931 37.1884 74.0227 37.0201 73.8745L36.6861 73.5801L36.7436 73.1387C36.7439 73.1359 36.7443 73.1328 36.7449 73.1281C36.7454 73.124 36.7463 73.1175 36.7472 73.1109C36.7488 73.0982 36.7517 73.076 36.7561 73.0505C36.7651 72.9991 36.784 72.9089 36.8305 72.8066C36.9377 72.5702 37.1121 72.4377 37.2292 72.3658L37.2297 72.3655C37.2743 72.3382 37.318 72.3102 37.3612 72.282C37.3279 72.2995 37.2942 72.3167 37.2599 72.3327C37.0941 72.41 36.8528 72.4987 36.5776 72.496L36.5647 72.4959L36.5519 72.4954C36.3487 72.4872 36.1466 72.418 35.98 72.3021C35.8142 72.1868 35.5627 71.9323 35.5527 71.5242C35.5271 70.4752 35.5923 69.8379 35.4391 69.0108L35.4055 68.8427C35.0881 67.365 34.2944 66.1486 33.2869 64.9507C33.1962 65.2698 33.0871 65.5928 32.9558 65.9073C32.6381 66.668 32.1622 67.4519 31.4444 67.9771L30.5694 68.6171L30.1723 67.6085C30.0852 67.3873 30.0268 67.1392 29.9843 66.942C29.9355 66.7159 29.9087 66.5661 29.8717 66.4131L29.8288 66.2486C29.7253 65.8658 29.5992 65.4894 29.4512 65.1217L29.4508 65.1204C29.1102 64.2703 28.7278 63.578 28.3045 62.6656C28.1424 62.3164 27.9878 61.973 27.8405 61.6322C27.7797 61.6922 27.718 61.7362 27.6648 61.7673C27.5882 61.812 27.5157 61.8377 27.5114 61.8394C27.4971 61.8447 27.4996 61.8438 27.507 61.8408L27.2065 61.973L26.8877 61.8529C26.641 61.7601 26.4462 61.6025 26.3262 61.495C26.1972 61.3795 26.083 61.2552 26.0145 61.1814L26.0139 61.1805C24.7533 59.8174 23.8712 58.1846 23.3318 56.4466C23.3342 56.6304 23.3421 56.8123 23.3568 56.9927L23.3684 57.1203L23.3962 57.3712C23.4084 57.4857 23.4215 57.621 23.4299 57.7469C23.4385 57.8766 23.4446 58.0275 23.4379 58.1695C23.4345 58.2404 23.4272 58.3263 23.4101 58.4154C23.3954 58.4915 23.3615 58.6373 23.2698 58.7851L23.0845 59.0833L22.7418 59.16L22.643 59.1822L22.4219 59.2315L22.2063 59.1627C22.0481 59.1123 21.9006 59.0465 21.7558 58.9466C21.6253 58.8566 21.5216 58.7545 21.4498 58.6836L21.4493 58.683C19.5373 56.7898 18.3157 54.0775 17.7919 51.5542C17.7121 51.1696 17.6522 50.7967 17.6073 50.4301C17.5848 50.4672 17.562 50.5044 17.5393 50.542L17.0862 51.2941C17.0287 51.3883 16.843 51.7079 16.6366 51.9859C16.5351 52.1226 16.3998 52.2894 16.2436 52.4252C16.1653 52.4932 16.0544 52.5779 15.9147 52.6418C15.7758 52.7054 15.5513 52.774 15.2851 52.7199L14.9666 52.6552L14.7755 52.3924C14.4991 52.0125 14.391 51.4996 14.3351 51.1471C14.2734 50.7585 14.2482 50.3576 14.23 50.1176C14.1124 48.5666 14.2207 47.1308 14.4831 45.7188C14.3811 45.8181 14.284 45.9119 14.1934 45.9964C14.0574 46.1233 13.9247 46.2419 13.8099 46.3332C13.7539 46.3778 13.6861 46.4287 13.6145 46.4729C13.5788 46.4949 13.5278 46.5242 13.4665 46.5508C13.4166 46.5724 13.2981 46.6202 13.1424 46.6273L12.748 46.6453L12.2549 46.0988L12.214 45.8593C12.1583 45.532 12.1895 45.1798 12.2215 44.9533C12.4741 43.169 13.1877 41.1401 14.1727 39.2949C14.6816 38.3417 15.2729 37.4189 15.9265 36.593C15.5703 36.626 15.2104 36.6395 14.8857 36.6146C14.666 36.5977 14.428 36.561 14.2054 36.4822C13.989 36.4057 13.7113 36.2623 13.5147 35.9822L13.2974 35.6726L13.4696 34.9614L13.662 34.7882C13.8618 34.6084 14.19 34.3934 14.4478 34.2268C14.7438 34.0354 14.9987 33.8754 15.1605 33.7584C16.0343 33.1265 16.9444 32.4091 17.9195 31.7654C17.6139 31.7008 17.3123 31.6203 17.0586 31.5178C16.8789 31.4452 16.6473 31.3326 16.4595 31.1514C16.2502 30.9493 16.0237 30.5756 16.1509 30.1023L16.2486 29.7388L16.5856 29.5709C16.8583 29.435 17.1689 29.3272 17.4361 29.2399C17.7284 29.1444 17.9586 29.0761 18.1714 28.9985C18.8286 28.7587 19.4807 28.5177 20.1287 28.2696C19.1305 27.0775 18.3423 25.72 17.9425 24.2263C16.9865 20.6553 18.0095 16.6538 19.686 13.6338L19.6875 13.631L19.6891 13.6284C21.338 10.7093 23.7091 8.26243 26.5752 6.52283L26.577 6.52169C27.2947 6.08851 28.0192 5.66611 28.9447 5.40056L29.3295 5.29013L30.058 5.80308ZM29.1753 6.20445C28.3659 6.43671 27.724 6.80643 27.0092 7.23785L26.7534 7.39598C24.1244 9.04997 21.9465 11.3326 20.4174 14.0398L20.3422 14.1765C18.7765 17.0612 17.8828 20.769 18.7505 24.01C19.6133 27.2332 22.5125 29.8594 25.3619 31.4294L25.5692 31.5426C23.5627 31.3344 22.1304 30.2329 20.683 28.9531C19.9443 29.2389 19.202 29.5128 18.4581 29.7842L18.279 29.8466C17.8478 29.9916 17.332 30.1333 16.9586 30.3194C16.7797 30.985 20.0335 31.2285 20.5575 31.2242C20.1045 31.3999 19.7504 31.6424 19.3346 31.877C18.0248 32.6159 16.868 33.5558 15.6507 34.4362L15.5767 34.4885C15.1847 34.7602 14.4835 35.174 14.2215 35.4098L14.1993 35.5018C14.6701 36.1724 17.6552 35.5012 18.4131 35.2508C15.7518 37.3291 13.5219 41.7339 13.0496 45.0705C13.0215 45.2695 13.0046 45.5198 13.0385 45.7188L13.1043 45.7917C13.3558 45.7802 15.7084 43.2533 16.0652 42.9076C15.3108 45.3084 14.8722 47.5262 15.064 50.0544C15.1027 50.5655 15.155 51.4922 15.4518 51.9002C15.6985 51.9503 16.1107 51.2916 16.3039 50.972L16.372 50.8587C16.9795 49.8623 17.5097 48.888 18.3029 48.023C18.3233 49.1808 18.3713 50.2306 18.6108 51.3843C19.1106 53.7916 20.2715 56.3399 22.0377 58.0887C22.1844 58.2336 22.2651 58.3036 22.4603 58.3659L22.5593 58.3438C22.6618 58.1788 22.5606 57.445 22.5363 57.2041C22.3835 55.6871 22.6929 54.1569 22.7898 52.6477C22.5375 53.0908 22.0135 54.1062 21.7251 54.4412C21.6233 54.2549 21.5283 54.0684 21.4323 53.8792C19.9426 50.9435 20.7623 47.3897 22.6974 44.8333C21.8375 47.0887 21.3593 49.3462 21.688 51.7585C21.762 52.3024 21.8925 52.841 21.997 53.3836C22.0874 52.8479 22.3639 52.1722 22.5356 51.6389C22.9505 50.3517 23.4487 48.79 24.1129 47.6035C23.8978 48.6041 23.6814 49.6056 23.5815 50.6364C23.239 54.1705 24.1786 57.9641 26.6279 60.6127L26.7475 60.7398C26.8659 60.8617 27.0057 60.9899 27.1445 61.0543L27.1822 61.0703C27.2344 61.0473 27.2636 61.0488 27.2681 61.0013C27.3326 60.3248 27.1462 59.4255 27.1258 58.762C27.1069 58.1432 27.0817 57.4137 27.1508 56.8367C27.5756 58.8218 28.2068 60.4681 29.0633 62.3136C29.4559 63.1597 29.8778 63.9371 30.2272 64.8094C30.4105 65.2648 30.5626 65.7326 30.6826 66.2085C30.7636 66.5415 30.8302 66.9965 30.9506 67.3021C32.0416 66.5038 32.5506 64.789 32.7455 63.4997C32.7644 63.3761 32.776 63.2515 32.7803 63.1261C34.2876 64.7537 35.7414 66.4235 36.2233 68.6671C36.4411 69.6815 36.364 70.4896 36.3887 71.5036C36.3908 71.5854 36.4777 71.6411 36.5539 71.6559L36.5856 71.6596C36.9243 71.6628 37.423 71.255 37.711 70.9892L37.8203 70.8857C39.2074 69.5374 40.0359 66.9387 40.1837 65.0281C40.802 68.1227 40.561 71.3062 37.6665 73.0787C37.5824 73.1303 37.5833 73.1668 37.5729 73.2467C37.7315 73.3863 38.1621 73.3896 38.3695 73.3679C40.5122 73.1451 42.466 71.9263 43.9673 70.4699C43.7842 70.9159 43.6021 71.3849 43.3516 71.7965C43.2312 71.9763 42.8715 72.4486 42.9035 72.6308C43.1013 72.6951 43.338 72.5742 43.5213 72.473C46.1413 71.0224 47.3377 68.3845 48.3067 65.7498C48.2739 67.259 48.1175 68.5308 47.3648 69.8622C47.2661 70.0371 46.9893 70.4641 47.0825 70.596C47.4585 70.655 48.2366 70.1185 48.5233 69.9031C51.4615 67.6968 52.7643 64.8016 52.4129 61.1443C52.8548 62.0297 53.4401 62.7028 54.4083 63.0062C54.6041 63.0673 54.8759 63.1632 55.0812 63.1193L55.1214 63.1085C55.2601 62.8878 54.9445 62.6131 54.8216 62.4239C54.3989 61.7723 54.584 60.9936 54.7412 60.2912C57.0007 59.7211 59.3721 58.3925 59.6178 55.8163C60.4212 55.6517 61.0471 55.1473 61.4995 54.4432L61.5428 54.3744C62.468 52.7878 63.2113 50.5036 62.9799 48.6688C62.8852 47.9169 61.7009 46.9352 61.1566 46.4507C59.9136 45.3453 59.3467 44.3702 58.655 42.8839C60.8063 44.5999 60.4774 42.5891 59.6542 41.3106C62.7263 43.4568 61.4617 40.2018 60.4677 38.8995C61.0882 39.2353 62.8952 39.9265 63.552 39.5713L63.5823 39.5537L63.607 39.4864C63.3601 39.0977 63.035 38.7712 62.7321 38.4251L62.604 38.2753C62.0965 37.666 61.5817 36.9906 61.189 36.303C64.1646 35.5832 67.9678 33.5601 69.6673 30.8434L69.7467 30.7134C73.4039 24.5763 69.5873 15.9585 64.2975 12.0352C64.2045 11.9663 64.0635 11.9024 63.9452 11.922L63.9419 11.9323C63.884 12.1714 64.4924 13.7913 64.5948 14.1936C65.8718 19.2133 66.1511 25.4302 60.5259 27.8922C59.8292 28.1973 59.2103 28.2849 58.4993 28.4749L58.3593 28.3088C56.9063 26.6045 55.2503 25.2895 53.0506 24.6398C53.6633 24.5489 54.2686 24.4605 54.8858 24.4089C55.0922 24.3917 55.3172 24.3729 55.5219 24.3227L55.6083 24.2991L55.6271 24.2394C55.3649 23.751 53.8251 23.2324 53.2599 23.0472C51.7126 22.5402 49.5199 22.5741 47.9591 23.1529C47.9904 22.68 48.0259 21.6537 47.7876 21.2311L47.7637 21.1922C47.3853 20.9796 47.0789 21.6665 46.9183 21.9344C46.7336 22.2436 46.5641 22.5688 46.3819 22.8817C45.387 21.1955 43.8383 20.2045 41.9812 19.665L41.8005 19.6142C41.4846 19.5282 40.7218 19.367 40.4144 19.4922L40.3598 19.5738C40.4072 19.7434 41.0063 20.2586 41.1635 20.4194L41.3359 20.5973C41.7371 21.0169 42.1275 21.4699 42.386 21.9875C41.5318 21.5676 40.7587 21.1769 39.8534 20.8592L39.6704 20.7966C37.4679 20.0628 35.118 20.0608 32.902 20.7484L32.8494 20.7654C32.7266 20.8071 32.6049 20.8647 32.542 20.9737C32.6387 21.2239 34.1524 21.566 34.4997 21.6823C35.0824 21.8775 35.5942 22.0873 36.1491 22.3485C33.8868 22.3755 32.1981 22.7772 30.1447 23.7501L29.8428 23.8917C29.5045 24.0504 29.0868 24.2503 28.8596 24.4014C28.4045 23.9819 28.0034 23.6031 27.6177 23.1323L27.5408 23.0369C24.0348 18.6177 26.1465 12.4346 28.4093 7.9349L28.5172 7.72204C28.6594 7.44308 29.2337 6.57609 29.2523 6.28498V6.25868L29.1753 6.20445Z" fill="white"/>
<path d="M29.047 6.12546L29.124 6.17968C29.1429 6.44061 28.5356 7.35503 28.3888 7.64299C26.0866 12.1589 23.8509 18.4685 27.4125 22.9578C27.8219 23.4738 28.2458 23.8749 28.7312 24.3225C29.0342 24.121 29.6756 23.8326 30.0163 23.6711C32.0697 22.6982 33.7584 22.2965 36.0207 22.2694C35.4658 22.0083 34.954 21.7985 34.3713 21.6034C34.0241 21.4871 32.5104 21.145 32.4136 20.8948C32.4855 20.7701 32.6343 20.7127 32.7736 20.6694C34.9896 19.9818 37.3396 19.9838 39.5421 20.7175C40.5276 21.0458 41.3465 21.4607 42.2576 21.9085C41.9623 21.317 41.4945 20.8099 41.0352 20.3403C40.878 20.1796 40.279 19.6645 40.2315 19.4949L40.2861 19.4131C40.5936 19.2879 41.3563 19.4492 41.6721 19.5352C43.6095 20.0623 45.2266 21.062 46.2535 22.8026C46.4357 22.4898 46.6053 22.1645 46.79 21.8553C46.9505 21.5875 47.2569 20.9006 47.6353 21.1132C47.8999 21.508 47.863 22.5857 47.8307 23.0738C49.3915 22.495 51.5843 22.4613 53.1316 22.9682C53.6968 23.1534 55.2367 23.6721 55.4988 24.1604L55.48 24.2201C55.2535 24.2885 54.9934 24.3102 54.7575 24.3299C54.1403 24.3815 53.535 24.4699 52.9223 24.5608C55.1929 25.2315 56.8843 26.6109 58.371 28.3959C59.082 28.2058 59.7008 28.1183 60.3975 27.8133C66.0228 25.3513 65.7434 19.1343 64.4664 14.1146C64.3624 13.7059 63.7362 12.0406 63.8169 11.8429C63.9352 11.8234 64.0761 11.8873 64.1691 11.9561C69.4589 15.8794 73.2756 24.4973 69.6182 30.6345C67.9604 33.4165 64.0835 35.4928 61.0606 36.2241C61.4533 36.9116 61.9682 37.5871 62.4756 38.1963C62.8122 38.6002 63.1964 38.9632 63.4786 39.4074L63.454 39.4746C62.8245 39.8696 60.9697 39.1617 60.3393 38.8205C61.3333 40.1229 62.598 43.3778 59.526 41.2316C60.3492 42.5101 60.678 44.5209 58.5266 42.8049C59.2184 44.2911 59.7852 45.2663 61.0282 46.3717C61.5725 46.8562 62.757 47.8379 62.8516 48.5898C63.083 50.4247 62.3396 52.7088 61.4144 54.2954C60.959 55.0354 60.3189 55.5675 59.4895 55.7374C59.2438 58.3135 56.8725 59.6421 54.6129 60.2122C54.4557 60.9146 54.2705 61.6932 54.6932 62.3448C54.8161 62.534 55.1318 62.8088 54.993 63.0296C54.7841 63.0971 54.4888 62.9923 54.28 62.9272C53.3118 62.6237 52.7265 61.9508 52.2846 61.0653C52.636 64.7227 51.3332 67.6178 48.395 69.8241C48.1084 70.0395 47.3302 70.5761 46.9542 70.5171C46.8608 70.3852 47.1377 69.958 47.2364 69.7832C47.9892 68.4517 48.1456 67.18 48.1784 65.6708C47.2094 68.3055 46.0131 70.9434 43.393 72.3941C43.2097 72.4952 42.973 72.6161 42.7751 72.5518C42.7431 72.3695 43.1028 71.8973 43.2232 71.7175C43.4737 71.3059 43.6558 70.8369 43.8389 70.3909C42.3375 71.8473 40.3838 73.0662 38.2411 73.289C38.0337 73.3107 37.6032 73.3074 37.4446 73.1677C37.455 73.0879 37.4541 73.0514 37.5382 72.9998C40.4327 71.2273 40.6738 68.0438 40.0555 64.9492C39.9076 66.8597 39.0792 69.4584 37.692 70.8066C37.4404 71.0511 36.8443 71.5844 36.4572 71.5807C36.3758 71.5774 36.2628 71.518 36.2605 71.4247C36.2357 70.4106 36.3128 69.6025 36.0949 68.5881C35.613 66.3445 34.1593 64.6748 32.652 63.0472C32.6477 63.1725 32.636 63.297 32.6171 63.4207C32.4222 64.71 31.9132 66.4248 30.8222 67.223C30.7018 66.9175 30.6354 66.4625 30.5544 66.1295C30.4343 65.6536 30.2822 65.1859 30.0989 64.7305C29.7495 63.8581 29.3275 63.0808 28.9349 62.2346C28.0784 60.3892 27.4473 58.7427 27.0225 56.7576C26.9533 57.3347 26.9786 58.0641 26.9975 58.6829C27.0178 59.3464 27.2043 60.2458 27.1399 60.9224C27.1353 60.9699 27.1062 60.9683 27.0539 60.9912C26.8526 60.9154 26.645 60.6906 26.4996 60.5337C24.0502 57.8851 23.1107 54.0914 23.4532 50.5574C23.5532 49.5265 23.7695 48.5251 23.9846 47.5246C23.3204 48.7111 22.8222 50.2727 22.4073 51.5599C22.2355 52.0932 21.9592 52.769 21.8688 53.3047C21.7643 52.762 21.6337 52.2234 21.5597 51.6795C21.231 49.2673 21.7091 47.0098 22.569 44.7544C20.6339 47.3108 19.8142 50.8645 21.304 53.8002C21.4 53.9894 21.495 54.1758 21.5967 54.3621C21.8851 54.0271 22.4092 53.0118 22.6615 52.5687C22.5646 54.0779 22.2552 55.608 22.408 57.125C22.4322 57.3658 22.5335 58.0997 22.4309 58.2648L22.332 58.2869C22.1367 58.2247 22.0561 58.1546 21.9094 58.0096C20.1432 56.2608 18.9822 53.7126 18.4825 51.3052C18.2429 50.1515 18.1949 49.1018 18.1745 47.944C17.3813 48.809 16.8512 49.7833 16.2437 50.7797C16.1034 51.0099 15.6054 51.8786 15.3234 51.8212C15.0266 51.4133 14.9744 50.4865 14.9357 49.9754C14.7439 47.4472 15.1825 45.2294 15.9369 42.8286C15.58 43.1743 13.2275 45.7012 12.976 45.7127L12.9102 45.6398C12.8763 45.4408 12.8932 45.1905 12.9213 44.9915C13.3936 41.655 15.6234 37.2501 18.2848 35.1719C17.5268 35.4223 14.5417 36.0934 14.071 35.4227L14.0932 35.3308C14.3726 35.0794 15.1518 34.6252 15.5224 34.3571C16.7397 33.4768 17.8963 32.537 19.2062 31.7981C19.622 31.5635 19.9761 31.3209 20.4293 31.1453C19.9055 31.1496 16.6514 30.9062 16.8303 30.2405C17.2571 30.0278 17.8698 29.8729 18.3297 29.7052C19.0737 29.4338 19.816 29.16 20.5547 28.8741C22.0021 30.154 23.4344 31.2553 25.4408 31.4636L25.2335 31.3504C22.3841 29.7804 19.4849 27.1542 18.6221 23.931C17.7407 20.6385 18.677 16.8644 20.289 13.9607C21.8674 11.1663 24.1372 8.82411 26.8809 7.15885C27.5957 6.72742 28.2375 6.35772 29.047 6.12546Z" fill="#000100"/>
<path d="M56.6858 39.4437C56.7264 39.5285 56.8796 40.6267 56.9267 40.8415C57.2306 42.2284 57.6962 43.6551 58.3875 44.8989C58.7942 45.6382 59.3652 46.2087 59.9123 46.8284C60.4431 47.4292 61.4572 47.8924 61.7717 48.5796C62.1919 49.4983 60.8134 49.9836 60.319 50.5262C59.9263 50.9575 59.7379 51.2528 59.4819 51.8016C59.5183 50.8142 59.7415 50.4566 60.1896 49.6015C59.9561 49.6453 59.3611 49.8337 59.1026 49.9193C58.1926 50.2199 57.3661 49.7821 56.4757 49.4483C56.5769 49.6625 56.6895 49.9779 56.7506 50.1982C56.9152 50.792 56.8337 51.141 56.5302 51.6435C55.4154 53.4902 55.5071 53.5037 53.4049 54.0124C52.3187 54.2753 51.0512 54.5493 50.0048 53.9534C49.4322 53.6274 49.1201 53.0974 48.9682 52.4798C49.1095 52.0391 49.3843 51.6058 49.6087 51.1951C48.2686 51.8929 47.966 52.5462 47.4159 53.894C47.3045 53.0921 47.71 51.3118 48.0782 50.5676C48.2142 50.2928 48.7679 49.4073 48.7536 49.2402C48.636 49.2275 48.6377 49.2603 48.5095 49.3434C47.8046 49.8103 47.3164 50.2957 46.7955 50.9497C47.0592 49.8726 47.5106 48.8503 48.1294 47.9301C47.3054 48.3224 46.7631 48.8188 46.0959 49.4196C46.1238 47.8572 46.6402 46.7022 47.5974 45.4899C47.8689 45.1463 48.3477 44.5209 48.5476 44.1474L48.5729 44.0991C48.7294 44.6618 48.7982 45.56 48.8363 46.1493C49.5317 45.1312 49.7164 43.8488 49.3368 42.676C48.9731 41.5727 48.7314 41.5672 48.593 40.2605C49.3351 41.3965 49.7881 41.9839 51.1405 42.4367C50.6068 41.2813 50.4987 40.8596 50.6125 39.6078C51.8273 41.5033 53.35 42.8225 55.5661 43.4127C55.1631 42.46 54.7982 41.4262 54.7318 40.3929C55.3044 41.2915 55.6906 41.6881 56.5523 42.2615C56.3963 41.2189 56.3893 40.4498 56.6858 39.4437Z" fill="white"/>
<path d="M52.0599 48.1561C52.8835 48.0701 53.9451 48.4461 54.6126 48.9159C55.3953 49.4667 56.3729 50.4181 55.9478 51.4748C55.931 51.5165 55.8454 51.5034 55.8053 51.5047C55.3605 51.313 54.6671 50.9935 54.192 51.1094C52.4125 51.5427 51.7498 49.9737 51.8608 48.4944C51.8739 48.3212 51.9149 48.2647 52.0599 48.1561Z" fill="#000100"/>
<path d="M52.9245 46.0297C54.5005 45.9437 55.9622 46.9979 57.3628 47.5627C58.2245 47.9096 58.802 47.851 59.6293 47.4787C58.902 48.2745 58.4097 48.5145 57.3248 48.3536C56.6535 48.1893 56.1379 47.9452 55.526 47.6336C53.6502 46.6785 52.5252 46.3697 50.4766 47.0196C51.3723 46.3889 51.8109 46.1243 52.9245 46.0297Z" fill="#000100"/>
<path d="M46.7443 24.6489C48.7749 24.1875 49.7345 24.0822 51.7925 24.6151C51.2244 24.7042 50.5749 24.814 50.0249 24.9723C52.9073 25.5177 55.2926 27.1613 57.274 29.263C57.6025 29.6115 57.9129 29.9871 58.2418 30.3276C57.5148 30.0436 57.0746 29.9182 56.373 29.5219C55.9225 29.2673 55.3331 28.8146 54.9178 28.6067C56.0314 29.7575 56.6933 30.7407 57.4817 32.1508C58.3548 33.7129 59.2952 35.7296 60.5161 37.061C59.3517 36.6124 58.5518 36.122 57.6676 35.2143C57.6336 37.1209 57.7364 38.1292 58.5797 39.8861C57.2134 38.6429 56.8325 37.5863 56.4999 35.8413C56.1502 37.224 56.0363 37.8959 55.3614 39.1838C55.7992 35.798 55.1771 32.9733 52.6321 30.5323C53.8448 33.0754 54.0086 33.6578 54.0918 36.4605C53.8505 35.6565 53.5782 34.7851 53.2096 34.0296C52.4441 32.4615 51.0672 30.9491 49.6825 29.8952C48.9989 29.3749 48.3219 28.9916 47.6154 28.4327C48.8408 30.506 49.2823 32.0156 49.1697 34.4634C49.1394 35.126 49.0821 35.8716 48.915 36.516C48.9051 36.5546 48.8945 36.5931 48.8838 36.6314C47.9263 32.5264 44.8716 32.273 43.683 28.7729C43.047 30.482 43.1004 31.633 43.8435 33.3441C42.4726 32.3093 41.1362 31.2797 40.4217 29.6547C39.7694 28.1711 39.887 27.1775 40.7572 25.8524C40.4463 28.0143 41.0137 29.0501 42.3277 30.6947C41.8248 28.7194 42.3318 27.2656 43.483 25.6361C44.375 26.8379 44.9945 27.5523 46.3978 28.2314C46.1677 27.709 45.9924 27.1502 45.8232 26.6047C48.308 27.4806 49.5342 28.1694 51.4505 29.9227C50.4836 28.1845 49.4363 27.0865 47.6986 26.0796C47.4365 25.9276 47.0597 25.7086 46.7795 25.6148L46.7914 25.5901C47.1133 25.6078 47.4049 25.7131 47.715 25.7748C49.1795 26.066 51.009 26.7022 52.2578 27.5441L52.406 27.4587C51.0004 25.8751 48.8474 24.8475 46.7443 24.6489Z" fill="white"/>
<path d="M52.4059 27.4587L52.8372 27.9298L52.2577 27.544L52.4059 27.4587Z" fill="#000100"/>
<path d="M27.061 8.16901C27.0631 8.17908 27.0818 8.24821 27.0782 8.25452C25.2535 11.5086 23.8901 15.2991 24.4201 19.081C24.6242 20.5375 25.3163 22.3766 26.2251 23.5508C28.0091 25.8561 30.8992 27.193 33.7469 27.559C34.534 27.6602 35.3706 27.6669 36.1601 27.6639C35.0321 28.3238 34.3813 28.4101 33.104 28.3987C34.2255 28.821 35.5447 28.7901 36.7106 28.614C35.3627 29.2287 34.6336 29.4213 33.1826 29.354C34.6649 29.9483 35.6077 29.7491 37.0535 29.7287C34.2984 30.579 32.3272 30.2278 29.6752 29.3052C29.5732 29.2673 29.4717 29.2278 29.3709 29.1868C26.427 27.9891 24.0909 26.0933 22.8285 23.1201C22.9934 24.325 23.5169 25.4477 24.0826 26.5044C22.0856 24.5606 21.2848 21.9189 21.3927 19.1909C21.4962 16.573 22.3267 14.5463 23.6194 12.3084C22.6083 13.2156 21.7734 14.4141 21.174 15.623C20.9756 16.0232 20.82 16.4348 20.6089 16.8264L20.6197 16.7746C21.4768 12.8175 23.734 10.3028 27.061 8.16901Z" fill="white"/>
<path d="M65.8037 14.6488C68.1095 17.2005 69.7408 20.6559 69.6478 24.1685C69.5282 28.6737 66.2084 31.7739 62.0432 32.9622L61.888 32.8765C63.2456 32.3916 64.1282 31.8002 65.2709 30.9235C64.829 31.0528 64.4157 31.3532 63.9939 31.5422C62.8041 32.0752 61.5345 32.409 60.2387 32.5499C59.9708 32.579 59.6436 32.612 59.3852 32.6603C59.139 32.27 58.8867 31.8836 58.6283 31.5014C59.0624 31.6675 60.0806 32.0178 60.595 31.9385C60.681 31.9253 60.697 31.838 60.7154 31.7752C60.6249 31.3665 59.8434 30.6976 59.5502 30.3083C59.3233 30.0075 59.1878 29.859 58.974 29.5065C61.7897 28.9119 63.5544 27.7013 65.2066 25.3128C66.9103 22.8503 66.8903 19.4973 66.2792 16.64C66.1314 15.9738 65.9733 15.3099 65.8037 14.6488Z" fill="white"/>
<path d="M68.1529 22.7309L68.1951 22.7651C68.3598 23.0914 68.3733 24.7303 68.3552 25.1094C68.2582 27.1195 66.9087 28.2449 65.4826 29.4786C65.4408 29.5203 65.4679 29.5017 65.3954 29.5239C65.4081 29.4434 65.9245 28.6844 66.0179 28.5304C67.3932 26.2562 67.9269 25.3957 68.1529 22.7309Z" fill="#000100"/>
<path d="M27.9051 31.7384C29.9366 31.7599 31.81 32.6499 33.6481 33.4347C32.0899 33.4667 30.5066 33.0355 28.9846 33.0443C27.0504 33.0555 25.4512 33.6907 24.1077 35.0724C24.8568 35.0711 26.1741 35.1634 26.8733 35.3927C26.5431 35.6971 25.9537 36.044 25.5578 36.2982C26.3526 36.4565 27.0233 36.5835 27.7959 36.8173C27.5746 36.9661 27.4242 37.093 27.2195 37.2651C27.7086 37.5236 28.109 37.6229 28.6326 37.7876C28.8514 38.0598 28.9158 38.1732 29.2025 38.3698C29.3109 38.4222 29.4207 38.4714 29.5321 38.5171C30.5357 38.9225 31.6483 38.4782 32.5878 38.0889C29.6447 40.9538 26.1756 38.777 23.5646 36.7005C23.9645 36.5133 24.4361 36.2541 24.835 36.0485C24.1569 35.9643 23.2024 35.9408 22.5983 35.6316C22.0898 35.3713 23.255 34.1462 23.4981 33.8565C24.6954 32.4296 26.0561 31.8481 27.9051 31.7384Z" fill="white"/>
<path d="M36.3846 37.9352L36.427 38.0062C36.2291 39.4932 36.1982 40.5566 36.4062 42.0422C36.5307 42.9318 36.3184 44.0454 36.0804 44.9194C37.4525 43.6678 37.9123 42.6358 38.3957 40.8943C38.4767 41.3202 38.55 41.8963 38.5016 42.3236C38.3047 44.0614 37.6378 45.0742 38.157 46.8804C38.5355 46.5048 38.8194 46.0277 39.1612 45.6161C39.5302 45.1717 39.9185 44.7802 40.2886 44.3329C39.4461 46.4041 38.966 48.302 39.2828 50.5566C39.3696 51.1746 39.4529 51.6677 39.6752 52.2632C38.6247 51.1385 38.237 50.1994 37.9671 48.6849C37.9187 48.1721 37.7896 47.532 37.6873 47.0286C37.0327 48.7041 36.9753 49.5413 37.2369 51.3454C37.0644 51.1058 36.8994 50.8789 36.7481 50.625C35.4893 48.5121 36.9421 46.6134 37.4422 44.6098C36.2705 45.6366 35.7679 46.4233 34.1332 46.8407C35.2571 45.4383 35.5318 43.665 35.5542 41.9271C34.9131 42.9216 34.6108 43.2775 33.708 44.0405C33.9742 43.4364 34.3605 42.7492 34.5925 42.1452C35.1651 40.6546 35.6548 39.3683 36.3846 37.9352Z" fill="white"/>
<path d="M31.516 41.0181C31.5097 41.1006 31.1401 41.9147 31.0655 42.0831C30.7619 42.7692 30.6255 43.4503 30.3865 44.149C31.007 43.5215 31.6517 42.9187 32.3193 42.342C31.1569 44.5286 31.0172 47.2792 31.7061 49.6276C31.801 49.9512 31.9093 50.391 32.0836 50.6699L32.1388 50.6572C32.2254 49.3762 32.6584 48.2843 33.2314 47.1613C33.0859 48.9699 32.9556 50.0392 32.9685 51.8888C33.0075 52.6129 33.0669 53.4111 33.0536 54.1303C30.5358 51.1815 29.7423 48.505 30.9421 44.6912C30.6271 45.023 29.2544 46.9078 28.943 46.7357C28.872 46.5121 29.0542 45.8544 29.102 45.6037C29.4585 43.7382 30.1979 42.3797 31.516 41.0181Z" fill="white"/>
<path d="M56.1271 55.0813C56.1525 55.0776 56.1779 55.0748 56.2033 55.0727C57.0712 54.9924 57.6953 55.2111 58.351 55.7575C58.3256 55.8578 58.2994 55.9578 58.272 56.0577C57.9087 57.3675 56.9434 58.0657 55.804 58.7145C56.0841 58.2668 56.18 57.9949 56.2852 57.4829C55.8888 57.5456 55.3826 57.7397 54.9939 57.8819C54.2809 58.1419 53.8348 58.2763 53.0833 58.37C53.3708 58.1431 53.6792 57.8425 53.9512 57.5898C53.5293 57.7025 53.2172 57.7713 52.7872 57.8499C52.5099 57.8561 52.3207 57.8757 52.0439 57.9101C52.2089 57.7844 52.5959 57.5296 52.6107 57.3273C52.4129 57.279 51.8497 57.3474 51.5581 57.3302C51.1047 57.3031 50.8115 57.252 50.3663 57.1754C51.1375 57.0083 51.1903 57.0464 51.9755 56.6622C50.9643 56.6352 50.112 56.6036 49.7045 55.5376C51.5872 56.473 54.0605 55.3078 56.1271 55.0813Z" fill="white"/>
<path d="M19.5217 38.3059C19.522 38.3444 18.9833 39.7192 18.9144 39.8983C18.4015 41.2313 18.446 42.4873 18.2822 43.8656C18.6983 43.4061 19.0739 42.9302 19.5068 42.4703C20.3224 41.604 21.1268 40.9449 22.0667 40.228C21.3405 41.3673 20.7584 42.2451 19.9293 43.3242C18.8467 44.6528 17.8771 46.0813 16.7829 47.3591C16.76 46.4774 16.7312 45.6324 16.8119 44.7523C17.029 42.3872 17.926 40.0806 19.5217 38.3059Z" fill="white"/>
<path d="M43.5163 48.4649C43.5955 48.5636 43.3918 49.5892 43.3627 49.7944C43.0687 51.8655 43.4704 52.8828 43.954 54.7553C44.4415 52.9615 44.5057 52.1829 45.4774 50.4746C45.1417 51.8946 45.0757 53.2449 45.4446 54.6648C45.6457 55.3422 45.8157 55.769 46.1192 56.403C45.3254 55.7387 45.0779 55.4757 44.5544 54.5645C44.3214 55.0789 44.2239 55.635 43.9581 56.1208C42.0687 53.4099 42.081 51.3548 43.5163 48.4649Z" fill="white"/>
<path d="M39.3315 36.8218C39.6436 36.9242 39.9576 37.0201 40.2737 37.1094C40.3349 38.3105 40.6289 39.1412 42.0195 39.321C42.745 39.4149 43.2458 39.0575 43.7863 38.6126C44.4122 39.1029 44.5867 39.5271 44.8566 40.2531C44.8949 40.423 44.9544 40.6148 45.0023 40.7846C44.0658 40.4806 43.5241 40.5297 42.5691 40.5525C41.7445 40.5721 40.7554 40.4006 40.1595 39.7823C39.3135 38.9044 39.3232 37.942 39.3315 36.8218Z" fill="white"/>
<path d="M34.5775 52.7992C34.6187 52.8365 34.6394 52.8717 34.6462 52.9307C34.7182 53.5594 34.8143 54.188 35.0099 54.7925C35.2643 55.5789 35.7897 56.2272 36.2119 56.9296C36.1523 55.7218 36.1437 55.1534 36.4462 53.971C36.5884 55.1362 36.3695 55.4241 36.8675 56.7555C37.1461 57.4481 37.495 58.0108 37.932 58.6116C36.8042 58.1751 36.1138 57.8065 35.3486 56.8051C34.5873 55.8091 34.3713 54.0242 34.5775 52.7992Z" fill="white"/>
<path d="M60.853 51.5493C61.3322 51.5313 61.4657 51.594 61.9228 51.7516C61.668 52.794 60.8939 53.6671 60.0253 54.2602L59.6243 54.46C59.4417 54.4133 59.2414 54.372 59.1267 54.2225C59.1546 53.9886 59.3352 53.7982 59.4068 53.582C59.6915 52.7198 59.8025 51.7697 60.853 51.5493Z" fill="white"/>
<path d="M50.3795 32.4002C50.4418 32.4314 50.4442 32.4336 50.4913 32.4839C51.9969 34.0896 51.5349 36.3129 51.421 38.3049L51.3842 38.3708L51.3366 38.3643C50.407 36.7836 50.6171 36.329 50.6109 34.6334C50.6121 33.8829 50.5343 33.1345 50.3795 32.4002Z" fill="white"/>
<path d="M33.7839 60.5046C33.8101 60.5218 33.8349 60.5374 33.8566 60.5603C35.1693 61.9758 36.1775 64.2853 36.3224 66.1725C36.2153 66.0967 35.9296 65.5516 35.8481 65.3984C34.9888 63.7815 34.2082 62.2928 33.7839 60.5046Z" fill="white"/>
<path d="M45.4053 60.7443L45.4561 60.8032C45.4839 61.0281 45.4278 61.54 45.4012 61.7813C45.2091 63.4936 44.0448 64.9729 42.7384 66.0198C42.9611 65.4853 43.1721 65.0503 43.3831 64.4942C43.6854 63.6664 43.6591 62.602 43.6735 61.7145C43.9491 62.532 44.0818 63.1758 43.9799 64.0355C44.8574 62.7662 45.0558 62.2494 45.4053 60.7443Z" fill="white"/>
<path d="M44.9132 32.4955C45.335 32.8071 45.8683 33.3133 46.2008 33.7123C47.434 35.1922 47.5552 36.4303 47.4172 38.2427L47.3537 38.2316C47.0089 36.5174 46.7947 35.8053 45.8531 34.292C45.6287 33.9318 45.0369 32.8865 44.9132 32.4955Z" fill="white"/>
<path d="M34.2484 34.4131L34.2855 34.4496C34.2731 34.576 33.9349 35.0334 33.8336 35.2432C33.599 35.7291 33.475 36.076 33.3462 36.5999C33.7047 36.0905 33.9416 35.7837 34.3494 35.3232C33.92 36.4566 33.7872 36.8867 33.5512 38.0988C33.4956 38.3162 33.4697 38.5315 33.4379 38.7536C33.2156 38.2045 33.0157 37.768 32.8878 37.1803C32.6706 37.2176 32.4489 37.2505 32.2308 37.285C32.7705 36.0797 33.3388 35.3458 34.2484 34.4131Z" fill="white"/>
<path d="M47.368 63.8622L47.4073 63.9322C47.1894 65.423 45.4599 67.6518 44.4206 68.7986C44.3265 68.7122 44.3928 68.4742 44.4283 68.3583C44.962 66.6128 46.4424 65.3878 47.368 63.8622Z" fill="white"/>
<path d="M29.0671 51.2765C29.0963 51.2995 29.1422 51.3359 29.1456 51.3785C29.2292 52.411 29.4237 53.4427 29.7269 54.4322C29.8841 54.9449 30.8607 56.9468 30.5425 57.3687C29.1153 55.3864 28.7595 53.6794 29.0671 51.2765Z" fill="white"/>
<path d="M26.5971 45.2233C26.6536 45.4457 26.5943 46.0346 26.5676 46.2673C26.5312 46.5797 26.4761 46.8894 26.4025 47.1953C26.237 47.8969 25.9951 48.6271 25.8114 49.3287C25.7388 49.606 25.4511 50.921 25.3129 51.03C24.9159 48.8692 25.8926 47.147 26.5971 45.2233Z" fill="white"/>
<path d="M51.1227 62.2608C51.1633 62.4386 51.1387 62.9333 51.1346 63.1389C51.1027 64.6805 50.6186 65.6499 49.8261 66.9175C49.9928 66.1746 50.0276 65.4627 50.0419 64.7047C50.021 63.8618 49.8216 62.9923 49.564 62.1937C50.0788 62.887 50.3974 63.6038 50.5301 64.4536C50.6915 63.845 50.9429 62.7928 51.1227 62.2608Z" fill="white"/>
<path d="M40.8435 35.7475C41.5904 35.6232 42.4096 35.8138 43.024 36.2526C43.5166 36.6045 43.7781 37.0621 44.0707 37.5726L43.5924 37.2165C43.1381 36.933 42.5539 36.6396 42.0321 36.5142C41.1278 36.297 40.9003 36.4564 40.1134 35.8943C40.388 35.8235 40.5626 35.7901 40.8435 35.7475Z" fill="white"/>
<path d="M37.3813 24.6107C37.7534 24.5863 38.1113 24.5994 38.4834 24.6075C38.0052 24.7785 37.5096 24.9153 37.0374 25.0957C36.3483 25.359 35.6592 25.6618 34.9812 25.9542L34.1666 26.2619C34.9856 25.3181 36.1371 24.7266 37.3813 24.6107Z" fill="white"/>
<path d="M52.4308 36.7862C52.5795 37.8372 52.6536 38.4641 53.0239 39.4954C53.1181 39.757 53.6218 41.0215 53.648 41.1561L53.5956 41.1553C52.8973 40.3633 52.3321 39.621 52.2555 38.5214C52.2195 37.9986 52.2486 37.2781 52.4308 36.7862Z" fill="white"/>
<path d="M46.0853 44.1167C46.1234 44.2367 46.0759 44.5938 46.0554 44.7306C45.8826 45.8896 44.8736 46.5756 43.8824 46.9508C43.8502 46.839 44.1237 46.6379 44.2178 46.5535C45.0146 45.8372 45.5963 45.0632 46.0853 44.1167Z" fill="white"/>
<path d="M41.7836 59.7531C41.9485 59.9001 42.0055 60.2503 42.0172 60.4707C42.0689 61.4405 41.5096 62.1363 40.8997 62.8125L40.8248 62.853C40.8203 62.7134 41.1542 62.0876 41.2286 61.8955C41.5125 61.1628 41.702 60.5419 41.7836 59.7531Z" fill="white"/>
<path d="M39.3858 30.774C39.4244 30.8809 39.2784 31.5724 39.2441 31.7358C39.0926 32.4582 39.207 32.958 39.2169 33.6074L39.1826 33.6135L39.1105 33.4824C38.6141 32.3355 38.4496 31.7504 39.3858 30.774Z" fill="white"/>
<path d="M41.2961 37.1157C41.4897 37.0534 41.6984 37.1518 41.7736 37.3407C41.8488 37.5297 41.7647 37.7446 41.5813 37.8323C41.4511 37.8946 41.297 37.8791 41.1818 37.7923C41.0666 37.7054 41.0093 37.5616 41.0334 37.4193C41.0574 37.277 41.1587 37.1599 41.2961 37.1157Z" fill="white"/>
<path d="M62.0432 32.9622C61.8691 33.0094 61.5972 33.0951 61.4309 33.0358C61.5231 32.9483 61.7528 32.9104 61.888 32.8765L62.0432 32.9622Z" fill="#BCBCBB"/>
</svg>
