<svg width="49" height="57" viewBox="0 0 49 57" fill="none" xmlns="http://www.w3.org/2000/svg">
<path d="M14.5518 0.41759L14.5751 0.739295C14.586 0.889795 14.5518 1.01933 14.532 1.08587C14.5082 1.1655 14.4772 1.24223 14.4477 1.30849C14.3884 1.44149 14.3118 1.58392 14.2402 1.71066C14.1675 1.83939 14.0907 1.96821 14.0291 2.07199C13.9616 2.18593 13.9216 2.25444 13.904 2.28903C12.9798 4.10198 12.0943 6.22853 11.7833 8.32188C11.4737 10.4064 11.7412 12.3923 13.036 14.0244C13.2376 14.2786 13.4456 14.4961 13.6811 14.7231C13.9334 14.5964 14.1931 14.4782 14.3308 14.413C15.1165 14.0407 15.8452 13.765 16.5842 13.5716C16.572 13.5665 16.5599 13.5616 16.548 13.5565C16.4662 13.5214 16.37 13.4756 16.2811 13.4176C16.2237 13.3801 16.0317 13.2537 15.9389 13.0137L15.8215 12.7098L15.9842 12.4277C16.1921 12.0675 16.5756 11.9621 16.6653 11.9343C18.5066 11.3629 20.4595 11.3358 22.3091 11.8887C22.2996 11.8646 22.2904 11.839 22.2828 11.8118L22.1986 11.5106L22.5327 11.01L22.7263 10.9312C22.9079 10.8573 23.0957 10.8449 23.2224 10.8437C23.3627 10.8423 23.506 10.8553 23.6337 10.8721C23.8893 10.9058 24.1393 10.9633 24.2902 11.0043C25.6371 11.3708 26.8517 12.0122 27.7701 13.0634C27.8344 12.9508 27.9302 12.7921 28.0253 12.674C28.1098 12.5693 28.2537 12.4137 28.4634 12.3176C28.6975 12.2103 28.9793 12.1952 29.2463 12.3245L29.2995 12.3523L29.4413 12.4318L29.5317 12.5668C29.6589 12.7566 29.7193 12.9741 29.7529 13.1399C29.7865 13.3057 29.8041 13.4804 29.8138 13.6439C31.0762 13.3871 32.5346 13.4428 33.6526 13.8091C33.8846 13.8851 34.3399 14.0368 34.7698 14.2251C34.9837 14.3187 35.2096 14.4293 35.4052 14.553C35.5759 14.661 35.8258 14.8404 35.9677 15.1047L36.1036 15.3578L36.0171 15.6317L36.0017 15.6803L35.8935 16.0231L35.6499 16.0966C36.5143 16.6477 37.2653 17.3358 37.9491 18.1121C38.3793 18.0102 38.6933 17.9472 39.0827 17.7767C41.1336 16.8791 42.0994 15.322 42.4503 13.4779C42.7973 11.654 42.5362 9.55754 42.0556 7.60467L42.0085 7.41622C41.9731 7.27722 41.8432 6.91153 41.6998 6.46906C41.6342 6.26654 41.5684 6.05499 41.5231 5.87871C41.5008 5.79214 41.4792 5.69807 41.4663 5.61021C41.4599 5.56673 41.4533 5.50984 41.4529 5.44796C41.4525 5.40191 41.4534 5.27826 41.5091 5.14168L41.653 4.78926L42.0284 4.72715C42.2304 4.69376 42.4062 4.73609 42.5209 4.77729C42.6261 4.81508 42.7203 4.86634 42.7989 4.92052L42.8316 4.94392L42.832 4.94419C45.1021 6.62784 47.0355 9.29745 48.0206 12.1995C49.0062 15.1029 49.068 18.3265 47.4474 21.0459C46.6969 22.3053 45.4727 23.3646 44.1531 24.1782C43.1305 24.8086 42.0213 25.3094 40.97 25.65C41.1589 25.9107 41.363 26.1682 41.5706 26.4174L41.6675 26.5306C41.7639 26.6406 41.8616 26.7456 41.9834 26.8838C42.1322 27.0527 42.2954 27.2484 42.4388 27.4743L42.6189 27.7578L42.4837 28.1279L42.4035 28.3469L42.206 28.4709C41.8935 28.6669 41.525 28.6808 41.2636 28.6653C41.087 28.6548 40.9041 28.6267 40.7249 28.589C40.8127 28.8422 40.8783 29.1013 40.8975 29.3417C40.9133 29.5405 40.9056 29.8167 40.7681 30.0729C40.6031 30.3801 40.3075 30.556 39.9727 30.5826C39.9262 30.5863 39.8797 30.5869 39.8334 30.5852C39.8452 30.7259 39.8425 30.8678 39.8169 31.0042C39.7815 31.1936 39.6889 31.4401 39.4595 31.622C39.3841 31.6817 39.3046 31.726 39.2239 31.7577C39.4971 32.168 39.8113 32.5352 40.2375 32.9242L40.3218 33.0001L40.322 33.0004C40.5269 33.1828 40.9119 33.5097 41.2449 33.8639C41.4132 34.043 41.5846 34.2457 41.7232 34.46C41.857 34.6667 41.9917 34.9317 42.0292 35.2296L42.0387 35.3094C42.2223 36.9905 41.5536 38.9621 40.7719 40.3027L40.7678 40.3097L40.7636 40.3165C40.4004 40.9066 39.8904 41.3994 39.2249 41.6609C38.7955 43.7343 36.9107 44.8158 35.2269 45.322C35.2029 45.4517 35.1867 45.5702 35.1826 45.6847C35.1752 45.8898 35.2101 46.0293 35.283 46.1419L35.2947 46.1573C35.3064 46.1724 35.319 46.1882 35.3395 46.2138C35.3742 46.2572 35.4338 46.3313 35.487 46.4142C35.5634 46.5333 35.8227 46.971 35.5324 47.4327L35.4007 47.642L35.1656 47.7181C34.9097 47.8009 34.6651 47.7641 34.5287 47.736C34.3834 47.7062 34.2362 47.6567 34.1728 47.637L34.1719 47.6366C33.8965 47.5502 33.6523 47.4348 33.4342 47.2968C33.2031 49.652 32.0459 51.6051 29.9935 53.1462C29.863 53.2442 29.6187 53.4172 29.3554 53.5631C29.2242 53.6358 29.0715 53.7112 28.915 53.7657C28.7762 53.814 28.5502 53.8767 28.3061 53.8384L28.022 53.7939L27.8782 53.5908C27.3299 54.249 26.6662 54.8334 25.8422 55.2896L25.8415 55.29C25.7662 55.3316 25.6307 55.4057 25.4763 55.456C25.3255 55.5051 25.0748 55.5595 24.7988 55.4698L24.4094 55.3434L24.3629 55.0783C23.4632 55.6062 22.4601 55.9881 21.389 56.0995C21.264 56.1126 21.0871 56.1177 20.9103 56.0998C20.8212 56.0908 20.7151 56.0742 20.6076 56.0422C20.5087 56.0128 20.3567 55.9554 20.2197 55.8348L19.9477 55.5951L19.9946 55.2358C19.9949 55.2335 19.9951 55.231 19.9956 55.2271C19.996 55.2238 19.9968 55.2185 19.9975 55.2132C19.9988 55.2028 20.0012 55.1848 20.0048 55.164C20.0121 55.1222 20.0275 55.0487 20.0653 54.9654C20.1526 54.7729 20.2946 54.6651 20.3899 54.6066L20.3903 54.6063C20.4267 54.5841 20.4622 54.5613 20.4974 54.5384C20.4703 54.5526 20.4429 54.5666 20.4149 54.5796C20.2799 54.6426 20.0835 54.7147 19.8594 54.7126L19.8489 54.7125L19.8386 54.7121C19.6731 54.7054 19.5086 54.649 19.373 54.5547C19.238 54.4609 19.0332 54.2536 19.0251 53.9214C19.0042 53.0674 19.0573 52.5486 18.9326 51.8752L18.9052 51.7384C18.6468 50.5354 18.0007 49.5451 17.1805 48.5699C17.1067 48.8296 17.0178 49.0927 16.9109 49.3487C16.6523 49.968 16.2649 50.6061 15.6805 51.0337L14.9682 51.5547L14.6449 50.7336C14.5739 50.5535 14.5265 50.3515 14.4918 50.191C14.4521 50.007 14.4303 49.885 14.4002 49.7604L14.3652 49.6265C14.281 49.3149 14.1783 49.0084 14.0579 48.7091L14.0575 48.7081C13.7803 48.016 13.4689 47.4524 13.1243 46.7096C12.9923 46.4253 12.8664 46.1458 12.7466 45.8683C12.697 45.9171 12.6468 45.953 12.6035 45.9783C12.5411 46.0147 12.4822 46.0356 12.4786 46.0369C12.4669 46.0413 12.4691 46.0406 12.475 46.0381L12.2304 46.1457L11.9708 46.048C11.77 45.9724 11.6115 45.8441 11.5138 45.7566C11.4088 45.6626 11.3157 45.5614 11.26 45.5013L11.2595 45.5006C10.2332 44.3909 9.51512 43.0616 9.07604 41.6467C9.07794 41.7963 9.08434 41.9444 9.09638 42.0912L9.10583 42.1951L9.12843 42.3994C9.13836 42.4926 9.14904 42.6028 9.15583 42.7053C9.16283 42.8108 9.16783 42.9337 9.16235 43.0493C9.15961 43.107 9.15369 43.177 9.13974 43.2495C9.1278 43.3115 9.10022 43.4301 9.0255 43.5504L8.87469 43.7933L8.59567 43.8556L8.51522 43.8737L8.33528 43.9139L8.15973 43.8579C8.03091 43.8168 7.91082 43.7633 7.79294 43.6819C7.68676 43.6087 7.60227 43.5256 7.54385 43.4678L7.54345 43.4673C5.98692 41.9261 4.9924 39.718 4.56593 37.6637C4.50094 37.3507 4.45224 37.0471 4.41565 36.7486C4.39734 36.7788 4.37876 36.8091 4.36032 36.8397L3.99141 37.452C3.94465 37.5287 3.79346 37.7889 3.62542 38.0152C3.5428 38.1265 3.43264 38.2622 3.30544 38.3728C3.24176 38.4282 3.15143 38.4971 3.03773 38.5492C2.92462 38.601 2.74185 38.6568 2.52519 38.6127L2.26586 38.5601L2.11026 38.3461C1.88525 38.0369 1.79725 37.6193 1.75171 37.3323C1.70151 37.0159 1.68103 36.6896 1.6662 36.4942C1.57041 35.2315 1.65861 34.0627 1.8722 32.9132C1.78921 32.994 1.71016 33.0703 1.63641 33.1391C1.52563 33.2425 1.41761 33.339 1.32415 33.4133C1.27858 33.4496 1.2234 33.4911 1.16509 33.5271C1.13604 33.545 1.09455 33.5689 1.0446 33.5905C1.00402 33.6081 0.907522 33.6469 0.78075 33.6527L0.459711 33.6674L0.0582125 33.2225L0.0249649 33.0275C-0.0204321 32.7611 0.00501737 32.4744 0.0310824 32.29C0.236708 30.8373 0.817654 29.1856 1.61952 27.6834C2.0338 26.9074 2.51522 26.1561 3.04731 25.4838C2.7573 25.5106 2.4643 25.5216 2.20003 25.5013C2.02112 25.4876 1.82741 25.4578 1.64612 25.3936C1.46996 25.3313 1.2439 25.2146 1.08384 24.9865L0.906958 24.7345L1.04713 24.1555L1.20379 24.0145C1.36644 23.8681 1.63362 23.6931 1.84348 23.5574C2.08443 23.4016 2.29198 23.2714 2.42372 23.1761C3.13504 22.6617 3.87601 22.0777 4.66979 21.5536C4.42104 21.501 4.17553 21.4355 3.96893 21.352C3.8227 21.293 3.6341 21.2013 3.48126 21.0537C3.31087 20.8892 3.12646 20.585 3.23004 20.1997L3.30957 19.9038L3.58393 19.7671C3.80593 19.6564 4.05877 19.5687 4.27627 19.4976C4.51425 19.4199 4.70164 19.3642 4.87486 19.3011C5.40996 19.1058 5.94078 18.9097 6.46836 18.7076C5.65568 17.7372 5.01406 16.632 4.68854 15.416C3.9103 12.5089 4.74307 9.25123 6.10795 6.79263L6.10915 6.79037L6.11048 6.78824C7.45287 4.41173 9.38314 2.41976 11.7164 1.00355L11.7179 1.00262C12.3022 0.649967 12.892 0.306088 13.6455 0.0899016L13.9588 0L14.5518 0.41759ZM13.8332 0.744348C13.1743 0.933431 12.6517 1.23442 12.0698 1.58565L11.8615 1.71438C9.72126 3.0609 7.94823 4.91924 6.70335 7.12311L6.64218 7.23442C5.36752 9.5829 4.63998 12.6014 5.34632 15.2399C6.04874 17.8639 8.40904 20.0019 10.7287 21.2801L10.8975 21.3722C9.26401 21.2027 8.09791 20.306 6.91959 19.2641C6.31821 19.4968 5.71395 19.7198 5.10826 19.9407L4.96251 19.9915C4.61147 20.1095 4.19153 20.2249 3.88754 20.3764C3.74188 20.9183 6.39081 21.1166 6.81746 21.1131C6.44861 21.256 6.16034 21.4535 5.82189 21.6445C4.75551 22.246 3.81378 23.0112 2.82282 23.7279L2.76258 23.7705C2.44343 23.9917 1.87254 24.3286 1.65929 24.5205L1.6412 24.5954C2.02449 25.1414 4.45464 24.595 5.07169 24.3911C2.90509 26.083 1.08968 29.669 0.705212 32.3853C0.682306 32.5474 0.668561 32.7511 0.696168 32.9132L0.749763 32.9725C0.954516 32.9631 2.86973 30.906 3.16022 30.6245C2.54609 32.579 2.18898 34.3845 2.34512 36.4427C2.37669 36.8588 2.41923 37.6133 2.66084 37.9454C2.86173 37.9862 3.19726 37.45 3.35452 37.1897L3.40997 37.0976C3.90457 36.2864 4.33622 35.4932 4.98192 34.789C4.99853 35.7316 5.03763 36.5862 5.23261 37.5254C5.63949 39.4852 6.58462 41.5598 8.02249 42.9835C8.1419 43.1015 8.20756 43.1585 8.36653 43.2092L8.44712 43.1912C8.53057 43.0569 8.44812 42.4595 8.42837 42.2633C8.30401 41.0283 8.55589 39.7826 8.63477 38.554C8.42939 38.9147 8.00274 39.7413 7.76794 40.0141C7.68512 39.8624 7.60777 39.7106 7.52962 39.5566C6.3168 37.1666 6.98412 34.2734 8.5595 32.1922C7.85945 34.0284 7.47015 35.8662 7.73775 37.8301C7.79803 38.2729 7.90428 38.7113 7.98937 39.1531C8.06296 38.717 8.28801 38.1669 8.42784 37.7327C8.7656 36.6848 9.17119 35.4134 9.71186 34.4475C9.53682 35.262 9.36063 36.0774 9.27925 36.9166C9.00042 39.7937 9.76538 42.8821 11.7594 45.0383L11.8567 45.1418C11.9531 45.241 12.0669 45.3454 12.1799 45.3978L12.2106 45.4108C12.2531 45.3922 12.2769 45.3934 12.2806 45.3547C12.333 44.8039 12.1813 44.0718 12.1647 43.5317C12.1493 43.0279 12.1288 42.434 12.1851 41.9642C12.5309 43.5803 13.0448 44.9206 13.742 46.423C14.0617 47.1118 14.4051 47.7447 14.6896 48.4548C14.8388 48.8256 14.9626 49.2065 15.0603 49.5939C15.1263 49.865 15.1805 50.2354 15.2785 50.4841C16.1667 49.8343 16.5811 48.4383 16.7398 47.3887C16.7551 47.288 16.7645 47.1865 16.7681 47.0845C17.9952 48.4095 19.1787 49.7689 19.571 51.5954C19.7484 52.4213 19.6856 53.0791 19.7057 53.9047C19.7073 53.9712 19.7781 54.0165 19.8402 54.0286L19.866 54.0317C20.1417 54.0343 20.5477 53.7023 20.7821 53.4859L20.8711 53.4016C22.0004 52.3039 22.6748 50.1883 22.7952 48.6329C23.2986 51.1523 23.1023 53.7439 20.746 55.187C20.6775 55.229 20.6782 55.2587 20.6698 55.3237C20.7989 55.4374 21.1494 55.44 21.3182 55.4224C23.0626 55.241 24.6532 54.2487 25.8754 53.0631C25.7264 53.4262 25.5782 53.808 25.3742 54.1431C25.2762 54.2895 24.9833 54.6739 25.0094 54.8223C25.1705 54.8746 25.3632 54.7762 25.5123 54.6938C27.6453 53.5129 28.6193 51.3654 29.4082 49.2205C29.3815 50.4491 29.2542 51.4844 28.6413 52.5684C28.561 52.7107 28.3356 53.0584 28.4115 53.1658C28.7176 53.2138 29.3511 52.777 29.5845 52.6016C31.9765 50.8055 33.0371 48.4485 32.751 45.4711C33.1108 46.1919 33.5873 46.7398 34.3755 46.9869C34.5349 47.0366 34.7561 47.1147 34.9233 47.0789L34.956 47.0701C35.0689 46.8905 34.812 46.6668 34.712 46.5128C34.3679 45.9823 34.5185 45.3484 34.6465 44.7766C36.486 44.3125 38.4165 43.2308 38.6166 41.1336C39.2706 40.9995 39.7802 40.5889 40.1485 40.0157L40.1837 39.9597C40.9369 38.668 41.542 36.8084 41.3536 35.3147C41.2766 34.7026 40.3125 33.9034 39.8693 33.509C38.8574 32.6091 38.3959 31.8152 37.8327 30.6053C39.5842 32.0023 39.3164 30.3653 38.6462 29.3244C41.1472 31.0716 40.1177 28.4217 39.3085 27.3615C39.8137 27.6349 41.2847 28.1976 41.8194 27.9085L41.8441 27.8941L41.8642 27.8393C41.6632 27.5228 41.3985 27.257 41.1519 26.9753L41.0476 26.8533C40.6345 26.3573 40.2154 25.8075 39.8957 25.2477C42.3182 24.6617 45.4143 23.0147 46.7979 20.803L46.8625 20.6972C49.8399 15.7009 46.7328 8.68513 42.4263 5.49118C42.3507 5.43513 42.2358 5.38308 42.1395 5.39902L42.1368 5.4074C42.0897 5.60209 42.585 6.92084 42.6684 7.24838C43.708 11.3349 43.9353 16.3961 39.3559 18.4004C38.7887 18.6488 38.2848 18.7201 37.706 18.8748L37.592 18.7396C36.4091 17.3521 35.0609 16.2815 33.2702 15.7526C33.769 15.6786 34.2618 15.6067 34.7642 15.5647C34.9323 15.5506 35.1154 15.5354 35.2821 15.4945L35.3524 15.4753L35.3677 15.4266C35.1543 15.0291 33.9007 14.6068 33.4406 14.4561C32.1809 14.0434 30.3958 14.0709 29.1252 14.5421C29.1507 14.1572 29.1796 13.3217 28.9855 12.9776L28.9661 12.946C28.658 12.7729 28.4086 13.3321 28.2779 13.5501C28.1275 13.8019 27.9895 14.0667 27.8411 14.3214C27.0312 12.9486 25.7704 12.1419 24.2585 11.7026L24.1114 11.6613C23.8543 11.5913 23.2333 11.46 22.983 11.5619L22.9386 11.6284C22.9772 11.7665 23.4649 12.1859 23.5929 12.3168L23.7332 12.4616C24.0598 12.8033 24.3777 13.172 24.5881 13.5934C23.8927 13.2516 23.2633 12.9335 22.5263 12.6748L22.3774 12.6239C20.5843 12.0265 18.6712 12.0248 16.8672 12.5846L16.8243 12.5985C16.7244 12.6324 16.6253 12.6793 16.574 12.768C16.6528 12.9717 17.8851 13.2503 18.1678 13.3449C18.6422 13.5038 19.0588 13.6747 19.5106 13.8873C17.6689 13.9093 16.2941 14.2363 14.6224 15.0283L14.3766 15.1436C14.1012 15.2728 13.7612 15.4356 13.5762 15.5586C13.2057 15.217 12.8791 14.9087 12.5652 14.5254L12.5025 14.4477C9.64833 10.85 11.3675 5.81633 13.2096 2.15312L13.2974 1.97983C13.4132 1.75272 13.8808 1.0469 13.8959 0.809913V0.788501L13.8332 0.744348Z" fill="white"/>
<path d="M13.7287 0.680084L13.7913 0.724229C13.8067 0.936652 13.3123 1.68108 13.1928 1.91551C11.3186 5.59195 9.49851 10.7286 12.398 14.3834C12.7313 14.8034 13.0764 15.13 13.4716 15.4943C13.7182 15.3303 14.2404 15.0955 14.5178 14.9641C16.1895 14.172 17.5642 13.845 19.406 13.823C18.9542 13.6103 18.5376 13.4396 18.0632 13.2807C17.7805 13.1861 16.5482 12.9075 16.4695 12.7038C16.528 12.6024 16.6491 12.5556 16.7625 12.5204C18.5665 11.9606 20.4797 11.9622 22.2728 12.5596C23.0751 12.8268 23.7418 13.1645 24.4835 13.5291C24.243 13.0475 23.8622 12.6347 23.4883 12.2525C23.3603 12.1216 22.8726 11.7023 22.834 11.5642L22.8785 11.4976C23.1288 11.3957 23.7497 11.527 24.0068 11.597C25.584 12.0261 26.9005 12.84 27.7365 14.257C27.8849 14.0023 28.0229 13.7376 28.1733 13.4858C28.304 13.2678 28.5534 12.7086 28.8615 12.8816C29.0769 13.2031 29.0469 14.0805 29.0205 14.4778C30.2912 14.0066 32.0763 13.9791 33.336 14.3918C33.7961 14.5426 35.0498 14.9649 35.2632 15.3624L35.2478 15.411C35.0635 15.4667 34.8517 15.4843 34.6597 15.5004C34.1572 15.5424 33.6644 15.6144 33.1656 15.6884C35.0141 16.2344 36.3911 17.3574 37.6015 18.8105C38.1803 18.6558 38.6841 18.5845 39.2512 18.3362C43.8308 16.3319 43.6034 11.2706 42.5638 7.18407C42.4791 6.85131 41.9693 5.49562 42.035 5.33471C42.1313 5.31877 42.246 5.37082 42.3217 5.42687C46.6282 8.62081 49.7353 15.6367 46.7579 20.633C45.4082 22.8978 42.252 24.5882 39.791 25.1835C40.1108 25.7432 40.5299 26.2931 40.943 26.7891C41.2171 27.1179 41.5298 27.4134 41.7596 27.7751L41.7395 27.8298C41.2271 28.1513 39.717 27.575 39.2039 27.2973C40.0131 28.3575 41.0427 31.0074 38.5417 29.2602C39.2119 30.301 39.4796 31.938 37.7282 30.5409C38.2913 31.7509 38.7528 32.5448 39.7647 33.4447C40.2078 33.8391 41.1721 34.6383 41.2491 35.2505C41.4375 36.7442 40.8323 38.6037 40.0791 39.8954C39.7083 40.4979 39.1872 40.931 38.512 41.0694C38.312 43.1666 36.3815 44.2482 34.542 44.7123C34.4139 45.2841 34.2632 45.918 34.6073 46.4485C34.7074 46.6025 34.9644 46.8262 34.8514 47.0059C34.6814 47.061 34.441 46.9756 34.2709 46.9226C33.4827 46.6755 33.0062 46.1277 32.6465 45.4069C32.9326 48.3843 31.8719 50.7413 29.48 52.5374C29.2466 52.7128 28.6131 53.1496 28.307 53.1015C28.231 52.9942 28.4564 52.6464 28.5367 52.5041C29.1496 51.4201 29.2769 50.3848 29.3036 49.1562C28.5147 51.3011 27.5408 53.4486 25.4078 54.6296C25.2586 54.712 25.0659 54.8103 24.9047 54.758C24.8787 54.6096 25.1715 54.2252 25.2695 54.0788C25.4735 53.7437 25.6218 53.3619 25.7708 52.9989C24.5485 54.1845 22.958 55.1768 21.2136 55.3581C21.0448 55.3758 20.6943 55.3731 20.5652 55.2595C20.5737 55.1944 20.5729 55.1648 20.6414 55.1227C22.9978 53.6797 23.1941 51.088 22.6907 48.5687C22.5703 50.1241 21.8959 52.2397 20.7666 53.3373C20.5617 53.5363 20.0765 53.9704 19.7614 53.9674C19.6951 53.9648 19.603 53.9164 19.6012 53.8404C19.581 53.0149 19.6438 52.357 19.4664 51.5311C19.0741 49.7046 17.8906 48.3453 16.6635 47.0203C16.66 47.1223 16.6505 47.2237 16.6351 47.3244C16.4765 48.374 16.0621 49.77 15.1738 50.4198C15.0759 50.1711 15.0218 49.8007 14.9558 49.5296C14.8581 49.1422 14.7342 48.7614 14.585 48.3906C14.3005 47.6805 13.957 47.0476 13.6374 46.3588C12.9401 44.8564 12.4264 43.516 12.0805 41.8999C12.0242 42.3697 12.0448 42.9635 12.0602 43.4673C12.0767 44.0075 12.2285 44.7397 12.1761 45.2905C12.1723 45.3292 12.1486 45.3278 12.1061 45.3465C11.9422 45.2848 11.7732 45.1018 11.6548 44.9741C9.66075 42.8178 8.89589 39.7294 9.17473 36.8523C9.25611 36.013 9.43226 35.1978 9.60731 34.3833C9.06663 35.3492 8.66099 36.6205 8.32323 37.6685C8.1834 38.1026 7.95844 38.6527 7.88485 39.0889C7.79976 38.6471 7.6935 38.2086 7.63322 37.7658C7.36561 35.802 7.75482 33.9642 8.45487 32.128C6.87949 34.2092 6.21221 37.1023 7.42503 39.4923C7.50318 39.6463 7.58054 39.798 7.66336 39.9497C7.89816 39.677 8.3248 38.8505 8.53019 38.4897C8.4513 39.7184 8.19943 40.964 8.3238 42.199C8.34354 42.3951 8.42596 42.9925 8.34251 43.1269L8.26198 43.1449C8.10298 43.0942 8.03733 43.0372 7.91789 42.9192C6.48002 41.4955 5.5349 39.4209 5.12802 37.4611C4.93304 36.5218 4.8939 35.6673 4.87729 34.7247C4.23159 35.4289 3.80004 36.2221 3.30544 37.0333C3.19121 37.2207 2.78584 37.9279 2.55625 37.8812C2.31462 37.5491 2.27214 36.7946 2.24056 36.3785C2.08442 34.3203 2.44152 32.5148 3.05564 30.5603C2.76517 30.8417 0.849962 32.8989 0.645208 32.9082L0.591628 32.8489C0.564021 32.6868 0.577791 32.4831 0.600697 32.3211C0.985165 29.6048 2.80048 26.0188 4.96708 24.3269C4.35002 24.5308 1.91984 25.0771 1.53661 24.5311L1.55472 24.4563C1.78218 24.2516 2.41651 23.8818 2.71825 23.6636C3.70922 22.9469 4.65087 22.1818 5.71725 21.5803C6.05574 21.3893 6.34405 21.1918 6.71294 21.0488C6.2865 21.0524 3.63733 20.8541 3.783 20.3122C4.13043 20.1391 4.62926 20.013 5.00366 19.8764C5.60935 19.6555 6.21368 19.4326 6.81507 19.1999C7.99338 20.2418 9.15939 21.1384 10.7929 21.3079L10.6241 21.2158C8.3044 19.9377 5.94414 17.7996 5.24172 15.1756C4.52417 12.4952 5.2864 9.42269 6.59871 7.0588C7.88375 4.78383 9.73161 2.87706 11.9652 1.52137C12.5471 1.17015 13.0697 0.869167 13.7287 0.680084Z" fill="#000100"/>
<path d="M36.2294 27.8045C36.2624 27.8736 36.3871 28.7676 36.4255 28.9424C36.6729 30.0715 37.052 31.233 37.6148 32.2456C37.9459 32.8475 38.4107 33.3119 38.8561 33.8164C39.2882 34.3055 40.1138 34.6826 40.3699 35.2421C40.7119 35.99 39.5896 36.3851 39.1872 36.8268C38.8675 37.1779 38.7141 37.4183 38.5057 37.8651C38.5354 37.0612 38.7171 36.7702 39.0818 36.074C38.8918 36.1097 38.4073 36.263 38.1969 36.3327C37.4561 36.5775 36.7832 36.221 36.0584 35.9493C36.1407 36.1237 36.2324 36.3804 36.2821 36.5598C36.4161 37.0432 36.3498 37.3273 36.1027 37.7364C35.1952 39.2398 35.2698 39.2508 33.5584 39.6649C32.6742 39.879 31.6422 40.102 30.7903 39.6169C30.3242 39.3515 30.0701 38.9201 29.9464 38.4173C30.0615 38.0585 30.2852 37.7057 30.4679 37.3713C29.377 37.9395 29.1306 38.4713 28.6828 39.5686C28.5921 38.9157 28.9222 37.4664 29.2219 36.8605C29.3326 36.6368 29.7834 35.9159 29.7717 35.7799C29.676 35.7696 29.6774 35.7962 29.573 35.8639C28.9992 36.244 28.6017 36.6391 28.1776 37.1716C28.3924 36.2947 28.7598 35.4625 29.2636 34.7133C28.5927 35.0327 28.1513 35.4368 27.6082 35.9259C27.6308 34.6539 28.0513 33.7137 28.8305 32.7268C29.0515 32.447 29.4413 31.9379 29.604 31.6338L29.6247 31.5945C29.7521 32.0526 29.8081 32.7838 29.8391 33.2636C30.4052 32.4347 30.5556 31.3908 30.2465 30.4359C29.9504 29.5377 29.7537 29.5333 29.641 28.4695C30.2452 29.3943 30.6139 29.8725 31.7149 30.2411C31.2805 29.3005 31.1924 28.9572 31.2851 27.9381C32.2741 29.4812 33.5137 30.5552 35.3179 31.0357C34.9898 30.2601 34.6927 29.4185 34.6387 28.5772C35.1048 29.3088 35.4192 29.6317 36.1207 30.0985C35.9937 29.2497 35.988 28.6236 36.2294 27.8045Z" fill="white"/>
<path d="M32.4635 34.8974C33.134 34.8273 33.9983 35.1334 34.5418 35.5159C35.1789 35.9643 35.9748 36.7388 35.6287 37.5991C35.615 37.6331 35.5453 37.6224 35.5127 37.6234C35.1506 37.4674 34.5861 37.2073 34.1993 37.3017C32.7506 37.6544 32.2111 36.3771 32.3015 35.1728C32.3122 35.0317 32.3455 34.9857 32.4635 34.8974Z" fill="#000100"/>
<path d="M33.1674 33.1662C34.4504 33.0962 35.6404 33.9544 36.7807 34.4142C37.4822 34.6966 37.9524 34.6489 38.6259 34.3459C38.0337 34.9937 37.6329 35.1891 36.7497 35.058C36.2032 34.9243 35.7834 34.7256 35.2853 34.4719C33.7582 33.6943 32.8423 33.4429 31.1746 33.9721C31.9038 33.4586 32.2608 33.2432 33.1674 33.1662Z" fill="#000100"/>
<path d="M28.1359 15.76C29.7891 15.3844 30.5703 15.2987 32.2457 15.7325C31.7832 15.805 31.2544 15.8944 30.8067 16.0233C33.1533 16.4673 35.0951 17.8053 36.7082 19.5164C36.9756 19.8001 37.2284 20.1059 37.4961 20.3831C36.9043 20.1519 36.5458 20.0497 35.9747 19.7272C35.6079 19.5199 35.1281 19.1513 34.79 18.982C35.6966 19.9189 36.2354 20.7194 36.8773 21.8673C37.5881 23.1391 38.3536 24.7808 39.3476 25.8648C38.3997 25.4995 37.7485 25.1003 37.0286 24.3613C37.001 25.9135 37.0846 26.7344 37.7712 28.1647C36.6589 27.1525 36.3488 26.2924 36.078 24.8718C35.7933 25.9974 35.7006 26.5445 35.1511 27.5929C35.5076 24.8365 35.0011 22.537 32.9292 20.5497C33.9165 22.6201 34.0498 23.0942 34.1175 25.3759C33.9211 24.7213 33.6994 24.0119 33.3993 23.3969C32.7762 22.1203 31.6552 20.889 30.5279 20.0311C29.9714 19.6074 29.4203 19.2954 28.8451 18.8404C29.8427 20.5283 30.2022 21.7573 30.1105 23.75C30.0858 24.2895 30.0391 24.8964 29.9031 25.4211C29.8951 25.4525 29.8864 25.4838 29.8777 25.515C29.0982 22.1731 26.6113 21.9668 25.6438 19.1174C25.1259 20.5088 25.1694 21.4458 25.7744 22.8388C24.6583 21.9964 23.5703 21.1582 22.9887 19.8352C22.4576 18.6274 22.5534 17.8185 23.2618 16.7398C23.0087 18.4998 23.4706 19.3431 24.5403 20.6819C24.1309 19.0738 24.5437 17.8903 25.4809 16.5637C26.207 17.5421 26.7114 18.1237 27.8539 18.6765C27.6665 18.2512 27.5238 17.7963 27.3861 17.3522C29.409 18.0653 30.4072 18.6261 31.9673 20.0534C31.1801 18.6383 30.3275 17.7444 28.9128 16.9247C28.6994 16.801 28.3927 16.6227 28.1646 16.5463L28.1743 16.5262C28.4364 16.5406 28.6738 16.6264 28.9262 16.6766C30.1185 16.9137 31.6079 17.4316 32.6245 18.117L32.7452 18.0475C31.6009 16.7582 29.8481 15.9217 28.1359 15.76Z" fill="white"/>
<path d="M32.7453 18.0475L33.0967 18.4314L32.6245 18.1171L32.7453 18.0475Z" fill="#000100"/>
<path d="M12.1119 2.34369C12.1135 2.35189 12.1287 2.40817 12.1258 2.41331C10.6403 5.06244 9.5304 8.14829 9.96185 11.2272C10.128 12.4129 10.6915 13.9101 11.4313 14.8661C12.8837 16.7428 15.2365 17.8312 17.5549 18.1292C18.1957 18.2116 18.8767 18.217 19.5195 18.2146C18.6011 18.7518 18.0713 18.822 17.0314 18.8128C17.9445 19.1566 19.0185 19.1314 19.9676 18.988C18.8702 19.4885 18.2767 19.6452 17.0955 19.5905C18.3022 20.0743 19.0697 19.9121 20.2467 19.8955C18.0038 20.5878 16.3991 20.3019 14.2401 19.5507C14.157 19.5199 14.0744 19.4877 13.9923 19.4544C11.5957 18.4793 9.69381 16.9359 8.66611 14.5154C8.80034 15.4963 9.22656 16.4104 9.68711 17.2706C8.06132 15.6881 7.40938 13.5375 7.4972 11.3166C7.58146 9.18543 8.25763 7.53546 9.31001 5.71361C8.48686 6.45211 7.80718 7.42786 7.31922 8.41199C7.15764 8.73784 7.03101 9.07286 6.85913 9.39171L6.86797 9.34957C7.56572 6.12802 9.40334 4.08085 12.1119 2.34369Z" fill="white"/>
<path d="M43.6526 7.61896C45.5297 9.69631 46.8578 12.5093 46.7821 15.369C46.6847 19.0367 43.982 21.5606 40.5911 22.5279L40.4647 22.4582C41.57 22.0634 42.2886 21.582 43.2188 20.8683C42.859 20.9735 42.5226 21.2181 42.1792 21.3719C41.2106 21.8058 40.177 22.0776 39.1221 22.1923C38.904 22.216 38.6376 22.2428 38.4272 22.2822C38.2268 21.9644 38.0214 21.6499 37.811 21.3387C38.1645 21.4739 38.9933 21.7592 39.4121 21.6946C39.4821 21.6838 39.4951 21.6128 39.5101 21.5616C39.4365 21.2289 38.8003 20.6843 38.5616 20.3675C38.3769 20.1226 38.2665 20.0017 38.0924 19.7147C40.3847 19.2306 41.8214 18.245 43.1664 16.3005C44.5535 14.2959 44.5371 11.5661 44.0397 9.23998C43.9193 8.69761 43.7906 8.15717 43.6526 7.61896Z" fill="white"/>
<path d="M45.565 14.1985L45.5993 14.2265C45.7334 14.4921 45.7444 15.8263 45.7297 16.1349C45.6507 17.7714 44.5521 18.6875 43.3911 19.6919C43.3571 19.7259 43.3791 19.7107 43.3201 19.7288C43.3304 19.6632 43.7509 19.0454 43.8269 18.92C44.9465 17.0685 45.3809 16.368 45.565 14.1985Z" fill="#000100"/>
<path d="M12.7991 21.5316C14.453 21.5491 15.9781 22.2736 17.4745 22.9125C16.206 22.9386 14.917 22.5876 13.6779 22.5947C12.1033 22.6039 10.8014 23.121 9.70762 24.2459C10.3175 24.2448 11.3899 24.32 11.9592 24.5066C11.6903 24.7544 11.2105 25.0368 10.8882 25.2438C11.5353 25.3727 12.0812 25.476 12.7102 25.6664C12.5301 25.7875 12.4077 25.8908 12.241 26.0309C12.6391 26.2413 12.9651 26.3222 13.3914 26.4563C13.5695 26.6778 13.622 26.7702 13.8554 26.9303C13.9436 26.9729 14.033 27.0129 14.1236 27.0502C14.9407 27.3802 15.8465 27.0185 16.6113 26.7016C14.2154 29.0339 11.3911 27.2618 9.2655 25.5713C9.59105 25.4189 9.97502 25.2078 10.2998 25.0405C9.7477 24.9719 8.97062 24.9528 8.47886 24.7011C8.06485 24.4892 9.01344 23.4918 9.21139 23.2559C10.1861 22.0943 11.2938 21.6209 12.7991 21.5316Z" fill="white"/>
<path d="M19.7022 26.5764L19.7367 26.6343C19.5756 27.8448 19.5505 28.7105 19.7198 29.9199C19.8211 30.6442 19.6483 31.5508 19.4546 32.2623C20.5716 31.2434 20.946 30.4032 21.3394 28.9855C21.4054 29.3321 21.4651 29.8012 21.4257 30.149C21.2654 31.5638 20.7225 32.3884 21.1451 33.8587C21.4533 33.553 21.6844 33.1646 21.9627 32.8295C22.263 32.4677 22.5792 32.149 22.8805 31.7849C22.1946 33.471 21.8038 35.016 22.0616 36.8515C22.1323 37.3547 22.2001 37.7561 22.3811 38.2409C21.5259 37.3253 21.2103 36.5608 20.9906 35.3278C20.9512 34.9103 20.846 34.3892 20.7627 33.9794C20.2299 35.3435 20.1831 36.025 20.3961 37.4937C20.2556 37.2986 20.1213 37.1139 19.9981 36.9072C18.9733 35.1871 20.1561 33.6413 20.5632 32.0102C19.6093 32.8461 19.2002 33.4866 17.8693 33.8264C18.7843 32.6848 19.008 31.241 19.0262 29.8262C18.5043 30.6359 18.2581 30.9256 17.5232 31.5468C17.7399 31.055 18.0544 30.4955 18.2433 30.0038C18.7094 28.7903 19.1081 27.7431 19.7022 26.5764Z" fill="white"/>
<path d="M15.7386 29.0863C15.7334 29.1535 15.4325 29.8163 15.3718 29.9533C15.1246 30.5119 15.0135 31.0664 14.819 31.6352C15.3242 31.1244 15.849 30.6336 16.3925 30.1641C15.4462 31.9443 15.3324 34.1835 15.8933 36.0954C15.9706 36.3588 16.0587 36.7169 16.2006 36.9439L16.2456 36.9336C16.316 35.8907 16.6686 35.0018 17.135 34.0875C17.0166 35.5599 16.9105 36.4305 16.921 37.9362C16.9528 38.5257 17.0011 39.1755 16.9903 39.761C14.9405 37.3604 14.2945 35.1815 15.2713 32.0767C15.0148 32.3467 13.8974 33.8811 13.6438 33.7411C13.586 33.559 13.7343 33.0236 13.7733 32.8195C14.0635 31.3008 14.6655 30.1948 15.7386 29.0863Z" fill="white"/>
<path d="M35.7745 40.5352C35.7952 40.5322 35.8158 40.5298 35.8365 40.5281C36.543 40.4628 37.0512 40.6408 37.585 41.0856C37.5643 41.1673 37.543 41.2487 37.5206 41.33C37.2249 42.3963 36.439 42.9648 35.5114 43.4929C35.7395 43.1285 35.8175 42.9071 35.9032 42.4903C35.5804 42.5413 35.1683 42.6994 34.8519 42.8151C34.2714 43.0268 33.9083 43.1362 33.2965 43.2125C33.5306 43.0278 33.7816 42.7831 34.003 42.5774C33.6596 42.669 33.4055 42.7251 33.0554 42.7891C32.8297 42.7941 32.6757 42.8101 32.4503 42.8381C32.5846 42.7357 32.8997 42.5283 32.9117 42.3636C32.7507 42.3243 32.2922 42.38 32.0548 42.366C31.6857 42.344 31.447 42.3023 31.0846 42.2399C31.7124 42.1039 31.7554 42.1349 32.3946 41.8222C31.5714 41.8002 30.8775 41.7745 30.5458 40.9066C32.0785 41.6681 34.092 40.7195 35.7745 40.5352Z" fill="white"/>
<path d="M5.97409 26.8783C5.97435 26.9096 5.5358 28.0288 5.47969 28.1746C5.06211 29.2598 5.09836 30.2824 4.96505 31.4045C5.30378 31.0304 5.60956 30.6429 5.96198 30.2685C6.62592 29.5633 7.2808 29.0267 8.04603 28.443C7.45478 29.3705 6.98092 30.0852 6.30594 30.9637C5.42461 32.0453 4.63527 33.2083 3.74446 34.2485C3.72579 33.5307 3.70232 32.8428 3.76807 32.1263C3.94478 30.2008 4.67504 28.323 5.97409 26.8783Z" fill="white"/>
<path d="M25.5083 35.1488C25.5727 35.2291 25.4069 36.064 25.3832 36.2311C25.1439 37.9172 25.4708 38.7454 25.8646 40.2698C26.2615 38.8094 26.3137 38.1756 27.1048 36.7849C26.8314 37.9408 26.7777 39.0401 27.0781 40.1961C27.2418 40.7476 27.3802 41.095 27.6272 41.6111C26.9811 41.0703 26.7795 40.8563 26.3533 40.1144C26.1637 40.5332 26.0842 40.986 25.8679 41.3814C24.3298 39.1745 24.3397 37.5014 25.5083 35.1488Z" fill="white"/>
<path d="M22.1012 25.67C22.3553 25.7534 22.611 25.8315 22.8682 25.9041C22.9181 26.882 23.1574 27.5582 24.2895 27.7047C24.8802 27.7811 25.2879 27.4901 25.7278 27.1279C26.2374 27.5271 26.3794 27.8725 26.5992 28.4634C26.6304 28.6018 26.6788 28.758 26.7178 28.8962C25.9554 28.6487 25.5144 28.6886 24.7369 28.7072C24.0656 28.7232 23.2604 28.5835 22.7753 28.0802C22.0865 27.3655 22.0945 26.582 22.1012 25.67Z" fill="white"/>
<path d="M18.231 38.6774C18.2646 38.7077 18.2814 38.7364 18.2869 38.7844C18.3456 39.2962 18.4238 39.808 18.583 40.3002C18.7901 40.9403 19.2179 41.4681 19.5616 42.04C19.513 41.0567 19.506 40.5939 19.7524 39.6313C19.8681 40.5799 19.6899 40.8143 20.0953 41.8983C20.3221 42.4621 20.6062 42.9202 20.9619 43.4093C20.0437 43.0539 19.4817 42.7538 18.8588 41.9386C18.239 41.1277 18.0631 39.6747 18.231 38.6774Z" fill="white"/>
<path d="M39.6219 37.6598C40.012 37.6451 40.1207 37.6961 40.4928 37.8245C40.2854 38.673 39.6553 39.3839 38.9481 39.8667L38.6217 40.0294C38.473 39.9914 38.3099 39.9577 38.2166 39.836C38.2392 39.6456 38.3863 39.4906 38.4446 39.3145C38.6763 38.6127 38.7667 37.8391 39.6219 37.6598Z" fill="white"/>
<path d="M31.0955 22.0704C31.1461 22.0957 31.1481 22.0975 31.1865 22.1385C32.4121 23.4457 32.036 25.2557 31.9434 26.8774L31.9133 26.9311L31.8747 26.9258C31.1178 25.6389 31.2888 25.2688 31.2838 23.8884C31.2848 23.2775 31.2215 22.6681 31.0955 22.0704Z" fill="white"/>
<path d="M17.5851 44.9503C17.6064 44.9643 17.6266 44.977 17.6442 44.9957C18.7129 46.148 19.5337 48.0281 19.6517 49.5645C19.5644 49.5029 19.3319 49.0591 19.2655 48.9344C18.566 47.618 17.9304 46.406 17.5851 44.9503Z" fill="white"/>
<path d="M27.046 45.1454L27.0874 45.1934C27.11 45.3764 27.0644 45.7932 27.0427 45.9896C26.8863 47.3836 25.9385 48.588 24.8749 49.4402C25.0562 49.0051 25.2279 48.651 25.3997 48.1982C25.6458 47.5243 25.6244 46.6578 25.6361 45.9353C25.8605 46.6008 25.9685 47.1249 25.8855 47.8248C26.6 46.7915 26.7615 46.3707 27.046 45.1454Z" fill="white"/>
<path d="M26.6454 22.148C26.9888 22.4017 27.4229 22.8138 27.6936 23.1386C28.6976 24.3434 28.7963 25.3513 28.6839 26.8268L28.6322 26.8177C28.3515 25.4222 28.1771 24.8425 27.4106 23.6106C27.2278 23.3173 26.746 22.4663 26.6454 22.148Z" fill="white"/>
<path d="M17.9631 23.7091L17.9932 23.7389C17.9832 23.8418 17.7078 24.2141 17.6254 24.3849C17.4344 24.7805 17.3335 25.0629 17.2286 25.4894C17.5204 25.0747 17.7133 24.8249 18.0453 24.45C17.6957 25.3728 17.5876 25.7229 17.3955 26.7096C17.3502 26.8867 17.3291 27.0619 17.3033 27.2427C17.1222 26.7957 16.9595 26.4404 16.8554 25.9619C16.6786 25.9923 16.4981 26.0191 16.3206 26.0471C16.7599 25.0659 17.2226 24.4684 17.9631 23.7091Z" fill="white"/>
<path d="M28.644 47.6837L28.676 47.7408C28.4986 48.9544 27.0906 50.7689 26.2445 51.7025C26.1679 51.6321 26.2219 51.4384 26.2508 51.344C26.6853 49.923 27.8904 48.9257 28.644 47.6837Z" fill="white"/>
<path d="M13.7449 37.4377C13.7688 37.4564 13.8061 37.4861 13.8089 37.5207C13.8769 38.3613 14.0353 39.2012 14.2821 40.0067C14.4101 40.4242 15.2051 42.0539 14.9461 42.3974C13.7842 40.7836 13.4946 39.3939 13.7449 37.4377Z" fill="white"/>
<path d="M11.7341 32.5097C11.7801 32.6908 11.7318 33.1702 11.7101 33.3596C11.6805 33.614 11.6356 33.8661 11.5757 34.1151C11.4409 34.6863 11.244 35.2808 11.0944 35.8519C11.0354 36.0776 10.8012 37.1483 10.6886 37.237C10.3654 35.4778 11.1606 34.0758 11.7341 32.5097Z" fill="white"/>
<path d="M31.7006 46.3801C31.7336 46.5248 31.7136 46.9275 31.7103 47.0949C31.6843 48.3499 31.2902 49.1391 30.645 50.1711C30.7807 49.5662 30.8091 48.9867 30.8207 48.3696C30.8037 47.6834 30.6414 46.9755 30.4316 46.3254C30.8508 46.8899 31.1102 47.4733 31.2182 48.1652C31.3495 47.6697 31.5543 46.8132 31.7006 46.3801Z" fill="white"/>
<path d="M23.3324 24.7955C23.9405 24.6943 24.6074 24.8494 25.1075 25.2067C25.5086 25.4931 25.7215 25.8657 25.9597 26.2813L25.5703 25.9914C25.2004 25.7606 24.7248 25.5217 24.3001 25.4197C23.5638 25.2428 23.3786 25.3726 22.738 24.915C22.9616 24.8573 23.1038 24.8302 23.3324 24.7955Z" fill="white"/>
<path d="M20.5137 15.7289C20.8166 15.7091 21.108 15.7197 21.4109 15.7264C21.0216 15.8656 20.6182 15.9769 20.2337 16.1238C19.6727 16.3381 19.1117 16.5847 18.5597 16.8227L17.8966 17.0732C18.5633 16.3049 19.5008 15.8234 20.5137 15.7289Z" fill="white"/>
<path d="M32.7656 25.6411C32.8866 26.4967 32.947 27.0071 33.2484 27.8467C33.3251 28.0596 33.7352 29.089 33.7565 29.1986L33.7139 29.1979C33.1454 28.5532 32.6853 27.9489 32.6229 27.0537C32.5936 26.6281 32.6172 26.0415 32.7656 25.6411Z" fill="white"/>
<path d="M27.5996 31.6088C27.6306 31.7065 27.5919 31.9973 27.5753 32.1086C27.4346 33.0522 26.6131 33.6107 25.8062 33.9161C25.78 33.8251 26.0027 33.6614 26.0792 33.5927C26.728 33.0095 27.2015 32.3794 27.5996 31.6088Z" fill="white"/>
<path d="M24.0977 44.3385C24.2319 44.4582 24.2783 44.7433 24.2878 44.9227C24.3299 45.7122 23.8746 46.2787 23.378 46.8292L23.3171 46.8622C23.3135 46.7485 23.5853 46.239 23.6458 46.0827C23.8769 45.4862 24.0312 44.9807 24.0977 44.3385Z" fill="white"/>
<path d="M22.1454 20.7465C22.1769 20.8335 22.058 21.3965 22.0301 21.5295C21.9068 22.1176 21.9999 22.5245 22.008 23.0532L21.98 23.0581L21.9213 22.9514C21.5172 22.0178 21.3832 21.5414 22.1454 20.7465Z" fill="white"/>
<path d="M23.7007 25.9093C23.8584 25.8586 24.0285 25.9387 24.0898 26.0927C24.1511 26.2467 24.0825 26.4218 23.9331 26.4933C23.827 26.544 23.7014 26.5314 23.6075 26.4606C23.5137 26.3899 23.467 26.2726 23.4866 26.1567C23.5062 26.0407 23.5887 25.9454 23.7007 25.9093Z" fill="white"/>
<path d="M40.5916 22.528C40.4497 22.5665 40.2281 22.6363 40.0927 22.588C40.1677 22.5167 40.355 22.4858 40.4651 22.4582L40.5916 22.528Z" fill="#BCBCBB"/>
</svg>
