<svg width="1024" height="1024" viewBox="0 0 1024 1024" fill="none" xmlns="http://www.w3.org/2000/svg">
<rect width="1024" height="1024" fill="black"/>
<path d="M375.004 72.3995L375.361 77.3296C375.528 79.636 375.005 81.6211 374.701 82.6408C374.336 83.8611 373.861 85.037 373.409 86.0525C372.5 88.0907 371.326 90.2733 370.229 92.2156C369.115 94.1884 367.938 96.1626 366.995 97.753C365.959 99.4991 365.347 100.549 365.077 101.079C350.913 128.862 337.343 161.451 332.578 193.532C327.833 225.477 331.932 255.91 351.774 280.922C354.865 284.817 358.052 288.152 361.661 291.63C365.528 289.689 369.508 287.876 371.617 286.877C383.659 281.171 394.825 276.946 406.15 273.982C405.963 273.905 405.778 273.83 405.596 273.752C404.342 273.214 402.868 272.512 401.505 271.622C400.626 271.048 397.684 269.111 396.261 265.433L394.462 260.776L396.956 256.453C400.142 250.933 406.019 249.318 407.393 248.892C435.611 240.135 465.54 239.719 493.885 248.193C493.739 247.823 493.597 247.431 493.481 247.015L492.191 242.398L497.311 234.727L500.278 233.519C503.06 232.386 505.938 232.196 507.88 232.178C510.031 232.157 512.226 232.356 514.184 232.614C518.1 233.13 521.932 234.011 524.244 234.64C544.886 240.256 563.499 250.086 577.574 266.195C578.559 264.47 580.026 262.037 581.485 260.227C582.778 258.622 584.984 256.238 588.198 254.765C591.786 253.122 596.103 252.89 600.196 254.871L601.011 255.297L603.184 256.516L604.57 258.585C606.519 261.493 607.445 264.826 607.959 267.367C608.474 269.909 608.745 272.586 608.892 275.091C628.238 271.156 650.588 272.009 667.721 277.622C671.278 278.788 678.255 281.113 684.843 283.997C688.121 285.433 691.582 287.127 694.581 289.023C697.197 290.677 701.026 293.427 703.2 297.477L705.283 301.356L703.958 305.554L703.722 306.298L702.063 311.552L698.331 312.679C711.578 321.123 723.086 331.669 733.565 343.566C740.158 342.004 744.97 341.039 750.937 338.426C782.367 324.67 797.168 300.807 802.545 272.548C807.864 244.596 803.861 212.468 796.496 182.541L795.775 179.653C795.232 177.522 793.242 171.918 791.044 165.138C790.039 162.034 789.031 158.792 788.336 156.091C787.994 154.764 787.664 153.322 787.466 151.976C787.368 151.309 787.267 150.438 787.26 149.489C787.254 148.784 787.268 146.889 788.122 144.796L790.327 139.395L796.081 138.443C799.175 137.931 801.87 138.58 803.627 139.211C805.239 139.79 806.683 140.576 807.887 141.406L808.388 141.765L808.394 141.769C843.183 167.571 872.813 208.482 887.909 252.956C903.013 297.45 903.961 346.851 879.125 388.526C867.623 407.826 848.864 424.06 828.641 436.528C812.97 446.189 795.97 453.864 779.86 459.083C782.755 463.078 785.883 467.024 789.063 470.843L790.549 472.577C792.027 474.264 793.524 475.874 795.39 477.99C797.671 480.579 800.172 483.578 802.37 487.039L805.129 491.385L803.057 497.057L801.828 500.413L798.801 502.313C794.012 505.317 788.366 505.53 784.36 505.292C781.653 505.132 778.85 504.7 776.103 504.122C777.45 508.002 778.455 511.974 778.749 515.658C778.992 518.705 778.874 522.937 776.766 526.863C774.237 531.572 769.707 534.267 764.576 534.675C763.864 534.732 763.151 534.74 762.442 534.714C762.623 536.87 762.581 539.046 762.19 541.136C761.647 544.038 760.228 547.816 756.711 550.603C755.556 551.518 754.338 552.197 753.102 552.683C757.288 558.971 762.103 564.598 768.634 570.559L769.926 571.723L769.93 571.727C773.07 574.522 778.97 579.532 784.072 584.96C786.651 587.704 789.279 590.811 791.403 594.095C793.453 597.263 795.518 601.324 796.093 605.889L796.237 607.112C799.051 632.874 788.804 663.09 776.825 683.633L776.762 683.741L776.696 683.845C771.131 692.888 763.316 700.44 753.116 704.448C746.536 736.223 717.651 752.796 691.848 760.554C691.48 762.541 691.232 764.357 691.169 766.112C691.056 769.256 691.59 771.393 692.708 773.118L692.887 773.355C693.066 773.586 693.259 773.828 693.574 774.221C694.106 774.885 695.019 776.021 695.834 777.292C697.004 779.117 700.978 785.825 696.529 792.9L694.512 796.108L690.908 797.273C686.987 798.542 683.238 797.978 681.148 797.549C678.921 797.091 676.665 796.333 675.694 796.03L675.68 796.024C671.46 794.701 667.717 792.933 664.375 790.817C660.834 826.91 643.099 856.841 611.646 880.459C609.647 881.961 605.903 884.612 601.867 886.848C599.858 887.962 597.518 889.117 595.119 889.952C592.992 890.693 589.529 891.654 585.787 891.067L581.434 890.384L579.231 887.272C570.827 897.359 560.657 906.314 548.028 913.307L548.018 913.313C546.863 913.95 544.788 915.085 542.421 915.856C540.111 916.609 536.268 917.442 532.039 916.068L526.072 914.13L525.358 910.068C511.57 918.158 496.198 924.01 479.783 925.718C477.868 925.919 475.157 925.997 472.448 925.722C471.082 925.584 469.456 925.33 467.81 924.84C466.294 924.389 463.965 923.51 461.865 921.661L457.697 917.988L458.414 912.481C458.419 912.446 458.423 912.408 458.43 912.349C458.437 912.298 458.448 912.216 458.459 912.135C458.479 911.977 458.515 911.699 458.571 911.381C458.683 910.74 458.919 909.615 459.498 908.338C460.837 905.388 463.012 903.735 464.473 902.839L464.479 902.835C465.036 902.494 465.581 902.144 466.12 901.794C465.705 902.012 465.284 902.226 464.856 902.425C462.787 903.391 459.777 904.496 456.343 904.463L456.182 904.461L456.023 904.455C453.487 904.353 450.966 903.489 448.888 902.044C446.82 900.606 443.682 897.43 443.557 892.339C443.237 879.252 444.051 871.301 442.14 860.981L441.72 858.884C437.76 840.448 427.858 825.273 415.289 810.327C414.158 814.308 412.796 818.339 411.158 822.262C407.194 831.753 401.257 841.532 392.301 848.084L381.386 856.07L376.431 843.487C375.344 840.726 374.616 837.631 374.085 835.171C373.476 832.35 373.142 830.481 372.681 828.572L372.145 826.52C370.854 821.745 369.281 817.048 367.435 812.461L367.429 812.445C363.181 801.839 358.41 793.201 353.128 781.819C351.106 777.462 349.176 773.178 347.34 768.926C346.58 769.674 345.811 770.224 345.147 770.612C344.191 771.169 343.287 771.49 343.233 771.51C343.054 771.577 343.087 771.566 343.178 771.529L339.43 773.177L335.452 771.68C332.374 770.521 329.944 768.555 328.447 767.214C326.838 765.773 325.412 764.222 324.558 763.301L324.55 763.291C308.823 746.284 297.818 725.914 291.089 704.23C291.118 706.524 291.216 708.793 291.401 711.043L291.546 712.635L291.892 715.765C292.044 717.194 292.208 718.882 292.312 720.453C292.419 722.071 292.496 723.954 292.412 725.725C292.37 726.609 292.279 727.682 292.065 728.792C291.882 729.743 291.46 731.561 290.315 733.405L288.003 737.126L283.728 738.082L282.495 738.359L279.737 738.975L277.047 738.117C275.073 737.487 273.232 736.667 271.426 735.42C269.799 734.297 268.504 733.024 267.609 732.139L267.602 732.131C243.749 708.512 228.508 674.673 221.972 643.192C220.976 638.394 220.23 633.742 219.669 629.168C219.389 629.631 219.104 630.095 218.821 630.564L213.168 639.947C212.451 641.123 210.134 645.11 207.559 648.578C206.293 650.284 204.605 652.364 202.655 654.059C201.68 654.907 200.295 655.963 198.553 656.761C196.819 657.555 194.019 658.41 190.698 657.735L186.724 656.928L184.339 653.649C180.891 648.91 179.543 642.511 178.845 638.113C178.075 633.264 177.762 628.263 177.534 625.269C176.066 605.919 177.418 588.006 180.691 570.39C179.419 571.629 178.208 572.799 177.078 573.853C175.38 575.436 173.725 576.916 172.292 578.055C171.594 578.611 170.748 579.246 169.855 579.798C169.41 580.073 168.774 580.438 168.008 580.77C167.386 581.039 165.908 581.635 163.965 581.724L159.045 581.948L152.892 575.131L152.383 572.143C151.687 568.059 152.077 563.666 152.476 560.84C155.628 538.578 164.53 513.265 176.819 490.245C183.168 478.352 190.545 466.84 198.7 456.536C194.255 456.947 189.765 457.116 185.715 456.805C182.973 456.594 180.005 456.137 177.227 455.154C174.527 454.199 171.063 452.41 168.61 448.915L165.899 445.053L168.047 436.18L170.448 434.019C172.94 431.776 177.035 429.094 180.251 427.014C183.944 424.627 187.124 422.632 189.143 421.171C200.044 413.287 211.399 404.338 223.564 396.307C219.752 395.501 215.989 394.496 212.823 393.217C210.582 392.312 207.692 390.907 205.35 388.646C202.739 386.125 199.913 381.462 201.5 375.557L202.719 371.023L206.923 368.928C210.325 367.232 214.2 365.888 217.533 364.798C221.18 363.607 224.052 362.755 226.707 361.786C234.907 358.795 243.042 355.788 251.127 352.692C238.673 337.82 228.84 320.883 223.851 302.248C211.925 257.697 224.687 207.774 245.604 170.096L245.622 170.061L245.642 170.029C266.214 133.609 295.795 103.083 331.553 81.3792L331.575 81.365C340.53 75.9607 349.569 70.6908 361.115 67.3777L365.917 66L375.004 72.3995ZM363.993 77.407C353.894 80.3047 345.886 84.9174 336.968 90.2998L333.776 92.2727C300.977 112.908 273.806 141.387 254.728 175.161L253.791 176.867C234.257 212.857 223.107 259.114 233.932 299.55C244.696 339.762 280.867 372.527 316.416 392.115L319.002 393.527C293.97 390.929 276.099 377.187 258.042 361.22C248.826 364.786 239.565 368.203 230.283 371.589L228.05 372.368C222.67 374.176 216.235 375.944 211.576 378.266C209.344 386.571 249.938 389.609 256.477 389.555C250.824 391.746 246.406 394.772 241.22 397.699C224.878 406.918 210.446 418.644 195.259 429.627L194.336 430.279C189.445 433.669 180.696 438.833 177.428 441.774L177.151 442.922C183.025 451.288 220.267 442.915 229.723 439.791C196.52 465.719 168.699 520.674 162.807 562.301C162.456 564.784 162.246 567.907 162.669 570.39L163.49 571.299C166.628 571.156 195.978 539.63 200.43 535.317C191.018 565.27 185.546 592.939 187.939 624.48C188.423 630.857 189.074 642.419 192.777 647.508C195.856 648.134 200.998 639.916 203.408 635.928L204.257 634.516C211.837 622.084 218.452 609.929 228.347 599.137C228.602 613.582 229.201 626.679 232.189 641.072C238.424 671.106 252.908 702.898 274.944 724.716C276.774 726.525 277.78 727.398 280.216 728.175L281.451 727.9C282.73 725.841 281.466 716.686 281.164 713.68C279.258 694.754 283.118 675.664 284.327 656.835C281.179 662.363 274.641 675.031 271.043 679.211C269.774 676.886 268.588 674.56 267.391 672.2C248.804 635.574 259.031 591.236 283.173 559.342C272.445 587.481 266.479 615.646 270.58 645.741C271.504 652.527 273.132 659.246 274.436 666.016C275.564 659.333 279.013 650.902 281.156 644.25C286.332 628.19 292.547 608.706 300.833 593.903C298.151 606.386 295.451 618.881 294.203 631.742C289.93 675.833 301.653 723.163 332.211 756.206L333.703 757.792C335.18 759.313 336.924 760.913 338.655 761.715L339.126 761.915C339.778 761.629 340.142 761.648 340.198 761.055C341.002 752.614 338.677 741.395 338.423 733.117C338.187 725.397 337.872 716.296 338.735 709.097C344.035 733.863 351.909 754.403 362.595 777.427C367.493 787.983 372.756 797.681 377.116 808.564C379.402 814.246 381.3 820.083 382.798 826.02C383.809 830.174 384.639 835.852 386.14 839.663C399.752 829.705 406.103 808.31 408.535 792.225C408.77 790.682 408.914 789.128 408.969 787.564C427.774 807.87 445.911 828.703 451.923 856.693C454.641 869.35 453.679 879.431 453.987 892.082C454.012 893.102 455.097 893.797 456.048 893.982L456.443 894.029C460.669 894.068 466.891 888.98 470.484 885.664L471.847 884.372C489.153 867.551 499.489 835.13 501.334 811.293C509.048 849.902 506.041 889.619 469.929 911.733C468.88 912.377 468.891 912.832 468.761 913.828C470.74 915.571 476.111 915.611 478.699 915.341C505.431 912.561 529.807 897.355 548.537 879.185C546.254 884.75 543.982 890.601 540.856 895.736C539.354 897.98 534.866 903.871 535.265 906.145C537.734 906.946 540.687 905.438 542.973 904.176C575.661 886.078 590.587 853.168 602.676 820.297C602.268 839.126 600.316 854.992 590.925 871.604C589.694 873.785 586.24 879.113 587.403 880.759C592.094 881.494 601.802 874.801 605.379 872.113C642.035 844.588 658.289 808.467 653.905 762.838C659.418 773.885 666.721 782.282 678.8 786.068C681.243 786.83 684.634 788.026 687.195 787.479L687.696 787.344C689.427 784.59 685.49 781.163 683.956 778.802C678.683 770.673 680.992 760.959 682.954 752.196C711.144 745.083 740.728 728.507 743.794 696.367C753.818 694.313 761.626 688.02 767.27 679.235L767.81 678.377C779.353 658.582 788.626 630.085 785.739 607.193C784.558 597.813 769.783 585.565 762.992 579.521C747.485 565.73 740.412 553.564 731.782 535.022C758.622 556.431 754.519 531.344 744.248 515.393C782.576 542.169 766.799 501.559 754.398 485.311C762.139 489.501 784.683 498.125 792.877 493.694L793.256 493.474L793.563 492.634C790.483 487.784 786.427 483.711 782.648 479.393L781.05 477.524C774.719 469.923 768.296 461.496 763.396 452.918C800.521 443.937 847.969 418.697 869.172 384.804L870.162 383.182C915.79 306.615 868.174 199.099 802.178 150.152C801.018 149.293 799.259 148.495 797.782 148.739L797.742 148.868C797.019 151.851 804.61 172.061 805.888 177.081C821.819 239.706 825.303 317.269 755.124 347.984C746.432 351.79 738.71 352.883 729.839 355.254L728.093 353.181C709.965 331.918 689.304 315.513 661.862 307.407C669.506 306.273 677.057 305.17 684.757 304.527C687.333 304.311 690.139 304.078 692.694 303.451L693.772 303.157L694.006 302.411C690.735 296.319 671.524 289.848 664.473 287.538C645.168 281.213 617.812 281.635 598.339 288.856C598.73 282.957 599.173 270.153 596.199 264.88L595.902 264.395C591.181 261.743 587.358 270.313 585.355 273.654C583.051 277.512 580.936 281.57 578.662 285.473C566.25 264.436 546.928 252.073 523.759 245.341L521.504 244.708C517.563 243.635 508.047 241.624 504.211 243.185L503.531 244.204C504.122 246.32 511.596 252.748 513.558 254.753L515.708 256.973C520.714 262.208 525.585 267.859 528.809 274.317C518.153 269.079 508.507 264.204 497.213 260.24L494.93 259.459C467.451 250.305 438.133 250.279 410.487 258.858L409.831 259.07C408.299 259.59 406.78 260.308 405.995 261.668C407.202 264.79 426.087 269.059 430.419 270.509C437.689 272.944 444.074 275.562 450.998 278.821C422.773 279.158 401.705 284.169 376.087 296.307L372.32 298.074C368.099 300.054 362.888 302.548 360.053 304.433C354.375 299.199 349.371 294.474 344.56 288.599L343.6 287.409C299.859 232.275 326.205 155.134 354.436 98.9962L355.781 96.3407C357.555 92.8602 364.721 82.0436 364.953 78.4118V78.0837L363.993 77.407Z" fill="white"/>
<path d="M362.392 76.4214L363.353 77.0979C363.588 80.3533 356.012 91.7615 354.181 95.3541C325.458 151.695 297.566 230.414 342 286.422C347.107 292.86 352.396 297.864 358.453 303.448C362.232 300.934 370.235 297.336 374.486 295.322C400.104 283.183 421.172 278.171 449.397 277.834C442.473 274.576 436.089 271.959 428.819 269.524C424.487 268.074 405.601 263.806 404.395 260.684C405.292 259.129 407.147 258.412 408.886 257.872C436.532 249.293 465.851 249.318 493.33 258.473C505.625 262.569 515.842 267.744 527.209 273.332C523.524 265.951 517.688 259.624 511.958 253.767C509.996 251.761 502.523 245.335 501.931 243.219L502.612 242.199C506.448 240.637 515.963 242.649 519.904 243.722C544.074 250.298 564.249 262.77 577.061 284.486C579.335 280.583 581.45 276.526 583.755 272.668C585.758 269.326 589.58 260.756 594.301 263.409C597.602 268.334 597.142 281.78 596.738 287.869C616.211 280.648 643.568 280.228 662.872 286.552C669.924 288.863 689.136 295.334 692.406 301.426L692.171 302.171C689.345 303.025 686.101 303.294 683.158 303.541C675.457 304.184 667.905 305.288 660.261 306.422C688.589 314.789 709.692 331.999 728.24 354.268C737.11 351.897 744.831 350.805 753.522 346.999C823.703 316.284 820.218 238.72 804.287 176.094C802.989 170.995 795.176 150.219 796.183 147.753C797.659 147.509 799.417 148.306 800.577 149.165C866.573 198.112 914.19 305.63 868.561 382.197C847.877 416.905 799.509 442.81 761.795 451.933C766.695 460.511 773.118 468.938 779.449 476.539C783.649 481.577 788.442 486.106 791.962 491.648L791.656 492.487C783.802 497.414 760.661 488.583 752.797 484.326C765.198 500.575 780.976 541.183 742.649 514.407C752.919 530.358 757.022 555.444 730.182 534.035C738.812 552.578 745.883 564.744 761.391 578.535C768.182 584.58 782.959 596.827 784.139 606.209C787.026 629.1 777.752 657.596 766.21 677.391C760.528 686.624 752.541 693.262 742.194 695.382C739.128 727.522 709.544 744.097 681.354 751.21C679.392 759.973 677.082 769.686 682.355 777.816C683.888 780.177 687.828 783.605 686.096 786.359C683.49 787.202 679.806 785.894 677.2 785.082C665.12 781.295 657.819 772.9 652.306 761.853C656.69 807.482 640.436 843.602 603.779 871.128C600.203 873.816 590.494 880.509 585.804 879.774C584.639 878.128 588.093 872.799 589.324 870.617C598.716 854.006 600.668 838.14 601.076 819.311C588.987 852.182 574.062 885.093 541.374 903.191C539.087 904.453 536.133 905.96 533.664 905.158C533.265 902.884 537.753 896.993 539.255 894.75C542.381 889.615 544.653 883.764 546.936 878.2C528.206 896.37 503.831 911.576 477.098 914.356C474.511 914.626 469.14 914.586 467.161 912.843C467.291 911.847 467.28 911.392 468.329 910.748C504.441 888.634 507.448 848.916 499.734 810.308C497.89 834.144 487.554 866.565 470.248 883.386C467.108 886.437 459.672 893.089 454.843 893.043C453.827 893.002 452.416 892.261 452.388 891.096C452.079 878.445 453.04 868.364 450.322 855.707C444.31 827.717 426.174 806.885 407.369 786.579C407.315 788.142 407.169 789.696 406.934 791.239C404.502 807.324 398.152 828.718 384.54 838.677C383.038 834.865 382.209 829.188 381.198 825.034C379.701 819.097 377.802 813.261 375.516 807.579C371.156 796.696 365.892 786.998 360.993 776.441C350.308 753.417 342.435 732.877 337.135 708.11C336.272 715.31 336.587 724.41 336.823 732.131C337.077 740.408 339.403 751.629 338.599 760.07C338.542 760.663 338.178 760.642 337.527 760.928C335.015 759.983 332.425 757.178 330.61 755.221C300.052 722.177 288.331 674.846 292.604 630.755C293.851 617.894 296.551 605.401 299.233 592.919C290.947 607.721 284.731 627.204 279.555 643.264C277.412 649.917 273.964 658.347 272.837 665.031C271.533 658.26 269.904 651.541 268.98 644.756C264.879 614.66 270.844 586.496 281.572 558.357C257.43 590.251 247.204 634.588 265.79 671.213C266.988 673.574 268.173 675.899 269.442 678.224C273.041 674.044 279.579 661.377 282.726 655.849C281.517 674.678 277.658 693.767 279.564 712.694C279.866 715.698 281.129 724.854 279.85 726.914L278.616 727.19C276.179 726.413 275.173 725.539 273.343 723.73C251.308 701.912 236.824 670.12 230.589 640.086C227.601 625.692 227.001 612.596 226.746 598.151C216.851 608.942 210.237 621.098 202.658 633.53C200.907 636.401 194.695 647.239 191.177 646.524C187.474 641.435 186.823 629.871 186.339 623.495C183.946 591.953 189.418 564.284 198.83 534.331C194.378 538.644 165.028 570.17 161.89 570.313L161.069 569.404C160.646 566.921 160.857 563.799 161.208 561.315C167.1 519.689 194.919 464.734 228.122 438.806C218.666 441.93 181.424 450.303 175.551 441.935L175.828 440.789C179.314 437.651 189.035 431.985 193.659 428.641C208.846 417.657 223.276 405.933 239.618 396.714C244.806 393.787 249.224 390.761 254.877 388.57C248.342 388.624 207.744 385.586 209.976 377.281C215.301 374.628 222.945 372.696 228.683 370.603C237.965 367.217 247.226 363.801 256.442 360.235C274.5 376.202 292.369 389.943 317.401 392.54L314.815 391.129C279.266 371.541 243.096 338.776 232.331 298.564C221.335 257.487 233.016 210.401 253.127 174.174C272.82 139.311 301.138 110.09 335.367 89.314C344.286 83.9315 352.294 79.3191 362.392 76.4214Z" fill="#000100"/>
<path d="M707.214 492.101C707.72 493.159 709.631 506.86 710.218 509.539C714.01 526.843 719.819 544.643 728.444 560.161C733.518 569.383 740.641 576.501 747.467 584.232C754.089 591.728 766.741 597.507 770.665 606.081C775.908 617.542 758.709 623.597 752.541 630.367C747.641 635.747 745.291 639.431 742.097 646.278C742.552 633.959 745.337 629.498 750.927 618.829C748.014 619.376 740.59 621.727 737.366 622.795C726.012 626.545 715.701 621.083 704.592 616.918C705.855 619.591 707.26 623.525 708.021 626.274C710.075 633.683 709.058 638.037 705.272 644.306C691.364 667.345 692.508 667.514 666.28 673.86C652.73 677.141 636.915 680.559 623.86 673.124C616.717 669.057 612.823 662.445 610.928 654.74C612.69 649.242 616.119 643.836 618.919 638.711C602.2 647.418 598.424 655.568 591.562 672.384C590.172 662.379 595.231 640.167 599.824 630.883C601.521 627.454 608.429 616.408 608.25 614.323C606.784 614.164 606.804 614.573 605.205 615.61C596.411 621.435 590.32 627.49 583.821 635.65C587.112 622.212 592.742 609.458 600.463 597.977C590.183 602.872 583.417 609.065 575.094 616.561C575.441 597.068 581.884 582.658 593.826 567.534C597.213 563.247 603.187 555.444 605.68 550.784L605.997 550.181C607.949 557.202 608.807 568.408 609.282 575.76C617.959 563.058 620.263 547.059 615.526 532.427C610.989 518.662 607.974 518.594 606.247 502.291C615.506 516.463 621.157 523.792 638.029 529.441C631.371 515.026 630.022 509.765 631.443 494.148C646.598 517.797 665.596 534.255 693.244 541.618C688.216 529.732 683.663 516.834 682.836 503.943C689.979 515.154 694.797 520.103 705.548 527.256C703.601 514.248 703.514 504.653 707.214 492.101Z" fill="white"/>
<path d="M649.5 600.798C659.776 599.725 673.02 604.415 681.349 610.276C691.113 617.148 703.31 629.018 698.006 642.201C697.797 642.722 696.729 642.559 696.228 642.574C690.679 640.183 682.028 636.197 676.101 637.643C653.9 643.049 645.632 623.474 647.017 605.018C647.181 602.857 647.692 602.152 649.5 600.798Z" fill="#000100"/>
<path d="M660.287 574.268C679.949 573.195 698.185 586.347 715.66 593.394C726.411 597.721 733.615 596.991 743.937 592.346C734.862 602.274 728.72 605.268 715.185 603.26C706.81 601.211 700.377 598.166 692.743 594.278C669.341 582.362 655.305 578.509 629.747 586.618C640.921 578.749 646.394 575.449 660.287 574.268Z" fill="#000100"/>
<path d="M583.182 307.521C608.516 301.764 620.488 300.45 646.164 307.098C639.077 308.209 630.973 309.579 624.111 311.555C660.072 318.359 689.831 338.865 714.551 365.086C718.649 369.434 722.522 374.12 726.625 378.368C717.556 374.825 712.063 373.26 703.31 368.316C697.69 365.14 690.337 359.492 685.156 356.897C699.049 371.255 707.306 383.522 717.142 401.114C728.036 420.603 739.767 445.763 754.999 462.374C740.473 456.777 730.493 450.658 719.462 439.334C719.038 463.121 720.32 475.701 730.841 497.62C713.795 482.109 709.043 468.927 704.894 447.157C700.53 464.407 699.11 472.79 690.689 488.858C696.152 446.616 688.39 411.376 656.639 380.922C671.768 412.65 673.812 419.915 674.849 454.882C671.84 444.851 668.442 433.98 663.843 424.554C654.293 404.991 637.115 386.122 619.839 372.974C611.311 366.481 602.865 361.699 594.051 354.727C609.339 380.594 614.847 399.427 613.442 429.966C613.064 438.233 612.348 447.534 610.264 455.574C610.141 456.056 610.008 456.536 609.875 457.014C597.929 405.8 559.818 402.639 544.99 358.971C537.054 380.295 537.721 394.654 546.991 416.001C529.888 403.092 513.215 390.246 504.301 369.972C496.163 351.463 497.63 339.067 508.487 322.535C504.609 349.507 511.687 362.43 528.08 382.947C521.806 358.303 528.132 340.167 542.494 319.837C553.622 334.831 561.352 343.743 578.86 352.216C575.988 345.698 573.801 338.727 571.691 331.92C602.691 342.849 617.989 351.442 641.897 373.316C629.834 351.63 616.768 337.931 595.088 325.37C591.818 323.473 587.117 320.741 583.622 319.57L583.77 319.262C587.786 319.483 591.424 320.798 595.292 321.567C613.564 325.2 636.389 333.137 651.969 343.641L653.818 342.576C636.282 322.818 609.42 309.997 583.182 307.521Z" fill="white"/>
<path d="M653.818 342.576L659.198 348.454L651.968 343.641L653.818 342.576Z" fill="#000100"/>
<path d="M337.613 101.916C337.639 102.042 337.872 102.905 337.827 102.983C315.062 143.581 298.053 190.871 304.665 238.055C307.211 256.226 315.846 279.171 327.184 293.821C349.441 322.581 385.498 339.261 421.027 343.827C430.847 345.09 441.284 345.173 451.134 345.136C437.06 353.368 428.941 354.445 413.005 354.303C426.997 359.572 443.456 359.186 458.001 356.989C441.185 364.658 432.088 367.06 413.986 366.221C432.479 373.636 444.241 371.15 462.279 370.896C427.907 381.505 403.314 377.123 370.228 365.612C368.955 365.139 367.689 364.647 366.432 364.135C329.703 349.192 300.557 325.54 284.808 288.446C286.865 303.479 293.396 317.486 300.454 330.67C275.539 306.418 265.548 273.461 266.894 239.425C268.186 206.765 278.548 181.48 294.675 153.56C282.061 164.877 271.645 179.831 264.167 194.912C261.691 199.906 259.75 205.04 257.116 209.927L257.251 209.281C267.944 159.911 296.106 128.538 337.613 101.916Z" fill="white"/>
<path d="M820.97 182.759C849.737 214.594 870.089 257.704 868.929 301.527C867.437 357.734 826.018 396.413 774.053 411.237L772.116 410.169C789.055 404.118 800.066 396.741 814.322 385.803C808.809 387.416 803.653 391.164 798.39 393.521C783.547 400.171 767.707 404.336 751.54 406.094C748.198 406.457 744.115 406.868 740.891 407.471C737.82 402.601 734.673 397.781 731.449 393.013C736.865 395.084 749.567 399.456 755.985 398.467C757.058 398.301 757.257 397.212 757.487 396.429C756.358 391.329 746.609 382.984 742.95 378.128C740.12 374.375 738.428 372.522 735.761 368.124C770.89 360.706 792.907 345.602 813.52 315.803C834.776 285.082 834.525 243.249 826.902 207.601C825.057 199.289 823.085 191.007 820.97 182.759Z" fill="white"/>
<path d="M850.278 283.591L850.805 284.019C852.859 288.09 853.027 308.536 852.803 313.265C851.592 338.345 834.755 352.384 816.964 367.777C816.442 368.297 816.78 368.065 815.875 368.342C816.034 367.337 822.477 357.868 823.642 355.946C840.8 327.573 847.458 316.838 850.278 283.591Z" fill="#000100"/>
<path d="M348.146 395.968C373.491 396.237 396.864 407.34 419.796 417.132C400.356 417.531 380.602 412.151 361.614 412.261C337.483 412.401 317.531 420.326 300.769 437.564C310.116 437.548 326.55 438.7 335.274 441.56C331.153 445.357 323.801 449.686 318.861 452.857C328.778 454.833 337.145 456.416 346.784 459.334C344.023 461.19 342.147 462.772 339.593 464.92C345.694 468.145 350.69 469.384 357.222 471.439C359.952 474.834 360.756 476.25 364.333 478.703C365.684 479.356 367.055 479.969 368.444 480.54C380.966 485.598 394.847 480.054 406.568 475.198C369.85 510.94 326.569 483.783 293.994 457.876C298.983 455.541 304.867 452.306 309.844 449.742C301.383 448.691 289.475 448.398 281.938 444.541C275.594 441.293 290.131 426.009 293.164 422.394C308.101 404.592 325.078 397.338 348.146 395.968Z" fill="white"/>
<path d="M453.936 473.28L454.465 474.167C451.996 492.718 451.611 505.986 454.205 524.519C455.758 535.619 453.11 549.512 450.141 560.416C467.258 544.801 472.996 531.925 479.026 510.199C480.037 515.512 480.951 522.7 480.347 528.03C477.892 549.711 469.571 562.348 476.049 584.881C480.77 580.196 484.313 574.243 488.577 569.108C493.18 563.564 498.025 558.679 502.643 553.099C492.131 578.938 486.142 602.617 490.093 630.745C491.177 638.456 492.216 644.608 494.99 652.037C481.884 638.006 477.047 626.29 473.68 607.394C473.076 600.997 471.464 593.01 470.188 586.731C462.022 607.634 461.305 618.078 464.569 640.586C462.417 637.597 460.358 634.766 458.471 631.598C442.765 605.238 460.891 581.55 467.13 556.553C452.513 569.363 446.242 579.179 425.847 584.385C439.869 566.89 443.296 544.765 443.576 523.084C435.577 535.491 431.805 539.932 420.543 549.451C423.864 541.914 428.683 533.34 431.577 525.805C438.721 507.208 444.831 491.16 453.936 473.28Z" fill="white"/>
<path d="M393.196 511.744C393.117 512.773 388.505 522.93 387.575 525.03C383.788 533.59 382.085 542.088 379.104 550.805C386.845 542.977 394.889 535.455 403.217 528.261C388.716 555.541 386.972 589.858 395.567 619.156C396.751 623.193 398.102 628.681 400.276 632.16L400.966 632.002C402.045 616.019 407.448 602.397 414.597 588.386C412.781 610.95 411.155 624.292 411.317 647.367C411.803 656.401 412.545 666.359 412.379 675.332C380.966 638.542 371.066 605.151 386.035 557.57C382.105 561.709 364.98 585.223 361.094 583.077C360.209 580.287 362.481 572.081 363.079 568.954C367.526 545.68 376.751 528.731 393.196 511.744Z" fill="white"/>
<path d="M700.244 687.196C700.561 687.15 700.878 687.115 701.195 687.089C712.022 686.088 719.809 688.816 727.99 695.632C727.673 696.884 727.346 698.131 727.003 699.378C722.471 715.718 710.428 724.43 696.213 732.524C699.708 726.939 700.903 723.546 702.217 717.159C697.27 717.941 690.955 720.363 686.106 722.136C677.21 725.381 671.646 727.057 662.269 728.227C665.856 725.396 669.704 721.646 673.097 718.493C667.834 719.898 663.94 720.757 658.575 721.738C655.116 721.814 652.755 722.059 649.301 722.489C651.36 720.92 656.189 717.742 656.373 715.218C653.905 714.615 646.879 715.468 643.241 715.253C637.585 714.916 633.926 714.278 628.372 713.322C637.994 711.237 638.653 711.712 648.448 706.92C635.832 706.582 625.199 706.189 620.115 692.889C643.604 704.559 674.461 690.022 700.244 687.196Z" fill="white"/>
<path d="M243.554 477.906C243.559 478.386 236.838 495.537 235.978 497.772C229.579 514.403 230.134 530.073 228.091 547.269C233.282 541.536 237.968 535.599 243.369 529.861C253.544 519.053 263.58 510.83 275.307 501.886C266.246 516.099 258.984 527.052 248.64 540.514C235.134 557.09 223.037 574.912 209.386 590.854C209.1 579.853 208.74 569.312 209.748 558.331C212.456 528.824 223.647 500.047 243.554 477.906Z" fill="white"/>
<path d="M542.912 604.65C543.9 605.882 541.359 618.676 540.995 621.236C537.328 647.075 542.339 659.768 548.373 683.129C554.455 660.749 555.255 651.035 567.378 629.723C563.19 647.438 562.366 664.285 566.97 682C569.478 690.451 571.599 695.775 575.385 703.685C565.483 695.397 562.394 692.117 555.863 680.748C552.956 687.166 551.739 694.105 548.424 700.165C524.852 666.344 525.005 640.704 542.912 604.65Z" fill="white"/>
<path d="M490.701 459.39C494.594 460.667 498.512 461.863 502.455 462.977C503.219 477.963 506.887 488.326 524.236 490.57C533.288 491.741 539.536 487.282 546.278 481.731C554.088 487.849 556.264 493.142 559.632 502.198C560.11 504.319 560.852 506.712 561.449 508.83C549.766 505.037 543.007 505.649 531.092 505.934C520.804 506.179 508.465 504.039 501.031 496.325C490.476 485.373 490.597 473.366 490.701 459.39Z" fill="white"/>
<path d="M431.389 658.725C431.903 659.19 432.162 659.63 432.246 660.366C433.144 668.209 434.343 676.052 436.784 683.594C439.957 693.405 446.512 701.493 451.779 710.256C451.036 695.188 450.928 688.096 454.703 673.344C456.477 687.881 453.746 691.473 459.958 708.085C463.435 716.725 467.788 723.746 473.239 731.241C459.169 725.795 450.556 721.196 441.009 708.703C431.511 696.276 428.816 674.008 431.389 658.725Z" fill="white"/>
<path d="M759.204 643.131C765.182 642.906 766.848 643.688 772.551 645.655C769.372 658.659 759.715 669.553 748.878 676.952L743.875 679.445C741.596 678.863 739.098 678.346 737.667 676.481C738.015 673.564 740.268 671.188 741.162 668.49C744.713 657.734 746.098 645.88 759.204 643.131Z" fill="white"/>
<path d="M628.535 404.226C629.312 404.615 629.343 404.642 629.93 405.27C648.713 425.302 642.95 453.041 641.529 477.893L641.069 478.715L640.477 478.634C628.878 458.914 631.499 453.241 631.422 432.086C631.438 422.724 630.467 413.386 628.535 404.226Z" fill="white"/>
<path d="M421.489 754.858C421.815 755.073 422.125 755.267 422.395 755.553C438.772 773.212 451.351 802.025 453.159 825.57C451.822 824.625 448.258 817.824 447.241 815.913C436.521 795.74 426.781 777.167 421.489 754.858Z" fill="white"/>
<path d="M566.479 757.847L567.113 758.583C567.46 761.388 566.76 767.775 566.428 770.785C564.031 792.148 549.506 810.604 533.207 823.665C535.985 816.996 538.617 811.57 541.25 804.631C545.021 794.305 544.694 781.025 544.872 769.952C548.311 780.151 549.967 788.183 548.695 798.908C559.644 783.074 562.119 776.625 566.479 757.847Z" fill="white"/>
<path d="M560.338 405.415C565.6 409.303 572.253 415.618 576.402 420.596C591.787 439.06 593.3 454.505 591.578 477.117L590.786 476.978C586.483 455.592 583.811 446.708 572.064 427.829C569.264 423.335 561.88 410.293 560.338 405.415Z" fill="white"/>
<path d="M427.282 429.339L427.745 429.795C427.59 431.372 423.371 437.078 422.107 439.696C419.18 445.758 417.634 450.086 416.026 456.621C420.499 450.267 423.455 446.439 428.543 440.694C423.185 454.834 421.528 460.2 418.585 475.322C417.891 478.035 417.567 480.72 417.171 483.491C414.397 476.64 411.903 471.196 410.308 463.863C407.597 464.328 404.831 464.739 402.111 465.169C408.844 450.132 415.935 440.975 427.282 429.339Z" fill="white"/>
<path d="M590.964 796.747L591.455 797.621C588.737 816.22 567.159 844.027 554.193 858.333C553.019 857.255 553.846 854.287 554.289 852.841C560.948 831.063 579.417 815.78 590.964 796.747Z" fill="white"/>
<path d="M362.642 639.728C363.007 640.014 363.579 640.469 363.622 641C364.664 653.882 367.092 666.753 370.874 679.098C372.835 685.495 385.019 710.471 381.049 715.734C363.243 691.003 358.805 669.706 362.642 639.728Z" fill="white"/>
<path d="M331.825 564.207C332.53 566.982 331.79 574.33 331.458 577.232C331.003 581.13 330.315 584.993 329.397 588.81C327.332 597.563 324.315 606.674 322.022 615.426C321.117 618.886 317.528 635.293 315.803 636.652C310.85 609.693 323.035 588.207 331.825 564.207Z" fill="white"/>
<path d="M637.81 776.768C638.316 778.986 638.009 785.158 637.958 787.723C637.559 806.956 631.52 819.051 621.633 834.865C623.712 825.596 624.146 816.716 624.325 807.258C624.065 796.742 621.576 785.894 618.362 775.93C624.785 784.581 628.761 793.523 630.416 804.125C632.429 796.532 635.567 783.406 637.81 776.768Z" fill="white"/>
<path d="M509.565 445.987C518.883 444.436 529.103 446.814 536.768 452.288C542.914 456.679 546.177 462.388 549.828 468.757L543.861 464.314C538.192 460.778 530.904 457.117 524.394 455.553C513.111 452.843 510.273 454.832 500.456 447.819C503.882 446.935 506.061 446.519 509.565 445.987Z" fill="white"/>
<path d="M466.369 307.044C471.011 306.74 475.477 306.903 480.119 307.005C474.152 309.138 467.97 310.844 462.078 313.096C453.482 316.38 444.884 320.158 436.425 323.806L426.263 327.645C436.48 315.87 450.846 308.491 466.369 307.044Z" fill="white"/>
<path d="M654.13 458.946C655.985 472.058 656.909 479.88 661.529 492.747C662.704 496.01 668.989 511.786 669.316 513.465L668.662 513.454C659.95 503.573 652.898 494.313 651.943 480.594C651.493 474.072 651.856 465.082 654.13 458.946Z" fill="white"/>
<path d="M574.961 550.401C575.436 551.898 574.843 556.354 574.588 558.061C572.432 572.521 559.844 581.079 547.477 585.76C547.076 584.365 550.488 581.856 551.662 580.803C561.603 571.867 568.86 562.209 574.961 550.401Z" fill="white"/>
<path d="M521.294 745.482C523.352 747.316 524.062 751.685 524.208 754.434C524.854 766.534 517.875 775.215 510.266 783.651L509.332 784.157C509.276 782.414 513.442 774.607 514.37 772.211C517.912 763.069 520.276 755.323 521.294 745.482Z" fill="white"/>
<path d="M491.377 383.937C491.859 385.27 490.038 393.898 489.61 395.936C487.72 404.95 489.147 411.185 489.271 419.286L488.842 419.362L487.942 417.727C481.749 403.419 479.697 396.118 491.377 383.937Z" fill="white"/>
<path d="M515.209 463.057C517.624 462.28 520.228 463.507 521.167 465.864C522.105 468.222 521.055 470.903 518.767 471.997C517.142 472.775 515.22 472.581 513.783 471.498C512.345 470.414 511.631 468.619 511.931 466.844C512.231 465.069 513.495 463.608 515.209 463.057Z" fill="white"/>
<path d="M774.053 411.237C771.881 411.827 768.488 412.895 766.414 412.156C767.564 411.064 770.43 410.591 772.116 410.169L774.053 411.237Z" fill="#BCBCBB"/>
</svg>
