<svg width="455" height="455" viewBox="0 0 455 455" fill="none" xmlns="http://www.w3.org/2000/svg">
<g clip-path="url(#clip0_16_130)">
<path d="M215.047 0H240.212C242.472 0.761828 246.918 0.82537 249.396 1.00078C252.132 1.21427 254.862 1.4923 257.585 1.83465C266.112 2.87423 276.807 5.07143 285.08 7.29475C346.375 23.3351 398.22 64.178 428.163 120.014C439.905 141.93 447.997 165.613 452.122 190.133C452.797 194.165 453.34 198.218 453.75 202.286C454.003 204.667 454.388 212.378 455 213.914V241.398C454.288 243.621 454.182 247.714 453.997 250.135C453.795 252.572 453.525 255.005 453.19 257.427C451.867 267.408 449.88 277.288 447.24 287.003C431.255 345.805 392.38 395.753 339.302 425.682C317.145 438.207 293.04 446.92 267.995 451.46C263.735 452.237 259.948 452.845 255.735 453.4C252.908 453.775 244.643 454.295 242.645 455H211.834C209.701 454.275 203.322 453.825 200.736 453.515C196.156 452.948 191.593 452.245 187.053 451.415C168.275 448 149.998 442.25 132.647 434.297C72.11 406.61 26.7642 353.763 8.59275 289.723C6.22512 281.348 3.78823 270.835 2.49479 262.18C1.98348 258.625 1.53907 255.062 1.16181 251.492C0.936265 249.207 0.758523 242.342 0 240.593V214.816C0.586335 213.464 1.01065 204.409 1.2531 202.137C1.73057 197.83 2.32218 193.536 3.0273 189.26C7.8484 161.366 17.7882 134.605 32.345 110.326C63.3095 58.6165 113.572 21.3474 172.046 6.73845C180.993 4.48295 189.846 2.92885 198.967 1.66551C203.607 1.02282 210.862 1.17215 215.047 0Z" fill="white"/>
<path d="M150.834 26.5178L151.304 26.8488C151.419 28.4415 147.712 34.0233 146.816 35.781C132.763 63.347 119.116 101.862 140.857 129.265C143.355 132.415 145.943 134.864 148.906 137.595C150.756 136.366 154.671 134.605 156.751 133.62C169.285 127.681 179.593 125.228 193.403 125.063C190.015 123.469 186.891 122.189 183.334 120.998C181.215 120.288 171.975 118.2 171.384 116.672C171.823 115.911 172.731 115.561 173.582 115.297C187.108 111.099 201.453 111.111 214.898 115.59C220.913 117.594 225.912 120.127 231.474 122.86C229.671 119.249 226.815 116.154 224.012 113.288C223.052 112.307 219.396 109.162 219.106 108.127L219.439 107.628C221.316 106.864 225.972 107.848 227.9 108.373C239.726 111.591 249.597 117.693 255.865 128.318C256.978 126.408 258.013 124.423 259.14 122.536C260.12 120.901 261.99 116.708 264.3 118.005C265.915 120.415 265.69 126.994 265.493 129.973C275.02 126.44 288.405 126.234 297.85 129.329C301.3 130.459 310.7 133.625 312.3 136.606L312.185 136.971C310.802 137.388 309.215 137.52 307.775 137.641C304.008 137.956 300.313 138.496 296.573 139.05C310.433 143.144 320.757 151.565 329.832 162.46C334.172 161.3 337.95 160.766 342.203 158.904C376.54 143.876 374.835 105.926 367.04 75.2848C366.405 72.7898 362.583 62.6248 363.075 61.4183C363.798 61.2988 364.658 61.689 365.225 62.1093C397.515 86.0575 420.812 138.663 398.487 176.125C388.367 193.107 364.703 205.781 346.25 210.245C348.647 214.442 351.79 218.565 354.888 222.284C356.943 224.749 359.288 226.965 361.01 229.677L360.86 230.087C357.017 232.498 345.695 228.177 341.848 226.094C347.915 234.044 355.635 253.913 336.883 240.812C341.908 248.616 343.915 260.89 330.783 250.415C335.005 259.488 338.465 265.44 346.052 272.188C349.375 275.145 356.605 281.138 357.182 285.728C358.595 296.928 354.057 310.87 348.41 320.555C345.63 325.072 341.723 328.32 336.66 329.358C335.16 345.083 320.685 353.192 306.893 356.672C305.932 360.96 304.803 365.712 307.383 369.69C308.133 370.845 310.06 372.522 309.212 373.87C307.938 374.283 306.135 373.642 304.86 373.245C298.95 371.392 295.378 367.285 292.68 361.88C294.825 384.205 286.873 401.878 268.938 415.345C267.188 416.66 262.438 419.935 260.143 419.575C259.572 418.77 261.263 416.163 261.865 415.095C266.46 406.967 267.415 399.205 267.615 389.992C261.7 406.075 254.398 422.177 238.404 431.033C237.286 431.65 235.84 432.387 234.632 431.995C234.437 430.883 236.633 428 237.368 426.902C238.897 424.39 240.009 421.527 241.126 418.805C231.962 427.695 220.036 435.135 206.956 436.495C205.69 436.628 203.062 436.608 202.094 435.755C202.158 435.268 202.152 435.045 202.666 434.73C220.334 423.91 221.806 404.477 218.031 385.587C217.129 397.25 212.072 413.112 203.604 421.342C202.068 422.835 198.43 426.09 196.067 426.068C195.57 426.048 194.88 425.685 194.866 425.115C194.715 418.925 195.185 413.992 193.855 407.8C190.914 394.105 182.04 383.913 172.84 373.978C172.813 374.743 172.742 375.503 172.627 376.258C171.437 384.128 168.33 394.595 161.67 399.467C160.935 397.603 160.53 394.825 160.035 392.793C159.302 389.888 158.374 387.033 157.255 384.253C155.122 378.927 152.546 374.182 150.149 369.017C144.921 357.752 141.069 347.702 138.476 335.585C138.054 339.107 138.208 343.56 138.324 347.337C138.448 351.387 139.586 356.878 139.192 361.008C139.165 361.298 138.987 361.287 138.668 361.427C137.439 360.965 136.172 359.592 135.284 358.635C120.333 342.467 114.598 319.31 116.688 297.737C117.299 291.445 118.619 285.333 119.932 279.225C115.878 286.468 112.836 296 110.304 303.858C109.255 307.113 107.569 311.238 107.017 314.508C106.379 311.195 105.582 307.908 105.13 304.587C103.124 289.862 106.042 276.083 111.291 262.315C99.4785 277.92 94.4753 299.612 103.569 317.533C104.155 318.688 104.735 319.825 105.356 320.962C107.117 318.917 110.316 312.72 111.856 310.015C111.264 319.228 109.376 328.568 110.308 337.828C110.456 339.298 111.074 343.777 110.448 344.785L109.845 344.92C108.652 344.54 108.16 344.113 107.265 343.228C96.4833 332.553 89.3968 316.997 86.346 302.302C84.884 295.26 84.5905 288.853 84.466 281.785C79.6245 287.065 76.3888 293.013 72.6803 299.095C71.8238 300.5 68.7843 305.803 67.0628 305.453C65.251 302.963 64.9325 297.305 64.6958 294.185C63.525 278.753 66.2025 265.215 70.8073 250.56C68.6293 252.67 54.269 268.095 52.7338 268.165L52.332 267.72C52.125 266.505 52.2283 264.978 52.4 263.763C55.2828 243.396 68.894 216.508 85.1393 203.822C80.5125 205.351 62.291 209.447 59.4175 205.353L59.5533 204.792C61.2588 203.257 66.015 200.485 68.2775 198.849C75.7078 193.475 82.7683 187.738 90.764 183.228C93.302 181.796 95.4638 180.315 98.2298 179.243C95.0323 179.27 75.1688 177.783 76.261 173.72C78.866 172.422 82.6063 171.476 85.4135 170.452C89.955 168.796 94.4863 167.124 98.9955 165.38C107.831 173.192 116.573 179.915 128.821 181.186L127.556 180.495C110.163 170.912 92.4653 154.881 87.1985 135.206C81.8183 115.108 87.5335 92.07 97.3733 74.3455C107.009 57.2878 120.864 42.9908 137.611 32.8258C141.975 30.1923 145.893 27.9355 150.834 26.5178Z" fill="#000100"/>
<path d="M319.545 229.898C319.793 230.416 320.728 237.119 321.015 238.43C322.87 246.896 325.712 255.605 329.932 263.198C332.415 267.71 335.9 271.193 339.24 274.975C342.48 278.643 348.67 281.47 350.59 285.665C353.155 291.273 344.74 294.235 341.723 297.547C339.325 300.18 338.175 301.982 336.612 305.332C336.835 299.305 338.197 297.122 340.932 291.902C339.507 292.17 335.875 293.32 334.297 293.842C328.742 295.677 323.698 293.005 318.263 290.967C318.88 292.275 319.568 294.2 319.94 295.545C320.945 299.17 320.448 301.3 318.595 304.367C311.79 315.64 312.35 315.723 299.517 318.828C292.887 320.433 285.15 322.105 278.763 318.467C275.268 316.478 273.362 313.243 272.435 309.473C273.297 306.783 274.975 304.138 276.345 301.63C268.165 305.89 266.317 309.878 262.96 318.105C262.28 313.21 264.755 302.342 267.003 297.8C267.833 296.122 271.212 290.718 271.125 289.698C270.408 289.62 270.418 289.82 269.635 290.328C265.333 293.178 262.352 296.14 259.172 300.133C260.782 293.558 263.538 287.318 267.315 281.7C262.285 284.095 258.975 287.125 254.902 290.793C255.072 281.255 258.225 274.205 264.068 266.805C265.725 264.707 268.647 260.89 269.867 258.61L270.022 258.315C270.977 261.75 271.398 267.232 271.63 270.83C275.875 264.615 277.002 256.788 274.685 249.628C272.465 242.893 270.99 242.86 270.145 234.884C274.675 241.818 277.44 245.403 285.695 248.167C282.438 241.114 281.778 238.54 282.473 230.899C289.888 242.47 299.182 250.522 312.71 254.125C310.25 248.31 308.022 241.999 307.617 235.692C311.112 241.177 313.47 243.598 318.73 247.098C317.778 240.734 317.735 236.039 319.545 229.898Z" fill="white"/>
<path d="M291.307 283.08C296.335 282.555 302.815 284.85 306.89 287.717C311.668 291.08 317.635 296.887 315.04 303.337C314.938 303.592 314.415 303.512 314.17 303.52C311.455 302.35 307.223 300.4 304.323 301.108C293.46 303.753 289.415 294.175 290.092 285.145C290.172 284.087 290.422 283.742 291.307 283.08Z" fill="#000100"/>
<path d="M296.585 270.1C306.205 269.575 315.127 276.01 323.677 279.458C328.937 281.575 332.463 281.218 337.513 278.945C333.073 283.803 330.068 285.268 323.445 284.285C319.348 283.283 316.2 281.793 312.465 279.89C301.015 274.06 294.147 272.175 281.642 276.143C287.11 272.293 289.787 270.678 296.585 270.1Z" fill="#000100"/>
<path d="M258.86 139.588C271.255 136.771 277.112 136.129 289.675 139.381C286.207 139.925 282.243 140.595 278.885 141.562C296.48 144.891 311.04 154.924 323.135 167.753C325.14 169.88 327.035 172.173 329.043 174.252C324.605 172.518 321.918 171.752 317.635 169.334C314.885 167.78 311.288 165.016 308.753 163.747C315.55 170.771 319.59 176.773 324.402 185.381C329.732 194.916 335.472 207.226 342.925 215.354C335.817 212.615 330.935 209.621 325.538 204.081C325.33 215.719 325.958 221.874 331.105 232.598C322.765 225.009 320.44 218.56 318.41 207.908C316.275 216.348 315.58 220.45 311.46 228.311C314.132 207.644 310.335 190.402 294.8 175.501C302.202 191.025 303.202 194.58 303.71 211.688C302.237 206.78 300.575 201.461 298.325 196.849C293.653 187.277 285.248 178.045 276.795 171.612C272.623 168.436 268.49 166.096 264.177 162.685C271.657 175.341 274.353 184.555 273.665 199.497C273.48 203.542 273.13 208.093 272.11 212.027C272.05 212.262 271.985 212.497 271.92 212.731C266.075 187.673 247.428 186.127 240.173 164.761C236.291 175.194 236.617 182.22 241.153 192.665C232.785 186.348 224.627 180.063 220.266 170.144C216.284 161.088 217.002 155.023 222.314 146.934C220.416 160.131 223.879 166.454 231.9 176.492C228.83 164.435 231.925 155.561 238.953 145.614C244.397 152.95 248.179 157.311 256.745 161.456C255.34 158.267 254.27 154.856 253.238 151.526C268.405 156.873 275.89 161.078 287.587 171.78C281.685 161.17 275.292 154.467 264.685 148.321C263.085 147.393 260.785 146.056 259.075 145.484L259.147 145.333C261.112 145.441 262.893 146.084 264.785 146.46C273.725 148.238 284.893 152.122 292.515 157.261L293.42 156.74C284.84 147.073 271.697 140.8 258.86 139.588Z" fill="white"/>
<path d="M293.42 156.74L296.052 159.615L292.515 157.26L293.42 156.74Z" fill="#000100"/>
<path d="M138.71 38.9918C138.723 39.0533 138.837 39.4753 138.815 39.5138C127.677 59.377 119.354 82.5148 122.589 105.601C123.835 114.491 128.06 125.717 133.607 132.885C144.497 146.957 162.139 155.118 179.522 157.352C184.327 157.97 189.433 158.01 194.253 157.992C187.367 162.02 183.394 162.547 175.597 162.477C182.443 165.055 190.496 164.866 197.613 163.792C189.385 167.544 184.934 168.719 176.077 168.309C185.125 171.937 190.88 170.72 199.706 170.596C182.888 175.786 170.856 173.643 154.668 168.011C154.045 167.779 153.425 167.538 152.81 167.288C134.84 159.977 120.58 148.405 112.874 130.256C113.88 137.611 117.076 144.464 120.529 150.914C108.339 139.049 103.451 122.924 104.109 106.271C104.741 90.2913 109.811 77.9198 117.702 64.2595C111.53 69.7968 106.434 77.113 102.775 84.492C101.563 86.9353 100.614 89.4473 99.325 91.838L99.3913 91.522C104.623 67.3668 118.402 52.017 138.71 38.9918Z" fill="white"/>
<path d="M375.203 78.5457C389.278 94.1217 399.235 115.214 398.668 136.655C397.938 164.156 377.672 183.08 352.247 190.333L351.3 189.811C359.587 186.85 364.975 183.241 371.95 177.889C369.253 178.679 366.73 180.512 364.155 181.666C356.892 184.919 349.143 186.957 341.233 187.817C339.598 187.995 337.6 188.196 336.022 188.491C334.52 186.108 332.98 183.75 331.402 181.417C334.052 182.43 340.268 184.569 343.408 184.085C343.933 184.004 344.03 183.471 344.142 183.088C343.59 180.593 338.82 176.51 337.03 174.134C335.645 172.298 334.818 171.391 333.513 169.24C350.7 165.61 361.472 158.22 371.557 143.64C381.957 128.609 381.835 108.142 378.105 90.7002C377.203 86.6335 376.238 82.5812 375.203 78.5457Z" fill="white"/>
<path d="M389.543 127.88L389.8 128.089C390.805 130.081 390.887 140.085 390.777 142.399C390.185 154.669 381.947 161.539 373.242 169.07C372.987 169.324 373.152 169.21 372.71 169.346C372.787 168.854 375.94 164.222 376.51 163.281C384.905 149.399 388.163 144.147 389.543 127.88Z" fill="#000100"/>
<path d="M143.863 182.863C156.264 182.995 167.7 188.427 178.92 193.217C169.408 193.413 159.743 190.781 150.453 190.835C138.646 190.903 128.885 194.781 120.683 203.215C125.256 203.207 133.297 203.77 137.566 205.169C135.55 207.027 131.952 209.145 129.535 210.697C134.387 211.664 138.481 212.439 143.197 213.866C141.846 214.774 140.928 215.548 139.679 216.599C142.664 218.177 145.108 218.783 148.304 219.789C149.64 221.45 150.033 222.142 151.783 223.342C152.445 223.662 153.115 223.962 153.795 224.242C159.921 226.716 166.713 224.004 172.447 221.628C154.482 239.115 133.306 225.828 117.368 213.153C119.809 212.01 122.688 210.428 125.123 209.173C120.984 208.659 115.157 208.516 111.47 206.628C108.366 205.039 115.478 197.561 116.963 195.792C124.271 187.083 132.577 183.533 143.863 182.863Z" fill="white"/>
<path d="M195.624 220.689L195.882 221.123C194.674 230.2 194.486 236.691 195.755 245.759C196.515 251.19 195.219 257.988 193.767 263.323C202.142 255.683 204.949 249.383 207.899 238.753C208.394 241.352 208.841 244.869 208.546 247.477C207.344 258.085 203.273 264.268 206.443 275.293C208.753 273 210.486 270.088 212.572 267.575C214.825 264.863 217.195 262.472 219.454 259.742C214.311 272.385 211.381 283.97 213.314 297.733C213.844 301.505 214.353 304.515 215.71 308.15C209.298 301.285 206.931 295.552 205.283 286.307C204.988 283.177 204.199 279.27 203.575 276.198C199.58 286.425 199.229 291.535 200.826 302.547C199.773 301.085 198.766 299.7 197.842 298.15C190.158 285.252 199.026 273.662 202.079 261.432C194.927 267.7 191.859 272.502 181.88 275.05C188.741 266.49 190.418 255.665 190.555 245.057C186.641 251.127 184.796 253.3 179.285 257.957C180.91 254.27 183.268 250.075 184.684 246.388C188.179 237.289 191.169 229.437 195.624 220.689Z" fill="white"/>
<path d="M165.905 239.508C165.867 240.012 163.61 244.981 163.155 246.009C161.302 250.197 160.469 254.355 159.01 258.62C162.798 254.79 166.733 251.11 170.808 247.59C163.713 260.938 162.86 277.728 167.065 292.062C167.645 294.037 168.306 296.722 169.369 298.425L169.707 298.348C170.235 290.528 172.878 283.863 176.376 277.008C175.488 288.048 174.692 294.575 174.771 305.865C175.009 310.285 175.372 315.157 175.291 319.547C159.921 301.547 155.078 285.21 162.402 261.93C160.479 263.955 152.1 275.46 150.199 274.41C149.765 273.045 150.877 269.03 151.169 267.5C153.345 256.112 157.859 247.82 165.905 239.508Z" fill="white"/>
<path d="M316.135 325.353C316.29 325.33 316.445 325.313 316.6 325.3C321.898 324.81 325.707 326.145 329.71 329.48C329.555 330.093 329.395 330.703 329.228 331.313C327.01 339.308 321.118 343.57 314.163 347.53C315.873 344.798 316.458 343.138 317.1 340.013C314.68 340.395 311.59 341.58 309.217 342.448C304.865 344.035 302.142 344.855 297.555 345.428C299.31 344.043 301.193 342.208 302.853 340.665C300.278 341.353 298.372 341.773 295.747 342.253C294.055 342.29 292.9 342.41 291.21 342.62C292.217 341.853 294.58 340.298 294.67 339.063C293.463 338.768 290.025 339.185 288.245 339.08C285.477 338.915 283.688 338.603 280.97 338.135C285.678 337.115 286 337.348 290.793 335.003C284.62 334.838 279.417 334.645 276.93 328.138C288.422 333.848 303.52 326.735 316.135 325.353Z" fill="white"/>
<path d="M92.6897 222.953C92.6917 223.188 89.4035 231.579 88.9827 232.673C85.8517 240.809 86.1235 248.477 85.124 256.89C87.6637 254.085 89.9565 251.18 92.599 248.373C97.5772 243.085 102.487 239.062 108.225 234.685C103.792 241.64 100.239 246.998 95.178 253.585C88.5697 261.695 82.6512 270.415 75.972 278.215C75.832 272.832 75.656 267.675 76.149 262.302C77.474 247.865 82.9495 233.785 92.6897 222.953Z" fill="white"/>
<path d="M239.157 284.965C239.64 285.567 238.397 291.827 238.219 293.08C236.425 305.722 238.876 311.932 241.829 323.362C244.805 312.412 245.196 307.66 251.128 297.233C249.078 305.9 248.675 314.142 250.928 322.81C252.155 326.945 253.193 329.55 255.045 333.42C250.2 329.365 248.689 327.76 245.493 322.198C244.071 325.338 243.476 328.733 241.854 331.698C230.321 315.15 230.395 302.605 239.157 284.965Z" fill="white"/>
<path d="M213.611 213.893C215.516 214.518 217.433 215.103 219.362 215.648C219.736 222.981 221.531 228.051 230.019 229.149C234.448 229.722 237.505 227.54 240.804 224.824C244.625 227.817 245.689 230.407 247.337 234.838C247.571 235.876 247.934 237.046 248.226 238.083C242.51 236.227 239.203 236.527 233.374 236.666C228.34 236.786 222.303 235.739 218.665 231.964C213.501 226.606 213.56 220.731 213.611 213.893Z" fill="white"/>
<path d="M184.592 311.422C184.843 311.65 184.97 311.865 185.011 312.225C185.451 316.063 186.037 319.9 187.231 323.59C188.784 328.39 191.991 332.348 194.568 336.635C194.204 329.263 194.152 325.793 195.999 318.575C196.867 325.688 195.53 327.445 198.57 335.573C200.271 339.8 202.401 343.235 205.068 346.902C198.183 344.237 193.97 341.987 189.299 335.875C184.651 329.795 183.333 318.9 184.592 311.422Z" fill="white"/>
<path d="M344.983 303.793C347.908 303.683 348.723 304.065 351.513 305.027C349.958 311.39 345.232 316.72 339.93 320.34L337.483 321.56C336.368 321.275 335.145 321.022 334.445 320.11C334.615 318.682 335.717 317.52 336.155 316.2C337.892 310.938 338.57 305.138 344.983 303.793Z" fill="white"/>
<path d="M281.05 186.903C281.43 187.093 281.445 187.107 281.733 187.414C290.923 197.215 288.103 210.787 287.408 222.947L287.182 223.349L286.892 223.309C281.217 213.66 282.5 210.885 282.462 200.535C282.47 195.954 281.995 191.385 281.05 186.903Z" fill="white"/>
<path d="M179.748 358.457C179.908 358.562 180.059 358.657 180.191 358.797C188.204 367.437 194.358 381.535 195.243 393.055C194.589 392.592 192.845 389.265 192.348 388.33C187.103 378.46 182.338 369.372 179.748 358.457Z" fill="white"/>
<path d="M250.688 359.92L250.997 360.28C251.167 361.652 250.825 364.778 250.663 366.25C249.49 376.702 242.383 385.732 234.408 392.122C235.767 388.86 237.056 386.205 238.344 382.81C240.189 377.757 240.028 371.26 240.116 365.842C241.798 370.832 242.609 374.763 241.986 380.01C247.343 372.263 248.554 369.108 250.688 359.92Z" fill="white"/>
<path d="M247.683 187.485C250.258 189.387 253.512 192.477 255.542 194.912C263.07 203.946 263.81 211.503 262.967 222.566L262.58 222.499C260.475 212.035 259.167 207.688 253.42 198.451C252.05 196.252 248.438 189.872 247.683 187.485Z" fill="white"/>
<path d="M182.583 199.19L182.809 199.413C182.733 200.185 180.669 202.977 180.051 204.258C178.618 207.223 177.862 209.341 177.075 212.539C179.264 209.43 180.71 207.557 183.199 204.746C180.578 211.664 179.767 214.289 178.327 221.688C177.987 223.016 177.829 224.33 177.635 225.685C176.278 222.333 175.058 219.669 174.277 216.082C172.951 216.309 171.598 216.51 170.267 216.721C173.561 209.363 177.031 204.883 182.583 199.19Z" fill="white"/>
<path d="M262.668 378.953L262.908 379.38C261.578 388.48 251.02 402.085 244.676 409.085C244.102 408.557 244.507 407.105 244.723 406.397C247.981 395.742 257.018 388.265 262.668 378.953Z" fill="white"/>
<path d="M150.956 302.128C151.134 302.268 151.415 302.49 151.435 302.75C151.945 309.052 153.133 315.35 154.984 321.39C155.943 324.52 161.904 336.74 159.962 339.315C151.25 327.215 149.078 316.795 150.956 302.128Z" fill="white"/>
<path d="M135.878 265.177C136.223 266.535 135.861 270.13 135.698 271.55C135.476 273.457 135.139 275.347 134.69 277.215C133.68 281.497 132.204 285.955 131.082 290.237C130.639 291.93 128.883 299.957 128.039 300.622C125.616 287.432 131.578 276.92 135.878 265.177Z" fill="white"/>
<path d="M285.587 369.177C285.835 370.262 285.685 373.283 285.66 374.538C285.465 383.948 282.51 389.865 277.672 397.603C278.69 393.068 278.902 388.723 278.99 384.095C278.862 378.95 277.645 373.642 276.073 368.767C279.215 373 281.16 377.375 281.97 382.562C282.955 378.847 284.49 372.425 285.587 369.177Z" fill="white"/>
<path d="M222.841 207.335C227.4 206.577 232.401 207.74 236.151 210.419C239.158 212.567 240.754 215.36 242.54 218.476L239.621 216.303C236.848 214.572 233.282 212.781 230.097 212.016C224.576 210.69 223.188 211.663 218.385 208.232C220.061 207.799 221.127 207.596 222.841 207.335Z" fill="white"/>
<path d="M201.706 139.355C203.978 139.206 206.163 139.286 208.434 139.335C205.515 140.379 202.49 141.214 199.607 142.316C195.401 143.922 191.195 145.771 187.056 147.556L182.084 149.434C187.083 143.673 194.112 140.063 201.706 139.355Z" fill="white"/>
<path d="M293.573 213.676C294.48 220.091 294.933 223.918 297.193 230.214C297.768 231.81 300.843 239.529 301.003 240.351L300.683 240.346C296.42 235.511 292.97 230.98 292.503 224.268C292.283 221.077 292.46 216.678 293.573 213.676Z" fill="white"/>
<path d="M254.837 258.422C255.07 259.155 254.78 261.335 254.655 262.17C253.6 269.245 247.441 273.433 241.39 275.723C241.194 275.04 242.864 273.812 243.438 273.297C248.302 268.925 251.852 264.2 254.837 258.422Z" fill="white"/>
<path d="M228.58 353.87C229.587 354.767 229.934 356.905 230.006 358.25C230.322 364.17 226.907 368.418 223.184 372.545L222.727 372.793C222.7 371.94 224.738 368.12 225.192 366.948C226.925 362.475 228.082 358.685 228.58 353.87Z" fill="white"/>
<path d="M213.942 176.977C214.178 177.629 213.287 181.85 213.078 182.847C212.153 187.257 212.851 190.308 212.912 194.272L212.702 194.309L212.262 193.509C209.232 186.508 208.227 182.936 213.942 176.977Z" fill="white"/>
<path d="M225.602 215.687C226.784 215.307 228.059 215.908 228.518 217.061C228.977 218.215 228.463 219.526 227.343 220.062C226.548 220.442 225.608 220.347 224.905 219.817C224.202 219.287 223.852 218.409 223.999 217.54C224.146 216.672 224.764 215.957 225.602 215.687Z" fill="white"/>
<path d="M352.247 190.333C351.185 190.622 349.525 191.145 348.51 190.783C349.073 190.249 350.475 190.017 351.3 189.811L352.247 190.333Z" fill="#BCBCBB"/>
</g>
<defs>
<clipPath id="clip0_16_130">
<rect width="455" height="455" fill="white"/>
</clipPath>
</defs>
</svg>
