<svg width="203" height="62" viewBox="0 0 203 62" fill="none" xmlns="http://www.w3.org/2000/svg">
<path d="M45.0287 35.0371C45.2269 34.9718 45.5241 34.9392 45.9204 34.9392C47.0432 34.9392 47.6046 35.6569 47.6046 37.0923C47.6046 37.8753 47.423 38.5441 47.0597 39.0987C46.7295 39.6206 46.2011 39.9469 45.4746 40.0773C42.4693 40.6319 39.5137 41.2518 36.6075 41.9369L36.4589 43.1113C35.5342 49.538 33.6849 54.2847 30.9108 57.3512C28.1698 60.4504 24.7353 62 20.6072 62C17.8662 62 15.7361 61.3312 14.217 59.9937C12.7309 58.6888 11.9878 57.0087 11.9878 54.9534C11.9878 51.528 13.54 48.4778 16.6443 45.8027C19.7486 43.1276 24.4545 40.7624 30.7622 38.7072L31.7529 31.8074C31.885 31.0245 32.0502 29.9805 32.2483 28.6756C30.6962 32.7209 28.7147 35.7385 26.3039 37.7285C23.8931 39.7185 21.2016 40.7135 18.2295 40.7135C15.3894 40.7135 13.2263 39.8653 11.7402 38.1689C10.2541 36.4399 9.51102 34.2215 9.51102 31.5138C9.51102 30.3068 9.64312 28.9855 9.90731 27.5501C10.1715 26.0821 10.5843 24.1084 11.1457 21.629C11.6411 19.3781 12.0044 17.5838 12.2355 16.2463C12.4997 14.9087 12.6318 13.718 12.6318 12.674C12.6318 11.1081 12.0209 10.3252 10.799 10.3252C9.84126 10.3252 8.70192 10.7982 7.38095 11.7443C6.093 12.6577 4.72248 14.0768 3.26941 16.0016C2.80707 16.6214 2.29519 16.9313 1.73378 16.9313C1.27144 16.9313 0.858634 16.7193 0.495366 16.2952C0.165122 15.8385 0 15.3328 0 14.7782C0 13.7669 0.462341 12.6251 1.38702 11.3528C4.75551 6.78558 8.70192 4.50197 13.2263 4.50197C15.2407 4.50197 16.8094 5.1055 17.9322 6.31255C19.0881 7.5196 19.666 9.29755 19.666 11.6464C19.666 13.3428 19.5009 15.0881 19.1706 16.8824C18.8734 18.644 18.4111 20.895 17.7836 23.6354C17.3873 25.2665 17.0901 26.5877 16.892 27.5991C16.6938 28.5777 16.5947 29.3933 16.5947 30.0458C16.5947 31.7095 16.892 32.9003 17.4864 33.618C18.0808 34.3357 19.1211 34.6946 20.6072 34.6946C22.3905 34.6946 24.2069 33.7322 26.0562 31.8074C27.9386 29.85 29.6229 26.8977 31.109 22.9503C32.6281 19.0029 33.7179 14.1747 34.3784 8.46567C34.5435 7.03026 34.9233 6.01894 35.5177 5.43173C36.1121 4.81189 36.9708 4.50197 38.0936 4.50197C40.4053 4.50197 41.5612 5.64378 41.5612 7.92739C41.5612 8.31886 41.5447 8.62878 41.5116 8.85714C40.8181 13.718 40.1741 18.1058 39.5797 22.0205C39.2495 24.3694 38.8862 26.7835 38.4899 29.2628C38.1266 31.7422 37.7634 34.2541 37.4001 36.7987C39.8109 36.1463 42.3538 35.5591 45.0287 35.0371ZM30.0192 43.8453C22.0273 46.5856 18.0313 49.9132 18.0313 53.8279C18.0313 54.7414 18.312 55.4917 18.8734 56.0789C19.4679 56.6988 20.2935 57.0087 21.3503 57.0087C25.9406 57.0087 28.8138 52.7351 29.9696 44.1878L30.0192 43.8453Z" fill="white"/>
<path d="M50.1716 46.2431C48.1241 46.2431 46.4894 45.5091 45.2675 44.041C44.0456 42.573 43.4347 40.6482 43.4347 38.2668C43.4347 35.6569 44.0456 33.1939 45.2675 30.8777C46.4894 28.5288 48.1076 26.653 50.1221 25.2502C52.1696 23.8148 54.3327 23.0971 56.6114 23.0971C57.3379 23.0971 57.8168 23.2439 58.0479 23.5375C58.3121 23.7985 58.5268 24.2878 58.6919 25.0055C59.3854 24.875 60.112 24.8098 60.8715 24.8098C62.4897 24.8098 63.2988 25.3807 63.2988 26.5225C63.2988 27.2076 63.0511 28.8387 62.5558 31.4159C61.7962 35.1676 61.4164 37.7774 61.4164 39.2455C61.4164 39.7348 61.532 40.1263 61.7632 40.4199C62.0274 40.7135 62.3576 40.8603 62.7539 40.8603C63.3814 40.8603 64.1409 40.4688 65.0326 39.6859C65.9243 38.8703 67.1296 37.5654 68.6488 35.7711C69.0451 35.3144 69.4909 35.086 69.9862 35.086C70.4156 35.086 70.7458 35.2818 70.977 35.6732C71.2412 36.0647 71.3733 36.603 71.3733 37.2881C71.3733 38.593 71.0595 39.6043 70.4321 40.322C69.0781 41.9858 67.6415 43.3886 66.1224 44.5304C64.6033 45.6722 63.1337 46.2431 61.7136 46.2431C60.6238 46.2431 59.6166 45.8842 58.6919 45.1665C57.8003 44.4162 57.1233 43.4049 56.6609 42.1326C54.9436 44.8729 52.7806 46.2431 50.1716 46.2431ZM51.9549 41.3007C52.6815 41.3007 53.375 40.8766 54.0355 40.0284C54.696 39.1802 55.1748 38.0547 55.472 36.6519L57.3049 27.648C55.9179 27.6806 54.6299 28.2026 53.441 29.2139C52.2852 30.1926 51.3605 31.4975 50.667 33.1286C49.9735 34.7598 49.6267 36.4888 49.6267 38.3157C49.6267 39.327 49.8249 40.0773 50.2212 40.5667C50.6505 41.056 51.2284 41.3007 51.9549 41.3007Z" fill="white"/>
<path d="M88.4003 40.9092C89.7543 41.1702 90.4313 41.9042 90.4313 43.1113C90.4313 43.9269 90.0515 44.6609 89.292 45.3133C88.5654 45.9332 87.5086 46.2431 86.1216 46.2431C83.7439 46.2431 81.7954 45.5254 80.2763 44.09C78.7902 42.6219 78.0472 40.7135 78.0472 38.3646C78.0472 37.0923 78.7076 36.1789 80.0286 35.6243C81.4817 35.0045 82.522 34.352 83.1494 33.6669C83.7769 32.9492 84.0906 32.0847 84.0906 31.0734C84.0906 30.4862 83.9585 30.0458 83.6943 29.7522C83.4632 29.4586 83.1659 29.3118 82.8027 29.3118C81.911 29.3118 80.9203 29.9479 79.8305 31.2202C78.7737 32.4925 77.783 34.14 76.8583 36.1626C75.9336 38.1526 75.2071 40.2078 74.6787 42.3283C74.3154 43.8616 73.8861 44.9055 73.3907 45.4601C72.9284 45.9821 72.1853 46.2431 71.1616 46.2431C70.1378 46.2431 69.3783 45.8842 68.8829 45.1665C68.4206 44.4162 68.1068 43.2744 67.9417 41.7411C67.7766 40.2078 67.694 37.9569 67.694 34.9882C67.694 29.9642 68.2059 24.7282 69.2297 19.2802C70.2864 13.8321 71.8221 9.26493 73.8366 5.57853C75.8841 1.85951 78.3279 0 81.168 0C82.6871 0 83.909 0.65246 84.8337 1.95738C85.7914 3.22968 86.2702 4.89345 86.2702 6.9487C86.2702 10.2436 85.296 13.669 83.3476 17.2249C81.3991 20.7482 78.2288 24.875 73.8366 29.6054C73.7375 31.3018 73.6879 33.0471 73.6879 34.8414C75.2731 30.7635 77.0895 27.8111 79.137 25.9842C81.1845 24.1247 83.0999 23.1949 84.8832 23.1949C86.5344 23.1949 87.8554 23.7495 88.8461 24.8587C89.8699 25.9679 90.3818 27.3381 90.3818 28.9692C90.3818 30.7635 89.9194 32.4109 88.9947 33.9116C88.0701 35.4123 86.4849 36.7498 84.2392 37.9242C84.4374 38.9029 84.8337 39.588 85.4281 39.9795C86.0556 40.3383 87.0463 40.6482 88.4003 40.9092ZM80.1277 4.84452C79.5333 4.84452 78.8728 5.69271 78.1462 7.38911C77.4197 9.05288 76.7097 11.3202 76.0162 14.191C75.3557 17.0292 74.8108 20.1284 74.3815 23.4886C76.429 21.1071 78.1132 18.5135 79.4342 15.708C80.7882 12.9024 81.4652 10.3578 81.4652 8.07419C81.4652 7.03026 81.3496 6.23099 81.1184 5.6764C80.8873 5.12181 80.557 4.84452 80.1277 4.84452Z" fill="white"/>
<path d="M142.253 35.086C142.682 35.086 143.013 35.2818 143.244 35.6732C143.508 36.0647 143.64 36.603 143.64 37.2881C143.64 38.5604 143.326 39.5717 142.699 40.322C140.85 42.5078 139.05 44.041 137.299 44.9219C135.582 45.8027 133.502 46.2431 131.058 46.2431C129.341 46.2431 127.755 46.031 126.302 45.6069C124.849 45.1828 123.082 44.5467 121.002 43.6985C119.12 42.8829 117.303 42.2142 115.553 41.6922C113.869 44.7261 111.342 46.2431 107.974 46.2431C106.124 46.2431 104.655 45.8353 103.565 45.0197C102.442 44.1715 101.881 43.095 101.881 41.7901C101.881 40.1915 102.657 38.8703 104.209 37.8264C105.761 36.7498 107.825 36.2115 110.401 36.2115H111.045L111.937 21.9716C112.135 18.7093 112.729 16.0179 113.72 13.8974C114.711 11.7769 116.081 9.96633 117.832 8.46567C119.351 7.16075 121.084 6.18206 123.033 5.5296C124.981 4.84451 127.045 4.50197 129.225 4.50197C132.792 4.50197 135.533 5.41542 137.448 7.2423C139.363 9.06919 140.321 11.4507 140.321 14.3867C140.321 16.3767 139.958 17.9916 139.231 19.2313C138.505 20.4383 137.498 21.0418 136.21 21.0418C135.285 21.0418 134.558 20.8298 134.03 20.4057C133.502 19.949 133.237 19.3128 133.237 18.4972C133.237 18.2036 133.304 17.6653 133.436 16.8824C133.634 15.969 133.733 15.1534 133.733 14.4357C133.733 13.0655 133.32 11.989 132.494 11.206C131.702 10.3904 130.48 9.98263 128.829 9.98263C125.923 9.98263 123.677 10.9287 122.092 12.8208C120.507 14.6803 119.499 17.6164 119.07 21.629L117.931 32.7372C117.766 34.3031 117.551 35.6569 117.287 36.7987C119.4 37.1576 122.042 37.7285 125.213 38.5114C127.062 38.9682 128.482 39.2944 129.473 39.4901C130.463 39.6859 131.339 39.7837 132.098 39.7837C134.014 39.7837 135.648 39.4738 137.002 38.854C138.389 38.2015 139.694 37.1739 140.916 35.7711C141.312 35.3144 141.758 35.086 142.253 35.086Z" fill="white"/>
<path d="M145.713 46.2431C143.666 46.2431 142.031 45.5091 140.809 44.041C139.587 42.573 138.976 40.6482 138.976 38.2668C138.976 35.6569 139.587 33.1939 140.809 30.8777C142.031 28.5288 143.649 26.653 145.664 25.2502C147.711 23.8148 149.874 23.0971 152.153 23.0971C152.88 23.0971 153.358 23.2439 153.59 23.5375C153.854 23.7985 154.068 24.2878 154.234 25.0055C154.927 24.875 155.654 24.8098 156.413 24.8098C158.031 24.8098 158.84 25.3807 158.84 26.5225C158.84 27.2076 158.593 28.8387 158.097 31.4159C157.338 35.1676 156.958 37.7774 156.958 39.2455C156.958 39.7348 157.074 40.1263 157.305 40.4199C157.569 40.7135 157.899 40.8603 158.296 40.8603C158.923 40.8603 159.683 40.4688 160.574 39.6859C161.466 38.8703 162.671 37.5654 164.19 35.7711C164.587 35.3144 165.033 35.086 165.528 35.086C165.957 35.086 166.288 35.2818 166.519 35.6732C166.783 36.0647 166.915 36.603 166.915 37.2881C166.915 38.593 166.601 39.6043 165.974 40.322C164.62 41.9858 163.183 43.3886 161.664 44.5304C160.145 45.6722 158.675 46.2431 157.255 46.2431C156.166 46.2431 155.158 45.8842 154.234 45.1665C153.342 44.4162 152.665 43.4049 152.203 42.1326C150.485 44.8729 148.322 46.2431 145.713 46.2431ZM147.497 41.3007C148.223 41.3007 148.917 40.8766 149.577 40.0284C150.238 39.1802 150.717 38.0547 151.014 36.6519L152.847 27.648C151.46 27.6806 150.172 28.2026 148.983 29.2139C147.827 30.1926 146.902 31.4975 146.209 33.1286C145.515 34.7598 145.168 36.4888 145.168 38.3157C145.168 39.327 145.367 40.0773 145.763 40.5667C146.192 41.056 146.77 41.3007 147.497 41.3007Z" fill="white"/>
<path d="M172.697 46.2431C169.395 46.2431 166.984 44.9871 165.465 42.4751C163.979 39.9632 163.236 36.3257 163.236 31.5627C163.236 27.3544 163.764 22.7872 164.821 17.8611C165.878 12.9024 167.413 8.69403 169.428 5.23599C171.475 1.74533 173.903 0 176.71 0C178.229 0 179.451 0.65246 180.375 1.95738C181.3 3.22968 181.762 4.89345 181.762 6.9487C181.762 9.62378 181.25 12.2826 180.227 14.925C179.203 17.5675 177.502 20.3404 175.124 23.2439C176.743 23.3744 178.146 23.9127 179.335 24.8587C180.557 25.8048 181.482 27.0281 182.109 28.5288C182.77 30.0295 183.1 31.6606 183.1 33.4223C183.1 35.869 182.604 38.071 181.614 40.0284C180.656 41.9858 179.385 43.5191 177.799 44.6283C176.214 45.7048 174.514 46.2431 172.697 46.2431ZM169.775 26.5714C171.954 22.624 173.688 19.1497 174.976 16.1484C176.297 13.1144 176.957 10.423 176.957 8.07419C176.957 7.03026 176.825 6.23099 176.561 5.6764C176.33 5.12181 176 4.84452 175.57 4.84452C174.91 4.84452 174.183 5.82321 173.391 7.78059C172.631 9.70534 171.921 12.3315 171.261 15.659C170.6 18.9866 170.105 22.624 169.775 26.5714ZM172.895 40.9582C174.018 40.9582 174.959 40.3546 175.719 39.1476C176.512 37.9405 176.908 36.1789 176.908 33.8627C176.908 32.0684 176.578 30.7145 175.917 29.8011C175.257 28.8877 174.464 28.4309 173.539 28.4309C172.383 28.4309 171.409 29.0182 170.617 30.1926C169.824 31.367 169.428 33.0797 169.428 35.3307C169.428 37.2881 169.758 38.7235 170.419 39.6369C171.079 40.5178 171.905 40.9582 172.895 40.9582Z" fill="white"/>
<path d="M195.371 47.3196C193.654 47.3196 192.333 46.9282 191.408 46.1452C190.517 45.3623 190.071 44.4814 190.071 43.5028C190.071 42.6546 190.385 41.9205 191.012 41.3007C191.64 40.6809 192.564 40.371 193.786 40.371C194.216 40.371 194.711 40.4199 195.272 40.5178C195.867 40.583 196.313 40.6319 196.61 40.6646C196.577 39.8164 196.379 39.0171 196.015 38.2668C195.685 37.5164 195.256 36.7987 194.727 36.1137C194.199 35.3959 193.704 34.7761 193.241 34.2541C192.218 36.1789 191.194 37.7774 190.17 39.0497C189.179 40.322 188.09 41.5291 186.901 42.6709C186.306 43.2581 185.679 43.5517 185.018 43.5517C184.49 43.5517 184.061 43.3723 183.73 43.0134C183.4 42.6219 183.235 42.1489 183.235 41.5943C183.235 40.9419 183.466 40.3383 183.928 39.7837L184.572 39.0008C186.389 36.7824 187.759 34.9555 188.684 33.5201C189.278 32.5741 189.873 31.4486 190.467 30.1436C191.095 28.8387 191.904 27.0608 192.895 24.8098C193.522 23.3744 194.826 22.6567 196.808 22.6567C197.733 22.6567 198.377 22.7382 198.74 22.9013C199.103 23.0645 199.285 23.3254 199.285 23.6843C199.285 23.88 199.219 24.1899 199.087 24.614C198.955 25.0381 198.773 25.4622 198.542 25.8863C197.947 27.0608 197.65 28.0558 197.65 28.8713C197.65 29.3607 197.815 29.899 198.145 30.4862C198.509 31.0734 199.054 31.8074 199.78 32.6882C200.837 34.0584 201.629 35.2328 202.158 36.2115C202.719 37.1576 203 38.2015 203 39.3433C203 40.7135 202.67 42.0184 202.009 43.2581C201.382 44.4651 200.49 45.4438 199.334 46.1942C198.178 46.9445 196.857 47.3196 195.371 47.3196Z" fill="white"/>
</svg>
