<svg width="343" height="106" viewBox="0 0 343 106" fill="none" xmlns="http://www.w3.org/2000/svg">
<path d="M76.083 59.9021C76.4178 59.7906 76.92 59.7348 77.5896 59.7348C79.4868 59.7348 80.4354 60.9618 80.4354 63.4159C80.4354 64.7545 80.1285 65.8979 79.5147 66.8461C78.9567 67.7385 78.0639 68.2962 76.8363 68.5193C71.7585 69.4675 66.7645 70.5272 61.8541 71.6985L61.603 73.7064C60.0406 84.694 56.9158 92.8093 52.2286 98.0521C47.5972 103.351 41.794 106 34.8191 106C30.1877 106 26.5886 104.857 24.0218 102.57C21.5108 100.339 20.2553 97.4665 20.2553 93.9526C20.2553 88.0963 22.8779 82.8813 28.1231 78.3078C33.3683 73.7343 41.3197 69.6906 51.9775 66.1768L53.6515 54.3804C53.8747 53.0418 54.1537 51.257 54.4885 49.026C51.8659 55.9421 48.5179 61.1013 44.4445 64.5035C40.3712 67.9058 35.8235 69.6069 30.8015 69.6069C26.0027 69.6069 22.3478 68.1568 19.8368 65.2565C17.3258 62.3004 16.0703 58.5078 16.0703 53.8785C16.0703 51.8148 16.2935 49.5559 16.7399 47.1018C17.1863 44.5919 17.8838 41.2176 18.8324 36.9787C19.6694 33.1302 20.2832 30.0626 20.6738 27.7758C21.1202 25.4891 21.3434 23.4533 21.3434 21.6685C21.3434 18.9913 20.3111 17.6527 18.2465 17.6527C16.6283 17.6527 14.7032 18.4615 12.4713 20.0789C10.2951 21.6406 7.97937 24.0668 5.52418 27.3575C4.74298 28.4173 3.87809 28.9471 2.92949 28.9471C2.14829 28.9471 1.45079 28.5846 0.836997 27.8595C0.278999 27.0787 0 26.2142 0 25.266C0 23.537 0.781197 21.5848 2.34359 19.4096C8.03517 11.6012 14.7032 7.69692 22.3478 7.69692C25.7516 7.69692 28.4021 8.72875 30.2993 10.7924C32.2523 12.8561 33.2288 15.8958 33.2288 19.9116C33.2288 22.8119 32.9498 25.7958 32.3918 28.8635C31.8896 31.8753 31.1084 35.7238 30.0482 40.4088C29.3786 43.1976 28.8764 45.4565 28.5416 47.1855C28.2068 48.8587 28.0394 50.2531 28.0394 51.3686C28.0394 54.2131 28.5416 56.2489 29.546 57.4759C30.5504 58.703 32.3081 59.3165 34.8191 59.3165C37.8323 59.3165 40.9013 57.6711 44.026 54.3804C47.2066 51.0339 50.0524 45.9863 52.5634 39.2376C55.1302 32.4888 56.9716 24.2342 58.0876 14.4736C58.3666 12.0195 59.0083 10.2904 60.0127 9.2865C61.0171 8.22678 62.4679 7.69692 64.3651 7.69692C68.2711 7.69692 70.224 9.64904 70.224 13.5533C70.224 14.2226 70.1961 14.7524 70.1403 15.1429C68.9685 23.4533 67.8805 30.955 66.8761 37.648C66.3181 41.6638 65.7043 45.7911 65.0347 50.03C64.4209 54.2689 63.8071 58.5635 63.1933 62.914C67.2667 61.7985 71.5632 60.7945 76.083 59.9021ZM50.722 74.9613C37.2185 79.6464 30.4667 85.3354 30.4667 92.0284C30.4667 93.5901 30.941 94.8729 31.8896 95.8769C32.894 96.9366 34.289 97.4665 36.0746 97.4665C43.8307 97.4665 48.6853 90.16 50.6383 75.547L50.722 74.9613Z" fill="white"/>
<path d="M84.7727 79.0608C81.3132 79.0608 78.5511 77.8058 76.4865 75.296C74.4219 72.7861 73.3896 69.4954 73.3896 65.4238C73.3896 60.9619 74.4219 56.7509 76.4865 52.7908C78.5511 48.7751 81.2853 45.568 84.689 43.1697C88.1486 40.7156 91.8035 39.4886 95.6537 39.4886C96.8813 39.4886 97.6904 39.7395 98.081 40.2415C98.5274 40.6877 98.8901 41.5243 99.1691 42.7514C100.341 42.5283 101.568 42.4167 102.852 42.4167C105.586 42.4167 106.953 43.3928 106.953 45.3449C106.953 46.5162 106.535 49.3049 105.698 53.7111C104.414 60.1252 103.773 64.5872 103.773 67.0971C103.773 67.9337 103.968 68.603 104.358 69.105C104.805 69.6069 105.363 69.8579 106.032 69.8579C107.093 69.8579 108.376 69.1886 109.883 67.85C111.389 66.4557 113.426 64.2247 115.993 61.1571C116.662 60.3762 117.416 59.9858 118.253 59.9858C118.978 59.9858 119.536 60.3204 119.927 60.9897C120.373 61.659 120.596 62.5793 120.596 63.7506C120.596 65.9816 120.066 67.7106 119.006 68.9376C116.718 71.7822 114.291 74.1805 111.724 76.1326C109.157 78.0847 106.674 79.0608 104.275 79.0608C102.433 79.0608 100.731 78.4472 99.1691 77.2202C97.6625 75.9374 96.5186 74.2084 95.7374 72.0331C92.8358 76.7182 89.1809 79.0608 84.7727 79.0608ZM87.7859 70.6109C89.0135 70.6109 90.1853 69.8858 91.3013 68.4357C92.4173 66.9855 93.2264 65.0613 93.7286 62.663L96.8255 47.2691C94.4819 47.3249 92.3057 48.2173 90.2969 49.9463C88.3439 51.6196 86.7815 53.8506 85.6097 56.6393C84.438 59.428 83.8521 62.3841 83.8521 65.5075C83.8521 67.2365 84.1868 68.5193 84.8564 69.356C85.5818 70.1926 86.5583 70.6109 87.7859 70.6109Z" fill="white"/>
<path d="M149.366 69.9416C151.654 70.3878 152.798 71.6427 152.798 73.7064C152.798 75.1008 152.156 76.3557 150.873 77.4712C149.645 78.5309 147.859 79.0608 145.516 79.0608C141.498 79.0608 138.206 77.8337 135.639 75.3796C133.128 72.8698 131.873 69.6069 131.873 65.5912C131.873 63.4159 132.989 61.8542 135.221 60.9061C137.676 59.8464 139.434 58.7309 140.494 57.5596C141.554 56.3325 142.084 54.8545 142.084 53.1255C142.084 52.1215 141.861 51.3686 141.415 50.8666C141.024 50.3646 140.522 50.1137 139.908 50.1137C138.401 50.1137 136.727 51.2013 134.886 53.3765C133.1 55.5517 131.426 58.3683 129.864 61.8264C128.302 65.2286 127.074 68.7424 126.181 72.3678C125.567 74.9892 124.842 76.774 124.005 77.7222C123.224 78.6146 121.968 79.0608 120.239 79.0608C118.509 79.0608 117.225 78.4472 116.388 77.2202C115.607 75.9374 115.077 73.9853 114.798 71.3638C114.519 68.7424 114.38 64.894 114.38 59.8185C114.38 51.2291 115.244 42.2773 116.974 32.9629C118.76 23.6485 121.355 15.84 124.758 9.53749C128.218 3.17916 132.347 0 137.146 0C139.713 0 141.777 1.1155 143.34 3.34649C144.958 5.5217 145.767 8.36622 145.767 11.88C145.767 17.5133 144.121 23.3696 140.829 29.4491C137.536 35.4728 132.18 42.5283 124.758 50.6156C124.591 53.5159 124.507 56.4999 124.507 59.5675C127.186 52.5956 130.255 47.548 133.714 44.4246C137.174 41.2455 140.41 39.6559 143.423 39.6559C146.213 39.6559 148.445 40.604 150.119 42.5004C151.849 44.3967 152.714 46.7393 152.714 49.528C152.714 52.5956 151.933 55.4123 150.37 57.9779C148.808 60.5435 146.13 62.8303 142.335 64.8382C142.67 66.5114 143.34 67.6827 144.344 68.352C145.404 68.9655 147.078 69.4954 149.366 69.9416ZM135.388 8.28256C134.384 8.28256 133.268 9.7327 132.04 12.633C130.813 15.4775 129.613 19.3539 128.441 24.262C127.325 29.1144 126.404 34.413 125.679 40.1579C129.139 36.0863 131.984 31.6522 134.216 26.8556C136.504 22.0589 137.648 17.7085 137.648 13.8043C137.648 12.0195 137.453 10.653 137.062 9.70481C136.672 8.75664 136.114 8.28256 135.388 8.28256Z" fill="white"/>
<path d="M240.359 59.9858C241.084 59.9858 241.642 60.3204 242.033 60.9897C242.479 61.659 242.702 62.5793 242.702 63.7506C242.702 65.9258 242.172 67.6548 241.112 68.9376C237.987 72.6746 234.946 75.296 231.989 76.8019C229.087 78.3078 225.572 79.0608 221.443 79.0608C218.541 79.0608 215.863 78.6982 213.407 77.9732C210.952 77.2481 207.967 76.1605 204.452 74.7103C201.271 73.316 198.202 72.1726 195.245 71.2802C192.399 76.4672 188.13 79.0608 182.439 79.0608C179.314 79.0608 176.831 78.3636 174.989 76.9692C173.092 75.5191 172.143 73.6785 172.143 71.4475C172.143 68.7145 173.455 66.4557 176.077 64.6709C178.7 62.8303 182.187 61.91 186.54 61.91H187.628L189.134 37.5643C189.469 31.9868 190.474 27.3854 192.148 23.7601C193.822 20.1347 196.137 17.0392 199.095 14.4736C201.662 12.2426 204.591 10.5693 207.883 9.45383C211.175 8.28256 214.663 7.69692 218.346 7.69692C224.372 7.69692 229.003 9.25862 232.24 12.382C235.476 15.5054 237.094 19.577 237.094 24.5967C237.094 27.9989 236.481 30.7598 235.253 32.8792C234.025 34.9429 232.324 35.9747 230.147 35.9747C228.585 35.9747 227.357 35.6122 226.465 34.8871C225.572 34.1063 225.125 33.0187 225.125 31.6243C225.125 31.1223 225.237 30.2021 225.46 28.8635C225.795 27.3018 225.962 25.9074 225.962 24.6803C225.962 22.3378 225.265 20.4972 223.87 19.1586C222.531 17.7643 220.466 17.0671 217.676 17.0671C212.766 17.0671 208.971 18.6846 206.293 21.9195C203.615 25.0987 201.913 30.1184 201.187 36.9787L199.262 55.97C198.983 58.6472 198.62 60.9619 198.174 62.914C201.745 63.5275 206.209 64.5035 211.566 65.8421C214.691 66.623 217.09 67.1807 218.764 67.5154C220.438 67.85 221.917 68.0174 223.2 68.0174C226.437 68.0174 229.199 67.4875 231.487 66.4278C233.83 65.3123 236.034 63.5554 238.099 61.1571C238.768 60.3762 239.522 59.9858 240.359 59.9858Z" fill="white"/>
<path d="M246.205 79.0608C242.746 79.0608 239.984 77.8058 237.919 75.296C235.854 72.7861 234.822 69.4954 234.822 65.4238C234.822 60.9619 235.854 56.7509 237.919 52.7908C239.984 48.7751 242.718 45.568 246.122 43.1697C249.581 40.7156 253.236 39.4886 257.086 39.4886C258.314 39.4886 259.123 39.7395 259.514 40.2415C259.96 40.6877 260.323 41.5243 260.602 42.7514C261.773 42.5283 263.001 42.4167 264.284 42.4167C267.019 42.4167 268.386 43.3928 268.386 45.3449C268.386 46.5162 267.967 49.3049 267.13 53.7111C265.847 60.1252 265.205 64.5872 265.205 67.0971C265.205 67.9337 265.4 68.603 265.791 69.105C266.237 69.6069 266.795 69.8579 267.465 69.8579C268.525 69.8579 269.809 69.1886 271.315 67.85C272.822 66.4557 274.858 64.2247 277.425 61.1571C278.095 60.3762 278.848 59.9858 279.685 59.9858C280.411 59.9858 280.969 60.3204 281.359 60.9897C281.806 61.659 282.029 62.5793 282.029 63.7506C282.029 65.9816 281.499 67.7106 280.438 68.9376C278.151 71.7822 275.723 74.1805 273.157 76.1326C270.59 78.0847 268.107 79.0608 265.707 79.0608C263.866 79.0608 262.164 78.4472 260.602 77.2202C259.095 75.9374 257.951 74.2084 257.17 72.0331C254.268 76.7182 250.613 79.0608 246.205 79.0608ZM249.218 70.6109C250.446 70.6109 251.618 69.8858 252.734 68.4357C253.85 66.9855 254.659 65.0613 255.161 62.663L258.258 47.2691C255.914 47.3249 253.738 48.2173 251.729 49.9463C249.776 51.6196 248.214 53.8506 247.042 56.6393C245.87 59.428 245.285 62.3841 245.285 65.5075C245.285 67.2365 245.619 68.5193 246.289 69.356C247.014 70.1926 247.991 70.6109 249.218 70.6109Z" fill="white"/>
<path d="M291.799 79.0608C286.219 79.0608 282.145 76.9134 279.579 72.6188C277.068 68.3241 275.812 62.1052 275.812 53.9621C275.812 46.7672 276.705 38.9587 278.49 30.5367C280.276 22.0589 282.871 14.864 286.275 8.95185C289.734 2.98395 293.835 0 298.578 0C301.145 0 303.21 1.1155 304.772 3.34649C306.335 5.5217 307.116 8.36622 307.116 11.88C307.116 16.4536 306.251 20.9992 304.521 25.517C302.791 30.0347 299.918 34.7756 295.9 39.7395C298.634 39.9626 301.006 40.8829 303.014 42.5004C305.079 44.1179 306.641 46.2094 307.702 48.7751C308.818 51.3407 309.376 54.1294 309.376 57.1413C309.376 61.3244 308.539 65.0892 306.865 68.4357C305.246 71.7822 303.098 74.4036 300.42 76.2999C297.741 78.1405 294.868 79.0608 291.799 79.0608ZM286.86 45.4286C290.543 38.6798 293.473 32.7398 295.649 27.6085C297.881 22.4215 298.997 17.82 298.997 13.8043C298.997 12.0195 298.774 10.653 298.327 9.70481C297.937 8.75664 297.379 8.28256 296.653 8.28256C295.537 8.28256 294.31 9.9558 292.971 13.3023C291.687 16.593 290.487 21.0829 289.371 26.7719C288.255 32.4609 287.418 38.6798 286.86 45.4286ZM292.134 70.0253C294.031 70.0253 295.621 68.9934 296.904 66.9298C298.244 64.8661 298.913 61.8542 298.913 57.8942C298.913 54.8266 298.355 52.512 297.239 50.9503C296.123 49.3886 294.784 48.6077 293.222 48.6077C291.269 48.6077 289.623 49.6117 288.283 51.6196C286.944 53.6275 286.275 56.5556 286.275 60.4041C286.275 63.7506 286.833 66.2047 287.949 67.7664C289.065 69.2723 290.46 70.0253 292.134 70.0253Z" fill="white"/>
<path d="M330.11 80.9013C327.209 80.9013 324.977 80.232 323.414 78.8934C321.908 77.5549 321.154 76.0489 321.154 74.3757C321.154 72.9255 321.684 71.6706 322.745 70.6109C323.805 69.5512 325.367 69.0213 327.432 69.0213C328.157 69.0213 328.994 69.105 329.943 69.2723C330.947 69.3838 331.701 69.4675 332.203 69.5233C332.147 68.0731 331.812 66.7067 331.198 65.4238C330.64 64.141 329.915 62.914 329.022 61.7427C328.129 60.5156 327.292 59.4559 326.511 58.5635C324.781 61.8542 323.052 64.5872 321.322 66.7624C319.648 68.9376 317.806 71.0013 315.798 72.9534C314.793 73.9574 313.733 74.4594 312.617 74.4594C311.724 74.4594 310.999 74.1526 310.441 73.5391C309.883 72.8698 309.604 72.061 309.604 71.1129C309.604 69.9974 309.994 68.9655 310.776 68.0174L311.864 66.6788C314.933 62.8861 317.248 59.7627 318.811 57.3086C319.815 55.6911 320.82 53.7669 321.824 51.5359C322.884 49.3049 324.251 46.2652 325.925 42.4167C326.985 39.9626 329.19 38.7356 332.538 38.7356C334.1 38.7356 335.188 38.875 335.802 39.1539C336.416 39.4328 336.723 39.879 336.723 40.4925C336.723 40.8272 336.611 41.357 336.388 42.0821C336.165 42.8072 335.858 43.5322 335.467 44.2573C334.463 46.2652 333.96 47.9663 333.96 49.3607C333.96 50.1973 334.239 51.1176 334.797 52.1215C335.411 53.1255 336.332 54.3804 337.56 55.8863C339.345 58.2289 340.684 60.2368 341.577 61.91C342.526 63.5275 343 65.3123 343 67.2644C343 69.6069 342.442 71.8379 341.326 73.9574C340.266 76.021 338.759 77.6943 336.806 78.9771C334.853 80.2599 332.621 80.9013 330.11 80.9013Z" fill="white"/>
</svg>
