<svg width="615" height="191" viewBox="0 0 615 191" fill="none" xmlns="http://www.w3.org/2000/svg">
<path d="M136.35 107.4C136.95 107.2 137.85 107.1 139.05 107.1C142.45 107.1 144.15 109.3 144.15 113.7C144.15 116.1 143.6 118.15 142.5 119.85C141.5 121.45 139.9 122.45 137.7 122.85C128.6 124.55 119.65 126.45 110.85 128.55L110.4 132.15C107.6 151.85 102 166.4 93.6 175.8C85.3 185.3 74.9 190.05 62.4 190.05C54.1 190.05 47.65 188 43.05 183.9C38.55 179.9 36.3 174.75 36.3 168.45C36.3 157.95 41 148.6 50.4 140.4C59.8 132.2 74.05 124.95 93.15 118.65L96.15 97.5C96.55 95.1 97.05 91.9 97.65 87.9C92.95 100.3 86.95 109.55 79.65 115.65C72.35 121.75 64.2 124.8 55.2 124.8C46.6 124.8 40.05 122.2 35.55 117C31.05 111.7 28.8 104.9 28.8 96.6C28.8 92.9 29.2 88.85 30 84.45C30.8 79.95 32.05 73.9 33.75 66.3C35.25 59.4 36.35 53.9 37.05 49.8C37.85 45.7 38.25 42.05 38.25 38.85C38.25 34.05 36.4 31.65 32.7 31.65C29.8 31.65 26.35 33.1 22.35 36C18.45 38.8 14.3 43.15 9.90003 49.05C8.50002 50.95 6.95002 51.9 5.25002 51.9C3.85002 51.9 2.60002 51.25 1.50002 49.95C0.500024 48.55 2.44069e-05 47 2.44069e-05 45.3C2.44069e-05 42.2 1.40002 38.7 4.20002 34.8C14.4 20.8 26.35 13.8 40.05 13.8C46.15 13.8 50.9 15.65 54.3 19.35C57.8 23.05 59.55 28.5 59.55 35.7C59.55 40.9 59.05 46.25 58.05 51.75C57.15 57.15 55.75 64.05 53.85 72.45C52.65 77.45 51.75 81.5 51.15 84.6C50.55 87.6 50.25 90.1 50.25 92.1C50.25 97.2 51.15 100.85 52.95 103.05C54.75 105.25 57.9 106.35 62.4 106.35C67.8 106.35 73.3 103.4 78.9 97.5C84.6 91.5 89.7 82.45 94.2 70.35C98.8 58.25 102.1 43.45 104.1 25.95C104.6 21.55 105.75 18.45 107.55 16.65C109.35 14.75 111.95 13.8 115.35 13.8C122.35 13.8 125.85 17.3 125.85 24.3C125.85 25.5 125.8 26.45 125.7 27.15C123.6 42.05 121.65 55.5 119.85 67.5C118.85 74.7 117.75 82.1 116.55 89.7C115.45 97.3 114.35 105 113.25 112.8C120.55 110.8 128.25 109 136.35 107.4ZM90.9 134.4C66.7 142.8 54.6 153 54.6 165C54.6 167.8 55.45 170.1 57.15 171.9C58.95 173.8 61.45 174.75 64.65 174.75C78.55 174.75 87.25 161.65 90.75 135.45L90.9 134.4ZM151.923 141.75C145.723 141.75 140.773 139.5 137.073 135C133.373 130.5 131.523 124.6 131.523 117.3C131.523 109.3 133.373 101.75 137.073 94.65C140.773 87.45 145.673 81.7 151.773 77.4C157.973 73 164.523 70.8 171.423 70.8C173.623 70.8 175.073 71.25 175.773 72.15C176.573 72.95 177.223 74.45 177.723 76.65C179.823 76.25 182.023 76.05 184.323 76.05C189.223 76.05 191.673 77.8 191.673 81.3C191.673 83.4 190.923 88.4 189.423 96.3C187.123 107.8 185.973 115.8 185.973 120.3C185.973 121.8 186.323 123 187.023 123.9C187.823 124.8 188.823 125.25 190.023 125.25C191.923 125.25 194.223 124.05 196.923 121.65C199.623 119.15 203.273 115.15 207.873 109.65C209.073 108.25 210.423 107.55 211.923 107.55C213.223 107.55 214.223 108.15 214.923 109.35C215.723 110.55 216.123 112.2 216.123 114.3C216.123 118.3 215.173 121.4 213.273 123.6C209.173 128.7 204.823 133 200.223 136.5C195.623 140 191.173 141.75 186.873 141.75C183.573 141.75 180.523 140.65 177.723 138.45C175.023 136.15 172.973 133.05 171.573 129.15C166.373 137.55 159.823 141.75 151.923 141.75ZM157.323 126.6C159.523 126.6 161.623 125.3 163.623 122.7C165.623 120.1 167.073 116.65 167.973 112.35L173.523 84.75C169.323 84.85 165.423 86.45 161.823 89.55C158.323 92.55 155.523 96.55 153.423 101.55C151.323 106.55 150.273 111.85 150.273 117.45C150.273 120.55 150.873 122.85 152.073 124.35C153.373 125.85 155.123 126.6 157.323 126.6ZM267.682 125.4C271.782 126.2 273.832 128.45 273.832 132.15C273.832 134.65 272.682 136.9 270.382 138.9C268.182 140.8 264.982 141.75 260.782 141.75C253.582 141.75 247.682 139.55 243.082 135.15C238.582 130.65 236.332 124.8 236.332 117.6C236.332 113.7 238.332 110.9 242.332 109.2C246.732 107.3 249.882 105.3 251.782 103.2C253.682 101 254.632 98.35 254.632 95.25C254.632 93.45 254.232 92.1 253.432 91.2C252.732 90.3 251.832 89.85 250.732 89.85C248.032 89.85 245.032 91.8 241.732 95.7C238.532 99.6 235.532 104.65 232.732 110.85C229.932 116.95 227.732 123.25 226.132 129.75C225.032 134.45 223.732 137.65 222.232 139.35C220.832 140.95 218.582 141.75 215.482 141.75C212.382 141.75 210.082 140.65 208.582 138.45C207.182 136.15 206.232 132.65 205.732 127.95C205.232 123.25 204.982 116.35 204.982 107.25C204.982 91.85 206.532 75.8 209.632 59.1C212.832 42.4 217.482 28.4 223.582 17.1C229.782 5.69999 237.182 -8.58307e-06 245.782 -8.58307e-06C250.382 -8.58307e-06 254.082 1.99999 256.882 5.99999C259.782 9.89999 261.232 15 261.232 21.3C261.232 31.4 258.282 41.9 252.382 52.8C246.482 63.6 236.882 76.25 223.582 90.75C223.282 95.95 223.132 101.3 223.132 106.8C227.932 94.3 233.432 85.25 239.632 79.65C245.832 73.95 251.632 71.1 257.032 71.1C262.032 71.1 266.032 72.8 269.032 76.2C272.132 79.6 273.682 83.8 273.682 88.8C273.682 94.3 272.282 99.35 269.482 103.95C266.682 108.55 261.882 112.65 255.082 116.25C255.682 119.25 256.882 121.35 258.682 122.55C260.582 123.65 263.582 124.6 267.682 125.4ZM242.632 14.85C240.832 14.85 238.832 17.45 236.632 22.65C234.432 27.75 232.282 34.7 230.182 43.5C228.182 52.2 226.532 61.7 225.232 72C231.432 64.7 236.532 56.75 240.532 48.15C244.632 39.55 246.682 31.75 246.682 24.75C246.682 21.55 246.332 19.1 245.632 17.4C244.932 15.7 243.932 14.85 242.632 14.85ZM430.752 107.55C432.052 107.55 433.052 108.15 433.752 109.35C434.552 110.55 434.952 112.2 434.952 114.3C434.952 118.2 434.002 121.3 432.102 123.6C426.502 130.3 421.052 135 415.752 137.7C410.552 140.4 404.252 141.75 396.852 141.75C391.652 141.75 386.852 141.1 382.452 139.8C378.052 138.5 372.702 136.55 366.402 133.95C360.702 131.45 355.202 129.4 349.902 127.8C344.802 137.1 337.152 141.75 326.952 141.75C321.352 141.75 316.902 140.5 313.602 138C310.202 135.4 308.502 132.1 308.502 128.1C308.502 123.2 310.852 119.15 315.552 115.95C320.252 112.65 326.502 111 334.302 111H336.252L338.952 67.35C339.552 57.35 341.352 49.1 344.352 42.6C347.352 36.1 351.502 30.55 356.802 25.95C361.402 21.95 366.652 18.95 372.552 16.95C378.452 14.85 384.702 13.8 391.302 13.8C402.102 13.8 410.402 16.6 416.202 22.2C422.002 27.8 424.902 35.1 424.902 44.1C424.902 50.2 423.802 55.15 421.602 58.95C419.402 62.65 416.352 64.5 412.452 64.5C409.652 64.5 407.452 63.85 405.852 62.55C404.252 61.15 403.452 59.2 403.452 56.7C403.452 55.8 403.652 54.15 404.052 51.75C404.652 48.95 404.952 46.45 404.952 44.25C404.952 40.05 403.702 36.75 401.202 34.35C398.802 31.85 395.102 30.6 390.102 30.6C381.302 30.6 374.502 33.5 369.702 39.3C364.902 45 361.852 54 360.552 66.3L357.102 100.35C356.602 105.15 355.952 109.3 355.152 112.8C361.552 113.9 369.552 115.65 379.152 118.05C384.752 119.45 389.052 120.45 392.052 121.05C395.052 121.65 397.702 121.95 400.002 121.95C405.802 121.95 410.752 121 414.852 119.1C419.052 117.1 423.002 113.95 426.702 109.65C427.902 108.25 429.252 107.55 430.752 107.55ZM441.23 141.75C435.03 141.75 430.08 139.5 426.38 135C422.68 130.5 420.83 124.6 420.83 117.3C420.83 109.3 422.68 101.75 426.38 94.65C430.08 87.45 434.98 81.7 441.08 77.4C447.28 73 453.83 70.8 460.73 70.8C462.93 70.8 464.38 71.25 465.08 72.15C465.88 72.95 466.53 74.45 467.03 76.65C469.13 76.25 471.33 76.05 473.63 76.05C478.53 76.05 480.98 77.8 480.98 81.3C480.98 83.4 480.23 88.4 478.73 96.3C476.43 107.8 475.28 115.8 475.28 120.3C475.28 121.8 475.63 123 476.33 123.9C477.13 124.8 478.13 125.25 479.33 125.25C481.23 125.25 483.53 124.05 486.23 121.65C488.93 119.15 492.58 115.15 497.18 109.65C498.38 108.25 499.73 107.55 501.23 107.55C502.53 107.55 503.53 108.15 504.23 109.35C505.03 110.55 505.43 112.2 505.43 114.3C505.43 118.3 504.48 121.4 502.58 123.6C498.48 128.7 494.13 133 489.53 136.5C484.93 140 480.48 141.75 476.18 141.75C472.88 141.75 469.83 140.65 467.03 138.45C464.33 136.15 462.28 133.05 460.88 129.15C455.68 137.55 449.13 141.75 441.23 141.75ZM446.63 126.6C448.83 126.6 450.93 125.3 452.93 122.7C454.93 120.1 456.38 116.65 457.28 112.35L462.83 84.75C458.63 84.85 454.73 86.45 451.13 89.55C447.63 92.55 444.83 96.55 442.73 101.55C440.63 106.55 439.58 111.85 439.58 117.45C439.58 120.55 440.18 122.85 441.38 124.35C442.68 125.85 444.43 126.6 446.63 126.6ZM522.939 141.75C512.939 141.75 505.639 137.9 501.039 130.2C496.539 122.5 494.289 111.35 494.289 96.75C494.289 83.85 495.889 69.85 499.089 54.75C502.289 39.55 506.939 26.65 513.039 16.05C519.239 5.34999 526.589 -8.58307e-06 535.089 -8.58307e-06C539.689 -8.58307e-06 543.389 1.99999 546.189 5.99999C548.989 9.89999 550.389 15 550.389 21.3C550.389 29.5 548.839 37.65 545.739 45.75C542.639 53.85 537.489 62.35 530.289 71.25C535.189 71.65 539.439 73.3 543.039 76.2C546.739 79.1 549.539 82.85 551.439 87.45C553.439 92.05 554.439 97.05 554.439 102.45C554.439 109.95 552.939 116.7 549.939 122.7C547.039 128.7 543.189 133.4 538.389 136.8C533.589 140.1 528.439 141.75 522.939 141.75ZM514.089 81.45C520.689 69.35 525.939 58.7 529.839 49.5C533.839 40.2 535.839 31.95 535.839 24.75C535.839 21.55 535.439 19.1 534.639 17.4C533.939 15.7 532.939 14.85 531.639 14.85C529.639 14.85 527.439 17.85 525.039 23.85C522.739 29.75 520.589 37.8 518.589 48C516.589 58.2 515.089 69.35 514.089 81.45ZM523.539 125.55C526.939 125.55 529.789 123.7 532.089 120C534.489 116.3 535.689 110.9 535.689 103.8C535.689 98.3 534.689 94.15 532.689 91.35C530.689 88.55 528.289 87.15 525.489 87.15C521.989 87.15 519.039 88.95 516.639 92.55C514.239 96.15 513.039 101.4 513.039 108.3C513.039 114.3 514.039 118.7 516.039 121.5C518.039 124.2 520.539 125.55 523.539 125.55ZM591.598 145.05C586.398 145.05 582.398 143.85 579.598 141.45C576.898 139.05 575.548 136.35 575.548 133.35C575.548 130.75 576.498 128.5 578.398 126.6C580.298 124.7 583.098 123.75 586.798 123.75C588.098 123.75 589.598 123.9 591.298 124.2C593.098 124.4 594.448 124.55 595.348 124.65C595.248 122.05 594.648 119.6 593.548 117.3C592.548 115 591.248 112.8 589.648 110.7C588.048 108.5 586.548 106.6 585.148 105C582.048 110.9 578.948 115.8 575.848 119.7C572.848 123.6 569.548 127.3 565.948 130.8C564.148 132.6 562.248 133.5 560.248 133.5C558.648 133.5 557.348 132.95 556.348 131.85C555.348 130.65 554.848 129.2 554.848 127.5C554.848 125.5 555.548 123.65 556.948 121.95L558.898 119.55C564.398 112.75 568.548 107.15 571.348 102.75C573.148 99.85 574.948 96.4 576.748 92.4C578.648 88.4 581.098 82.95 584.098 76.05C585.998 71.65 589.948 69.45 595.948 69.45C598.748 69.45 600.698 69.7 601.798 70.2C602.898 70.7 603.448 71.5 603.448 72.6C603.448 73.2 603.248 74.15 602.848 75.45C602.448 76.75 601.898 78.05 601.198 79.35C599.398 82.95 598.498 86 598.498 88.5C598.498 90 598.998 91.65 599.998 93.45C601.098 95.25 602.748 97.5 604.948 100.2C608.148 104.4 610.548 108 612.148 111C613.848 113.9 614.698 117.1 614.698 120.6C614.698 124.8 613.698 128.8 611.698 132.6C609.798 136.3 607.098 139.3 603.598 141.6C600.098 143.9 596.098 145.05 591.598 145.05Z" fill="white"/>
</svg>
